<svg width="1088" height="438" viewBox="0 0 1088 438" fill="none" xmlns="http://www.w3.org/2000/svg">
<circle cx="151.6" cy="151.5" r="151.2" fill="#432DF1"/>
<path d="M77.8985 383.7C77.5843 383.7 77.3202 383.593 77.106 383.379C76.8918 383.165 76.7847 382.9 76.7847 382.586V368.085C76.7847 367.756 76.8918 367.492 77.106 367.292C77.3202 367.078 77.5843 366.971 77.8985 366.971H82.1825C83.2535 366.971 84.2031 367.207 85.0314 367.678C85.8596 368.149 86.5022 368.806 86.9592 369.649C87.4304 370.477 87.666 371.434 87.666 372.519C87.666 373.561 87.4304 374.489 86.9592 375.303C86.5022 376.117 85.8596 376.753 85.0314 377.21C84.2031 377.667 83.2535 377.895 82.1825 377.895H79.0123V382.586C79.0123 382.9 78.9052 383.165 78.691 383.379C78.4911 383.593 78.2269 383.7 77.8985 383.7ZM79.0123 375.839H82.1825C82.8394 375.839 83.4177 375.696 83.9175 375.411C84.4173 375.125 84.81 374.732 85.0956 374.232C85.3812 373.733 85.524 373.161 85.524 372.519C85.524 371.833 85.3812 371.234 85.0956 370.72C84.81 370.191 84.4173 369.777 83.9175 369.477C83.4177 369.177 82.8394 369.027 82.1825 369.027H79.0123V375.839ZM90.9657 376.374C90.9657 375.518 91.1728 374.754 91.5869 374.082C92.0153 373.397 92.5865 372.854 93.3005 372.455C94.0145 372.055 94.7999 371.855 95.6567 371.855C96.5135 371.855 97.1489 371.998 97.5631 372.283C97.9915 372.555 98.1557 372.883 98.0557 373.269C98.0129 373.468 97.9272 373.626 97.7987 373.74C97.6844 373.84 97.5488 373.904 97.3917 373.933C97.2346 373.961 97.0633 373.954 96.8776 373.911C95.9637 373.725 95.1426 373.711 94.4143 373.868C93.686 374.025 93.1077 374.318 92.6793 374.747C92.2652 375.175 92.0581 375.718 92.0581 376.374H90.9657ZM90.9871 383.7C90.6444 383.7 90.3802 383.614 90.1946 383.443C90.0089 383.257 89.9161 382.986 89.9161 382.629V373.054C89.9161 372.712 90.0089 372.447 90.1946 372.262C90.3802 372.076 90.6444 371.983 90.9871 371.983C91.3441 371.983 91.6083 372.076 91.7797 372.262C91.9653 372.433 92.0581 372.697 92.0581 373.054V382.629C92.0581 382.972 91.9653 383.236 91.7797 383.422C91.6083 383.607 91.3441 383.7 90.9871 383.7ZM101.64 383.7C101.326 383.7 101.062 383.6 100.847 383.4C100.647 383.186 100.547 382.922 100.547 382.608V373.076C100.547 372.747 100.647 372.483 100.847 372.283C101.062 372.083 101.326 371.983 101.64 371.983C101.968 371.983 102.233 372.083 102.432 372.283C102.632 372.483 102.732 372.747 102.732 373.076V382.608C102.732 382.922 102.632 383.186 102.432 383.4C102.233 383.6 101.968 383.7 101.64 383.7ZM101.64 370.077C101.254 370.077 100.919 369.941 100.633 369.67C100.362 369.384 100.226 369.049 100.226 368.663C100.226 368.278 100.362 367.949 100.633 367.678C100.919 367.392 101.254 367.25 101.64 367.25C102.025 367.25 102.354 367.392 102.625 367.678C102.911 367.949 103.054 368.278 103.054 368.663C103.054 369.049 102.911 369.384 102.625 369.67C102.354 369.941 102.025 370.077 101.64 370.077ZM122.176 383.721C121.862 383.721 121.598 383.622 121.384 383.422C121.184 383.207 121.084 382.943 121.084 382.629V376.503C121.084 375.603 120.863 374.939 120.42 374.511C119.977 374.068 119.399 373.847 118.685 373.847C117.942 373.847 117.328 374.104 116.843 374.618C116.372 375.132 116.136 375.789 116.136 376.589H114.358C114.358 375.66 114.558 374.846 114.958 374.147C115.358 373.433 115.915 372.876 116.629 372.476C117.357 372.076 118.185 371.876 119.113 371.876C119.927 371.876 120.649 372.055 121.277 372.412C121.905 372.769 122.391 373.297 122.733 373.997C123.09 374.682 123.269 375.518 123.269 376.503V382.629C123.269 382.943 123.169 383.207 122.969 383.422C122.769 383.622 122.505 383.721 122.176 383.721ZM107.889 383.721C107.575 383.721 107.311 383.622 107.097 383.422C106.897 383.207 106.797 382.943 106.797 382.629V373.097C106.797 372.769 106.897 372.505 107.097 372.305C107.311 372.105 107.575 372.005 107.889 372.005C108.218 372.005 108.482 372.105 108.682 372.305C108.882 372.505 108.982 372.769 108.982 373.097V382.629C108.982 382.943 108.882 383.207 108.682 383.422C108.482 383.622 108.218 383.721 107.889 383.721ZM115.044 383.721C114.729 383.721 114.465 383.622 114.251 383.422C114.051 383.207 113.951 382.943 113.951 382.629V376.503C113.951 375.603 113.73 374.939 113.287 374.511C112.844 374.068 112.266 373.847 111.552 373.847C110.81 373.847 110.196 374.104 109.71 374.618C109.225 375.132 108.982 375.789 108.982 376.589H107.632C107.632 375.66 107.818 374.846 108.189 374.147C108.56 373.433 109.075 372.876 109.731 372.476C110.388 372.076 111.138 371.876 111.981 371.876C112.795 371.876 113.516 372.055 114.144 372.412C114.772 372.769 115.258 373.297 115.601 373.997C115.958 374.682 116.136 375.518 116.136 376.503V382.629C116.136 382.943 116.036 383.207 115.836 383.422C115.636 383.622 115.372 383.721 115.044 383.721ZM131.783 383.786C130.74 383.786 129.805 383.529 128.977 383.015C128.149 382.486 127.492 381.779 127.006 380.894C126.535 379.994 126.299 378.981 126.299 377.852C126.299 376.724 126.556 375.71 127.07 374.811C127.599 373.911 128.306 373.204 129.191 372.69C130.091 372.162 131.097 371.898 132.211 371.898C133.325 371.898 134.325 372.162 135.21 372.69C136.095 373.204 136.795 373.911 137.309 374.811C137.838 375.71 138.102 376.724 138.102 377.852H137.266C137.266 378.981 137.024 379.994 136.538 380.894C136.067 381.779 135.417 382.486 134.589 383.015C133.761 383.529 132.825 383.786 131.783 383.786ZM132.211 381.858C132.94 381.858 133.589 381.687 134.16 381.344C134.732 380.987 135.181 380.508 135.51 379.909C135.838 379.295 136.003 378.609 136.003 377.852C136.003 377.081 135.838 376.396 135.51 375.796C135.181 375.182 134.732 374.704 134.16 374.361C133.589 374.004 132.94 373.825 132.211 373.825C131.497 373.825 130.848 374.004 130.262 374.361C129.691 374.704 129.234 375.182 128.891 375.796C128.563 376.396 128.398 377.081 128.398 377.852C128.398 378.609 128.563 379.295 128.891 379.909C129.234 380.508 129.691 380.987 130.262 381.344C130.848 381.687 131.497 381.858 132.211 381.858ZM137.009 383.721C136.695 383.721 136.431 383.622 136.217 383.422C136.017 383.207 135.917 382.943 135.917 382.629V379.352L136.324 377.081L138.102 377.852V382.629C138.102 382.943 137.995 383.207 137.78 383.422C137.581 383.622 137.323 383.721 137.009 383.721ZM142.403 376.374C142.403 375.518 142.61 374.754 143.024 374.082C143.453 373.397 144.024 372.854 144.738 372.455C145.452 372.055 146.237 371.855 147.094 371.855C147.951 371.855 148.586 371.998 149 372.283C149.429 372.555 149.593 372.883 149.493 373.269C149.45 373.468 149.364 373.626 149.236 373.74C149.122 373.84 148.986 373.904 148.829 373.933C148.672 373.961 148.501 373.954 148.315 373.911C147.401 373.725 146.58 373.711 145.852 373.868C145.123 374.025 144.545 374.318 144.117 374.747C143.702 375.175 143.495 375.718 143.495 376.374H142.403ZM142.424 383.7C142.082 383.7 141.817 383.614 141.632 383.443C141.446 383.257 141.353 382.986 141.353 382.629V373.054C141.353 372.712 141.446 372.447 141.632 372.262C141.817 372.076 142.082 371.983 142.424 371.983C142.781 371.983 143.046 372.076 143.217 372.262C143.403 372.433 143.495 372.697 143.495 373.054V382.629C143.495 382.972 143.403 383.236 143.217 383.422C143.046 383.607 142.781 383.7 142.424 383.7ZM153.87 388.841C153.727 388.841 153.556 388.798 153.356 388.712C152.727 388.427 152.556 387.977 152.842 387.363L159.375 372.605C159.66 372.005 160.11 371.833 160.724 372.09C161.367 372.362 161.545 372.812 161.26 373.44L154.705 388.177C154.534 388.62 154.255 388.841 153.87 388.841ZM156.397 383.229C156.126 383.343 155.869 383.357 155.626 383.272C155.398 383.172 155.212 382.986 155.069 382.715L150.164 373.397C150.021 373.126 150 372.869 150.1 372.626C150.214 372.369 150.407 372.183 150.678 372.069C150.949 371.955 151.206 371.948 151.449 372.048C151.692 372.133 151.878 372.312 152.006 372.583L156.697 381.901C156.84 382.172 156.89 382.436 156.847 382.693C156.819 382.936 156.669 383.115 156.397 383.229ZM177.304 383.914C176.147 383.914 175.062 383.7 174.048 383.272C173.048 382.829 172.17 382.222 171.413 381.451C170.671 380.666 170.085 379.752 169.657 378.709C169.243 377.667 169.036 376.539 169.036 375.325C169.036 374.125 169.243 373.011 169.657 371.983C170.085 370.941 170.671 370.034 171.413 369.263C172.17 368.478 173.048 367.864 174.048 367.421C175.048 366.978 176.133 366.757 177.304 366.757C178.403 366.757 179.346 366.9 180.131 367.185C180.931 367.471 181.731 367.942 182.53 368.599C182.645 368.685 182.73 368.777 182.787 368.877C182.859 368.963 182.902 369.056 182.916 369.156C182.944 369.242 182.959 369.349 182.959 369.477C182.959 369.749 182.859 369.977 182.659 370.163C182.473 370.334 182.245 370.434 181.973 370.463C181.702 370.477 181.438 370.384 181.181 370.184C180.653 369.727 180.103 369.377 179.532 369.134C178.975 368.892 178.232 368.77 177.304 368.77C176.461 368.77 175.669 368.942 174.926 369.284C174.184 369.627 173.527 370.098 172.956 370.698C172.399 371.298 171.963 371.998 171.649 372.797C171.335 373.583 171.178 374.425 171.178 375.325C171.178 376.239 171.335 377.096 171.649 377.895C171.963 378.681 172.399 379.373 172.956 379.973C173.527 380.573 174.184 381.044 174.926 381.387C175.669 381.715 176.461 381.879 177.304 381.879C178.032 381.879 178.718 381.758 179.36 381.515C180.017 381.258 180.645 380.908 181.245 380.466C181.502 380.28 181.752 380.201 181.995 380.23C182.252 380.244 182.466 380.344 182.637 380.53C182.809 380.701 182.894 380.944 182.894 381.258C182.894 381.401 182.866 381.544 182.809 381.687C182.752 381.815 182.666 381.936 182.552 382.051C181.781 382.665 180.952 383.129 180.067 383.443C179.196 383.757 178.275 383.914 177.304 383.914ZM190.698 383.786C189.541 383.786 188.52 383.536 187.635 383.036C186.749 382.522 186.05 381.822 185.536 380.937C185.036 380.037 184.786 379.009 184.786 377.852C184.786 376.681 185.036 375.653 185.536 374.768C186.05 373.868 186.749 373.169 187.635 372.669C188.52 372.155 189.541 371.898 190.698 371.898C191.84 371.898 192.854 372.155 193.74 372.669C194.625 373.169 195.317 373.868 195.817 374.768C196.331 375.653 196.588 376.681 196.588 377.852C196.588 379.009 196.338 380.037 195.839 380.937C195.339 381.822 194.646 382.522 193.761 383.036C192.876 383.536 191.855 383.786 190.698 383.786ZM190.698 381.858C191.44 381.858 192.097 381.687 192.669 381.344C193.24 381.001 193.682 380.53 193.997 379.93C194.325 379.33 194.489 378.638 194.489 377.852C194.489 377.067 194.325 376.374 193.997 375.775C193.682 375.161 193.24 374.682 192.669 374.34C192.097 373.997 191.44 373.825 190.698 373.825C189.955 373.825 189.298 373.997 188.727 374.34C188.156 374.682 187.706 375.161 187.378 375.775C187.049 376.374 186.885 377.067 186.885 377.852C186.885 378.638 187.049 379.33 187.378 379.93C187.706 380.53 188.156 381.001 188.727 381.344C189.298 381.687 189.955 381.858 190.698 381.858ZM202.625 383.7C201.996 383.7 201.439 383.529 200.954 383.186C200.468 382.843 200.09 382.379 199.819 381.794C199.547 381.194 199.412 380.508 199.412 379.737V368.042C199.412 367.728 199.512 367.471 199.712 367.271C199.911 367.071 200.168 366.971 200.483 366.971C200.797 366.971 201.054 367.071 201.254 367.271C201.454 367.471 201.554 367.728 201.554 368.042V379.737C201.554 380.266 201.654 380.701 201.854 381.044C202.053 381.387 202.31 381.558 202.625 381.558H203.16C203.446 381.558 203.674 381.658 203.846 381.858C204.031 382.058 204.124 382.315 204.124 382.629C204.124 382.943 203.988 383.2 203.717 383.4C203.446 383.6 203.096 383.7 202.667 383.7H202.625ZM210.926 383.786C209.769 383.786 208.748 383.536 207.862 383.036C206.977 382.522 206.277 381.822 205.763 380.937C205.264 380.037 205.014 379.009 205.014 377.852C205.014 376.681 205.264 375.653 205.763 374.768C206.277 373.868 206.977 373.169 207.862 372.669C208.748 372.155 209.769 371.898 210.926 371.898C212.068 371.898 213.082 372.155 213.967 372.669C214.853 373.169 215.545 373.868 216.045 374.768C216.559 375.653 216.816 376.681 216.816 377.852C216.816 379.009 216.566 380.037 216.066 380.937C215.567 381.822 214.874 382.522 213.989 383.036C213.103 383.536 212.082 383.786 210.926 383.786ZM210.926 381.858C211.668 381.858 212.325 381.687 212.896 381.344C213.467 381.001 213.91 380.53 214.224 379.93C214.553 379.33 214.717 378.638 214.717 377.852C214.717 377.067 214.553 376.374 214.224 375.775C213.91 375.161 213.467 374.682 212.896 374.34C212.325 373.997 211.668 373.825 210.926 373.825C210.183 373.825 209.526 373.997 208.955 374.34C208.384 374.682 207.934 375.161 207.605 375.775C207.277 376.374 207.113 377.067 207.113 377.852C207.113 378.638 207.277 379.33 207.605 379.93C207.934 380.53 208.384 381.001 208.955 381.344C209.526 381.687 210.183 381.858 210.926 381.858ZM221.117 376.374C221.117 375.518 221.324 374.754 221.738 374.082C222.167 373.397 222.738 372.854 223.452 372.455C224.166 372.055 224.951 371.855 225.808 371.855C226.665 371.855 227.301 371.998 227.715 372.283C228.143 372.555 228.307 372.883 228.207 373.269C228.164 373.468 228.079 373.626 227.95 373.74C227.836 373.84 227.7 373.904 227.543 373.933C227.386 373.961 227.215 373.954 227.029 373.911C226.115 373.725 225.294 373.711 224.566 373.868C223.838 374.025 223.259 374.318 222.831 374.747C222.417 375.175 222.21 375.718 222.21 376.374H221.117ZM221.139 383.7C220.796 383.7 220.532 383.614 220.346 383.443C220.161 383.257 220.068 382.986 220.068 382.629V373.054C220.068 372.712 220.161 372.447 220.346 372.262C220.532 372.076 220.796 371.983 221.139 371.983C221.496 371.983 221.76 372.076 221.931 372.262C222.117 372.433 222.21 372.697 222.21 373.054V382.629C222.21 382.972 222.117 383.236 221.931 383.422C221.76 383.607 221.496 383.7 221.139 383.7ZM123.669 412.782C123.921 412.782 124.125 412.842 124.281 412.962C124.437 413.082 124.497 413.28 124.461 413.556C124.449 413.784 124.341 413.964 124.137 414.096C123.933 414.228 123.699 414.294 123.435 414.294H122.229L121.797 416.85H122.949C123.225 416.85 123.429 416.916 123.561 417.048C123.705 417.18 123.777 417.354 123.777 417.57C123.777 417.762 123.681 417.942 123.489 418.11C123.297 418.278 123.039 418.362 122.715 418.362H121.419L120.825 421.8C120.777 422.064 120.669 422.28 120.501 422.448C120.345 422.616 120.129 422.7 119.853 422.7C119.589 422.7 119.391 422.604 119.259 422.412C119.139 422.22 119.103 421.992 119.151 421.728L119.709 418.362H116.937L116.361 421.8C116.313 422.052 116.199 422.268 116.019 422.448C115.851 422.616 115.641 422.7 115.389 422.7C115.125 422.7 114.927 422.622 114.795 422.466C114.663 422.298 114.621 422.052 114.669 421.728L115.245 418.362H114.003C113.751 418.362 113.547 418.302 113.391 418.182C113.247 418.05 113.181 417.882 113.193 417.678C113.217 417.402 113.319 417.198 113.499 417.066C113.691 416.922 113.937 416.85 114.237 416.85H115.623L116.037 414.294H114.705C114.465 414.294 114.267 414.24 114.111 414.132C113.955 414.024 113.877 413.856 113.877 413.628C113.877 413.34 113.973 413.13 114.165 412.998C114.357 412.854 114.615 412.782 114.939 412.782H116.397L116.991 409.524C117.051 409.248 117.159 409.032 117.315 408.876C117.471 408.708 117.687 408.624 117.963 408.624C118.227 408.624 118.425 408.714 118.557 408.894C118.701 409.074 118.743 409.308 118.683 409.596L118.107 412.782H120.879L121.473 409.524C121.521 409.272 121.629 409.062 121.797 408.894C121.965 408.714 122.181 408.624 122.445 408.624C122.721 408.624 122.919 408.714 123.039 408.894C123.171 409.074 123.207 409.308 123.147 409.596L122.589 412.782H123.669ZM120.087 416.85L120.519 414.294H117.747L117.333 416.85H120.087ZM133.421 422.7C133.181 422.7 132.977 422.61 132.809 422.43C132.641 422.25 132.557 422.034 132.557 421.782V419.514H126.563C126.287 419.514 126.071 419.43 125.915 419.262C125.759 419.094 125.669 418.902 125.645 418.686C125.633 418.458 125.693 418.254 125.825 418.074L132.719 409.038C132.815 408.918 132.923 408.822 133.043 408.75C133.175 408.678 133.319 408.642 133.475 408.642C133.727 408.642 133.931 408.732 134.087 408.912C134.243 409.092 134.321 409.314 134.321 409.578V417.858H135.401C135.653 417.858 135.869 417.918 136.049 418.038C136.229 418.158 136.319 418.374 136.319 418.686C136.319 418.914 136.229 419.112 136.049 419.28C135.869 419.436 135.653 419.514 135.401 419.514H134.321V421.782C134.321 422.034 134.237 422.25 134.069 422.43C133.901 422.61 133.685 422.7 133.421 422.7ZM127.643 418.362L127.157 417.858H132.557V410.442L133.115 411.162L127.643 418.362ZM142.661 422.7C141.761 422.7 140.963 422.514 140.267 422.142C139.571 421.758 139.025 421.242 138.629 420.594C138.233 419.934 138.035 419.196 138.035 418.38C138.035 418.104 138.113 417.882 138.269 417.714C138.437 417.534 138.635 417.444 138.863 417.444C139.103 417.444 139.301 417.534 139.457 417.714C139.613 417.882 139.691 418.104 139.691 418.38C139.691 418.872 139.817 419.328 140.069 419.748C140.321 420.156 140.663 420.486 141.095 420.738C141.527 420.978 142.013 421.098 142.553 421.098C143.345 421.098 143.981 420.882 144.461 420.45C144.953 420.006 145.199 419.388 145.199 418.596C145.199 418.092 145.091 417.642 144.875 417.246C144.659 416.838 144.365 416.514 143.993 416.274C143.621 416.034 143.201 415.914 142.733 415.914C142.469 415.914 142.247 415.824 142.067 415.644C141.899 415.464 141.815 415.242 141.815 414.978C141.815 414.714 141.899 414.498 142.067 414.33C142.247 414.15 142.469 414.06 142.733 414.06C143.069 414.06 143.393 413.976 143.705 413.808C144.017 413.628 144.275 413.394 144.479 413.106C144.683 412.806 144.785 412.47 144.785 412.098C144.785 411.57 144.593 411.126 144.209 410.766C143.825 410.406 143.333 410.226 142.733 410.226C142.277 410.226 141.857 410.316 141.473 410.496C141.101 410.676 140.801 410.916 140.573 411.216C140.357 411.516 140.249 411.852 140.249 412.224C140.249 412.5 140.171 412.734 140.015 412.926C139.859 413.106 139.661 413.196 139.421 413.196C139.193 413.196 138.995 413.112 138.827 412.944C138.671 412.764 138.593 412.542 138.593 412.278C138.593 411.582 138.773 410.958 139.133 410.406C139.493 409.854 139.985 409.422 140.609 409.11C141.233 408.786 141.929 408.624 142.697 408.624C143.405 408.624 144.041 408.78 144.605 409.092C145.181 409.392 145.631 409.806 145.955 410.334C146.291 410.85 146.459 411.438 146.459 412.098C146.459 412.566 146.351 412.98 146.135 413.34C145.931 413.7 145.667 414.012 145.343 414.276C145.019 414.528 144.677 414.738 144.317 414.906C144.953 415.122 145.469 415.416 145.865 415.788C146.261 416.148 146.549 416.568 146.729 417.048C146.921 417.528 147.017 418.05 147.017 418.614C147.017 419.394 146.819 420.096 146.423 420.72C146.027 421.332 145.499 421.818 144.839 422.178C144.179 422.526 143.453 422.7 142.661 422.7ZM149.909 422.7C149.645 422.7 149.423 422.61 149.243 422.43C149.075 422.25 148.991 422.034 148.991 421.782C148.991 421.518 149.075 421.302 149.243 421.134L154.355 415.158C154.715 414.738 154.991 414.342 155.183 413.97C155.387 413.598 155.489 413.244 155.489 412.908C155.489 412.38 155.399 411.924 155.219 411.54C155.039 411.156 154.781 410.862 154.445 410.658C154.109 410.442 153.707 410.334 153.239 410.334C152.783 410.334 152.369 410.454 151.997 410.694C151.637 410.922 151.349 411.234 151.133 411.63C150.929 412.014 150.827 412.44 150.827 412.908C150.827 413.148 150.737 413.358 150.557 413.538C150.389 413.718 150.173 413.808 149.909 413.808C149.657 413.808 149.441 413.718 149.261 413.538C149.081 413.358 148.991 413.148 148.991 412.908C148.991 412.092 149.177 411.366 149.549 410.73C149.921 410.082 150.425 409.572 151.061 409.2C151.709 408.828 152.435 408.642 153.239 408.642C154.055 408.642 154.763 408.816 155.363 409.164C155.963 409.512 156.425 410.004 156.749 410.64C157.085 411.276 157.253 412.032 157.253 412.908C157.253 413.292 157.169 413.682 157.001 414.078C156.845 414.474 156.641 414.852 156.389 415.212C156.149 415.572 155.903 415.896 155.651 416.184L151.529 420.864H156.569C156.833 420.864 157.055 420.96 157.235 421.152C157.415 421.332 157.505 421.542 157.505 421.782C157.505 422.034 157.415 422.25 157.235 422.43C157.055 422.61 156.833 422.7 156.569 422.7H149.909ZM161.139 422.7C160.875 422.7 160.653 422.61 160.473 422.43C160.293 422.25 160.203 422.028 160.203 421.764V409.578C160.203 409.302 160.293 409.08 160.473 408.912C160.653 408.732 160.875 408.642 161.139 408.642H164.397C165.429 408.642 166.365 408.816 167.205 409.164C168.057 409.5 168.795 409.986 169.419 410.622C170.043 411.246 170.523 411.984 170.859 412.836C171.195 413.688 171.363 414.63 171.363 415.662C171.363 416.694 171.195 417.642 170.859 418.506C170.523 419.358 170.043 420.102 169.419 420.738C168.795 421.362 168.057 421.848 167.205 422.196C166.365 422.532 165.429 422.7 164.397 422.7H161.139ZM162.075 421.044H164.397C165.405 421.044 166.293 420.816 167.061 420.36C167.841 419.892 168.453 419.256 168.897 418.452C169.341 417.636 169.563 416.706 169.563 415.662C169.563 414.606 169.341 413.676 168.897 412.872C168.453 412.068 167.841 411.438 167.061 410.982C166.293 410.526 165.405 410.298 164.397 410.298H162.075V421.044ZM174.102 422.7C173.838 422.7 173.616 422.61 173.436 422.43C173.256 422.25 173.166 422.028 173.166 421.764V409.578C173.166 409.302 173.256 409.08 173.436 408.912C173.616 408.732 173.838 408.642 174.102 408.642H182.238C182.514 408.642 182.736 408.726 182.904 408.894C183.072 409.05 183.156 409.26 183.156 409.524C183.156 409.776 183.072 409.98 182.904 410.136C182.736 410.292 182.514 410.37 182.238 410.37H175.038V414.744H180.204C180.48 414.744 180.702 414.828 180.87 414.996C181.038 415.152 181.122 415.356 181.122 415.608C181.122 415.86 181.038 416.07 180.87 416.238C180.702 416.394 180.48 416.472 180.204 416.472H175.038V421.764C175.038 422.028 174.948 422.25 174.768 422.43C174.588 422.61 174.366 422.7 174.102 422.7ZM188.088 422.7C187.848 422.7 187.638 422.61 187.458 422.43C187.278 422.25 187.188 422.034 187.188 421.782V410.802L185.874 411.36C185.67 411.444 185.478 411.486 185.298 411.486C185.034 411.486 184.812 411.402 184.632 411.234C184.464 411.066 184.38 410.85 184.38 410.586C184.38 410.394 184.428 410.22 184.524 410.064C184.62 409.908 184.77 409.794 184.974 409.722L187.782 408.714C187.842 408.69 187.902 408.672 187.962 408.66C188.022 408.648 188.076 408.642 188.124 408.642C188.4 408.642 188.616 408.732 188.772 408.912C188.94 409.08 189.024 409.302 189.024 409.578V421.782C189.024 422.034 188.934 422.25 188.754 422.43C188.574 422.61 188.352 422.7 188.088 422.7Z" fill="black"/>
<circle cx="544" cy="151.5" r="151.2" fill="#FFDD12"/>
<path d="M457.354 383.914C456.441 383.914 455.569 383.771 454.741 383.486C453.913 383.2 453.192 382.8 452.578 382.286C451.964 381.772 451.514 381.18 451.228 380.508C451.086 380.209 451.086 379.93 451.228 379.673C451.385 379.416 451.642 379.252 451.999 379.18C452.256 379.123 452.506 379.166 452.749 379.309C453.006 379.437 453.199 379.637 453.327 379.909C453.499 380.266 453.777 380.594 454.163 380.894C454.563 381.194 455.041 381.437 455.598 381.622C456.155 381.808 456.74 381.901 457.354 381.901C458.04 381.901 458.668 381.794 459.239 381.579C459.825 381.365 460.296 381.058 460.653 380.658C461.01 380.244 461.189 379.737 461.189 379.138C461.189 378.381 460.889 377.702 460.289 377.103C459.704 376.503 458.732 376.132 457.376 375.989C455.605 375.818 454.213 375.296 453.199 374.425C452.185 373.554 451.678 372.476 451.678 371.191C451.678 370.248 451.942 369.449 452.471 368.792C452.999 368.135 453.713 367.635 454.613 367.292C455.527 366.95 456.54 366.778 457.654 366.778C458.525 366.778 459.282 366.9 459.925 367.142C460.582 367.385 461.153 367.721 461.638 368.149C462.124 368.578 462.545 369.084 462.902 369.67C463.102 369.984 463.181 370.284 463.138 370.57C463.109 370.841 462.974 371.055 462.731 371.212C462.46 371.384 462.167 371.419 461.853 371.319C461.538 371.219 461.303 371.034 461.146 370.762C460.917 370.348 460.639 369.998 460.31 369.713C459.982 369.427 459.596 369.206 459.154 369.049C458.711 368.877 458.19 368.792 457.59 368.792C456.533 368.777 455.648 368.977 454.934 369.392C454.22 369.791 453.863 370.413 453.863 371.255C453.863 371.683 453.97 372.098 454.184 372.497C454.413 372.883 454.82 373.219 455.405 373.504C456.005 373.79 456.862 373.99 457.976 374.104C459.675 374.275 460.996 374.796 461.938 375.668C462.895 376.524 463.373 377.66 463.373 379.073C463.373 379.887 463.202 380.594 462.859 381.194C462.531 381.794 462.081 382.301 461.51 382.715C460.953 383.115 460.31 383.414 459.582 383.614C458.868 383.814 458.126 383.914 457.354 383.914ZM472.08 383.786C470.895 383.786 469.838 383.536 468.91 383.036C467.996 382.522 467.275 381.822 466.747 380.937C466.233 380.037 465.975 379.009 465.975 377.852C465.975 376.681 466.218 375.653 466.704 374.768C467.204 373.868 467.889 373.169 468.76 372.669C469.631 372.155 470.631 371.898 471.759 371.898C472.873 371.898 473.829 372.148 474.629 372.647C475.429 373.133 476.036 373.811 476.45 374.682C476.878 375.539 477.092 376.532 477.092 377.66C477.092 377.931 477 378.159 476.814 378.345C476.628 378.516 476.393 378.602 476.107 378.602H467.475V376.889H476.043L475.165 377.488C475.15 376.774 475.008 376.139 474.736 375.582C474.465 375.011 474.079 374.561 473.58 374.232C473.08 373.904 472.473 373.74 471.759 373.74C470.945 373.74 470.245 373.918 469.66 374.275C469.089 374.632 468.653 375.125 468.353 375.753C468.053 376.367 467.903 377.067 467.903 377.852C467.903 378.638 468.082 379.338 468.439 379.952C468.796 380.566 469.288 381.051 469.917 381.408C470.545 381.765 471.266 381.944 472.08 381.944C472.523 381.944 472.973 381.865 473.43 381.708C473.901 381.537 474.279 381.344 474.565 381.13C474.779 380.973 475.008 380.894 475.25 380.894C475.507 380.88 475.729 380.951 475.914 381.108C476.157 381.322 476.286 381.558 476.3 381.815C476.314 382.072 476.2 382.293 475.957 382.479C475.472 382.865 474.865 383.179 474.137 383.422C473.423 383.664 472.737 383.786 472.08 383.786ZM484.773 383.786C483.63 383.786 482.609 383.529 481.71 383.015C480.824 382.486 480.125 381.779 479.611 380.894C479.111 379.994 478.861 378.981 478.861 377.852C478.861 376.696 479.111 375.668 479.611 374.768C480.11 373.868 480.796 373.169 481.667 372.669C482.538 372.155 483.538 371.898 484.666 371.898C485.508 371.898 486.279 372.062 486.979 372.39C487.679 372.704 488.307 373.183 488.864 373.825C489.064 374.054 489.135 374.29 489.078 374.532C489.021 374.775 488.864 374.989 488.607 375.175C488.407 375.318 488.186 375.368 487.943 375.325C487.7 375.268 487.479 375.139 487.279 374.939C486.579 374.197 485.708 373.825 484.666 373.825C483.937 373.825 483.295 373.997 482.738 374.34C482.181 374.668 481.746 375.132 481.431 375.732C481.117 376.332 480.96 377.038 480.96 377.852C480.96 378.624 481.117 379.309 481.431 379.909C481.76 380.508 482.21 380.987 482.781 381.344C483.352 381.687 484.016 381.858 484.773 381.858C485.273 381.858 485.708 381.801 486.079 381.687C486.465 381.558 486.815 381.365 487.129 381.108C487.358 380.923 487.593 380.823 487.836 380.808C488.079 380.78 488.293 380.844 488.479 381.001C488.721 381.201 488.857 381.43 488.886 381.687C488.914 381.929 488.828 382.151 488.628 382.351C487.6 383.307 486.315 383.786 484.773 383.786ZM497.637 383.786C496.481 383.786 495.46 383.536 494.574 383.036C493.689 382.522 492.989 381.822 492.475 380.937C491.975 380.037 491.726 379.009 491.726 377.852C491.726 376.681 491.975 375.653 492.475 374.768C492.989 373.868 493.689 373.169 494.574 372.669C495.46 372.155 496.481 371.898 497.637 371.898C498.78 371.898 499.794 372.155 500.679 372.669C501.564 373.169 502.257 373.868 502.757 374.768C503.271 375.653 503.528 376.681 503.528 377.852C503.528 379.009 503.278 380.037 502.778 380.937C502.278 381.822 501.586 382.522 500.7 383.036C499.815 383.536 498.794 383.786 497.637 383.786ZM497.637 381.858C498.38 381.858 499.037 381.687 499.608 381.344C500.179 381.001 500.622 380.53 500.936 379.93C501.265 379.33 501.429 378.638 501.429 377.852C501.429 377.067 501.265 376.374 500.936 375.775C500.622 375.161 500.179 374.682 499.608 374.34C499.037 373.997 498.38 373.825 497.637 373.825C496.895 373.825 496.238 373.997 495.667 374.34C495.096 374.682 494.646 375.161 494.317 375.775C493.989 376.374 493.825 377.067 493.825 377.852C493.825 378.638 493.989 379.33 494.317 379.93C494.646 380.53 495.096 381.001 495.667 381.344C496.238 381.687 496.895 381.858 497.637 381.858ZM516.676 383.721C516.361 383.721 516.097 383.622 515.883 383.422C515.683 383.207 515.583 382.943 515.583 382.629V377.36C515.583 376.546 515.433 375.882 515.133 375.368C514.834 374.854 514.427 374.475 513.912 374.232C513.413 373.975 512.834 373.847 512.177 373.847C511.578 373.847 511.035 373.968 510.55 374.211C510.064 374.454 509.678 374.782 509.393 375.196C509.107 375.596 508.964 376.06 508.964 376.589H507.615C507.615 375.689 507.829 374.889 508.258 374.19C508.7 373.476 509.3 372.912 510.057 372.497C510.814 372.083 511.663 371.876 512.606 371.876C513.591 371.876 514.469 372.09 515.24 372.519C516.026 372.933 516.64 373.547 517.083 374.361C517.54 375.175 517.768 376.175 517.768 377.36V382.629C517.768 382.943 517.661 383.207 517.447 383.422C517.247 383.622 516.99 383.721 516.676 383.721ZM507.872 383.721C507.558 383.721 507.294 383.622 507.079 383.422C506.88 383.207 506.78 382.943 506.78 382.629V373.076C506.78 372.747 506.88 372.483 507.079 372.283C507.294 372.083 507.558 371.983 507.872 371.983C508.2 371.983 508.465 372.083 508.665 372.283C508.864 372.483 508.964 372.747 508.964 373.076V382.629C508.964 382.943 508.864 383.207 508.665 383.422C508.465 383.622 508.2 383.721 507.872 383.721ZM526.692 383.786C525.579 383.786 524.572 383.529 523.672 383.015C522.787 382.486 522.08 381.772 521.552 380.873C521.038 379.973 520.781 378.959 520.781 377.831C520.781 376.703 521.016 375.696 521.487 374.811C521.973 373.911 522.63 373.204 523.458 372.69C524.286 372.162 525.222 371.898 526.264 371.898C527.107 371.898 527.885 372.076 528.599 372.433C529.313 372.776 529.913 373.247 530.398 373.847V368.063C530.398 367.735 530.498 367.471 530.698 367.271C530.912 367.071 531.176 366.971 531.491 366.971C531.819 366.971 532.083 367.071 532.283 367.271C532.483 367.471 532.583 367.735 532.583 368.063V377.831C532.583 378.959 532.319 379.973 531.79 380.873C531.276 381.772 530.577 382.486 529.691 383.015C528.806 383.529 527.806 383.786 526.692 383.786ZM526.692 381.858C527.421 381.858 528.071 381.687 528.642 381.344C529.213 380.987 529.663 380.501 529.991 379.887C530.32 379.273 530.484 378.588 530.484 377.831C530.484 377.06 530.32 376.374 529.991 375.775C529.663 375.175 529.213 374.704 528.642 374.361C528.071 374.004 527.421 373.825 526.692 373.825C525.978 373.825 525.329 374.004 524.743 374.361C524.172 374.704 523.715 375.175 523.372 375.775C523.044 376.374 522.88 377.06 522.88 377.831C522.88 378.588 523.044 379.273 523.372 379.887C523.715 380.501 524.172 380.987 524.743 381.344C525.329 381.687 525.978 381.858 526.692 381.858ZM541.325 383.786C540.283 383.786 539.347 383.529 538.519 383.015C537.691 382.486 537.034 381.779 536.548 380.894C536.077 379.994 535.841 378.981 535.841 377.852C535.841 376.724 536.099 375.71 536.613 374.811C537.141 373.911 537.848 373.204 538.733 372.69C539.633 372.162 540.64 371.898 541.753 371.898C542.867 371.898 543.867 372.162 544.752 372.69C545.638 373.204 546.337 373.911 546.851 374.811C547.38 375.71 547.644 376.724 547.644 377.852H546.809C546.809 378.981 546.566 379.994 546.08 380.894C545.609 381.779 544.959 382.486 544.131 383.015C543.303 383.529 542.367 383.786 541.325 383.786ZM541.753 381.858C542.482 381.858 543.131 381.687 543.703 381.344C544.274 380.987 544.724 380.508 545.052 379.909C545.381 379.295 545.545 378.609 545.545 377.852C545.545 377.081 545.381 376.396 545.052 375.796C544.724 375.182 544.274 374.704 543.703 374.361C543.131 374.004 542.482 373.825 541.753 373.825C541.039 373.825 540.39 374.004 539.804 374.361C539.233 374.704 538.776 375.182 538.433 375.796C538.105 376.396 537.941 377.081 537.941 377.852C537.941 378.609 538.105 379.295 538.433 379.909C538.776 380.508 539.233 380.987 539.804 381.344C540.39 381.687 541.039 381.858 541.753 381.858ZM546.551 383.721C546.237 383.721 545.973 383.622 545.759 383.422C545.559 383.207 545.459 382.943 545.459 382.629V379.352L545.866 377.081L547.644 377.852V382.629C547.644 382.943 547.537 383.207 547.323 383.422C547.123 383.622 546.866 383.721 546.551 383.721ZM551.945 376.374C551.945 375.518 552.152 374.754 552.566 374.082C552.995 373.397 553.566 372.854 554.28 372.455C554.994 372.055 555.779 371.855 556.636 371.855C557.493 371.855 558.128 371.998 558.543 372.283C558.971 372.555 559.135 372.883 559.035 373.269C558.992 373.468 558.907 373.626 558.778 373.74C558.664 373.84 558.528 373.904 558.371 373.933C558.214 373.961 558.043 373.954 557.857 373.911C556.943 373.725 556.122 373.711 555.394 373.868C554.665 374.025 554.087 374.318 553.659 374.747C553.245 375.175 553.038 375.718 553.038 376.374H551.945ZM551.967 383.7C551.624 383.7 551.36 383.614 551.174 383.443C550.988 383.257 550.896 382.986 550.896 382.629V373.054C550.896 372.712 550.988 372.447 551.174 372.262C551.36 372.076 551.624 371.983 551.967 371.983C552.324 371.983 552.588 372.076 552.759 372.262C552.945 372.433 553.038 372.697 553.038 373.054V382.629C553.038 382.972 552.945 383.236 552.759 383.422C552.588 383.607 552.324 383.7 551.967 383.7ZM563.412 388.841C563.269 388.841 563.098 388.798 562.898 388.712C562.269 388.427 562.098 387.977 562.384 387.363L568.917 372.605C569.202 372.005 569.652 371.833 570.266 372.09C570.909 372.362 571.087 372.812 570.802 373.44L564.247 388.177C564.076 388.62 563.797 388.841 563.412 388.841ZM565.939 383.229C565.668 383.343 565.411 383.357 565.168 383.272C564.94 383.172 564.754 382.986 564.611 382.715L559.706 373.397C559.563 373.126 559.542 372.869 559.642 372.626C559.756 372.369 559.949 372.183 560.22 372.069C560.492 371.955 560.749 371.948 560.991 372.048C561.234 372.133 561.42 372.312 561.548 372.583L566.239 381.901C566.382 382.172 566.432 382.436 566.389 382.693C566.361 382.936 566.211 383.115 565.939 383.229ZM586.846 383.914C585.689 383.914 584.604 383.7 583.59 383.272C582.591 382.829 581.712 382.222 580.956 381.451C580.213 380.666 579.627 379.752 579.199 378.709C578.785 377.667 578.578 376.539 578.578 375.325C578.578 374.125 578.785 373.011 579.199 371.983C579.627 370.941 580.213 370.034 580.956 369.263C581.712 368.478 582.591 367.864 583.59 367.421C584.59 366.978 585.675 366.757 586.846 366.757C587.946 366.757 588.888 366.9 589.673 367.185C590.473 367.471 591.273 367.942 592.073 368.599C592.187 368.685 592.272 368.777 592.33 368.877C592.401 368.963 592.444 369.056 592.458 369.156C592.487 369.242 592.501 369.349 592.501 369.477C592.501 369.749 592.401 369.977 592.201 370.163C592.015 370.334 591.787 370.434 591.516 370.463C591.244 370.477 590.98 370.384 590.723 370.184C590.195 369.727 589.645 369.377 589.074 369.134C588.517 368.892 587.774 368.77 586.846 368.77C586.004 368.77 585.211 368.942 584.468 369.284C583.726 369.627 583.069 370.098 582.498 370.698C581.941 371.298 581.505 371.998 581.191 372.797C580.877 373.583 580.72 374.425 580.72 375.325C580.72 376.239 580.877 377.096 581.191 377.895C581.505 378.681 581.941 379.373 582.498 379.973C583.069 380.573 583.726 381.044 584.468 381.387C585.211 381.715 586.004 381.879 586.846 381.879C587.574 381.879 588.26 381.758 588.902 381.515C589.559 381.258 590.188 380.908 590.787 380.466C591.044 380.28 591.294 380.201 591.537 380.23C591.794 380.244 592.008 380.344 592.18 380.53C592.351 380.701 592.437 380.944 592.437 381.258C592.437 381.401 592.408 381.544 592.351 381.687C592.294 381.815 592.208 381.936 592.094 382.051C591.323 382.665 590.495 383.129 589.609 383.443C588.738 383.757 587.817 383.914 586.846 383.914ZM600.24 383.786C599.083 383.786 598.062 383.536 597.177 383.036C596.292 382.522 595.592 381.822 595.078 380.937C594.578 380.037 594.328 379.009 594.328 377.852C594.328 376.681 594.578 375.653 595.078 374.768C595.592 373.868 596.292 373.169 597.177 372.669C598.062 372.155 599.083 371.898 600.24 371.898C601.382 371.898 602.396 372.155 603.282 372.669C604.167 373.169 604.86 373.868 605.359 374.768C605.874 375.653 606.131 376.681 606.131 377.852C606.131 379.009 605.881 380.037 605.381 380.937C604.881 381.822 604.188 382.522 603.303 383.036C602.418 383.536 601.397 383.786 600.24 383.786ZM600.24 381.858C600.983 381.858 601.639 381.687 602.211 381.344C602.782 381.001 603.225 380.53 603.539 379.93C603.867 379.33 604.031 378.638 604.031 377.852C604.031 377.067 603.867 376.374 603.539 375.775C603.225 375.161 602.782 374.682 602.211 374.34C601.639 373.997 600.983 373.825 600.24 373.825C599.497 373.825 598.841 373.997 598.269 374.34C597.698 374.682 597.248 375.161 596.92 375.775C596.592 376.374 596.427 377.067 596.427 377.852C596.427 378.638 596.592 379.33 596.92 379.93C597.248 380.53 597.698 381.001 598.269 381.344C598.841 381.687 599.497 381.858 600.24 381.858ZM612.167 383.7C611.538 383.7 610.982 383.529 610.496 383.186C610.011 382.843 609.632 382.379 609.361 381.794C609.089 381.194 608.954 380.508 608.954 379.737V368.042C608.954 367.728 609.054 367.471 609.254 367.271C609.454 367.071 609.711 366.971 610.025 366.971C610.339 366.971 610.596 367.071 610.796 367.271C610.996 367.471 611.096 367.728 611.096 368.042V379.737C611.096 380.266 611.196 380.701 611.396 381.044C611.596 381.387 611.853 381.558 612.167 381.558H612.702C612.988 381.558 613.216 381.658 613.388 381.858C613.573 382.058 613.666 382.315 613.666 382.629C613.666 382.943 613.531 383.2 613.259 383.4C612.988 383.6 612.638 383.7 612.21 383.7H612.167ZM620.468 383.786C619.311 383.786 618.29 383.536 617.405 383.036C616.519 382.522 615.82 381.822 615.306 380.937C614.806 380.037 614.556 379.009 614.556 377.852C614.556 376.681 614.806 375.653 615.306 374.768C615.82 373.868 616.519 373.169 617.405 372.669C618.29 372.155 619.311 371.898 620.468 371.898C621.61 371.898 622.624 372.155 623.509 372.669C624.395 373.169 625.087 373.868 625.587 374.768C626.101 375.653 626.358 376.681 626.358 377.852C626.358 379.009 626.108 380.037 625.609 380.937C625.109 381.822 624.416 382.522 623.531 383.036C622.645 383.536 621.624 383.786 620.468 383.786ZM620.468 381.858C621.21 381.858 621.867 381.687 622.438 381.344C623.01 381.001 623.452 380.53 623.766 379.93C624.095 379.33 624.259 378.638 624.259 377.852C624.259 377.067 624.095 376.374 623.766 375.775C623.452 375.161 623.01 374.682 622.438 374.34C621.867 373.997 621.21 373.825 620.468 373.825C619.725 373.825 619.068 373.997 618.497 374.34C617.926 374.682 617.476 375.161 617.148 375.775C616.819 376.374 616.655 377.067 616.655 377.852C616.655 378.638 616.819 379.33 617.148 379.93C617.476 380.53 617.926 381.001 618.497 381.344C619.068 381.687 619.725 381.858 620.468 381.858ZM630.659 376.374C630.659 375.518 630.867 374.754 631.281 374.082C631.709 373.397 632.28 372.854 632.994 372.455C633.708 372.055 634.494 371.855 635.35 371.855C636.207 371.855 636.843 371.998 637.257 372.283C637.685 372.555 637.849 372.883 637.749 373.269C637.707 373.468 637.621 373.626 637.492 373.74C637.378 373.84 637.243 373.904 637.085 373.933C636.928 373.961 636.757 373.954 636.571 373.911C635.657 373.725 634.836 373.711 634.108 373.868C633.38 374.025 632.801 374.318 632.373 374.747C631.959 375.175 631.752 375.718 631.752 376.374H630.659ZM630.681 383.7C630.338 383.7 630.074 383.614 629.888 383.443C629.703 383.257 629.61 382.986 629.61 382.629V373.054C629.61 372.712 629.703 372.447 629.888 372.262C630.074 372.076 630.338 371.983 630.681 371.983C631.038 371.983 631.302 372.076 631.473 372.262C631.659 372.433 631.752 372.697 631.752 373.054V382.629C631.752 382.972 631.659 383.236 631.473 383.422C631.302 383.607 631.038 383.7 630.681 383.7ZM514.663 412.782C514.915 412.782 515.119 412.842 515.275 412.962C515.431 413.082 515.491 413.28 515.455 413.556C515.443 413.784 515.335 413.964 515.131 414.096C514.927 414.228 514.693 414.294 514.429 414.294H513.223L512.791 416.85H513.943C514.219 416.85 514.423 416.916 514.555 417.048C514.699 417.18 514.771 417.354 514.771 417.57C514.771 417.762 514.675 417.942 514.483 418.11C514.291 418.278 514.033 418.362 513.709 418.362H512.413L511.819 421.8C511.771 422.064 511.663 422.28 511.495 422.448C511.339 422.616 511.123 422.7 510.847 422.7C510.583 422.7 510.385 422.604 510.253 422.412C510.133 422.22 510.097 421.992 510.145 421.728L510.703 418.362H507.931L507.355 421.8C507.307 422.052 507.193 422.268 507.013 422.448C506.845 422.616 506.635 422.7 506.383 422.7C506.119 422.7 505.921 422.622 505.789 422.466C505.657 422.298 505.615 422.052 505.663 421.728L506.239 418.362H504.997C504.745 418.362 504.541 418.302 504.385 418.182C504.241 418.05 504.175 417.882 504.187 417.678C504.211 417.402 504.313 417.198 504.493 417.066C504.685 416.922 504.931 416.85 505.231 416.85H506.617L507.031 414.294H505.699C505.459 414.294 505.261 414.24 505.105 414.132C504.949 414.024 504.871 413.856 504.871 413.628C504.871 413.34 504.967 413.13 505.159 412.998C505.351 412.854 505.609 412.782 505.933 412.782H507.391L507.985 409.524C508.045 409.248 508.153 409.032 508.309 408.876C508.465 408.708 508.681 408.624 508.957 408.624C509.221 408.624 509.419 408.714 509.551 408.894C509.695 409.074 509.737 409.308 509.677 409.596L509.101 412.782H511.873L512.467 409.524C512.515 409.272 512.623 409.062 512.791 408.894C512.959 408.714 513.175 408.624 513.439 408.624C513.715 408.624 513.913 408.714 514.033 408.894C514.165 409.074 514.201 409.308 514.141 409.596L513.583 412.782H514.663ZM511.081 416.85L511.513 414.294H508.741L508.327 416.85H511.081ZM517.881 422.7C517.617 422.7 517.395 422.61 517.215 422.43C517.035 422.25 516.945 422.028 516.945 421.764V409.578C516.945 409.302 517.035 409.08 517.215 408.912C517.395 408.732 517.617 408.642 517.881 408.642H526.017C526.293 408.642 526.515 408.726 526.683 408.894C526.851 409.05 526.935 409.26 526.935 409.524C526.935 409.776 526.851 409.98 526.683 410.136C526.515 410.292 526.293 410.37 526.017 410.37H518.817V414.744H523.983C524.259 414.744 524.481 414.828 524.649 414.996C524.817 415.152 524.901 415.356 524.901 415.608C524.901 415.86 524.817 416.07 524.649 416.238C524.481 416.394 524.259 416.472 523.983 416.472H518.817V421.764C518.817 422.028 518.727 422.25 518.547 422.43C518.367 422.61 518.145 422.7 517.881 422.7ZM529.131 422.7C528.867 422.7 528.645 422.61 528.465 422.43C528.285 422.25 528.195 422.028 528.195 421.764V409.578C528.195 409.302 528.285 409.08 528.465 408.912C528.645 408.732 528.867 408.642 529.131 408.642H537.267C537.543 408.642 537.765 408.726 537.933 408.894C538.101 409.05 538.185 409.26 538.185 409.524C538.185 409.776 538.101 409.98 537.933 410.136C537.765 410.292 537.543 410.37 537.267 410.37H530.067V414.744H535.233C535.509 414.744 535.731 414.828 535.899 414.996C536.067 415.152 536.151 415.356 536.151 415.608C536.151 415.86 536.067 416.07 535.899 416.238C535.731 416.394 535.509 416.472 535.233 416.472H530.067V421.764C530.067 422.028 529.977 422.25 529.797 422.43C529.617 422.61 529.395 422.7 529.131 422.7ZM541.515 422.7C541.251 422.7 541.029 422.61 540.849 422.43C540.669 422.25 540.579 422.028 540.579 421.764V409.578C540.579 409.302 540.669 409.08 540.849 408.912C541.029 408.732 541.251 408.642 541.515 408.642H544.773C545.805 408.642 546.741 408.816 547.581 409.164C548.433 409.5 549.171 409.986 549.795 410.622C550.419 411.246 550.899 411.984 551.235 412.836C551.571 413.688 551.739 414.63 551.739 415.662C551.739 416.694 551.571 417.642 551.235 418.506C550.899 419.358 550.419 420.102 549.795 420.738C549.171 421.362 548.433 421.848 547.581 422.196C546.741 422.532 545.805 422.7 544.773 422.7H541.515ZM542.451 421.044H544.773C545.781 421.044 546.669 420.816 547.437 420.36C548.217 419.892 548.829 419.256 549.273 418.452C549.717 417.636 549.939 416.706 549.939 415.662C549.939 414.606 549.717 413.676 549.273 412.872C548.829 412.068 548.217 411.438 547.437 410.982C546.669 410.526 545.781 410.298 544.773 410.298H542.451V421.044ZM555.613 422.7C555.349 422.7 555.127 422.61 554.947 422.43C554.767 422.25 554.677 422.028 554.677 421.764V409.578C554.677 409.302 554.767 409.08 554.947 408.912C555.127 408.732 555.349 408.642 555.613 408.642H558.871C559.903 408.642 560.839 408.816 561.679 409.164C562.531 409.5 563.269 409.986 563.893 410.622C564.517 411.246 564.997 411.984 565.333 412.836C565.669 413.688 565.837 414.63 565.837 415.662C565.837 416.694 565.669 417.642 565.333 418.506C564.997 419.358 564.517 420.102 563.893 420.738C563.269 421.362 562.531 421.848 561.679 422.196C560.839 422.532 559.903 422.7 558.871 422.7H555.613ZM556.549 421.044H558.871C559.879 421.044 560.767 420.816 561.535 420.36C562.315 419.892 562.927 419.256 563.371 418.452C563.815 417.636 564.037 416.706 564.037 415.662C564.037 414.606 563.815 413.676 563.371 412.872C562.927 412.068 562.315 411.438 561.535 410.982C560.767 410.526 559.879 410.298 558.871 410.298H556.549V421.044ZM571.312 422.7C571.072 422.7 570.862 422.61 570.682 422.43C570.502 422.25 570.412 422.034 570.412 421.782V410.802L569.098 411.36C568.894 411.444 568.702 411.486 568.522 411.486C568.258 411.486 568.036 411.402 567.856 411.234C567.688 411.066 567.604 410.85 567.604 410.586C567.604 410.394 567.652 410.22 567.748 410.064C567.844 409.908 567.994 409.794 568.198 409.722L571.006 408.714C571.066 408.69 571.126 408.672 571.186 408.66C571.246 408.648 571.3 408.642 571.348 408.642C571.624 408.642 571.84 408.732 571.996 408.912C572.164 409.08 572.248 409.302 572.248 409.578V421.782C572.248 422.034 572.158 422.25 571.978 422.43C571.798 422.61 571.576 422.7 571.312 422.7ZM576.129 422.7C575.865 422.7 575.643 422.61 575.463 422.43C575.295 422.25 575.211 422.034 575.211 421.782C575.211 421.518 575.295 421.302 575.463 421.134L580.575 415.158C580.935 414.738 581.211 414.342 581.403 413.97C581.607 413.598 581.709 413.244 581.709 412.908C581.709 412.38 581.619 411.924 581.439 411.54C581.259 411.156 581.001 410.862 580.665 410.658C580.329 410.442 579.927 410.334 579.459 410.334C579.003 410.334 578.589 410.454 578.217 410.694C577.857 410.922 577.569 411.234 577.353 411.63C577.149 412.014 577.047 412.44 577.047 412.908C577.047 413.148 576.957 413.358 576.777 413.538C576.609 413.718 576.393 413.808 576.129 413.808C575.877 413.808 575.661 413.718 575.481 413.538C575.301 413.358 575.211 413.148 575.211 412.908C575.211 412.092 575.397 411.366 575.769 410.73C576.141 410.082 576.645 409.572 577.281 409.2C577.929 408.828 578.655 408.642 579.459 408.642C580.275 408.642 580.983 408.816 581.583 409.164C582.183 409.512 582.645 410.004 582.969 410.64C583.305 411.276 583.473 412.032 583.473 412.908C583.473 413.292 583.389 413.682 583.221 414.078C583.065 414.474 582.861 414.852 582.609 415.212C582.369 415.572 582.123 415.896 581.871 416.184L577.749 420.864H582.789C583.053 420.864 583.275 420.96 583.455 421.152C583.635 421.332 583.725 421.542 583.725 421.782C583.725 422.034 583.635 422.25 583.455 422.43C583.275 422.61 583.053 422.7 582.789 422.7H576.129Z" fill="black"/>
<circle cx="936.4" cy="151.5" r="151.2" fill="#A095F8"/>
<path d="M824.486 383.914C823.572 383.914 822.701 383.771 821.872 383.486C821.044 383.2 820.323 382.8 819.709 382.286C819.095 381.772 818.645 381.18 818.36 380.508C818.217 380.209 818.217 379.93 818.36 379.673C818.517 379.416 818.774 379.252 819.131 379.18C819.388 379.123 819.638 379.166 819.88 379.309C820.137 379.437 820.33 379.637 820.459 379.909C820.63 380.266 820.909 380.594 821.294 380.894C821.694 381.194 822.172 381.437 822.729 381.622C823.286 381.808 823.872 381.901 824.486 381.901C825.171 381.901 825.799 381.794 826.371 381.579C826.956 381.365 827.427 381.058 827.784 380.658C828.141 380.244 828.32 379.737 828.32 379.138C828.32 378.381 828.02 377.702 827.42 377.103C826.835 376.503 825.864 376.132 824.507 375.989C822.736 375.818 821.344 375.296 820.33 374.425C819.316 373.554 818.809 372.476 818.809 371.191C818.809 370.248 819.074 369.449 819.602 368.792C820.13 368.135 820.844 367.635 821.744 367.292C822.658 366.95 823.672 366.778 824.786 366.778C825.657 366.778 826.413 366.9 827.056 367.142C827.713 367.385 828.284 367.721 828.77 368.149C829.255 368.578 829.676 369.084 830.033 369.67C830.233 369.984 830.312 370.284 830.269 370.57C830.241 370.841 830.105 371.055 829.862 371.212C829.591 371.384 829.298 371.419 828.984 371.319C828.67 371.219 828.434 371.034 828.277 370.762C828.049 370.348 827.77 369.998 827.442 369.713C827.113 369.427 826.728 369.206 826.285 369.049C825.842 368.877 825.321 368.792 824.721 368.792C823.665 368.777 822.779 368.977 822.065 369.392C821.351 369.791 820.994 370.413 820.994 371.255C820.994 371.683 821.101 372.098 821.316 372.497C821.544 372.883 821.951 373.219 822.536 373.504C823.136 373.79 823.993 373.99 825.107 374.104C826.806 374.275 828.127 374.796 829.07 375.668C830.026 376.524 830.505 377.66 830.505 379.073C830.505 379.887 830.333 380.594 829.991 381.194C829.662 381.794 829.212 382.301 828.641 382.715C828.084 383.115 827.442 383.414 826.713 383.614C825.999 383.814 825.257 383.914 824.486 383.914ZM838.633 383.807C837.648 383.807 836.762 383.6 835.977 383.186C835.206 382.758 834.592 382.136 834.135 381.322C833.692 380.508 833.471 379.509 833.471 378.324V373.054C833.471 372.74 833.571 372.483 833.771 372.283C833.985 372.069 834.249 371.962 834.563 371.962C834.877 371.962 835.134 372.069 835.334 372.283C835.549 372.483 835.656 372.74 835.656 373.054V378.324C835.656 379.123 835.806 379.787 836.106 380.316C836.405 380.83 836.812 381.215 837.326 381.472C837.841 381.715 838.419 381.837 839.061 381.837C839.676 381.837 840.218 381.715 840.689 381.472C841.175 381.23 841.56 380.901 841.846 380.487C842.132 380.073 842.274 379.609 842.274 379.095H843.624C843.624 379.98 843.403 380.78 842.96 381.494C842.532 382.208 841.939 382.772 841.182 383.186C840.44 383.6 839.59 383.807 838.633 383.807ZM843.367 383.7C843.053 383.7 842.789 383.6 842.574 383.4C842.374 383.186 842.274 382.922 842.274 382.608V373.054C842.274 372.726 842.374 372.462 842.574 372.262C842.789 372.062 843.053 371.962 843.367 371.962C843.695 371.962 843.96 372.062 844.159 372.262C844.359 372.462 844.459 372.726 844.459 373.054V382.608C844.459 382.922 844.359 383.186 844.159 383.4C843.96 383.6 843.695 383.7 843.367 383.7ZM849.4 388.712C849.085 388.712 848.821 388.605 848.607 388.391C848.407 388.191 848.307 387.934 848.307 387.62V377.852C848.322 376.724 848.586 375.71 849.1 374.811C849.614 373.911 850.314 373.204 851.199 372.69C852.084 372.162 853.084 371.898 854.198 371.898C855.326 371.898 856.333 372.162 857.218 372.69C858.103 373.204 858.803 373.911 859.317 374.811C859.845 375.71 860.11 376.724 860.11 377.852C860.11 378.981 859.867 379.994 859.381 380.894C858.91 381.779 858.26 382.486 857.432 383.015C856.604 383.529 855.669 383.786 854.626 383.786C853.784 383.786 853.005 383.614 852.291 383.272C851.592 382.915 850.992 382.436 850.492 381.837V387.62C850.492 387.934 850.392 388.191 850.192 388.391C849.992 388.605 849.728 388.712 849.4 388.712ZM854.198 381.858C854.926 381.858 855.576 381.687 856.147 381.344C856.718 380.987 857.168 380.508 857.496 379.909C857.839 379.295 858.01 378.609 858.01 377.852C858.01 377.081 857.839 376.396 857.496 375.796C857.168 375.182 856.718 374.704 856.147 374.361C855.576 374.004 854.926 373.825 854.198 373.825C853.484 373.825 852.834 374.004 852.249 374.361C851.677 374.704 851.227 375.182 850.899 375.796C850.571 376.396 850.406 377.081 850.406 377.852C850.406 378.609 850.571 379.295 850.899 379.909C851.227 380.508 851.677 380.987 852.249 381.344C852.834 381.687 853.484 381.858 854.198 381.858ZM864.461 388.712C864.146 388.712 863.882 388.605 863.668 388.391C863.468 388.191 863.368 387.934 863.368 387.62V377.852C863.382 376.724 863.647 375.71 864.161 374.811C864.675 373.911 865.375 373.204 866.26 372.69C867.145 372.162 868.145 371.898 869.259 371.898C870.387 371.898 871.394 372.162 872.279 372.69C873.164 373.204 873.864 373.911 874.378 374.811C874.906 375.71 875.171 376.724 875.171 377.852C875.171 378.981 874.928 379.994 874.442 380.894C873.971 381.779 873.321 382.486 872.493 383.015C871.665 383.529 870.73 383.786 869.687 383.786C868.845 383.786 868.066 383.614 867.352 383.272C866.653 382.915 866.053 382.436 865.553 381.837V387.62C865.553 387.934 865.453 388.191 865.253 388.391C865.053 388.605 864.789 388.712 864.461 388.712ZM869.259 381.858C869.987 381.858 870.637 381.687 871.208 381.344C871.779 380.987 872.229 380.508 872.557 379.909C872.9 379.295 873.071 378.609 873.071 377.852C873.071 377.081 872.9 376.396 872.557 375.796C872.229 375.182 871.779 374.704 871.208 374.361C870.637 374.004 869.987 373.825 869.259 373.825C868.545 373.825 867.895 374.004 867.309 374.361C866.738 374.704 866.288 375.182 865.96 375.796C865.632 376.396 865.467 377.081 865.467 377.852C865.467 378.609 865.632 379.295 865.96 379.909C866.288 380.508 866.738 380.987 867.309 381.344C867.895 381.687 868.545 381.858 869.259 381.858ZM881.214 383.7C880.585 383.7 880.028 383.529 879.543 383.186C879.057 382.843 878.679 382.379 878.408 381.794C878.136 381.194 878.001 380.508 878.001 379.737V368.042C878.001 367.728 878.101 367.471 878.301 367.271C878.501 367.071 878.758 366.971 879.072 366.971C879.386 366.971 879.643 367.071 879.843 367.271C880.043 367.471 880.143 367.728 880.143 368.042V379.737C880.143 380.266 880.243 380.701 880.443 381.044C880.643 381.387 880.9 381.558 881.214 381.558H881.749C882.035 381.558 882.263 381.658 882.435 381.858C882.62 382.058 882.713 382.315 882.713 382.629C882.713 382.943 882.577 383.2 882.306 383.4C882.035 383.6 881.685 383.7 881.257 383.7H881.214ZM889.707 383.786C888.522 383.786 887.465 383.536 886.537 383.036C885.623 382.522 884.902 381.822 884.374 380.937C883.86 380.037 883.603 379.009 883.603 377.852C883.603 376.681 883.845 375.653 884.331 374.768C884.831 373.868 885.516 373.169 886.387 372.669C887.258 372.155 888.258 371.898 889.386 371.898C890.5 371.898 891.457 372.148 892.256 372.647C893.056 373.133 893.663 373.811 894.077 374.682C894.505 375.539 894.72 376.532 894.72 377.66C894.72 377.931 894.627 378.159 894.441 378.345C894.256 378.516 894.02 378.602 893.734 378.602H885.102V376.889H893.67L892.792 377.488C892.778 376.774 892.635 376.139 892.363 375.582C892.092 375.011 891.707 374.561 891.207 374.232C890.707 373.904 890.1 373.74 889.386 373.74C888.572 373.74 887.872 373.918 887.287 374.275C886.716 374.632 886.28 375.125 885.98 375.753C885.68 376.367 885.531 377.067 885.531 377.852C885.531 378.638 885.709 379.338 886.066 379.952C886.423 380.566 886.916 381.051 887.544 381.408C888.172 381.765 888.893 381.944 889.707 381.944C890.15 381.944 890.6 381.865 891.057 381.708C891.528 381.537 891.907 381.344 892.192 381.13C892.406 380.973 892.635 380.894 892.878 380.894C893.135 380.88 893.356 380.951 893.542 381.108C893.784 381.322 893.913 381.558 893.927 381.815C893.941 382.072 893.827 382.293 893.584 382.479C893.099 382.865 892.492 383.179 891.764 383.422C891.05 383.664 890.364 383.786 889.707 383.786ZM912.886 383.721C912.572 383.721 912.308 383.622 912.093 383.422C911.893 383.207 911.793 382.943 911.793 382.629V376.503C911.793 375.603 911.572 374.939 911.129 374.511C910.687 374.068 910.108 373.847 909.394 373.847C908.652 373.847 908.038 374.104 907.552 374.618C907.081 375.132 906.845 375.789 906.845 376.589H905.068C905.068 375.66 905.267 374.846 905.667 374.147C906.067 373.433 906.624 372.876 907.338 372.476C908.066 372.076 908.895 371.876 909.823 371.876C910.637 371.876 911.358 372.055 911.986 372.412C912.615 372.769 913.1 373.297 913.443 373.997C913.8 374.682 913.978 375.518 913.978 376.503V382.629C913.978 382.943 913.878 383.207 913.678 383.422C913.478 383.622 913.214 383.721 912.886 383.721ZM898.599 383.721C898.285 383.721 898.02 383.622 897.806 383.422C897.606 383.207 897.506 382.943 897.506 382.629V373.097C897.506 372.769 897.606 372.505 897.806 372.305C898.02 372.105 898.285 372.005 898.599 372.005C898.927 372.005 899.191 372.105 899.391 372.305C899.591 372.505 899.691 372.769 899.691 373.097V382.629C899.691 382.943 899.591 383.207 899.391 383.422C899.191 383.622 898.927 383.721 898.599 383.721ZM905.753 383.721C905.439 383.721 905.175 383.622 904.96 383.422C904.761 383.207 904.661 382.943 904.661 382.629V376.503C904.661 375.603 904.439 374.939 903.997 374.511C903.554 374.068 902.976 373.847 902.262 373.847C901.519 373.847 900.905 374.104 900.419 374.618C899.934 375.132 899.691 375.789 899.691 376.589H898.342C898.342 375.66 898.527 374.846 898.899 374.147C899.27 373.433 899.784 372.876 900.441 372.476C901.098 372.076 901.847 371.876 902.69 371.876C903.504 371.876 904.225 372.055 904.853 372.412C905.482 372.769 905.967 373.297 906.31 373.997C906.667 374.682 906.845 375.518 906.845 376.503V382.629C906.845 382.943 906.745 383.207 906.546 383.422C906.346 383.622 906.081 383.721 905.753 383.721ZM923.113 383.786C921.928 383.786 920.871 383.536 919.943 383.036C919.029 382.522 918.308 381.822 917.78 380.937C917.266 380.037 917.009 379.009 917.009 377.852C917.009 376.681 917.251 375.653 917.737 374.768C918.237 373.868 918.922 373.169 919.793 372.669C920.664 372.155 921.664 371.898 922.792 371.898C923.906 371.898 924.863 372.148 925.662 372.647C926.462 373.133 927.069 373.811 927.483 374.682C927.911 375.539 928.126 376.532 928.126 377.66C928.126 377.931 928.033 378.159 927.847 378.345C927.662 378.516 927.426 378.602 927.14 378.602H918.508V376.889H927.076L926.198 377.488C926.184 376.774 926.041 376.139 925.769 375.582C925.498 375.011 925.113 374.561 924.613 374.232C924.113 373.904 923.506 373.74 922.792 373.74C921.978 373.74 921.278 373.918 920.693 374.275C920.122 374.632 919.686 375.125 919.386 375.753C919.086 376.367 918.936 377.067 918.936 377.852C918.936 378.638 919.115 379.338 919.472 379.952C919.829 380.566 920.322 381.051 920.95 381.408C921.578 381.765 922.299 381.944 923.113 381.944C923.556 381.944 924.006 381.865 924.463 381.708C924.934 381.537 925.313 381.344 925.598 381.13C925.812 380.973 926.041 380.894 926.284 380.894C926.541 380.88 926.762 380.951 926.948 381.108C927.19 381.322 927.319 381.558 927.333 381.815C927.347 382.072 927.233 382.293 926.99 382.479C926.505 382.865 925.898 383.179 925.17 383.422C924.456 383.664 923.77 383.786 923.113 383.786ZM940.808 383.721C940.494 383.721 940.23 383.622 940.016 383.422C939.816 383.207 939.716 382.943 939.716 382.629V377.36C939.716 376.546 939.566 375.882 939.266 375.368C938.966 374.854 938.559 374.475 938.045 374.232C937.545 373.975 936.967 373.847 936.31 373.847C935.71 373.847 935.168 373.968 934.682 374.211C934.197 374.454 933.811 374.782 933.526 375.196C933.24 375.596 933.097 376.06 933.097 376.589H931.748C931.748 375.689 931.962 374.889 932.39 374.19C932.833 373.476 933.433 372.912 934.19 372.497C934.946 372.083 935.796 371.876 936.739 371.876C937.724 371.876 938.602 372.09 939.373 372.519C940.159 372.933 940.773 373.547 941.215 374.361C941.672 375.175 941.901 376.175 941.901 377.36V382.629C941.901 382.943 941.794 383.207 941.579 383.422C941.38 383.622 941.122 383.721 940.808 383.721ZM932.005 383.721C931.691 383.721 931.426 383.622 931.212 383.422C931.012 383.207 930.912 382.943 930.912 382.629V373.076C930.912 372.747 931.012 372.483 931.212 372.283C931.426 372.083 931.691 371.983 932.005 371.983C932.333 371.983 932.597 372.083 932.797 372.283C932.997 372.483 933.097 372.747 933.097 373.076V382.629C933.097 382.943 932.997 383.207 932.797 383.422C932.597 383.622 932.333 383.721 932.005 383.721ZM949.776 383.7C949.062 383.7 948.419 383.522 947.848 383.165C947.277 382.793 946.827 382.293 946.498 381.665C946.17 381.037 946.006 380.33 946.006 379.545V369.327C946.006 369.013 946.106 368.756 946.306 368.556C946.505 368.356 946.763 368.256 947.077 368.256C947.391 368.256 947.648 368.356 947.848 368.556C948.048 368.756 948.148 369.013 948.148 369.327V379.545C948.148 380.116 948.305 380.594 948.619 380.98C948.933 381.365 949.319 381.558 949.776 381.558H950.504C950.761 381.558 950.975 381.658 951.146 381.858C951.332 382.058 951.425 382.315 951.425 382.629C951.425 382.943 951.304 383.2 951.061 383.4C950.832 383.6 950.532 383.7 950.161 383.7H949.776ZM945.02 374.254C944.72 374.254 944.478 374.168 944.292 373.997C944.106 373.825 944.014 373.611 944.014 373.354C944.014 373.069 944.106 372.84 944.292 372.669C944.478 372.497 944.72 372.412 945.02 372.412H949.968C950.268 372.412 950.511 372.497 950.697 372.669C950.882 372.84 950.975 373.069 950.975 373.354C950.975 373.611 950.882 373.825 950.697 373.997C950.511 374.168 950.268 374.254 949.968 374.254H945.02ZM958.994 383.786C957.952 383.786 957.016 383.529 956.188 383.015C955.36 382.486 954.703 381.779 954.217 380.894C953.746 379.994 953.511 378.981 953.511 377.852C953.511 376.724 953.768 375.71 954.282 374.811C954.81 373.911 955.517 373.204 956.402 372.69C957.302 372.162 958.309 371.898 959.422 371.898C960.536 371.898 961.536 372.162 962.421 372.69C963.307 373.204 964.006 373.911 964.52 374.811C965.049 375.71 965.313 376.724 965.313 377.852H964.478C964.478 378.981 964.235 379.994 963.749 380.894C963.278 381.779 962.628 382.486 961.8 383.015C960.972 383.529 960.037 383.786 958.994 383.786ZM959.422 381.858C960.151 381.858 960.8 381.687 961.372 381.344C961.943 380.987 962.393 380.508 962.721 379.909C963.05 379.295 963.214 378.609 963.214 377.852C963.214 377.081 963.05 376.396 962.721 375.796C962.393 375.182 961.943 374.704 961.372 374.361C960.8 374.004 960.151 373.825 959.422 373.825C958.708 373.825 958.059 374.004 957.473 374.361C956.902 374.704 956.445 375.182 956.102 375.796C955.774 376.396 955.61 377.081 955.61 377.852C955.61 378.609 955.774 379.295 956.102 379.909C956.445 380.508 956.902 380.987 957.473 381.344C958.059 381.687 958.708 381.858 959.422 381.858ZM964.221 383.721C963.906 383.721 963.642 383.622 963.428 383.422C963.228 383.207 963.128 382.943 963.128 382.629V379.352L963.535 377.081L965.313 377.852V382.629C965.313 382.943 965.206 383.207 964.992 383.422C964.792 383.622 964.535 383.721 964.221 383.721ZM969.614 376.374C969.614 375.518 969.821 374.754 970.235 374.082C970.664 373.397 971.235 372.854 971.949 372.455C972.663 372.055 973.448 371.855 974.305 371.855C975.162 371.855 975.797 371.998 976.212 372.283C976.64 372.555 976.804 372.883 976.704 373.269C976.661 373.468 976.576 373.626 976.447 373.74C976.333 373.84 976.197 373.904 976.04 373.933C975.883 373.961 975.712 373.954 975.526 373.911C974.612 373.725 973.791 373.711 973.063 373.868C972.335 374.025 971.756 374.318 971.328 374.747C970.914 375.175 970.707 375.718 970.707 376.374H969.614ZM969.636 383.7C969.293 383.7 969.029 383.614 968.843 383.443C968.657 383.257 968.565 382.986 968.565 382.629V373.054C968.565 372.712 968.657 372.447 968.843 372.262C969.029 372.076 969.293 371.983 969.636 371.983C969.993 371.983 970.257 372.076 970.428 372.262C970.614 372.433 970.707 372.697 970.707 373.054V382.629C970.707 382.972 970.614 383.236 970.428 383.422C970.257 383.607 969.993 383.7 969.636 383.7ZM981.081 388.841C980.938 388.841 980.767 388.798 980.567 388.712C979.939 388.427 979.767 387.977 980.053 387.363L986.586 372.605C986.871 372.005 987.321 371.833 987.935 372.09C988.578 372.362 988.756 372.812 988.471 373.44L981.916 388.177C981.745 388.62 981.466 388.841 981.081 388.841ZM983.608 383.229C983.337 383.343 983.08 383.357 982.837 383.272C982.609 383.172 982.423 382.986 982.28 382.715L977.375 373.397C977.232 373.126 977.211 372.869 977.311 372.626C977.425 372.369 977.618 372.183 977.889 372.069C978.161 371.955 978.418 371.948 978.66 372.048C978.903 372.133 979.089 372.312 979.217 372.583L983.908 381.901C984.051 382.172 984.101 382.436 984.058 382.693C984.03 382.936 983.88 383.115 983.608 383.229ZM1004.52 383.914C1003.36 383.914 1002.27 383.7 1001.26 383.272C1000.26 382.829 999.381 382.222 998.625 381.451C997.882 380.666 997.297 379.752 996.868 378.709C996.454 377.667 996.247 376.539 996.247 375.325C996.247 374.125 996.454 373.011 996.868 371.983C997.297 370.941 997.882 370.034 998.625 369.263C999.381 368.478 1000.26 367.864 1001.26 367.421C1002.26 366.978 1003.34 366.757 1004.52 366.757C1005.61 366.757 1006.56 366.9 1007.34 367.185C1008.14 367.471 1008.94 367.942 1009.74 368.599C1009.86 368.685 1009.94 368.777 1010 368.877C1010.07 368.963 1010.11 369.056 1010.13 369.156C1010.16 369.242 1010.17 369.349 1010.17 369.477C1010.17 369.749 1010.07 369.977 1009.87 370.163C1009.68 370.334 1009.46 370.434 1009.18 370.463C1008.91 370.477 1008.65 370.384 1008.39 370.184C1007.86 369.727 1007.31 369.377 1006.74 369.134C1006.19 368.892 1005.44 368.77 1004.52 368.77C1003.67 368.77 1002.88 368.942 1002.14 369.284C1001.39 369.627 1000.74 370.098 1000.17 370.698C999.61 371.298 999.174 371.998 998.86 372.797C998.546 373.583 998.389 374.425 998.389 375.325C998.389 376.239 998.546 377.096 998.86 377.895C999.174 378.681 999.61 379.373 1000.17 379.973C1000.74 380.573 1001.39 381.044 1002.14 381.387C1002.88 381.715 1003.67 381.879 1004.52 381.879C1005.24 381.879 1005.93 381.758 1006.57 381.515C1007.23 381.258 1007.86 380.908 1008.46 380.466C1008.71 380.28 1008.96 380.201 1009.21 380.23C1009.46 380.244 1009.68 380.344 1009.85 380.53C1010.02 380.701 1010.11 380.944 1010.11 381.258C1010.11 381.401 1010.08 381.544 1010.02 381.687C1009.96 381.815 1009.88 381.936 1009.76 382.051C1008.99 382.665 1008.16 383.129 1007.28 383.443C1006.41 383.757 1005.49 383.914 1004.52 383.914ZM1017.91 383.786C1016.75 383.786 1015.73 383.536 1014.85 383.036C1013.96 382.522 1013.26 381.822 1012.75 380.937C1012.25 380.037 1012 379.009 1012 377.852C1012 376.681 1012.25 375.653 1012.75 374.768C1013.26 373.868 1013.96 373.169 1014.85 372.669C1015.73 372.155 1016.75 371.898 1017.91 371.898C1019.05 371.898 1020.07 372.155 1020.95 372.669C1021.84 373.169 1022.53 373.868 1023.03 374.768C1023.54 375.653 1023.8 376.681 1023.8 377.852C1023.8 379.009 1023.55 380.037 1023.05 380.937C1022.55 381.822 1021.86 382.522 1020.97 383.036C1020.09 383.536 1019.07 383.786 1017.91 383.786ZM1017.91 381.858C1018.65 381.858 1019.31 381.687 1019.88 381.344C1020.45 381.001 1020.89 380.53 1021.21 379.93C1021.54 379.33 1021.7 378.638 1021.7 377.852C1021.7 377.067 1021.54 376.374 1021.21 375.775C1020.89 375.161 1020.45 374.682 1019.88 374.34C1019.31 373.997 1018.65 373.825 1017.91 373.825C1017.17 373.825 1016.51 373.997 1015.94 374.34C1015.37 374.682 1014.92 375.161 1014.59 375.775C1014.26 376.374 1014.1 377.067 1014.1 377.852C1014.1 378.638 1014.26 379.33 1014.59 379.93C1014.92 380.53 1015.37 381.001 1015.94 381.344C1016.51 381.687 1017.17 381.858 1017.91 381.858ZM1029.84 383.7C1029.21 383.7 1028.65 383.529 1028.17 383.186C1027.68 382.843 1027.3 382.379 1027.03 381.794C1026.76 381.194 1026.62 380.508 1026.62 379.737V368.042C1026.62 367.728 1026.72 367.471 1026.92 367.271C1027.12 367.071 1027.38 366.971 1027.69 366.971C1028.01 366.971 1028.27 367.071 1028.46 367.271C1028.66 367.471 1028.76 367.728 1028.76 368.042V379.737C1028.76 380.266 1028.86 380.701 1029.06 381.044C1029.26 381.387 1029.52 381.558 1029.84 381.558H1030.37C1030.66 381.558 1030.89 381.658 1031.06 381.858C1031.24 382.058 1031.34 382.315 1031.34 382.629C1031.34 382.943 1031.2 383.2 1030.93 383.4C1030.66 383.6 1030.31 383.7 1029.88 383.7H1029.84ZM1038.14 383.786C1036.98 383.786 1035.96 383.536 1035.07 383.036C1034.19 382.522 1033.49 381.822 1032.97 380.937C1032.47 380.037 1032.22 379.009 1032.22 377.852C1032.22 376.681 1032.47 375.653 1032.97 374.768C1033.49 373.868 1034.19 373.169 1035.07 372.669C1035.96 372.155 1036.98 371.898 1038.14 371.898C1039.28 371.898 1040.29 372.155 1041.18 372.669C1042.06 373.169 1042.76 373.868 1043.26 374.768C1043.77 375.653 1044.03 376.681 1044.03 377.852C1044.03 379.009 1043.78 380.037 1043.28 380.937C1042.78 381.822 1042.09 382.522 1041.2 383.036C1040.31 383.536 1039.29 383.786 1038.14 383.786ZM1038.14 381.858C1038.88 381.858 1039.54 381.687 1040.11 381.344C1040.68 381.001 1041.12 380.53 1041.44 379.93C1041.76 379.33 1041.93 378.638 1041.93 377.852C1041.93 377.067 1041.76 376.374 1041.44 375.775C1041.12 375.161 1040.68 374.682 1040.11 374.34C1039.54 373.997 1038.88 373.825 1038.14 373.825C1037.39 373.825 1036.74 373.997 1036.17 374.34C1035.59 374.682 1035.15 375.161 1034.82 375.775C1034.49 376.374 1034.32 377.067 1034.32 377.852C1034.32 378.638 1034.49 379.33 1034.82 379.93C1035.15 380.53 1035.59 381.001 1036.17 381.344C1036.74 381.687 1037.39 381.858 1038.14 381.858ZM1048.33 376.374C1048.33 375.518 1048.54 374.754 1048.95 374.082C1049.38 373.397 1049.95 372.854 1050.66 372.455C1051.38 372.055 1052.16 371.855 1053.02 371.855C1053.88 371.855 1054.51 371.998 1054.93 372.283C1055.35 372.555 1055.52 372.883 1055.42 373.269C1055.38 373.468 1055.29 373.626 1055.16 373.74C1055.05 373.84 1054.91 373.904 1054.75 373.933C1054.6 373.961 1054.43 373.954 1054.24 373.911C1053.33 373.725 1052.51 373.711 1051.78 373.868C1051.05 374.025 1050.47 374.318 1050.04 374.747C1049.63 375.175 1049.42 375.718 1049.42 376.374H1048.33ZM1048.35 383.7C1048.01 383.7 1047.74 383.614 1047.56 383.443C1047.37 383.257 1047.28 382.986 1047.28 382.629V373.054C1047.28 372.712 1047.37 372.447 1047.56 372.262C1047.74 372.076 1048.01 371.983 1048.35 371.983C1048.71 371.983 1048.97 372.076 1049.14 372.262C1049.33 372.433 1049.42 372.697 1049.42 373.054V382.629C1049.42 382.972 1049.33 383.236 1049.14 383.422C1048.97 383.607 1048.71 383.7 1048.35 383.7ZM907.959 412.782C908.211 412.782 908.415 412.842 908.571 412.962C908.727 413.082 908.787 413.28 908.751 413.556C908.739 413.784 908.631 413.964 908.427 414.096C908.223 414.228 907.989 414.294 907.725 414.294H906.519L906.087 416.85H907.239C907.515 416.85 907.719 416.916 907.851 417.048C907.995 417.18 908.067 417.354 908.067 417.57C908.067 417.762 907.971 417.942 907.779 418.11C907.587 418.278 907.329 418.362 907.005 418.362H905.709L905.115 421.8C905.067 422.064 904.959 422.28 904.791 422.448C904.635 422.616 904.419 422.7 904.143 422.7C903.879 422.7 903.681 422.604 903.549 422.412C903.429 422.22 903.393 421.992 903.441 421.728L903.999 418.362H901.227L900.651 421.8C900.603 422.052 900.489 422.268 900.309 422.448C900.141 422.616 899.931 422.7 899.679 422.7C899.415 422.7 899.217 422.622 899.085 422.466C898.953 422.298 898.911 422.052 898.959 421.728L899.535 418.362H898.293C898.041 418.362 897.837 418.302 897.681 418.182C897.537 418.05 897.471 417.882 897.483 417.678C897.507 417.402 897.609 417.198 897.789 417.066C897.981 416.922 898.227 416.85 898.527 416.85H899.913L900.327 414.294H898.995C898.755 414.294 898.557 414.24 898.401 414.132C898.245 414.024 898.167 413.856 898.167 413.628C898.167 413.34 898.263 413.13 898.455 412.998C898.647 412.854 898.905 412.782 899.229 412.782H900.687L901.281 409.524C901.341 409.248 901.449 409.032 901.605 408.876C901.761 408.708 901.977 408.624 902.253 408.624C902.517 408.624 902.715 408.714 902.847 408.894C902.991 409.074 903.033 409.308 902.973 409.596L902.397 412.782H905.169L905.763 409.524C905.811 409.272 905.919 409.062 906.087 408.894C906.255 408.714 906.471 408.624 906.735 408.624C907.011 408.624 907.209 408.714 907.329 408.894C907.461 409.074 907.497 409.308 907.437 409.596L906.879 412.782H907.959ZM904.377 416.85L904.809 414.294H902.037L901.623 416.85H904.377ZM910.818 422.7C910.482 422.7 910.224 422.556 910.044 422.268C909.864 421.98 909.846 421.674 909.99 421.35L915.048 409.272C915.228 408.852 915.522 408.642 915.93 408.642C916.362 408.642 916.656 408.852 916.812 409.272L921.888 421.386C922.02 421.722 921.996 422.028 921.816 422.304C921.648 422.568 921.39 422.7 921.042 422.7C920.862 422.7 920.688 422.652 920.52 422.556C920.364 422.448 920.25 422.304 920.178 422.124L915.714 411.036H916.218L911.682 422.124C911.598 422.316 911.472 422.46 911.304 422.556C911.148 422.652 910.986 422.7 910.818 422.7ZM911.772 419.604L912.492 418.056H919.548L920.268 419.604H911.772ZM927.434 422.7C926.522 422.7 925.742 422.424 925.094 421.872C924.458 421.308 923.972 420.504 923.636 419.46C923.3 418.404 923.132 417.138 923.132 415.662C923.132 414.186 923.3 412.926 923.636 411.882C923.972 410.826 924.458 410.022 925.094 409.47C925.742 408.906 926.522 408.624 927.434 408.624C928.346 408.624 929.12 408.912 929.756 409.488C930.404 410.052 930.896 410.862 931.232 411.918C931.568 412.962 931.736 414.21 931.736 415.662C931.736 417.114 931.568 418.368 931.232 419.424C930.896 420.468 930.404 421.278 929.756 421.854C929.12 422.418 928.346 422.7 927.434 422.7ZM927.434 420.828C927.986 420.828 928.442 420.606 928.802 420.162C929.162 419.706 929.432 419.088 929.612 418.308C929.792 417.528 929.882 416.646 929.882 415.662C929.882 414.678 929.792 413.796 929.612 413.016C929.432 412.236 929.162 411.618 928.802 411.162C928.442 410.706 927.986 410.478 927.434 410.478C926.882 410.478 926.426 410.706 926.066 411.162C925.706 411.606 925.436 412.218 925.256 412.998C925.076 413.778 924.986 414.666 924.986 415.662C924.986 416.658 925.076 417.546 925.256 418.326C925.436 419.106 925.706 419.718 926.066 420.162C926.438 420.606 926.894 420.828 927.434 420.828ZM937.678 408.624C938.518 408.624 939.256 408.81 939.892 409.182C940.528 409.542 941.026 410.046 941.386 410.694C941.746 411.33 941.926 412.062 941.926 412.89C941.926 413.718 941.746 414.456 941.386 415.104C941.026 415.752 940.528 416.262 939.892 416.634C939.256 416.994 938.518 417.174 937.678 417.174C936.862 417.174 936.13 416.994 935.482 416.634C934.846 416.262 934.348 415.752 933.988 415.104C933.628 414.456 933.448 413.718 933.448 412.89C933.448 412.062 933.628 411.33 933.988 410.694C934.348 410.046 934.846 409.542 935.482 409.182C936.118 408.81 936.85 408.624 937.678 408.624ZM937.696 410.244C937.204 410.244 936.766 410.358 936.382 410.586C936.01 410.802 935.716 411.108 935.5 411.504C935.284 411.9 935.176 412.362 935.176 412.89C935.176 413.406 935.284 413.868 935.5 414.276C935.716 414.672 936.01 414.984 936.382 415.212C936.766 415.44 937.204 415.554 937.696 415.554C938.188 415.554 938.62 415.44 938.992 415.212C939.376 414.984 939.67 414.672 939.874 414.276C940.09 413.868 940.198 413.406 940.198 412.89C940.198 412.362 940.09 411.9 939.874 411.504C939.67 411.108 939.376 410.802 938.992 410.586C938.62 410.358 938.188 410.244 937.696 410.244ZM941.332 415.194L937.156 422.16C936.94 422.496 936.664 422.664 936.328 422.664C936.088 422.664 935.878 422.592 935.698 422.448C935.53 422.304 935.422 422.124 935.374 421.908C935.338 421.68 935.386 421.464 935.518 421.26L938.074 417.012L941.332 415.194ZM948.839 422.7C947.975 422.7 947.195 422.502 946.499 422.106C945.815 421.698 945.269 421.146 944.861 420.45C944.465 419.754 944.267 418.974 944.267 418.11C944.267 417.846 944.351 417.63 944.519 417.462C944.687 417.282 944.903 417.192 945.167 417.192C945.431 417.192 945.653 417.282 945.833 417.462C946.013 417.63 946.103 417.846 946.103 418.11C946.103 418.626 946.223 419.094 946.463 419.514C946.703 419.934 947.027 420.264 947.435 420.504C947.855 420.744 948.323 420.864 948.839 420.864C949.367 420.864 949.835 420.744 950.243 420.504C950.663 420.264 950.993 419.934 951.233 419.514C951.473 419.094 951.593 418.626 951.593 418.11C951.593 417.582 951.473 417.114 951.233 416.706C950.993 416.286 950.663 415.956 950.243 415.716C949.835 415.476 949.367 415.356 948.839 415.356H945.833C945.569 415.356 945.353 415.272 945.185 415.104C945.017 414.924 944.933 414.702 944.933 414.438V409.578C944.933 409.314 945.017 409.092 945.185 408.912C945.353 408.732 945.569 408.642 945.833 408.642H951.845C952.097 408.642 952.313 408.738 952.493 408.93C952.673 409.11 952.763 409.326 952.763 409.578C952.763 409.818 952.673 410.028 952.493 410.208C952.325 410.388 952.109 410.478 951.845 410.478H946.751V413.52H948.839C949.715 413.52 950.495 413.724 951.179 414.132C951.875 414.528 952.421 415.074 952.817 415.77C953.225 416.454 953.429 417.234 953.429 418.11C953.429 418.974 953.225 419.754 952.817 420.45C952.421 421.146 951.875 421.698 951.179 422.106C950.495 422.502 949.715 422.7 948.839 422.7ZM956.019 422.7C955.755 422.7 955.533 422.61 955.353 422.43C955.173 422.25 955.083 422.028 955.083 421.764V409.578C955.083 409.302 955.173 409.08 955.353 408.912C955.533 408.732 955.755 408.642 956.019 408.642H964.155C964.431 408.642 964.653 408.726 964.821 408.894C964.989 409.05 965.073 409.26 965.073 409.524C965.073 409.776 964.989 409.98 964.821 410.136C964.653 410.292 964.431 410.37 964.155 410.37H956.955V414.744H962.121C962.397 414.744 962.619 414.828 962.787 414.996C962.955 415.152 963.039 415.356 963.039 415.608C963.039 415.86 962.955 416.07 962.787 416.238C962.619 416.394 962.397 416.472 962.121 416.472H956.955V421.764C956.955 422.028 956.865 422.25 956.685 422.43C956.505 422.61 956.283 422.7 956.019 422.7ZM970.905 422.682C970.113 422.682 969.399 422.496 968.763 422.124C968.139 421.74 967.647 421.224 967.287 420.576C966.927 419.916 966.747 419.178 966.747 418.362C966.747 417.57 966.927 416.862 967.287 416.238C967.647 415.602 968.139 415.104 968.763 414.744C969.399 414.384 970.113 414.204 970.905 414.204C971.697 414.204 972.405 414.384 973.029 414.744C973.653 415.104 974.145 415.602 974.505 416.238C974.877 416.862 975.057 417.57 975.045 418.362C975.045 419.178 974.859 419.916 974.487 420.576C974.127 421.224 973.635 421.74 973.011 422.124C972.387 422.496 971.685 422.682 970.905 422.682ZM970.905 421.026C971.349 421.026 971.745 420.906 972.093 420.666C972.453 420.426 972.735 420.108 972.939 419.712C973.143 419.304 973.245 418.854 973.245 418.362C973.257 417.882 973.161 417.456 972.957 417.084C972.753 416.7 972.471 416.4 972.111 416.184C971.763 415.956 971.361 415.842 970.905 415.842C970.461 415.842 970.059 415.956 969.699 416.184C969.339 416.4 969.057 416.7 968.853 417.084C968.649 417.456 968.547 417.882 968.547 418.362C968.547 418.854 968.643 419.304 968.835 419.712C969.039 420.108 969.321 420.426 969.681 420.666C970.041 420.906 970.449 421.026 970.905 421.026ZM970.905 415.518C970.221 415.518 969.609 415.368 969.069 415.068C968.541 414.768 968.121 414.366 967.809 413.862C967.497 413.346 967.341 412.764 967.341 412.116C967.341 411.432 967.497 410.826 967.809 410.298C968.121 409.758 968.541 409.332 969.069 409.02C969.609 408.696 970.221 408.534 970.905 408.534C971.589 408.522 972.195 408.672 972.723 408.984C973.263 409.296 973.689 409.722 974.001 410.262C974.313 410.802 974.463 411.42 974.451 412.116C974.451 412.764 974.295 413.346 973.983 413.862C973.671 414.366 973.245 414.768 972.705 415.068C972.177 415.368 971.577 415.518 970.905 415.518ZM970.905 414.024C971.241 414.024 971.541 413.934 971.805 413.754C972.069 413.574 972.279 413.34 972.435 413.052C972.591 412.752 972.669 412.422 972.669 412.062C972.681 411.702 972.609 411.384 972.453 411.108C972.297 410.832 972.087 410.616 971.823 410.46C971.559 410.292 971.253 410.208 970.905 410.208C970.401 410.208 969.981 410.382 969.645 410.73C969.309 411.078 969.135 411.522 969.123 412.062C969.111 412.602 969.273 413.064 969.609 413.448C969.957 413.832 970.389 414.024 970.905 414.024Z" fill="black"/>
</svg>
