<?xml version="1.0" encoding="utf-8"?>
<!-- Generator: Adobe Illustrator 27.0.0, SVG Export Plug-In . SVG Version: 6.00 Build 0)  -->
<svg version="1.1" id="레이어_1" xmlns="http://www.w3.org/2000/svg" xmlns:xlink="http://www.w3.org/1999/xlink" x="0px"
	 y="0px" viewBox="0 0 270 33" style="enable-background:new 0 0 270 33;" xml:space="preserve">
<style type="text/css">
	.st0{fill:#E1DFF5;}
</style>
<g>
	<path class="st0" d="M50.1,16.2C50,16.2,50,16.2,50.1,16.2L50.1,16.2z"/>
	<path class="st0" d="M106,13.5C106.1,13.5,106.1,13.5,106,13.5c0.1-0.2,0.1-0.4,0.1-0.5L106,13.5z"/>
	<path class="st0" d="M115.1,14.3C115.1,14.3,115.1,14.3,115.1,14.3C115.1,14.2,115.2,14.1,115.1,14.3z"/>
	<path class="st0" d="M85.4,16.1c-0.1,0-0.1,0-0.1,0.1C85.3,16.2,85.3,16.2,85.4,16.1z"/>
	<path class="st0" d="M33.6,17.1C33.6,17.1,33.6,17.1,33.6,17.1c0-0.1,0-0.1-0.1-0.1L33.6,17.1z"/>
	<path class="st0" d="M33.8,16.8c0.2,0.1-0.1,0.3-0.1,0.3c0.2,0.3,0.4,0.3,0.7,0.2C34.3,17,33.9,17,33.8,16.8z"/>
	<path class="st0" d="M3.6,17.1L3.7,17C3.6,17,3.6,17,3.6,17.1z"/>
	<path class="st0" d="M86.7,31.3c0,0-0.1,0-0.1,0.1C86.7,31.4,86.7,31.3,86.7,31.3z"/>
	<path class="st0" d="M8.3,17.6l0.1-0.5C8.3,17.3,8.3,17.5,8.3,17.6z"/>
	<path class="st0" d="M106.2,13l0.1-0.2C106.2,12.8,106.2,12.9,106.2,13z"/>
	<path class="st0" d="M123.4,14.1c0,0.1,0,0.3,0.1,0.4c0,0,0,0,0,0L123.4,14.1z"/>
	<path class="st0" d="M166,18.5c0-0.1,0-0.1,0-0.2l-0.1,0.4C165.9,18.6,166,18.5,166,18.5z"/>
	<path class="st0" d="M135,15.4c0-0.1,0-0.1,0-0.2c-0.2-0.1-0.7-0.1-1.4-0.1l0,0.6L135,15.4z"/>
	<path class="st0" d="M148.6,28.5l-1.3-1.1c3.9-0.9,5.8,0.2,9.1-1.1l-0.2,0.3c0.5,0.2,0.5-2.5,6.3,0.3l0,0.1c0.2,0,0.2-0.3,0.6,0
		l-1-0.6c0.5-0.4,1-1,1.7-1.1c0.2,0.1,0.3,0.4,0.3,0.6l1.8-0.4l0.6,0.7c0.5-0.5,0.1-2.1,1.7-1.3c-0.7-1.1,0.7-0.8,0.4-1.3
		c0.1,0.1,0.3,0.3,0.4,0.5c0.9-0.2,2.5-0.7,2.9-1.3c0,0-3.7-2-4.8-3.2c1.3,0.2,0.3-0.2,0-0.5l-0.1,0.3c-0.8-0.2-0.8-0.9-1.2-1.1
		c0,0.1,0,0.1,0,0.2l0-0.1c0,0.1,0,0.2,0,0.3c0,0.2,0,0.3-0.2,0.3l0-0.1c-0.3,0.1-0.9,0.1-1.1,0l-0.1-0.6c-0.4,1.2-3.9-1.4-4.6-1.3
		c-0.8-0.7-1.7,0.3-2.6,0c-1.5-0.1-0.8-0.8-1.6-1.3c-1-0.3,0.3,0.7-0.1,0.8l-1.2-0.7c0.6-0.1,0.3-0.5,0.1-0.7c-1,0-2.6-1-2.8,0.2
		c-1.4-0.5-1.4-0.9-2-0.9c0.2,0.2,0.6,0.4,0.6,0.6c-0.6-0.5-0.2,0.2,0,0.3c-0.8,0.6-4.3-1.9-4.4-0.5l0-0.2c-0.1,1,0.3,1.9-0.2,2.5
		l-0.4-0.4l-0.5,0.5c-0.4-0.3-0.2-0.6-0.2-0.7c-0.9,0.5-2.2,0.1-3.3,0l1.4,2.6c-1-0.5-2.8-1.7-2.9-0.8l-0.6-0.9
		c-2-1.6-1.2,0.8-2,0.4l-1-0.9l0.9,0c-1-0.4-1.4-0.7-2.2-1.3c0,0,0,0,0,0c0.1,0,0.1,0.1,0.1,0.1l-0.1,0c-0.1,0.5-0.5,0.9-1.2,0.9
		c-0.9-0.1-1.6,0.7-3.2-0.2l-0.3,1l-1.2-0.5l-0.1-0.8c1.1,0,3.1-0.5,4.5-0.6l0-0.4c-0.8,0.1-1.8,0.5-2.3,0.4c-0.3-0.1-1-0.9-0.6-1.5
		l-0.5,0.8c-2.8,0.3-2.8,0.3-5.7-0.4l0.3,0.4c-0.6,0.3-1.1,0.5-1.3-0.1c-1.7,0-3.6-0.4-4.8-1.4l-0.2,1c-0.4,0-1-1.4-1.1-0.1
		l-0.8,0.5c-0.5,0-0.8,0.5-1.4,0l0,0l0,0c0,0-0.1-0.1-0.1-0.1c0,0,0,0.1,0,0.1c-1.2-0.4,0.1,0.8-1.3,0.4c-0.5-0.6-0.4,1.2-1,1
		l-0.7-1.3c-1.2-0.7-1.3,0.6-3,0.7c-0.8-0.4-1.3-1.6-0.8-2.6c-0.7,1.3-0.3,0.8-1.2,1.5c-0.2-0.5-0.1-0.6,0.1-1.1
		c-0.9-0.6-0.5,0.5-1.2,0.5c-0.1,1-0.3,2.5-0.5,2.6l0.3,0.3c-0.7,0.5-1.4,0.8-2.2,0.4l0-0.5l-0.8,0.3l-0.1-0.6l-1.2,0.2l0.2,0.2
		c-0.3,0.1-1.2,0.3-1.8,0l0-0.3c-1.6-1-2.7,0.5-4.5,0.6l0.2-0.7c-0.6-0.7-0.1,1.1-0.9,0.8l-0.1-0.9c-0.6,1.2-0.8-0.2-1.3-0.6
		l0.2,1.1l-0.8-0.2c-0.9-0.3-0.6-1.4-0.5-2L91.8,15l-0.2-1c-0.4,1.2-0.5-0.2-1.2,0.5c-0.1-0.4,0.1-0.6-0.2-0.7L89,15.2l0.8-0.6
		l0,1.5c-0.8,1.1-1.1-0.1-1.7,0.3l0.4-0.4c-0.9,0.4-1-0.2-1.6-0.5c0.2,0.3,0.4,0.7,0.1,0.9c-0.3,0.1-0.2-0.5-0.4-0.7
		c0,1-0.7,1.5-1.3,1.1c0-0.1,0-0.3,0.1-0.4c-0.2,0.2-0.2,0.4-0.5,0.2l0.1-1.1l-0.5,1c-0.4-0.3-0.9,0.5-0.8-0.2l0.2-0.2L81,15.8
		L81,14.9c-0.2,1.2-1.5-0.4-1.3,1.1c-0.5-0.8-2,0.6-1.7-1.1c-1.8-0.1-2.7,1.6-4.8,0.8c-0.8-1.4-2.9-0.9-4.2-1
		c-2.7,0.6-4.4,1.2-7.1,1.7c-1.7-2-4.1,0.7-5.9-0.4l-0.5,0.8c-1.2-1.2-3,0.3-4.6-0.9c-0.4,0.3-0.6,0.4-0.7,0.5
		c0.1,0,0.2,0.2,0.2,0.7C49.9,16.5,48.9,17,49,16l0.1-0.1c0.1-1-1.4,0.5-2-0.4l0.3,1.1l-0.9-0.2l0.2-0.2c-3.9,2.4-5.6-1.1-9.3,1.1
		c0.5-1.2-0.7,0.6-0.8-0.7c-0.9-1.6-1.7,0.3-2.5,0.7c0,0.1,0,0.1-0.1,0.2l-1.3-0.2c0.8-1.6-1,1.3-0.2,0c-3.4-1.3-7.9-0.1-11.9-0.8
		l0.2,0.4c-1-0.1-2.3,0.4-3-0.3c-0.7-0.7-1.7,1-2,1.1c-0.9,0.7-1.6-0.8-1.2-0.7c-0.9,0.2-1.8,1.6-3,0.9c-0.4-1.4-3.4,1.2-3.4-0.3
		l0,0.1c-1.5-1.1-3.1,0.6-4.8-0.4c0,0,0-0.1,0.1-0.2l-3.7,4.5l0.8,5.2l2.9,4.3l8.3-0.6l6.6,1.8c5.4,0,10.8-0.1,16.1-0.2l1.2-1.1
		c3.1,2.1,7.2-0.2,10.6,1.2l0.1-1c1-0.1,0.9,0.6,1.1,0.7c9-0.2,18.2-1.6,26.2-0.5c0.8,0.7,3.1,0.2,3.8,0.9c2.6-1.3,5.4-1.3,8-1.3
		l-0.1,0.1l1.2-0.2c0.1,0.1,0.1,0.2,0,0.3c1.4-0.9,3.6-0.1,5.3,0.2l-0.1,0.1c10-0.1,19.1-2.5,29-1.6c4.7,1.3,9.9-1.2,15.2-0.3
		C137.2,30.6,147.7,29,148.6,28.5z"/>
	<path class="st0" d="M164.1,25.7L164.1,25.7C164.1,26.1,164.1,26,164.1,25.7z"/>
	<polygon class="st0" points="141.3,16.2 141.4,16.2 141.1,15.6 	"/>
	<path class="st0" d="M155.2,14.7c-0.6-0.1-0.7,0-0.6,0.2C154.9,14.9,155,14.8,155.2,14.7z"/>
	<path class="st0" d="M169.2,24.4c0.3,0,0.2-0.2,0-0.5c-0.3,0.1-0.6,0.1-0.6,0.1C168.8,24.1,169,24.3,169.2,24.4z"/>
	<path class="st0" d="M167.2,18.9l0.1-0.3C167.1,18.6,167.1,18.7,167.2,18.9z"/>
</g>
</svg>
