<?xml version="1.0" encoding="utf-8"?>
<!-- Generator: Adobe Illustrator 27.0.0, SVG Export Plug-In . SVG Version: 6.00 Build 0)  -->
<svg version="1.1" id="레이어_1" xmlns="http://www.w3.org/2000/svg" xmlns:xlink="http://www.w3.org/1999/xlink" x="0px"
	 y="0px" viewBox="0 0 375 812" style="enable-background:new 0 0 375 812;" xml:space="preserve">
<style type="text/css">
	.st0{fill:url(#SVGID_1_);}
	.st1{opacity:0.5;}
	.st2{fill:#CD7FEA;stroke:#F7F8F8;stroke-miterlimit:10;}
	.st3{fill:#B9F9E2;}
</style>
<linearGradient id="SVGID_1_" gradientUnits="userSpaceOnUse" x1="187.59" y1="1.75" x2="187.59" y2="813.34" gradientTransform="matrix(1 0 0 1 0 -1.09)">
	<stop  offset="0" style="stop-color:#0094F7"/>
	<stop  offset="0.4085" style="stop-color:#2D4EF3"/>
	<stop  offset="0.6301" style="stop-color:#432DF1"/>
	<stop  offset="1" style="stop-color:#432DF1"/>
</linearGradient>
<polygon class="st0" points="375.1,812.2 0.1,812.2 0.1,474.5 0.1,0.7 375.1,0.7 "/>
<g class="st1">
	<g>
		<path class="st2" d="M105.9,151.2"/>
	</g>
	<g>
		<polygon class="st3" points="149.3,811.8 148.7,811.8 137.1,753.9 137,753.5 137,753.4 96.1,550.8 96,550.3 58.1,362.1 58,361.6 
			23.6,191 23.5,190.7 23.5,190.5 0.5,76.7 0.5,74.2 23.9,190.4 24,190.6 24,190.9 58.4,361.4 58.5,361.9 96.5,550.1 96.6,550.6 
			137.4,753.2 137.5,753.7 137.5,753.7 		"/>
	</g>
	<g>
		<polygon class="st3" points="375.5,811.1 318.5,669.3 318.4,669 318.3,668.9 240.2,479 240.1,478.6 240,478.6 170.9,310.5 
			170.8,310.2 170.7,310 107.9,157.4 107.9,157.1 107.8,156.9 43.2,-0.2 43.7,-0.2 108.2,156.7 108.3,156.9 108.4,157.2 
			171.2,309.8 171.3,310.1 171.4,310.3 240.5,478.4 240.7,478.8 318.7,668.7 318.8,668.9 318.9,669.1 375.5,809.8 		"/>
	</g>
	<g>
		<polygon class="st3" points="285,258.3 375.5,401.9 375.5,402.9 284.5,258.5 284.2,258.1 198.1,121.4 197.8,121 121.4,-0.2 
			122,-0.2 198.2,120.8 198.4,121 198.5,121.2 284.7,257.9 284.8,258.1 		"/>
	</g>
	<g>
		<polygon class="st3" points="279.9,88.7 375.5,207.2 375.5,208 279.5,88.9 279.1,88.5 207.6,-0.2 208.2,-0.2 279.6,88.3 		"/>
	</g>
	<g>
		<polygon class="st3" points="240.5,478.4 375.5,411.2 375.5,411.7 240.7,478.8 240.2,479 96.6,550.6 96.1,550.8 0.5,598.4 
			0.5,597.8 96,550.3 96.5,550.1 240,478.6 240.1,478.6 		"/>
	</g>
	<g>
		<polygon class="st3" points="284.7,257.9 375.5,216.3 375.5,216.9 285,258.3 284.5,258.5 171.4,310.3 170.9,310.5 58.5,361.9 
			58.1,362.1 0.5,388.5 0.5,388 58,361.6 58.4,361.4 170.7,310 171.2,309.8 284.2,258.1 		"/>
	</g>
	<g>
		<polygon class="st3" points="375.5,50.6 279.9,88.7 279.5,88.9 198.5,121.2 198.1,121.4 108.4,157.2 107.9,157.4 24,190.9 
			23.6,191 0.5,200.2 0.5,199.7 23.5,190.5 23.9,190.4 107.8,156.9 108.2,156.7 197.8,121 198.2,120.8 279.1,88.5 279.6,88.3 
			375.5,50 		"/>
	</g>
	<g>
		<polygon class="st3" points="375.5,642.2 375.5,642.8 318.9,669.1 318.5,669.3 137.5,753.7 137.5,753.7 137.1,753.9 12.9,811.8 
			11.7,811.8 137,753.4 137.4,753.2 318.3,668.9 318.7,668.7 		"/>
	</g>
</g>
</svg>
