<?xml version="1.0" encoding="utf-8"?>
<!-- Generator: Adobe Illustrator 27.0.0, SVG Export Plug-In . SVG Version: 6.00 Build 0)  -->
<svg version="1.1" id="레이어_1" xmlns="http://www.w3.org/2000/svg" xmlns:xlink="http://www.w3.org/1999/xlink" x="0px"
	 y="0px" viewBox="0 0 253 130" style="enable-background:new 0 0 253 130;" xml:space="preserve">
<style type="text/css">
	.st0{fill:#FFFFFF;}
</style>
<g>
	<path class="st0" d="M23.62,34.47c0,0.34-0.1,0.6-0.31,0.78c-0.21,0.18-0.45,0.27-0.74,0.27H5.25c-0.29,0-0.54-0.09-0.74-0.27
		C4.3,35.07,4.2,34.81,4.2,34.47c0-0.34,0.1-0.6,0.31-0.78c0.21-0.18,0.45-0.27,0.74-0.27h7.17v-7.17c0-0.36,0.11-0.63,0.33-0.81
		c0.22-0.18,0.49-0.27,0.83-0.27c0.34,0,0.62,0.09,0.85,0.27c0.23,0.18,0.34,0.45,0.34,0.81v7.17h7.79c0.29,0,0.54,0.09,0.74,0.27
		C23.51,33.87,23.62,34.13,23.62,34.47z M6.01,11.57c0-0.87,0.18-1.68,0.53-2.45s0.85-1.42,1.5-1.97c0.65-0.56,1.44-0.99,2.37-1.3
		c0.93-0.31,1.97-0.47,3.13-0.47c1.16,0,2.21,0.16,3.15,0.47c0.94,0.31,1.74,0.75,2.39,1.3c0.65,0.56,1.16,1.21,1.52,1.97
		s0.54,1.58,0.54,2.45v5.07c0,0.87-0.18,1.68-0.54,2.43c-0.36,0.75-0.87,1.4-1.52,1.94c-0.65,0.54-1.45,0.97-2.39,1.27
		s-1.99,0.45-3.15,0.45c-1.16,0-2.2-0.15-3.13-0.45c-0.93-0.3-1.72-0.72-2.37-1.27c-0.65-0.54-1.15-1.19-1.5-1.94
		c-0.35-0.75-0.53-1.56-0.53-2.43V11.57z M8.36,15.63c0,0.94,0.13,1.73,0.38,2.35c0.25,0.63,0.61,1.14,1.07,1.54
		c0.46,0.4,1,0.68,1.63,0.85c0.63,0.17,1.33,0.25,2.1,0.25s1.48-0.08,2.12-0.25c0.64-0.17,1.2-0.45,1.67-0.85
		c0.47-0.4,0.83-0.91,1.09-1.54c0.25-0.63,0.38-1.41,0.38-2.35v-3.04c0-1.86-0.49-3.18-1.47-3.95c-0.98-0.77-2.24-1.16-3.79-1.16
		c-1.52,0-2.77,0.39-3.73,1.16c-0.97,0.77-1.45,2.09-1.45,3.95V15.63z M37.1,19.54c0,0.34-0.1,0.6-0.31,0.78
		c-0.21,0.18-0.45,0.27-0.74,0.27h-5.18v14.46c0,0.36-0.11,0.63-0.34,0.82c-0.23,0.18-0.51,0.27-0.85,0.27
		c-0.34,0-0.62-0.09-0.83-0.27c-0.22-0.18-0.33-0.45-0.33-0.82V6.1c0-0.36,0.11-0.63,0.33-0.82c0.22-0.18,0.49-0.27,0.83-0.27
		c0.34,0,0.62,0.09,0.85,0.27c0.23,0.18,0.34,0.45,0.34,0.82v12.39h5.18c0.29,0,0.54,0.09,0.74,0.27
		C36.99,18.95,37.1,19.21,37.1,19.54z"/>
	<path class="st0" d="M69.7,17.77c0,0.34-0.1,0.6-0.31,0.78c-0.21,0.18-0.45,0.27-0.74,0.27H39.67c-0.29,0-0.54-0.09-0.74-0.27
		c-0.21-0.18-0.31-0.44-0.31-0.78s0.1-0.6,0.31-0.78c0.21-0.18,0.45-0.27,0.74-0.27h28.99c0.29,0,0.54,0.09,0.74,0.27
		S69.7,17.43,69.7,17.77z M41.37,6.5c0-0.34,0.1-0.6,0.31-0.78c0.21-0.18,0.45-0.27,0.74-0.27h21.7c0.58,0,1.04,0.08,1.4,0.25
		c0.35,0.17,0.62,0.39,0.8,0.65s0.3,0.57,0.34,0.91c0.05,0.34,0.07,0.68,0.07,1.01V9.4c0,0.22-0.01,0.5-0.02,0.83
		c-0.01,0.34-0.03,0.69-0.05,1.07c-0.02,0.38-0.05,0.74-0.09,1.11c-0.04,0.36-0.09,0.66-0.16,0.91c-0.12,0.46-0.29,0.76-0.51,0.91
		c-0.22,0.14-0.52,0.19-0.91,0.14c-0.8-0.14-1.1-0.63-0.91-1.45c0.12-0.48,0.2-1.01,0.24-1.58c0.04-0.57,0.05-1.13,0.05-1.68V8.28
		c0-0.29-0.05-0.48-0.16-0.58c-0.11-0.1-0.26-0.14-0.45-0.14H42.42c-0.29,0-0.54-0.09-0.74-0.27C41.47,7.1,41.37,6.84,41.37,6.5z
		 M43.8,32.88c0,0.29,0.05,0.48,0.16,0.58c0.11,0.1,0.26,0.14,0.45,0.14h21.85c0.29,0,0.54,0.09,0.74,0.27
		c0.21,0.18,0.31,0.44,0.31,0.78c0,0.34-0.1,0.6-0.31,0.78c-0.21,0.18-0.45,0.27-0.74,0.27H44.05c-0.58,0-1.05-0.04-1.4-0.13
		c-0.35-0.08-0.62-0.22-0.8-0.4c-0.18-0.18-0.3-0.41-0.34-0.67c-0.05-0.27-0.07-0.57-0.07-0.91v-3.44c0-0.7,0.16-1.23,0.49-1.58
		c0.33-0.35,0.88-0.53,1.65-0.53h20.4c0.19,0,0.34-0.05,0.45-0.14c0.11-0.1,0.16-0.29,0.16-0.58v-1.81c0-0.29-0.05-0.48-0.16-0.58
		c-0.11-0.1-0.26-0.15-0.45-0.15H42.49c-0.29,0-0.54-0.09-0.74-0.27c-0.21-0.18-0.31-0.44-0.31-0.78c0-0.34,0.1-0.6,0.31-0.78
		c0.2-0.18,0.45-0.27,0.74-0.27h22.35c0.85,0,1.41,0.2,1.68,0.6s0.42,0.95,0.42,1.65v2.75c0,0.34-0.01,0.66-0.02,0.96
		c-0.01,0.3-0.08,0.56-0.22,0.78c-0.13,0.22-0.36,0.39-0.67,0.53c-0.31,0.13-0.76,0.2-1.34,0.2H44.42c-0.19,0-0.34,0.05-0.45,0.15
		s-0.16,0.29-0.16,0.58V32.88z"/>
	<path class="st0" d="M92.46,34.47c0,0.34-0.1,0.6-0.31,0.78c-0.21,0.18-0.45,0.27-0.74,0.27H74.09c-0.29,0-0.54-0.09-0.74-0.27
		c-0.21-0.18-0.31-0.44-0.31-0.78c0-0.34,0.1-0.6,0.31-0.78c0.21-0.18,0.45-0.27,0.74-0.27h7.17v-7.17c0-0.36,0.11-0.63,0.33-0.81
		c0.22-0.18,0.49-0.27,0.83-0.27c0.34,0,0.62,0.09,0.85,0.27c0.23,0.18,0.34,0.45,0.34,0.81v7.17h7.79c0.29,0,0.54,0.09,0.74,0.27
		C92.35,33.87,92.46,34.13,92.46,34.47z M74.85,11.57c0-0.87,0.18-1.68,0.53-2.45s0.85-1.42,1.5-1.97c0.65-0.56,1.44-0.99,2.37-1.3
		c0.93-0.31,1.97-0.47,3.13-0.47c1.16,0,2.21,0.16,3.15,0.47c0.94,0.31,1.74,0.75,2.39,1.3c0.65,0.56,1.16,1.21,1.52,1.97
		s0.54,1.58,0.54,2.45v5.07c0,0.87-0.18,1.68-0.54,2.43c-0.36,0.75-0.87,1.4-1.52,1.94c-0.65,0.54-1.45,0.97-2.39,1.27
		s-1.99,0.45-3.15,0.45c-1.16,0-2.2-0.15-3.13-0.45c-0.93-0.3-1.72-0.72-2.37-1.27c-0.65-0.54-1.15-1.19-1.5-1.94
		c-0.35-0.75-0.53-1.56-0.53-2.43V11.57z M77.2,15.63c0,0.94,0.13,1.73,0.38,2.35c0.25,0.63,0.61,1.14,1.07,1.54
		c0.46,0.4,1,0.68,1.63,0.85c0.63,0.17,1.33,0.25,2.1,0.25s1.48-0.08,2.12-0.25c0.64-0.17,1.2-0.45,1.67-0.85
		c0.47-0.4,0.83-0.91,1.09-1.54c0.25-0.63,0.38-1.41,0.38-2.35v-3.04c0-1.86-0.49-3.18-1.47-3.95c-0.98-0.77-2.24-1.16-3.79-1.16
		c-1.52,0-2.77,0.39-3.73,1.16c-0.97,0.77-1.45,2.09-1.45,3.95V15.63z M105.94,19.54c0,0.34-0.1,0.6-0.31,0.78
		c-0.21,0.18-0.45,0.27-0.74,0.27H99.7v14.46c0,0.36-0.11,0.63-0.34,0.82c-0.23,0.18-0.51,0.27-0.85,0.27
		c-0.34,0-0.62-0.09-0.83-0.27c-0.22-0.18-0.33-0.45-0.33-0.82V6.1c0-0.36,0.11-0.63,0.33-0.82c0.22-0.18,0.49-0.27,0.83-0.27
		c0.34,0,0.62,0.09,0.85,0.27c0.23,0.18,0.34,0.45,0.34,0.82v12.39h5.18c0.29,0,0.54,0.09,0.74,0.27
		C105.83,18.95,105.94,19.21,105.94,19.54z"/>
	<path class="st0" d="M138.54,17.77c0,0.34-0.1,0.6-0.31,0.78c-0.21,0.18-0.45,0.27-0.74,0.27h-28.99c-0.29,0-0.54-0.09-0.74-0.27
		c-0.21-0.18-0.31-0.44-0.31-0.78s0.1-0.6,0.31-0.78c0.21-0.18,0.45-0.27,0.74-0.27h28.99c0.29,0,0.54,0.09,0.74,0.27
		S138.54,17.43,138.54,17.77z M110.21,6.5c0-0.34,0.1-0.6,0.31-0.78c0.21-0.18,0.45-0.27,0.74-0.27h21.7c0.58,0,1.04,0.08,1.4,0.25
		c0.35,0.17,0.62,0.39,0.8,0.65s0.3,0.57,0.34,0.91c0.05,0.34,0.07,0.68,0.07,1.01V9.4c0,0.22-0.01,0.5-0.02,0.83
		c-0.01,0.34-0.03,0.69-0.05,1.07c-0.03,0.38-0.05,0.74-0.09,1.11s-0.09,0.66-0.16,0.91c-0.12,0.46-0.29,0.76-0.51,0.91
		c-0.22,0.14-0.52,0.19-0.91,0.14c-0.8-0.14-1.1-0.63-0.91-1.45c0.12-0.48,0.2-1.01,0.23-1.58c0.04-0.57,0.05-1.13,0.05-1.68V8.28
		c0-0.29-0.05-0.48-0.16-0.58c-0.11-0.1-0.26-0.14-0.45-0.14h-21.34c-0.29,0-0.54-0.09-0.74-0.27C110.31,7.1,110.21,6.84,110.21,6.5
		z M112.64,32.88c0,0.29,0.05,0.48,0.16,0.58c0.11,0.1,0.26,0.14,0.45,0.14h21.85c0.29,0,0.54,0.09,0.74,0.27
		c0.21,0.18,0.31,0.44,0.31,0.78c0,0.34-0.1,0.6-0.31,0.78c-0.21,0.18-0.45,0.27-0.74,0.27h-22.21c-0.58,0-1.05-0.04-1.4-0.13
		c-0.35-0.08-0.62-0.22-0.8-0.4c-0.18-0.18-0.3-0.41-0.34-0.67c-0.05-0.27-0.07-0.57-0.07-0.91v-3.44c0-0.7,0.16-1.23,0.49-1.58
		c0.33-0.35,0.88-0.53,1.65-0.53h20.4c0.19,0,0.34-0.05,0.45-0.14c0.11-0.1,0.16-0.29,0.16-0.58v-1.81c0-0.29-0.05-0.48-0.16-0.58
		c-0.11-0.1-0.26-0.15-0.45-0.15h-21.49c-0.29,0-0.54-0.09-0.74-0.27c-0.21-0.18-0.31-0.44-0.31-0.78c0-0.34,0.1-0.6,0.31-0.78
		c0.2-0.18,0.45-0.27,0.74-0.27h22.35c0.85,0,1.41,0.2,1.69,0.6c0.28,0.4,0.42,0.95,0.42,1.65v2.75c0,0.34-0.01,0.66-0.02,0.96
		c-0.01,0.3-0.08,0.56-0.22,0.78c-0.13,0.22-0.36,0.39-0.67,0.53c-0.31,0.13-0.76,0.2-1.34,0.2h-20.29c-0.19,0-0.34,0.05-0.45,0.15
		s-0.16,0.29-0.16,0.58V32.88z"/>
	<path class="st0" d="M7.93,62.64c0,0.29,0.05,0.48,0.16,0.58s0.26,0.14,0.45,0.14h7.65c0.29,0,0.54,0.09,0.74,0.27
		c0.21,0.18,0.31,0.44,0.31,0.78c0,0.34-0.1,0.6-0.31,0.78c-0.21,0.18-0.45,0.27-0.74,0.27H8.18c-0.58,0-1.04-0.08-1.39-0.25
		c-0.35-0.17-0.62-0.39-0.8-0.65c-0.18-0.26-0.3-0.57-0.34-0.91c-0.05-0.34-0.07-0.68-0.07-1.01v-10c0-0.34,0.02-0.68,0.07-1.01
		c0.05-0.34,0.16-0.64,0.34-0.91s0.45-0.48,0.8-0.65c0.35-0.17,0.81-0.25,1.39-0.25h6.85c0.29,0,0.54,0.09,0.74,0.27
		c0.21,0.18,0.31,0.44,0.31,0.78c0,0.34-0.1,0.6-0.31,0.78c-0.21,0.18-0.45,0.27-0.74,0.27H8.54c-0.19,0-0.34,0.05-0.45,0.14
		c-0.11,0.1-0.16,0.29-0.16,0.58V62.64z M32.89,77.31c0.72,0.22,1.04,0.64,0.94,1.27c-0.02,0.34-0.16,0.6-0.4,0.8
		c-0.24,0.19-0.58,0.27-1.01,0.22c-1.59-0.22-3.03-0.48-4.31-0.8c-1.28-0.31-2.43-0.69-3.44-1.14c-1.01-0.45-1.92-0.96-2.72-1.54
		c-0.8-0.58-1.53-1.26-2.21-2.03c-0.65,0.85-1.38,1.58-2.19,2.19c-0.81,0.62-1.72,1.14-2.74,1.58c-1.01,0.43-2.16,0.8-3.44,1.09
		s-2.72,0.51-4.31,0.65c-0.43,0.05-0.77-0.03-1-0.24c-0.23-0.21-0.36-0.46-0.38-0.78c-0.07-0.68,0.25-1.09,0.98-1.23
		c1.57-0.14,3.07-0.39,4.51-0.72c1.44-0.34,2.71-0.8,3.8-1.38c1.1-0.58,1.98-1.3,2.63-2.16c0.65-0.86,0.98-1.87,0.98-3.03v-0.98
		c0-0.36,0.11-0.63,0.33-0.82C19.12,68.09,19.4,68,19.74,68c0.34,0,0.62,0.09,0.85,0.27c0.23,0.18,0.34,0.45,0.34,0.82v0.98
		c0,1.16,0.33,2.16,0.98,2.99c0.65,0.83,1.53,1.53,2.65,2.1c1.11,0.57,2.39,1.02,3.82,1.36C29.82,76.85,31.32,77.12,32.89,77.31z
		 M22.86,50.1c0-0.36,0.11-0.63,0.33-0.82c0.22-0.18,0.5-0.27,0.83-0.27c0.34,0,0.62,0.09,0.85,0.27c0.23,0.18,0.34,0.45,0.34,0.82
		v6.67h5.51V50.1c0-0.36,0.11-0.63,0.33-0.82c0.22-0.18,0.5-0.27,0.83-0.27c0.34,0,0.62,0.09,0.85,0.27
		c0.23,0.18,0.34,0.45,0.34,0.82v16.34c0,0.36-0.12,0.63-0.34,0.82c-0.23,0.18-0.51,0.27-0.85,0.27c-0.34,0-0.62-0.09-0.83-0.27
		c-0.22-0.18-0.33-0.45-0.33-0.82v-7.57h-5.51v6.41c0,0.36-0.12,0.63-0.34,0.81c-0.23,0.18-0.51,0.27-0.85,0.27
		c-0.34,0-0.62-0.09-0.83-0.27c-0.22-0.18-0.33-0.45-0.33-0.81V50.1z"/>
	<path class="st0" d="M69.7,61.77c0,0.34-0.1,0.6-0.31,0.78c-0.21,0.18-0.45,0.27-0.74,0.27H39.67c-0.29,0-0.54-0.09-0.74-0.27
		c-0.21-0.18-0.31-0.44-0.31-0.78s0.1-0.6,0.31-0.78c0.21-0.18,0.45-0.27,0.74-0.27h28.99c0.29,0,0.54,0.09,0.74,0.27
		S69.7,61.43,69.7,61.77z M41.37,50.5c0-0.34,0.1-0.6,0.31-0.78c0.21-0.18,0.45-0.27,0.74-0.27h21.7c0.58,0,1.04,0.08,1.4,0.25
		c0.35,0.17,0.62,0.39,0.8,0.65s0.3,0.57,0.34,0.91c0.05,0.34,0.07,0.68,0.07,1.01v1.12c0,0.22-0.01,0.5-0.02,0.83
		c-0.01,0.34-0.03,0.69-0.05,1.07c-0.02,0.38-0.05,0.74-0.09,1.11c-0.04,0.36-0.09,0.66-0.16,0.91c-0.12,0.46-0.29,0.76-0.51,0.91
		c-0.22,0.14-0.52,0.19-0.91,0.14c-0.8-0.14-1.1-0.63-0.91-1.45c0.12-0.48,0.2-1.01,0.24-1.58c0.04-0.57,0.05-1.13,0.05-1.68v-1.38
		c0-0.29-0.05-0.48-0.16-0.58c-0.11-0.1-0.26-0.14-0.45-0.14H42.42c-0.29,0-0.54-0.09-0.74-0.27C41.47,51.1,41.37,50.84,41.37,50.5z
		 M43.8,76.88c0,0.29,0.05,0.48,0.16,0.58c0.11,0.1,0.26,0.14,0.45,0.14h21.85c0.29,0,0.54,0.09,0.74,0.27
		c0.21,0.18,0.31,0.44,0.31,0.78c0,0.34-0.1,0.6-0.31,0.78c-0.21,0.18-0.45,0.27-0.74,0.27H44.05c-0.58,0-1.05-0.04-1.4-0.13
		c-0.35-0.08-0.62-0.22-0.8-0.4c-0.18-0.18-0.3-0.41-0.34-0.67c-0.05-0.27-0.07-0.57-0.07-0.91v-3.44c0-0.7,0.16-1.23,0.49-1.58
		c0.33-0.35,0.88-0.53,1.65-0.53h20.4c0.19,0,0.34-0.05,0.45-0.14c0.11-0.1,0.16-0.29,0.16-0.58v-1.81c0-0.29-0.05-0.48-0.16-0.58
		c-0.11-0.1-0.26-0.15-0.45-0.15H42.49c-0.29,0-0.54-0.09-0.74-0.27c-0.21-0.18-0.31-0.44-0.31-0.78c0-0.34,0.1-0.6,0.31-0.78
		c0.2-0.18,0.45-0.27,0.74-0.27h22.35c0.85,0,1.41,0.2,1.68,0.6s0.42,0.95,0.42,1.65v2.75c0,0.34-0.01,0.66-0.02,0.96
		c-0.01,0.3-0.08,0.56-0.22,0.78c-0.13,0.22-0.36,0.39-0.67,0.53c-0.31,0.13-0.76,0.2-1.34,0.2H44.42c-0.19,0-0.34,0.05-0.45,0.15
		s-0.16,0.29-0.16,0.58V76.88z"/>
	<path class="st0" d="M89.92,50.86c0,0.34-0.1,0.6-0.31,0.78c-0.21,0.18-0.45,0.27-0.74,0.27h-6.12v2.21c0,1.26,0.15,2.37,0.45,3.33
		c0.3,0.97,0.75,1.82,1.34,2.57c0.59,0.75,1.33,1.41,2.23,1.99c0.89,0.58,1.92,1.11,3.08,1.59c0.75,0.31,1.03,0.82,0.83,1.52
		c-0.1,0.34-0.29,0.58-0.58,0.72c-0.29,0.15-0.65,0.15-1.09,0c-0.8-0.24-1.58-0.6-2.34-1.07c-0.76-0.47-1.46-0.99-2.1-1.56
		c-0.64-0.57-1.21-1.17-1.7-1.79s-0.88-1.22-1.14-1.78c-0.29,0.63-0.69,1.27-1.2,1.92s-1.09,1.27-1.74,1.87
		c-0.65,0.59-1.37,1.13-2.16,1.61c-0.79,0.48-1.61,0.87-2.48,1.16c-0.43,0.15-0.8,0.15-1.09,0c-0.29-0.14-0.48-0.39-0.58-0.72
		c-0.1-0.34-0.07-0.65,0.09-0.92c0.16-0.28,0.4-0.48,0.74-0.6c1.13-0.43,2.14-0.94,3.03-1.52c0.88-0.58,1.62-1.25,2.21-2.01
		c0.59-0.76,1.04-1.63,1.36-2.61c0.31-0.98,0.47-2.09,0.47-3.35v-2.57h-6.12c-0.29,0-0.54-0.09-0.74-0.27
		c-0.21-0.18-0.31-0.44-0.31-0.78c0-0.34,0.1-0.6,0.31-0.78c0.21-0.18,0.45-0.27,0.74-0.27h14.6c0.29,0,0.54,0.09,0.74,0.27
		C89.82,50.27,89.92,50.53,89.92,50.86z M77.13,76.7c0,0.29,0.05,0.48,0.16,0.58s0.26,0.15,0.45,0.15h22.35
		c0.29,0,0.54,0.09,0.74,0.27c0.21,0.18,0.31,0.44,0.31,0.78c0,0.34-0.1,0.6-0.31,0.78c-0.21,0.18-0.45,0.27-0.74,0.27H77.39
		c-0.58,0-1.04-0.08-1.39-0.25c-0.35-0.17-0.62-0.39-0.8-0.65c-0.18-0.27-0.3-0.57-0.34-0.91s-0.07-0.68-0.07-1.01v-5.51
		c0-0.36,0.11-0.63,0.33-0.82c0.22-0.18,0.49-0.27,0.83-0.27s0.62,0.09,0.85,0.27c0.23,0.18,0.34,0.45,0.34,0.82V76.7z
		 M105.94,58.91c0,0.34-0.1,0.6-0.31,0.78c-0.21,0.18-0.45,0.27-0.74,0.27h-4.82v8.48c0,0.36-0.11,0.63-0.34,0.82
		c-0.23,0.18-0.51,0.27-0.85,0.27c-0.34,0-0.62-0.09-0.83-0.27c-0.22-0.18-0.33-0.45-0.33-0.82V50.1c0-0.36,0.11-0.63,0.33-0.82
		c0.22-0.18,0.49-0.27,0.83-0.27c0.34,0,0.62,0.09,0.85,0.27c0.23,0.18,0.34,0.45,0.34,0.82v7.75h4.82c0.29,0,0.54,0.09,0.74,0.27
		C105.83,58.31,105.94,58.57,105.94,58.91z"/>
	<path class="st0" d="M124.38,56.3c0,0.34-0.1,0.6-0.31,0.78c-0.21,0.18-0.45,0.27-0.74,0.27h-6.45v8.19
		c0.02,1.21,0.24,2.34,0.65,3.39c0.41,1.05,0.95,2.05,1.63,3.01c0.68,0.95,1.46,1.87,2.35,2.75c0.89,0.88,1.85,1.73,2.86,2.55
		c0.29,0.24,0.45,0.52,0.47,0.83c0.02,0.31-0.06,0.6-0.25,0.87c-0.19,0.27-0.48,0.41-0.85,0.43c-0.37,0.02-0.73-0.11-1.07-0.4
		c-1.52-1.28-2.88-2.65-4.08-4.09c-1.2-1.45-2.14-2.93-2.84-4.46c-0.63,1.52-1.52,3.04-2.66,4.55c-1.15,1.51-2.49,2.92-4.04,4.22
		c-0.34,0.31-0.69,0.45-1.07,0.4c-0.37-0.05-0.66-0.21-0.85-0.47s-0.26-0.56-0.2-0.87c0.06-0.31,0.22-0.6,0.49-0.87
		c0.97-0.82,1.88-1.68,2.74-2.59c0.86-0.91,1.61-1.87,2.26-2.88s1.17-2.08,1.54-3.21c0.37-1.12,0.56-2.31,0.56-3.57v-7.79h-6.45
		c-0.29,0-0.54-0.09-0.74-0.27c-0.21-0.18-0.31-0.44-0.31-0.78c0-0.34,0.1-0.6,0.31-0.78c0.21-0.18,0.45-0.27,0.74-0.27h15.25
		c0.29,0,0.54,0.09,0.74,0.27C124.28,55.7,124.38,55.96,124.38,56.3z M122.1,50.32c0,0.34-0.1,0.6-0.31,0.78
		c-0.21,0.18-0.45,0.27-0.74,0.27h-10.69c-0.29,0-0.54-0.09-0.74-0.27c-0.21-0.18-0.31-0.44-0.31-0.78s0.1-0.6,0.31-0.78
		c0.21-0.18,0.45-0.27,0.74-0.27h10.69c0.29,0,0.54,0.09,0.74,0.27C121.99,49.72,122.1,49.98,122.1,50.32z M133.29,50.1
		c0-0.36,0.11-0.63,0.33-0.82c0.22-0.18,0.5-0.27,0.83-0.27c0.34,0,0.62,0.09,0.85,0.27c0.23,0.18,0.34,0.45,0.34,0.82v28.95
		c0,0.36-0.12,0.63-0.34,0.82c-0.23,0.18-0.51,0.27-0.85,0.27c-0.34,0-0.62-0.09-0.83-0.27c-0.22-0.18-0.33-0.45-0.33-0.82V50.1z"/>
	<path class="st0" d="M4.74,98.85c0-1.76,0.68-3.16,2.03-4.18c1.35-1.03,3.19-1.54,5.51-1.54s4.17,0.51,5.54,1.54
		c1.38,1.03,2.07,2.42,2.07,4.18v2.61c0,1.76-0.69,3.16-2.07,4.18c-1.38,1.03-3.22,1.54-5.54,1.54s-4.15-0.51-5.51-1.54
		c-1.35-1.03-2.03-2.42-2.03-4.18V98.85z M8.69,120.7c0,0.29,0.05,0.48,0.16,0.58c0.11,0.1,0.26,0.15,0.45,0.15h23.15
		c0.29,0,0.54,0.09,0.74,0.27c0.2,0.18,0.31,0.44,0.31,0.78c0,0.34-0.1,0.6-0.31,0.78c-0.21,0.18-0.45,0.27-0.74,0.27H8.94
		c-0.58,0-1.05-0.05-1.4-0.16c-0.35-0.11-0.62-0.26-0.8-0.45c-0.18-0.19-0.3-0.43-0.34-0.71c-0.05-0.28-0.07-0.59-0.07-0.92v-2.83
		c0-0.34,0.02-0.66,0.07-0.96c0.05-0.3,0.16-0.56,0.34-0.78c0.18-0.22,0.45-0.39,0.8-0.53c0.35-0.13,0.81-0.2,1.4-0.2h20.51
		c0.19,0,0.34-0.05,0.45-0.14s0.16-0.29,0.16-0.58v-1.7c0-0.29-0.05-0.48-0.16-0.58s-0.26-0.15-0.45-0.15H7.39
		c-0.29,0-0.54-0.09-0.74-0.27c-0.21-0.18-0.31-0.44-0.31-0.78c0-0.34,0.1-0.6,0.31-0.78c0.21-0.18,0.45-0.27,0.74-0.27h22.43
		c0.58,0,1.04,0.05,1.39,0.16c0.35,0.11,0.62,0.27,0.8,0.47s0.3,0.45,0.34,0.72c0.05,0.28,0.07,0.59,0.07,0.92v2.83
		c0,0.34-0.02,0.65-0.07,0.92c-0.05,0.28-0.16,0.51-0.34,0.71c-0.18,0.19-0.45,0.34-0.8,0.45c-0.35,0.11-0.81,0.16-1.39,0.16H9.31
		c-0.19,0-0.34,0.05-0.45,0.15c-0.11,0.1-0.16,0.29-0.16,0.58V120.7z M7.1,100.44c0,0.94,0.13,1.71,0.38,2.3
		c0.25,0.59,0.61,1.06,1.07,1.41s1,0.59,1.63,0.72c0.63,0.13,1.33,0.2,2.1,0.2s1.48-0.07,2.12-0.2c0.64-0.13,1.2-0.37,1.67-0.72
		c0.47-0.35,0.83-0.82,1.09-1.41c0.25-0.59,0.38-1.36,0.38-2.3v-0.58c0-0.94-0.13-1.71-0.38-2.3c-0.25-0.59-0.62-1.06-1.09-1.41
		c-0.47-0.35-1.03-0.59-1.67-0.72c-0.64-0.13-1.35-0.2-2.12-0.2s-1.47,0.07-2.1,0.2C9.55,95.56,9,95.8,8.54,96.15
		c-0.46,0.35-0.81,0.82-1.07,1.41c-0.25,0.59-0.38,1.36-0.38,2.3V100.44z M23.26,97.15c0-0.34,0.1-0.6,0.31-0.78
		c0.2-0.18,0.45-0.27,0.74-0.27h5.65V94.1c0-0.36,0.11-0.63,0.33-0.82c0.22-0.18,0.5-0.27,0.83-0.27c0.34,0,0.62,0.09,0.85,0.27
		c0.23,0.18,0.34,0.45,0.34,0.82v12.54c0,0.36-0.12,0.63-0.34,0.82c-0.23,0.18-0.51,0.27-0.85,0.27c-0.34,0-0.62-0.09-0.83-0.27
		c-0.22-0.18-0.33-0.45-0.33-0.82v-2.1h-5.65c-0.29,0-0.54-0.09-0.74-0.27c-0.21-0.18-0.31-0.44-0.31-0.78c0-0.34,0.1-0.6,0.31-0.78
		c0.2-0.18,0.45-0.27,0.74-0.27h5.65V98.2h-5.65c-0.29,0-0.54-0.09-0.74-0.27C23.36,97.74,23.26,97.48,23.26,97.15z"/>
	<path class="st0" d="M42.64,120.7c0,0.29,0.05,0.48,0.16,0.58c0.11,0.1,0.26,0.15,0.45,0.15h9.93c0.29,0,0.54,0.09,0.74,0.27
		c0.21,0.18,0.31,0.44,0.31,0.78c0,0.34-0.1,0.6-0.31,0.78c-0.21,0.18-0.45,0.27-0.74,0.27H42.89c-0.58,0-1.04-0.08-1.4-0.25
		c-0.35-0.17-0.62-0.39-0.8-0.65c-0.18-0.27-0.3-0.57-0.34-0.91c-0.05-0.34-0.07-0.68-0.07-1.01v-10.83c0-0.34,0.02-0.68,0.07-1.01
		c0.05-0.34,0.16-0.64,0.34-0.91s0.45-0.48,0.8-0.65s0.82-0.25,1.4-0.25h7.65c0.19,0,0.34-0.05,0.45-0.14
		c0.11-0.1,0.16-0.29,0.16-0.58V96.28c0-0.29-0.05-0.48-0.16-0.58c-0.11-0.1-0.26-0.14-0.45-0.14h-9.2c-0.29,0-0.54-0.09-0.74-0.27
		c-0.21-0.18-0.31-0.44-0.31-0.78c0-0.34,0.1-0.6,0.31-0.78c0.21-0.18,0.45-0.27,0.74-0.27h9.57c0.58,0,1.04,0.08,1.4,0.25
		c0.35,0.17,0.62,0.39,0.8,0.65s0.3,0.57,0.34,0.91c0.05,0.34,0.07,0.68,0.07,1.01v10.04c0,0.34-0.02,0.68-0.07,1.01
		c-0.05,0.34-0.16,0.64-0.34,0.91s-0.45,0.48-0.8,0.65c-0.35,0.17-0.82,0.25-1.4,0.25h-7.65c-0.19,0-0.34,0.05-0.45,0.15
		c-0.11,0.1-0.16,0.29-0.16,0.58V120.7z M64.38,94.1c0-0.36,0.11-0.63,0.33-0.82c0.22-0.18,0.5-0.27,0.83-0.27
		c0.34,0,0.62,0.09,0.85,0.27c0.23,0.18,0.34,0.45,0.34,0.82v28.95c0,0.36-0.12,0.63-0.34,0.82c-0.23,0.18-0.51,0.27-0.85,0.27
		c-0.34,0-0.62-0.09-0.83-0.27c-0.22-0.18-0.33-0.45-0.33-0.82V94.1z"/>
	<path class="st0" d="M104.12,109.68c0,0.34-0.1,0.6-0.31,0.78c-0.21,0.18-0.45,0.27-0.74,0.27H74.09c-0.29,0-0.54-0.09-0.74-0.27
		c-0.21-0.18-0.31-0.44-0.31-0.78s0.1-0.6,0.31-0.78c0.21-0.18,0.45-0.27,0.74-0.27h28.99c0.29,0,0.54,0.09,0.74,0.27
		C104.02,109.08,104.12,109.34,104.12,109.68z M78.18,100.91c0,0.29,0.05,0.48,0.16,0.58c0.11,0.1,0.26,0.14,0.45,0.14h21.92
		c0.29,0,0.54,0.09,0.74,0.27c0.21,0.18,0.31,0.44,0.31,0.78c0,0.34-0.1,0.6-0.31,0.78c-0.21,0.18-0.45,0.27-0.74,0.27H78.44
		c-0.58,0-1.04-0.08-1.39-0.25c-0.35-0.17-0.62-0.39-0.8-0.65c-0.18-0.26-0.3-0.57-0.34-0.91c-0.05-0.34-0.07-0.68-0.07-1.01v-6.49
		c0-0.36,0.11-0.63,0.33-0.82c0.22-0.18,0.49-0.27,0.83-0.27c0.34,0,0.62,0.09,0.85,0.27c0.23,0.18,0.34,0.45,0.34,0.82V100.91z
		 M78.18,120.7c0,0.29,0.05,0.48,0.16,0.58c0.11,0.1,0.26,0.15,0.45,0.15h22.39c0.29,0,0.54,0.09,0.74,0.27
		c0.21,0.18,0.31,0.44,0.31,0.78c0,0.34-0.1,0.6-0.31,0.78c-0.21,0.18-0.45,0.27-0.74,0.27H78.44c-0.58,0-1.04-0.08-1.39-0.25
		c-0.35-0.17-0.62-0.39-0.8-0.65c-0.18-0.27-0.3-0.57-0.34-0.91c-0.05-0.34-0.07-0.68-0.07-1.01v-5.07c0-0.36,0.11-0.63,0.33-0.82
		c0.22-0.18,0.49-0.27,0.83-0.27c0.34,0,0.62,0.09,0.85,0.27c0.23,0.18,0.34,0.45,0.34,0.82V120.7z"/>
	<path class="st0" d="M149.2,107.73c0,0.34-0.1,0.6-0.31,0.78c-0.21,0.18-0.45,0.27-0.74,0.27h-13.3v2.93
		c0,0.36-0.12,0.63-0.34,0.82c-0.23,0.18-0.51,0.27-0.85,0.27c-0.34,0-0.62-0.09-0.83-0.27c-0.22-0.18-0.33-0.45-0.33-0.82v-2.93
		h-13.33c-0.29,0-0.54-0.09-0.74-0.27c-0.21-0.18-0.31-0.44-0.31-0.78c0-0.34,0.1-0.6,0.31-0.78c0.21-0.18,0.45-0.27,0.74-0.27
		h28.99c0.29,0,0.54,0.09,0.74,0.27C149.09,107.13,149.2,107.39,149.2,107.73z M146.3,101.31c0.72,0.22,1.04,0.64,0.94,1.27
		c-0.02,0.34-0.16,0.6-0.4,0.8c-0.24,0.19-0.58,0.27-1.01,0.22c-1.59-0.22-3-0.45-4.22-0.71s-2.31-0.56-3.26-0.92
		c-0.96-0.36-1.81-0.82-2.55-1.36c-0.75-0.54-1.46-1.24-2.14-2.08c-0.65,0.85-1.35,1.55-2.1,2.12s-1.61,1.04-2.57,1.43
		c-0.97,0.39-2.06,0.7-3.28,0.94c-1.22,0.24-2.63,0.43-4.22,0.58c-0.43,0.05-0.77-0.03-1-0.24c-0.23-0.2-0.36-0.46-0.38-0.78
		c-0.07-0.68,0.25-1.09,0.98-1.23c1.45-0.12,2.82-0.31,4.11-0.56c1.29-0.25,2.44-0.61,3.44-1.07s1.83-1.03,2.48-1.7
		c0.65-0.68,1.07-1.5,1.27-2.46h-9.96c-0.29,0-0.54-0.09-0.74-0.27c-0.21-0.18-0.31-0.44-0.31-0.78c0-0.34,0.1-0.6,0.31-0.78
		c0.21-0.18,0.45-0.27,0.74-0.27h22.46c0.29,0,0.54,0.09,0.74,0.27c0.21,0.18,0.31,0.44,0.31,0.78c0,0.34-0.1,0.6-0.31,0.78
		c-0.21,0.18-0.45,0.27-0.74,0.27h-9.93c0.17,0.97,0.59,1.78,1.25,2.43s1.5,1.2,2.52,1.63c1.01,0.44,2.17,0.79,3.46,1.05
		C143.48,100.93,144.85,101.14,146.3,101.31z M146.99,118.85c0,1.81-0.57,3.04-1.72,3.7c-1.15,0.65-2.9,0.98-5.27,0.98h-12.61
		c-2.37,0-4.12-0.33-5.27-0.98c-1.15-0.65-1.72-1.88-1.72-3.7s0.57-3.04,1.72-3.7c1.15-0.65,2.9-0.98,5.27-0.98h12.61
		c2.37,0,4.12,0.33,5.27,0.98C146.41,115.81,146.99,117.04,146.99,118.85z M144.63,118.85c0-0.58-0.09-1.04-0.27-1.38
		c-0.18-0.34-0.47-0.6-0.87-0.78c-0.4-0.18-0.93-0.3-1.59-0.34c-0.67-0.05-1.47-0.07-2.41-0.07h-11.59c-0.94,0-1.75,0.02-2.41,0.07
		c-0.66,0.05-1.2,0.16-1.59,0.34c-0.4,0.18-0.69,0.44-0.87,0.78c-0.18,0.34-0.27,0.8-0.27,1.38c0,0.58,0.09,1.04,0.27,1.38
		c0.18,0.34,0.47,0.6,0.87,0.78c0.4,0.18,0.93,0.29,1.59,0.34c0.66,0.05,1.47,0.07,2.41,0.07h11.59c0.94,0,1.75-0.02,2.41-0.07
		c0.66-0.05,1.2-0.16,1.59-0.34c0.4-0.18,0.69-0.44,0.87-0.78C144.54,119.89,144.63,119.43,144.63,118.85z"/>
	<path class="st0" d="M164.09,119.25c0-0.7,0.24-1.29,0.71-1.76c0.47-0.47,1.06-0.71,1.76-0.71c0.7,0,1.29,0.24,1.78,0.71
		c0.48,0.47,0.72,1.06,0.72,1.76c0,0.7-0.24,1.28-0.72,1.74c-0.48,0.46-1.07,0.69-1.78,0.69c-0.7,0-1.29-0.23-1.76-0.69
		C164.32,120.53,164.09,119.95,164.09,119.25z"/>
	<path class="st0" d="M184.88,119.25c0-0.7,0.24-1.29,0.71-1.76c0.47-0.47,1.06-0.71,1.76-0.71c0.7,0,1.29,0.24,1.78,0.71
		c0.48,0.47,0.72,1.06,0.72,1.76c0,0.7-0.24,1.28-0.72,1.74c-0.48,0.46-1.07,0.69-1.78,0.69c-0.7,0-1.29-0.23-1.76-0.69
		C185.12,120.53,184.88,119.95,184.88,119.25z"/>
	<path class="st0" d="M205.68,119.25c0-0.7,0.24-1.29,0.71-1.76c0.47-0.47,1.06-0.71,1.76-0.71c0.7,0,1.29,0.24,1.78,0.71
		c0.48,0.47,0.72,1.06,0.72,1.76c0,0.7-0.24,1.28-0.72,1.74c-0.48,0.46-1.08,0.69-1.78,0.69c-0.7,0-1.29-0.23-1.76-0.69
		C205.92,120.53,205.68,119.95,205.68,119.25z"/>
</g>
</svg>
