<?xml version="1.0" encoding="utf-8"?>
<!-- Generator: Adobe Illustrator 27.0.0, SVG Export Plug-In . SVG Version: 6.00 Build 0)  -->
<svg version="1.1" id="레이어_1" xmlns="http://www.w3.org/2000/svg" xmlns:xlink="http://www.w3.org/1999/xlink" x="0px"
	 y="0px" viewBox="0 0 1400 450" style="enable-background:new 0 0 1400 450;" xml:space="preserve">
<style type="text/css">
	.st0{fill:#FFFFFF;}
</style>
<g>
	<path class="st0" d="M1245.95,446.78c3.91-3.9,6.12-6.23,6.12-8.36c0-1.47-0.8-2.53-2.46-2.53c-1.09,0-2.04,0.69-2.77,1.55
		l-0.96-0.93c1.09-1.18,2.24-1.97,3.93-1.97c2.38,0,3.88,1.51,3.88,3.8c0,2.44-2.22,4.86-5.3,8.1c0.69-0.05,1.49-0.13,2.19-0.13
		h3.77v1.44h-8.39V446.78z"/>
	<path class="st0" d="M1256.15,441.23c0-4.35,1.58-6.68,4.17-6.68c2.58,0,4.15,2.35,4.15,6.68c0,4.35-1.57,6.77-4.15,6.77
		C1257.73,448,1256.15,445.58,1256.15,441.23z M1262.85,441.23c0-3.8-1.02-5.35-2.53-5.35c-1.53,0-2.55,1.55-2.55,5.35
		s1.02,5.44,2.55,5.44C1261.83,446.67,1262.85,445.03,1262.85,441.23z"/>
	<path class="st0" d="M1266.16,446.78c3.91-3.9,6.12-6.23,6.12-8.36c0-1.47-0.8-2.53-2.46-2.53c-1.09,0-2.04,0.69-2.77,1.55
		l-0.96-0.93c1.09-1.18,2.24-1.97,3.93-1.97c2.38,0,3.88,1.51,3.88,3.8c0,2.44-2.22,4.86-5.3,8.1c0.69-0.05,1.49-0.13,2.19-0.13
		h3.77v1.44h-8.39V446.78z"/>
	<path class="st0" d="M1276.27,446.78c3.91-3.9,6.12-6.23,6.12-8.36c0-1.47-0.8-2.53-2.46-2.53c-1.09,0-2.04,0.69-2.77,1.55
		l-0.96-0.93c1.09-1.18,2.24-1.97,3.93-1.97c2.38,0,3.88,1.51,3.88,3.8c0,2.44-2.22,4.86-5.3,8.1c0.69-0.05,1.49-0.13,2.18-0.13
		h3.77v1.44h-8.39V446.78z"/>
	<path class="st0" d="M1286.9,446.74c0-0.76,0.54-1.29,1.2-1.29c0.65,0,1.2,0.53,1.2,1.29c0,0.75-0.55,1.26-1.2,1.26
		C1287.45,448,1286.9,447.49,1286.9,446.74z"/>
	<path class="st0" d="M1295.61,441.23c0-4.35,1.58-6.68,4.17-6.68c2.58,0,4.15,2.35,4.15,6.68c0,4.35-1.57,6.77-4.15,6.77
		C1297.19,448,1295.61,445.58,1295.61,441.23z M1302.31,441.23c0-3.8-1.02-5.35-2.53-5.35c-1.53,0-2.55,1.55-2.55,5.35
		s1.02,5.44,2.55,5.44C1301.29,446.67,1302.31,445.03,1302.31,441.23z"/>
	<path class="st0" d="M1305.81,441.77c0-5.22,2.35-7.23,4.95-7.23c1.38,0,2.38,0.58,3.11,1.37l-0.93,1.04
		c-0.53-0.64-1.33-1.02-2.13-1.02c-1.84,0-3.37,1.4-3.44,5.53c0.84-1,1.98-1.62,3.04-1.62c2.24,0,3.7,1.35,3.7,3.99
		c0,2.49-1.75,4.17-3.82,4.17C1307.72,448,1305.81,445.92,1305.81,441.77z M1307.41,442.81c0.22,2.53,1.22,3.9,2.86,3.9
		c1.29,0,2.28-1.15,2.28-2.88c0-1.67-0.8-2.75-2.4-2.75C1309.3,441.08,1308.28,441.54,1307.41,442.81z"/>
	<path class="st0" d="M1319.85,442.03h4.66v1.27h-4.66V442.03z"/>
	<path class="st0" d="M1330.21,446.78c3.91-3.9,6.12-6.23,6.12-8.36c0-1.47-0.8-2.53-2.46-2.53c-1.09,0-2.04,0.69-2.77,1.55
		l-0.96-0.93c1.09-1.18,2.24-1.97,3.93-1.97c2.38,0,3.88,1.51,3.88,3.8c0,2.44-2.22,4.86-5.3,8.1c0.69-0.05,1.49-0.13,2.19-0.13
		h3.77v1.44h-8.39V446.78z"/>
	<path class="st0" d="M1340.4,441.23c0-4.35,1.58-6.68,4.17-6.68c2.58,0,4.15,2.35,4.15,6.68c0,4.35-1.57,6.77-4.15,6.77
		C1341.99,448,1340.4,445.58,1340.4,441.23z M1347.1,441.23c0-3.8-1.02-5.35-2.53-5.35c-1.53,0-2.55,1.55-2.55,5.35
		s1.02,5.44,2.55,5.44C1346.08,446.67,1347.1,445.03,1347.1,441.23z"/>
	<path class="st0" d="M1350.42,446.78c3.91-3.9,6.12-6.23,6.12-8.36c0-1.47-0.8-2.53-2.46-2.53c-1.09,0-2.04,0.69-2.77,1.55
		l-0.96-0.93c1.09-1.18,2.24-1.97,3.93-1.97c2.38,0,3.88,1.51,3.88,3.8c0,2.44-2.22,4.86-5.3,8.1c0.69-0.05,1.49-0.13,2.19-0.13
		h3.77v1.44h-8.39V446.78z"/>
	<path class="st0" d="M1360.53,446.78c3.91-3.9,6.12-6.23,6.12-8.36c0-1.47-0.8-2.53-2.46-2.53c-1.09,0-2.04,0.69-2.77,1.55
		l-0.96-0.93c1.09-1.18,2.24-1.97,3.93-1.97c2.38,0,3.88,1.51,3.88,3.8c0,2.44-2.22,4.86-5.3,8.1c0.69-0.05,1.49-0.13,2.18-0.13
		h3.77v1.44h-8.39V446.78z"/>
	<path class="st0" d="M1371.16,446.74c0-0.76,0.54-1.29,1.2-1.29c0.65,0,1.2,0.53,1.2,1.29c0,0.75-0.55,1.26-1.2,1.26
		C1371.71,448,1371.16,447.49,1371.16,446.74z"/>
	<path class="st0" d="M1380.58,446.38h2.97v-9.58h-2.37v-1.07c1.18-0.2,2.04-0.51,2.77-0.95h1.28v11.6h2.68v1.38h-7.32V446.38z"/>
	<path class="st0" d="M1390.68,446.38h2.97v-9.58h-2.37v-1.07c1.18-0.2,2.04-0.51,2.77-0.95h1.27v11.6h2.68v1.38h-7.32V446.38z"/>
</g>
<g>
	<path class="st0" d="M7.76,326.77c0,2.62,1.22,5.39,3.37,6.7l-0.86,1.17c-1.55-0.95-2.64-2.68-3.22-4.66
		c-0.58,2.17-1.77,4-3.39,5.01l-0.93-1.11c2.24-1.31,3.59-4.24,3.59-7.04v-3.11h1.44V326.77z M12.05,322.53h1.4v15.16h-1.4v-8.43
		H9.36v-1.24h2.69V322.53z M16.79,322.16v16.33h-1.42v-16.33H16.79z"/>
	<path class="st0" d="M28.84,322.6h1.42v15.05h-1.42v-5.64h-2.95v-1.22h2.95v-2.88h-2.69c-0.76,2.75-2.53,5.21-5.62,7.04l-0.87-1.06
		c3.51-2.09,5.26-5.02,5.52-8.45h-4.79v-1.22h6.26c0,0.84-0.07,1.66-0.22,2.48h2.42V322.6z M33.54,322.16v16.31h-1.42v-16.31H33.54z
		"/>
	<path class="st0" d="M46.65,331.21c-3.39,0.56-7.3,0.66-10.19,0.66l-0.15-1.22c1.04,0,2.22-0.02,3.46-0.04v-3.53h1.47v3.48
		c1.78-0.07,3.64-0.22,5.3-0.44L46.65,331.21z M43.52,328.97c0.38-1.88,0.44-3.28,0.44-4.31H37.3v-1.22h8.12v0.86
		c0,1.07,0,2.69-0.42,4.84L43.52,328.97z M40.3,336.91h9.36v1.22H38.81v-4.79h1.49V336.91z M51.46,327.48v1.24h-2.33v5.75h-1.49
		v-12.31h1.49v5.32H51.46z"/>
	<path class="st0" d="M67.94,329.21v1.2H53.16v-1.2H67.94z M54.81,325.27c0-1.84,2.15-2.84,5.73-2.84c3.59,0,5.73,1,5.73,2.84
		c0,1.84-2.15,2.82-5.73,2.82C56.96,328.1,54.81,327.11,54.81,325.27z M56.45,337.14h10.08v1.17H55v-3.91h9.58v-1.46h-9.63v-1.13
		h11.1v3.68h-9.59V337.14z M56.34,325.27c0,1.09,1.53,1.71,4.21,1.71c2.68,0,4.21-0.62,4.21-1.71c0-1.09-1.53-1.71-4.21-1.71
		C57.87,323.56,56.34,324.18,56.34,325.27z"/>
	<path class="st0" d="M82.58,332.97c0.86-0.05,1.69-0.13,2.49-0.24l0.11,1.11c-3.42,0.55-7.3,0.6-10.18,0.6l-0.18-1.26
		c0.67,0,1.4,0,2.17-0.02v-8.05h-1.75v-1.2h9.08v1.2h-1.75V332.97z M78.45,333.16c0.87-0.02,1.78-0.05,2.68-0.09v-7.94h-2.68V333.16
		z M90.28,329.93h-2.69v8.56H86.1v-16.31h1.49v6.52h2.69V329.93z"/>
	<path class="st0" d="M106.56,330.48v1.2h-14.8v-1.2H106.56z M95.15,336.87h9.81v1.22h-11.3v-4.77h1.49V336.87z M104.87,328.3h-11.1
		v-5.53h1.49v4.31h9.61V328.3z"/>
	<path class="st0" d="M128.43,330.52v1.2h-6.55v3.29h-1.49v-3.29h-6.79v-1.2H128.43z M116.98,336.91h9.79v1.22h-11.29v-4.66h1.49
		V336.91z M126.5,328.66h-10.98v-5.73h10.98V328.66z M125.03,324.13h-8.05v3.33h8.05V324.13z"/>
	<path class="st0" d="M138.61,330.72h-7.55v-7.52h1.47v2.46h4.62v-2.46h1.46V330.72z M143.24,335.45c0,1.93-2.06,3.04-5.37,3.04
		c-3.33,0-5.39-1.11-5.39-3.04c0-1.93,2.06-3.04,5.39-3.04C141.18,332.41,143.24,333.52,143.24,335.45z M137.16,326.82h-4.62v2.69
		h4.62V326.82z M141.75,335.45c0-1.17-1.47-1.84-3.88-1.84c-2.44,0-3.9,0.67-3.9,1.84s1.46,1.86,3.9,1.86
		C140.27,337.31,141.75,336.62,141.75,335.45z M145.48,326.28v1.24h-2.42v4.48h-1.49v-9.83h1.49v4.11H145.48z"/>
	<path class="st0" d="M161.92,331.46h-6.66v7.04h-1.51v-7.04h-6.59v-1.22h10.83c0.51-2.35,0.51-4.08,0.51-5.61v-0.22H149v-1.2h10.96
		v1.42c0,1.53,0,3.26-0.46,5.61h2.42V331.46z"/>
	<path class="st0" d="M163.89,339.62c1.15-0.51,1.82-1.4,1.82-2.48c-0.07,0.02-0.13,0.02-0.2,0.02c-0.64,0-1.22-0.4-1.22-1.17
		c0-0.71,0.58-1.17,1.26-1.17c0.87,0,1.4,0.75,1.4,1.97c0,1.75-1.02,3.11-2.66,3.8L163.89,339.62z"/>
	<path class="st0" d="M173.22,326.58c0-1.62,0.76-2.79,2.17-3.6l0.47,0.78c-1.02,0.67-1.53,1.38-1.53,2.53
		c0.05-0.02,0.11-0.02,0.16-0.02c0.56,0,1.07,0.36,1.07,1.02c0,0.71-0.44,1.11-1.07,1.11C173.69,328.41,173.22,327.75,173.22,326.58
		z"/>
	<path class="st0" d="M192.88,332.76h-6.68v5.75h-1.49v-5.75h-6.61v-1.24h14.78V332.76z M179.75,326.38c0-2.18,2.31-3.57,5.7-3.57
		c3.4,0,5.72,1.38,5.72,3.57c0,2.2-2.31,3.59-5.72,3.59C182.07,329.97,179.75,328.59,179.75,326.38z M181.28,326.38
		c0,1.46,1.69,2.38,4.17,2.38c2.49,0,4.19-0.93,4.19-2.38c0-1.44-1.69-2.37-4.19-2.37C182.98,324.02,181.28,324.95,181.28,326.38z"
		/>
	<path class="st0" d="M209.63,332.68h-6.68v5.81h-1.49v-5.81h-6.59v-1.22h14.75L209.63,332.68z M195.74,328.92
		c2.84-0.42,5.66-2.29,5.66-4.44v-0.09h-5.15v-1.2h11.92v1.2h-5.12v0.09c0,2.15,2.82,4.02,5.7,4.44l-0.58,1.18
		c-2.53-0.44-4.95-1.8-5.93-3.73c-1,1.93-3.4,3.29-5.93,3.73L195.74,328.92z"/>
	<path class="st0" d="M226.4,330.52v1.2h-6.55v3.29h-1.49v-3.29h-6.79v-1.2H226.4z M214.95,336.91h9.79v1.22h-11.29v-4.66h1.49
		V336.91z M224.47,328.66H213.5v-5.73h10.98V328.66z M223,324.13h-8.05v3.33H223V324.13z"/>
	<path class="st0" d="M236.59,330.72h-7.55v-7.52h1.47v2.46h4.62v-2.46h1.46V330.72z M241.21,335.45c0,1.93-2.06,3.04-5.37,3.04
		c-3.33,0-5.39-1.11-5.39-3.04c0-1.93,2.06-3.04,5.39-3.04C239.15,332.41,241.21,333.52,241.21,335.45z M235.13,326.82h-4.62v2.69
		h4.62V326.82z M239.72,335.45c0-1.17-1.47-1.84-3.88-1.84c-2.44,0-3.9,0.67-3.9,1.84s1.46,1.86,3.9,1.86
		C238.24,337.31,239.72,336.62,239.72,335.45z M243.45,326.28v1.24h-2.42v4.48h-1.49v-9.83h1.49v4.11H243.45z"/>
	<path class="st0" d="M259.89,331.46h-6.66v7.04h-1.51v-7.04h-6.59v-1.22h10.83c0.51-2.35,0.51-4.08,0.51-5.61v-0.22h-9.5v-1.2
		h10.96v1.42c0,1.53,0,3.26-0.46,5.61h2.42V331.46z"/>
	<path class="st0" d="M262.17,327.59c1.02-0.69,1.55-1.38,1.55-2.53c-0.05,0.02-0.13,0.02-0.2,0.02c-0.55,0-1.06-0.36-1.06-1.04
		c0-0.69,0.44-1.11,1.06-1.11c0.82,0,1.29,0.67,1.29,1.84c0,1.62-0.76,2.79-2.17,3.6L262.17,327.59z"/>
	<path class="st0" d="M276.14,322.53h1.42v15.16h-1.42v-7.96h-2.06c-0.13,3.2-1.46,5.17-3.46,5.17c-2.13,0-3.5-2.18-3.5-5.72
		c0-3.48,1.37-5.66,3.5-5.66c1.97,0,3.28,1.91,3.46,4.99h2.06V322.53z M272.73,329.19c0-2.62-0.84-4.28-2.11-4.28
		c-1.31,0-2.13,1.66-2.13,4.28c0,2.68,0.82,4.33,2.13,4.33C271.9,333.52,272.73,331.86,272.73,329.19z M280.8,322.16v16.33h-1.42
		v-16.33H280.8z"/>
	<path class="st0" d="M289.4,326.49c0,2.97,1.86,5.93,4.22,7.06l-0.87,1.18c-1.86-0.93-3.35-2.88-4.1-5.17
		c-0.71,2.42-2.22,4.48-4.06,5.46l-0.91-1.18c2.37-1.18,4.22-4.33,4.22-7.35v-2.93h1.49V326.49z M297.13,322.16v16.35h-1.49v-9.59
		h-3.79v-1.22h3.79v-5.53H297.13z"/>
	<path class="st0" d="M313.71,331.17h-7.5v-7.55h7.5V331.17z M312.25,324.82h-4.59v5.17h4.59V324.82z M309.54,336.91h9.39v1.22
		h-10.89v-5.13h1.49V336.91z M320.6,327.13v1.26h-2.4v5.72h-1.49v-11.96h1.49v4.99H320.6z"/>
	<path class="st0" d="M337.05,330.41v1.2h-14.76v-1.2H337.05z M335.36,328.61h-11.21v-5.75h11.07v1.22h-9.58v3.33h9.72V328.61z
		 M325.67,336.89h9.83v1.22h-11.32v-4.77h1.49V336.89z"/>
	<path class="st0" d="M358.9,329.44v1.18h-14.78v-1.18H358.9z M347.98,323.82h-2.48v-1.15h11.98v1.15h-2.46v3.11h2.4v1.15h-11.87
		v-1.15h2.42V323.82z M347.41,337.18h10.08v1.13h-11.54v-3.73h9.58v-1.4h-9.63v-1.11h11.1v3.59h-9.59V337.18z M353.53,323.82h-4.06
		v3.11h4.06V323.82z"/>
	<path class="st0" d="M368.85,331.12c-2.08,0.42-3.79,0.51-6.13,0.51h-1.07v-4.75h4.66v-2.22h-4.7v-1.2h6.13V328h-4.66v2.42
		c2.11-0.02,3.73-0.11,5.61-0.49L368.85,331.12z M369.98,332.96c0,2.11,2.66,3.86,5.53,4.31l-0.6,1.17c-2.4-0.42-4.7-1.67-5.68-3.48
		c-1,1.8-3.26,3.06-5.68,3.48l-0.6-1.17c2.86-0.46,5.52-2.2,5.52-4.31v-0.42h1.51V332.96z M371.05,331.86h-1.42v-9.39h1.42v3.97
		h2.18v-4.26h1.44v11.1h-1.44v-5.64h-2.18V331.86z"/>
	<path class="st0" d="M392.41,330.39v1.2h-14.76v-1.2h6.63v-1.88h-5.19v-1.2h2.4v-3.42h-2.46v-1.2h11.98v1.2h-2.48v3.42h2.4v1.2
		h-5.17v1.88H392.41z M379.46,333.14h11.14v5.13h-11.14V333.14z M380.92,337.07h8.23v-2.75h-8.23V337.07z M382.98,327.31h4.06v-3.42
		h-4.06V327.31z"/>
	<path class="st0" d="M398.66,326.58c0-1.62,0.76-2.79,2.17-3.6l0.47,0.78c-1.02,0.67-1.53,1.38-1.53,2.53
		c0.05-0.02,0.11-0.02,0.16-0.02c0.56,0,1.07,0.36,1.07,1.02c0,0.71-0.44,1.11-1.07,1.11C399.13,328.41,398.66,327.75,398.66,326.58
		z"/>
	<path class="st0" d="M418.34,335.07v1.24h-14.8v-1.24H418.34z M416.94,331.61c-2.48-0.56-5.02-2.31-6.06-4.71
		c-1.04,2.38-3.59,4.13-6.04,4.71l-0.67-1.24c2.86-0.56,5.93-3.02,5.93-5.81v-1.26h1.57v1.26c0,2.79,3.09,5.26,5.95,5.81
		L416.94,331.61z"/>
	<path class="st0" d="M435.11,335.23v1.22h-14.84v-1.22h6.66v-3.37h-4.75v-8.37h11.07v1.22h-9.56V327h9.19v1.18h-9.19v2.46h9.72
		v1.22h-4.99v3.37H435.11z"/>
	<path class="st0" d="M439.48,333.32c2.68,0,5.08-0.13,7.94-0.58l0.15,1.22c-2.95,0.49-5.42,0.6-8.23,0.6h-1.35v-6.26H444v-3.4
		h-6.06v-1.22h7.57v5.83h-6.03V333.32z M450.44,322.14v16.37h-1.49v-16.37H450.44z"/>
	<path class="st0" d="M456.07,333.07c1.75-0.02,3.39-0.13,5.28-0.51l0.2,1.26c-2.13,0.44-3.95,0.55-5.92,0.55h-1.04v-10.45h1.47
		V333.07z M462.77,322.56h1.42v15.11h-1.42v-8.79h-3.64v-1.24h3.64V322.56z M467.67,322.14v16.35h-1.42v-16.35H467.67z"/>
	<path class="st0" d="M479.45,329.12c0,3.48-1.73,5.7-4.15,5.7s-4.15-2.22-4.15-5.7c0-3.48,1.73-5.7,4.15-5.7
		S479.45,325.64,479.45,329.12z M472.57,329.12c0,2.66,1.13,4.37,2.73,4.37c1.58,0,2.71-1.71,2.71-4.37c0-2.64-1.13-4.35-2.71-4.35
		C473.7,324.76,472.57,326.48,472.57,329.12z M483.91,322.16v16.37h-1.49v-16.37H483.91z"/>
	<path class="st0" d="M496.01,331.92c-1.77-0.75-3.15-2.22-3.86-4.04c-0.67,1.97-2.11,3.53-4.02,4.31l-0.8-1.18
		c2.44-0.95,4.08-3.28,4.08-5.84v-2.09h1.49v2.09c0,2.4,1.58,4.64,3.93,5.57L496.01,331.92z M501.14,336.91v1.22h-10.89v-5.01h1.49
		v3.79H501.14z M499.25,329.15h-3.29v-1.22h3.29v-2.15h-3.29v-1.2h3.29v-2.42h1.51v12.2h-1.51V329.15z"/>
	<path class="st0" d="M504.37,327.59c1.02-0.69,1.55-1.38,1.55-2.53c-0.05,0.02-0.13,0.02-0.2,0.02c-0.55,0-1.06-0.36-1.06-1.04
		c0-0.69,0.44-1.11,1.06-1.11c0.82,0,1.29,0.67,1.29,1.84c0,1.62-0.76,2.79-2.17,3.6L504.37,327.59z"/>
	<path class="st0" d="M523.87,330.75v1.2H509.1v-1.2H523.87z M510.76,325.98c0-2.04,2.24-3.26,5.73-3.26s5.73,1.22,5.73,3.26
		c0,2.04-2.24,3.24-5.73,3.24S510.76,328.02,510.76,325.98z M512.51,336.91h9.74v1.22h-11.23v-4.73h1.49V336.91z M512.29,325.98
		c0,1.29,1.64,2.04,4.21,2.04c2.57,0,4.21-0.75,4.21-2.04c0-1.29-1.64-2.06-4.21-2.06C513.93,323.93,512.29,324.69,512.29,325.98z"
		/>
	<path class="st0" d="M17.7,369.1h-3.86v5.81h-1.51v-5.81h-4.1v5.81H6.72v-5.81h-3.8v-1.22H17.7V369.1z M4.57,362.79
		c0-2.18,2.31-3.55,5.7-3.55c3.4,0,5.72,1.37,5.72,3.55s-2.31,3.57-5.72,3.57C6.88,366.35,4.57,364.97,4.57,362.79z M6.1,362.79
		c0,1.44,1.69,2.37,4.17,2.37c2.49,0,4.19-0.93,4.19-2.37c0-1.44-1.69-2.35-4.19-2.35C7.79,360.44,6.1,361.35,6.1,362.79z"/>
	<path class="st0" d="M25.31,363.37c0,2.71,1.91,5.68,4.28,6.81l-0.89,1.17c-1.82-0.93-3.39-2.88-4.13-5.13
		c-0.71,2.4-2.29,4.5-4.15,5.48l-0.87-1.18c2.33-1.15,4.28-4.24,4.28-7.14v-1.89h-3.7v-1.22h8.9v1.22h-3.71V363.37z M33.12,358.58
		v16.35h-1.49v-9.19H28.1v-1.22h3.53v-5.93H33.12z"/>
	<path class="st0" d="M51.2,365.39v1.22H36.42v-1.22H51.2z M39.7,373.54h10.08v1.17H38.24v-3.95h9.58v-1.57h-9.63v-1.17h11.1v3.84
		H39.7V373.54z M49.44,364.08H38.39v-4.95h10.89v1.2h-9.39v2.55h9.56V364.08z"/>
	<path class="st0" d="M62.08,365.54c0,3.48-1.73,5.7-4.15,5.7s-4.15-2.22-4.15-5.7c0-3.48,1.73-5.7,4.15-5.7
		S62.08,362.06,62.08,365.54z M55.2,365.54c0,2.66,1.13,4.37,2.73,4.37c1.58,0,2.71-1.71,2.71-4.37c0-2.64-1.13-4.35-2.71-4.35
		C56.32,361.18,55.2,362.9,55.2,365.54z M66.54,358.58v16.37h-1.49v-16.37H66.54z"/>
	<path class="st0" d="M77.21,369.59c2.89,0,4.99-0.13,7.35-0.55l0.16,1.24c-2.49,0.47-4.64,0.58-7.72,0.58h-1.29v-10.72h7.59v1.24
		h-6.1V369.59z M90.28,366.26h-2.69v8.68H86.1v-16.37h1.49v6.44h2.69V366.26z"/>
	<path class="st0" d="M96.53,363.59c0,2.6,1.33,5.26,3.51,6.46l-0.86,1.11c-1.6-0.89-2.75-2.53-3.35-4.48
		c-0.56,2.08-1.71,3.9-3.31,4.84l-0.89-1.13c2.2-1.29,3.48-4.13,3.48-6.81v-0.75h-3.08v-1.22h3.08v-2.44h1.44v2.44h3.06v1.22h-3.08
		V363.59z M105.71,358.58v16.33h-1.44v-8.5h-2.15v7.7h-1.4v-15.16h1.4v6.23h2.15v-6.59H105.71z"/>
	<path class="st0" d="M123.35,371.67v1.22h-14.84v-1.22h6.64v-3.08h-4.79v-5.04h9.68V361h-9.72v-1.22h11.18v4.97h-9.67v2.64h10.05
		v1.2h-5.22v3.08H123.35z"/>
	<path class="st0" d="M140.07,366.86v1.22h-6.52v3.29h-1.51v-3.29h-6.77v-1.22H140.07z M126.94,362.28c0-2.02,2.26-3.28,5.72-3.28
		c3.46,0,5.72,1.26,5.72,3.28s-2.26,3.28-5.72,3.28C129.2,365.55,126.94,364.3,126.94,362.28z M128.65,373.31h9.79v1.24h-11.29
		v-4.77h1.49V373.31z M128.51,362.28c0,1.27,1.66,2.06,4.15,2.06c2.51,0,4.15-0.78,4.15-2.06c0-1.29-1.64-2.08-4.15-2.08
		C130.17,360.2,128.51,360.98,128.51,362.28z"/>
	<path class="st0" d="M151.98,363.19c0,2.62,1.22,5.39,3.37,6.7l-0.86,1.17c-1.55-0.95-2.64-2.68-3.22-4.66
		c-0.58,2.17-1.77,4-3.39,5.01l-0.93-1.11c2.24-1.31,3.59-4.24,3.59-7.04v-3.11h1.44V363.19z M156.28,358.95h1.4v15.16h-1.4v-8.43
		h-2.69v-1.24h2.69V358.95z M161.01,358.58v16.33h-1.42v-16.33H161.01z"/>
	<path class="st0" d="M173.07,359.02h1.42v15.05h-1.42v-5.64h-2.95v-1.22h2.95v-2.88h-2.69c-0.76,2.75-2.53,5.21-5.62,7.04
		l-0.87-1.06c3.51-2.09,5.26-5.02,5.52-8.45h-4.79v-1.22h6.26c0,0.84-0.07,1.66-0.22,2.48h2.42V359.02z M177.76,358.58v16.31h-1.42
		v-16.31H177.76z"/>
	<path class="st0" d="M190.88,367.63c-3.39,0.56-7.3,0.66-10.19,0.66l-0.15-1.22c1.04,0,2.22-0.02,3.46-0.04v-3.53h1.47v3.48
		c1.78-0.07,3.64-0.22,5.3-0.44L190.88,367.63z M187.75,365.39c0.38-1.88,0.44-3.28,0.44-4.31h-6.66v-1.22h8.12v0.86
		c0,1.07,0,2.69-0.42,4.84L187.75,365.39z M184.52,373.33h9.36v1.22h-10.85v-4.79h1.49V373.33z M195.68,363.9v1.24h-2.33v5.75h-1.49
		v-12.31h1.49v5.32H195.68z"/>
	<path class="st0" d="M212.16,365.63v1.2h-14.78v-1.2H212.16z M199.04,361.69c0-1.84,2.15-2.84,5.73-2.84c3.59,0,5.73,1,5.73,2.84
		c0,1.84-2.15,2.82-5.73,2.82C201.19,364.52,199.04,363.53,199.04,361.69z M200.68,373.56h10.08v1.17h-11.54v-3.91h9.58v-1.46h-9.63
		v-1.13h11.1v3.68h-9.59V373.56z M200.57,361.69c0,1.09,1.53,1.71,4.21,1.71c2.68,0,4.21-0.62,4.21-1.71c0-1.09-1.53-1.71-4.21-1.71
		C202.1,359.98,200.57,360.6,200.57,361.69z"/>
	<path class="st0" d="M227.43,367.59h-7.5v-7.55h7.5V367.59z M225.97,361.24h-4.59v5.17h4.59V361.24z M223.26,373.33h9.39v1.22
		h-10.89v-5.13h1.49V373.33z M234.32,363.55v1.26h-2.4v5.72h-1.49v-11.96h1.49v4.99H234.32z"/>
	<path class="st0" d="M250.79,365.39v1.22h-14.78v-1.22H250.79z M239.28,373.54h10.08v1.17h-11.54v-3.95h9.58v-1.57h-9.63v-1.17
		h11.1v3.84h-9.59V373.54z M249.02,364.08h-11.05v-4.95h10.89v1.2h-9.39v2.55h9.56V364.08z"/>
	<path class="st0" d="M267.54,371.4v1.22h-14.76v-1.22h5.73v-5.84H260v5.84H267.54z M264.28,361.44h-9.96v-1.22h11.45v1.62
		c0,2.02,0,4.26-0.62,7.55l-1.49-0.16c0.62-3.13,0.62-5.42,0.62-7.39V361.44z"/>
	<path class="st0" d="M284.3,361.51h-9.63v-1.2h4.06v-1.88h1.49v1.88h4.08V361.51z M279.47,368.14c-2.33,0-3.9-1.13-3.9-2.89
		c0-1.78,1.57-2.91,3.9-2.91s3.91,1.13,3.91,2.91C283.39,367.01,281.8,368.14,279.47,368.14z M279.47,367.03
		c1.49,0,2.49-0.71,2.49-1.78s-1-1.78-2.49-1.78s-2.48,0.71-2.48,1.78S277.98,367.03,279.47,367.03z M277.03,369.34h10.25v5.35
		h-10.25V369.34z M278.49,373.49h7.32v-2.97h-7.32V373.49z M289.7,364.17h-2.42v4.24h-1.49v-9.81h1.49v4.33h2.42V364.17z"/>
	<path class="st0" d="M295.37,360.53c0,3.5-0.46,7.34-2.8,10.5l-1.17-0.66c2.02-2.6,2.58-5.59,2.69-8.63h-2.35v-1.22H295.37z
		 M300.85,359h1.4v15.07h-1.4v-7.86h-2.28c-0.38,2.04-1.07,4.1-2.38,5.88l-1.17-0.67c2.22-2.91,2.6-6.59,2.66-9.67h-1.77v-1.22h3.06
		c0,1.35-0.04,2.88-0.22,4.46h2.09V359z M305.29,358.58v16.31h-1.42v-16.31H305.29z"/>
	<path class="st0" d="M323.52,368.43c-3.5,0.6-7.35,0.62-10.21,0.64l-0.16-1.2c1.29,0,2.79,0,4.35-0.05v-1.18
		c-1.89-0.18-3.08-1.06-3.08-2.4c0-1.49,1.51-2.42,3.82-2.42c2.28,0,3.8,0.93,3.8,2.42c0,1.33-1.18,2.2-3.06,2.4v1.13
		c1.49-0.07,3-0.18,4.42-0.4L323.52,368.43z M322.92,361.2h-9.38v-1.13h3.95v-1.6h1.49v1.6h3.93V361.2z M315.13,370.36h10.74v4.55
		h-1.49v-3.37h-9.25V370.36z M318.24,365.63c1.44,0,2.38-0.55,2.38-1.4s-0.95-1.38-2.38-1.38c-1.47,0-2.4,0.53-2.4,1.38
		S316.77,365.63,318.24,365.63z M328.25,364.77h-2.38v4.77h-1.49V358.6h1.49v4.93h2.38V364.77z"/>
	<path class="st0" d="M338.73,367.65c-1.86-0.6-3.26-1.89-3.95-3.51c-0.69,1.86-2.17,3.31-4.11,4l-0.76-1.18
		c2.46-0.86,4.1-2.97,4.1-5.32V361h-3.66v-1.2h8.76v1.2h-3.6v0.64c0,2.13,1.55,4.04,3.95,4.84L338.73,367.65z M342.82,371.87
		c0,1.91-2.06,3.02-5.37,3.02c-3.35,0-5.39-1.11-5.39-3.02c0-1.89,2.04-3,5.39-3C340.77,368.87,342.82,369.98,342.82,371.87z
		 M341.33,371.87c0-1.15-1.47-1.82-3.88-1.82c-2.44,0-3.9,0.67-3.9,1.82c0,1.17,1.46,1.84,3.9,1.84
		C339.85,373.71,341.33,373.04,341.33,371.87z M345.06,362.71v1.26h-2.42v4.48h-1.49v-9.85h1.49v4.11H345.06z"/>
	<path class="st0" d="M352.51,362.93c0,2.99,1.95,5.99,4.37,7.08l-0.89,1.2c-1.86-0.91-3.42-2.84-4.21-5.17
		c-0.75,2.46-2.31,4.5-4.22,5.48l-0.91-1.22c2.4-1.15,4.39-4.28,4.39-7.37V360h1.47V362.93z M360.08,358.58v16.37h-1.49v-16.37
		H360.08z"/>
	<path class="st0" d="M372.16,360.27c0,4.73-1.69,9.08-7.55,11.98l-0.8-1.18c3-1.46,4.88-3.33,5.88-5.52l-5.57,0.53l-0.25-1.31
		l6.3-0.42c0.31-0.91,0.46-1.86,0.53-2.86h-5.99v-1.22H372.16z M376.87,358.58v16.33h-1.49v-16.33H376.87z"/>
	<path class="st0" d="M393.68,358.58v16.37h-1.49v-6.74h-3.88v2.57h-7.43v-10.59h7.43v2.31h3.88v-3.91H393.68z M386.84,361.37h-4.5
		v8.23h4.5V361.37z M392.19,366.99v-3.28h-3.88v3.28H392.19z"/>
	<path class="st0" d="M416.86,369.01h-6.68v5.92h-1.49v-5.92h-6.59v-1.24h14.75L416.86,369.01z M415.52,366.01
		c-2.53-0.44-4.99-1.86-6.04-3.82c-1.02,1.98-3.48,3.39-6.03,3.82l-0.6-1.2c2.97-0.44,5.84-2.4,5.84-4.73v-0.91h1.57v0.91
		c0,2.28,2.91,4.3,5.88,4.73L415.52,366.01z"/>
	<path class="st0" d="M427.74,363.42c0,2.29-1.8,3.86-4.26,3.86c-2.48,0-4.26-1.57-4.26-3.86s1.78-3.86,4.26-3.86
		C425.94,359.56,427.74,361.13,427.74,363.42z M420.67,363.42c0,1.53,1.17,2.6,2.8,2.6c1.62,0,2.8-1.07,2.8-2.6s-1.18-2.6-2.8-2.6
		C421.84,360.82,420.67,361.89,420.67,363.42z M432.23,369.19v5.73h-1.49v-4.53h-9.41v-1.2H432.23z M432.23,358.6v9.7h-1.49v-9.7
		H432.23z"/>
	<path class="st0" d="M441.32,370.45c1.47-0.07,2.99-0.18,4.39-0.4l0.09,1.11c-3.5,0.62-7.34,0.66-10.19,0.66l-0.2-1.26
		c1.31,0,2.84,0,4.42-0.05v-1.78c-1.88-0.24-3.11-1.37-3.11-2.99c0-1.84,1.58-3.02,3.86-3.02c2.28,0,3.86,1.18,3.86,3.02
		c0,1.62-1.24,2.75-3.11,2.99V370.45z M445.44,361.75h-9.76v-1.18h4.15v-1.97h1.49v1.97h4.11V361.75z M440.58,367.59
		c1.46,0,2.44-0.73,2.44-1.86c0-1.13-0.98-1.88-2.44-1.88c-1.46,0-2.44,0.75-2.44,1.88C438.14,366.86,439.12,367.59,440.58,367.59z
		 M450.72,366.77h-2.55v8.14h-1.49v-16.33h1.49v6.94h2.55V366.77z"/>
	<path class="st0" d="M457.86,361.2h4.02v1.2h-9.63v-1.2h4.11v-2.42h1.49V361.2z M461.12,367.52c0,2.22-1.66,3.75-3.99,3.75
		c-2.29,0-3.95-1.53-3.95-3.75c0-2.2,1.66-3.77,3.95-3.77C459.46,363.75,461.12,365.32,461.12,367.52z M459.7,367.52
		c0-1.47-1.07-2.53-2.57-2.53c-1.47,0-2.55,1.06-2.55,2.53c0,1.46,1.07,2.51,2.55,2.51C458.62,370.03,459.7,368.98,459.7,367.52z
		 M467.6,366.55h-2.68v8.36h-1.49V358.6h1.49v6.7h2.68V366.55z"/>
	<path class="st0" d="M483.88,366.9v1.2h-14.8v-1.2H483.88z M472.46,373.29h9.81v1.22h-11.3v-4.77h1.49V373.29z M482.18,364.72
		h-11.1v-5.53h1.49v4.31h9.61V364.72z"/>
	<path class="st0" d="M505.77,371.58v1.24h-14.84v-1.24h6.64v-3.4c-3.04-0.22-5.19-1.84-5.19-4.24c0-2.6,2.49-4.28,5.95-4.28
		c3.44,0,5.92,1.67,5.92,4.28c0,2.4-2.13,4.02-5.17,4.24v3.4H505.77z M498.34,367.03c2.6,0,4.5-1.22,4.5-3.09s-1.89-3.09-4.5-3.09
		s-4.51,1.22-4.51,3.09S495.73,367.03,498.34,367.03z"/>
	<path class="st0" d="M522.45,367.3v1.2h-14.76v-1.2H522.45z M511.54,360.62h-2.48v-1.2h11.98v1.2h-2.46v3.71h2.4v1.2h-11.87v-1.2
		h2.42V360.62z M511.09,373.33h9.74v1.22h-11.23v-4.53h1.49V373.33z M517.09,360.62h-4.06v3.71h4.06V360.62z"/>
	<path class="st0" d="M537.96,359.89c0,4.24-2.13,7.41-7.37,9.16l-0.62-1.2c2.75-0.87,4.51-2.17,5.5-3.73l-5.32,0.4l-0.27-1.22
		l6.13-0.27c0.22-0.6,0.35-1.24,0.4-1.91h-5.7v-1.22H537.96z M543.48,373.33v1.22h-10.74v-5.04h1.49v3.82H543.48z M541.49,363.79
		v-5.19h1.51v12.11h-1.51v-5.7h-3.57v-1.22H541.49z"/>
	<path class="st0" d="M554.1,367.68c-1.88,0.36-3.4,0.44-6.01,0.44h-1.04v-8.17h6.17v1.2h-4.73v2.24h4.08v1.17h-4.08v2.37
		c2.29,0,3.77-0.09,5.46-0.44L554.1,367.68z M560.56,373.33v1.22h-11.09v-5.06h1.49v3.84H560.56z M555.5,364.42h-2.17v-1.22h2.17
		v-4.28h1.42v11.49h-1.42V364.42z M560.09,370.83h-1.44V358.6h1.44V370.83z"/>
	<path class="st0" d="M577.88,371.6v1.22h-14.82v-1.22H577.88z M563.95,367.65c3.13-0.55,5.75-2.57,5.75-5.24h-5.26v-1.2h5.26v-2.22
		h1.51v2.22h5.24v1.2h-5.24c0,2.68,2.62,4.7,5.75,5.24l-0.6,1.22c-2.59-0.53-4.9-1.91-5.9-4c-1.02,2.09-3.33,3.48-5.93,4
		L563.95,367.65z"/>
	<path class="st0" d="M599.68,365.86v1.18h-14.78v-1.18H599.68z M588.75,360.24h-2.48v-1.15h11.98v1.15h-2.46v3.11h2.4v1.15h-11.87
		v-1.15h2.42V360.24z M588.19,373.6h10.08v1.13h-11.54V371h9.58v-1.4h-9.63v-1.11h11.11v3.59h-9.59V373.6z M594.31,360.24h-4.06
		v3.11h4.06V360.24z"/>
	<path class="st0" d="M609.62,367.54c-2.08,0.42-3.79,0.51-6.13,0.51h-1.07v-4.75h4.66v-2.22h-4.7v-1.2h6.13v4.55h-4.66v2.42
		c2.11-0.02,3.73-0.11,5.61-0.49L609.62,367.54z M610.75,369.38c0,2.11,2.66,3.86,5.53,4.31l-0.6,1.17c-2.4-0.42-4.7-1.67-5.68-3.48
		c-1,1.8-3.26,3.06-5.68,3.48l-0.6-1.17c2.86-0.46,5.52-2.2,5.52-4.31v-0.42h1.51V369.38z M611.82,368.28h-1.42v-9.39h1.42v3.97
		h2.19v-4.26h1.44v11.1h-1.44v-5.64h-2.19V368.28z"/>
	<path class="st0" d="M633.18,366.81v1.2h-14.76v-1.2h6.63v-1.88h-5.19v-1.2h2.4v-3.42h-2.46v-1.2h11.98v1.2h-2.47v3.42h2.4v1.2
		h-5.17v1.88H633.18z M620.24,369.56h11.14v5.13h-11.14V369.56z M621.7,373.49h8.23v-2.75h-8.23V373.49z M623.75,363.73h4.06v-3.42
		h-4.06V363.73z"/>
	<path class="st0" d="M646.42,370.43c1.55-0.07,3.13-0.18,4.62-0.38l0.11,1.11c-3.64,0.6-7.57,0.66-10.58,0.66l-0.22-1.26
		c1.38,0,2.95-0.02,4.57-0.07v-1.75c-1.93-0.24-3.19-1.37-3.19-3c0-1.84,1.6-3.02,3.93-3.02s3.91,1.18,3.91,3.02
		c0,1.62-1.24,2.75-3.17,2.99V370.43z M650.63,361.79h-9.92v-1.2h4.22v-2h1.49v2h4.21V361.79z M645.68,367.59
		c1.47,0,2.49-0.73,2.49-1.86c0-1.15-1.02-1.88-2.49-1.88c-1.49,0-2.51,0.73-2.51,1.88C643.17,366.86,644.19,367.59,645.68,367.59z
		 M653.58,358.58v16.33h-1.49v-16.33H653.58z"/>
	<path class="st0" d="M662.5,362.93c0,2.88,1.86,5.84,4.15,6.99l-0.93,1.18c-1.73-0.93-3.2-2.84-3.95-5.08
		c-0.71,2.38-2.22,4.42-4.06,5.41l-0.89-1.2c2.35-1.2,4.21-4.33,4.21-7.3V360h1.47V362.93z M672.28,366.45h-2.7v8.46h-1.49V358.6
		h1.49v6.61h2.7V366.45z"/>
	<path class="st0" d="M682.68,363.11c0,2.26-1.8,3.77-4.28,3.77c-2.46,0-4.24-1.51-4.24-3.77c0-2.22,1.78-3.75,4.24-3.75
		C680.88,359.36,682.68,360.89,682.68,363.11z M675.62,363.11c0,1.49,1.16,2.53,2.79,2.53c1.66,0,2.82-1.04,2.82-2.53
		c0-1.47-1.16-2.51-2.82-2.51C676.78,360.6,675.62,361.64,675.62,363.11z M678.13,368.16v2h7.57v-2h1.47v6.54h-10.52v-6.54H678.13z
		 M678.13,373.49h7.57v-2.17h-7.57V373.49z M687.18,358.6v8.76h-1.49v-8.76H687.18z"/>
	<path class="st0" d="M693.04,369.41c2.46,0,4.99-0.22,7.7-0.76l0.16,1.27c-2.84,0.58-5.41,0.76-8.01,0.76h-1.35v-10.52h1.49V369.41
		z M703.91,358.58v16.31h-1.49v-16.31H703.91z"/>
	<path class="st0" d="M709.47,369.59c2.89,0,4.99-0.13,7.36-0.55l0.16,1.24c-2.49,0.47-4.64,0.58-7.72,0.58h-1.29v-10.72h7.59v1.24
		h-6.1V369.59z M722.54,366.26h-2.69v8.68h-1.49v-16.37h1.49v6.44h2.69V366.26z"/>
	<path class="st0" d="M724.4,372.54c0-0.76,0.54-1.29,1.2-1.29c0.65,0,1.2,0.53,1.2,1.29c0,0.75-0.55,1.26-1.2,1.26
		C724.95,373.8,724.4,373.29,724.4,372.54z"/>
	<path class="st0" d="M17.7,405.6h-6.68v5.75H9.52v-5.75H2.92v-1.24H17.7V405.6z M4.57,399.23c0-2.18,2.31-3.57,5.7-3.57
		c3.4,0,5.72,1.38,5.72,3.57c0,2.2-2.31,3.59-5.72,3.59C6.88,402.81,4.57,401.43,4.57,399.23z M6.1,399.23
		c0,1.46,1.69,2.38,4.17,2.38c2.49,0,4.19-0.93,4.19-2.38c0-1.44-1.69-2.37-4.19-2.37C7.79,396.86,6.1,397.79,6.1,399.23z"/>
	<path class="st0" d="M34.45,405.52h-6.68v5.81h-1.49v-5.81h-6.59v-1.22h14.75L34.45,405.52z M20.56,401.76
		c2.84-0.42,5.66-2.29,5.66-4.44v-0.09h-5.15v-1.2h11.92v1.2h-5.12v0.09c0,2.15,2.82,4.02,5.7,4.44l-0.58,1.18
		c-2.53-0.44-4.95-1.8-5.93-3.73c-1,1.93-3.4,3.29-5.93,3.73L20.56,401.76z"/>
	<path class="st0" d="M51.22,403.36v1.2h-6.55v3.29h-1.49v-3.29h-6.79v-1.2H51.22z M39.77,409.75h9.79v1.22H38.28v-4.66h1.49V409.75
		z M49.29,401.5H38.32v-5.73h10.98V401.5z M47.82,396.97h-8.05v3.33h8.05V396.97z"/>
	<path class="st0" d="M61.4,403.56h-7.55v-7.52h1.47v2.46h4.62v-2.46h1.46V403.56z M66.03,408.29c0,1.93-2.06,3.04-5.37,3.04
		c-3.33,0-5.39-1.11-5.39-3.04c0-1.93,2.06-3.04,5.39-3.04C63.97,405.25,66.03,406.36,66.03,408.29z M59.95,399.66h-4.62v2.69h4.62
		V399.66z M64.53,408.29c0-1.17-1.47-1.84-3.88-1.84c-2.44,0-3.9,0.67-3.9,1.84s1.46,1.86,3.9,1.86
		C63.06,410.15,64.53,409.46,64.53,408.29z M68.27,399.12v1.24h-2.42v4.48h-1.49V395h1.49v4.11H68.27z"/>
	<path class="st0" d="M84.71,404.3h-6.66v7.04h-1.51v-7.04h-6.59v-1.22h10.83c0.51-2.35,0.51-4.08,0.51-5.61v-0.22h-9.5v-1.2h10.96
		v1.42c0,1.53,0,3.26-0.46,5.61h2.42V404.3z"/>
	<path class="st0" d="M92.31,406.45c1.49-0.07,3-0.16,4.41-0.36l0.13,1.09c-3.46,0.58-7.26,0.64-10.14,0.64l-0.2-1.26
		c1.29,0,2.79-0.02,4.31-0.05v-2.82c-2.13-0.25-3.59-1.75-3.59-3.79c0-2.29,1.8-3.84,4.33-3.84c2.49,0,4.31,1.55,4.31,3.84
		c0,2.04-1.47,3.51-3.57,3.79V406.45z M91.56,402.47c1.66,0,2.86-1.02,2.86-2.57c0-1.53-1.2-2.58-2.86-2.58
		c-1.67,0-2.88,1.06-2.88,2.58C88.68,401.45,89.89,402.47,91.56,402.47z M101.83,402.99h-2.58v8.34h-1.49v-16.35h1.49v6.75h2.58
		V402.99z"/>
	<path class="st0" d="M118.22,397.93h-9.63v-1.2h4.06v-1.88h1.49v1.88h4.08V397.93z M113.4,404.56c-2.33,0-3.9-1.13-3.9-2.89
		c0-1.78,1.57-2.91,3.9-2.91s3.91,1.13,3.91,2.91C117.31,403.43,115.73,404.56,113.4,404.56z M113.4,403.45
		c1.49,0,2.49-0.71,2.49-1.78s-1-1.78-2.49-1.78s-2.48,0.71-2.48,1.78S111.9,403.45,113.4,403.45z M110.96,405.76h10.25v5.35h-10.25
		V405.76z M112.41,409.91h7.32v-2.97h-7.32V409.91z M123.63,400.59h-2.42v4.24h-1.49v-9.81h1.49v4.33h2.42V400.59z"/>
	<path class="st0" d="M129.29,396.95c0,3.5-0.46,7.34-2.8,10.5l-1.17-0.66c2.02-2.6,2.58-5.59,2.69-8.63h-2.35v-1.22H129.29z
		 M134.77,395.42h1.4v15.07h-1.4v-7.86h-2.28c-0.38,2.04-1.07,4.1-2.38,5.88l-1.17-0.67c2.22-2.91,2.6-6.59,2.66-9.67h-1.77v-1.22
		h3.06c0,1.35-0.04,2.88-0.22,4.46h2.09V395.42z M139.21,395v16.31h-1.42V395H139.21z"/>
	<path class="st0" d="M151.73,398.21h-9.63V397h4.06v-2h1.49v2h4.08V398.21z M146.9,405.18c-2.31,0-3.9-1.2-3.9-3.04
		c0-1.82,1.58-3.02,3.9-3.02s3.91,1.2,3.91,3.02C150.82,403.98,149.21,405.18,146.9,405.18z M146.9,404.01
		c1.47,0,2.49-0.73,2.49-1.88c0-1.13-1.02-1.86-2.49-1.86s-2.48,0.73-2.48,1.86C144.43,403.29,145.43,404.01,146.9,404.01z
		 M146.05,409.75h9.39v1.22h-10.89v-4.68h1.49V409.75z M157.11,400.39v1.26h-2.4v5.61h-1.49V395h1.49v5.39H157.11z"/>
	<path class="st0" d="M169.72,399.99c0,2.77,1.97,5.59,4.37,6.61l-0.84,1.2c-1.89-0.87-3.5-2.75-4.28-4.99
		c-0.75,2.38-2.35,4.44-4.21,5.39l-0.87-1.2c2.35-1.11,4.33-4.19,4.33-7.01v-2.08h-3.79v-1.24h9.12v1.24h-3.84V399.99z
		 M177.25,395.02v16.31h-1.49v-16.31H177.25z"/>
	<path class="st0" d="M190.35,403.14c-2.73,0.55-5.19,0.73-7.63,0.73h-1.27v-7.66h1.47v6.41c2.31-0.02,4.66-0.18,7.26-0.71
		L190.35,403.14z M184.71,409.75h9.19v1.22h-10.69v-5.3h1.49V409.75z M195.72,399.86v1.26h-2.4v5.7h-1.49v-11.8h1.49v4.84H195.72z"
		/>
	<path class="st0" d="M201.5,404c0-5.22,2.35-7.23,4.95-7.23c1.38,0,2.38,0.58,3.11,1.37l-0.93,1.04c-0.53-0.64-1.33-1.02-2.13-1.02
		c-1.84,0-3.37,1.4-3.44,5.53c0.84-1,1.98-1.62,3.04-1.62c2.24,0,3.7,1.35,3.7,3.99c0,2.49-1.75,4.17-3.82,4.17
		C203.41,410.22,201.5,408.15,201.5,404z M203.1,405.03c0.22,2.53,1.22,3.9,2.86,3.9c1.29,0,2.28-1.15,2.28-2.88
		c0-1.67-0.8-2.75-2.4-2.75C204.99,403.3,203.97,403.76,203.1,405.03z"/>
	<path class="st0" d="M218.58,397.11c0,4.21-1.47,8.1-6.12,10.72l-0.87-1.07c3.75-2.09,5.3-5.04,5.52-8.43h-4.9v-1.22H218.58z
		 M225.44,395v16.33H224v-8.54h-2.22v7.72h-1.4v-15.07h1.4v6.13H224V395H225.44z"/>
	<path class="st0" d="M232.73,402.23c-1.51,0.04-2.95,0.05-4.26,0.05l-0.18-1.13c3.15,0,7.14-0.02,10.63-0.42l0.09,0.98
		c-1.58,0.22-3.2,0.35-4.79,0.44v2.51h-1.49V402.23z M229.54,397.79c0-1.53,1.6-2.46,4.02-2.46s4.02,0.93,4.02,2.46
		c0,1.49-1.6,2.42-4.02,2.42S229.54,399.28,229.54,397.79z M242.26,410.04v1.11H230.8v-3.55h9.45v-1.31h-9.48v-1.07h10.94v3.4h-9.43
		v1.42H242.26z M230.94,397.79c0,0.84,1.04,1.4,2.62,1.4c1.6,0,2.62-0.56,2.62-1.4c0-0.87-1.02-1.42-2.62-1.42
		C231.98,396.37,230.94,396.91,230.94,397.79z M240.21,402.78v-7.75h1.49v9.59h-1.49v-0.86h-3.24v-0.98H240.21z"/>
	<path class="st0" d="M264.97,403.07v1.2h-14.78v-1.2h6.64v-1.89h-4.79v-5.42h11.09v1.2h-9.59v3.02h9.7v1.2h-4.92v1.89H264.97z
		 M263.15,408.38c0,1.89-2.11,2.95-5.57,2.95c-3.5,0-5.61-1.06-5.61-2.95c0-1.89,2.11-2.95,5.61-2.95
		C261.04,405.43,263.15,406.49,263.15,408.38z M261.64,408.38c0-1.15-1.51-1.78-4.06-1.78c-2.58,0-4.1,0.64-4.1,1.78
		c0,1.15,1.51,1.78,4.1,1.78C260.13,410.17,261.64,409.53,261.64,408.38z"/>
	<path class="st0" d="M271.51,404.2c-2.44,0-4.26-1.66-4.26-4.02c0-2.37,1.82-4.02,4.26-4.02s4.26,1.66,4.26,4.02
		C275.77,402.54,273.95,404.2,271.51,404.2z M271.51,402.9c1.6,0,2.8-1.13,2.8-2.73c0-1.6-1.2-2.73-2.8-2.73
		c-1.6,0-2.8,1.13-2.8,2.73C268.71,401.77,269.91,402.9,271.51,402.9z M270.95,409.75h9.39v1.22h-10.89v-5.17h1.49V409.75z
		 M282.02,399.97v1.24h-2.4v5.81h-1.49V395h1.49v4.97H282.02z"/>
	<path class="st0" d="M288.58,404.47v-7.85h1.69v7.9c0,3.22,1.37,4.22,3.09,4.22c1.78,0,3.19-1,3.19-4.22v-7.9h1.62v7.85
		c0,4.3-2.08,5.75-4.81,5.75C290.65,410.22,288.58,408.76,288.58,404.47z"/>
	<path class="st0" d="M303.95,403.08l-3.64-6.46h1.86l1.82,3.42c0.35,0.62,0.62,1.18,1.06,1.95h0.07c0.36-0.76,0.62-1.33,0.95-1.95
		l1.78-3.42h1.77l-3.64,6.55l3.9,6.81h-1.86l-1.97-3.6c-0.35-0.67-0.71-1.35-1.15-2.15h-0.07c-0.38,0.8-0.73,1.47-1.07,2.15
		l-1.93,3.6h-1.77L303.95,403.08z"/>
	<path class="st0" d="M319.92,395.53h1.2l-5.44,17.71h-1.22L319.92,395.53z"/>
	<path class="st0" d="M327.24,404.47v-7.85h1.69v7.9c0,3.22,1.37,4.22,3.09,4.22c1.78,0,3.19-1,3.19-4.22v-7.9h1.62v7.85
		c0,4.3-2.08,5.75-4.81,5.75C329.31,410.22,327.24,408.76,327.24,404.47z"/>
	<path class="st0" d="M340.42,396.62h1.69v13.36h-1.69V396.62z"/>
	<path class="st0" d="M351.51,406.03c3.15,0,5.21-0.09,7.61-0.55l0.16,1.26c-2.51,0.46-4.64,0.56-7.94,0.56h-1.31v-10.76h7.72v1.26
		h-6.24V406.03z M362.34,395v16.37h-1.49V395H362.34z"/>
	<path class="st0" d="M371.23,399.99c0,2.6,1.86,5.5,4.22,6.61l-0.86,1.2c-1.82-0.91-3.35-2.82-4.1-5.01
		c-0.75,2.38-2.33,4.46-4.17,5.41l-0.87-1.18c2.33-1.17,4.3-4.26,4.3-7.03v-2.08h-3.73v-1.24h8.83v1.24h-3.62V399.99z
		 M380.99,402.85h-2.69v8.48h-1.49v-16.31h1.49v6.57h2.69V402.85z"/>
	<path class="st0" d="M391.39,401.96c0,3.48-1.73,5.7-4.15,5.7s-4.15-2.22-4.15-5.7c0-3.48,1.73-5.7,4.15-5.7
		S391.39,398.48,391.39,401.96z M384.51,401.96c0,2.66,1.13,4.37,2.73,4.37c1.58,0,2.71-1.71,2.71-4.37c0-2.64-1.13-4.35-2.71-4.35
		C385.64,397.61,384.51,399.32,384.51,401.96z M395.85,395v16.37h-1.49V395H395.85z"/>
	<path class="st0" d="M401.63,406.16c2.42-0.02,4.64-0.18,7.04-0.67l0.2,1.27c-2.58,0.49-4.88,0.66-7.46,0.66h-1.27v-10.59h1.49
		V406.16z M412.69,395v16.37h-1.49v-9.74h-5.01v-1.24h5.01V395H412.69z"/>
	<path class="st0" d="M430.81,408.09v1.22h-14.84v-1.22h6.64v-3.08h-4.79v-5.04h9.68v-2.55h-9.72v-1.22h11.18v4.97h-9.67v2.64h10.05
		v1.2h-5.22v3.08H430.81z"/>
	<path class="st0" d="M438.46,399.33c0,2.97,1.86,5.93,4.22,7.06l-0.87,1.18c-1.86-0.93-3.35-2.88-4.1-5.17
		c-0.71,2.42-2.22,4.48-4.06,5.46l-0.91-1.18c2.37-1.18,4.22-4.33,4.22-7.35v-2.93h1.49V399.33z M446.2,395v16.35h-1.49v-9.59h-3.79
		v-1.22h3.79V395H446.2z"/>
	<path class="st0" d="M469.36,402.28v1.18h-14.78v-1.18H469.36z M458.44,396.66h-2.48v-1.15h11.98v1.15h-2.46v3.11h2.4v1.15h-11.87
		v-1.15h2.42V396.66z M457.88,410.02h10.08v1.13h-11.54v-3.73H466v-1.4h-9.63v-1.11h11.1v3.59h-9.59V410.02z M463.99,396.66h-4.06
		v3.11h4.06V396.66z"/>
	<path class="st0" d="M479.31,403.96c-2.08,0.42-3.79,0.51-6.13,0.51h-1.07v-4.75h4.66v-2.22h-4.7v-1.2h6.13v4.55h-4.66v2.42
		c2.11-0.02,3.73-0.11,5.61-0.49L479.31,403.96z M480.44,405.8c0,2.11,2.66,3.86,5.53,4.31l-0.6,1.17c-2.4-0.42-4.7-1.67-5.68-3.48
		c-1,1.8-3.26,3.06-5.68,3.48l-0.6-1.17c2.86-0.46,5.52-2.2,5.52-4.31v-0.42h1.51V405.8z M481.51,404.71h-1.42v-9.39h1.42v3.97h2.18
		v-4.26h1.44v11.1h-1.44v-5.64h-2.18V404.71z"/>
	<path class="st0" d="M502.87,403.23v1.2h-14.76v-1.2h6.63v-1.88h-5.19v-1.2h2.4v-3.42h-2.46v-1.2h11.98v1.2h-2.48v3.42h2.4v1.2
		h-5.17v1.88H502.87z M489.93,405.98h11.14v5.13h-11.14V405.98z M491.38,409.91h8.23v-2.75h-8.23V409.91z M493.44,400.15h4.06v-3.42
		h-4.06V400.15z"/>
	<path class="st0" d="M509.12,399.43c0-1.62,0.76-2.79,2.17-3.6l0.47,0.78c-1.02,0.67-1.53,1.38-1.53,2.53
		c0.05-0.02,0.11-0.02,0.16-0.02c0.56,0,1.07,0.36,1.07,1.02c0,0.71-0.44,1.11-1.07,1.11C509.59,401.25,509.12,400.59,509.12,399.43
		z"/>
	<path class="st0" d="M528.8,407.91v1.24H514v-1.24H528.8z M527.4,404.45c-2.48-0.56-5.02-2.31-6.06-4.71
		c-1.04,2.38-3.59,4.13-6.04,4.71l-0.67-1.24c2.86-0.56,5.93-3.02,5.93-5.81v-1.26h1.57v1.26c0,2.79,3.09,5.26,5.95,5.81
		L527.4,404.45z"/>
	<path class="st0" d="M545.57,408.07v1.22h-14.84v-1.22h6.66v-3.37h-4.75v-8.37h11.07v1.22h-9.56v2.29h9.19v1.18h-9.19v2.46h9.72
		v1.22h-4.99v3.37H545.57z"/>
	<path class="st0" d="M549.95,406.16c2.68,0,5.08-0.13,7.94-0.58l0.15,1.22c-2.95,0.49-5.42,0.6-8.23,0.6h-1.35v-6.26h6.01v-3.4
		h-6.06v-1.22h7.57v5.83h-6.03V406.16z M560.91,394.98v16.37h-1.49v-16.37H560.91z"/>
	<path class="st0" d="M566.54,405.91c1.75-0.02,3.39-0.13,5.28-0.51l0.2,1.26c-2.13,0.44-3.95,0.55-5.92,0.55h-1.04v-10.45h1.47
		V405.91z M573.24,395.4h1.42v15.11h-1.42v-8.79h-3.64v-1.24h3.64V395.4z M578.13,394.98v16.35h-1.42v-16.35H578.13z"/>
	<path class="st0" d="M589.92,401.96c0,3.48-1.73,5.7-4.15,5.7c-2.42,0-4.15-2.22-4.15-5.7c0-3.48,1.73-5.7,4.15-5.7
		C588.19,396.26,589.92,398.48,589.92,401.96z M583.04,401.96c0,2.66,1.13,4.37,2.73,4.37c1.58,0,2.71-1.71,2.71-4.37
		c0-2.64-1.13-4.35-2.71-4.35C584.16,397.61,583.04,399.32,583.04,401.96z M594.38,395v16.37h-1.49V395H594.38z"/>
	<path class="st0" d="M606.47,404.76c-1.77-0.75-3.15-2.22-3.86-4.04c-0.67,1.97-2.11,3.53-4.02,4.31l-0.8-1.18
		c2.44-0.95,4.08-3.28,4.08-5.84v-2.09h1.49v2.09c0,2.4,1.58,4.64,3.93,5.57L606.47,404.76z M611.6,409.75v1.22h-10.89v-5.01h1.49
		v3.79H611.6z M609.71,401.99h-3.29v-1.22h3.29v-2.15h-3.29v-1.2h3.29V395h1.51v12.2h-1.51V401.99z"/>
	<path class="st0" d="M614.83,400.43c1.02-0.69,1.55-1.38,1.55-2.53c-0.05,0.02-0.13,0.02-0.2,0.02c-0.54,0-1.05-0.36-1.05-1.04
		c0-0.69,0.44-1.11,1.05-1.11c0.82,0,1.29,0.67,1.29,1.84c0,1.62-0.76,2.79-2.17,3.6L614.83,400.43z"/>
	<path class="st0" d="M619.69,406.53c2.97,0,7.06-0.02,10.63-0.56l0.13,1.11c-3.68,0.67-7.63,0.71-10.58,0.71L619.69,406.53z
		 M629.25,400.04c0,2.28-1.82,3.84-4.37,3.84c-2.53,0-4.37-1.57-4.37-3.84c0-2.29,1.84-3.84,4.37-3.84
		C627.43,396.2,629.25,397.75,629.25,400.04z M621.97,400.04c0,1.51,1.24,2.57,2.91,2.57c1.69,0,2.91-1.06,2.91-2.57
		c0-1.53-1.22-2.57-2.91-2.57C623.21,397.48,621.97,398.52,621.97,400.04z M632.89,395v16.37h-1.49V395H632.89z"/>
	<path class="st0" d="M656.25,408v1.24h-14.84V408h6.64v-3.4c-3.04-0.22-5.19-1.84-5.19-4.24c0-2.6,2.49-4.28,5.95-4.28
		c3.44,0,5.92,1.67,5.92,4.28c0,2.4-2.13,4.02-5.17,4.24v3.4H656.25z M648.83,403.45c2.6,0,4.5-1.22,4.5-3.09s-1.89-3.09-4.5-3.09
		s-4.51,1.22-4.51,3.09S646.22,403.45,648.83,403.45z"/>
	<path class="st0" d="M672.94,403.72v1.2h-14.76v-1.2H672.94z M662.03,397.04h-2.48v-1.2h11.98v1.2h-2.46v3.71h2.4v1.2h-11.87v-1.2
		h2.42V397.04z M661.58,409.75h9.74v1.22h-11.23v-4.53h1.49V409.75z M667.58,397.04h-4.06v3.71h4.06V397.04z"/>
	<path class="st0" d="M688.52,402.74h-7.63v-6.68h7.63V402.74z M689.03,406.63c0.02,1.57,2.55,3.15,5.35,3.5l-0.51,1.15
		c-2.46-0.35-4.64-1.47-5.61-2.99c-0.98,1.55-3.24,2.64-5.7,2.99l-0.49-1.15c2.79-0.33,5.39-1.88,5.41-3.5h-4.77v-1.15h4.79v-1.58
		h1.51v1.58h4.79v1.15H689.03z M687.07,397.24h-4.71v4.3h4.71V397.24z M693.42,404.38h-1.49V395h1.49V404.38z"/>
	<path class="st0" d="M708.88,397.11c0,4.21-1.47,8.1-6.12,10.72l-0.87-1.07c3.75-2.09,5.3-5.04,5.52-8.43h-4.9v-1.22H708.88z
		 M715.75,395v16.33h-1.44v-8.54h-2.22v7.72h-1.4v-15.07h1.4v6.13h2.22V395H715.75z"/>
	<path class="st0" d="M727.4,404.5c-1.8-0.71-3.2-2.11-3.89-3.88c-0.69,1.95-2.15,3.5-4.06,4.26l-0.78-1.18
		c2.44-0.89,4.08-3.2,4.08-5.7v-2.02h1.49v2.08c0,2.28,1.6,4.42,3.95,5.3L727.4,404.5z M732.48,409.75v1.22H721.6v-5.1h1.49v3.88
		H732.48z M730.59,400.08h-3.57v-1.24h3.57v-3.82h1.51v12.2h-1.51V400.08z"/>
	<path class="st0" d="M744.61,395.37h1.42v15.16h-1.42v-7.96h-2.06c-0.13,3.2-1.46,5.17-3.46,5.17c-2.13,0-3.49-2.18-3.49-5.72
		c0-3.48,1.37-5.66,3.49-5.66c1.97,0,3.28,1.91,3.46,4.99h2.06V395.37z M741.21,402.03c0-2.62-0.84-4.28-2.11-4.28
		c-1.31,0-2.13,1.66-2.13,4.28c0,2.68,0.82,4.33,2.13,4.33C740.37,406.36,741.21,404.71,741.21,402.03z M749.27,395v16.33h-1.42V395
		H749.27z"/>
	<path class="st0" d="M766.1,404.03c-1.86-0.58-3.28-1.78-4.01-3.33c-0.71,1.71-2.18,3.02-4.11,3.64l-0.73-1.17
		c2.42-0.75,4.08-2.64,4.08-4.81v-0.25h-3.62v-1.2h3.62v-2h1.49v2h3.61v1.2h-3.61v0.25c0,1.98,1.58,3.79,3.99,4.51L766.1,404.03z
		 M759.67,405.43h10.25v5.68h-10.25V405.43z M761.13,409.91h7.32v-3.29h-7.32V409.91z M772.34,400.37h-2.42v4.3h-1.49V395h1.49v4.13
		h2.42V400.37z"/>
	<path class="st0" d="M787.46,395v16.37h-1.49v-6.33h-4.08c-0.67,1.66-1.95,2.62-3.51,2.62c-2.38,0-4.08-2.22-4.08-5.7
		c0-3.48,1.69-5.7,4.08-5.7c1.51,0,2.71,0.87,3.4,2.4h4.19V395H787.46z M781.03,401.96c0-2.64-1.11-4.35-2.66-4.35
		c-1.56,0-2.66,1.71-2.66,4.35c0,2.66,1.09,4.37,2.66,4.37C779.92,406.33,781.03,404.61,781.03,401.96z M785.97,403.81v-3.93h-3.77
		c0.15,0.64,0.24,1.33,0.24,2.08c0,0.67-0.07,1.29-0.18,1.86H785.97z"/>
	<path class="st0" d="M796.28,397.62h4.02v1.2h-9.63v-1.2h4.12v-2.42h1.49V397.62z M799.53,403.94c0,2.22-1.66,3.75-3.99,3.75
		c-2.29,0-3.95-1.53-3.95-3.75c0-2.2,1.66-3.77,3.95-3.77C797.88,400.17,799.53,401.74,799.53,403.94z M798.11,403.94
		c0-1.47-1.07-2.53-2.57-2.53c-1.47,0-2.55,1.06-2.55,2.53c0,1.46,1.07,2.51,2.55,2.51C797.04,406.45,798.11,405.4,798.11,403.94z
		 M806.01,402.98h-2.68v8.36h-1.49v-16.31h1.49v6.7h2.68V402.98z"/>
	<path class="st0" d="M815.3,402.16c-0.77,0.89-1.95,1.44-3.35,1.44c-2.4,0-4.17-1.6-4.17-3.86c0-2.26,1.77-3.84,4.17-3.84
		c1.38,0,2.55,0.53,3.29,1.38h4.21v-2.26h1.51v9.28h-1.51v-2.15H815.3z M819.18,405.91c0,1.71,1.2,3.42,3.29,4.13l-0.75,1.11
		c-1.58-0.6-2.75-1.71-3.29-3.09c-0.51,1.33-1.49,2.58-3,3.22c-1.56-0.6-2.55-1.82-3.04-3.17c-0.58,1.31-1.69,2.44-3.22,3.04
		l-0.75-1.11c2.06-0.76,3.28-2.53,3.28-4.13v-1.07h1.44v1.07c0,1.47,0.75,3.04,2.28,3.93c1.55-0.98,2.31-2.64,2.31-3.93v-1.07h1.46
		V405.91z M809.21,399.74c0,1.51,1.16,2.6,2.75,2.6c1.6,0,2.77-1.09,2.77-2.6c0-1.51-1.17-2.58-2.77-2.58
		C810.37,397.15,809.21,398.22,809.21,399.74z M815.94,398.5c0.13,0.38,0.2,0.8,0.2,1.24c0,0.44-0.07,0.84-0.18,1.2h3.5v-2.44
		H815.94z"/>
	<path class="st0" d="M839.03,402.45v1.2h-14.78v-1.2H839.03z M837.65,401.3c-2.53-0.4-4.95-1.67-5.99-3.5
		c-1.02,1.82-3.46,3.09-6.01,3.5l-0.55-1.2c2.93-0.36,5.79-2.11,5.79-4.19v-0.73h1.53v0.73c0,2.02,2.88,3.82,5.77,4.19L837.65,401.3
		z M835.62,404.78h1.47v6.33h-10.98v-6.33h1.47v1.91h8.03V404.78z M835.62,407.84h-8.03v2.08h8.03V407.84z"/>
	<path class="st0" d="M843.53,405.83c2.46,0,4.99-0.22,7.7-0.76l0.16,1.27c-2.84,0.58-5.41,0.76-8.01,0.76h-1.35v-10.52h1.49V405.83
		z M854.4,395v16.31h-1.49V395H854.4z"/>
	<path class="st0" d="M859.96,406.02c2.89,0,4.99-0.13,7.36-0.55l0.16,1.24c-2.49,0.47-4.64,0.58-7.72,0.58h-1.29v-10.72h7.59v1.24
		h-6.1V406.02z M873.03,402.68h-2.69v8.68h-1.49V395h1.49v6.44h2.69V402.68z"/>
	<path class="st0" d="M874.89,408.96c0-0.76,0.55-1.29,1.2-1.29c0.66,0,1.2,0.53,1.2,1.29c0,0.75-0.54,1.26-1.2,1.26
		C875.44,410.22,874.89,409.71,874.89,408.96z"/>
	<path class="st0" d="M11.82,438.38c0,3.48-1.73,5.7-4.15,5.7s-4.15-2.22-4.15-5.7c0-3.48,1.73-5.7,4.15-5.7
		S11.82,434.9,11.82,438.38z M4.94,438.38c0,2.66,1.13,4.37,2.73,4.37c1.58,0,2.71-1.71,2.71-4.37c0-2.64-1.13-4.35-2.71-4.35
		C6.06,434.03,4.94,435.74,4.94,438.38z M16.28,431.42v16.37h-1.49v-16.37H16.28z"/>
	<path class="st0" d="M39.57,444.49v1.22h-14.8v-1.22h6.61v-3.75h-5.26v-1.2h2.49v-5.35h-2.53v-1.2h12.11v1.2h-2.53v5.35h2.49v1.2
		h-5.26v3.75H39.57z M30.1,439.54h4.06v-5.35H30.1V439.54z"/>
	<path class="st0" d="M56.32,444.42v1.22H41.5v-1.22H56.32z M54.63,441.43H43.41v-8.59h11.05v1.2h-9.54v2.42h9.17v1.18h-9.17v2.58
		h9.7V441.43z"/>
	<path class="st0" d="M73.02,438.83v1.2H58.26v-1.2h6.64v-1.57h-5.21v-1.15h2.42v-3.11h-2.48v-1.15h11.98v1.15h-2.46v3.11h2.4v1.15
		h-5.17v1.57H73.02z M61.55,446.44h10.08v1.13H60.09v-3.79h9.58v-1.35h-9.63v-1.11h11.1v3.51h-9.59V446.44z M63.61,436.12h4.06
		v-3.11h-4.06V436.12z"/>
	<path class="st0" d="M77.47,442.58c2.68,0,5.08-0.13,7.94-0.58l0.15,1.22c-2.95,0.49-5.42,0.6-8.23,0.6h-1.35v-6.26h6.01v-3.4
		h-6.06v-1.22h7.57v5.83h-6.03V442.58z M88.43,431.4v16.37h-1.49V431.4H88.43z"/>
	<path class="st0" d="M106.6,444.42v1.24H91.76v-1.24h6.64v-3.4c-3.04-0.22-5.19-1.84-5.19-4.24c0-2.6,2.49-4.28,5.95-4.28
		c3.44,0,5.92,1.67,5.92,4.28c0,2.4-2.13,4.02-5.17,4.24v3.4H106.6z M99.17,439.87c2.6,0,4.5-1.22,4.5-3.09s-1.89-3.09-4.5-3.09
		s-4.51,1.22-4.51,3.09S96.57,439.87,99.17,439.87z"/>
	<path class="st0" d="M117.75,431.79h1.42v15.16h-1.42V439h-2.06c-0.13,3.2-1.46,5.17-3.46,5.17c-2.13,0-3.5-2.18-3.5-5.72
		c0-3.48,1.37-5.66,3.5-5.66c1.97,0,3.28,1.91,3.46,4.99h2.06V431.79z M114.34,438.45c0-2.62-0.84-4.28-2.11-4.28
		c-1.31,0-2.13,1.66-2.13,4.28c0,2.68,0.82,4.33,2.13,4.33C113.5,442.78,114.34,441.12,114.34,438.45z M122.41,431.42v16.33h-1.42
		v-16.33H122.41z"/>
	<path class="st0" d="M131,435.75c0,2.97,1.86,5.93,4.22,7.06l-0.87,1.18c-1.86-0.93-3.35-2.88-4.1-5.17
		c-0.71,2.42-2.22,4.48-4.06,5.46l-0.91-1.18c2.37-1.18,4.22-4.33,4.22-7.35v-2.93H131V435.75z M138.74,431.42v16.35h-1.49v-9.59
		h-3.79v-1.22h3.79v-5.53H138.74z"/>
	<path class="st0" d="M156.82,439.74v1.2h-14.8v-1.2H156.82z M145.41,446.13h9.81v1.22h-11.3v-4.77h1.49V446.13z M155.13,437.56
		h-11.1v-5.53h1.49v4.31h9.61V437.56z"/>
	<path class="st0" d="M171.67,432.93c0,5.13-1.73,9.32-7.68,12.2l-1.26-1.89c4.28-2.06,6.13-4.68,6.48-8.39h-5.59v-1.91H171.67z
		 M176.65,431.19v16.77h-2.42v-16.77H176.65z"/>
	<path class="st0" d="M193.52,431.19v16.82h-2.4v-6.23h-3.42c-0.75,1.64-2.04,2.58-3.66,2.57c-2.49,0-4.33-2.31-4.33-6.01
		c0-3.68,1.84-5.97,4.33-5.97c1.51,0,2.77,0.82,3.51,2.26h3.57v-3.44H193.52z M186.11,438.34c0-2.48-0.84-3.8-2.08-3.8
		c-1.22,0-2.06,1.33-2.06,3.8c0,2.49,0.84,3.82,2.06,3.82C185.27,442.16,186.11,440.83,186.11,438.34z M191.11,439.83v-3.28h-2.91
		c0.11,0.55,0.16,1.15,0.16,1.78c0,0.53-0.04,1.04-0.11,1.49H191.11z"/>
	<path class="st0" d="M211.38,444.11v1.97H196.2v-1.97h6.37v-3.5h-4.61v-8.26h11.67v1.93h-9.25v4.41h9.38v1.93h-4.79v3.5H211.38z"/>
	<path class="st0" d="M217.16,443.05c0-1.62,1.07-2.66,2.31-3.31v-0.07c-1.02-0.75-1.78-1.71-1.78-3.09c0-2.17,1.73-3.55,4.06-3.55
		c2.38,0,3.91,1.42,3.91,3.57c0,1.29-0.87,2.35-1.73,2.95v0.09c1.22,0.69,2.26,1.66,2.26,3.42c0,2.04-1.8,3.6-4.53,3.6
		C219.09,446.66,217.16,445.17,217.16,443.05z M223.69,442.96c0-1.31-1.26-1.78-2.99-2.49c-0.71,0.56-1.24,1.37-1.24,2.29
		c0,1.22,1,2,2.26,2C222.87,444.77,223.69,444.13,223.69,442.96z M223.47,436.77c0-1.09-0.66-1.86-1.78-1.86
		c-0.91,0-1.64,0.58-1.64,1.66c0,1.2,1.06,1.77,2.46,2.31C223.13,438.23,223.47,437.52,223.47,436.77z"/>
	<path class="st0" d="M227.83,439.78c0-4.44,1.8-6.75,4.57-6.75s4.55,2.33,4.55,6.75c0,4.46-1.78,6.88-4.55,6.88
		S227.83,444.24,227.83,439.78z M234.42,439.78c0-3.64-0.86-4.66-2.02-4.66s-2.04,1.02-2.04,4.66c0,3.66,0.87,4.79,2.04,4.79
		S234.42,443.44,234.42,439.78z"/>
	<path class="st0" d="M238.34,436.92c0-2.69,1.35-4.24,3.28-4.24s3.29,1.55,3.29,4.24c0,2.71-1.37,4.3-3.29,4.3
		S238.34,439.63,238.34,436.92z M243.01,436.92c0-1.98-0.62-2.73-1.4-2.73c-0.78,0-1.38,0.75-1.38,2.73s0.6,2.79,1.38,2.79
		C242.4,439.71,243.01,438.9,243.01,436.92z M249.39,432.68h1.58l-7.32,13.98h-1.58L249.39,432.68z M248.13,442.36
		c0-2.71,1.37-4.26,3.28-4.26c1.91,0,3.29,1.55,3.29,4.26c0,2.69-1.38,4.3-3.29,4.3C249.49,446.66,248.13,445.06,248.13,442.36z
		 M252.81,442.36c0-1.98-0.62-2.75-1.4-2.75c-0.78,0-1.38,0.76-1.38,2.75s0.6,2.77,1.38,2.77
		C252.19,445.13,252.81,444.35,252.81,442.36z"/>
	<path class="st0" d="M265.36,438.34c0,3.7-1.88,6.01-4.41,6.01s-4.41-2.31-4.41-6.01c0-3.68,1.88-5.97,4.41-5.97
		S265.36,434.66,265.36,438.34z M258.86,438.34c0,2.49,0.86,3.82,2.09,3.82c1.24,0,2.09-1.33,2.09-3.82c0-2.48-0.86-3.8-2.09-3.8
		C259.71,434.54,258.86,435.86,258.86,438.34z M269.96,431.19v16.82h-2.4v-16.82H269.96z"/>
	<path class="st0" d="M281.45,440.49c-1.77-0.58-2.99-1.71-3.7-3.13c-0.73,1.64-2.02,2.93-3.93,3.6l-1.26-1.89
		c2.8-0.93,3.93-3.17,3.93-5.44v-1.51h2.44v1.71c0,2.02,1.13,3.99,3.77,4.81L281.45,440.49z M286.21,444.73
		c0,2.04-2.18,3.24-5.66,3.24c-3.5,0-5.68-1.2-5.68-3.24c0-2.02,2.18-3.22,5.68-3.22C284.02,441.51,286.21,442.71,286.21,444.73z
		 M283.82,444.73c0-0.93-1.15-1.37-3.28-1.37c-2.15,0-3.29,0.44-3.29,1.37c0,0.95,1.15,1.38,3.29,1.38
		C282.67,446.11,283.82,445.68,283.82,444.73z M288.24,435.1v1.98h-2.22v4.04h-2.4v-9.9h2.4v3.88H288.24z"/>
	<path class="st0" d="M289.65,442.65c2.95,0,7.06-0.02,10.59-0.55l0.15,1.73c-3.6,0.73-7.54,0.76-10.43,0.76L289.65,442.65z
		 M299.59,436.45c0,2.42-2,4.13-4.62,4.13s-4.61-1.71-4.61-4.13c0-2.4,1.98-4.13,4.61-4.13S299.59,434.04,299.59,436.45z
		 M292.69,436.45c0,1.31,0.98,2.08,2.28,2.08c1.29,0,2.28-0.76,2.28-2.08c0-1.31-0.98-2.08-2.28-2.08
		C293.68,434.37,292.69,435.14,292.69,436.45z M303.56,431.19v16.82h-2.4v-16.82H303.56z"/>
	<path class="st0" d="M314.84,442.02c2.93-0.02,4.81-0.11,6.83-0.49l0.22,1.98c-2.28,0.44-4.41,0.51-7.97,0.51h-1.47V432.7h8.1v1.95
		h-5.7V442.02z M325.32,431.2v16.82h-2.4V431.2H325.32z"/>
	<path class="st0" d="M334.34,435.72c0,2.55,1.33,5.52,4.08,6.79l-1.33,1.89c-1.86-0.86-3.17-2.53-3.91-4.51
		c-0.75,2.18-2.09,4.02-4,4.93l-1.35-1.91c2.75-1.27,4.11-4.42,4.11-7.19v-0.93h-3.48v-1.98h9.21v1.98h-3.33V435.72z M343.75,439.58
		h-2.44v8.39h-2.4V431.2h2.4v6.39h2.44V439.58z"/>
	<path class="st0" d="M349.74,440.78c-2.57,0-4.57-1.8-4.57-4.24c0-2.48,2-4.26,4.57-4.26c2.57,0,4.55,1.78,4.55,4.26
		C354.3,438.98,352.31,440.78,349.74,440.78z M349.74,438.7c1.26,0,2.2-0.82,2.2-2.17c0-1.38-0.95-2.18-2.2-2.18
		c-1.24,0-2.22,0.8-2.22,2.18C347.52,437.88,348.51,438.7,349.74,438.7z M359.28,445.77v1.91h-11.58v-5.61h2.4v3.7H359.28z
		 M358.86,443.25h-2.42v-12.03h2.42V443.25z"/>
	<path class="st0" d="M370.05,440.43h-7.5v-7.55h7.5V440.43z M368.59,434.08H364v5.17h4.59V434.08z M365.88,446.17h9.39v1.22h-10.89
		v-5.13h1.49V446.17z M376.95,436.39v1.26h-2.4v5.72h-1.49V431.4h1.49v4.99H376.95z"/>
	<path class="st0" d="M395.54,440.92c-1.8-0.71-3.2-2.11-3.9-3.88c-0.69,1.95-2.15,3.5-4.06,4.26l-0.78-1.18
		c2.44-0.89,4.08-3.2,4.08-5.7v-2.02h1.49v2.08c0,2.28,1.6,4.42,3.95,5.3L395.54,440.92z M400.62,446.17v1.22h-10.89v-5.1h1.49v3.88
		H400.62z M398.73,436.5h-3.57v-1.24h3.57v-3.82h1.51v12.2h-1.51V436.5z"/>
	<path class="st0" d="M418.34,444.44v1.22h-14.8v-1.22h6.63v-3.51h-4.88v-8.34h1.47v2.91h8.34v-2.91h1.46v8.34h-4.88v3.51H418.34z
		 M406.76,439.72h8.34v-3h-8.34V439.72z"/>
	<path class="st0" d="M429.19,435.96c0,2.26-1.8,3.77-4.28,3.77c-2.46,0-4.24-1.51-4.24-3.77c0-2.22,1.78-3.75,4.24-3.75
		C427.39,432.21,429.19,433.73,429.19,435.96z M422.13,435.96c0,1.49,1.17,2.53,2.79,2.53c1.66,0,2.82-1.04,2.82-2.53
		c0-1.47-1.17-2.51-2.82-2.51C423.3,433.44,422.13,434.48,422.13,435.96z M424.64,441v2h7.57v-2h1.47v6.54h-10.52V441H424.64z
		 M424.64,446.33h7.57v-2.17h-7.57V446.33z M433.69,431.44v8.76h-1.49v-8.76H433.69z"/>
	<path class="st0" d="M439.56,442.25c2.46,0,4.99-0.22,7.7-0.76l0.16,1.27c-2.84,0.58-5.41,0.76-8.01,0.76h-1.35v-10.52h1.49V442.25
		z M450.43,431.42v16.31h-1.49v-16.31H450.43z"/>
	<path class="st0" d="M455.98,442.44c2.89,0,4.99-0.13,7.35-0.55l0.16,1.24c-2.49,0.47-4.64,0.58-7.72,0.58h-1.29v-10.72h7.59v1.24
		h-6.1V442.44z M469.05,439.1h-2.69v8.68h-1.49v-16.37h1.49v6.44h2.69V439.1z"/>
	<path class="st0" d="M470.92,445.38c0-0.76,0.55-1.29,1.2-1.29s1.2,0.53,1.2,1.29c0,0.75-0.55,1.26-1.2,1.26
		S470.92,446.13,470.92,445.38z"/>
</g>
<g>
	<rect x="2.73" y="447.27" class="st0" width="308.12" height="0.75"/>
</g>
</svg>
