<svg width="13" height="16" viewBox="0 0 13 16" fill="none" xmlns="http://www.w3.org/2000/svg">
<path d="M7.25326 15.13C7.17076 15.13 7.0991 15.1018 7.03831 15.0453C6.98186 14.9932 6.94712 14.9216 6.93409 14.8304C6.83421 14.1182 6.72565 13.5189 6.6084 13.0326C6.49549 12.5505 6.3435 12.1532 6.15243 11.8405C5.96136 11.5279 5.7095 11.2782 5.39683 11.0915C5.08851 10.9047 4.69334 10.7549 4.21132 10.642C3.73364 10.5248 3.14306 10.4205 2.43957 10.3293C2.34403 10.3207 2.26804 10.2859 2.21159 10.2251C2.15513 10.1643 2.12691 10.0905 2.12691 10.0037C2.12691 9.92115 2.15513 9.8495 2.21159 9.7887C2.26804 9.72791 2.34403 9.69317 2.43957 9.68448C3.14306 9.60632 3.73582 9.51295 4.21784 9.40439C4.69986 9.29582 5.0972 9.14601 5.40986 8.95494C5.72252 8.76386 5.97439 8.50983 6.16546 8.19282C6.35653 7.87582 6.50852 7.47413 6.62143 6.98777C6.73867 6.49706 6.8429 5.89345 6.93409 5.17694C6.94712 5.09009 6.98186 5.0206 7.03831 4.96849C7.0991 4.91204 7.17076 4.88381 7.25326 4.88381C7.34011 4.88381 7.41177 4.91204 7.46822 4.96849C7.52467 5.0206 7.56158 5.09009 7.57895 5.17694C7.67015 5.89345 7.7722 6.49706 7.8851 6.98777C8.00235 7.47413 8.15434 7.87582 8.34107 8.19282C8.53214 8.50983 8.78401 8.76386 9.09667 8.95494C9.40933 9.14601 9.80667 9.29582 10.2887 9.40439C10.7707 9.51295 11.3656 9.60632 12.0735 9.68448C12.1647 9.69317 12.2385 9.72791 12.2949 9.7887C12.3514 9.8495 12.3796 9.92115 12.3796 10.0037C12.3796 10.0905 12.3514 10.1643 12.2949 10.2251C12.2385 10.2859 12.1647 10.3207 12.0735 10.3293C11.3656 10.4075 10.7707 10.5009 10.2887 10.6094C9.80667 10.718 9.40933 10.8678 9.09667 11.0589C8.78401 11.2456 8.53214 11.4975 8.34107 11.8145C8.15434 12.1315 8.00235 12.5354 7.8851 13.0261C7.7722 13.5168 7.67015 14.1182 7.57895 14.8304C7.56158 14.9216 7.52467 14.9932 7.46822 15.0453C7.41177 15.1018 7.34011 15.13 7.25326 15.13ZM2.83691 7.92576C2.70664 7.92576 2.63281 7.8541 2.61544 7.7108C2.56333 7.27655 2.50688 6.93566 2.44608 6.68814C2.38963 6.44061 2.29627 6.25605 2.16599 6.13446C2.04006 6.00853 1.84899 5.91299 1.59278 5.84786C1.34091 5.78272 0.993508 5.71324 0.55057 5.63941C0.402925 5.6177 0.329102 5.54388 0.329102 5.41795C0.329102 5.29636 0.394239 5.2247 0.524515 5.20299C0.971796 5.11614 1.32354 5.04015 1.57975 4.97501C1.83596 4.90553 2.0292 4.80999 2.15948 4.6884C2.28975 4.56681 2.38529 4.3866 2.44608 4.14776C2.50688 3.90457 2.56333 3.56586 2.61544 3.1316C2.63281 2.9883 2.70664 2.91665 2.83691 2.91665C2.96719 2.91665 3.04101 2.98613 3.05838 3.12509C3.11483 3.56369 3.17129 3.90892 3.22774 4.16078C3.28853 4.41265 3.3819 4.60372 3.50783 4.734C3.63811 4.85993 3.83135 4.9533 4.08756 5.01409C4.34377 5.07489 4.69769 5.13785 5.14931 5.20299C5.20576 5.20733 5.25136 5.22905 5.2861 5.26813C5.32518 5.30721 5.34472 5.35715 5.34472 5.41795C5.34472 5.53954 5.27958 5.61336 5.14931 5.63941C4.69769 5.72627 4.34377 5.80443 4.08756 5.87391C3.83569 5.93905 3.64462 6.03458 3.51435 6.16052C3.38841 6.28211 3.29505 6.4645 3.23425 6.70768C3.17346 6.95086 3.11483 7.28958 3.05838 7.72383C3.0497 7.78028 3.02581 7.82805 2.98673 7.86713C2.94765 7.90621 2.89771 7.92576 2.83691 7.92576ZM5.98959 3.44427C5.90708 3.44427 5.85931 3.40084 5.84628 3.31399C5.79417 3.0491 5.74858 2.84065 5.70949 2.68867C5.67475 2.53668 5.6183 2.4216 5.54014 2.34344C5.46631 2.26093 5.35124 2.19579 5.19491 2.14802C5.03857 2.10025 4.81928 2.05249 4.53701 2.00472C4.45016 1.98735 4.40674 1.93741 4.40674 1.8549C4.40674 1.77674 4.45016 1.72897 4.53701 1.7116C4.81928 1.65949 5.03857 1.61172 5.19491 1.56829C5.35124 1.52053 5.46631 1.45756 5.54014 1.37939C5.6183 1.29689 5.67475 1.17964 5.70949 1.02765C5.74858 0.875661 5.79417 0.667219 5.84628 0.402325C5.85931 0.315474 5.90708 0.272049 5.98959 0.272049C6.06775 0.272049 6.11552 0.315474 6.13289 0.402325C6.18066 0.667219 6.22408 0.875661 6.26317 1.02765C6.30225 1.17964 6.3587 1.29689 6.43253 1.37939C6.51069 1.45756 6.62794 1.52053 6.78427 1.56829C6.9406 1.61172 7.1599 1.65949 7.44216 1.7116C7.52901 1.72897 7.57244 1.77674 7.57244 1.8549C7.57244 1.93741 7.52901 1.98735 7.44216 2.00472C7.1599 2.05249 6.9406 2.10025 6.78427 2.14802C6.62794 2.19579 6.51069 2.26093 6.43253 2.34344C6.3587 2.4216 6.30225 2.53668 6.26317 2.68867C6.22408 2.84065 6.18066 3.0491 6.13289 3.31399C6.11552 3.40084 6.06775 3.44427 5.98959 3.44427Z" fill="#7461EC"/>
</svg>
