<svg width="15" height="15" viewBox="0 0 15 15" fill="none" xmlns="http://www.w3.org/2000/svg">
<path d="M7.34619 14.6924C6.34033 14.6924 5.39307 14.4995 4.50439 14.1138C3.62061 13.7329 2.83936 13.2056 2.16064 12.5317C1.48682 11.853 0.957031 11.0718 0.571289 10.188C0.19043 9.29932 0 8.35205 0 7.34619C0 6.34033 0.19043 5.39551 0.571289 4.51172C0.957031 3.62305 1.48682 2.8418 2.16064 2.16797C2.83447 1.48926 3.61328 0.959473 4.49707 0.578613C5.38574 0.192871 6.33301 0 7.33887 0C8.34473 0 9.29199 0.192871 10.1807 0.578613C11.0693 0.959473 11.8506 1.48926 12.5244 2.16797C13.1982 2.8418 13.728 3.62305 14.1138 4.51172C14.4995 5.39551 14.6924 6.34033 14.6924 7.34619C14.6924 8.35205 14.4995 9.29932 14.1138 10.188C13.728 11.0718 13.1982 11.853 12.5244 12.5317C11.8506 13.2056 11.0693 13.7329 10.1807 14.1138C9.29688 14.4995 8.35205 14.6924 7.34619 14.6924ZM7.34619 13.7476C8.22998 13.7476 9.05762 13.5815 9.8291 13.2495C10.6055 12.9175 11.2866 12.4585 11.8726 11.8726C12.4634 11.2866 12.9224 10.6079 13.2495 9.83643C13.5815 9.06006 13.7476 8.22998 13.7476 7.34619C13.7476 6.4624 13.5815 5.63477 13.2495 4.86328C12.9175 4.08691 12.4585 3.40576 11.8726 2.81982C11.2866 2.229 10.6055 1.77002 9.8291 1.44287C9.05762 1.11084 8.22754 0.944824 7.33887 0.944824C6.45508 0.944824 5.625 1.11084 4.84863 1.44287C4.07715 1.77002 3.39844 2.229 2.8125 2.81982C2.23145 3.40576 1.7749 4.08691 1.44287 4.86328C1.11572 5.63477 0.952148 6.4624 0.952148 7.34619C0.952148 8.22998 1.11572 9.06006 1.44287 9.83643C1.7749 10.6079 2.23389 11.2866 2.81982 11.8726C3.40576 12.4585 4.08447 12.9175 4.85596 13.2495C5.62744 13.5815 6.45752 13.7476 7.34619 13.7476ZM5.69824 10.6348C5.56641 10.6348 5.46387 10.6006 5.39062 10.5322C5.31738 10.459 5.28076 10.3638 5.28076 10.2466C5.28076 10.1831 5.29297 10.1245 5.31738 10.0708C5.3418 10.0122 5.38086 9.95361 5.43457 9.89502L7.84424 7.26562C8.0835 7.01172 8.28613 6.76514 8.45215 6.52588C8.61816 6.28662 8.70117 6.03516 8.70117 5.77148C8.70117 5.43457 8.58398 5.16602 8.34961 4.96582C8.12012 4.76074 7.81006 4.6582 7.41943 4.6582C7.02881 4.6582 6.71631 4.76318 6.48193 4.97314C6.24756 5.18311 6.09375 5.42969 6.02051 5.71289C5.97656 5.80078 5.92285 5.87402 5.85938 5.93262C5.80078 5.98633 5.71777 6.01318 5.61035 6.01318C5.49316 6.01318 5.40039 5.979 5.33203 5.91064C5.26367 5.84229 5.22949 5.74951 5.22949 5.63232C5.22949 5.59326 5.23193 5.5542 5.23682 5.51514C5.2417 5.47119 5.25146 5.4248 5.26611 5.37598C5.36377 4.95605 5.61279 4.60938 6.01318 4.33594C6.41357 4.05762 6.87012 3.91846 7.38281 3.91846C8.02734 3.91846 8.54248 4.08447 8.92822 4.4165C9.31885 4.74365 9.51416 5.17822 9.51416 5.72021C9.51416 6.08643 9.41895 6.42578 9.22852 6.73828C9.04297 7.05078 8.7793 7.39258 8.4375 7.76367L6.52588 9.8291V9.87305H9.44824C9.55566 9.87305 9.64355 9.90723 9.71191 9.97559C9.78516 10.0439 9.82178 10.1367 9.82178 10.2539C9.82178 10.3711 9.78516 10.4639 9.71191 10.5322C9.64355 10.6006 9.55566 10.6348 9.44824 10.6348H5.69824Z" fill="#7461EC"/>
</svg>
