<svg width="16" height="16" viewBox="0 0 16 16" fill="none" xmlns="http://www.w3.org/2000/svg">
<path d="M7.71143 15.3462C6.70557 15.3462 5.7583 15.1533 4.86963 14.7676C3.98584 14.3867 3.20459 13.8594 2.52588 13.1855C1.85205 12.5068 1.32227 11.7256 0.936523 10.8418C0.555664 9.95312 0.365234 9.00586 0.365234 8C0.365234 6.99414 0.555664 6.04932 0.936523 5.16553C1.32227 4.27686 1.85205 3.49561 2.52588 2.82178C3.19971 2.14307 3.97852 1.61328 4.8623 1.23242C5.75098 0.84668 6.69824 0.653809 7.7041 0.653809C8.70996 0.653809 9.65723 0.84668 10.5459 1.23242C11.4346 1.61328 12.2158 2.14307 12.8896 2.82178C13.5635 3.49561 14.0933 4.27686 14.479 5.16553C14.8647 6.04932 15.0576 6.99414 15.0576 8C15.0576 9.00586 14.8647 9.95312 14.479 10.8418C14.0933 11.7256 13.5635 12.5068 12.8896 13.1855C12.2158 13.8594 11.4346 14.3867 10.5459 14.7676C9.66211 15.1533 8.71729 15.3462 7.71143 15.3462ZM7.71143 14.4014C8.59521 14.4014 9.42285 14.2354 10.1943 13.9033C10.9707 13.5713 11.6519 13.1123 12.2378 12.5264C12.8286 11.9404 13.2876 11.2617 13.6147 10.4902C13.9468 9.71387 14.1128 8.88379 14.1128 8C14.1128 7.11621 13.9468 6.28857 13.6147 5.51709C13.2827 4.74072 12.8237 4.05957 12.2378 3.47363C11.6519 2.88281 10.9707 2.42383 10.1943 2.09668C9.42285 1.76465 8.59277 1.59863 7.7041 1.59863C6.82031 1.59863 5.99023 1.76465 5.21387 2.09668C4.44238 2.42383 3.76367 2.88281 3.17773 3.47363C2.59668 4.05957 2.14014 4.74072 1.80811 5.51709C1.48096 6.28857 1.31738 7.11621 1.31738 8C1.31738 8.88379 1.48096 9.71387 1.80811 10.4902C2.14014 11.2617 2.59912 11.9404 3.18506 12.5264C3.771 13.1123 4.44971 13.5713 5.22119 13.9033C5.99268 14.2354 6.82275 14.4014 7.71143 14.4014ZM8.04834 11.3105C7.91162 11.3105 7.8042 11.2666 7.72607 11.1787C7.64795 11.0908 7.60889 10.9688 7.60889 10.8125V5.67822H7.56494L6.42236 6.41797C6.36377 6.45703 6.31494 6.48389 6.27588 6.49854C6.2417 6.5083 6.20264 6.51318 6.15869 6.51318C6.06104 6.51318 5.98047 6.479 5.91699 6.41064C5.85352 6.3374 5.82178 6.25439 5.82178 6.16162C5.82178 6.0249 5.88281 5.91504 6.00488 5.83203L7.41846 4.89453C7.6333 4.74316 7.8335 4.66748 8.01904 4.66748C8.17041 4.66748 8.29004 4.71143 8.37793 4.79932C8.46582 4.88721 8.50977 5.01172 8.50977 5.17285V10.8125C8.50977 10.9688 8.46826 11.0908 8.38525 11.1787C8.30713 11.2666 8.19482 11.3105 8.04834 11.3105Z" fill="#7461EC"/>
</svg>
