<svg width="820" height="312" viewBox="0 0 820 312" fill="none" xmlns="http://www.w3.org/2000/svg">
<circle cx="100.4" cy="100.3" r="100" fill="#432DF1"/>
<path d="M26.6985 257.3C26.3844 257.3 26.1202 257.193 25.906 256.979C25.6918 256.765 25.5847 256.5 25.5847 256.186V241.685C25.5847 241.356 25.6918 241.092 25.906 240.892C26.1202 240.678 26.3844 240.571 26.6985 240.571H30.9825C32.0535 240.571 33.0032 240.807 33.8314 241.278C34.6596 241.749 35.3022 242.406 35.7592 243.249C36.2304 244.077 36.4661 245.034 36.4661 246.119C36.4661 247.161 36.2304 248.089 35.7592 248.903C35.3022 249.717 34.6596 250.353 33.8314 250.81C33.0032 251.267 32.0535 251.495 30.9825 251.495H27.8124V256.186C27.8124 256.5 27.7053 256.765 27.4911 256.979C27.2912 257.193 27.027 257.3 26.6985 257.3ZM27.8124 249.439H30.9825C31.6394 249.439 32.2178 249.296 32.7176 249.011C33.2174 248.725 33.6101 248.332 33.8957 247.832C34.1813 247.333 34.3241 246.761 34.3241 246.119C34.3241 245.433 34.1813 244.834 33.8957 244.32C33.6101 243.791 33.2174 243.377 32.7176 243.077C32.2178 242.777 31.6394 242.627 30.9825 242.627H27.8124V249.439ZM39.7657 249.974C39.7657 249.118 39.9728 248.354 40.3869 247.682C40.8153 246.997 41.3865 246.454 42.1005 246.055C42.8145 245.655 43.5999 245.455 44.4567 245.455C45.3135 245.455 45.949 245.598 46.3631 245.883C46.7915 246.155 46.9557 246.483 46.8558 246.869C46.8129 247.068 46.7272 247.226 46.5987 247.34C46.4845 247.44 46.3488 247.504 46.1917 247.533C46.0347 247.561 45.8633 247.554 45.6777 247.511C44.7637 247.325 43.9426 247.311 43.2144 247.468C42.4861 247.625 41.9077 247.918 41.4793 248.346C41.0652 248.775 40.8582 249.318 40.8582 249.974H39.7657ZM39.7872 257.3C39.4444 257.3 39.1803 257.214 38.9946 257.043C38.809 256.857 38.7162 256.586 38.7162 256.229V246.654C38.7162 246.312 38.809 246.047 38.9946 245.862C39.1803 245.676 39.4444 245.583 39.7872 245.583C40.1442 245.583 40.4083 245.676 40.5797 245.862C40.7653 246.033 40.8582 246.297 40.8582 246.654V256.229C40.8582 256.572 40.7653 256.836 40.5797 257.022C40.4083 257.207 40.1442 257.3 39.7872 257.3ZM50.4399 257.3C50.1258 257.3 49.8616 257.2 49.6474 257C49.4475 256.786 49.3475 256.522 49.3475 256.208V246.676C49.3475 246.347 49.4475 246.083 49.6474 245.883C49.8616 245.683 50.1258 245.583 50.4399 245.583C50.7684 245.583 51.0326 245.683 51.2325 245.883C51.4324 246.083 51.5324 246.347 51.5324 246.676V256.208C51.5324 256.522 51.4324 256.786 51.2325 257C51.0326 257.2 50.7684 257.3 50.4399 257.3ZM50.4399 243.677C50.0544 243.677 49.7188 243.541 49.4332 243.27C49.1619 242.984 49.0262 242.649 49.0262 242.263C49.0262 241.878 49.1619 241.549 49.4332 241.278C49.7188 240.992 50.0544 240.849 50.4399 240.849C50.8255 240.849 51.1539 240.992 51.4253 241.278C51.7109 241.549 51.8537 241.878 51.8537 242.263C51.8537 242.649 51.7109 242.984 51.4253 243.27C51.1539 243.541 50.8255 243.677 50.4399 243.677ZM70.9765 257.321C70.6624 257.321 70.3982 257.222 70.184 257.022C69.9841 256.807 69.8841 256.543 69.8841 256.229V250.103C69.8841 249.203 69.6628 248.539 69.2201 248.111C68.7774 247.668 68.1991 247.447 67.4851 247.447C66.7425 247.447 66.1285 247.704 65.6429 248.218C65.1717 248.732 64.9361 249.389 64.9361 250.189H63.1582C63.1582 249.26 63.3581 248.446 63.758 247.747C64.1578 247.033 64.7147 246.476 65.4287 246.076C66.157 245.676 66.9853 245.476 67.9135 245.476C68.7274 245.476 69.4486 245.655 70.0769 246.012C70.7052 246.369 71.1907 246.897 71.5334 247.597C71.8904 248.282 72.0689 249.118 72.0689 250.103V256.229C72.0689 256.543 71.969 256.807 71.7691 257.022C71.5691 257.222 71.305 257.321 70.9765 257.321ZM56.6894 257.321C56.3752 257.321 56.111 257.222 55.8968 257.022C55.6969 256.807 55.597 256.543 55.597 256.229V246.697C55.597 246.369 55.6969 246.105 55.8968 245.905C56.111 245.705 56.3752 245.605 56.6894 245.605C57.0178 245.605 57.282 245.705 57.4819 245.905C57.6818 246.105 57.7818 246.369 57.7818 246.697V256.229C57.7818 256.543 57.6818 256.807 57.4819 257.022C57.282 257.222 57.0178 257.321 56.6894 257.321ZM63.8437 257.321C63.5295 257.321 63.2653 257.222 63.0511 257.022C62.8512 256.807 62.7512 256.543 62.7512 256.229V250.103C62.7512 249.203 62.5299 248.539 62.0872 248.111C61.6445 247.668 61.0662 247.447 60.3522 247.447C59.6096 247.447 58.9956 247.704 58.5101 248.218C58.0246 248.732 57.7818 249.389 57.7818 250.189H56.4323C56.4323 249.26 56.618 248.446 56.9893 247.747C57.3605 247.033 57.8746 246.476 58.5315 246.076C59.1884 245.676 59.9381 245.476 60.7806 245.476C61.5946 245.476 62.3157 245.655 62.944 246.012C63.5723 246.369 64.0579 246.897 64.4006 247.597C64.7576 248.282 64.9361 249.118 64.9361 250.103V256.229C64.9361 256.543 64.8361 256.807 64.6362 257.022C64.4363 257.222 64.1721 257.321 63.8437 257.321ZM80.5829 257.386C79.5405 257.386 78.6051 257.129 77.7769 256.615C76.9486 256.086 76.2918 255.379 75.8062 254.494C75.335 253.594 75.0994 252.581 75.0994 251.452C75.0994 250.324 75.3564 249.31 75.8705 248.411C76.3989 247.511 77.1057 246.804 77.9911 246.29C78.8907 245.762 79.8975 245.498 81.0113 245.498C82.1251 245.498 83.1247 245.762 84.0101 246.29C84.8955 246.804 85.5952 247.511 86.1093 248.411C86.6376 249.31 86.9018 250.324 86.9018 251.452H86.0664C86.0664 252.581 85.8237 253.594 85.3381 254.494C84.8669 255.379 84.2172 256.086 83.3889 256.615C82.5607 257.129 81.6253 257.386 80.5829 257.386ZM81.0113 255.458C81.7396 255.458 82.3893 255.287 82.9605 254.944C83.5317 254.587 83.9815 254.108 84.31 253.509C84.6384 252.895 84.8026 252.209 84.8026 251.452C84.8026 250.681 84.6384 249.996 84.31 249.396C83.9815 248.782 83.5317 248.304 82.9605 247.961C82.3893 247.604 81.7396 247.425 81.0113 247.425C80.2973 247.425 79.6476 247.604 79.0621 247.961C78.4909 248.304 78.0339 248.782 77.6912 249.396C77.3628 249.996 77.1985 250.681 77.1985 251.452C77.1985 252.209 77.3628 252.895 77.6912 253.509C78.0339 254.108 78.4909 254.587 79.0621 254.944C79.6476 255.287 80.2973 255.458 81.0113 255.458ZM85.8094 257.321C85.4952 257.321 85.231 257.222 85.0168 257.022C84.8169 256.807 84.717 256.543 84.717 256.229V252.952L85.1239 250.681L86.9018 251.452V256.229C86.9018 256.543 86.7947 256.807 86.5805 257.022C86.3806 257.222 86.1235 257.321 85.8094 257.321ZM91.203 249.974C91.203 249.118 91.4101 248.354 91.8242 247.682C92.2526 246.997 92.8238 246.454 93.5378 246.055C94.2518 245.655 95.0372 245.455 95.894 245.455C96.7508 245.455 97.3863 245.598 97.8004 245.883C98.2288 246.155 98.393 246.483 98.293 246.869C98.2502 247.068 98.1645 247.226 98.036 247.34C97.9218 247.44 97.7861 247.504 97.629 247.533C97.4719 247.561 97.3006 247.554 97.1149 247.511C96.201 247.325 95.3799 247.311 94.6516 247.468C93.9234 247.625 93.345 247.918 92.9166 248.346C92.5025 248.775 92.2954 249.318 92.2954 249.974H91.203ZM91.2244 257.3C90.8817 257.3 90.6175 257.214 90.4319 257.043C90.2463 256.857 90.1534 256.586 90.1534 256.229V246.654C90.1534 246.312 90.2463 246.047 90.4319 245.862C90.6175 245.676 90.8817 245.583 91.2244 245.583C91.5814 245.583 91.8456 245.676 92.017 245.862C92.2026 246.033 92.2954 246.297 92.2954 246.654V256.229C92.2954 256.572 92.2026 256.836 92.017 257.022C91.8456 257.207 91.5814 257.3 91.2244 257.3ZM102.67 262.441C102.527 262.441 102.356 262.398 102.156 262.312C101.527 262.027 101.356 261.577 101.642 260.963L108.175 246.204C108.46 245.605 108.91 245.433 109.524 245.69C110.167 245.962 110.345 246.412 110.06 247.04L103.505 261.777C103.334 262.22 103.055 262.441 102.67 262.441ZM105.197 256.829C104.926 256.943 104.669 256.957 104.426 256.872C104.198 256.772 104.012 256.586 103.869 256.315L98.9641 246.997C98.8213 246.726 98.7999 246.469 98.8998 246.226C99.0141 245.969 99.2069 245.783 99.4782 245.669C99.7495 245.555 100.007 245.548 100.249 245.648C100.492 245.733 100.678 245.912 100.806 246.183L105.497 255.501C105.64 255.772 105.69 256.036 105.647 256.293C105.619 256.536 105.469 256.715 105.197 256.829ZM126.104 257.514C124.947 257.514 123.862 257.3 122.848 256.872C121.848 256.429 120.97 255.822 120.213 255.051C119.471 254.266 118.885 253.352 118.457 252.309C118.043 251.267 117.836 250.139 117.836 248.925C117.836 247.725 118.043 246.611 118.457 245.583C118.885 244.541 119.471 243.634 120.213 242.863C120.97 242.078 121.848 241.464 122.848 241.021C123.848 240.578 124.933 240.357 126.104 240.357C127.203 240.357 128.146 240.5 128.931 240.785C129.731 241.071 130.531 241.542 131.33 242.199C131.445 242.285 131.53 242.377 131.587 242.477C131.659 242.563 131.702 242.656 131.716 242.756C131.745 242.842 131.759 242.949 131.759 243.077C131.759 243.348 131.659 243.577 131.459 243.763C131.273 243.934 131.045 244.034 130.773 244.062C130.502 244.077 130.238 243.984 129.981 243.784C129.453 243.327 128.903 242.977 128.332 242.734C127.775 242.492 127.032 242.37 126.104 242.37C125.261 242.37 124.469 242.542 123.726 242.884C122.984 243.227 122.327 243.698 121.756 244.298C121.199 244.898 120.763 245.598 120.449 246.397C120.135 247.183 119.978 248.025 119.978 248.925C119.978 249.839 120.135 250.696 120.449 251.495C120.763 252.281 121.199 252.973 121.756 253.573C122.327 254.173 122.984 254.644 123.726 254.987C124.469 255.315 125.261 255.479 126.104 255.479C126.832 255.479 127.518 255.358 128.16 255.115C128.817 254.858 129.445 254.508 130.045 254.066C130.302 253.88 130.552 253.801 130.795 253.83C131.052 253.844 131.266 253.944 131.437 254.13C131.609 254.301 131.695 254.544 131.695 254.858C131.695 255.001 131.666 255.144 131.609 255.287C131.552 255.415 131.466 255.536 131.352 255.651C130.581 256.265 129.752 256.729 128.867 257.043C127.996 257.357 127.075 257.514 126.104 257.514ZM139.498 257.386C138.341 257.386 137.32 257.136 136.435 256.636C135.55 256.122 134.85 255.422 134.336 254.537C133.836 253.637 133.586 252.609 133.586 251.452C133.586 250.281 133.836 249.253 134.336 248.368C134.85 247.468 135.55 246.769 136.435 246.269C137.32 245.755 138.341 245.498 139.498 245.498C140.64 245.498 141.654 245.755 142.54 246.269C143.425 246.769 144.118 247.468 144.617 248.368C145.131 249.253 145.388 250.281 145.388 251.452C145.388 252.609 145.139 253.637 144.639 254.537C144.139 255.422 143.446 256.122 142.561 256.636C141.676 257.136 140.655 257.386 139.498 257.386ZM139.498 255.458C140.24 255.458 140.897 255.287 141.469 254.944C142.04 254.601 142.482 254.13 142.797 253.53C143.125 252.93 143.289 252.238 143.289 251.452C143.289 250.667 143.125 249.974 142.797 249.375C142.482 248.761 142.04 248.282 141.469 247.94C140.897 247.597 140.24 247.425 139.498 247.425C138.755 247.425 138.098 247.597 137.527 247.94C136.956 248.282 136.506 248.761 136.178 249.375C135.849 249.974 135.685 250.667 135.685 251.452C135.685 252.238 135.849 252.93 136.178 253.53C136.506 254.13 136.956 254.601 137.527 254.944C138.098 255.287 138.755 255.458 139.498 255.458ZM151.425 257.3C150.796 257.3 150.239 257.129 149.754 256.786C149.268 256.443 148.89 255.979 148.619 255.394C148.347 254.794 148.212 254.108 148.212 253.337V241.642C148.212 241.328 148.312 241.071 148.512 240.871C148.711 240.671 148.969 240.571 149.283 240.571C149.597 240.571 149.854 240.671 150.054 240.871C150.254 241.071 150.354 241.328 150.354 241.642V253.337C150.354 253.866 150.454 254.301 150.654 254.644C150.853 254.987 151.111 255.158 151.425 255.158H151.96C152.246 255.158 152.474 255.258 152.646 255.458C152.831 255.658 152.924 255.915 152.924 256.229C152.924 256.543 152.788 256.8 152.517 257C152.246 257.2 151.896 257.3 151.468 257.3H151.425ZM159.726 257.386C158.569 257.386 157.548 257.136 156.663 256.636C155.777 256.122 155.077 255.422 154.563 254.537C154.064 253.637 153.814 252.609 153.814 251.452C153.814 250.281 154.064 249.253 154.563 248.368C155.077 247.468 155.777 246.769 156.663 246.269C157.548 245.755 158.569 245.498 159.726 245.498C160.868 245.498 161.882 245.755 162.767 246.269C163.653 246.769 164.345 247.468 164.845 248.368C165.359 249.253 165.616 250.281 165.616 251.452C165.616 252.609 165.366 253.637 164.866 254.537C164.367 255.422 163.674 256.122 162.789 256.636C161.903 257.136 160.882 257.386 159.726 257.386ZM159.726 255.458C160.468 255.458 161.125 255.287 161.696 254.944C162.267 254.601 162.71 254.13 163.024 253.53C163.353 252.93 163.517 252.238 163.517 251.452C163.517 250.667 163.353 249.974 163.024 249.375C162.71 248.761 162.267 248.282 161.696 247.94C161.125 247.597 160.468 247.425 159.726 247.425C158.983 247.425 158.326 247.597 157.755 247.94C157.184 248.282 156.734 248.761 156.406 249.375C156.077 249.974 155.913 250.667 155.913 251.452C155.913 252.238 156.077 252.93 156.406 253.53C156.734 254.13 157.184 254.601 157.755 254.944C158.326 255.287 158.983 255.458 159.726 255.458ZM169.917 249.974C169.917 249.118 170.124 248.354 170.539 247.682C170.967 246.997 171.538 246.454 172.252 246.055C172.966 245.655 173.752 245.455 174.608 245.455C175.465 245.455 176.101 245.598 176.515 245.883C176.943 246.155 177.107 246.483 177.007 246.869C176.965 247.068 176.879 247.226 176.75 247.34C176.636 247.44 176.5 247.504 176.343 247.533C176.186 247.561 176.015 247.554 175.829 247.511C174.915 247.325 174.094 247.311 173.366 247.468C172.638 247.625 172.059 247.918 171.631 248.346C171.217 248.775 171.01 249.318 171.01 249.974H169.917ZM169.939 257.3C169.596 257.3 169.332 257.214 169.146 257.043C168.961 256.857 168.868 256.586 168.868 256.229V246.654C168.868 246.312 168.961 246.047 169.146 245.862C169.332 245.676 169.596 245.583 169.939 245.583C170.296 245.583 170.56 245.676 170.731 245.862C170.917 246.033 171.01 246.297 171.01 246.654V256.229C171.01 256.572 170.917 256.836 170.731 257.022C170.56 257.207 170.296 257.3 169.939 257.3ZM72.4691 286.382C72.7211 286.382 72.9251 286.442 73.0811 286.562C73.2371 286.682 73.2971 286.88 73.2611 287.156C73.2491 287.384 73.1411 287.564 72.9371 287.696C72.7331 287.828 72.4991 287.894 72.2351 287.894H71.0291L70.5971 290.45H71.7491C72.0251 290.45 72.2291 290.516 72.3611 290.648C72.5051 290.78 72.5771 290.954 72.5771 291.17C72.5771 291.362 72.4811 291.542 72.2891 291.71C72.0971 291.878 71.8391 291.962 71.5151 291.962H70.2191L69.6251 295.4C69.5771 295.664 69.4691 295.88 69.3011 296.048C69.1451 296.216 68.9291 296.3 68.6531 296.3C68.3891 296.3 68.1911 296.204 68.0591 296.012C67.9391 295.82 67.9031 295.592 67.9511 295.328L68.5091 291.962H65.7371L65.1611 295.4C65.1131 295.652 64.9991 295.868 64.8191 296.048C64.6511 296.216 64.4411 296.3 64.1891 296.3C63.9251 296.3 63.7271 296.222 63.5951 296.066C63.4631 295.898 63.4211 295.652 63.4691 295.328L64.0451 291.962H62.8031C62.5511 291.962 62.3471 291.902 62.1911 291.782C62.0471 291.65 61.9811 291.482 61.9931 291.278C62.0171 291.002 62.1191 290.798 62.2991 290.666C62.4911 290.522 62.7371 290.45 63.0371 290.45H64.4231L64.8371 287.894H63.5051C63.2651 287.894 63.0671 287.84 62.9111 287.732C62.7551 287.624 62.6771 287.456 62.6771 287.228C62.6771 286.94 62.7731 286.73 62.9651 286.598C63.1571 286.454 63.4151 286.382 63.7391 286.382H65.1971L65.7911 283.124C65.8511 282.848 65.9591 282.632 66.1151 282.476C66.2711 282.308 66.4871 282.224 66.7631 282.224C67.0271 282.224 67.2251 282.314 67.3571 282.494C67.5011 282.674 67.5431 282.908 67.4831 283.196L66.9071 286.382H69.6791L70.2731 283.124C70.3211 282.872 70.4291 282.662 70.5971 282.494C70.7651 282.314 70.9811 282.224 71.2451 282.224C71.5211 282.224 71.7191 282.314 71.8391 282.494C71.9711 282.674 72.0071 282.908 71.9471 283.196L71.3891 286.382H72.4691ZM68.8871 290.45L69.3191 287.894H66.5471L66.1331 290.45H68.8871ZM82.2214 296.3C81.9814 296.3 81.7774 296.21 81.6094 296.03C81.4414 295.85 81.3574 295.634 81.3574 295.382V293.114H75.3634C75.0874 293.114 74.8714 293.03 74.7154 292.862C74.5594 292.694 74.4694 292.502 74.4454 292.286C74.4334 292.058 74.4934 291.854 74.6254 291.674L81.5194 282.638C81.6154 282.518 81.7234 282.422 81.8434 282.35C81.9754 282.278 82.1194 282.242 82.2754 282.242C82.5274 282.242 82.7314 282.332 82.8874 282.512C83.0434 282.692 83.1214 282.914 83.1214 283.178V291.458H84.2014C84.4534 291.458 84.6694 291.518 84.8495 291.638C85.0294 291.758 85.1194 291.974 85.1194 292.286C85.1194 292.514 85.0294 292.712 84.8495 292.88C84.6694 293.036 84.4534 293.114 84.2014 293.114H83.1214V295.382C83.1214 295.634 83.0374 295.85 82.8694 296.03C82.7014 296.21 82.4854 296.3 82.2214 296.3ZM76.4434 291.962L75.9574 291.458H81.3574V284.042L81.9154 284.762L76.4434 291.962ZM91.4612 296.3C90.5612 296.3 89.7632 296.114 89.0672 295.742C88.3712 295.358 87.8252 294.842 87.4292 294.194C87.0332 293.534 86.8352 292.796 86.8352 291.98C86.8352 291.704 86.9132 291.482 87.0692 291.314C87.2372 291.134 87.4352 291.044 87.6632 291.044C87.9032 291.044 88.1012 291.134 88.2572 291.314C88.4132 291.482 88.4912 291.704 88.4912 291.98C88.4912 292.472 88.6172 292.928 88.8692 293.348C89.1212 293.756 89.4632 294.086 89.8952 294.338C90.3272 294.578 90.8132 294.698 91.3532 294.698C92.1452 294.698 92.7812 294.482 93.2612 294.05C93.7532 293.606 93.9992 292.988 93.9992 292.196C93.9992 291.692 93.8912 291.242 93.6752 290.846C93.4592 290.438 93.1652 290.114 92.7932 289.874C92.4212 289.634 92.0012 289.514 91.5332 289.514C91.2692 289.514 91.0472 289.424 90.8672 289.244C90.6992 289.064 90.6152 288.842 90.6152 288.578C90.6152 288.314 90.6992 288.098 90.8672 287.93C91.0472 287.75 91.2692 287.66 91.5332 287.66C91.8692 287.66 92.1932 287.576 92.5052 287.408C92.8172 287.228 93.0752 286.994 93.2792 286.706C93.4832 286.406 93.5852 286.07 93.5852 285.698C93.5852 285.17 93.3932 284.726 93.0092 284.366C92.6252 284.006 92.1332 283.826 91.5332 283.826C91.0772 283.826 90.6572 283.916 90.2732 284.096C89.9012 284.276 89.6012 284.516 89.3732 284.816C89.1572 285.116 89.0492 285.452 89.0492 285.824C89.0492 286.1 88.9712 286.334 88.8152 286.526C88.6592 286.706 88.4612 286.796 88.2212 286.796C87.9932 286.796 87.7952 286.712 87.6272 286.544C87.4712 286.364 87.3932 286.142 87.3932 285.878C87.3932 285.182 87.5732 284.558 87.9332 284.006C88.2932 283.454 88.7852 283.022 89.4092 282.71C90.0332 282.386 90.7292 282.224 91.4972 282.224C92.2052 282.224 92.8412 282.38 93.4052 282.692C93.9812 282.992 94.4312 283.406 94.7552 283.934C95.0912 284.45 95.2592 285.038 95.2592 285.698C95.2592 286.166 95.1512 286.58 94.9352 286.94C94.7312 287.3 94.4672 287.612 94.1432 287.876C93.8192 288.128 93.4772 288.338 93.1172 288.506C93.7532 288.722 94.2692 289.016 94.6652 289.388C95.0612 289.748 95.3492 290.168 95.5292 290.648C95.7212 291.128 95.8172 291.65 95.8172 292.214C95.8172 292.994 95.6192 293.696 95.2232 294.32C94.8272 294.932 94.2992 295.418 93.6392 295.778C92.9792 296.126 92.2532 296.3 91.4612 296.3ZM98.7086 296.3C98.4446 296.3 98.2226 296.21 98.0426 296.03C97.8746 295.85 97.7906 295.634 97.7906 295.382C97.7906 295.118 97.8746 294.902 98.0426 294.734L103.155 288.758C103.515 288.338 103.791 287.942 103.983 287.57C104.187 287.198 104.289 286.844 104.289 286.508C104.289 285.98 104.199 285.524 104.019 285.14C103.839 284.756 103.581 284.462 103.245 284.258C102.909 284.042 102.507 283.934 102.039 283.934C101.583 283.934 101.169 284.054 100.797 284.294C100.437 284.522 100.149 284.834 99.9326 285.23C99.7286 285.614 99.6266 286.04 99.6266 286.508C99.6266 286.748 99.5366 286.958 99.3566 287.138C99.1886 287.318 98.9726 287.408 98.7086 287.408C98.4566 287.408 98.2406 287.318 98.0606 287.138C97.8806 286.958 97.7906 286.748 97.7906 286.508C97.7906 285.692 97.9766 284.966 98.3486 284.33C98.7206 283.682 99.2246 283.172 99.8606 282.8C100.509 282.428 101.235 282.242 102.039 282.242C102.855 282.242 103.563 282.416 104.163 282.764C104.763 283.112 105.225 283.604 105.549 284.24C105.885 284.876 106.053 285.632 106.053 286.508C106.053 286.892 105.969 287.282 105.801 287.678C105.645 288.074 105.441 288.452 105.189 288.812C104.949 289.172 104.703 289.496 104.451 289.784L100.329 294.464H105.369C105.633 294.464 105.855 294.56 106.035 294.752C106.215 294.932 106.305 295.142 106.305 295.382C106.305 295.634 106.215 295.85 106.035 296.03C105.855 296.21 105.633 296.3 105.369 296.3H98.7086ZM109.939 296.3C109.675 296.3 109.453 296.21 109.273 296.03C109.093 295.85 109.003 295.628 109.003 295.364V283.178C109.003 282.902 109.093 282.68 109.273 282.512C109.453 282.332 109.675 282.242 109.939 282.242H113.197C114.229 282.242 115.165 282.416 116.005 282.764C116.857 283.1 117.595 283.586 118.219 284.222C118.843 284.846 119.323 285.584 119.659 286.436C119.995 287.288 120.163 288.23 120.163 289.262C120.163 290.294 119.995 291.242 119.659 292.106C119.323 292.958 118.843 293.702 118.219 294.338C117.595 294.962 116.857 295.448 116.005 295.796C115.165 296.132 114.229 296.3 113.197 296.3H109.939ZM110.875 294.644H113.197C114.205 294.644 115.093 294.416 115.861 293.96C116.641 293.492 117.253 292.856 117.697 292.052C118.141 291.236 118.363 290.306 118.363 289.262C118.363 288.206 118.141 287.276 117.697 286.472C117.253 285.668 116.641 285.038 115.861 284.582C115.093 284.126 114.205 283.898 113.197 283.898H110.875V294.644ZM122.902 296.3C122.638 296.3 122.416 296.21 122.236 296.03C122.056 295.85 121.966 295.628 121.966 295.364V283.178C121.966 282.902 122.056 282.68 122.236 282.512C122.416 282.332 122.638 282.242 122.902 282.242H131.038C131.314 282.242 131.536 282.326 131.704 282.494C131.872 282.65 131.956 282.86 131.956 283.124C131.956 283.376 131.872 283.58 131.704 283.736C131.536 283.892 131.314 283.97 131.038 283.97H123.838V288.344H129.004C129.28 288.344 129.502 288.428 129.67 288.596C129.838 288.752 129.922 288.956 129.922 289.208C129.922 289.46 129.838 289.67 129.67 289.838C129.502 289.994 129.28 290.072 129.004 290.072H123.838V295.364C123.838 295.628 123.748 295.85 123.568 296.03C123.388 296.21 123.166 296.3 122.902 296.3ZM136.888 296.3C136.648 296.3 136.438 296.21 136.258 296.03C136.078 295.85 135.988 295.634 135.988 295.382V284.402L134.674 284.96C134.47 285.044 134.278 285.086 134.098 285.086C133.834 285.086 133.612 285.002 133.432 284.834C133.264 284.666 133.18 284.45 133.18 284.186C133.18 283.994 133.228 283.82 133.324 283.664C133.42 283.508 133.57 283.394 133.774 283.322L136.582 282.314C136.642 282.29 136.702 282.272 136.762 282.26C136.822 282.248 136.876 282.242 136.924 282.242C137.2 282.242 137.416 282.332 137.572 282.512C137.74 282.68 137.824 282.902 137.824 283.178V295.382C137.824 295.634 137.734 295.85 137.554 296.03C137.374 296.21 137.152 296.3 136.888 296.3Z" fill="black"/>
<circle cx="390.4" cy="100.3" r="100" fill="#FFDD12"/>
<path d="M303.755 247.514C302.841 247.514 301.97 247.371 301.141 247.086C300.313 246.8 299.592 246.4 298.978 245.886C298.364 245.372 297.914 244.78 297.628 244.108C297.486 243.809 297.486 243.53 297.628 243.273C297.786 243.016 298.043 242.852 298.4 242.78C298.657 242.723 298.907 242.766 299.149 242.909C299.406 243.037 299.599 243.237 299.728 243.509C299.899 243.866 300.177 244.194 300.563 244.494C300.963 244.794 301.441 245.037 301.998 245.222C302.555 245.408 303.141 245.501 303.755 245.501C304.44 245.501 305.068 245.394 305.64 245.179C306.225 244.965 306.696 244.658 307.053 244.258C307.41 243.844 307.589 243.337 307.589 242.738C307.589 241.981 307.289 241.302 306.689 240.703C306.104 240.103 305.133 239.732 303.776 239.589C302.005 239.417 300.613 238.896 299.599 238.025C298.585 237.154 298.078 236.076 298.078 234.791C298.078 233.848 298.342 233.049 298.871 232.392C299.399 231.735 300.113 231.235 301.013 230.892C301.927 230.55 302.941 230.378 304.054 230.378C304.926 230.378 305.682 230.5 306.325 230.742C306.982 230.985 307.553 231.321 308.039 231.749C308.524 232.178 308.945 232.684 309.302 233.27C309.502 233.584 309.581 233.884 309.538 234.17C309.509 234.441 309.374 234.655 309.131 234.812C308.86 234.984 308.567 235.019 308.253 234.919C307.939 234.819 307.703 234.634 307.546 234.362C307.317 233.948 307.039 233.598 306.711 233.313C306.382 233.027 305.997 232.806 305.554 232.649C305.111 232.477 304.59 232.392 303.99 232.392C302.933 232.377 302.048 232.577 301.334 232.991C300.62 233.391 300.263 234.013 300.263 234.855C300.263 235.283 300.37 235.698 300.584 236.097C300.813 236.483 301.22 236.819 301.805 237.104C302.405 237.39 303.262 237.59 304.376 237.704C306.075 237.875 307.396 238.396 308.338 239.268C309.295 240.124 309.774 241.26 309.774 242.673C309.774 243.487 309.602 244.194 309.26 244.794C308.931 245.394 308.481 245.901 307.91 246.315C307.353 246.715 306.711 247.014 305.982 247.214C305.268 247.414 304.526 247.514 303.755 247.514ZM318.48 247.386C317.295 247.386 316.238 247.136 315.31 246.636C314.396 246.122 313.675 245.422 313.147 244.537C312.633 243.637 312.376 242.609 312.376 241.452C312.376 240.281 312.618 239.253 313.104 238.368C313.604 237.468 314.289 236.769 315.16 236.269C316.031 235.755 317.031 235.498 318.159 235.498C319.273 235.498 320.23 235.748 321.029 236.247C321.829 236.733 322.436 237.411 322.85 238.282C323.278 239.139 323.493 240.131 323.493 241.26C323.493 241.531 323.4 241.759 323.214 241.945C323.029 242.116 322.793 242.202 322.507 242.202H313.875V240.488H322.443L321.565 241.088C321.551 240.374 321.408 239.739 321.136 239.182C320.865 238.611 320.48 238.161 319.98 237.832C319.48 237.504 318.873 237.34 318.159 237.34C317.345 237.34 316.645 237.518 316.06 237.875C315.489 238.232 315.053 238.725 314.753 239.353C314.453 239.967 314.303 240.667 314.303 241.452C314.303 242.238 314.482 242.938 314.839 243.552C315.196 244.166 315.689 244.651 316.317 245.008C316.945 245.365 317.666 245.544 318.48 245.544C318.923 245.544 319.373 245.465 319.83 245.308C320.301 245.137 320.679 244.944 320.965 244.73C321.179 244.573 321.408 244.494 321.65 244.494C321.908 244.48 322.129 244.551 322.315 244.708C322.557 244.922 322.686 245.158 322.7 245.415C322.714 245.672 322.6 245.893 322.357 246.079C321.872 246.465 321.265 246.779 320.537 247.022C319.823 247.264 319.137 247.386 318.48 247.386ZM331.173 247.386C330.031 247.386 329.01 247.129 328.11 246.615C327.225 246.086 326.525 245.379 326.011 244.494C325.511 243.594 325.261 242.581 325.261 241.452C325.261 240.296 325.511 239.268 326.011 238.368C326.511 237.468 327.196 236.769 328.067 236.269C328.938 235.755 329.938 235.498 331.066 235.498C331.908 235.498 332.68 235.662 333.379 235.99C334.079 236.304 334.707 236.783 335.264 237.425C335.464 237.654 335.536 237.89 335.478 238.132C335.421 238.375 335.264 238.589 335.007 238.775C334.807 238.918 334.586 238.968 334.343 238.925C334.1 238.868 333.879 238.739 333.679 238.539C332.979 237.797 332.108 237.425 331.066 237.425C330.338 237.425 329.695 237.597 329.138 237.94C328.581 238.268 328.146 238.732 327.832 239.332C327.517 239.932 327.36 240.638 327.36 241.452C327.36 242.224 327.517 242.909 327.832 243.509C328.16 244.108 328.61 244.587 329.181 244.944C329.752 245.287 330.416 245.458 331.173 245.458C331.673 245.458 332.108 245.401 332.48 245.287C332.865 245.158 333.215 244.965 333.529 244.708C333.758 244.523 333.993 244.423 334.236 244.408C334.479 244.38 334.693 244.444 334.879 244.601C335.121 244.801 335.257 245.03 335.286 245.287C335.314 245.529 335.229 245.751 335.029 245.951C334 246.907 332.715 247.386 331.173 247.386ZM344.038 247.386C342.881 247.386 341.86 247.136 340.975 246.636C340.089 246.122 339.389 245.422 338.875 244.537C338.376 243.637 338.126 242.609 338.126 241.452C338.126 240.281 338.376 239.253 338.875 238.368C339.389 237.468 340.089 236.769 340.975 236.269C341.86 235.755 342.881 235.498 344.038 235.498C345.18 235.498 346.194 235.755 347.079 236.269C347.965 236.769 348.657 237.468 349.157 238.368C349.671 239.253 349.928 240.281 349.928 241.452C349.928 242.609 349.678 243.637 349.178 244.537C348.679 245.422 347.986 246.122 347.101 246.636C346.215 247.136 345.194 247.386 344.038 247.386ZM344.038 245.458C344.78 245.458 345.437 245.287 346.008 244.944C346.579 244.601 347.022 244.13 347.336 243.53C347.665 242.93 347.829 242.238 347.829 241.452C347.829 240.667 347.665 239.974 347.336 239.375C347.022 238.761 346.579 238.282 346.008 237.94C345.437 237.597 344.78 237.425 344.038 237.425C343.295 237.425 342.638 237.597 342.067 237.94C341.496 238.282 341.046 238.761 340.717 239.375C340.389 239.974 340.225 240.667 340.225 241.452C340.225 242.238 340.389 242.93 340.717 243.53C341.046 244.13 341.496 244.601 342.067 244.944C342.638 245.287 343.295 245.458 344.038 245.458ZM363.076 247.321C362.762 247.321 362.497 247.222 362.283 247.022C362.083 246.807 361.983 246.543 361.983 246.229V240.96C361.983 240.146 361.833 239.482 361.534 238.968C361.234 238.454 360.827 238.075 360.313 237.832C359.813 237.575 359.234 237.447 358.578 237.447C357.978 237.447 357.435 237.568 356.95 237.811C356.464 238.054 356.079 238.382 355.793 238.796C355.507 239.196 355.365 239.66 355.365 240.189H354.015C354.015 239.289 354.229 238.489 354.658 237.79C355.1 237.076 355.7 236.512 356.457 236.097C357.214 235.683 358.063 235.476 359.006 235.476C359.991 235.476 360.87 235.69 361.641 236.119C362.426 236.533 363.04 237.147 363.483 237.961C363.94 238.775 364.168 239.774 364.168 240.96V246.229C364.168 246.543 364.061 246.807 363.847 247.022C363.647 247.222 363.39 247.321 363.076 247.321ZM354.272 247.321C353.958 247.321 353.694 247.222 353.48 247.022C353.28 246.807 353.18 246.543 353.18 246.229V236.676C353.18 236.347 353.28 236.083 353.48 235.883C353.694 235.683 353.958 235.583 354.272 235.583C354.601 235.583 354.865 235.683 355.065 235.883C355.265 236.083 355.365 236.347 355.365 236.676V246.229C355.365 246.543 355.265 246.807 355.065 247.022C354.865 247.222 354.601 247.321 354.272 247.321ZM373.093 247.386C371.979 247.386 370.972 247.129 370.072 246.615C369.187 246.086 368.48 245.372 367.952 244.473C367.438 243.573 367.181 242.559 367.181 241.431C367.181 240.303 367.416 239.296 367.888 238.411C368.373 237.511 369.03 236.804 369.858 236.29C370.686 235.762 371.622 235.498 372.664 235.498C373.507 235.498 374.285 235.676 374.999 236.033C375.713 236.376 376.313 236.847 376.798 237.447V231.663C376.798 231.335 376.898 231.071 377.098 230.871C377.312 230.671 377.577 230.571 377.891 230.571C378.219 230.571 378.483 230.671 378.683 230.871C378.883 231.071 378.983 231.335 378.983 231.663V241.431C378.983 242.559 378.719 243.573 378.191 244.473C377.677 245.372 376.977 246.086 376.091 246.615C375.206 247.129 374.206 247.386 373.093 247.386ZM373.093 245.458C373.821 245.458 374.471 245.287 375.042 244.944C375.613 244.587 376.063 244.101 376.391 243.487C376.72 242.873 376.884 242.188 376.884 241.431C376.884 240.66 376.72 239.974 376.391 239.375C376.063 238.775 375.613 238.304 375.042 237.961C374.471 237.604 373.821 237.425 373.093 237.425C372.379 237.425 371.729 237.604 371.143 237.961C370.572 238.304 370.115 238.775 369.773 239.375C369.444 239.974 369.28 240.66 369.28 241.431C369.28 242.188 369.444 242.873 369.773 243.487C370.115 244.101 370.572 244.587 371.143 244.944C371.729 245.287 372.379 245.458 373.093 245.458ZM387.725 247.386C386.683 247.386 385.747 247.129 384.919 246.615C384.091 246.086 383.434 245.379 382.949 244.494C382.477 243.594 382.242 242.581 382.242 241.452C382.242 240.324 382.499 239.31 383.013 238.411C383.541 237.511 384.248 236.804 385.133 236.29C386.033 235.762 387.04 235.498 388.154 235.498C389.267 235.498 390.267 235.762 391.152 236.29C392.038 236.804 392.737 237.511 393.252 238.411C393.78 239.31 394.044 240.324 394.044 241.452H393.209C393.209 242.581 392.966 243.594 392.48 244.494C392.009 245.379 391.359 246.086 390.531 246.615C389.703 247.129 388.768 247.386 387.725 247.386ZM388.154 245.458C388.882 245.458 389.532 245.287 390.103 244.944C390.674 244.587 391.124 244.108 391.452 243.509C391.781 242.895 391.945 242.209 391.945 241.452C391.945 240.681 391.781 239.996 391.452 239.396C391.124 238.782 390.674 238.304 390.103 237.961C389.532 237.604 388.882 237.425 388.154 237.425C387.44 237.425 386.79 237.604 386.204 237.961C385.633 238.304 385.176 238.782 384.833 239.396C384.505 239.996 384.341 240.681 384.341 241.452C384.341 242.209 384.505 242.895 384.833 243.509C385.176 244.108 385.633 244.587 386.204 244.944C386.79 245.287 387.44 245.458 388.154 245.458ZM392.952 247.321C392.637 247.321 392.373 247.222 392.159 247.022C391.959 246.807 391.859 246.543 391.859 246.229V242.952L392.266 240.681L394.044 241.452V246.229C394.044 246.543 393.937 246.807 393.723 247.022C393.523 247.222 393.266 247.321 392.952 247.321ZM398.345 239.974C398.345 239.118 398.552 238.354 398.966 237.682C399.395 236.997 399.966 236.454 400.68 236.055C401.394 235.655 402.179 235.455 403.036 235.455C403.893 235.455 404.529 235.598 404.943 235.883C405.371 236.155 405.535 236.483 405.435 236.869C405.392 237.068 405.307 237.226 405.178 237.34C405.064 237.44 404.928 237.504 404.771 237.533C404.614 237.561 404.443 237.554 404.257 237.511C403.343 237.325 402.522 237.311 401.794 237.468C401.066 237.625 400.487 237.918 400.059 238.346C399.645 238.775 399.438 239.318 399.438 239.974H398.345ZM398.367 247.3C398.024 247.3 397.76 247.214 397.574 247.043C397.389 246.857 397.296 246.586 397.296 246.229V236.654C397.296 236.312 397.389 236.047 397.574 235.862C397.76 235.676 398.024 235.583 398.367 235.583C398.724 235.583 398.988 235.676 399.159 235.862C399.345 236.033 399.438 236.297 399.438 236.654V246.229C399.438 246.572 399.345 246.836 399.159 247.022C398.988 247.207 398.724 247.3 398.367 247.3ZM409.812 252.441C409.669 252.441 409.498 252.398 409.298 252.312C408.67 252.027 408.498 251.577 408.784 250.963L415.317 236.204C415.603 235.605 416.052 235.433 416.666 235.69C417.309 235.962 417.488 236.412 417.202 237.04L410.647 251.777C410.476 252.22 410.198 252.441 409.812 252.441ZM412.34 246.829C412.068 246.943 411.811 246.957 411.568 246.872C411.34 246.772 411.154 246.586 411.012 246.315L406.106 236.997C405.964 236.726 405.942 236.469 406.042 236.226C406.156 235.969 406.349 235.783 406.62 235.669C406.892 235.555 407.149 235.548 407.392 235.648C407.634 235.733 407.82 235.912 407.948 236.183L412.639 245.501C412.782 245.772 412.832 246.036 412.789 246.293C412.761 246.536 412.611 246.715 412.34 246.829ZM433.246 247.514C432.089 247.514 431.004 247.3 429.99 246.872C428.991 246.429 428.113 245.822 427.356 245.051C426.613 244.266 426.028 243.352 425.599 242.309C425.185 241.267 424.978 240.139 424.978 238.925C424.978 237.725 425.185 236.611 425.599 235.583C426.028 234.541 426.613 233.634 427.356 232.863C428.113 232.078 428.991 231.464 429.99 231.021C430.99 230.578 432.075 230.357 433.246 230.357C434.346 230.357 435.288 230.5 436.074 230.785C436.873 231.071 437.673 231.542 438.473 232.199C438.587 232.285 438.673 232.377 438.73 232.477C438.801 232.563 438.844 232.656 438.858 232.756C438.887 232.842 438.901 232.949 438.901 233.077C438.901 233.348 438.801 233.577 438.601 233.763C438.416 233.934 438.187 234.034 437.916 234.062C437.644 234.077 437.38 233.984 437.123 233.784C436.595 233.327 436.045 232.977 435.474 232.734C434.917 232.492 434.174 232.37 433.246 232.37C432.404 232.37 431.611 232.542 430.869 232.884C430.126 233.227 429.469 233.698 428.898 234.298C428.341 234.898 427.905 235.598 427.591 236.397C427.277 237.183 427.12 238.025 427.12 238.925C427.12 239.839 427.277 240.696 427.591 241.495C427.905 242.281 428.341 242.973 428.898 243.573C429.469 244.173 430.126 244.644 430.869 244.987C431.611 245.315 432.404 245.479 433.246 245.479C433.974 245.479 434.66 245.358 435.302 245.115C435.959 244.858 436.588 244.508 437.187 244.066C437.444 243.88 437.694 243.801 437.937 243.83C438.194 243.844 438.408 243.944 438.58 244.13C438.751 244.301 438.837 244.544 438.837 244.858C438.837 245.001 438.808 245.144 438.751 245.287C438.694 245.415 438.608 245.536 438.494 245.651C437.723 246.265 436.895 246.729 436.009 247.043C435.138 247.357 434.217 247.514 433.246 247.514ZM446.64 247.386C445.484 247.386 444.462 247.136 443.577 246.636C442.692 246.122 441.992 245.422 441.478 244.537C440.978 243.637 440.728 242.609 440.728 241.452C440.728 240.281 440.978 239.253 441.478 238.368C441.992 237.468 442.692 236.769 443.577 236.269C444.462 235.755 445.484 235.498 446.64 235.498C447.783 235.498 448.796 235.755 449.682 236.269C450.567 236.769 451.26 237.468 451.76 238.368C452.274 239.253 452.531 240.281 452.531 241.452C452.531 242.609 452.281 243.637 451.781 244.537C451.281 245.422 450.589 246.122 449.703 246.636C448.818 247.136 447.797 247.386 446.64 247.386ZM446.64 245.458C447.383 245.458 448.04 245.287 448.611 244.944C449.182 244.601 449.625 244.13 449.939 243.53C450.267 242.93 450.432 242.238 450.432 241.452C450.432 240.667 450.267 239.974 449.939 239.375C449.625 238.761 449.182 238.282 448.611 237.94C448.04 237.597 447.383 237.425 446.64 237.425C445.898 237.425 445.241 237.597 444.67 237.94C444.098 238.282 443.649 238.761 443.32 239.375C442.992 239.974 442.827 240.667 442.827 241.452C442.827 242.238 442.992 242.93 443.32 243.53C443.649 244.13 444.098 244.601 444.67 244.944C445.241 245.287 445.898 245.458 446.64 245.458ZM458.567 247.3C457.939 247.3 457.382 247.129 456.896 246.786C456.411 246.443 456.032 245.979 455.761 245.394C455.49 244.794 455.354 244.108 455.354 243.337V231.642C455.354 231.328 455.454 231.071 455.654 230.871C455.854 230.671 456.111 230.571 456.425 230.571C456.739 230.571 456.996 230.671 457.196 230.871C457.396 231.071 457.496 231.328 457.496 231.642V243.337C457.496 243.866 457.596 244.301 457.796 244.644C457.996 244.987 458.253 245.158 458.567 245.158H459.102C459.388 245.158 459.617 245.258 459.788 245.458C459.974 245.658 460.066 245.915 460.066 246.229C460.066 246.543 459.931 246.8 459.659 247C459.388 247.2 459.038 247.3 458.61 247.3H458.567ZM466.868 247.386C465.711 247.386 464.69 247.136 463.805 246.636C462.919 246.122 462.22 245.422 461.706 244.537C461.206 243.637 460.956 242.609 460.956 241.452C460.956 240.281 461.206 239.253 461.706 238.368C462.22 237.468 462.919 236.769 463.805 236.269C464.69 235.755 465.711 235.498 466.868 235.498C468.01 235.498 469.024 235.755 469.91 236.269C470.795 236.769 471.487 237.468 471.987 238.368C472.501 239.253 472.758 240.281 472.758 241.452C472.758 242.609 472.508 243.637 472.009 244.537C471.509 245.422 470.816 246.122 469.931 246.636C469.046 247.136 468.025 247.386 466.868 247.386ZM466.868 245.458C467.61 245.458 468.267 245.287 468.839 244.944C469.41 244.601 469.852 244.13 470.167 243.53C470.495 242.93 470.659 242.238 470.659 241.452C470.659 240.667 470.495 239.974 470.167 239.375C469.852 238.761 469.41 238.282 468.839 237.94C468.267 237.597 467.61 237.425 466.868 237.425C466.125 237.425 465.468 237.597 464.897 237.94C464.326 238.282 463.876 238.761 463.548 239.375C463.219 239.974 463.055 240.667 463.055 241.452C463.055 242.238 463.219 242.93 463.548 243.53C463.876 244.13 464.326 244.601 464.897 244.944C465.468 245.287 466.125 245.458 466.868 245.458ZM477.06 239.974C477.06 239.118 477.267 238.354 477.681 237.682C478.109 236.997 478.68 236.454 479.394 236.055C480.108 235.655 480.894 235.455 481.751 235.455C482.607 235.455 483.243 235.598 483.657 235.883C484.085 236.155 484.25 236.483 484.15 236.869C484.107 237.068 484.021 237.226 483.893 237.34C483.778 237.44 483.643 237.504 483.486 237.533C483.329 237.561 483.157 237.554 482.972 237.511C482.058 237.325 481.237 237.311 480.508 237.468C479.78 237.625 479.202 237.918 478.773 238.346C478.359 238.775 478.152 239.318 478.152 239.974H477.06ZM477.081 247.3C476.738 247.3 476.474 247.214 476.288 247.043C476.103 246.857 476.01 246.586 476.01 246.229V236.654C476.01 236.312 476.103 236.047 476.288 235.862C476.474 235.676 476.738 235.583 477.081 235.583C477.438 235.583 477.702 235.676 477.874 235.862C478.059 236.033 478.152 236.297 478.152 236.654V246.229C478.152 246.572 478.059 246.836 477.874 247.022C477.702 247.207 477.438 247.3 477.081 247.3ZM361.063 276.382C361.315 276.382 361.519 276.442 361.675 276.562C361.831 276.682 361.891 276.88 361.855 277.156C361.843 277.384 361.735 277.564 361.531 277.696C361.327 277.828 361.093 277.894 360.829 277.894H359.623L359.191 280.45H360.343C360.619 280.45 360.823 280.516 360.955 280.648C361.099 280.78 361.171 280.954 361.171 281.17C361.171 281.362 361.075 281.542 360.883 281.71C360.691 281.878 360.433 281.962 360.109 281.962H358.813L358.219 285.4C358.171 285.664 358.063 285.88 357.895 286.048C357.739 286.216 357.523 286.3 357.247 286.3C356.983 286.3 356.785 286.204 356.653 286.012C356.533 285.82 356.497 285.592 356.545 285.328L357.103 281.962H354.331L353.755 285.4C353.707 285.652 353.593 285.868 353.413 286.048C353.245 286.216 353.035 286.3 352.783 286.3C352.519 286.3 352.321 286.222 352.189 286.066C352.057 285.898 352.015 285.652 352.063 285.328L352.639 281.962H351.397C351.145 281.962 350.941 281.902 350.785 281.782C350.641 281.65 350.575 281.482 350.587 281.278C350.611 281.002 350.713 280.798 350.893 280.666C351.085 280.522 351.331 280.45 351.631 280.45H353.017L353.431 277.894H352.099C351.859 277.894 351.661 277.84 351.505 277.732C351.349 277.624 351.271 277.456 351.271 277.228C351.271 276.94 351.367 276.73 351.559 276.598C351.751 276.454 352.009 276.382 352.333 276.382H353.791L354.385 273.124C354.445 272.848 354.553 272.632 354.709 272.476C354.865 272.308 355.081 272.224 355.357 272.224C355.621 272.224 355.819 272.314 355.951 272.494C356.095 272.674 356.137 272.908 356.077 273.196L355.501 276.382H358.273L358.867 273.124C358.915 272.872 359.023 272.662 359.191 272.494C359.359 272.314 359.575 272.224 359.839 272.224C360.115 272.224 360.313 272.314 360.433 272.494C360.565 272.674 360.601 272.908 360.541 273.196L359.983 276.382H361.063ZM357.481 280.45L357.913 277.894H355.141L354.727 280.45H357.481ZM364.281 286.3C364.017 286.3 363.795 286.21 363.615 286.03C363.435 285.85 363.345 285.628 363.345 285.364V273.178C363.345 272.902 363.435 272.68 363.615 272.512C363.795 272.332 364.017 272.242 364.281 272.242H372.417C372.693 272.242 372.915 272.326 373.083 272.494C373.251 272.65 373.335 272.86 373.335 273.124C373.335 273.376 373.251 273.58 373.083 273.736C372.915 273.892 372.693 273.97 372.417 273.97H365.217V278.344H370.383C370.659 278.344 370.881 278.428 371.049 278.596C371.217 278.752 371.301 278.956 371.301 279.208C371.301 279.46 371.217 279.67 371.049 279.838C370.881 279.994 370.659 280.072 370.383 280.072H365.217V285.364C365.217 285.628 365.127 285.85 364.947 286.03C364.767 286.21 364.545 286.3 364.281 286.3ZM375.531 286.3C375.267 286.3 375.045 286.21 374.865 286.03C374.685 285.85 374.595 285.628 374.595 285.364V273.178C374.595 272.902 374.685 272.68 374.865 272.512C375.045 272.332 375.267 272.242 375.531 272.242H383.667C383.943 272.242 384.165 272.326 384.333 272.494C384.501 272.65 384.585 272.86 384.585 273.124C384.585 273.376 384.501 273.58 384.333 273.736C384.165 273.892 383.943 273.97 383.667 273.97H376.467V278.344H381.633C381.909 278.344 382.131 278.428 382.299 278.596C382.467 278.752 382.551 278.956 382.551 279.208C382.551 279.46 382.467 279.67 382.299 279.838C382.131 279.994 381.909 280.072 381.633 280.072H376.467V285.364C376.467 285.628 376.377 285.85 376.197 286.03C376.017 286.21 375.795 286.3 375.531 286.3ZM387.915 286.3C387.651 286.3 387.429 286.21 387.249 286.03C387.069 285.85 386.979 285.628 386.979 285.364V273.178C386.979 272.902 387.069 272.68 387.249 272.512C387.429 272.332 387.651 272.242 387.915 272.242H391.173C392.205 272.242 393.141 272.416 393.981 272.764C394.833 273.1 395.571 273.586 396.195 274.222C396.819 274.846 397.299 275.584 397.635 276.436C397.971 277.288 398.139 278.23 398.139 279.262C398.139 280.294 397.971 281.242 397.635 282.106C397.299 282.958 396.819 283.702 396.195 284.338C395.571 284.962 394.833 285.448 393.981 285.796C393.141 286.132 392.205 286.3 391.173 286.3H387.915ZM388.851 284.644H391.173C392.181 284.644 393.069 284.416 393.837 283.96C394.617 283.492 395.229 282.856 395.673 282.052C396.117 281.236 396.339 280.306 396.339 279.262C396.339 278.206 396.117 277.276 395.673 276.472C395.229 275.668 394.617 275.038 393.837 274.582C393.069 274.126 392.181 273.898 391.173 273.898H388.851V284.644ZM402.013 286.3C401.749 286.3 401.527 286.21 401.347 286.03C401.167 285.85 401.077 285.628 401.077 285.364V273.178C401.077 272.902 401.167 272.68 401.347 272.512C401.527 272.332 401.749 272.242 402.013 272.242H405.271C406.303 272.242 407.239 272.416 408.079 272.764C408.931 273.1 409.669 273.586 410.293 274.222C410.917 274.846 411.397 275.584 411.733 276.436C412.069 277.288 412.237 278.23 412.237 279.262C412.237 280.294 412.069 281.242 411.733 282.106C411.397 282.958 410.917 283.702 410.293 284.338C409.669 284.962 408.931 285.448 408.079 285.796C407.239 286.132 406.303 286.3 405.271 286.3H402.013ZM402.949 284.644H405.271C406.279 284.644 407.167 284.416 407.935 283.96C408.715 283.492 409.327 282.856 409.771 282.052C410.215 281.236 410.437 280.306 410.437 279.262C410.437 278.206 410.215 277.276 409.771 276.472C409.327 275.668 408.715 275.038 407.935 274.582C407.167 274.126 406.279 273.898 405.271 273.898H402.949V284.644ZM417.713 286.3C417.473 286.3 417.263 286.21 417.083 286.03C416.903 285.85 416.813 285.634 416.813 285.382V274.402L415.499 274.96C415.295 275.044 415.103 275.086 414.923 275.086C414.659 275.086 414.437 275.002 414.257 274.834C414.089 274.666 414.005 274.45 414.005 274.186C414.005 273.994 414.053 273.82 414.149 273.664C414.245 273.508 414.395 273.394 414.599 273.322L417.407 272.314C417.467 272.29 417.527 272.272 417.587 272.26C417.647 272.248 417.701 272.242 417.749 272.242C418.025 272.242 418.241 272.332 418.397 272.512C418.565 272.68 418.649 272.902 418.649 273.178V285.382C418.649 285.634 418.559 285.85 418.379 286.03C418.199 286.21 417.977 286.3 417.713 286.3ZM422.529 286.3C422.265 286.3 422.043 286.21 421.863 286.03C421.695 285.85 421.611 285.634 421.611 285.382C421.611 285.118 421.695 284.902 421.863 284.734L426.975 278.758C427.335 278.338 427.611 277.942 427.803 277.57C428.007 277.198 428.109 276.844 428.109 276.508C428.109 275.98 428.019 275.524 427.839 275.14C427.659 274.756 427.401 274.462 427.065 274.258C426.729 274.042 426.327 273.934 425.859 273.934C425.403 273.934 424.989 274.054 424.617 274.294C424.257 274.522 423.969 274.834 423.753 275.23C423.549 275.614 423.447 276.04 423.447 276.508C423.447 276.748 423.357 276.958 423.177 277.138C423.009 277.318 422.793 277.408 422.529 277.408C422.277 277.408 422.061 277.318 421.881 277.138C421.701 276.958 421.611 276.748 421.611 276.508C421.611 275.692 421.797 274.966 422.169 274.33C422.541 273.682 423.045 273.172 423.681 272.8C424.329 272.428 425.055 272.242 425.859 272.242C426.675 272.242 427.383 272.416 427.983 272.764C428.583 273.112 429.045 273.604 429.369 274.24C429.705 274.876 429.873 275.632 429.873 276.508C429.873 276.892 429.789 277.282 429.621 277.678C429.465 278.074 429.261 278.452 429.009 278.812C428.769 279.172 428.523 279.496 428.271 279.784L424.149 284.464H429.189C429.453 284.464 429.675 284.56 429.855 284.752C430.035 284.932 430.125 285.142 430.125 285.382C430.125 285.634 430.035 285.85 429.855 286.03C429.675 286.21 429.453 286.3 429.189 286.3H422.529Z" fill="black"/>
<circle cx="699.9" cy="100.3" r="100" fill="#A095F8"/>
<path d="M587.986 247.514C587.072 247.514 586.201 247.371 585.372 247.086C584.544 246.8 583.823 246.4 583.209 245.886C582.595 245.372 582.145 244.78 581.86 244.108C581.717 243.809 581.717 243.53 581.86 243.273C582.017 243.016 582.274 242.852 582.631 242.78C582.888 242.723 583.138 242.766 583.38 242.909C583.637 243.037 583.83 243.237 583.959 243.509C584.13 243.866 584.409 244.194 584.794 244.494C585.194 244.794 585.672 245.037 586.229 245.222C586.786 245.408 587.372 245.501 587.986 245.501C588.671 245.501 589.299 245.394 589.871 245.179C590.456 244.965 590.927 244.658 591.284 244.258C591.641 243.844 591.82 243.337 591.82 242.738C591.82 241.981 591.52 241.302 590.92 240.703C590.335 240.103 589.364 239.732 588.007 239.589C586.236 239.417 584.844 238.896 583.83 238.025C582.816 237.154 582.309 236.076 582.309 234.791C582.309 233.848 582.574 233.049 583.102 232.392C583.63 231.735 584.344 231.235 585.244 230.892C586.158 230.55 587.172 230.378 588.286 230.378C589.157 230.378 589.913 230.5 590.556 230.742C591.213 230.985 591.784 231.321 592.27 231.749C592.755 232.178 593.176 232.684 593.533 233.27C593.733 233.584 593.812 233.884 593.769 234.17C593.741 234.441 593.605 234.655 593.362 234.812C593.091 234.984 592.798 235.019 592.484 234.919C592.17 234.819 591.934 234.634 591.777 234.362C591.549 233.948 591.27 233.598 590.942 233.313C590.613 233.027 590.228 232.806 589.785 232.649C589.342 232.477 588.821 232.392 588.221 232.392C587.165 232.377 586.279 232.577 585.565 232.991C584.851 233.391 584.494 234.013 584.494 234.855C584.494 235.283 584.601 235.698 584.816 236.097C585.044 236.483 585.451 236.819 586.036 237.104C586.636 237.39 587.493 237.59 588.607 237.704C590.306 237.875 591.627 238.396 592.57 239.268C593.526 240.124 594.005 241.26 594.005 242.673C594.005 243.487 593.833 244.194 593.491 244.794C593.162 245.394 592.712 245.901 592.141 246.315C591.584 246.715 590.942 247.014 590.213 247.214C589.499 247.414 588.757 247.514 587.986 247.514ZM602.133 247.407C601.148 247.407 600.262 247.2 599.477 246.786C598.706 246.358 598.092 245.736 597.635 244.922C597.192 244.108 596.971 243.109 596.971 241.924V236.654C596.971 236.34 597.071 236.083 597.271 235.883C597.485 235.669 597.749 235.562 598.063 235.562C598.377 235.562 598.634 235.669 598.834 235.883C599.049 236.083 599.156 236.34 599.156 236.654V241.924C599.156 242.723 599.306 243.387 599.606 243.916C599.905 244.43 600.312 244.815 600.826 245.072C601.341 245.315 601.919 245.437 602.561 245.437C603.176 245.437 603.718 245.315 604.189 245.072C604.675 244.83 605.06 244.501 605.346 244.087C605.632 243.673 605.774 243.209 605.774 242.695H607.124C607.124 243.58 606.903 244.38 606.46 245.094C606.032 245.808 605.439 246.372 604.682 246.786C603.94 247.2 603.09 247.407 602.133 247.407ZM606.867 247.3C606.553 247.3 606.289 247.2 606.074 247C605.874 246.786 605.774 246.522 605.774 246.208V236.654C605.774 236.326 605.874 236.062 606.074 235.862C606.289 235.662 606.553 235.562 606.867 235.562C607.195 235.562 607.46 235.662 607.659 235.862C607.859 236.062 607.959 236.326 607.959 236.654V246.208C607.959 246.522 607.859 246.786 607.659 247C607.46 247.2 607.195 247.3 606.867 247.3ZM612.9 252.312C612.585 252.312 612.321 252.205 612.107 251.991C611.907 251.791 611.807 251.534 611.807 251.22V241.452C611.822 240.324 612.086 239.31 612.6 238.411C613.114 237.511 613.814 236.804 614.699 236.29C615.584 235.762 616.584 235.498 617.698 235.498C618.826 235.498 619.833 235.762 620.718 236.29C621.603 236.804 622.303 237.511 622.817 238.411C623.345 239.31 623.61 240.324 623.61 241.452C623.61 242.581 623.367 243.594 622.881 244.494C622.41 245.379 621.76 246.086 620.932 246.615C620.104 247.129 619.169 247.386 618.126 247.386C617.284 247.386 616.505 247.214 615.791 246.872C615.092 246.515 614.492 246.036 613.992 245.437V251.22C613.992 251.534 613.892 251.791 613.692 251.991C613.492 252.205 613.228 252.312 612.9 252.312ZM617.698 245.458C618.426 245.458 619.076 245.287 619.647 244.944C620.218 244.587 620.668 244.108 620.996 243.509C621.339 242.895 621.51 242.209 621.51 241.452C621.51 240.681 621.339 239.996 620.996 239.396C620.668 238.782 620.218 238.304 619.647 237.961C619.076 237.604 618.426 237.425 617.698 237.425C616.984 237.425 616.334 237.604 615.749 237.961C615.177 238.304 614.727 238.782 614.399 239.396C614.071 239.996 613.906 240.681 613.906 241.452C613.906 242.209 614.071 242.895 614.399 243.509C614.727 244.108 615.177 244.587 615.749 244.944C616.334 245.287 616.984 245.458 617.698 245.458ZM627.961 252.312C627.646 252.312 627.382 252.205 627.168 251.991C626.968 251.791 626.868 251.534 626.868 251.22V241.452C626.882 240.324 627.147 239.31 627.661 238.411C628.175 237.511 628.875 236.804 629.76 236.29C630.645 235.762 631.645 235.498 632.759 235.498C633.887 235.498 634.894 235.762 635.779 236.29C636.664 236.804 637.364 237.511 637.878 238.411C638.406 239.31 638.671 240.324 638.671 241.452C638.671 242.581 638.428 243.594 637.942 244.494C637.471 245.379 636.821 246.086 635.993 246.615C635.165 247.129 634.23 247.386 633.187 247.386C632.345 247.386 631.566 247.214 630.852 246.872C630.153 246.515 629.553 246.036 629.053 245.437V251.22C629.053 251.534 628.953 251.791 628.753 251.991C628.553 252.205 628.289 252.312 627.961 252.312ZM632.759 245.458C633.487 245.458 634.137 245.287 634.708 244.944C635.279 244.587 635.729 244.108 636.057 243.509C636.4 242.895 636.571 242.209 636.571 241.452C636.571 240.681 636.4 239.996 636.057 239.396C635.729 238.782 635.279 238.304 634.708 237.961C634.137 237.604 633.487 237.425 632.759 237.425C632.045 237.425 631.395 237.604 630.809 237.961C630.238 238.304 629.788 238.782 629.46 239.396C629.132 239.996 628.967 240.681 628.967 241.452C628.967 242.209 629.132 242.895 629.46 243.509C629.788 244.108 630.238 244.587 630.809 244.944C631.395 245.287 632.045 245.458 632.759 245.458ZM644.714 247.3C644.085 247.3 643.528 247.129 643.043 246.786C642.557 246.443 642.179 245.979 641.908 245.394C641.636 244.794 641.501 244.108 641.501 243.337V231.642C641.501 231.328 641.601 231.071 641.801 230.871C642.001 230.671 642.258 230.571 642.572 230.571C642.886 230.571 643.143 230.671 643.343 230.871C643.543 231.071 643.643 231.328 643.643 231.642V243.337C643.643 243.866 643.743 244.301 643.943 244.644C644.143 244.987 644.4 245.158 644.714 245.158H645.249C645.535 245.158 645.763 245.258 645.935 245.458C646.12 245.658 646.213 245.915 646.213 246.229C646.213 246.543 646.077 246.8 645.806 247C645.535 247.2 645.185 247.3 644.757 247.3H644.714ZM653.207 247.386C652.022 247.386 650.965 247.136 650.037 246.636C649.123 246.122 648.402 245.422 647.874 244.537C647.36 243.637 647.103 242.609 647.103 241.452C647.103 240.281 647.345 239.253 647.831 238.368C648.331 237.468 649.016 236.769 649.887 236.269C650.758 235.755 651.758 235.498 652.886 235.498C654 235.498 654.957 235.748 655.756 236.247C656.556 236.733 657.163 237.411 657.577 238.282C658.005 239.139 658.22 240.131 658.22 241.26C658.22 241.531 658.127 241.759 657.941 241.945C657.756 242.116 657.52 242.202 657.234 242.202H648.602V240.488H657.17L656.292 241.088C656.278 240.374 656.135 239.739 655.863 239.182C655.592 238.611 655.207 238.161 654.707 237.832C654.207 237.504 653.6 237.34 652.886 237.34C652.072 237.34 651.372 237.518 650.787 237.875C650.216 238.232 649.78 238.725 649.48 239.353C649.18 239.967 649.031 240.667 649.031 241.452C649.031 242.238 649.209 242.938 649.566 243.552C649.923 244.166 650.416 244.651 651.044 245.008C651.672 245.365 652.393 245.544 653.207 245.544C653.65 245.544 654.1 245.465 654.557 245.308C655.028 245.137 655.407 244.944 655.692 244.73C655.906 244.573 656.135 244.494 656.378 244.494C656.635 244.48 656.856 244.551 657.042 244.708C657.284 244.922 657.413 245.158 657.427 245.415C657.441 245.672 657.327 245.893 657.084 246.079C656.599 246.465 655.992 246.779 655.264 247.022C654.55 247.264 653.864 247.386 653.207 247.386ZM676.386 247.321C676.072 247.321 675.808 247.222 675.593 247.022C675.393 246.807 675.293 246.543 675.293 246.229V240.103C675.293 239.203 675.072 238.539 674.629 238.111C674.187 237.668 673.608 237.447 672.894 237.447C672.152 237.447 671.538 237.704 671.052 238.218C670.581 238.732 670.345 239.389 670.345 240.189H668.568C668.568 239.26 668.767 238.446 669.167 237.747C669.567 237.033 670.124 236.476 670.838 236.076C671.566 235.676 672.395 235.476 673.323 235.476C674.137 235.476 674.858 235.655 675.486 236.012C676.115 236.369 676.6 236.897 676.943 237.597C677.3 238.282 677.478 239.118 677.478 240.103V246.229C677.478 246.543 677.378 246.807 677.178 247.022C676.978 247.222 676.714 247.321 676.386 247.321ZM662.099 247.321C661.785 247.321 661.52 247.222 661.306 247.022C661.106 246.807 661.006 246.543 661.006 246.229V236.697C661.006 236.369 661.106 236.105 661.306 235.905C661.52 235.705 661.785 235.605 662.099 235.605C662.427 235.605 662.691 235.705 662.891 235.905C663.091 236.105 663.191 236.369 663.191 236.697V246.229C663.191 246.543 663.091 246.807 662.891 247.022C662.691 247.222 662.427 247.321 662.099 247.321ZM669.253 247.321C668.939 247.321 668.675 247.222 668.46 247.022C668.261 246.807 668.161 246.543 668.161 246.229V240.103C668.161 239.203 667.939 238.539 667.497 238.111C667.054 237.668 666.476 237.447 665.762 237.447C665.019 237.447 664.405 237.704 663.919 238.218C663.434 238.732 663.191 239.389 663.191 240.189H661.842C661.842 239.26 662.027 238.446 662.399 237.747C662.77 237.033 663.284 236.476 663.941 236.076C664.598 235.676 665.347 235.476 666.19 235.476C667.004 235.476 667.725 235.655 668.353 236.012C668.982 236.369 669.467 236.897 669.81 237.597C670.167 238.282 670.345 239.118 670.345 240.103V246.229C670.345 246.543 670.245 246.807 670.046 247.022C669.846 247.222 669.581 247.321 669.253 247.321ZM686.613 247.386C685.428 247.386 684.371 247.136 683.443 246.636C682.529 246.122 681.808 245.422 681.28 244.537C680.766 243.637 680.509 242.609 680.509 241.452C680.509 240.281 680.751 239.253 681.237 238.368C681.737 237.468 682.422 236.769 683.293 236.269C684.164 235.755 685.164 235.498 686.292 235.498C687.406 235.498 688.363 235.748 689.162 236.247C689.962 236.733 690.569 237.411 690.983 238.282C691.411 239.139 691.626 240.131 691.626 241.26C691.626 241.531 691.533 241.759 691.347 241.945C691.162 242.116 690.926 242.202 690.64 242.202H682.008V240.488H690.576L689.698 241.088C689.684 240.374 689.541 239.739 689.269 239.182C688.998 238.611 688.613 238.161 688.113 237.832C687.613 237.504 687.006 237.34 686.292 237.34C685.478 237.34 684.778 237.518 684.193 237.875C683.622 238.232 683.186 238.725 682.886 239.353C682.586 239.967 682.436 240.667 682.436 241.452C682.436 242.238 682.615 242.938 682.972 243.552C683.329 244.166 683.822 244.651 684.45 245.008C685.078 245.365 685.799 245.544 686.613 245.544C687.056 245.544 687.506 245.465 687.963 245.308C688.434 245.137 688.813 244.944 689.098 244.73C689.312 244.573 689.541 244.494 689.784 244.494C690.041 244.48 690.262 244.551 690.448 244.708C690.69 244.922 690.819 245.158 690.833 245.415C690.847 245.672 690.733 245.893 690.49 246.079C690.005 246.465 689.398 246.779 688.67 247.022C687.956 247.264 687.27 247.386 686.613 247.386ZM704.308 247.321C703.994 247.321 703.73 247.222 703.516 247.022C703.316 246.807 703.216 246.543 703.216 246.229V240.96C703.216 240.146 703.066 239.482 702.766 238.968C702.466 238.454 702.059 238.075 701.545 237.832C701.045 237.575 700.467 237.447 699.81 237.447C699.21 237.447 698.668 237.568 698.182 237.811C697.697 238.054 697.311 238.382 697.026 238.796C696.74 239.196 696.597 239.66 696.597 240.189H695.248C695.248 239.289 695.462 238.489 695.89 237.79C696.333 237.076 696.933 236.512 697.69 236.097C698.446 235.683 699.296 235.476 700.239 235.476C701.224 235.476 702.102 235.69 702.873 236.119C703.659 236.533 704.273 237.147 704.715 237.961C705.172 238.775 705.401 239.774 705.401 240.96V246.229C705.401 246.543 705.294 246.807 705.079 247.022C704.88 247.222 704.622 247.321 704.308 247.321ZM695.505 247.321C695.191 247.321 694.926 247.222 694.712 247.022C694.512 246.807 694.412 246.543 694.412 246.229V236.676C694.412 236.347 694.512 236.083 694.712 235.883C694.926 235.683 695.191 235.583 695.505 235.583C695.833 235.583 696.097 235.683 696.297 235.883C696.497 236.083 696.597 236.347 696.597 236.676V246.229C696.597 246.543 696.497 246.807 696.297 247.022C696.097 247.222 695.833 247.321 695.505 247.321ZM713.276 247.3C712.562 247.3 711.919 247.122 711.348 246.765C710.777 246.393 710.327 245.893 709.998 245.265C709.67 244.637 709.506 243.93 709.506 243.145V232.927C709.506 232.613 709.606 232.356 709.806 232.156C710.005 231.956 710.263 231.856 710.577 231.856C710.891 231.856 711.148 231.956 711.348 232.156C711.548 232.356 711.648 232.613 711.648 232.927V243.145C711.648 243.716 711.805 244.194 712.119 244.58C712.433 244.965 712.819 245.158 713.276 245.158H714.004C714.261 245.158 714.475 245.258 714.646 245.458C714.832 245.658 714.925 245.915 714.925 246.229C714.925 246.543 714.804 246.8 714.561 247C714.332 247.2 714.032 247.3 713.661 247.3H713.276ZM708.52 237.854C708.22 237.854 707.978 237.768 707.792 237.597C707.606 237.425 707.514 237.211 707.514 236.954C707.514 236.669 707.606 236.44 707.792 236.269C707.978 236.097 708.22 236.012 708.52 236.012H713.468C713.768 236.012 714.011 236.097 714.197 236.269C714.382 236.44 714.475 236.669 714.475 236.954C714.475 237.211 714.382 237.425 714.197 237.597C714.011 237.768 713.768 237.854 713.468 237.854H708.52ZM722.494 247.386C721.452 247.386 720.516 247.129 719.688 246.615C718.86 246.086 718.203 245.379 717.717 244.494C717.246 243.594 717.011 242.581 717.011 241.452C717.011 240.324 717.268 239.31 717.782 238.411C718.31 237.511 719.017 236.804 719.902 236.29C720.802 235.762 721.809 235.498 722.922 235.498C724.036 235.498 725.036 235.762 725.921 236.29C726.807 236.804 727.506 237.511 728.02 238.411C728.549 239.31 728.813 240.324 728.813 241.452H727.978C727.978 242.581 727.735 243.594 727.249 244.494C726.778 245.379 726.128 246.086 725.3 246.615C724.472 247.129 723.537 247.386 722.494 247.386ZM722.922 245.458C723.651 245.458 724.3 245.287 724.872 244.944C725.443 244.587 725.893 244.108 726.221 243.509C726.55 242.895 726.714 242.209 726.714 241.452C726.714 240.681 726.55 239.996 726.221 239.396C725.893 238.782 725.443 238.304 724.872 237.961C724.3 237.604 723.651 237.425 722.922 237.425C722.208 237.425 721.559 237.604 720.973 237.961C720.402 238.304 719.945 238.782 719.602 239.396C719.274 239.996 719.11 240.681 719.11 241.452C719.11 242.209 719.274 242.895 719.602 243.509C719.945 244.108 720.402 244.587 720.973 244.944C721.559 245.287 722.208 245.458 722.922 245.458ZM727.721 247.321C727.406 247.321 727.142 247.222 726.928 247.022C726.728 246.807 726.628 246.543 726.628 246.229V242.952L727.035 240.681L728.813 241.452V246.229C728.813 246.543 728.706 246.807 728.492 247.022C728.292 247.222 728.035 247.321 727.721 247.321ZM733.114 239.974C733.114 239.118 733.321 238.354 733.735 237.682C734.164 236.997 734.735 236.454 735.449 236.055C736.163 235.655 736.948 235.455 737.805 235.455C738.662 235.455 739.297 235.598 739.712 235.883C740.14 236.155 740.304 236.483 740.204 236.869C740.161 237.068 740.076 237.226 739.947 237.34C739.833 237.44 739.697 237.504 739.54 237.533C739.383 237.561 739.212 237.554 739.026 237.511C738.112 237.325 737.291 237.311 736.563 237.468C735.835 237.625 735.256 237.918 734.828 238.346C734.414 238.775 734.207 239.318 734.207 239.974H733.114ZM733.136 247.3C732.793 247.3 732.529 247.214 732.343 247.043C732.157 246.857 732.065 246.586 732.065 246.229V236.654C732.065 236.312 732.157 236.047 732.343 235.862C732.529 235.676 732.793 235.583 733.136 235.583C733.493 235.583 733.757 235.676 733.928 235.862C734.114 236.033 734.207 236.297 734.207 236.654V246.229C734.207 246.572 734.114 246.836 733.928 247.022C733.757 247.207 733.493 247.3 733.136 247.3ZM744.581 252.441C744.438 252.441 744.267 252.398 744.067 252.312C743.439 252.027 743.267 251.577 743.553 250.963L750.086 236.204C750.371 235.605 750.821 235.433 751.435 235.69C752.078 235.962 752.256 236.412 751.971 237.04L745.416 251.777C745.245 252.22 744.966 252.441 744.581 252.441ZM747.108 246.829C746.837 246.943 746.58 246.957 746.337 246.872C746.109 246.772 745.923 246.586 745.78 246.315L740.875 236.997C740.732 236.726 740.711 236.469 740.811 236.226C740.925 235.969 741.118 235.783 741.389 235.669C741.661 235.555 741.918 235.548 742.16 235.648C742.403 235.733 742.589 235.912 742.717 236.183L747.408 245.501C747.551 245.772 747.601 246.036 747.558 246.293C747.53 246.536 747.38 246.715 747.108 246.829ZM768.015 247.514C766.858 247.514 765.773 247.3 764.759 246.872C763.76 246.429 762.881 245.822 762.125 245.051C761.382 244.266 760.797 243.352 760.368 242.309C759.954 241.267 759.747 240.139 759.747 238.925C759.747 237.725 759.954 236.611 760.368 235.583C760.797 234.541 761.382 233.634 762.125 232.863C762.881 232.078 763.76 231.464 764.759 231.021C765.759 230.578 766.844 230.357 768.015 230.357C769.115 230.357 770.057 230.5 770.843 230.785C771.642 231.071 772.442 231.542 773.242 232.199C773.356 232.285 773.441 232.377 773.499 232.477C773.57 232.563 773.613 232.656 773.627 232.756C773.656 232.842 773.67 232.949 773.67 233.077C773.67 233.348 773.57 233.577 773.37 233.763C773.184 233.934 772.956 234.034 772.685 234.062C772.413 234.077 772.149 233.984 771.892 233.784C771.364 233.327 770.814 232.977 770.243 232.734C769.686 232.492 768.943 232.37 768.015 232.37C767.173 232.37 766.38 232.542 765.637 232.884C764.895 233.227 764.238 233.698 763.667 234.298C763.11 234.898 762.674 235.598 762.36 236.397C762.046 237.183 761.889 238.025 761.889 238.925C761.889 239.839 762.046 240.696 762.36 241.495C762.674 242.281 763.11 242.973 763.667 243.573C764.238 244.173 764.895 244.644 765.637 244.987C766.38 245.315 767.173 245.479 768.015 245.479C768.743 245.479 769.429 245.358 770.071 245.115C770.728 244.858 771.357 244.508 771.956 244.066C772.213 243.88 772.463 243.801 772.706 243.83C772.963 243.844 773.177 243.944 773.349 244.13C773.52 244.301 773.606 244.544 773.606 244.858C773.606 245.001 773.577 245.144 773.52 245.287C773.463 245.415 773.377 245.536 773.263 245.651C772.492 246.265 771.664 246.729 770.778 247.043C769.907 247.357 768.986 247.514 768.015 247.514ZM781.409 247.386C780.252 247.386 779.231 247.136 778.346 246.636C777.461 246.122 776.761 245.422 776.247 244.537C775.747 243.637 775.497 242.609 775.497 241.452C775.497 240.281 775.747 239.253 776.247 238.368C776.761 237.468 777.461 236.769 778.346 236.269C779.231 235.755 780.252 235.498 781.409 235.498C782.552 235.498 783.565 235.755 784.451 236.269C785.336 236.769 786.029 237.468 786.528 238.368C787.043 239.253 787.3 240.281 787.3 241.452C787.3 242.609 787.05 243.637 786.55 244.537C786.05 245.422 785.358 246.122 784.472 246.636C783.587 247.136 782.566 247.386 781.409 247.386ZM781.409 245.458C782.152 245.458 782.809 245.287 783.38 244.944C783.951 244.601 784.394 244.13 784.708 243.53C785.036 242.93 785.2 242.238 785.2 241.452C785.2 240.667 785.036 239.974 784.708 239.375C784.394 238.761 783.951 238.282 783.38 237.94C782.809 237.597 782.152 237.425 781.409 237.425C780.667 237.425 780.01 237.597 779.438 237.94C778.867 238.282 778.417 238.761 778.089 239.375C777.761 239.974 777.596 240.667 777.596 241.452C777.596 242.238 777.761 242.93 778.089 243.53C778.417 244.13 778.867 244.601 779.438 244.944C780.01 245.287 780.667 245.458 781.409 245.458ZM793.336 247.3C792.708 247.3 792.151 247.129 791.665 246.786C791.18 246.443 790.801 245.979 790.53 245.394C790.259 244.794 790.123 244.108 790.123 243.337V231.642C790.123 231.328 790.223 231.071 790.423 230.871C790.623 230.671 790.88 230.571 791.194 230.571C791.508 230.571 791.765 230.671 791.965 230.871C792.165 231.071 792.265 231.328 792.265 231.642V243.337C792.265 243.866 792.365 244.301 792.565 244.644C792.765 244.987 793.022 245.158 793.336 245.158H793.871C794.157 245.158 794.385 245.258 794.557 245.458C794.742 245.658 794.835 245.915 794.835 246.229C794.835 246.543 794.7 246.8 794.428 247C794.157 247.2 793.807 247.3 793.379 247.3H793.336ZM801.637 247.386C800.48 247.386 799.459 247.136 798.574 246.636C797.688 246.122 796.989 245.422 796.475 244.537C795.975 243.637 795.725 242.609 795.725 241.452C795.725 240.281 795.975 239.253 796.475 238.368C796.989 237.468 797.688 236.769 798.574 236.269C799.459 235.755 800.48 235.498 801.637 235.498C802.779 235.498 803.793 235.755 804.678 236.269C805.564 236.769 806.256 237.468 806.756 238.368C807.27 239.253 807.527 240.281 807.527 241.452C807.527 242.609 807.277 243.637 806.778 244.537C806.278 245.422 805.585 246.122 804.7 246.636C803.814 247.136 802.793 247.386 801.637 247.386ZM801.637 245.458C802.379 245.458 803.036 245.287 803.607 244.944C804.179 244.601 804.621 244.13 804.935 243.53C805.264 242.93 805.428 242.238 805.428 241.452C805.428 240.667 805.264 239.974 804.935 239.375C804.621 238.761 804.179 238.282 803.607 237.94C803.036 237.597 802.379 237.425 801.637 237.425C800.894 237.425 800.237 237.597 799.666 237.94C799.095 238.282 798.645 238.761 798.317 239.375C797.988 239.974 797.824 240.667 797.824 241.452C797.824 242.238 797.988 242.93 798.317 243.53C798.645 244.13 799.095 244.601 799.666 244.944C800.237 245.287 800.894 245.458 801.637 245.458ZM811.829 239.974C811.829 239.118 812.036 238.354 812.45 237.682C812.878 236.997 813.449 236.454 814.163 236.055C814.877 235.655 815.663 235.455 816.519 235.455C817.376 235.455 818.012 235.598 818.426 235.883C818.854 236.155 819.018 236.483 818.919 236.869C818.876 237.068 818.79 237.226 818.661 237.34C818.547 237.44 818.412 237.504 818.255 237.533C818.097 237.561 817.926 237.554 817.74 237.511C816.827 237.325 816.005 237.311 815.277 237.468C814.549 237.625 813.971 237.918 813.542 238.346C813.128 238.775 812.921 239.318 812.921 239.974H811.829ZM811.85 247.3C811.507 247.3 811.243 247.214 811.057 247.043C810.872 246.857 810.779 246.586 810.779 246.229V236.654C810.779 236.312 810.872 236.047 811.057 235.862C811.243 235.676 811.507 235.583 811.85 235.583C812.207 235.583 812.471 235.676 812.642 235.862C812.828 236.033 812.921 236.297 812.921 236.654V246.229C812.921 246.572 812.828 246.836 812.642 247.022C812.471 247.207 812.207 247.3 811.85 247.3ZM671.459 276.382C671.711 276.382 671.915 276.442 672.071 276.562C672.227 276.682 672.287 276.88 672.251 277.156C672.239 277.384 672.131 277.564 671.927 277.696C671.723 277.828 671.489 277.894 671.225 277.894H670.019L669.587 280.45H670.739C671.015 280.45 671.219 280.516 671.351 280.648C671.495 280.78 671.567 280.954 671.567 281.17C671.567 281.362 671.471 281.542 671.279 281.71C671.087 281.878 670.829 281.962 670.505 281.962H669.209L668.615 285.4C668.567 285.664 668.459 285.88 668.291 286.048C668.135 286.216 667.919 286.3 667.643 286.3C667.379 286.3 667.181 286.204 667.049 286.012C666.929 285.82 666.893 285.592 666.941 285.328L667.499 281.962H664.727L664.151 285.4C664.103 285.652 663.989 285.868 663.809 286.048C663.641 286.216 663.431 286.3 663.179 286.3C662.915 286.3 662.717 286.222 662.585 286.066C662.453 285.898 662.411 285.652 662.459 285.328L663.035 281.962H661.793C661.541 281.962 661.337 281.902 661.181 281.782C661.037 281.65 660.971 281.482 660.983 281.278C661.007 281.002 661.109 280.798 661.289 280.666C661.481 280.522 661.727 280.45 662.027 280.45H663.413L663.827 277.894H662.495C662.255 277.894 662.057 277.84 661.901 277.732C661.745 277.624 661.667 277.456 661.667 277.228C661.667 276.94 661.763 276.73 661.955 276.598C662.147 276.454 662.405 276.382 662.729 276.382H664.187L664.781 273.124C664.841 272.848 664.949 272.632 665.105 272.476C665.261 272.308 665.477 272.224 665.753 272.224C666.017 272.224 666.215 272.314 666.347 272.494C666.491 272.674 666.533 272.908 666.473 273.196L665.897 276.382H668.669L669.263 273.124C669.311 272.872 669.419 272.662 669.587 272.494C669.755 272.314 669.971 272.224 670.235 272.224C670.511 272.224 670.709 272.314 670.829 272.494C670.961 272.674 670.997 272.908 670.937 273.196L670.379 276.382H671.459ZM667.877 280.45L668.309 277.894H665.537L665.123 280.45H667.877ZM674.318 286.3C673.982 286.3 673.724 286.156 673.544 285.868C673.364 285.58 673.346 285.274 673.49 284.95L678.548 272.872C678.728 272.452 679.022 272.242 679.43 272.242C679.862 272.242 680.156 272.452 680.312 272.872L685.388 284.986C685.52 285.322 685.496 285.628 685.316 285.904C685.148 286.168 684.89 286.3 684.542 286.3C684.362 286.3 684.188 286.252 684.02 286.156C683.864 286.048 683.75 285.904 683.678 285.724L679.214 274.636H679.718L675.182 285.724C675.098 285.916 674.972 286.06 674.804 286.156C674.648 286.252 674.486 286.3 674.318 286.3ZM675.272 283.204L675.992 281.656H683.048L683.768 283.204H675.272ZM690.934 286.3C690.022 286.3 689.242 286.024 688.594 285.472C687.958 284.908 687.472 284.104 687.136 283.06C686.8 282.004 686.632 280.738 686.632 279.262C686.632 277.786 686.8 276.526 687.136 275.482C687.472 274.426 687.958 273.622 688.594 273.07C689.242 272.506 690.022 272.224 690.934 272.224C691.846 272.224 692.62 272.512 693.256 273.088C693.904 273.652 694.396 274.462 694.732 275.518C695.068 276.562 695.236 277.81 695.236 279.262C695.236 280.714 695.068 281.968 694.732 283.024C694.396 284.068 693.904 284.878 693.256 285.454C692.62 286.018 691.846 286.3 690.934 286.3ZM690.934 284.428C691.486 284.428 691.942 284.206 692.302 283.762C692.662 283.306 692.932 282.688 693.112 281.908C693.292 281.128 693.382 280.246 693.382 279.262C693.382 278.278 693.292 277.396 693.112 276.616C692.932 275.836 692.662 275.218 692.302 274.762C691.942 274.306 691.486 274.078 690.934 274.078C690.382 274.078 689.926 274.306 689.566 274.762C689.206 275.206 688.936 275.818 688.756 276.598C688.576 277.378 688.486 278.266 688.486 279.262C688.486 280.258 688.576 281.146 688.756 281.926C688.936 282.706 689.206 283.318 689.566 283.762C689.938 284.206 690.394 284.428 690.934 284.428ZM701.178 272.224C702.018 272.224 702.756 272.41 703.392 272.782C704.028 273.142 704.526 273.646 704.886 274.294C705.246 274.93 705.426 275.662 705.426 276.49C705.426 277.318 705.246 278.056 704.886 278.704C704.526 279.352 704.028 279.862 703.392 280.234C702.756 280.594 702.018 280.774 701.178 280.774C700.362 280.774 699.63 280.594 698.982 280.234C698.346 279.862 697.848 279.352 697.488 278.704C697.128 278.056 696.948 277.318 696.948 276.49C696.948 275.662 697.128 274.93 697.488 274.294C697.848 273.646 698.346 273.142 698.982 272.782C699.618 272.41 700.35 272.224 701.178 272.224ZM701.196 273.844C700.704 273.844 700.266 273.958 699.882 274.186C699.51 274.402 699.216 274.708 699 275.104C698.784 275.5 698.676 275.962 698.676 276.49C698.676 277.006 698.784 277.468 699 277.876C699.216 278.272 699.51 278.584 699.882 278.812C700.266 279.04 700.704 279.154 701.196 279.154C701.688 279.154 702.12 279.04 702.492 278.812C702.876 278.584 703.17 278.272 703.374 277.876C703.59 277.468 703.698 277.006 703.698 276.49C703.698 275.962 703.59 275.5 703.374 275.104C703.17 274.708 702.876 274.402 702.492 274.186C702.12 273.958 701.688 273.844 701.196 273.844ZM704.832 278.794L700.656 285.76C700.44 286.096 700.164 286.264 699.828 286.264C699.588 286.264 699.378 286.192 699.198 286.048C699.03 285.904 698.922 285.724 698.874 285.508C698.838 285.28 698.886 285.064 699.018 284.86L701.574 280.612L704.832 278.794ZM712.339 286.3C711.475 286.3 710.695 286.102 709.999 285.706C709.315 285.298 708.769 284.746 708.361 284.05C707.965 283.354 707.767 282.574 707.767 281.71C707.767 281.446 707.851 281.23 708.019 281.062C708.187 280.882 708.403 280.792 708.667 280.792C708.931 280.792 709.153 280.882 709.333 281.062C709.513 281.23 709.603 281.446 709.603 281.71C709.603 282.226 709.723 282.694 709.963 283.114C710.203 283.534 710.527 283.864 710.935 284.104C711.355 284.344 711.823 284.464 712.339 284.464C712.867 284.464 713.335 284.344 713.743 284.104C714.163 283.864 714.493 283.534 714.733 283.114C714.973 282.694 715.093 282.226 715.093 281.71C715.093 281.182 714.973 280.714 714.733 280.306C714.493 279.886 714.163 279.556 713.743 279.316C713.335 279.076 712.867 278.956 712.339 278.956H709.333C709.069 278.956 708.853 278.872 708.685 278.704C708.517 278.524 708.433 278.302 708.433 278.038V273.178C708.433 272.914 708.517 272.692 708.685 272.512C708.853 272.332 709.069 272.242 709.333 272.242H715.345C715.597 272.242 715.813 272.338 715.993 272.53C716.173 272.71 716.263 272.926 716.263 273.178C716.263 273.418 716.173 273.628 715.993 273.808C715.825 273.988 715.609 274.078 715.345 274.078H710.251V277.12H712.339C713.215 277.12 713.995 277.324 714.679 277.732C715.375 278.128 715.921 278.674 716.317 279.37C716.725 280.054 716.929 280.834 716.929 281.71C716.929 282.574 716.725 283.354 716.317 284.05C715.921 284.746 715.375 285.298 714.679 285.706C713.995 286.102 713.215 286.3 712.339 286.3ZM719.519 286.3C719.255 286.3 719.033 286.21 718.853 286.03C718.673 285.85 718.583 285.628 718.583 285.364V273.178C718.583 272.902 718.673 272.68 718.853 272.512C719.033 272.332 719.255 272.242 719.519 272.242H727.655C727.931 272.242 728.153 272.326 728.321 272.494C728.489 272.65 728.573 272.86 728.573 273.124C728.573 273.376 728.489 273.58 728.321 273.736C728.153 273.892 727.931 273.97 727.655 273.97H720.455V278.344H725.621C725.897 278.344 726.119 278.428 726.287 278.596C726.455 278.752 726.539 278.956 726.539 279.208C726.539 279.46 726.455 279.67 726.287 279.838C726.119 279.994 725.897 280.072 725.621 280.072H720.455V285.364C720.455 285.628 720.365 285.85 720.185 286.03C720.005 286.21 719.783 286.3 719.519 286.3ZM734.405 286.282C733.613 286.282 732.899 286.096 732.263 285.724C731.639 285.34 731.147 284.824 730.787 284.176C730.427 283.516 730.247 282.778 730.247 281.962C730.247 281.17 730.427 280.462 730.787 279.838C731.147 279.202 731.639 278.704 732.263 278.344C732.899 277.984 733.613 277.804 734.405 277.804C735.197 277.804 735.905 277.984 736.529 278.344C737.153 278.704 737.645 279.202 738.005 279.838C738.377 280.462 738.557 281.17 738.545 281.962C738.545 282.778 738.359 283.516 737.987 284.176C737.627 284.824 737.135 285.34 736.511 285.724C735.887 286.096 735.185 286.282 734.405 286.282ZM734.405 284.626C734.849 284.626 735.245 284.506 735.593 284.266C735.953 284.026 736.235 283.708 736.439 283.312C736.643 282.904 736.745 282.454 736.745 281.962C736.757 281.482 736.661 281.056 736.457 280.684C736.253 280.3 735.971 280 735.611 279.784C735.263 279.556 734.861 279.442 734.405 279.442C733.961 279.442 733.559 279.556 733.199 279.784C732.839 280 732.557 280.3 732.353 280.684C732.149 281.056 732.047 281.482 732.047 281.962C732.047 282.454 732.143 282.904 732.335 283.312C732.539 283.708 732.821 284.026 733.181 284.266C733.541 284.506 733.949 284.626 734.405 284.626ZM734.405 279.118C733.721 279.118 733.109 278.968 732.569 278.668C732.041 278.368 731.621 277.966 731.309 277.462C730.997 276.946 730.841 276.364 730.841 275.716C730.841 275.032 730.997 274.426 731.309 273.898C731.621 273.358 732.041 272.932 732.569 272.62C733.109 272.296 733.721 272.134 734.405 272.134C735.089 272.122 735.695 272.272 736.223 272.584C736.763 272.896 737.189 273.322 737.501 273.862C737.813 274.402 737.963 275.02 737.951 275.716C737.951 276.364 737.795 276.946 737.483 277.462C737.171 277.966 736.745 278.368 736.205 278.668C735.677 278.968 735.077 279.118 734.405 279.118ZM734.405 277.624C734.741 277.624 735.041 277.534 735.305 277.354C735.569 277.174 735.779 276.94 735.935 276.652C736.091 276.352 736.169 276.022 736.169 275.662C736.181 275.302 736.109 274.984 735.953 274.708C735.797 274.432 735.587 274.216 735.323 274.06C735.059 273.892 734.753 273.808 734.405 273.808C733.901 273.808 733.481 273.982 733.145 274.33C732.809 274.678 732.635 275.122 732.623 275.662C732.611 276.202 732.773 276.664 733.109 277.048C733.457 277.432 733.889 277.624 734.405 277.624Z" fill="black"/>
</svg>
