<?xml version="1.0" encoding="utf-8"?>
<!-- Generator: Adobe Illustrator 27.0.0, SVG Export Plug-In . SVG Version: 6.00 Build 0)  -->
<svg version="1.1" id="레이어_1" xmlns="http://www.w3.org/2000/svg" xmlns:xlink="http://www.w3.org/1999/xlink" x="0px"
	 y="0px" viewBox="0 0 1000 205" style="enable-background:new 0 0 1000 205;" xml:space="preserve">
<g>
	<g>
		<g>
			<path d="M39.3,12c0,19.9-9.1,38-31.8,49.3l-3.5-5c17.9-9,27.5-22.4,29-39H7.3V12H39.3z M68.7,38.2H57.5v36.3h-6.4V4.5h6.4v28.5
				h11.3V38.2z"/>
			<path d="M84.6,51.4c10.1,0,20.5-0.9,31.8-3.1l0.8,5.3c-12,2.4-22.7,3.2-33.4,3.2h-5.6V11.3h6.3V51.4z M140.6,37.8h-11.3v36.8H123
				V4.5h6.4v28h11.3V37.8z"/>
			<path d="M156.7,51.7c12.4,0,21.4-0.5,31.6-2.3l0.7,5.3c-10.7,2-19.9,2.5-33.1,2.5h-5.5v-46h32.6v5.3h-26.2V51.7z M212.9,37.4
				h-11.6v37.3h-6.4V4.5h6.4v27.7h11.6V37.4z"/>
		</g>
		<g>
			<path d="M4,132.7h1.6l4.5,7.9l1.3,2.6h0.1c-0.1-1.3-0.2-2.7-0.2-3.9v-6.5h1.5v12.5h-1.6l-4.5-7.9l-1.3-2.6H5.3
				c0.1,1.3,0.2,2.6,0.2,3.9v6.5H4V132.7z"/>
			<path d="M15.4,140.6c0-3.1,2-4.9,4.3-4.9s4.3,1.8,4.3,4.9c0,3.1-2,4.8-4.3,4.8S15.4,143.6,15.4,140.6z M22.4,140.6
				c0-2.1-1.1-3.6-2.7-3.6c-1.6,0-2.7,1.4-2.7,3.6s1.1,3.5,2.7,3.5C21.3,144.1,22.4,142.7,22.4,140.6z"/>
			<path d="M26.4,142.3v-5.1H25v-1.2l1.4-0.1l0.2-2.6h1.3v2.6h2.5v1.3h-2.5v5.2c0,1.1,0.4,1.8,1.4,1.8c0.3,0,0.7-0.1,1.1-0.2
				l0.3,1.2c-0.5,0.2-1.1,0.3-1.7,0.3C27.1,145.4,26.4,144.2,26.4,142.3z"/>
			<path d="M31.6,140.6c0-3.1,2-4.9,4.3-4.9s4.3,1.8,4.3,4.9c0,3.1-2,4.8-4.3,4.8S31.6,143.6,31.6,140.6z M38.5,140.6
				c0-2.1-1.1-3.6-2.7-3.6c-1.6,0-2.7,1.4-2.7,3.6s1.1,3.5,2.7,3.5C37.5,144.1,38.5,142.7,38.5,140.6z"/>
			<path d="M45.6,143.6l0.9-1.1c0.9,0.9,2.2,1.5,3.5,1.5c1.6,0,2.6-0.8,2.6-2c0-1.3-0.9-1.7-2.1-2.2l-1.8-0.8
				c-1.2-0.5-2.5-1.4-2.5-3.2c0-1.9,1.7-3.3,3.9-3.3c1.5,0,2.8,0.6,3.7,1.5l-0.8,1c-0.8-0.7-1.7-1.2-2.8-1.2c-1.4,0-2.3,0.7-2.3,1.8
				c0,1.2,1.1,1.7,2.1,2.1l1.8,0.8c1.4,0.6,2.6,1.5,2.6,3.3c0,2-1.6,3.5-4.2,3.5C48.2,145.4,46.7,144.7,45.6,143.6z"/>
			<path d="M56,142.8c0-2,1.8-3,5.7-3.5c0-1.2-0.4-2.3-1.9-2.3c-1.1,0-2,0.5-2.8,1l-0.6-1.1c0.8-0.5,2.2-1.2,3.6-1.2
				c2.2,0,3.2,1.5,3.2,3.8v5.7h-1.3l-0.1-1.1h-0.1c-0.9,0.7-1.9,1.3-3.1,1.3C57.1,145.4,56,144.5,56,142.8z M61.6,143v-2.6
				c-3.1,0.4-4.2,1.1-4.2,2.3c0,1.1,0.7,1.5,1.6,1.5C60,144.2,60.7,143.8,61.6,143z"/>
			<path d="M66.1,136h1.3l0.1,1.3h0.1c0.9-0.9,1.8-1.6,3.1-1.6c1.9,0,2.8,1.3,2.8,3.6v5.8h-1.5v-5.6c0-1.7-0.5-2.5-1.8-2.5
				c-1,0-1.6,0.5-2.5,1.4v6.7h-1.5V136z"/>
			<path d="M75.5,144.1l0.8-1c0.8,0.6,1.6,1.1,2.7,1.1c1.2,0,1.8-0.6,1.8-1.4c0-0.9-1.1-1.4-2.1-1.8c-1.3-0.5-2.8-1.1-2.8-2.7
				c0-1.5,1.2-2.6,3.2-2.6c1.1,0,2.1,0.5,2.9,1l-0.7,1c-0.6-0.5-1.3-0.8-2.1-0.8c-1.2,0-1.7,0.6-1.7,1.3c0,0.9,1,1.2,2,1.6
				c1.3,0.5,2.8,1.1,2.8,2.8c0,1.5-1.2,2.7-3.4,2.7C77.6,145.4,76.4,144.9,75.5,144.1z"/>
			<path d="M87.7,139c0-4,2.4-6.5,5.5-6.5c1.5,0,2.7,0.7,3.4,1.5l-0.8,1c-0.6-0.7-1.5-1.2-2.5-1.2c-2.4,0-3.9,1.9-3.9,5
				c0,3.1,1.5,5.1,3.9,5.1c1.2,0,2.1-0.5,2.9-1.4l0.9,1c-1,1.1-2.2,1.8-3.8,1.8C90,145.4,87.7,143,87.7,139z"/>
			<path d="M98,143.4l1.1-0.8c0.6,1,1.3,1.4,2.2,1.4c1.3,0,2-0.8,2-2.7v-8.7h1.6v8.8c0,2.1-1,3.9-3.4,3.9
				C99.8,145.4,98.7,144.7,98,143.4z"/>
			<path d="M108.2,132.7h1.6v6.3h0.1l5.2-6.3h1.8l-3.9,4.7l4.5,7.7h-1.8l-3.7-6.5l-2.1,2.5v3.9h-1.6V132.7z"/>
			<path d="M123,132.7h1.6v6.3h0.1l5.2-6.3h1.8l-3.9,4.7l4.5,7.7h-1.8l-3.7-6.5l-2.1,2.5v3.9H123V132.7z"/>
			<path d="M140.8,145.2l-3-5.3h-2.2v5.3h-1.6v-12.5h3.9c2.5,0,4.4,0.9,4.4,3.5c0,1.9-1.1,3.1-2.8,3.5l3.2,5.5H140.8z M135.5,138.6
				h2.1c2,0,3-0.8,3-2.4c0-1.6-1.1-2.2-3-2.2h-2.1V138.6z"/>
		</g>
		<g>
			<g>
				<path d="M10.9,185.2l-3-5.3H5.6v5.3H4v-12.5h3.9c2.5,0,4.4,0.9,4.4,3.5c0,1.9-1.1,3.1-2.8,3.5l3.2,5.5H10.9z M5.6,178.6h2.1
					c2,0,3-0.8,3-2.4c0-1.6-1.1-2.2-3-2.2H5.6V178.6z"/>
				<path d="M13.8,180.5c0-3,2-4.9,4.2-4.9c2.3,0,3.7,1.7,3.7,4.3c0,0.3,0,0.7-0.1,0.9h-6.2c0.1,2,1.3,3.2,3.1,3.2
					c0.9,0,1.6-0.3,2.3-0.7l0.6,1c-0.8,0.5-1.8,1-3.1,1C15.7,185.4,13.8,183.6,13.8,180.5z M20.3,179.8c0-1.9-0.9-2.9-2.3-2.9
					c-1.3,0-2.5,1.1-2.7,2.9H20.3z"/>
				<path d="M23,186.9c0-0.8,0.5-1.5,1.4-2.1v-0.1c-0.5-0.3-0.8-0.8-0.8-1.5c0-0.8,0.6-1.4,1-1.7v-0.1c-0.6-0.5-1.2-1.4-1.2-2.5
					c0-2,1.6-3.3,3.5-3.3c0.5,0,1,0.1,1.3,0.2h3.2v1.2h-1.9c0.4,0.4,0.7,1.1,0.7,1.9c0,2-1.5,3.2-3.4,3.2c-0.5,0-1-0.1-1.4-0.3
					c-0.3,0.3-0.6,0.6-0.6,1.1c0,0.6,0.4,1,1.6,1h1.8c2.1,0,3.2,0.7,3.2,2.2c0,1.7-1.8,3.2-4.7,3.2C24.6,189.4,23,188.5,23,186.9z
					 M30,186.4c0-0.8-0.7-1.1-1.9-1.1h-1.6c-0.3,0-0.8-0.1-1.2-0.2c-0.7,0.5-1,1-1,1.6c0,1,1,1.6,2.7,1.6
					C28.8,188.4,30,187.4,30,186.4z M28.8,179c0-1.3-0.9-2.2-2-2.2s-2,0.8-2,2.2c0,1.3,0.9,2.2,2,2.2
					C27.9,181.2,28.8,180.3,28.8,179z"/>
				<path d="M33.2,181.8v-5.8h1.5v5.7c0,1.7,0.5,2.4,1.7,2.4c1,0,1.6-0.5,2.5-1.6v-6.5h1.5v9.2h-1.3l-0.1-1.4H39
					c-0.9,1-1.8,1.7-3.1,1.7C34,185.4,33.2,184.1,33.2,181.8z"/>
				<path d="M43.6,183.3v-11.7h1.5v11.8c0,0.5,0.2,0.7,0.4,0.7c0.1,0,0.2,0,0.3,0l0.2,1.2c-0.2,0.1-0.5,0.1-0.9,0.1
					C44.1,185.4,43.6,184.6,43.6,183.3z"/>
				<path d="M47.9,182.8c0-2,1.8-3,5.7-3.5c0-1.2-0.4-2.3-1.9-2.3c-1.1,0-2,0.5-2.8,1l-0.6-1.1c0.8-0.5,2.2-1.2,3.6-1.2
					c2.2,0,3.2,1.5,3.2,3.8v5.7h-1.3l-0.1-1.1h-0.1c-0.9,0.7-1.9,1.3-3.1,1.3C49,185.4,47.9,184.4,47.9,182.8z M53.5,182.9v-2.6
					c-3.1,0.4-4.2,1.1-4.2,2.3c0,1.1,0.7,1.5,1.6,1.5C51.9,184.1,52.6,183.7,53.5,182.9z"/>
				<path d="M58,175.9h1.3l0.1,1.7h0.1c0.6-1.2,1.6-1.9,2.6-1.9c0.4,0,0.7,0.1,1,0.2l-0.3,1.4c-0.3-0.1-0.5-0.2-0.9-0.2
					c-0.8,0-1.7,0.5-2.3,2.1v5.9H58V175.9z"/>
			</g>
			<g>
				<path d="M77.9,173.6h4.2c2.6,0,4.6,0.7,4.6,3.1c0,1.2-0.6,2.3-1.7,2.7v0.1c1.4,0.3,2.4,1.3,2.4,3c0,2.5-2.1,3.7-4.9,3.7h-4.5
					V173.6z M81.9,178.7c1.6,0,2.3-0.6,2.3-1.6c0-1.1-0.7-1.5-2.3-1.5h-1.5v3.2H81.9z M82.2,184.2c1.7,0,2.7-0.6,2.7-1.9
					c0-1.2-0.9-1.7-2.7-1.7h-1.8v3.7H82.2z"/>
				<path d="M88.7,181.4c0-3.2,2.2-5,4.6-5c2.4,0,4.6,1.8,4.6,5c0,3.1-2.2,5-4.6,5C90.9,186.4,88.7,184.6,88.7,181.4z M95.3,181.4
					c0-1.8-0.7-3-2-3c-1.3,0-2,1.2-2,3c0,1.8,0.7,2.9,2,2.9C94.6,184.4,95.3,183.2,95.3,181.4z"/>
				<path d="M99.9,183.5v-10.9h2.5v11c0,0.6,0.3,0.7,0.5,0.7c0.1,0,0.2,0,0.3,0l0.3,1.9c-0.3,0.1-0.7,0.2-1.3,0.2
					C100.5,186.4,99.9,185.3,99.9,183.5z"/>
				<path d="M104.7,181.4c0-3.1,1.9-5,4-5c1.1,0,1.7,0.4,2.4,1L111,176v-3.3h2.5v13.6h-2l-0.2-1h-0.1c-0.7,0.7-1.6,1.2-2.6,1.2
					C106.3,186.4,104.7,184.5,104.7,181.4z M111,183.4v-4.2c-0.6-0.5-1.2-0.7-1.8-0.7c-1.1,0-2,1-2,2.9c0,2,0.7,3,2,3
					C109.9,184.3,110.5,184.1,111,183.4z"/>
			</g>
		</g>
	</g>
	<g>
		<g>
			<path d="M365.5,13.4c0-0.7,0.2-1.2,0.6-1.5c0.4-0.4,0.9-0.5,1.5-0.5h18.7c1.2,0,2.1,0.2,2.8,0.5c0.7,0.3,1.2,0.8,1.6,1.3
				c0.4,0.5,0.6,1.1,0.7,1.8c0.1,0.7,0.1,1.3,0.1,2v18.3c0,2.1,0,4.5-0.1,7.3c0,2.8-0.2,5.8-0.5,8.9c-0.3,3.1-0.8,6.3-1.4,9.5
				c-0.7,3.2-1.6,6.2-2.9,9c-0.4,0.8-0.9,1.3-1.6,1.5c-0.7,0.2-1.3,0.2-1.9-0.2c-0.6-0.3-0.9-0.8-1.1-1.4c-0.2-0.6-0.1-1.2,0.3-1.9
				c1.1-2.4,2-5.1,2.6-8c0.6-2.9,1.1-5.8,1.4-8.8c0.3-3,0.5-6,0.5-8.9c0.1-2.9,0.1-5.6,0.1-8.1V16.9c0-0.6-0.1-1-0.3-1.2
				c-0.2-0.2-0.5-0.3-0.9-0.3h-18c-0.6,0-1.1-0.2-1.5-0.5C365.7,14.5,365.5,14,365.5,13.4z M430.3,38.6c0,0.7-0.2,1.2-0.6,1.5
				c-0.4,0.4-0.9,0.5-1.5,0.5H418v29.4c0,0.7-0.2,1.3-0.7,1.6c-0.5,0.4-1,0.5-1.7,0.5c-0.7,0-1.2-0.2-1.7-0.5
				c-0.4-0.4-0.6-0.9-0.6-1.6V12.6c0-0.7,0.2-1.3,0.6-1.6c0.4-0.4,1-0.5,1.7-0.5c0.7,0,1.2,0.2,1.7,0.5c0.5,0.4,0.7,0.9,0.7,1.6
				v23.9h10.3c0.6,0,1.1,0.2,1.5,0.5C430.1,37.4,430.3,37.9,430.3,38.6z"/>
			<path d="M465,67.9c0,0.7-0.2,1.2-0.6,1.5c-0.4,0.4-0.9,0.5-1.5,0.5h-19.7c-1.2,0-2.1-0.2-2.8-0.5c-0.7-0.3-1.2-0.8-1.6-1.3
				c-0.4-0.5-0.6-1.1-0.7-1.8c-0.1-0.7-0.1-1.3-0.1-2V13.2c0-0.7,0.2-1.3,0.6-1.6c0.4-0.4,1-0.5,1.7-0.5c0.7,0,1.2,0.2,1.7,0.5
				c0.5,0.4,0.7,0.9,0.7,1.6v51.2c0,0.6,0.1,1,0.3,1.2c0.2,0.2,0.5,0.3,0.9,0.3h18.9c0.6,0,1.1,0.2,1.5,0.5
				C464.8,66.7,465,67.3,465,67.9z M498.6,39.3c0,0.7-0.2,1.2-0.6,1.5c-0.4,0.4-0.9,0.5-1.5,0.5h-10.3v28.7c0,0.7-0.2,1.3-0.7,1.6
				c-0.5,0.4-1,0.5-1.7,0.5c-0.7,0-1.2-0.2-1.7-0.5c-0.4-0.4-0.6-0.9-0.6-1.6V12.6c0-0.7,0.2-1.3,0.6-1.6c0.4-0.4,1-0.5,1.7-0.5
				c0.7,0,1.2,0.2,1.7,0.5c0.5,0.4,0.7,0.9,0.7,1.6v24.6h10.3c0.6,0,1.1,0.2,1.5,0.5C498.4,38.1,498.6,38.6,498.6,39.3z"/>
			<path d="M510.2,64.4c0,0.6,0.1,1,0.3,1.2c0.2,0.2,0.5,0.3,0.9,0.3h18.9c0.6,0,1.1,0.2,1.5,0.5c0.4,0.4,0.6,0.9,0.6,1.5
				c0,0.7-0.2,1.2-0.6,1.5c-0.4,0.4-0.9,0.5-1.5,0.5h-19.7c-1.2,0-2.1-0.2-2.8-0.5c-0.7-0.3-1.2-0.8-1.6-1.3
				c-0.4-0.5-0.6-1.1-0.7-1.8c-0.1-0.7-0.1-1.3-0.1-2V16.9c0-0.7,0-1.3,0.1-2c0.1-0.7,0.3-1.3,0.7-1.8c0.4-0.5,0.9-1,1.6-1.3
				c0.7-0.3,1.6-0.5,2.8-0.5h18.2c0.6,0,1.1,0.2,1.5,0.5c0.4,0.4,0.6,0.9,0.6,1.5c0,0.7-0.2,1.2-0.6,1.5c-0.4,0.4-0.9,0.5-1.5,0.5
				h-17.5c-0.4,0-0.7,0.1-0.9,0.3c-0.2,0.2-0.3,0.6-0.3,1.2V64.4z M567,39.3c0,0.7-0.2,1.2-0.6,1.5c-0.4,0.4-0.9,0.5-1.5,0.5h-10.3
				v28.7c0,0.7-0.2,1.3-0.7,1.6c-0.5,0.4-1,0.5-1.7,0.5c-0.7,0-1.2-0.2-1.7-0.5c-0.4-0.4-0.6-0.9-0.6-1.6V12.6
				c0-0.7,0.2-1.3,0.6-1.6c0.4-0.4,1-0.5,1.7-0.5c0.7,0,1.2,0.2,1.7,0.5c0.5,0.4,0.7,0.9,0.7,1.6v24.6h10.3c0.6,0,1.1,0.2,1.5,0.5
				C566.8,38.1,567,38.6,567,39.3z"/>
		</g>
		<g>
			<path d="M373.3,132.9c0,4.4-1.5,8.4-7,11.2l-0.8-1.1c2.8-1.4,4.5-3.1,5.4-5.2l-5.1,0.5l-0.2-1.2l5.8-0.4c0.3-0.8,0.4-1.7,0.5-2.7
				h-5.5v-1.1H373.3z M379.6,138.7h-2.4v7.9h-1.4v-15.2h1.4v6.2h2.4V138.7z"/>
			<path d="M386.9,141.5c0.5-0.1,1.1-0.1,1.6-0.2l0.1,1c-2.4,0.4-5.6,0.5-7.5,0.5l-0.1-1.2c0.5,0,1,0,1.5,0v-7.3h-1.3v-1.1h7v1.1
				h-1.3V141.5z M383.7,141.6c0.6,0,1.3,0,1.9-0.1v-7.2h-1.9V141.6z M389.8,131.7h1.3v14.1h-1.3v-7.4h-2.1v-1.2h2.1V131.7z
				 M394.1,131.3v15.2h-1.3v-15.2H394.1z"/>
			<path d="M400.3,144.4c3.9-3.4,5.7-5.9,5.7-8c0-1.4-0.7-2.5-2.3-2.5c-1,0-1.9,0.6-2.6,1.4l-0.9-0.9c1-1.1,2.1-1.8,3.7-1.8
				c2.2,0,3.6,1.5,3.6,3.7c0,2.5-2,5-4.9,7.8c0.6-0.1,1.4-0.1,2-0.1h3.5v1.3h-7.8V144.4z"/>
			<path d="M417.9,141.9h-1.6v3.4h-1.5v-3.4h-5.4v-1l5.2-8h1.7v7.8h1.6V141.9z M414.8,140.6v-3.8c0-0.6,0.1-1.6,0.1-2.3h-0.1
				c-0.3,0.6-0.6,1.2-1,1.8l-2.8,4.2H414.8z"/>
			<path d="M430.9,136.1c0,2,0.5,4.6,2.4,6l-0.9,1c-1.1-0.8-1.8-2.2-2.1-3.6c-0.3,1.5-1,2.9-2.1,3.8c-1.2-0.9-1.8-2.3-2.1-3.8
				c-0.4,1.4-1,2.8-2.1,3.6l-0.9-1c1.8-1.4,2.3-4,2.3-6v-3.4h1.3v3.4c0,1.5,0.3,3.8,1.5,5.3c1.2-1.5,1.5-3.7,1.5-5.3v-3.4h1.3V136.1
				z M435.9,131.3v15.2h-1.4V138h-2.7v-1.2h2.7v-5.5H435.9z"/>
			<path d="M440.8,141.7c2.8,0,4.7-0.1,7-0.5l0.2,1.2c-2.4,0.4-4.4,0.5-7.3,0.5h-1.2v-5.8h5.5v-3.2h-5.5v-1.1h6.9v5.5h-5.5V141.7z
				 M453.1,138.6h-2.5v8h-1.4v-15.3h1.4v6.1h2.5V138.6z"/>
			<path d="M468.2,139.1v1.1h-6.1v3.1h-1.4v-3.1h-6.3v-1.1H468.2z M456,134.8c0-1.9,2.1-3.1,5.3-3.1s5.3,1.2,5.3,3.1
				s-2.1,3.1-5.3,3.1S456,136.7,456,134.8z M457.6,145.1h9.1v1.2h-10.5v-4.5h1.4V145.1z M457.5,134.8c0,1.2,1.5,1.9,3.9,1.9
				c2.3,0,3.9-0.7,3.9-1.9c0-1.2-1.5-1.9-3.9-1.9C459,132.8,457.5,133.6,457.5,134.8z"/>
			<path d="M483.9,143.4v1.2h-13.8v-1.2H483.9z M482.3,139.8h-10.5v-7.1h10.3v1.2h-8.9v4.8h9.1V139.8z"/>
			<path d="M498.1,131.7h1.3v14.2h-1.3v-7.4h-1.9c-0.1,3-1.4,4.8-3.2,4.8c-2,0-3.3-2-3.3-5.3c0-3.2,1.3-5.3,3.3-5.3
				c1.8,0,3.1,1.8,3.2,4.7h1.9V131.7z M495,137.9c0-2.4-0.8-4-2-4c-1.2,0-2,1.5-2,4c0,2.5,0.8,4,2,4
				C494.2,141.9,495,140.4,495,137.9z M502.5,131.3v15.2h-1.3v-15.2H502.5z"/>
			<path d="M517.7,131.3v15.3h-1.4v-8.3H513c-0.1,3-1.6,4.9-3.8,4.9c-2.2,0-3.8-2.1-3.8-5.3c0-3.2,1.6-5.3,3.8-5.3
				c2.1,0,3.6,1.8,3.8,4.6h3.3v-5.8H517.7z M511.7,137.8c0-2.5-1-4.1-2.5-4.1c-1.5,0-2.5,1.6-2.5,4.1c0,2.5,1,4.1,2.5,4.1
				C510.7,141.9,511.7,140.3,511.7,137.8z"/>
		</g>
		<g>
			<path d="M372.4,185.2l-3-5.3h-2.2v5.3h-1.6v-12.5h3.9c2.5,0,4.4,0.9,4.4,3.5c0,1.9-1.1,3.1-2.8,3.5l3.2,5.5H372.4z M367.1,178.6
				h2.1c2,0,3-0.8,3-2.4c0-1.6-1.1-2.2-3-2.2h-2.1V178.6z"/>
			<path d="M375.3,180.6c0-3,2-4.9,4.2-4.9c2.3,0,3.7,1.7,3.7,4.3c0,0.3,0,0.7-0.1,0.9h-6.2c0.1,2,1.3,3.2,3.1,3.2
				c0.9,0,1.6-0.3,2.3-0.7l0.6,1c-0.8,0.5-1.8,1-3.1,1C377.3,185.4,375.3,183.6,375.3,180.6z M381.8,179.8c0-1.9-0.9-2.9-2.3-2.9
				c-1.3,0-2.5,1.1-2.7,2.9H381.8z"/>
			<path d="M384.5,186.9c0-0.8,0.5-1.5,1.4-2.1v-0.1c-0.5-0.3-0.8-0.8-0.8-1.5c0-0.8,0.6-1.4,1-1.7v-0.1c-0.6-0.5-1.2-1.4-1.2-2.5
				c0-2,1.6-3.3,3.5-3.3c0.5,0,1,0.1,1.3,0.2h3.2v1.2H391c0.4,0.4,0.7,1.1,0.7,1.9c0,2-1.5,3.2-3.4,3.2c-0.5,0-1-0.1-1.4-0.3
				c-0.3,0.3-0.6,0.6-0.6,1.1c0,0.6,0.4,1,1.6,1h1.8c2.1,0,3.2,0.7,3.2,2.2c0,1.7-1.8,3.2-4.7,3.2
				C386.1,189.4,384.5,188.5,384.5,186.9z M391.5,186.4c0-0.8-0.7-1.1-1.9-1.1H388c-0.3,0-0.8-0.1-1.2-0.2c-0.7,0.5-1,1-1,1.6
				c0,1,1,1.6,2.7,1.6C390.3,188.4,391.5,187.4,391.5,186.4z M390.3,179c0-1.3-0.9-2.2-2-2.2s-2,0.8-2,2.2c0,1.3,0.9,2.2,2,2.2
				C389.4,181.2,390.3,180.3,390.3,179z"/>
			<path d="M394.7,181.8v-5.8h1.5v5.7c0,1.7,0.5,2.4,1.7,2.4c1,0,1.6-0.5,2.5-1.6v-6.5h1.5v9.2h-1.3l-0.1-1.4h-0.1
				c-0.9,1-1.8,1.7-3.1,1.7C395.6,185.4,394.7,184.1,394.7,181.8z"/>
			<path d="M405.1,183.3v-11.7h1.5v11.8c0,0.5,0.2,0.7,0.4,0.7c0.1,0,0.2,0,0.3,0l0.2,1.2c-0.2,0.1-0.5,0.1-0.9,0.1
				C405.6,185.4,405.1,184.6,405.1,183.3z"/>
			<path d="M409.4,182.8c0-2,1.8-3,5.7-3.5c0-1.2-0.4-2.3-1.9-2.3c-1.1,0-2,0.5-2.8,1l-0.6-1.1c0.8-0.5,2.2-1.2,3.6-1.2
				c2.2,0,3.2,1.5,3.2,3.8v5.7h-1.3l-0.1-1.1h-0.1c-0.9,0.7-1.9,1.3-3.1,1.3C410.6,185.4,409.4,184.4,409.4,182.8z M415.1,182.9
				v-2.6c-3.1,0.4-4.2,1.1-4.2,2.3c0,1.1,0.7,1.5,1.6,1.5C413.4,184.1,414.2,183.7,415.1,182.9z"/>
			<path d="M419.6,175.9h1.3l0.1,1.7h0.1c0.6-1.2,1.6-1.9,2.6-1.9c0.4,0,0.7,0.1,1,0.2l-0.3,1.4c-0.3-0.1-0.5-0.2-0.9-0.2
				c-0.8,0-1.7,0.5-2.3,2.1v5.9h-1.5V175.9z"/>
		</g>
	</g>
	<g>
		<g>
			<path d="M737.4,61.3c-1.3-0.5-1.8-1.9-1-3.4c5.6-11.2,9.2-23.7,9.7-34.6h-20.2c-1.5,0-2.6-1-2.6-2.6v-9c0-1.5,1-2.6,2.6-2.6h30.3
				c3,0,5.1,1.6,5.1,5.1v1.7c0,17.3-5.4,34.6-12.7,46.6c-0.9,1.5-2.4,2.1-3.9,1.4L737.4,61.3z M772.9,72.1c-1.7,0-2.6-0.9-2.6-2.6V9
				c0-1.7,0.8-2.6,2.5-2.6h10.4c1.7,0,2.6,0.9,2.5,2.6l-0.6,18.6l8-0.1c1.8,0,3,1.2,3,3v7c0,1.8-1.2,3-3,3l-8.4,0.2l-0.9,28.8
				c0,1.7-0.9,2.6-2.6,2.6H772.9z"/>
			<path d="M843.8,56.2c0.3,1.8-0.3,2.7-1.8,3c-10.3,2.5-22.7,4-34,3.8c-3.8-0.1-5.9-2.1-6-5.9L800.8,12c-0.1-1.7,0.8-2.6,2.5-2.6
				h10.3c1.7,0,2.4,0.9,2.5,2.6l1,37.1c7.6,0.2,15-0.3,22.7-1.7c1.8-0.3,2.6,0.2,2.8,1.7L843.8,56.2z M849.9,72.1
				c-1.7,0-2.6-0.9-2.6-2.6V9c0-1.7,0.8-2.6,2.5-2.6h10.4c1.7,0,2.6,0.9,2.5,2.6l-0.6,18.6l8-0.1c1.8,0,3,1.2,3,3v7c0,1.8-1.2,3-3,3
				l-8.4,0.2l-0.9,28.8c0,1.7-0.9,2.6-2.6,2.6H849.9z"/>
			<path d="M921.2,56.6c0.3,1.8-0.3,2.7-1.8,3c-10.3,2.5-23.9,4-35.2,3.8c-3.8-0.1-5.9-2.1-6-5.9L877,14.3c-0.1-4,2.5-6,6-6
				l29.8-0.2c1.8,0,3,1.2,3,3v7c0,1.8-1.2,3-3,3l-20.5,0.4l0.9,27.9c7.6,0.2,16.3-0.3,23.9-1.7c1.8-0.3,2.6,0.2,2.8,1.7L921.2,56.6z
				 M927.7,72.1c-1.7,0-2.6-0.9-2.6-2.6V9c0-1.7,0.8-2.6,2.5-2.6H938c1.7,0,2.6,0.9,2.5,2.6l-0.6,19.5l7.1-0.1c1.8,0,3,1.2,3,3v7
				c0,1.8-1.2,3-3,3l-7.5,0.2l-0.9,28c0,1.7-0.9,2.6-2.6,2.6H927.7z"/>
		</g>
		<g>
			<path d="M727.7,139.5c-1.5,0.1-3,0.1-4.2,0.1l-0.2-1.2c2.8,0,6.6,0,9.8-0.4l0.1,1c-1.3,0.2-2.8,0.4-4.1,0.4v3h-1.4V139.5z
				 M724.5,134.6c0-1.6,1.5-2.7,3.8-2.7s3.8,1.1,3.8,2.7c0,1.6-1.5,2.7-3.8,2.7S724.5,136.2,724.5,134.6z M736.2,145.1v1.1h-10.8
				v-4.4h1.4v3.3H736.2z M725.8,134.6c0,1,1,1.6,2.4,1.6c1.4,0,2.4-0.6,2.4-1.6c0-1-1-1.6-2.4-1.6
				C726.8,133,725.8,133.6,725.8,134.6z M734.5,140.4v-9h1.4V143h-1.4v-1.6h-3.1v-1H734.5z"/>
			<path d="M756.6,143.5v1.2h-13.8v-1.2h6.2v-3.7h-4.6v-7.2H755v7.2h-4.5v3.7H756.6z M745.8,138.7h7.8v-4.9h-7.8V138.7z"/>
			<path d="M764.8,132.6h1.4v10.3h-7.1v-10.3h1.4v4h4.4V132.6z M764.8,137.8h-4.4v4h4.4V137.8z M772.7,138.5h-2.5v8.1h-1.4v-15.2
				h1.4v6h2.5V138.5z"/>
			<path d="M778.4,138.7c-2.3,0-3.9-1.4-3.9-3.4c0-2,1.6-3.4,3.9-3.4c2.3,0,3.9,1.4,3.9,3.4C782.3,137.3,780.7,138.7,778.4,138.7z
				 M778.4,137.5c1.5,0,2.6-0.9,2.6-2.2c0-1.3-1.1-2.3-2.6-2.3c-1.5,0-2.6,0.9-2.6,2.3C775.8,136.6,776.9,137.5,778.4,137.5z
				 M787.1,145.3v1.1h-10.4v-3.8h8.5V141h-8.5v-1.1h9.9v3.7h-8.5v1.7H787.1z M786.6,139.2h-1.4v-7.8h1.4V139.2z"/>
			<path d="M794.3,132.9h3.6c2.8,0,4.7,0.9,4.7,3.7c0,2.6-1.9,3.9-4.6,3.9h-2.1v4.9h-1.6V132.9z M797.8,139.1c2.2,0,3.2-0.8,3.2-2.6
				c0-1.8-1.1-2.4-3.3-2.4h-1.8v5H797.8z"/>
			<path d="M804.4,139.1c0-4,2.2-6.4,5.3-6.4s5.3,2.4,5.3,6.4c0,4-2.2,6.5-5.3,6.5S804.4,143.1,804.4,139.1z M813.4,139.1
				c0-3.1-1.5-5-3.7-5c-2.2,0-3.7,1.9-3.7,5c0,3.1,1.5,5.1,3.7,5.1C811.9,144.2,813.4,142.2,813.4,139.1z"/>
			<path d="M817.7,132.9h3.6c2.8,0,4.7,0.9,4.7,3.7c0,2.6-1.9,3.9-4.6,3.9h-2.1v4.9h-1.6V132.9z M821.1,139.1c2.2,0,3.2-0.8,3.2-2.6
				c0-1.8-1.1-2.4-3.3-2.4h-1.8v5H821.1z"/>
		</g>
		<g>
			<path d="M730.1,185.2l-3-5.3h-2.2v5.3h-1.6v-12.5h3.9c2.5,0,4.4,0.9,4.4,3.5c0,1.9-1.1,3.1-2.8,3.5l3.2,5.5H730.1z M724.9,178.6
				h2.1c2,0,3-0.8,3-2.4c0-1.6-1.1-2.2-3-2.2h-2.1V178.6z"/>
			<path d="M733.1,180.6c0-3,2-4.9,4.2-4.9c2.3,0,3.7,1.7,3.7,4.3c0,0.3,0,0.7-0.1,0.9h-6.2c0.1,2,1.3,3.2,3.1,3.2
				c0.9,0,1.6-0.3,2.3-0.7l0.6,1c-0.8,0.5-1.8,1-3.1,1C735,185.4,733.1,183.6,733.1,180.6z M739.5,179.8c0-1.9-0.9-2.9-2.3-2.9
				c-1.3,0-2.5,1.1-2.7,2.9H739.5z"/>
			<path d="M742.3,186.9c0-0.8,0.5-1.5,1.4-2.1v-0.1c-0.5-0.3-0.8-0.8-0.8-1.5c0-0.8,0.6-1.4,1-1.7v-0.1c-0.6-0.5-1.2-1.4-1.2-2.5
				c0-2,1.6-3.3,3.5-3.3c0.5,0,1,0.1,1.3,0.2h3.2v1.2h-1.9c0.4,0.4,0.7,1.1,0.7,1.9c0,2-1.5,3.2-3.4,3.2c-0.5,0-1-0.1-1.4-0.3
				c-0.3,0.3-0.6,0.6-0.6,1.1c0,0.6,0.4,1,1.6,1h1.8c2.1,0,3.2,0.7,3.2,2.2c0,1.7-1.8,3.2-4.7,3.2
				C743.8,189.4,742.3,188.5,742.3,186.9z M749.3,186.4c0-0.8-0.7-1.1-1.9-1.1h-1.6c-0.3,0-0.8-0.1-1.2-0.2c-0.7,0.5-1,1-1,1.6
				c0,1,1,1.6,2.7,1.6C748.1,188.4,749.3,187.4,749.3,186.4z M748.1,179c0-1.3-0.9-2.2-2-2.2s-2,0.8-2,2.2c0,1.3,0.9,2.2,2,2.2
				C747.2,181.2,748.1,180.3,748.1,179z"/>
			<path d="M752.4,181.8v-5.8h1.5v5.7c0,1.7,0.5,2.4,1.7,2.4c1,0,1.6-0.5,2.5-1.6v-6.5h1.5v9.2h-1.3l-0.1-1.4h-0.1
				c-0.9,1-1.8,1.7-3.1,1.7C753.3,185.4,752.4,184.1,752.4,181.8z"/>
			<path d="M762.9,183.3v-11.7h1.5v11.8c0,0.5,0.2,0.7,0.4,0.7c0.1,0,0.2,0,0.3,0l0.2,1.2c-0.2,0.1-0.5,0.1-0.9,0.1
				C763.4,185.4,762.9,184.6,762.9,183.3z"/>
			<path d="M767.1,182.8c0-2,1.8-3,5.7-3.5c0-1.2-0.4-2.3-1.9-2.3c-1.1,0-2,0.5-2.8,1l-0.6-1.1c0.8-0.5,2.2-1.2,3.6-1.2
				c2.2,0,3.2,1.5,3.2,3.8v5.7h-1.3l-0.1-1.1h-0.1c-0.9,0.7-1.9,1.3-3.1,1.3C768.3,185.4,767.1,184.4,767.1,182.8z M772.8,182.9
				v-2.6c-3.1,0.4-4.2,1.1-4.2,2.3c0,1.1,0.7,1.5,1.6,1.5C771.2,184.1,771.9,183.7,772.8,182.9z"/>
			<path d="M777.3,175.9h1.3l0.1,1.7h0.1c0.6-1.2,1.6-1.9,2.6-1.9c0.4,0,0.7,0.1,1,0.2l-0.3,1.4c-0.3-0.1-0.5-0.2-0.9-0.2
				c-0.8,0-1.7,0.5-2.3,2.1v5.9h-1.5V175.9z"/>
		</g>
	</g>
</g>
</svg>
