<svg width="18" height="15" viewBox="0 0 18 15" fill="none" xmlns="http://www.w3.org/2000/svg">
<path d="M2.65931 11.7784C2.19465 11.7784 1.82771 11.646 1.55847 11.3811C1.29358 11.1119 1.16113 10.7427 1.16113 10.2737V2.46375C1.16113 1.99476 1.29358 1.62781 1.55847 1.36292C1.82771 1.09802 2.19465 0.965576 2.65931 0.965576H15.1853C15.6543 0.965576 16.0213 1.09802 16.2862 1.36292C16.5554 1.62781 16.69 1.99476 16.69 2.46375V10.2737C16.69 10.7427 16.5554 11.1119 16.2862 11.3811C16.0213 11.646 15.6543 11.7784 15.1853 11.7784H2.65931ZM2.67885 10.7297H15.1723C15.3156 10.7297 15.4285 10.6885 15.511 10.606C15.5979 10.5191 15.6413 10.404 15.6413 10.2607V2.48329C15.6413 2.33565 15.5979 2.22057 15.511 2.13806C15.4285 2.05555 15.3156 2.0143 15.1723 2.0143H2.67885C2.53554 2.0143 2.42047 2.05555 2.33362 2.13806C2.25111 2.22057 2.20985 2.33565 2.20985 2.48329V10.2607C2.20985 10.404 2.25111 10.5191 2.33362 10.606C2.42047 10.6885 2.53554 10.7297 2.67885 10.7297ZM6.86722 13.3287V11.6938H10.9839V13.3287H6.86722ZM6.82813 14.0908C6.68483 14.0908 6.56107 14.0387 6.45685 13.9345C6.35263 13.8346 6.30052 13.7109 6.30052 13.5632C6.30052 13.4156 6.35263 13.2896 6.45685 13.1854C6.56107 13.0855 6.68483 13.0356 6.82813 13.0356H11.023C11.1663 13.0356 11.2879 13.0855 11.3878 13.1854C11.492 13.2896 11.5441 13.4156 11.5441 13.5632C11.5441 13.7109 11.492 13.8346 11.3878 13.9345C11.2879 14.0387 11.1663 14.0908 11.023 14.0908H6.82813Z" fill="#432DF1"/>
</svg>
