<svg width="14" height="16" viewBox="0 0 14 16" fill="none" xmlns="http://www.w3.org/2000/svg">
<mask id="mask0_26_30" style="mask-type:luminance" maskUnits="userSpaceOnUse" x="0" y="0" width="14" height="16">
<path d="M13.5 0H0.5V16H13.5V0Z" fill="white"/>
</mask>
<g mask="url(#mask0_26_30)">
<path d="M7.75326 15.1301C7.67076 15.1301 7.5991 15.1019 7.53831 15.0454C7.48186 14.9933 7.44712 14.9217 7.43409 14.8305C7.33421 14.1183 7.22565 13.519 7.1084 13.0327C6.99549 12.5506 6.8435 12.1533 6.65243 11.8406C6.46136 11.528 6.2095 11.2783 5.89683 11.0916C5.58851 10.9048 5.19334 10.755 4.71132 10.6421C4.23364 10.5249 3.64306 10.4206 2.93957 10.3294C2.84403 10.3208 2.76804 10.286 2.71159 10.2252C2.65513 10.1644 2.62691 10.0906 2.62691 10.0038C2.62691 9.92132 2.65513 9.84967 2.71159 9.78887C2.76804 9.72808 2.84403 9.69334 2.93957 9.68465C3.64306 9.60649 4.23582 9.51312 4.71784 9.40456C5.19986 9.29599 5.5972 9.14618 5.90986 8.95511C6.22252 8.76403 6.47439 8.51 6.66546 8.19299C6.85653 7.87599 7.00852 7.4743 7.12143 6.98794C7.23867 6.49723 7.3429 5.89362 7.43409 5.17711C7.44712 5.09026 7.48186 5.02077 7.53831 4.96866C7.5991 4.91221 7.67076 4.88398 7.75326 4.88398C7.84011 4.88398 7.91177 4.91221 7.96822 4.96866C8.02467 5.02077 8.06158 5.09026 8.07895 5.17711C8.17015 5.89362 8.2722 6.49723 8.3851 6.98794C8.50235 7.4743 8.65434 7.87599 8.84107 8.19299C9.03214 8.51 9.28401 8.76403 9.59667 8.95511C9.90933 9.14618 10.3067 9.29599 10.7887 9.40456C11.2707 9.51312 11.8656 9.60649 12.5735 9.68465C12.6647 9.69334 12.7385 9.72808 12.7949 9.78887C12.8514 9.84967 12.8796 9.92132 12.8796 10.0038C12.8796 10.0906 12.8514 10.1644 12.7949 10.2252C12.7385 10.286 12.6647 10.3208 12.5735 10.3294C11.8656 10.4076 11.2707 10.501 10.7887 10.6095C10.3067 10.7181 9.90933 10.8679 9.59667 11.059C9.28401 11.2457 9.03214 11.4976 8.84107 11.8146C8.65434 12.1316 8.50235 12.5355 8.3851 13.0262C8.2722 13.5169 8.17015 14.1183 8.07895 14.8305C8.06158 14.9217 8.02467 14.9933 7.96822 15.0454C7.91177 15.1019 7.84011 15.1301 7.75326 15.1301ZM3.33691 7.92593C3.20664 7.92593 3.13281 7.85427 3.11544 7.71097C3.06333 7.27672 3.00688 6.93583 2.94608 6.68831C2.88963 6.44078 2.79627 6.25622 2.66599 6.13463C2.54006 6.0087 2.34899 5.91316 2.09278 5.84803C1.84091 5.78289 1.49351 5.71341 1.05057 5.63958C0.902925 5.61787 0.829102 5.54405 0.829102 5.41812C0.829102 5.29653 0.894239 5.22487 1.02451 5.20316C1.4718 5.11631 1.82354 5.04032 2.07975 4.97518C2.33596 4.9057 2.5292 4.81016 2.65948 4.68857C2.78975 4.56698 2.88529 4.38677 2.94608 4.14793C3.00688 3.90474 3.06333 3.56603 3.11544 3.13177C3.13281 2.98847 3.20664 2.91682 3.33691 2.91682C3.46719 2.91682 3.54101 2.9863 3.55838 3.12526C3.61483 3.56386 3.67129 3.90909 3.72774 4.16095C3.78853 4.41282 3.8819 4.60389 4.00783 4.73417C4.13811 4.8601 4.33135 4.95347 4.58756 5.01426C4.84377 5.07506 5.19769 5.13802 5.64931 5.20316C5.70576 5.2075 5.75136 5.22922 5.7861 5.2683C5.82518 5.30738 5.84472 5.35732 5.84472 5.41812C5.84472 5.53971 5.77958 5.61353 5.64931 5.63958C5.19769 5.72644 4.84377 5.8046 4.58756 5.87408C4.33569 5.93922 4.14462 6.03475 4.01435 6.16069C3.88841 6.28228 3.79505 6.46467 3.73425 6.70785C3.67346 6.95103 3.61483 7.28975 3.55838 7.724C3.5497 7.78045 3.52581 7.82822 3.48673 7.8673C3.44765 7.90638 3.39771 7.92593 3.33691 7.92593ZM6.48959 3.44444C6.40708 3.44444 6.35931 3.40101 6.34628 3.31416C6.29417 3.04927 6.24858 2.84082 6.20949 2.68884C6.17475 2.53685 6.1183 2.42177 6.04014 2.34361C5.96631 2.2611 5.85124 2.19596 5.69491 2.14819C5.53857 2.10042 5.31928 2.05266 5.03701 2.00489C4.95016 1.98752 4.90674 1.93758 4.90674 1.85507C4.90674 1.77691 4.95016 1.72914 5.03701 1.71177C5.31928 1.65966 5.53857 1.61189 5.69491 1.56846C5.85124 1.5207 5.96631 1.45773 6.04014 1.37956C6.1183 1.29706 6.17475 1.17981 6.20949 1.02782C6.24858 0.875829 6.29417 0.667387 6.34628 0.402493C6.35931 0.315642 6.40708 0.272217 6.48959 0.272217C6.56775 0.272217 6.61552 0.315642 6.63289 0.402493C6.68066 0.667387 6.72408 0.875829 6.76317 1.02782C6.80225 1.17981 6.8587 1.29706 6.93253 1.37956C7.01069 1.45773 7.12794 1.5207 7.28427 1.56846C7.4406 1.61189 7.6599 1.65966 7.94216 1.71177C8.02901 1.72914 8.07244 1.77691 8.07244 1.85507C8.07244 1.93758 8.02901 1.98752 7.94216 2.00489C7.6599 2.05266 7.4406 2.10042 7.28427 2.14819C7.12794 2.19596 7.01069 2.2611 6.93253 2.34361C6.8587 2.42177 6.80225 2.53685 6.76317 2.68884C6.72408 2.84082 6.68066 3.04927 6.63289 3.31416C6.61552 3.40101 6.56775 3.44444 6.48959 3.44444Z" fill="#432DF1"/>
</g>
</svg>
