<svg width="16" height="15" viewBox="0 0 16 15" fill="none" xmlns="http://www.w3.org/2000/svg">
<path d="M3.83653 12.1454C3.23726 11.5461 2.74439 10.899 2.3579 10.2042C1.97142 9.50941 1.69132 8.80158 1.51762 8.08072C1.34826 7.35551 1.2853 6.64551 1.32872 5.9507C1.37215 5.25156 1.52414 4.59366 1.78469 3.97702C2.04524 3.35604 2.41218 2.80888 2.88552 2.33555C3.38491 1.83616 3.95812 1.46487 4.60516 1.22169C5.2522 0.97851 5.9318 0.850405 6.64398 0.837378C7.3605 0.82435 8.07484 0.917714 8.78702 1.11747C9.49919 1.31288 10.1723 1.59949 10.8063 1.97729L10.1289 2.63518C9.6121 2.35726 9.05842 2.14014 8.46784 1.9838C7.87726 1.82747 7.2845 1.75148 6.68958 1.75582C6.09465 1.76016 5.52578 1.86221 4.98296 2.06197C4.44015 2.25738 3.95812 2.5657 3.5369 2.98693C3.0158 3.50803 2.65102 4.1225 2.44258 4.83033C2.23848 5.53382 2.18203 6.27857 2.27322 7.06456C2.36442 7.85056 2.59674 8.62787 2.9702 9.3965C3.34366 10.1608 3.84956 10.8621 4.48791 11.5005C4.87874 11.8957 5.29562 12.2279 5.73856 12.4971C6.18584 12.762 6.62878 12.9748 7.06738 13.1354C7.50597 13.3005 7.91417 13.4264 8.29197 13.5132C8.66977 13.6001 8.98894 13.6609 9.2495 13.6956C9.41017 13.7173 9.52742 13.7803 9.60124 13.8845C9.67506 13.9931 9.70546 14.1038 9.69243 14.2167C9.67941 14.3253 9.62513 14.4208 9.52959 14.5033C9.4384 14.5859 9.30812 14.6184 9.13876 14.6011C8.85215 14.575 8.50041 14.5142 8.08353 14.4187C7.66664 14.3275 7.21502 14.1907 6.72866 14.0083C6.24664 13.8259 5.75593 13.5827 5.25654 13.2788C4.76149 12.9748 4.28816 12.597 3.83653 12.1454ZM6.20755 10.1977L7.20416 9.76779C7.63842 10.1804 8.11175 10.5278 8.62417 10.81C9.14093 11.0879 9.66421 11.279 10.194 11.3832C10.7238 11.4831 11.2319 11.4744 11.7182 11.3572C12.2089 11.2399 12.6454 10.9902 13.0275 10.6081C13.4487 10.1869 13.7071 9.67877 13.8026 9.08384C13.8982 8.48457 13.8482 7.84622 13.6528 7.16878C13.4617 6.49135 13.1447 5.82477 12.7018 5.16905L13.3662 4.50464C13.7874 5.10391 14.1131 5.71838 14.3433 6.34805C14.5734 6.97771 14.7037 7.59435 14.7341 8.19796C14.7689 8.79723 14.6994 9.35959 14.5257 9.88504C14.352 10.4062 14.0697 10.8643 13.6789 11.2595C13.2967 11.6416 12.8625 11.9195 12.3761 12.0932C11.8898 12.2626 11.3752 12.3408 10.8323 12.3277C10.2939 12.3104 9.75106 12.2148 9.2039 12.0411C8.65674 11.8631 8.12695 11.6177 7.61453 11.3051C7.10212 10.9924 6.63312 10.6233 6.20755 10.1977ZM7.06086 9.22714L5.78416 9.7287C5.71468 9.75476 5.65171 9.73956 5.59526 9.68311C5.54315 9.62666 5.53229 9.56586 5.56269 9.50072L6.09682 8.25659L11.9397 2.42023L12.9102 3.38427L7.06086 9.22714ZM13.3858 2.91528L12.4217 1.94472L12.9363 1.4171C13.0536 1.29986 13.1882 1.24123 13.3402 1.24123C13.4965 1.23689 13.6311 1.28683 13.744 1.39105L13.9134 1.54738C14.0393 1.66463 14.1001 1.80359 14.0958 1.96426C14.0958 2.12494 14.0328 2.26824 13.9069 2.39417L13.3858 2.91528Z" fill="#432DF1"/>
</svg>
