<svg width="15" height="12" viewBox="0 0 15 12" fill="none" xmlns="http://www.w3.org/2000/svg">
<g clip-path="url(#clip0_26_8)">
<mask id="mask0_26_8" style="mask-type:luminance" maskUnits="userSpaceOnUse" x="0" y="0" width="15" height="12">
<path d="M14.5 0H0.5V12H14.5V0Z" fill="white"/>
</mask>
<g mask="url(#mask0_26_8)">
<path d="M0.997796 7.8637C0.90226 7.76382 0.854492 7.64874 0.854492 7.51847C0.854492 7.38385 0.90226 7.2666 0.997796 7.16672L2.15074 6.0203C3.28848 4.88255 4.26989 3.92068 5.09497 3.13469C5.92005 2.34435 6.62354 1.71251 7.20544 1.23917C7.79168 0.765838 8.2889 0.431463 8.6971 0.23605C9.10964 0.0406359 9.46573 -0.0310157 9.76536 0.0210946C10.065 0.073205 10.3451 0.229536 10.6056 0.490087C10.8705 0.754982 11.0095 1.05244 11.0225 1.38248C11.0399 1.71251 10.94 2.09465 10.7229 2.5289C10.5058 2.95881 10.1801 3.4582 9.74582 4.02708C9.31157 4.5916 8.77744 5.23864 8.14343 5.96819C7.38783 6.83669 6.80159 7.55321 6.3847 8.11774C5.97216 8.68227 5.71378 9.13172 5.60956 9.46609C5.50534 9.79613 5.54008 10.0436 5.71378 10.2086C5.85274 10.3476 6.05467 10.378 6.31956 10.2998C6.58446 10.2173 6.9362 10.0067 7.3748 9.66802C7.81339 9.32496 8.36924 8.83643 9.04233 8.20242C9.72411 7.55104 10.3212 7.03862 10.8336 6.66516C11.346 6.2917 11.789 6.07241 12.1624 6.00727C12.5359 5.94213 12.8594 6.04852 13.133 6.32644C13.3328 6.5262 13.4348 6.7607 13.4391 7.02993C13.4478 7.29483 13.3718 7.60749 13.2112 7.96792C13.0548 8.32401 12.829 8.74306 12.5337 9.22508C12.3036 9.60722 12.119 9.91337 11.9801 10.1435C11.8454 10.3737 11.7586 10.5495 11.7195 10.6711C11.6848 10.7927 11.6978 10.8839 11.7586 10.9447C11.8107 10.9968 11.8932 11.0012 12.0061 10.9577C12.1234 10.9143 12.2819 10.8144 12.4816 10.6581C12.6857 10.4974 12.9463 10.2716 13.2633 9.98068C13.3631 9.8808 13.4782 9.83087 13.6085 9.83087C13.7431 9.83087 13.8604 9.87863 13.9602 9.97417C14.0601 10.074 14.1079 10.1934 14.1035 10.3324C14.0992 10.467 14.0341 10.5951 13.9081 10.7167C13.3002 11.342 12.7574 11.7372 12.2797 11.9022C11.8064 12.0716 11.4242 12.0108 11.1333 11.7198C10.9465 11.5331 10.8445 11.3225 10.8271 11.088C10.8141 10.8535 10.8553 10.606 10.9509 10.3454C11.0464 10.0849 11.1723 9.81784 11.3287 9.54426C11.485 9.26634 11.6413 8.99276 11.7977 8.72352C12.0452 8.29795 12.2471 7.94186 12.4034 7.65526C12.5598 7.36431 12.5641 7.14501 12.4165 6.99736C12.3296 6.91486 12.2037 6.90834 12.0387 6.97782C11.8737 7.04296 11.6739 7.1689 11.4394 7.35562C11.2093 7.53801 10.9509 7.76382 10.6643 8.03306C10.382 8.30229 10.0759 8.59542 9.74582 8.91242C9.40276 9.24679 9.05536 9.56597 8.70361 9.86995C8.35187 10.1739 8.00447 10.441 7.66141 10.6711C7.32269 10.8969 6.99483 11.0685 6.67782 11.1857C6.36082 11.303 6.06118 11.342 5.77892 11.303C5.501 11.2682 5.24696 11.1358 5.01681 10.9056C4.75191 10.6407 4.60644 10.3454 4.58038 10.0197C4.55867 9.68973 4.62381 9.34016 4.7758 8.97104C4.93213 8.59759 5.14708 8.2111 5.42066 7.81159C5.69858 7.40773 6.00907 6.99737 6.35213 6.58048C6.69954 6.1636 7.05128 5.74672 7.40737 5.32983C7.82859 4.83044 8.22159 4.36145 8.58637 3.92285C8.95114 3.47992 9.25729 3.07823 9.50481 2.7178C9.75233 2.35737 9.91735 2.04688 9.99986 1.78633C10.0824 1.52578 10.0541 1.32602 9.91518 1.18706C9.75451 1.02639 9.53304 0.987307 9.25077 1.06981C8.97285 1.15232 8.63196 1.34122 8.22811 1.63651C7.82425 1.93181 7.35743 2.3248 6.82764 2.81551C6.29785 3.30187 5.70075 3.87509 5.03635 4.53515C4.37194 5.19087 3.64022 5.91825 2.8412 6.71727L1.69477 7.8637C1.59489 7.96358 1.47765 8.01352 1.34303 8.01352C1.21275 8.01352 1.09767 7.96358 0.997796 7.8637Z" fill="#432DF1"/>
</g>
</g>
<defs>
<clipPath id="clip0_26_8">
<rect width="15" height="12" fill="white"/>
</clipPath>
</defs>
</svg>
