<svg width="17" height="14" viewBox="0 0 17 14" fill="none" xmlns="http://www.w3.org/2000/svg">
<g clip-path="url(#clip0_26_24)">
<mask id="mask0_26_24" style="mask-type:luminance" maskUnits="userSpaceOnUse" x="0" y="0" width="17" height="14">
<path d="M16.5 0H0.5V14H16.5V0Z" fill="white"/>
</mask>
<g mask="url(#mask0_26_24)">
<path d="M1.99817 11.2504C1.53352 11.2504 1.16658 11.1179 0.897341 10.853C0.632447 10.5838 0.5 10.2147 0.5 9.74571V1.93567C0.5 1.46667 0.632447 1.09973 0.897341 0.834841C1.16658 0.569947 1.53352 0.4375 1.99817 0.4375H14.5242C14.9932 0.4375 15.3601 0.569947 15.625 0.834841C15.8943 1.09973 16.0289 1.46667 16.0289 1.93567V9.74571C16.0289 10.2147 15.8943 10.5838 15.625 10.853C15.3601 11.1179 14.9932 11.2504 14.5242 11.2504H1.99817ZM2.01771 10.2016H14.5112C14.6545 10.2016 14.7674 10.1604 14.8499 10.0779C14.9367 9.99106 14.9802 9.87598 14.9802 9.73268V1.95521C14.9802 1.80756 14.9367 1.69249 14.8499 1.60998C14.7674 1.52747 14.6545 1.48622 14.5112 1.48622H2.01771C1.87441 1.48622 1.75933 1.52747 1.67248 1.60998C1.58997 1.69249 1.54872 1.80756 1.54872 1.95521V9.73268C1.54872 9.87598 1.58997 9.99106 1.67248 10.0779C1.75933 10.1604 1.87441 10.2016 2.01771 10.2016ZM6.20608 12.8006V11.1657H10.3228V12.8006H6.20608ZM6.167 13.5627C6.0237 13.5627 5.89993 13.5106 5.79571 13.4064C5.69149 13.3065 5.63938 13.1828 5.63938 13.0351C5.63938 12.8875 5.69149 12.7616 5.79571 12.6573C5.89993 12.5575 6.0237 12.5075 6.167 12.5075H10.3619C10.5052 12.5075 10.6268 12.5575 10.7267 12.6573C10.8309 12.7616 10.883 12.8875 10.883 13.0351C10.883 13.1828 10.8309 13.3065 10.7267 13.4064C10.6268 13.5106 10.5052 13.5627 10.3619 13.5627H6.167Z" fill="#432DF1"/>
</g>
</g>
<defs>
<clipPath id="clip0_26_24">
<rect width="17" height="14" fill="white"/>
</clipPath>
</defs>
</svg>
