<svg width="1040" height="300" viewBox="0 0 1040 300" fill="none" xmlns="http://www.w3.org/2000/svg">
<rect width="156.667" height="140" rx="10" fill="#EEF0F7"/>
<g clip-path="url(#clip0_1_1588)">
<path d="M74.8233 59.236C75.3753 58.684 75.6633 58.004 75.6633 57.196C75.6633 56.388 75.3753 55.7 74.8233 55.116C74.2713 54.564 73.5913 54.276 72.7753 54.276C71.9593 54.276 71.2793 54.564 70.7033 55.116C70.1513 55.668 69.8633 56.38 69.8633 57.196C69.8633 58.012 70.1513 58.684 70.7033 59.236C71.2553 59.788 71.9593 60.076 72.7753 60.076C73.5913 60.076 74.2713 59.788 74.8233 59.236Z" fill="#374254"/>
<path d="M70.959 63.756V67.66H78.335H85.711V63.756H78.335H70.959Z" fill="#374254"/>
<path d="M83.8958 54.276C83.0798 54.276 82.3998 54.564 81.8478 55.116C81.2958 55.7 81.0078 56.38 81.0078 57.196C81.0078 58.012 81.2958 58.684 81.8478 59.236C82.3998 59.788 83.0798 60.076 83.8958 60.076C84.7118 60.076 85.4158 59.788 85.9678 59.236C86.5198 58.684 86.8078 58.004 86.8078 57.196C86.8078 56.388 86.5198 55.668 85.9678 55.116C85.3918 54.564 84.7118 54.276 83.8958 54.276Z" fill="#374254"/>
<path d="M96.1029 56.14V48.508C96.1029 45.62 93.7349 43.26 90.8469 43.26H82.3189C82.3189 41.076 80.5669 39.316 78.3829 39.316H78.2869C76.1029 39.316 74.3509 41.076 74.3509 43.26H65.8229C62.9349 43.26 60.5669 45.62 60.5669 48.508V56.14C58.3909 56.14 56.6309 57.9 56.6309 60.076C56.6309 62.252 58.3909 64.012 60.5669 64.012V73.436C60.5669 76.324 62.9349 78.684 65.8229 78.684H90.8469C93.7349 78.684 96.1029 76.324 96.1029 73.436V64.012C98.2789 64.012 100.039 62.26 100.039 60.076C100.039 57.892 98.2789 56.14 96.1029 56.14ZM91.3749 73.436C91.3749 73.724 91.1429 73.964 90.8469 73.964H65.8229C65.5269 73.964 65.2949 73.724 65.2949 73.436V48.508C65.2949 48.22 65.5269 47.98 65.8229 47.98H90.8469C91.1429 47.98 91.3749 48.22 91.3749 48.508V73.436Z" fill="#374254"/>
</g>
<path d="M66.984 110.674H77.631V111.571H66.984V110.674ZM71.742 108.152H72.821V111.051H71.742V108.152ZM68.271 102.133H76.318V105.695H69.376V108.048H68.31V104.824H75.252V103.004H68.271V102.133ZM68.31 107.593H76.591V108.477H68.31V107.593ZM80.347 101.561H81.413V102.861H87.094V101.561H88.173V105.903H80.347V101.561ZM81.413 103.706V105.032H87.094V103.706H81.413ZM78.93 107.216H89.551V108.087H78.93V107.216ZM83.714 105.487H84.78V107.45H83.714V105.487ZM83.701 108.867H84.624V109.179C84.624 111.233 82.557 112.585 80.152 112.975L79.762 112.13C81.894 111.831 83.701 110.687 83.701 109.179V108.867ZM83.87 108.867H84.793V109.179C84.793 110.687 86.587 111.831 88.732 112.13L88.329 112.975C85.924 112.585 83.87 111.233 83.87 109.179V108.867Z" fill="#374254"/>
<rect x="176.666" width="156.667" height="140" rx="10" fill="#EEF0F7"/>
<path fill-rule="evenodd" clip-rule="evenodd" d="M240.185 71.7811C239.897 71.7811 239.66 71.5449 239.66 71.2562V46.3245C239.66 46.0358 239.897 45.7996 240.185 45.7996H265.117C265.406 45.7996 265.642 46.0358 265.642 46.3245V57.4519C266.77 57.1632 267.951 56.9795 269.159 56.9795C271.022 56.9795 272.78 57.3207 274.407 57.9768V57.8981C274.407 55.7198 272.649 53.9615 270.471 53.9615H270.366V46.3245C270.366 43.4377 268.03 41.0757 265.117 41.0757H256.588C256.588 38.8975 254.829 37.1392 252.651 37.1392C250.473 37.1392 248.715 38.8975 248.715 41.0757H240.185C237.299 41.0757 234.937 43.4377 234.937 46.3245V53.9615C232.758 53.9615 231 55.7198 231 57.8981C231 60.0763 232.758 61.8346 234.937 61.8346V71.2562C234.937 74.143 237.299 76.5049 240.185 76.5049H256.22C255.59 75.0353 255.276 73.4344 255.197 71.7811H240.185ZM245.067 52.9381C244.515 53.4893 244.227 54.1978 244.227 55.0114C244.227 55.825 244.515 56.5073 245.067 57.0584C245.618 57.6096 246.326 57.8982 247.14 57.8982C247.953 57.8982 248.636 57.6096 249.187 57.0584C249.738 56.5073 250.027 55.825 250.027 55.0114C250.027 54.1978 249.738 53.5155 249.187 52.9381C248.636 52.387 247.953 52.0983 247.14 52.0983C246.326 52.0983 245.644 52.387 245.067 52.9381ZM256.142 52.9381C255.59 53.4893 255.302 54.1978 255.302 55.0114C255.302 55.825 255.59 56.5073 256.142 57.0584C256.693 57.6096 257.375 57.8982 258.189 57.8982C259.002 57.8982 259.684 57.6096 260.262 57.0584C260.813 56.5073 261.102 55.825 261.102 55.0114C261.102 54.1978 260.813 53.5155 260.262 52.9381C259.711 52.387 259.002 52.0983 258.189 52.0983C257.375 52.0983 256.693 52.387 256.142 52.9381ZM256.247 65.4811H245.329V61.5708H258.818C257.742 62.7518 256.85 64.064 256.247 65.4811ZM269.159 61.178C271.888 61.178 274.198 62.1228 276.113 64.0386C278.055 65.9807 279 68.2901 279 71.0195C279 73.7488 278.055 76.0583 276.113 77.9741C274.198 79.8899 271.888 80.8609 269.159 80.8609C266.429 80.8609 264.12 79.8899 262.204 77.9741C260.288 76.0583 259.317 73.7488 259.317 71.0195C259.317 68.2901 260.288 65.9807 262.204 64.0386C264.12 62.1228 266.429 61.178 269.159 61.178ZM263.753 72.4891C264.146 72.4891 264.487 72.3317 264.776 72.043C265.065 71.7543 265.222 71.4131 265.222 71.0195C265.222 70.6258 265.065 70.2846 264.776 69.9697C264.487 69.681 264.146 69.5498 263.753 69.5498C263.359 69.5498 263.018 69.681 262.703 69.9697C262.414 70.2846 262.283 70.6258 262.283 71.0195C262.283 71.4131 262.414 71.7543 262.703 72.043C263.018 72.3317 263.359 72.4891 263.753 72.4891ZM269.159 72.4891C269.552 72.4891 269.894 72.3317 270.182 72.043C270.497 71.7543 270.628 71.4131 270.628 71.0195C270.628 70.6258 270.497 70.2846 270.182 69.9697C269.894 69.681 269.552 69.5498 269.159 69.5498C268.765 69.5498 268.424 69.681 268.135 69.9697C267.82 70.2846 267.689 70.6258 267.689 71.0195C267.689 71.4131 267.82 71.7543 268.135 72.043C268.424 72.3317 268.765 72.4891 269.159 72.4891ZM274.565 72.4891C274.959 72.4891 275.3 72.3317 275.615 72.043C275.903 71.7543 276.061 71.4131 276.061 71.0195C276.061 70.6258 275.903 70.2846 275.615 69.9697C275.3 69.681 274.959 69.5498 274.565 69.5498C274.171 69.5498 273.83 69.681 273.542 69.9697C273.253 70.2846 273.095 70.6258 273.095 71.0195C273.095 71.4131 273.253 71.7543 273.542 72.043C273.83 72.3317 274.171 72.4891 274.565 72.4891Z" fill="#374254"/>
<path d="M229.65 110.674H240.297V111.571H229.65V110.674ZM234.408 108.152H235.487V111.051H234.408V108.152ZM230.937 102.133H238.984V105.695H232.042V108.048H230.976V104.824H237.918V103.004H230.937V102.133ZM230.976 107.593H239.257V108.477H230.976V107.593ZM243.013 101.561H244.079V102.861H249.76V101.561H250.839V105.903H243.013V101.561ZM244.079 103.706V105.032H249.76V103.706H244.079ZM241.596 107.216H252.217V108.087H241.596V107.216ZM246.38 105.487H247.446V107.45H246.38V105.487ZM246.367 108.867H247.29V109.179C247.29 111.233 245.223 112.585 242.818 112.975L242.428 112.13C244.56 111.831 246.367 110.687 246.367 109.179V108.867ZM246.536 108.867H247.459V109.179C247.459 110.687 249.253 111.831 251.398 112.13L250.995 112.975C248.59 112.585 246.536 111.233 246.536 109.179V108.867ZM259.855 101.873H260.752V103.069C260.752 105.331 259.478 107.203 257.515 107.97L256.943 107.099C258.711 106.449 259.855 104.863 259.855 103.069V101.873ZM260.05 101.873H260.934V103.147C260.934 104.733 262.104 106.202 263.794 106.787L263.222 107.632C261.337 106.93 260.05 105.188 260.05 103.147V101.873ZM265.042 101.262H266.121V108.386H265.042V101.262ZM265.822 104.291H267.863V105.201H265.822V104.291ZM262.377 108.711C264.782 108.711 266.238 109.504 266.238 110.856C266.238 112.208 264.782 112.988 262.377 112.988C259.972 112.988 258.516 112.208 258.516 110.856C258.516 109.504 259.972 108.711 262.377 108.711ZM262.377 109.569C260.635 109.569 259.569 110.037 259.569 110.856C259.569 111.675 260.635 112.143 262.377 112.143C264.119 112.143 265.185 111.675 265.185 110.856C265.185 110.037 264.119 109.569 262.377 109.569ZM269.422 109.205H270.189C272.048 109.205 273.153 109.166 274.466 108.906L274.583 109.803C273.218 110.076 272.074 110.115 270.189 110.115H269.422V109.205ZM269.422 102.601H274.05V103.485H270.449V109.543H269.422V102.601ZM270.137 105.708H273.868V106.579H270.137V105.708ZM277.911 101.262H278.951V113.014H277.911V101.262ZM276.052 105.968H278.301V106.865H276.052V105.968ZM275.324 101.509H276.351V112.429H275.324V101.509Z" fill="#374254"/>
<rect x="353.334" width="156.667" height="140" rx="10" fill="#EEF0F7"/>
<path d="M432.899 61.4775C433.292 60.9797 433.738 60.508 434.157 60.0626H421.947V63.9666H431.432C431.851 63.1019 432.323 62.2897 432.899 61.4775Z" fill="#374254"/>
<path d="M425.8 55.5537C426.35 55.0034 426.638 54.3222 426.638 53.51C426.638 52.6978 426.35 52.0165 425.8 51.4401C425.249 50.8637 424.568 50.6017 423.756 50.6017C422.944 50.6017 422.263 50.8899 421.686 51.4401C421.136 51.9903 420.848 52.6978 420.848 53.51C420.848 54.3222 421.136 55.0034 421.686 55.5537C422.236 56.1039 422.944 56.3921 423.756 56.3921C424.568 56.3921 425.249 56.1039 425.8 55.5537Z" fill="#374254"/>
<path d="M436.882 55.5537C437.432 55.0034 437.72 54.3222 437.72 53.51C437.72 52.6978 437.432 52.0165 436.882 51.4401C436.331 50.8637 435.624 50.6017 434.812 50.6017C434 50.6017 433.318 50.8899 432.768 51.4401C432.218 51.9903 431.93 52.6978 431.93 53.51C431.93 54.3222 432.218 55.0034 432.768 55.5537C433.318 56.1039 434 56.3921 434.812 56.3921C435.624 56.3921 436.305 56.1039 436.882 55.5537Z" fill="#374254"/>
<path d="M450.873 55.5022C450.48 53.7467 448.934 52.4367 447.074 52.4367C447.022 52.4367 446.995 52.4629 446.969 52.4629V44.8384C446.969 41.9301 444.611 39.5982 441.729 39.5982H433.214C433.214 37.4235 431.458 35.6681 429.284 35.6681C427.109 35.6681 425.354 37.4235 425.354 39.5982H416.838C413.93 39.5982 411.598 41.9301 411.598 44.8384V52.4367C409.423 52.4367 407.668 54.2183 407.668 56.3668C407.668 58.5153 409.423 60.2969 411.598 60.2969V69.7292C411.598 72.6113 413.93 74.9694 416.838 74.9694H430.856C430.332 73.476 429.991 71.9301 429.991 70.2532H416.838C416.55 70.2532 416.314 70.0174 416.314 69.7292V44.8384C416.314 44.5502 416.55 44.3144 416.838 44.3144H441.729C442.017 44.3144 442.253 44.5502 442.253 44.8384V56.1048C442.908 56.2358 443.511 56.524 444.035 56.9694C444.952 56.0262 446.209 55.5022 447.572 55.5022H450.873Z" fill="#374254"/>
<path d="M453.18 62.8653H453.311C453.94 62.8653 454.542 62.6295 455.014 62.1841C455.459 61.7124 455.669 61.1622 455.669 60.5072C455.669 59.8522 455.433 59.2496 455.014 58.8041C454.542 58.3587 453.966 58.1229 453.311 58.1229H447.573C446.918 58.1229 446.341 58.3587 445.87 58.8041C445.713 58.9876 445.608 59.1972 445.503 59.4068L445.215 63.3107V66.219C445.215 66.9002 445.451 67.4766 445.896 67.9221C446.394 68.3675 446.997 68.6033 447.599 68.6033C448.202 68.6033 448.831 68.3675 449.276 67.9221C449.643 67.529 449.879 67.0574 449.931 66.5334C450.114 66.7954 450.245 67.0836 450.376 67.398C450.743 68.2627 450.927 69.2321 450.927 70.2277C450.927 71.6688 450.56 72.9526 449.774 74.1579C448.988 75.3631 447.992 76.2277 446.734 76.8303C446.289 77.0138 445.975 77.3544 445.713 77.7736C444.691 78.7168 445.582 81.0225 445.582 81.0225L445.66 81.1797C445.922 81.5727 446.341 81.8085 446.787 81.8085C446.97 81.8085 447.128 81.7561 447.259 81.7299C449.643 80.9439 451.686 79.4766 453.285 77.4068C454.857 75.3369 455.669 72.9002 455.669 70.2277C455.669 68.5509 455.355 66.9788 454.726 65.564C454.333 64.6207 453.809 63.7037 453.18 62.8653Z" fill="#374254"/>
<path d="M441.57 63.5986C442.146 63.3366 442.54 62.9173 442.775 62.3409C442.985 61.7907 443.09 61.2667 443.09 60.7951C443.09 60.1925 442.906 59.6422 442.618 59.2754C442.277 58.7776 441.858 58.6466 441.518 58.6466C441.334 58.6466 441.151 58.699 441.02 58.7252C438.583 59.5374 436.618 60.9523 434.994 63.0746C433.422 65.1968 432.609 67.5811 432.609 70.2274C432.609 71.9042 432.924 73.4763 433.553 74.8911C433.946 75.8606 434.47 76.7514 435.125 77.5898H434.994C434.312 77.5898 433.736 77.8256 433.291 78.2449C432.845 78.7165 432.609 79.2667 432.609 79.9479C432.609 80.6291 432.845 81.2318 433.291 81.6248C433.71 82.0964 434.312 82.3322 434.994 82.3322H440.705C441.387 82.3322 441.937 82.0964 442.435 81.6248C442.854 81.127 443.09 80.5767 443.09 79.9479V74.2361C443.09 73.5811 442.854 73.0047 442.409 72.5331C441.937 72.0877 441.334 71.8518 440.705 71.8518C440.077 71.8518 439.474 72.0877 439.002 72.5331C438.636 72.9261 438.4 73.3977 438.347 73.9217C438.164 73.6597 438.033 73.3715 437.902 73.0571C437.535 72.1925 437.352 71.223 437.352 70.2274C437.352 68.7339 437.745 67.4501 438.531 66.2711C439.317 65.0658 440.339 64.175 441.57 63.5986Z" fill="#374254"/>
<path d="M393.346 101.249H394.425V113.027H393.346V101.249ZM388.224 102.159C389.966 102.159 391.214 103.758 391.214 106.254C391.214 108.763 389.966 110.362 388.224 110.362C386.495 110.362 385.247 108.763 385.247 106.254C385.247 103.758 386.495 102.159 388.224 102.159ZM388.224 103.134C387.08 103.134 386.274 104.356 386.274 106.254C386.274 108.165 387.08 109.413 388.224 109.413C389.381 109.413 390.174 108.165 390.174 106.254C390.174 104.356 389.381 103.134 388.224 103.134ZM396.777 107.047H407.398V107.931H396.777V107.047ZM401.548 105.162H402.614V107.411H401.548V105.162ZM398.116 104.824H406.163V105.708H398.116V104.824ZM398.116 101.795H406.072V102.666H399.182V105.344H398.116V101.795ZM402.068 108.776C404.577 108.776 406.098 109.543 406.098 110.882C406.098 112.247 404.577 113.001 402.068 113.001C399.559 113.001 398.038 112.247 398.038 110.882C398.038 109.543 399.559 108.776 402.068 108.776ZM402.068 109.608C400.235 109.608 399.13 110.076 399.13 110.882C399.13 111.701 400.235 112.156 402.068 112.156C403.914 112.156 405.006 111.701 405.006 110.882C405.006 110.076 403.914 109.608 402.068 109.608ZM420.756 101.262H421.835V113.014H420.756V101.262ZM418.013 105.968H421.237V106.865H418.013V105.968ZM416.986 102.523H418.052C418.052 105.877 416.661 108.841 412.761 110.791L412.163 109.946C415.582 108.269 416.986 105.773 416.986 102.705V102.523ZM412.67 102.523H417.558V103.407H412.67V102.523ZM432.689 101.249H433.768V113.027H432.689V101.249ZM424.811 109.296H425.786C427.749 109.296 429.504 109.218 431.584 108.88L431.701 109.764C429.569 110.115 427.801 110.193 425.786 110.193H424.811V109.296ZM424.785 102.354H430.219V106.553H425.89V109.634H424.811V105.669H429.127V103.238H424.785V102.354ZM440.146 102.016H445.619V106.826H440.146V102.016ZM444.579 102.887H441.186V105.968H444.579V102.887ZM448.076 101.262H449.155V108.009H448.076V101.262ZM444.891 109.4H445.814V109.621C445.814 111.311 443.721 112.663 441.342 112.975L440.978 112.143C443.019 111.909 444.891 110.791 444.891 109.621V109.4ZM445.047 109.4H445.983V109.621C445.983 110.752 447.803 111.896 449.844 112.143L449.48 112.975C447.088 112.65 445.047 111.272 445.047 109.621V109.4ZM441.446 108.802H449.428V109.647H441.446V108.802ZM444.891 107.671H445.983V109.179H444.891V107.671ZM458.028 102.276H458.912V104.382C458.912 107.086 457.456 109.595 455.532 110.57L454.869 109.686C456.611 108.854 458.028 106.605 458.028 104.382V102.276ZM458.21 102.276H459.094V104.382C459.094 106.527 460.498 108.685 462.24 109.491L461.59 110.349C459.679 109.413 458.21 106.995 458.21 104.382V102.276ZM463.462 101.249H464.541V113.027H463.462V101.249ZM474.927 101.262H476.006V109.855H474.927V101.262ZM475.668 104.824H477.748V105.721H475.668V104.824ZM471.716 102.172H472.86C472.86 105.214 470.728 107.437 467.361 108.516L466.893 107.632C469.857 106.722 471.716 104.902 471.716 102.64V102.172ZM467.374 102.172H472.262V103.056H467.374V102.172ZM468.674 111.87H476.526V112.754H468.674V111.87ZM468.674 108.984H469.753V112.221H468.674V108.984Z" fill="#374254"/>
<rect x="530" width="156.667" height="140" rx="10" fill="#EEF0F7"/>
<path fill-rule="evenodd" clip-rule="evenodd" d="M593.152 72.0093V46.5284C593.152 46.2333 593.393 45.9919 593.689 45.9919H619.169C619.465 45.9919 619.706 46.2333 619.706 46.5284V58.4105H628.638C628.638 58.4105 628.665 58.3837 628.665 58.3569C628.665 56.1307 626.841 54.3336 624.641 54.3336H624.534V46.5284C624.534 43.5779 622.12 41.1639 619.169 41.1639H610.452C610.452 38.9377 608.655 37.1406 606.429 37.1406C604.203 37.1406 602.406 38.9377 602.406 41.1639H593.689C590.711 41.1639 588.324 43.5779 588.324 46.5284V54.3336C586.098 54.3336 584.301 56.1307 584.301 58.3569C584.301 60.5831 586.098 62.3802 588.324 62.3802V72.0093C588.324 74.9866 590.711 77.3738 593.689 77.3738H609.916V72.5458H593.689C593.393 72.5458 593.152 72.3044 593.152 72.0093ZM597.792 55.4069C597.792 54.5755 598.087 53.8513 598.65 53.288C599.24 52.7247 599.938 52.4297 600.769 52.4297C601.601 52.4297 602.298 52.6979 602.861 53.288C603.425 53.8781 603.72 54.5755 603.72 55.4069C603.72 56.2384 603.425 56.9358 602.861 57.4991C602.298 58.0623 601.601 58.3574 600.769 58.3574C599.938 58.3574 599.214 58.0623 598.65 57.4991C598.087 56.9358 597.792 56.2384 597.792 55.4069ZM614.207 53.288C613.644 52.7247 612.92 52.4297 612.088 52.4297C611.257 52.4297 610.559 52.7247 609.996 53.288C609.433 53.8513 609.138 54.5755 609.138 55.4069C609.138 56.2384 609.433 56.9358 609.996 57.4991C610.559 58.0623 611.257 58.3574 612.088 58.3574C612.92 58.3574 613.617 58.0623 614.207 57.4991C614.797 56.9358 615.065 56.2384 615.065 55.4069C615.065 54.5755 614.77 53.8781 614.207 53.288ZM598.918 66.1366H609.915V65.3856C609.915 64.1786 610.237 63.1057 610.773 62.1133H598.918V66.1366ZM616.889 62.7012H629.683C631.159 62.7012 632.366 63.8813 632.366 65.3834V78.1775C632.366 79.6527 631.159 80.8597 629.683 80.8597H616.889C615.414 80.8597 614.207 79.6527 614.207 78.1775V65.3834C614.207 63.8813 615.414 62.7012 616.889 62.7012ZM618.552 77.2119H628.02C628.61 77.2119 629.093 76.7559 629.093 76.139C629.093 75.5221 628.61 75.0662 628.02 75.0662H618.552C617.962 75.0662 617.479 75.549 617.479 76.139C617.479 76.7291 617.962 77.2119 618.552 77.2119ZM618.552 72.8399H628.02C628.61 72.8399 629.093 72.3571 629.093 71.767C629.093 71.177 628.61 70.6942 628.02 70.6942H618.552C617.962 70.6942 617.479 71.177 617.479 71.767C617.479 72.3571 617.962 72.8399 618.552 72.8399ZM618.552 68.4947H628.02C628.61 68.4947 629.093 68.0119 629.093 67.4219C629.093 66.8318 628.61 66.349 628.02 66.349H618.552C617.962 66.349 617.479 66.8318 617.479 67.4219C617.479 68.0119 617.962 68.4947 618.552 68.4947Z" fill="#374254"/>
<path d="M576.984 110.674H587.631V111.571H576.984V110.674ZM581.742 108.152H582.821V111.051H581.742V108.152ZM578.271 102.133H586.318V105.695H579.376V108.048H578.31V104.824H585.252V103.004H578.271V102.133ZM578.31 107.593H586.591V108.477H578.31V107.593ZM590.347 101.561H591.413V102.861H597.094V101.561H598.173V105.903H590.347V101.561ZM591.413 103.706V105.032H597.094V103.706H591.413ZM588.93 107.216H599.551V108.087H588.93V107.216ZM593.714 105.487H594.78V107.45H593.714V105.487ZM593.701 108.867H594.624V109.179C594.624 111.233 592.557 112.585 590.152 112.975L589.762 112.13C591.894 111.831 593.701 110.687 593.701 109.179V108.867ZM593.87 108.867H594.793V109.179C594.793 110.687 596.587 111.831 598.732 112.13L598.329 112.975C595.924 112.585 593.87 111.233 593.87 109.179V108.867ZM612.896 101.249H613.975V113.027H612.896V101.249ZM605.018 109.296H605.993C607.956 109.296 609.711 109.218 611.791 108.88L611.908 109.764C609.776 110.115 608.008 110.193 605.993 110.193H605.018V109.296ZM604.992 102.354H610.426V106.553H606.097V109.634H605.018V105.669H609.334V103.238H604.992V102.354ZM621.007 102.068H621.943V102.965C621.943 105.526 619.564 107.515 617.211 108.048L616.73 107.151C618.797 106.761 621.007 104.967 621.007 102.965V102.068ZM621.202 102.068H622.138V102.965C622.138 104.98 624.361 106.761 626.415 107.151L625.934 108.048C623.594 107.515 621.202 105.539 621.202 102.965V102.068ZM616.301 110.544H626.948V111.428H616.301V110.544ZM629.625 107.593H637.698V108.464H629.625V107.593ZM628.26 110.609H638.907V111.506H628.26V110.609ZM629.625 102.263H637.568V103.147H630.717V107.866H629.625V102.263ZM630.366 104.889H637.321V105.747H630.366V104.889Z" fill="#374254"/>
<rect y="160" width="156.667" height="140" rx="10" fill="#EEF0F7"/>
<g clip-path="url(#clip1_1_1588)">
<path d="M62.2698 213.495H62.2898V213.445C62.5598 211.895 62.9998 210.345 63.6498 208.835C64.2598 207.405 65.0798 206.045 66.0798 204.835C66.5898 204.255 66.8498 203.545 66.8498 202.775C66.8498 202.005 66.5598 201.365 65.9798 200.835C64.7198 199.615 62.8498 199.695 61.8098 200.835C60.3298 202.535 59.0898 204.495 58.1398 206.675C57.2498 208.865 56.6398 211.145 56.3998 213.405C56.2798 214.205 56.4898 214.905 57.0498 215.435C57.5898 215.995 58.3098 216.335 59.0698 216.365H59.1398C59.8898 216.365 60.6198 216.065 61.1798 215.515C61.7298 215.005 62.0998 214.325 62.2698 213.495Z" fill="#374254"/>
<path d="M73.6992 235.435C73.6992 236.695 74.1592 237.785 75.0792 238.685C75.9792 239.585 77.0792 240.015 78.3292 240.015C79.5792 240.015 80.6792 239.585 81.5792 238.685C82.4992 237.785 82.9592 236.695 82.9592 235.435H73.6992Z" fill="#374254"/>
<path d="M100.259 213.405C100.019 211.145 99.4086 208.865 98.5186 206.675C97.5686 204.495 96.3286 202.535 94.8486 200.835C93.8086 199.695 91.9386 199.615 90.6786 200.835C90.0986 201.365 89.8086 201.995 89.8086 202.775C89.8086 203.555 90.0686 204.255 90.5786 204.835C91.5786 206.045 92.3986 207.405 93.0086 208.835C93.6586 210.345 94.0986 211.895 94.3686 213.445V213.495H94.3886C94.5586 214.325 94.9286 215.005 95.4786 215.515C96.0386 216.065 96.7686 216.365 97.5186 216.365H97.5886C98.3486 216.335 99.0686 215.995 99.6086 215.435C100.169 214.905 100.379 214.205 100.259 213.405Z" fill="#374254"/>
<path d="M94.2194 229.365H91.9694V216.235C91.9694 213.185 91.0694 210.395 89.3194 207.965C87.5694 205.565 85.2194 203.985 82.3294 203.255L81.6994 203.115V201.345C81.6994 200.395 81.3894 199.615 80.7294 198.965C80.0694 198.305 79.1994 197.985 78.3294 197.985C77.4594 197.985 76.5894 198.305 75.9294 198.965C75.2694 199.615 74.9594 200.395 74.9594 201.345V203.115L74.3294 203.255C71.4394 203.985 69.0894 205.565 67.3394 207.965C65.5894 210.395 64.6894 213.185 64.6894 216.235V229.365H62.4394C61.7794 229.365 61.2494 229.605 60.7894 230.065C60.3294 230.535 60.1094 231.085 60.1094 231.715C60.1094 232.345 60.3294 232.905 60.7894 233.365C61.2494 233.835 61.7794 234.045 62.4394 234.045H94.2194C94.8794 234.045 95.4094 233.835 95.8694 233.365C96.3294 232.905 96.5494 232.355 96.5494 231.715C96.5494 231.075 96.3294 230.535 95.8694 230.065C95.4094 229.605 94.8794 229.365 94.2194 229.365ZM86.4294 228.515H70.2294V216.235C70.2294 214.035 70.9994 212.115 72.5994 210.535C74.1794 208.965 76.0694 208.155 78.3094 208.155H78.3494C80.5894 208.155 82.4794 208.965 84.0594 210.535C85.6594 212.115 86.4294 214.035 86.4294 216.235V228.515Z" fill="#374254"/>
</g>
<path d="M75.018 261.262H76.097V267.242H75.018V261.262ZM75.629 263.784H77.826V264.681H75.629V263.784ZM68.635 267.801H76.097V270.687H69.727V272.442H68.661V269.868H75.044V268.659H68.635V267.801ZM68.661 271.987H76.526V272.858H68.661V271.987ZM70.221 261.678C71.989 261.678 73.263 262.757 73.263 264.291C73.263 265.838 71.989 266.917 70.221 266.917C68.479 266.917 67.192 265.838 67.192 264.291C67.192 262.757 68.479 261.678 70.221 261.678ZM70.221 262.562C69.09 262.562 68.245 263.277 68.245 264.291C68.245 265.318 69.09 266.033 70.221 266.033C71.378 266.033 72.223 265.318 72.223 264.291C72.223 263.277 71.378 262.562 70.221 262.562ZM87.484 261.262H88.576V268.23H87.484V261.262ZM79.541 266.787H80.49C82.622 266.787 84.195 266.722 86.08 266.423L86.197 267.294C84.26 267.619 82.674 267.684 80.49 267.684H79.541V266.787ZM79.515 261.964H84.845V265.175H80.594V267.32H79.541V264.343H83.792V262.848H79.515V261.964ZM80.984 268.88H88.576V272.858H80.984V268.88ZM87.51 269.738H82.037V271.987H87.51V269.738Z" fill="#374254"/>
<rect x="176.666" y="160" width="156.667" height="140" rx="10" fill="#EEF0F7"/>
<path fill-rule="evenodd" clip-rule="evenodd" d="M267.718 216.24V216.871H263.836C263.278 216.871 262.72 216.992 262.186 217.138V216.24C262.186 214.032 261.41 212.115 259.808 210.538C258.231 208.961 256.339 208.16 254.106 208.16C251.874 208.16 249.982 208.961 248.405 210.538C246.803 212.115 246.027 214.032 246.027 216.24V228.517H257.528V234.049H238.238C237.583 234.049 237.049 233.831 236.588 233.37C236.127 232.909 235.909 232.351 235.909 231.72C235.909 231.089 236.127 230.531 236.588 230.07C237.049 229.609 237.583 229.367 238.238 229.367H240.495V216.24C240.495 213.183 241.392 210.393 243.139 207.966C244.886 205.564 247.24 203.987 250.127 203.259L250.758 203.114V201.342C250.758 200.396 251.074 199.62 251.729 198.964C253.039 197.654 255.15 197.654 256.484 198.964C257.139 199.62 257.455 200.396 257.455 201.342V203.114L258.086 203.259C261.022 203.987 263.375 205.564 265.098 207.966C266.82 210.393 267.718 213.183 267.718 216.24ZM258.207 237.568C258.013 237.956 257.746 238.344 257.406 238.684C256.509 239.581 255.417 240.018 254.155 240.018C252.893 240.018 251.777 239.581 250.879 238.684C249.957 237.786 249.496 236.694 249.496 235.432H257.6C257.673 236.185 257.892 236.912 258.207 237.568ZM270.169 213.498C269.902 211.921 269.441 210.368 268.81 208.864L268.834 208.84C268.228 207.384 267.403 206.025 266.384 204.788C265.898 204.254 265.632 203.526 265.632 202.774C265.632 202.022 265.923 201.391 266.505 200.833C267.742 199.644 269.635 199.692 270.654 200.857C272.134 202.555 273.347 204.521 274.294 206.68C275.216 208.815 275.822 211.096 276.065 213.401C276.186 214.178 275.968 214.857 275.385 215.439C274.852 215.997 274.148 216.337 273.372 216.337H273.299C272.522 216.337 271.794 216.046 271.236 215.488C270.703 214.978 270.339 214.323 270.169 213.498ZM238.093 213.498V213.45C238.359 211.897 238.796 210.344 239.451 208.84C240.058 207.408 240.883 206.049 241.878 204.836C242.387 204.254 242.654 203.55 242.654 202.774C242.654 201.997 242.363 201.367 241.781 200.833C240.519 199.62 238.651 199.692 237.607 200.833C236.127 202.531 234.89 204.497 233.944 206.68C233.046 208.864 232.439 211.145 232.197 213.401C232.075 214.202 232.294 214.906 232.852 215.439C233.385 215.997 234.113 216.337 234.866 216.361H234.938C235.69 216.361 236.418 216.07 236.976 215.512C237.535 215.003 237.898 214.323 238.068 213.498H238.093ZM263.836 220.753H275.41C276.768 220.753 277.836 221.845 277.836 223.179V234.777C277.836 236.112 276.768 237.204 275.41 237.204H263.836C262.502 237.204 261.41 236.112 261.41 234.777V223.179C261.41 221.845 262.502 220.753 263.836 220.753ZM265.365 233.88H273.905C274.439 233.88 274.876 233.443 274.876 232.909C274.876 232.375 274.439 231.938 273.905 231.938H265.365C264.831 231.938 264.394 232.375 264.394 232.909C264.394 233.443 264.831 233.88 265.365 233.88ZM265.365 229.949H273.905C274.439 229.949 274.876 229.512 274.876 228.978C274.876 228.445 274.439 228.008 273.905 228.008H265.365C264.831 228.008 264.394 228.445 264.394 228.978C264.394 229.512 264.831 229.949 265.365 229.949ZM265.365 226.018H273.905C274.439 226.018 274.876 225.606 274.876 225.048C274.876 224.49 274.439 224.077 273.905 224.077H265.365C264.831 224.077 264.394 224.514 264.394 225.048C264.394 225.581 264.831 226.018 265.365 226.018Z" fill="#374254"/>
<path d="M231.684 261.262H232.763V267.242H231.684V261.262ZM232.295 263.784H234.492V264.681H232.295V263.784ZM225.301 267.801H232.763V270.687H226.393V272.442H225.327V269.868H231.71V268.659H225.301V267.801ZM225.327 271.987H233.192V272.858H225.327V271.987ZM226.887 261.678C228.655 261.678 229.929 262.757 229.929 264.291C229.929 265.838 228.655 266.917 226.887 266.917C225.145 266.917 223.858 265.838 223.858 264.291C223.858 262.757 225.145 261.678 226.887 261.678ZM226.887 262.562C225.756 262.562 224.911 263.277 224.911 264.291C224.911 265.318 225.756 266.033 226.887 266.033C228.044 266.033 228.889 265.318 228.889 264.291C228.889 263.277 228.044 262.562 226.887 262.562ZM244.15 261.262H245.242V268.23H244.15V261.262ZM236.207 266.787H237.156C239.288 266.787 240.861 266.722 242.746 266.423L242.863 267.294C240.926 267.619 239.34 267.684 237.156 267.684H236.207V266.787ZM236.181 261.964H241.511V265.175H237.26V267.32H236.207V264.343H240.458V262.848H236.181V261.964ZM237.65 268.88H245.242V272.858H237.65V268.88ZM244.176 269.738H238.703V271.987H244.176V269.738ZM259.562 261.249H260.641V273.027H259.562V261.249ZM251.684 269.296H252.659C254.622 269.296 256.377 269.218 258.457 268.88L258.574 269.764C256.442 270.115 254.674 270.193 252.659 270.193H251.684V269.296ZM251.658 262.354H257.092V266.553H252.763V269.634H251.684V265.669H256V263.238H251.658V262.354ZM267.673 262.068H268.609V262.965C268.609 265.526 266.23 267.515 263.877 268.048L263.396 267.151C265.463 266.761 267.673 264.967 267.673 262.965V262.068ZM267.868 262.068H268.804V262.965C268.804 264.98 271.027 266.761 273.081 267.151L272.6 268.048C270.26 267.515 267.868 265.539 267.868 262.965V262.068ZM262.967 270.544H273.614V271.428H262.967V270.544ZM276.291 267.593H284.364V268.464H276.291V267.593ZM274.926 270.609H285.573V271.506H274.926V270.609ZM276.291 262.263H284.234V263.147H277.383V267.866H276.291V262.263ZM277.032 264.889H283.987V265.747H277.032V264.889Z" fill="#374254"/>
<rect x="353.334" y="160" width="156.667" height="140" rx="10" fill="#EEF0F7"/>
<g clip-path="url(#clip2_1_1588)">
<path d="M439.773 216.836H423.564C422.364 216.836 421.412 217.812 421.412 218.988C421.412 220.164 422.388 221.14 423.564 221.14H439.773C440.949 221.14 441.925 220.164 441.925 218.988C441.925 217.812 440.973 216.836 439.773 216.836Z" fill="#374254"/>
<path d="M439.773 224.388H423.564C422.364 224.388 421.412 225.372 421.412 226.54C421.412 227.708 422.388 228.693 423.564 228.693H439.773C440.949 228.693 441.925 227.716 441.925 226.54C441.925 225.364 440.973 224.388 439.773 224.388Z" fill="#374254"/>
<path d="M445.149 200.115H418.187C415.179 200.115 412.787 202.539 412.787 205.515V232.485C412.787 235.493 415.179 237.885 418.187 237.885H445.149C448.157 237.885 450.549 235.493 450.549 232.485V205.515C450.549 202.539 448.157 200.115 445.149 200.115ZM445.685 232.485C445.685 232.773 445.445 233.021 445.149 233.021H418.187C417.891 233.021 417.651 232.773 417.651 232.485V205.515C417.651 205.227 417.891 204.979 418.187 204.979H445.149C445.445 204.979 445.685 205.227 445.685 205.515V232.485Z" fill="#374254"/>
<path d="M439.773 209.283H423.564C422.364 209.283 421.412 210.259 421.412 211.436C421.412 212.612 422.388 213.588 423.564 213.588H439.773C440.949 213.588 441.925 212.612 441.925 211.436C441.925 210.259 440.973 209.283 439.773 209.283Z" fill="#374254"/>
</g>
<path d="M420.981 262.406H426.389V270.063H420.981V262.406ZM425.336 263.277H422.034V269.192H425.336V263.277ZM428.846 261.249H429.925V273.027H428.846V261.249ZM438.504 262.991H441.143V263.888H438.504V262.991ZM438.504 265.409H441.143V266.293H438.504V265.409ZM435.215 261.925H436.086V263.42C436.086 265.721 434.825 267.684 432.862 268.477L432.29 267.619C434.045 266.943 435.215 265.266 435.215 263.42V261.925ZM435.41 261.925H436.294V263.42C436.294 265.136 437.425 266.761 439.128 267.437L438.53 268.282C436.671 267.502 435.41 265.604 435.41 263.42V261.925ZM440.857 261.275H441.936V270.037H440.857V261.275ZM434.383 271.87H442.222V272.754H434.383V271.87ZM434.383 269.153H435.462V272.351H434.383V269.153Z" fill="#374254"/>
<rect x="530" y="160" width="156.667" height="140" rx="10" fill="#EEF0F7"/>
<path fill-rule="evenodd" clip-rule="evenodd" d="M591.736 231.601C591.443 231.601 591.198 231.357 591.198 231.063V204.101C591.198 203.808 591.443 203.563 591.736 203.563H618.698C618.992 203.563 619.236 203.808 619.236 204.101V214.857C619.36 214.847 619.484 214.83 619.609 214.813L619.609 214.813L619.609 214.813L619.609 214.813C619.805 214.786 620.005 214.759 620.214 214.759C621.558 214.759 622.854 215.003 624.101 215.346V204.101C624.101 201.143 621.681 198.699 618.698 198.699H591.736C588.73 198.699 586.334 201.119 586.334 204.101V231.063C586.334 234.07 588.73 236.466 591.736 236.466H607.821C606.941 234.974 606.305 233.337 606.036 231.601H591.736ZM597.114 207.867C595.916 207.867 594.963 208.845 594.963 210.018C594.963 211.191 595.941 212.169 597.114 212.169H613.296C614.494 212.169 615.447 211.216 615.447 210.018C615.447 208.82 614.47 207.867 613.296 207.867H597.114ZM597.114 215.419H613.321L613.296 215.394C613.785 215.394 614.225 215.59 614.567 215.859C612.881 216.592 611.341 217.619 609.996 218.963C609.903 219.067 609.819 219.175 609.734 219.283C609.618 219.431 609.502 219.58 609.361 219.721H597.114C595.941 219.721 594.963 218.743 594.963 217.57C594.963 216.396 595.916 215.419 597.114 215.419ZM605.963 227.299C606.158 225.783 606.55 224.341 607.21 222.972H597.114C595.916 222.972 594.963 223.95 594.963 225.123C594.963 226.297 595.941 227.275 597.114 227.275H605.963V227.299ZM620.238 219.086C623.025 219.086 625.396 220.063 627.376 222.043C629.356 223.999 630.334 226.37 630.334 229.181C630.334 231.992 629.38 234.388 627.376 236.368C625.42 238.323 623.025 239.301 620.238 239.301C617.451 239.301 615.056 238.348 613.1 236.368C611.145 234.388 610.143 231.943 610.143 229.181C610.143 226.419 611.145 223.999 613.1 222.043C615.056 220.088 617.451 219.086 620.238 219.086ZM614.665 230.746C615.08 230.746 615.423 230.574 615.716 230.281C616.009 229.988 616.18 229.621 616.18 229.206C616.18 228.79 616.009 228.448 615.716 228.154C615.423 227.861 615.056 227.69 614.665 227.69C614.274 227.69 613.907 227.861 613.589 228.154C613.296 228.448 613.149 228.814 613.149 229.206C613.149 229.597 613.296 229.988 613.589 230.281C613.907 230.574 614.249 230.746 614.665 230.746ZM620.214 230.746C620.629 230.746 620.971 230.574 621.265 230.281C621.583 229.988 621.729 229.621 621.729 229.206C621.729 228.79 621.583 228.448 621.265 228.154C620.971 227.861 620.629 227.69 620.214 227.69C619.798 227.69 619.456 227.861 619.163 228.154C618.845 228.448 618.698 228.814 618.698 229.206C618.698 229.597 618.845 229.988 619.163 230.281C619.456 230.574 619.798 230.746 620.214 230.746ZM625.763 230.746C626.154 230.746 626.52 230.574 626.838 230.281C627.131 229.988 627.303 229.621 627.303 229.206C627.303 228.79 627.131 228.448 626.838 228.154C626.52 227.861 626.178 227.69 625.763 227.69C625.347 227.69 625.005 227.861 624.711 228.154C624.418 228.448 624.247 228.814 624.247 229.206C624.247 229.597 624.418 229.988 624.711 230.281C625.005 230.574 625.371 230.746 625.763 230.746Z" fill="#374254"/>
<path d="M583.647 262.406H589.055V270.063H583.647V262.406ZM588.002 263.277H584.7V269.192H588.002V263.277ZM591.512 261.249H592.591V273.027H591.512V261.249ZM601.17 262.991H603.809V263.888H601.17V262.991ZM601.17 265.409H603.809V266.293H601.17V265.409ZM597.881 261.925H598.752V263.42C598.752 265.721 597.491 267.684 595.528 268.477L594.956 267.619C596.711 266.943 597.881 265.266 597.881 263.42V261.925ZM598.076 261.925H598.96V263.42C598.96 265.136 600.091 266.761 601.794 267.437L601.196 268.282C599.337 267.502 598.076 265.604 598.076 263.42V261.925ZM603.523 261.275H604.602V270.037H603.523V261.275ZM597.049 271.87H604.888V272.754H597.049V271.87ZM597.049 269.153H598.128V272.351H597.049V269.153ZM613.189 261.873H614.086V263.069C614.086 265.331 612.812 267.203 610.849 267.97L610.277 267.099C612.045 266.449 613.189 264.863 613.189 263.069V261.873ZM613.384 261.873H614.268V263.147C614.268 264.733 615.438 266.202 617.128 266.787L616.556 267.632C614.671 266.93 613.384 265.188 613.384 263.147V261.873ZM618.376 261.262H619.455V268.386H618.376V261.262ZM619.156 264.291H621.197V265.201H619.156V264.291ZM615.711 268.711C618.116 268.711 619.572 269.504 619.572 270.856C619.572 272.208 618.116 272.988 615.711 272.988C613.306 272.988 611.85 272.208 611.85 270.856C611.85 269.504 613.306 268.711 615.711 268.711ZM615.711 269.569C613.969 269.569 612.903 270.037 612.903 270.856C612.903 271.675 613.969 272.143 615.711 272.143C617.453 272.143 618.519 271.675 618.519 270.856C618.519 270.037 617.453 269.569 615.711 269.569ZM622.756 269.205H623.523C625.382 269.205 626.487 269.166 627.8 268.906L627.917 269.803C626.552 270.076 625.408 270.115 623.523 270.115H622.756V269.205ZM622.756 262.601H627.384V263.485H623.783V269.543H622.756V262.601ZM623.471 265.708H627.202V266.579H623.471V265.708ZM631.245 261.262H632.285V273.014H631.245V261.262ZM629.386 265.968H631.635V266.865H629.386V265.968ZM628.658 261.509H629.685V272.429H628.658V261.509Z" fill="#374254"/>
<rect x="706.666" y="160" width="156.667" height="140" rx="10" fill="#EEF0F7"/>
<path d="M768.402 231.603C768.109 231.603 767.865 231.358 767.865 231.065V204.101C767.865 203.808 768.109 203.564 768.402 203.564H795.366C795.659 203.564 795.904 203.808 795.904 204.101V214.857C796.221 214.833 796.539 214.76 796.882 214.76C798.226 214.76 799.522 215.004 800.768 215.346V204.101C800.768 201.143 798.348 198.699 795.366 198.699H768.402C765.396 198.699 763 201.119 763 204.101V231.065C763 234.072 765.396 236.467 768.402 236.467H784.488C783.608 234.976 782.972 233.338 782.703 231.603H768.402Z" fill="#374254"/>
<path d="M773.78 207.865C772.582 207.865 771.629 208.843 771.629 210.016C771.629 211.189 772.607 212.167 773.78 212.167H789.963C791.161 212.167 792.114 211.214 792.114 210.016C792.114 208.818 791.136 207.865 789.963 207.865H773.78Z" fill="#374254"/>
<path d="M789.988 215.423H773.78C772.582 215.423 771.629 216.4 771.629 217.574C771.629 218.747 772.607 219.725 773.78 219.725H786.027C786.272 219.48 786.443 219.212 786.663 218.967C788.007 217.623 789.547 216.596 791.234 215.863C790.892 215.594 790.452 215.398 789.963 215.398L789.988 215.423Z" fill="#374254"/>
<path d="M782.629 227.297C782.825 225.782 783.216 224.339 783.876 222.97H773.78C772.582 222.97 771.629 223.948 771.629 225.122C771.629 226.295 772.607 227.273 773.78 227.273H782.629V227.297Z" fill="#374254"/>
<path d="M804.016 222.043C802.061 220.062 799.665 219.06 796.878 219.06C794.091 219.06 791.696 220.062 789.716 222.043C787.76 223.998 786.758 226.394 786.758 229.181C786.758 231.967 787.76 234.388 789.716 236.368C791.696 238.323 794.067 239.301 796.878 239.301C799.689 239.301 802.061 238.323 804.016 236.368C806.021 234.388 806.999 231.992 806.999 229.181C806.999 226.369 806.021 223.998 804.016 222.043ZM802.721 227.249L797.392 235.072C797.098 235.536 796.609 235.83 796.096 235.903C795.998 235.903 795.876 235.903 795.778 235.903C795.363 235.903 794.923 235.781 794.58 235.512L791.451 233.092C790.596 232.432 790.425 231.21 791.085 230.354C791.72 229.498 792.943 229.327 793.823 229.987L795.314 231.136L799.494 225.025C800.105 224.145 801.327 223.9 802.207 224.512C803.112 225.123 803.332 226.345 802.721 227.225V227.249Z" fill="#374254"/>
<path d="M760.313 262.406H765.721V270.063H760.313V262.406ZM764.668 263.277H761.366V269.192H764.668V263.277ZM768.178 261.249H769.257V273.027H768.178V261.249ZM777.836 262.991H780.475V263.888H777.836V262.991ZM777.836 265.409H780.475V266.293H777.836V265.409ZM774.547 261.925H775.418V263.42C775.418 265.721 774.157 267.684 772.194 268.477L771.622 267.619C773.377 266.943 774.547 265.266 774.547 263.42V261.925ZM774.742 261.925H775.626V263.42C775.626 265.136 776.757 266.761 778.46 267.437L777.862 268.282C776.003 267.502 774.742 265.604 774.742 263.42V261.925ZM780.189 261.275H781.268V270.037H780.189V261.275ZM773.715 271.87H781.554V272.754H773.715V271.87ZM773.715 269.153H774.794V272.351H773.715V269.153ZM795.588 261.262H796.667V267.255H795.588V261.262ZM791.87 261.834H793.04C793.04 264.798 790.999 266.696 787.567 267.528L787.19 266.644C790.232 265.942 791.87 264.395 791.87 262.367V261.834ZM787.801 261.834H792.364V262.718H787.801V261.834ZM792.624 262.952H795.77V263.81H792.624V262.952ZM792.52 265.201H795.705V266.046H792.52V265.201ZM789.101 267.801H796.667V270.687H790.206V272.559H789.14V269.855H795.601V268.672H789.101V267.801ZM789.14 272.039H797.057V272.897H789.14V272.039ZM799.487 262.549H804.804V263.42H799.487V262.549ZM801.32 265.903H802.386V269.881H801.32V265.903ZM804.362 262.549H805.415V263.173C805.415 264.135 805.415 265.669 805.077 267.853L804.011 267.749C804.362 265.63 804.362 264.122 804.362 263.173V262.549ZM806.897 261.262H807.963V273.014H806.897V261.262ZM807.677 266.176H809.848V267.086H807.677V266.176ZM798.967 270.453L798.837 269.543C800.969 269.543 803.803 269.504 806.182 269.205L806.234 269.998C803.803 270.388 801.047 270.44 798.967 270.453Z" fill="#374254"/>
<rect x="883.334" y="160" width="156.667" height="140" rx="10" fill="#EEF0F7"/>
<g clip-path="url(#clip3_1_1588)">
<path d="M961.668 201.5C971.038 201.5 978.668 209.13 978.668 218.5C978.668 227.87 971.038 235.5 961.668 235.5C952.298 235.5 944.668 227.87 944.668 218.5C944.668 209.13 952.298 201.5 961.668 201.5ZM961.668 196.5C949.518 196.5 939.668 206.35 939.668 218.5C939.668 230.65 949.518 240.5 961.668 240.5C973.818 240.5 983.668 230.65 983.668 218.5C983.668 206.35 973.818 196.5 961.668 196.5Z" fill="#374254"/>
<path d="M961.668 211.699V218.499" stroke="#374254" stroke-width="4.5" stroke-miterlimit="10" stroke-linecap="round"/>
<path d="M966.648 223.14L961.668 218.5" stroke="#374254" stroke-width="4.5" stroke-miterlimit="10" stroke-linecap="round"/>
</g>
<path d="M952.7 262.028H953.652V264.296C953.652 267.208 952.084 269.91 950.012 270.96L949.298 270.008C951.174 269.112 952.7 266.69 952.7 264.296V262.028ZM952.896 262.028H953.848V264.296C953.848 266.606 955.36 268.93 957.236 269.798L956.536 270.722C954.478 269.714 952.896 267.11 952.896 264.296V262.028ZM958.552 260.922H959.714V273.606H958.552V260.922ZM970.899 260.936H972.061V270.19H970.899V260.936ZM971.697 264.772H973.937V265.738H971.697V264.772ZM967.441 261.916H968.673C968.673 265.192 966.377 267.586 962.751 268.748L962.247 267.796C965.439 266.816 967.441 264.856 967.441 262.42V261.916ZM962.765 261.916H968.029V262.868H962.765V261.916ZM964.165 272.36H972.621V273.312H964.165V272.36ZM964.165 269.252H965.327V272.738H964.165V269.252Z" fill="#374254"/>
<defs>
<clipPath id="clip0_1_1588">
<rect width="43.408" height="39.368" fill="white" transform="translate(56.6309 39.316)"/>
</clipPath>
<clipPath id="clip1_1_1588">
<rect width="43.93" height="42.03" fill="white" transform="translate(56.3691 197.985)"/>
</clipPath>
<clipPath id="clip2_1_1588">
<rect width="37.762" height="37.77" fill="white" transform="translate(412.787 200.115)"/>
</clipPath>
<clipPath id="clip3_1_1588">
<rect width="44" height="44" fill="white" transform="translate(939.668 196.5)"/>
</clipPath>
</defs>
</svg>
