<svg width="16" height="14" viewBox="0 0 16 14" fill="none" xmlns="http://www.w3.org/2000/svg">
<g clip-path="url(#clip0_26_2)">
<mask id="mask0_26_2" style="mask-type:luminance" maskUnits="userSpaceOnUse" x="0" y="0" width="16" height="14">
<path d="M15.5 0H0.5V14H15.5V0Z" fill="white"/>
</mask>
<g mask="url(#mask0_26_2)">
<path d="M0.5 12.0155V6.36804C0.5 5.98156 0.615077 5.68192 0.845231 5.46914C1.07973 5.25201 1.40325 5.14345 1.81579 5.14345H3.37258V2.03637C3.37258 1.36328 3.54194 0.85954 3.88066 0.525166C4.22372 0.186448 4.73614 0.0170898 5.41791 0.0170898H13.267C13.9488 0.0170898 14.4591 0.186448 14.7978 0.525166C15.1408 0.85954 15.3124 1.36328 15.3124 2.03637V11.9699C15.3124 12.6387 15.1408 13.1402 14.7978 13.4746C14.4591 13.8133 13.9488 13.9827 13.267 13.9827H2.46717C1.8071 13.9827 1.31422 13.8177 0.988535 13.4876C0.662845 13.1576 0.5 12.6669 0.5 12.0155ZM1.54872 12.0155C1.54872 12.2761 1.63557 12.4932 1.80927 12.6669C1.98732 12.8449 2.20661 12.934 2.46717 12.934C2.71903 12.934 2.93182 12.8471 3.10552 12.6734C3.28356 12.5041 3.37258 12.2848 3.37258 12.0155V6.19217H1.93303C1.81144 6.19217 1.71591 6.22691 1.64643 6.29639C1.58129 6.36153 1.54872 6.45272 1.54872 6.56997V12.0155ZM4.19983 12.934H13.2475C13.5732 12.934 13.8229 12.8471 13.9966 12.6734C14.1746 12.5041 14.2636 12.25 14.2636 11.9113V2.09499C14.2636 1.75627 14.1746 1.50007 13.9966 1.32636C13.8229 1.15266 13.5732 1.06581 13.2475 1.06581H5.43746C5.11177 1.06581 4.8599 1.15266 4.68186 1.32636C4.50815 1.50007 4.4213 1.75627 4.4213 2.09499V11.9504C4.4213 12.3195 4.34748 12.6474 4.19983 12.934ZM6.11489 3.89931C5.99764 3.89931 5.89993 3.86023 5.82177 3.78206C5.7436 3.69956 5.70452 3.60185 5.70452 3.48894C5.70452 3.38038 5.7436 3.28919 5.82177 3.21536C5.89993 3.1372 5.99764 3.09812 6.11489 3.09812H12.5831C12.696 3.09812 12.7915 3.1372 12.8697 3.21536C12.9479 3.28919 12.9869 3.38038 12.9869 3.48894C12.9869 3.60185 12.9479 3.69956 12.8697 3.78206C12.7915 3.86023 12.696 3.89931 12.5831 3.89931H6.11489ZM6.11489 6.19217C5.99764 6.19217 5.89993 6.15526 5.82177 6.08143C5.7436 6.00327 5.70452 5.90773 5.70452 5.79483C5.70452 5.68192 5.7436 5.58639 5.82177 5.50822C5.89993 5.43005 5.99764 5.39097 6.11489 5.39097H12.5831C12.696 5.39097 12.7915 5.43005 12.8697 5.50822C12.9479 5.58639 12.9869 5.68192 12.9869 5.79483C12.9869 5.90773 12.9479 6.00327 12.8697 6.08143C12.7915 6.15526 12.696 6.19217 12.5831 6.19217H6.11489ZM6.4992 10.8365C6.24734 10.8365 6.04975 10.767 5.90645 10.6281C5.76749 10.4848 5.69801 10.2894 5.69801 10.0418V8.49154C5.69801 8.23967 5.76749 8.04426 5.90645 7.9053C6.04975 7.76199 6.24734 7.69034 6.4992 7.69034H8.18628C8.4338 7.69034 8.62704 7.76199 8.766 7.9053C8.90931 8.04426 8.98096 8.23967 8.98096 8.49154V10.0418C8.98096 10.2894 8.90931 10.4848 8.766 10.6281C8.62704 10.767 8.4338 10.8365 8.18628 10.8365H6.4992ZM10.1534 8.49154C10.0362 8.49154 9.93849 8.45463 9.86032 8.3808C9.7865 8.30264 9.74959 8.20927 9.74959 8.10071C9.74959 7.98346 9.7865 7.88575 9.86032 7.80759C9.93849 7.72942 10.0362 7.69034 10.1534 7.69034H12.5766C12.6938 7.69034 12.7894 7.72942 12.8632 7.80759C12.9413 7.88575 12.9804 7.98346 12.9804 8.10071C12.9804 8.20927 12.9413 8.30264 12.8632 8.3808C12.7894 8.45463 12.6938 8.49154 12.5766 8.49154H10.1534ZM10.1534 10.8365C10.0362 10.8365 9.93849 10.7996 9.86032 10.7258C9.7865 10.6476 9.74959 10.5543 9.74959 10.4457C9.74959 10.3284 9.7865 10.2307 9.86032 10.1526C9.93849 10.0744 10.0362 10.0353 10.1534 10.0353H12.5766C12.6938 10.0353 12.7894 10.0744 12.8632 10.1526C12.9413 10.2307 12.9804 10.3284 12.9804 10.4457C12.9804 10.5543 12.9413 10.6476 12.8632 10.7258C12.7894 10.7996 12.6938 10.8365 12.5766 10.8365H10.1534Z" fill="#432DF1"/>
</g>
</g>
<defs>
<clipPath id="clip0_26_2">
<rect width="16" height="14" fill="white"/>
</clipPath>
</defs>
</svg>
