<?xml version="1.0" encoding="utf-8"?>
<!-- Generator: Adobe Illustrator 27.0.0, SVG Export Plug-In . SVG Version: 6.00 Build 0)  -->
<svg version="1.1" id="레이어_1" xmlns="http://www.w3.org/2000/svg" xmlns:xlink="http://www.w3.org/1999/xlink" x="0px"
	 y="0px" viewBox="0 0 1002.5 591" style="enable-background:new 0 0 1002.5 591;" xml:space="preserve">
<style type="text/css">
	.st0{clip-path:url(#SVGID_00000039817961233540495100000005131147959324283783_);}
	.st1{fill:#999999;}
	.st2{font-family:'NotoSansCJKkr-Regular-KSCpc-EUC-H';}
	.st3{font-size:15.64px;}
	.st4{clip-path:url(#SVGID_00000069398079386850028150000006498110598952738491_);}
	.st5{clip-path:url(#SVGID_00000115475405948284453910000012998311358297497220_);}
	.st6{clip-path:url(#SVGID_00000127757995693881202740000015242219363480907442_);}
	.st7{clip-path:url(#SVGID_00000019658713717863202780000016267532066588435606_);}
	.st8{clip-path:url(#SVGID_00000060711356398858741460000013327546254164896935_);}
	.st9{clip-path:url(#SVGID_00000085944279497369464480000000265013629807459477_);}
	.st10{fill:#FFDD12;}
	.st11{fill:#432DF1;}
	.st12{clip-path:url(#SVGID_00000157295748334265889850000004816281492639982740_);}
	.st13{clip-path:url(#SVGID_00000144299740292337117110000017480576294276491422_);}
</style>
<g>
	<g>
		<g>
			<g>
				<defs>
					<rect id="SVGID_1_" x="215" y="19.8" width="83.7" height="56.3"/>
				</defs>
				<clipPath id="SVGID_00000173145846309860582940000008488281547043580087_">
					<use xlink:href="#SVGID_1_"  style="overflow:visible;"/>
				</clipPath>
				<g id="그룹_7907" style="clip-path:url(#SVGID_00000173145846309860582940000008488281547043580087_);">
					<path id="패스_10764" d="M298.2,64.6L275,24.5c-0.7-1.2-1.8-2.1-3.1-2.6c-0.1-0.2-0.1-0.3-0.2-0.5c-0.6-1-1.7-1.6-2.8-1.6
						h-23.7c-2.2,0-4.3,1.2-5.4,3.1l-24.4,42.3c-0.9,1.6-0.3,3.6,1.2,4.5c0.5,0.3,1,0.4,1.6,0.4h24c2.1,0,4-1.1,5-2.9l1-1.8
						c3.7,8.9,13.9,13.2,22.8,9.5c8.9-3.7,13.2-13.9,9.5-22.8c-3-7.3-10.6-11.7-18.5-10.7l9.3-16c0.3,0.2,0.6,0.5,0.8,0.8l23.1,40.2
						h-10.1c-0.9,0-1.7,0.7-1.7,1.7c0,0.9,0.7,1.7,1.7,1.7h10.1c1.8,0,3.3-1.5,3.3-3.3C298.6,65.7,298.5,65.1,298.2,64.6
						 M264.3,44.2c8,0,14.4,6.5,14.4,14.4c0,8-6.5,14.4-14.4,14.4c-6.7,0-12.6-4.6-14.1-11.2l9.9-17.1
						C261.5,44.4,262.9,44.2,264.3,44.2 M269.2,23.2l-0.9,1.6l-10.2,17.6l-2.9,5.1l-5.1,8.8l-2.9,5.1l-2.5,4.3
						c-0.5,0.9-1.5,1.4-2.5,1.4h-24c-0.1,0-0.2-0.1-0.3-0.2c-0.1-0.1-0.1-0.2,0-0.3l24.4-42.3c0.6-1,1.7-1.6,2.8-1.6h23.7
						c0.2,0,0.3,0.1,0.3,0.3C269.2,23.1,269.2,23.1,269.2,23.2"/>
				</g>
			</g>
			<text transform="matrix(1 0 0 1 249.6357 117.3185)" class="st1 st2 st3">홈</text>
		</g>
		<g>
			<g id="그룹_7918" transform="translate(0 0)">
				<g>
					<defs>
						<rect id="SVGID_00000021094514423133255790000008006610001921329594_" x="390.7" y="19.8" width="66.8" height="56.3"/>
					</defs>
					<clipPath id="SVGID_00000133496479556325310760000000992629836362843301_">
						<use xlink:href="#SVGID_00000021094514423133255790000008006610001921329594_"  style="overflow:visible;"/>
					</clipPath>
					
						<g id="그룹_7918-2" transform="translate(0 0)" style="clip-path:url(#SVGID_00000133496479556325310760000000992629836362843301_);">
						<path id="패스_10774" d="M443.4,30.9l3.6-6.3c0.9-1.5,0.4-3.5-1.2-4.4c-0.5-0.3-1.1-0.4-1.6-0.4h-23.5
							c-2.2,0-4.2,1.2-5.3,3.1l-24.2,41.9c-0.9,1.6-0.4,3.5,1.2,4.4c0.5,0.3,1.1,0.4,1.6,0.4h23.8h0.1c9.5,8.9,24.4,8.5,33.3-1
							c8.9-9.5,8.5-24.4-1-33.3C448.1,33.5,445.8,32,443.4,30.9 M454.5,51.5c-1.4,1.1-2.6,2.5-3.5,4c-0.7,1.1-0.8,1.2-1.1,1.2
							c-2.6,0-4.9,4-6,6.1c-0.4,0.2-0.8,0.3-1.3,0.4c0,0,0-0.1,0-0.1c0-1,0-2.9-1.5-3.4c-0.5-0.1-1-0.1-1.5,0.2
							c-1.2,0-2.4-0.5-3.3-1.2c-0.4-0.3-0.5-0.4,0.1-1.7c0.7-1.4,0.8-3,0.4-4.5c-0.5-1.2-0.4-1.2,0.2-1.9c0.5-0.5,0.9-1,1.2-1.6
							c1.3-2.2,0.9-3.1-0.4-4.4c-0.4-0.4-0.8-0.8-1.2-1.2c-0.8-0.9-1.7-1.6-2.7-2.2c-1.8-1.2-2.4-1.7-2.3-2.9
							c0.6-2.4,1.8-4.5,3.5-6.3C445.6,32.5,454,41,454.5,51.5 M393.9,66.7c-0.2,0-0.3-0.1-0.3-0.3c0-0.1,0-0.1,0-0.2l24.2-41.9
							c0.6-1,1.6-1.6,2.8-1.6h23.5c0.2,0,0.3,0.1,0.3,0.3c0,0.1,0,0.1,0,0.1l-3.9,6.7c-12.5-3.7-25.6,3.4-29.3,15.9
							c-2.1,7.2-0.7,14.9,3.8,20.9L393.9,66.7z M413.3,52.5c0-1.8,0.2-3.6,0.7-5.3l0.2-0.2c1-0.3,1.9-0.6,2.9-0.8
							c0.1,0.1,0.2,0.1,0.2,0.1c0.3,0.2,0.5,0.3,0.6,0.9c0.1,0.8,0,1.7-0.1,2.5c-0.2,1.8-0.4,3,0.4,3.9c0.3,0.4,0.8,0.6,1.3,0.6
							c0.3,0,0.7,0,1.1,0c0.3,0,0.7,0,1,0c0.2,0.4,0.5,0.7,0.8,1c0.4,0.4,0.8,0.9,1.1,1.5c-0.2,0.5-0.3,1.1-0.3,1.6c0,0,0,0.1,0,0.1
							c0,0,0,0.1-0.1,0.1c-0.3,1.1-0.3,2.3,0.1,3.3c0.4,1.2,0.5,2.5,0.3,3.8c-0.4,0.8-0.6,1.4-0.8,1.8c-0.1,0.2-0.2,0.4-0.3,0.5
							c-0.4,0.4-0.8,0.6-1.3,0.8h0C416.3,64.9,413.3,58.9,413.3,52.5 M433.9,73.1c-3.4,0-6.8-0.8-9.8-2.5c0.2-0.2,0.4-0.3,0.6-0.5
							c0.4-0.4,0.7-0.9,0.9-1.5c0.2-0.4,0.4-0.9,0.7-1.6c0.6-1.9,0.5-3.8-0.1-5.7c-0.1-0.5-0.2-1.1-0.3-1.6c0.2-0.4,0.3-0.9,0.3-1.4
							c0-0.3,0-0.5,0.1-0.8c0.6-1.7-0.7-3.2-1.6-4.3c-0.2-0.2-0.4-0.5-0.6-0.7c-0.7-1.4-2.3-1.4-3.5-1.3c0-0.4,0.1-0.8,0.1-1.2
							c0.2-1.2,0.2-2.4,0.1-3.6c-0.2-1.2-0.9-2.2-2-2.8c0,0-0.1,0-0.1-0.1c-0.4-0.4-0.8-0.8-3.5-0.2c3-6.3,9-10.6,15.9-11.5
							c-1.3,1.7-2.2,3.7-2.6,5.8c-0.1,2.5,1.3,4.8,3.6,5.7c0.8,0.4,1.5,1,2.1,1.6c0.4,0.5,0.9,1,1.4,1.5c0.1,0.1,0.2,0.2,0.2,0.2
							c-0.1,0.1-0.2,0.3-0.3,0.5c-0.3,0.4-0.6,0.8-0.9,1.2c-1.3,1.3-1.6,3.3-0.7,4.9c0.2,0.8,0.1,1.7-0.4,2.4c-1,1.6-0.7,3.8,0.8,5
							c1.5,1.2,3.3,1.9,5.2,1.9c0,0.1,0,0.1,0,0.2c-0.1,1.1,0.4,2.1,1.3,2.7c0.5,0.3,1,0.4,1.6,0.4c1.1-0.1,2.2-0.4,3.1-0.9l0.4-0.2
							l0.2-0.4c0.8-1.9,2-3.6,3.6-5c1.6-0.1,2.9-1.1,3.6-2.5c0.2-0.3,0.4-0.7,0.7-1.1C452.5,65.9,443.9,73.1,433.9,73.1"/>
						<path id="패스_10775" d="M425.6,42.1l-2.3-0.8c-1-0.3-2.1,0.3-2.4,1.3c-0.3,1,0.2,2,1.2,2.4l2.3,0.8c1,0.3,2.1-0.3,2.4-1.3
							C427.1,43.5,426.5,42.4,425.6,42.1"/>
					</g>
				</g>
			</g>
			<text transform="matrix(1 0 0 1 409.9629 117.2717)" class="st1 st2 st3">탐험</text>
		</g>
		<g>
			<g>
				<defs>
					<rect id="SVGID_00000039093564276267564990000003388779344341044391_" x="552.2" y="19.8" width="65.4" height="56.3"/>
				</defs>
				<clipPath id="SVGID_00000043436071645411057410000002636874410022047621_">
					<use xlink:href="#SVGID_00000039093564276267564990000003388779344341044391_"  style="overflow:visible;"/>
				</clipPath>
				<g id="그룹_8685" style="clip-path:url(#SVGID_00000043436071645411057410000002636874410022047621_);">
					<path id="패스_11046" d="M591.1,30.6l-3.5-1.7l-1.7-3.5c-0.4-0.7-1.3-1-2-0.7c-0.3,0.1-0.5,0.4-0.7,0.7l-1.7,3.5l-3.5,1.7
						c-0.7,0.4-1,1.3-0.7,2c0.1,0.3,0.4,0.5,0.7,0.7l3.5,1.7l1.7,3.5c0.4,0.7,1.3,1,2,0.7c0.3-0.1,0.5-0.4,0.7-0.7l1.7-3.5l3.5-1.7
						c0.7-0.4,1-1.3,0.7-2C591.7,31,591.4,30.7,591.1,30.6 M585.9,32.6c-0.3,0.1-0.5,0.4-0.7,0.7l-0.6,1.3l-0.6-1.3
						c-0.1-0.3-0.4-0.5-0.7-0.7l-1.3-0.6l1.3-0.6c0.3-0.1,0.5-0.4,0.7-0.7l0.6-1.3l0.6,1.3c0.1,0.3,0.4,0.5,0.7,0.7l1.3,0.6
						L585.9,32.6z"/>
					<path id="패스_11047" d="M607,58.6c-0.6,0-1.2,0.4-1.4,1c-2,0.9-4.1,1.4-6.3,1.6c-0.4-3-3.2-5.1-6.2-4.7
						c-2.5,0.4-4.5,2.4-4.7,4.9c-0.3,0-0.7-0.1-1-0.1c-1.1-0.1-2.2-0.3-3.1-0.5c-1.5-0.2-2.9-0.6-4.2-1.2c-0.2-0.8-1.1-1.2-1.8-1
						c-0.6,0.2-1.1,0.8-1.1,1.4c0,1.8,2.5,2.9,5.5,3.5c1,0.2,2.1,0.4,3.1,0.5c2.3,0.3,4.7,0.4,7.1,0.5c0.2,0,15.7-0.1,15.7-4.5
						C608.5,59.3,607.8,58.6,607,58.6 M592.8,61.7c-0.5,0-1,0-1.5,0c0.2-1.4,1.5-2.4,3-2.1c1.1,0.2,1.9,1,2.1,2
						C595.2,61.6,594,61.7,592.8,61.7"/>
					<path id="패스_11048" d="M611.6,62.6l1.8-3.6c0.1-0.2,0.2-0.4,0.2-0.7v-1c0-2.1-2-3.7-6.1-4.8c-0.1-2.2-2-3.9-4.3-3.8
						c-1.5,0.1-2.8,1-3.4,2.4c-2.1-0.2-4.2-0.3-6.3-0.4l1.6-2.8l0.4,0.9c0.3,0.7,1.2,1.1,2,0.7c0.3-0.1,0.6-0.4,0.7-0.7l1.3-2.9
						l2.9-1.3c0.7-0.3,1.1-1.2,0.7-2c-0.1-0.3-0.4-0.6-0.7-0.7l-2.9-1.3l-0.1-0.2l9.1-15.8c0.6-1,0.6-2.2,0-3.2
						c-0.6-1-1.6-1.6-2.8-1.6h-23.5c-2.2,0-4.2,1.2-5.3,3.1l-24.2,41.9c-0.9,1.5-0.4,3.5,1.2,4.4c0.5,0.3,1.1,0.4,1.6,0.4h13.2
						c-0.5,1.6-0.7,3.3-0.7,4.9c0,0.8,0.7,1.5,1.5,1.5s1.5-0.7,1.5-1.5c0,0,0,0,0,0c0-1.7,0.3-3.4,0.9-4.9c0.4-1.1,1.1-2.1,1.9-2.9
						c0.8-0.8,1.6-1.5,2.6-2c0.4-0.3,0.7-0.7,0.7-1.3v-1c0-0.2-0.1-0.5-0.2-0.7L575,58v-0.7c0-0.3,1.3-1.6,7-2.7
						c0.8-0.2,1.3-0.9,1.2-1.7c0-0.1,0-0.1,0-0.2c0-1.1,0.9-2.1,2-2.1c1.1,0,2,0.8,2.1,1.9c0.1,0.6,0.5,1.1,1.1,1.3
						c0.2,0,0.3,0.1,0.5,0c1-0.1,2-0.1,3-0.1c0.3,0,0.7,0,1,0l0,0c2.7,0,5.3,0.2,7.9,0.5c0.8,0.1,1.5-0.5,1.6-1.3c0-0.1,0-0.1,0-0.2
						c0-0.6,0.5-1.1,1-1.1s1.1,0.5,1.1,1c0,0.1,0,0.3-0.1,0.4c-0.3,0.8,0.1,1.6,0.9,1.9c0.1,0,0.1,0,0.2,0c4.1,1,5.1,2,5.1,2.3V58
						l-1.9,3.8c-0.1,0.2-0.2,0.4-0.2,0.7v1c0,0.5,0.3,1,0.7,1.3c3.6,2,5.7,5.8,5.4,9.9c0,0.8,0.7,1.5,1.5,1.5c0.8,0,1.5-0.7,1.5-1.5
						C617.9,69.8,615.6,65.2,611.6,62.6 M597.8,43.6c-0.1,0.1-0.2,0.1-0.3,0.2c-0.2,0.1-0.3,0.3-0.4,0.5l-0.2,0.5l-0.2-0.5
						c-0.1-0.3-0.4-0.6-0.7-0.7l-0.5-0.2l0.5-0.2c0.3-0.1,0.6-0.4,0.7-0.7l0.2-0.5l0.2,0.5c0.1,0.3,0.4,0.6,0.7,0.7l0.1,0l0.4,0.2
						L597.8,43.6z M590,50.8h-0.2c-1-2.6-4-3.8-6.5-2.7c-1.6,0.7-2.8,2.2-3.1,3.9c-5.5,1.2-8.2,2.9-8.2,5.3v1c0,0.2,0.1,0.5,0.2,0.7
						l1.8,3.6c-1.6,1-3,2.4-4,4.1h-14.5c-0.1,0-0.2-0.1-0.3-0.1c-0.1-0.1-0.1-0.2,0-0.3l24.2-41.9c0.6-1,1.6-1.6,2.8-1.6h23.5
						c0.1,0,0.2,0.1,0.3,0.1c0.1,0.1,0.1,0.2,0,0.3l-8.2,14.2c-0.6-0.5-1.5-0.5-2.1,0.1c-0.1,0.1-0.2,0.2-0.3,0.4l-1.3,2.9l-2.9,1.3
						c-0.7,0.3-1.1,1.2-0.7,2c0.1,0.3,0.4,0.6,0.7,0.7l1.8,0.8L590,50.8z"/>
				</g>
			</g>
			<text transform="matrix(1 0 0 1 563.7559 117.1154)" class="st1 st2 st3">작업실</text>
		</g>
		<g>
			<g>
				<defs>
					<rect id="SVGID_00000015323420073338006520000017851389604573399210_" x="728.5" y="19.8" width="61.5" height="56.3"/>
				</defs>
				<clipPath id="SVGID_00000039823964807035035860000015291197657989490092_">
					<use xlink:href="#SVGID_00000015323420073338006520000017851389604573399210_"  style="overflow:visible;"/>
				</clipPath>
				<g id="그룹_7921" style="clip-path:url(#SVGID_00000039823964807035035860000015291197657989490092_);">
					<path id="패스_10781" d="M773.3,54.7c5.7-3.7,7.6-11.1,4.2-17l7.5-13c0.6-1,0.6-2.3,0-3.3c-0.6-1-1.7-1.6-2.8-1.6h-23.6
						c-2.2,0-4.2,1.2-5.3,3.1L728.9,65c-0.9,1.6-0.4,3.5,1.2,4.4c0.5,0.3,1.1,0.4,1.6,0.4h11.6c-0.4,1.5-0.6,3.1-0.6,4.7
						c0,0.8,0.7,1.5,1.5,1.5s1.5-0.7,1.5-1.5c0-1.6,0.3-3.2,0.8-4.7c0.3-1,0.8-2,1.3-3c3.3-5.5,8.9-9.1,15.2-9.8
						c1.1-0.2,2.3-0.3,3.4-0.3h0.1c11.4,0.1,20.6,8,20.6,17.7c0,0.8,0.7,1.5,1.5,1.5c0.8,0,1.5-0.7,1.5-1.5
						C790,65.2,783,57.3,773.3,54.7 M744.4,66.9h-12.6c-0.2,0-0.3-0.1-0.3-0.3c0-0.1,0-0.1,0-0.2l24.3-42.1c0.6-1,1.6-1.6,2.8-1.6
						h23.6c0.2,0,0.3,0.1,0.3,0.3c0,0.1,0,0.1,0,0.1l-6.9,11.9c-4.9-5.1-13-5.3-18.1-0.4s-5.3,13-0.4,18.1c0.7,0.7,1.5,1.4,2.4,1.9
						C752.9,56.4,747.4,60.8,744.4,66.9 M766.4,53.8c-5.4,0-9.8-4.4-9.8-9.9c0-5.4,4.4-9.8,9.9-9.8s9.8,4.4,9.8,9.9
						c0,4.7-3.3,8.7-7.9,9.6C767.7,53.8,767,53.8,766.4,53.8"/>
				</g>
			</g>
			<text transform="matrix(1 0 0 1 745.2285 117.131)" class="st1 st2 st3">마이</text>
		</g>
	</g>
	<g>
		<text transform="matrix(1 0 0 1 249.6357 337.8154)" class="st1 st2 st3">홈</text>
	</g>
	<g>
		<text transform="matrix(1 0 0 1 563.7559 337.6123)" class="st1 st2 st3">작업실</text>
	</g>
	<g>
		<text transform="matrix(1 0 0 1 745.2285 337.6279)" class="st1 st2 st3">마이</text>
	</g>
	<g>
		<g>
			<g id="그룹_7902" transform="translate(-1.11 0)">
				<g>
					<defs>
						<rect id="SVGID_00000058555973602341600090000014804521028308741261_" x="233.7" y="465.4" width="48.4" height="46"/>
					</defs>
					<clipPath id="SVGID_00000121248921930428073050000015147626343479524485_">
						<use xlink:href="#SVGID_00000058555973602341600090000014804521028308741261_"  style="overflow:visible;"/>
					</clipPath>
					
						<g id="그룹_7888" transform="translate(1.055 0)" style="clip-path:url(#SVGID_00000121248921930428073050000015147626343479524485_);">
						<path id="패스_10755" d="M254.1,506.2c-11.4,0.1-20.7-9-20.8-20.4c0.1-11.4,9.5-20.5,20.8-20.4c11.4-0.1,20.7,9,20.8,20.4
							C274.8,497.2,265.4,506.3,254.1,506.2 M254.1,469.5c-9.1-0.1-16.6,7.2-16.7,16.3c0.1,9.1,7.6,16.4,16.7,16.3
							c9.1,0.1,16.6-7.2,16.7-16.3C270.6,476.7,263.2,469.4,254.1,469.5"/>
						<path id="패스_10756" d="M267.4,487c-0.9,0-1.7-0.7-1.7-1.6c-0.1-5.9-4.9-10.7-10.8-10.6c-0.9,0-1.6-0.7-1.6-1.6
							c0-0.9,0.7-1.6,1.6-1.6c0,0,0,0,0,0c7.7-0.1,14.1,6.1,14.2,13.9C269.1,486.3,268.3,487,267.4,487"/>
						<path id="패스_10757" d="M278.7,511.1c-0.6,0-1.1-0.2-1.5-0.6l-7.5-7.3c-0.8-0.8-0.8-2,0-2.8c0,0,0,0,0,0
							c0.8-0.8,2.1-0.8,3,0l7.5,7.3c0.8,0.8,0.8,2,0,2.8c0,0,0,0,0,0C279.7,510.9,279.2,511.1,278.7,511.1"/>
					</g>
				</g>
			</g>
			<text transform="matrix(1 0 0 1 235.4741 554.8386)" class="st1 st2 st3">더보기</text>
		</g>
		<g id="그룹_7903" transform="translate(39.581 0.199)">
			<path id="합치기_21" d="M364.4,508.3v-15.5c0-0.9,0.8-1.7,1.7-1.7c0.9,0,1.7,0.8,1.7,1.7V505h34.2v-12.1
				c0-0.9,0.8-1.7,1.7-1.7s1.7,0.8,1.7,1.7v15.5L364.4,508.3z M378.4,490.5c-1.8-0.1-3.6-0.8-5-1.9c-1.6,1.2-3.5,1.9-5.5,1.9h-0.1
				c-0.4,0-0.8,0-1.2-0.1c-1.1-0.2-2.2-0.6-3.1-1.2c-3.9-2.5-5-7.7-2.4-11.6l4.8-7.7c0.7-1.2,2.1-1.9,3.5-1.9h30.2
				c1.4,0,2.7,0.7,3.5,1.9l4.8,7.7c0.6,0.9,1,2,1.2,3.1c0.4,2.2-0.1,4.4-1.4,6.2c-1.3,1.8-3.2,3.1-5.4,3.4c-0.4,0.1-0.9,0.1-1.3,0.1
				c-2,0-3.9-0.7-5.5-1.9c-1.6,1.2-3.5,1.9-5.6,1.9c-0.2,0-0.3,0-0.5,0c-1.8-0.1-3.6-0.8-5-1.9c-1.6,1.2-3.5,1.9-5.5,1.9
				C378.8,490.6,378.6,490.6,378.4,490.5z M397.6,486c1,0.8,2.3,1.2,3.6,1.2c0.2,0,0.5,0,0.7-0.1c1.3-0.2,2.4-1,3.1-2
				c0.8-1.1,1-2.4,0.8-3.7c-0.1-0.7-0.4-1.3-0.7-1.8l0,0l-2.3-3.6L397.6,486z M389.7,487.2c0.1,0,0.2,0,0.4,0c1.4,0,2.7-0.5,3.8-1.4
				c0.2-0.1,0.3-0.3,0.5-0.5l0.9-1l5.8-11.2l-0.8-1.3c-0.1-0.2-0.4-0.3-0.6-0.3h-5.3l-8,14.4C387.2,486.6,388.4,487.1,389.7,487.2z
				 M375.4,485.9c0.9,0.8,2.1,1.2,3.3,1.3c0.1,0,0.3,0,0.4,0c1.3,0,2.6-0.5,3.6-1.3l8.1-14.4h-7.5L375.4,485.9z M368.8,471.7
				l-4.8,7.8c-0.7,1.1-1,2.5-0.7,3.8c0.3,1.3,1,2.4,2.1,3.2c0.6,0.4,1.2,0.6,1.8,0.7c0.2,0,0.5,0,0.7,0c1.6,0,3.2-0.7,4.3-1.9
				l0.6-0.7l7.1-13.2h-10.5C369.1,471.4,368.9,471.5,368.8,471.7z"/>
		</g>
		<text transform="matrix(1 0 0 1 410.3145 554.8386)" class="st1 st2 st3">상점</text>
		<g>
			<path id="합치기_78" d="M751.8,508.3c-0.3-0.8,0.1-1.8,0.9-2.1c0.1,0,0.1,0,0.2-0.1c0.9-0.3,2,0.1,2.4,1
				c1.1,1.4,2.8,2.2,4.5,2c1.8,0.2,3.5-0.5,4.5-2c0.4-0.9,1.5-1.3,2.4-1c0.9,0.2,1.4,1.1,1.1,2c0,0.1,0,0.1-0.1,0.2
				c-1.7,2.8-4.8,4.4-8,4.1C756.6,512.8,753.4,511.2,751.8,508.3z M741.6,510.4c-0.9-0.7-0.9-2-0.2-2.9c0,0,0,0,0,0l1.6-1.8h-0.4
				c-1.1,0-2.2-0.5-2.8-1.4c-0.3-0.4-0.5-1-0.5-1.5v-0.1c0-0.5,0.1-0.9,0.4-1.3c0.4-0.7,0.9-1.5,1.4-2.3c1.2-1.8,1.9-3.9,1.9-6v-7.2
				c0-8.3,7.6-15.1,16.9-15.1c3.9,0,7.6,1.2,10.7,3.5l4.6-5.3c0.7-0.9,2-0.9,2.9-0.2s0.9,2,0.2,2.9l-4.7,5.4c2,2.5,3.2,5.6,3.2,8.8
				v7.3c0,2.2,0.7,4.2,1.9,6c0.5,0.8,1,1.6,1.4,2.3c0.5,0.9,0.5,2-0.1,2.9c-0.6,0.9-1.7,1.4-2.8,1.4h-28.6l-3.9,4.5
				C743.7,511.1,742.4,511.2,741.6,510.4C741.6,510.4,741.6,510.4,741.6,510.4L741.6,510.4z M776.3,502.4c-0.3-0.5-0.6-1-0.9-1.5
				c-1.5-2.3-2.4-5-2.4-7.7v-7.3c0-2.2-0.7-4.3-1.9-6.1l-1.1,1.2c0.9,1.5,1.3,3.1,1.3,4.8c-0.1,0.8-0.8,1.4-1.6,1.3
				c-0.7-0.1-1.2-0.6-1.3-1.3c0-0.8-0.2-1.7-0.4-2.5l-16.6,19H776.3z M746.7,485.9v7.3c0,2.8-0.8,5.5-2.4,7.7
				c-0.3,0.5-0.7,1-0.9,1.5h2.6l19.6-22.4c-1.6-1.3-3.6-1.9-5.7-1.9c-0.8,0-1.4-0.5-1.4-1.3c0-0.8,0.7-1.3,1.4-1.3
				c2.7,0,5.3,0.9,7.5,2.5l1-1.1c-2.4-1.8-5.4-2.8-8.4-2.7C752.9,473.7,747.1,479,746.7,485.9z M761.5,469.1c-0.1-0.9-1-1.6-1.9-1.4
				c-0.8,0.1-1.3,0.7-1.4,1.4c-0.1,1-0.9,1.7-1.9,1.7c-1,0-1.8-0.7-1.9-1.7c0.2-2.8,2.6-5,5.4-4.9c2.8-0.1,5.3,2,5.4,4.9
				c-0.1,1-1,1.8-2.1,1.7C762.3,470.7,761.6,470,761.5,469.1L761.5,469.1z"/>
			<text transform="matrix(1 0 0 1 730.5029 554.8386)" class="st1 st2 st3">알람_off</text>
		</g>
		<g>
			<g id="그룹_8468" transform="translate(0 0)">
				<g>
					<defs>
						<rect id="SVGID_00000108305793930548561300000013678368436340391046_" x="564.3" y="464.2" width="41" height="48.3"/>
					</defs>
					<clipPath id="SVGID_00000151544518958339014280000017512452165136166286_">
						<use xlink:href="#SVGID_00000108305793930548561300000013678368436340391046_"  style="overflow:visible;"/>
					</clipPath>
					
						<g id="그룹_8440" transform="translate(0 0)" style="clip-path:url(#SVGID_00000151544518958339014280000017512452165136166286_);">
						<path id="빼기_35" d="M602,505.8h-34.5c-1.1,0-2.2-0.5-2.8-1.4c-0.6-0.9-0.6-2-0.1-2.9c0.4-0.7,0.9-1.5,1.4-2.3
							c1.2-1.8,1.8-3.9,1.9-6v-7.3c0-8.3,7.6-15.1,16.9-15.1c9.3,0,16.9,6.8,16.9,15.1v7.3c0,2.2,0.7,4.3,1.9,6
							c0.5,0.7,1,1.6,1.4,2.3c0.5,0.9,0.5,2-0.1,2.9C604.2,505.2,603.2,505.8,602,505.8z M584.7,475.5c-0.7-0.1-1.4,0.4-1.4,1.2
							s0.4,1.4,1.2,1.4c0.1,0,0.2,0,0.3,0c4.5-0.2,8.4,3.2,8.7,7.8c0.1,0.8,0.8,1.4,1.6,1.3c0.7-0.1,1.2-0.6,1.3-1.3
							C596,479.8,590.8,475.2,584.7,475.5z"/>
						<path id="패스_10832" d="M584.8,512.5c-3.3,0.3-6.4-1.3-8-4.1c-0.3-0.8,0.1-1.8,0.9-2.1c0,0,0.1,0,0.1,0
							c0.9-0.3,2,0.1,2.4,1c1.1,1.4,2.8,2.2,4.5,2c1.8,0.2,3.5-0.5,4.5-2c0.4-0.9,1.5-1.3,2.4-1c0.9,0.2,1.4,1.1,1.1,2
							c0,0.1,0,0.1,0,0.1C591.2,511.2,588.1,512.8,584.8,512.5"/>
						<path id="패스_10833" d="M588.4,470.8c-1,0.1-1.8-0.7-1.9-1.7c-0.1-0.9-1-1.6-1.9-1.5c-0.8,0.1-1.4,0.7-1.5,1.5
							c-0.1,1-1,1.8-2.1,1.7c-0.9-0.1-1.6-0.8-1.7-1.7c0.2-2.8,2.6-5,5.4-4.9c2.8-0.1,5.3,2,5.4,4.9
							C590.2,470.1,589.4,470.8,588.4,470.8"/>
					</g>
				</g>
			</g>
			<text transform="matrix(1 0 0 1 556.6553 554.8386)" class="st1 st2 st3">알람_on</text>
		</g>
	</g>
	<g id="그룹_8683" transform="translate(0 0)">
		<g>
			<defs>
				<rect id="SVGID_00000183219794617497863570000015997839564495068076_" x="552.2" y="239.6" width="66" height="56.7"/>
			</defs>
			<clipPath id="SVGID_00000007410086443996040820000001785249046009862289_">
				<use xlink:href="#SVGID_00000183219794617497863570000015997839564495068076_"  style="overflow:visible;"/>
			</clipPath>
			
				<g id="그룹_8682" transform="translate(0 0)" style="clip-path:url(#SVGID_00000007410086443996040820000001785249046009862289_);">
				<path id="패스_11040" class="st10" d="M609,241.2c-0.6-1-1.7-1.6-2.8-1.6h-23.7c-2.2,0-4.3,1.2-5.4,3.1l-24.4,42.3
					c-0.9,1.6-0.4,3.6,1.2,4.5c0.5,0.3,1.1,0.4,1.6,0.4h24c2.1,0,4-1.1,5-2.9l24.5-42.5C609.6,243.5,609.6,242.2,609,241.2"/>
				<path id="패스_11040_00000109751752042523902900000001420309476226998144_" class="st10" d="M449,241.2
					c-0.6-1-1.7-1.6-2.8-1.6h-23.7c-2.2,0-4.3,1.2-5.4,3.1l-24.4,42.3c-0.9,1.6-0.4,3.6,1.2,4.5c0.5,0.3,1.1,0.4,1.6,0.4h24
					c2.1,0,4-1.1,5-2.9l24.5-42.5C449.6,243.5,449.6,242.2,449,241.2"/>
				<path id="패스_11041" class="st11" d="M593.1,284.7c-0.2,0-15.8-0.1-15.8-4.6c0-0.8,0.7-1.5,1.5-1.5c0.7,0,1.2,0.4,1.4,1.1
					c4.1,1.5,8.5,2.2,12.9,2c4.4,0.2,8.8-0.5,12.9-2c0.2-0.8,1.1-1.2,1.8-1c0.6,0.2,1.1,0.8,1.1,1.4
					C608.9,284.6,593.3,284.7,593.1,284.7"/>
				<path id="패스_11042" class="st11" d="M612.1,282.7l1.8-3.7c0.1-0.2,0.2-0.4,0.2-0.7v-1c0-2.1-2-3.7-6.2-4.9
					c-0.1-2.2-2.1-3.9-4.3-3.8c-1.5,0.1-2.9,1-3.5,2.4c-2.3-0.2-4.7-0.4-7.1-0.4l0,0c-1,0-2,0-3,0.1c-1.1-2.6-4-3.8-6.6-2.7
					c-1.6,0.7-2.8,2.2-3.1,3.9c-5.5,1.2-8.3,2.9-8.3,5.4v1c0,0.2,0.1,0.5,0.2,0.7l1.8,3.7c-4.1,2.6-6.4,7.2-6.1,12.1
					c0,0.8,0.7,1.5,1.5,1.5c0.8,0,1.5-0.7,1.5-1.5c-0.3-4.1,1.8-8,5.4-10c0.5-0.3,0.7-0.8,0.7-1.3v-1c0-0.2-0.1-0.5-0.2-0.7
					l-1.9-3.8v-0.7c0-0.3,1.4-1.7,7-2.7c0.8-0.2,1.3-0.9,1.2-1.7c0-0.1,0-0.1,0-0.2c0-1.2,0.9-2.1,2.1-2.1c1.1,0,2,0.8,2.1,1.9
					c0.1,0.8,0.8,1.4,1.6,1.3c1.4-0.1,2.7-0.1,4-0.1l0,0c2.7,0,5.4,0.2,8,0.5c0.8,0.1,1.6-0.5,1.7-1.3c0-0.1,0-0.1,0-0.2
					c0-0.6,0.5-1.1,1-1.1c0.6,0,1.1,0.5,1.1,1c0,0.1,0,0.3-0.1,0.4c-0.3,0.8,0.1,1.6,0.9,1.9c0.1,0,0.1,0,0.2,0
					c4.2,1,5.1,2.1,5.2,2.3v0.7l-1.9,3.8c-0.1,0.2-0.2,0.4-0.2,0.7v1c0,0.5,0.3,1,0.7,1.3c3.6,2,5.7,5.9,5.4,10
					c0,0.8,0.7,1.5,1.5,1.5s1.5-0.7,1.5-1.5c0,0,0,0,0,0C618.5,289.9,616.2,285.3,612.1,282.7"/>
				<path id="패스_11043" class="st11" d="M599.7,282.1h-3c0-1.4-1.2-2.6-2.6-2.6c-1.4,0-2.6,1.2-2.6,2.6h-3
					c0-3.1,2.5-5.6,5.6-5.6C597.2,276.6,599.7,279.1,599.7,282.1C599.7,282.1,599.7,282.1,599.7,282.1"/>
				<rect id="사각형_7280" x="580.8" y="262.3" class="st11" width="2" height="3"/>
				<rect id="사각형_7281" x="595.2" y="249" class="st11" width="2" height="3"/>
				<rect id="사각형_7282" x="607.4" y="261.2" class="st11" width="2" height="3"/>
				<path id="패스_11044" class="st11" d="M597.2,269.7c-0.6,0-1.1-0.3-1.3-0.9l-1.4-2.9l-2.9-1.4c-0.7-0.3-1.1-1.2-0.7-2
					c0.1-0.3,0.4-0.6,0.7-0.7l2.9-1.4l1.4-2.9c0.3-0.7,1.2-1.1,2-0.7c0.3,0.1,0.6,0.4,0.7,0.7l1.4,2.9l2.9,1.4
					c0.7,0.3,1.1,1.2,0.7,2c-0.1,0.3-0.4,0.6-0.7,0.7l-2.9,1.4l-1.4,2.9C598.3,269.3,597.8,269.7,597.2,269.7 M595.7,263.2l0.5,0.2
					c0.3,0.1,0.6,0.4,0.7,0.7l0.2,0.5l0.2-0.5c0.1-0.3,0.4-0.6,0.7-0.7l0.5-0.2l-0.5-0.2c-0.3-0.1-0.6-0.4-0.7-0.7l-0.2-0.5
					l-0.2,0.5c-0.1,0.3-0.4,0.6-0.7,0.7L595.7,263.2z"/>
				<path id="패스_11045" class="st11" d="M584.9,259.2c-0.6,0-1.1-0.3-1.3-0.8l-1.8-3.5l-3.5-1.8c-0.7-0.4-1-1.3-0.7-2
					c0.1-0.3,0.4-0.5,0.7-0.7l3.5-1.8l1.8-3.5c0.4-0.7,1.3-1,2-0.7c0.3,0.1,0.5,0.4,0.7,0.7l1.8,3.5l3.5,1.8c0.7,0.4,1,1.3,0.7,2
					c-0.1,0.3-0.4,0.5-0.7,0.7l-3.5,1.8l-1.8,3.5C585.9,258.9,585.4,259.2,584.9,259.2 M582.2,251.7l1.3,0.7
					c0.3,0.1,0.5,0.4,0.7,0.7l0.7,1.3l0.7-1.3c0.1-0.3,0.4-0.5,0.7-0.7l1.3-0.7l-1.3-0.7c-0.3-0.1-0.5-0.4-0.7-0.7l-0.7-1.3
					l-0.7,1.3c-0.1,0.3-0.4,0.5-0.7,0.7L582.2,251.7z"/>
			</g>
		</g>
	</g>
	<g>
		<defs>
			<rect id="SVGID_00000127010224204393397390000013977607976663422129_" x="215.7" y="240.6" width="82.8" height="55.6"/>
		</defs>
		<clipPath id="SVGID_00000044883327317882614040000012625172136913585793_">
			<use xlink:href="#SVGID_00000127010224204393397390000013977607976663422129_"  style="overflow:visible;"/>
		</clipPath>
		<g id="그룹_7914" style="clip-path:url(#SVGID_00000044883327317882614040000012625172136913585793_);">
			<path id="패스_10768" class="st10" d="M271.9,242.2c-0.6-1-1.6-1.6-2.8-1.6h-23.5c-2.2,0-4.2,1.2-5.3,3.1l-24.2,41.8
				c-0.9,1.5-0.4,3.5,1.2,4.4c0.5,0.3,1.1,0.4,1.6,0.4h23.7c2.1,0,4-1.1,5-2.9l24.3-42C272.5,244.4,272.5,243.2,271.9,242.2"/>
			<path id="패스_10769" class="st11" d="M298.1,284.9l-22.9-39.7c-0.7-1.2-1.8-2.1-3-2.6c0.4,0.9,0.3,1.9-0.2,2.8l-0.4,0.6
				c0.3,0.2,0.6,0.5,0.8,0.8l22.9,39.7h-10c-0.9,0-1.6,0.7-1.6,1.6c0,0.9,0.7,1.6,1.6,1.6h10c1.8,0,3.3-1.5,3.3-3.3
				C298.5,286,298.3,285.4,298.1,284.9"/>
			<path id="패스_10770" class="st11" d="M264.6,296.2c-9.5,0-17.2-7.7-17.2-17.2c0-9.5,7.7-17.2,17.2-17.2s17.2,7.7,17.2,17.2
				C281.8,288.5,274.1,296.2,264.6,296.2 M264.6,264.7c-7.9,0-14.3,6.4-14.3,14.3s6.4,14.3,14.3,14.3s14.3-6.4,14.3-14.3l0,0
				C278.9,271.1,272.5,264.7,264.6,264.7"/>
		</g>
	</g>
	<g>
		<defs>
			<rect id="SVGID_00000031909763959966402770000003764865623875399848_" x="727.8" y="239.9" width="62.7" height="57.6"/>
		</defs>
		<clipPath id="SVGID_00000090290277878656995530000015529424394662384571_">
			<use xlink:href="#SVGID_00000031909763959966402770000003764865623875399848_"  style="overflow:visible;"/>
		</clipPath>
		
			<g id="그룹_7923" transform="translate(0 0)" style="clip-path:url(#SVGID_00000090290277878656995530000015529424394662384571_);">
			<path id="패스_10782" class="st10" d="M785.4,241.6c-0.6-1-1.7-1.7-2.9-1.7h-24.1c-2.2,0-4.3,1.2-5.4,3.1L728.2,286
				c-0.9,1.6-0.4,3.6,1.2,4.5c0.5,0.3,1.1,0.4,1.7,0.4h24.3c2.1,0,4.1-1.1,5.1-3l24.9-43.1C786,243.9,786,242.6,785.4,241.6"/>
			<path id="패스_10783" class="st11" d="M773.4,275.8c6.1-3.9,7.8-12,3.9-18.1s-12-7.8-18.1-3.9s-7.8,12-3.9,18.1
				c1,1.6,2.4,2.9,3.9,3.9c-9.9,2.6-17.1,10.7-17.1,20.2c0,0.8,0.7,1.5,1.5,1.5s1.5-0.7,1.5-1.5c0-10,9.5-18.1,21.1-18.1
				s21.1,8.1,21.1,18.1c0,0.8,0.7,1.5,1.5,1.5s1.5-0.7,1.5-1.5C790.5,286.5,783.3,278.5,773.4,275.8 M756.3,264.8
				c0-5.6,4.5-10.1,10.1-10.1c5.6,0,10.1,4.5,10.1,10.1c0,5.6-4.5,10.1-10.1,10.1l0,0C760.8,274.9,756.3,270.4,756.3,264.8"/>
		</g>
	</g>
	<path id="패스_10768_00000110435701135349500470000012784108345054479019_" class="st10" d="M442,242.2c-0.6-1-1.6-1.6-2.8-1.6
		h-23.5c-2.2,0-4.2,1.2-5.3,3.1l-24.2,41.8c-0.9,1.5-0.4,3.5,1.2,4.4c0.5,0.3,1.1,0.4,1.6,0.4h23.7c2.1,0,4-1.1,5-2.9l24.3-42
		C442.6,244.4,442.6,243.2,442,242.2"/>
	<g id="그룹_7918_00000138534261884502097160000006342063567182014103_" transform="translate(0 0)">
		<g>
			<g id="그룹_7918-2_00000165208438824429093020000018106518677000399016_" transform="translate(0 0)">
				<path id="패스_10774_00000015331602991561078000000009473267368161582757_" class="st11" d="M443.4,251.4 M454.5,272
					c-1.4,1.1-2.6,2.5-3.5,4c-0.7,1.1-0.8,1.2-1.1,1.2c-2.6,0-4.9,4-6,6.1c-0.4,0.2-0.8,0.3-1.3,0.4c0,0,0-0.1,0-0.1
					c0-1,0-2.9-1.5-3.4c-0.5-0.1-1-0.1-1.5,0.2c-1.2,0-2.4-0.5-3.3-1.2c-0.4-0.3-0.5-0.4,0.1-1.7c0.7-1.4,0.8-3,0.4-4.5
					c-0.5-1.2-0.4-1.2,0.2-1.9c0.5-0.5,0.9-1,1.2-1.6c1.3-2.2,0.9-3.1-0.4-4.4c-0.4-0.4-0.8-0.8-1.2-1.2c-0.8-0.9-1.7-1.6-2.7-2.2
					c-1.8-1.2-2.4-1.7-2.3-2.9c0.6-2.4,1.8-4.5,3.5-6.3C445.6,253,454,261.5,454.5,272 M393.7,286.7 M443.4,251.4l-2.8-1
					c-12.5-3.7-25.6,3.4-29.3,15.9c-2.1,7.2-0.7,14.9,3.8,20.9l2.6,2.9h0.1c9.5,8.9,24.4,8.5,33.3-1c8.9-9.5,8.5-24.4-1-33.3
					C448.1,254,445.8,252.5,443.4,251.4 M444.5,243.5 M413.3,273c0-1.8,0.2-3.6,0.7-5.3l0.2-0.2c1-0.3,1.9-0.6,2.9-0.8
					c0.1,0.1,0.2,0.1,0.2,0.1c0.3,0.2,0.5,0.3,0.6,0.9c0.1,0.8,0,1.7-0.1,2.5c-0.2,1.8-0.4,3,0.4,3.9c0.3,0.4,0.8,0.6,1.3,0.6
					c0.3,0,0.7,0,1.1,0c0.3,0,0.7,0,1,0c0.2,0.4,0.5,0.7,0.8,1c0.4,0.4,0.8,0.9,1.1,1.5c-0.2,0.5-0.3,1.1-0.3,1.6c0,0,0,0.1,0,0.1
					c0,0,0,0.1-0.1,0.1c-0.3,1.1-0.3,2.3,0.1,3.3c0.4,1.2,0.5,2.5,0.3,3.8c-0.4,0.8-0.6,1.4-0.8,1.8c-0.1,0.2-0.2,0.4-0.3,0.5
					c-0.4,0.4-0.8,0.6-1.3,0.8h0C416.3,285.4,413.3,279.3,413.3,273 M433.9,293.6c-3.4,0-6.8-0.8-9.8-2.5c0.2-0.2,0.4-0.3,0.6-0.5
					c0.4-0.4,0.7-0.9,0.9-1.5c0.2-0.4,0.4-0.9,0.7-1.6c0.6-1.9,0.5-3.8-0.1-5.7c-0.1-0.5-0.2-1.1-0.3-1.6c0.2-0.4,0.3-0.9,0.3-1.4
					c0-0.3,0-0.5,0.1-0.8c0.6-1.7-0.7-3.2-1.6-4.3c-0.2-0.2-0.4-0.5-0.6-0.7c-0.7-1.4-2.3-1.4-3.5-1.3c0-0.4,0.1-0.8,0.1-1.2
					c0.2-1.2,0.2-2.4,0.1-3.6c-0.2-1.2-0.9-2.2-2-2.8c0,0-0.1,0-0.1-0.1c-0.4-0.4-0.8-0.8-3.5-0.2c3-6.3,9-10.6,15.9-11.5
					c-1.3,1.7-2.2,3.7-2.6,5.8c-0.1,2.5,1.3,4.8,3.6,5.7c0.8,0.4,1.5,1,2.1,1.6c0.4,0.5,0.9,1,1.4,1.5c0.1,0.1,0.2,0.2,0.2,0.2
					c-0.1,0.1-0.2,0.3-0.3,0.5c-0.3,0.4-0.6,0.8-0.9,1.2c-1.3,1.3-1.6,3.3-0.7,4.9c0.2,0.8,0.1,1.7-0.4,2.4c-1,1.6-0.7,3.8,0.8,5
					c1.5,1.2,3.3,1.9,5.2,1.9c0,0.1,0,0.1,0,0.2c-0.1,1.1,0.4,2.1,1.3,2.7c0.5,0.3,1,0.4,1.6,0.4c1.1-0.1,2.2-0.4,3.1-0.9l0.4-0.2
					l0.2-0.4c0.8-1.9,2-3.6,3.6-5c1.6-0.1,2.9-1.1,3.6-2.5c0.2-0.3,0.4-0.7,0.7-1.1C452.5,286.4,443.9,293.6,433.9,293.6"/>
				<path id="패스_10775_00000120539929444648148090000006292079787070281369_" class="st11" d="M425.6,262.6l-2.3-0.8
					c-1-0.3-2.1,0.3-2.4,1.3c-0.3,1,0.2,2,1.2,2.4l2.3,0.8c1,0.3,2.1-0.3,2.4-1.3C427.1,264,426.5,262.9,425.6,262.6"/>
			</g>
		</g>
	</g>
	<text transform="matrix(1 0 0 1 409.9629 337.7686)" class="st1 st2 st3">탐험</text>
</g>
</svg>
