<svg width="1249" height="384" viewBox="0 0 1249 384" fill="none" xmlns="http://www.w3.org/2000/svg">
<rect x="1" y="0.5" width="1247" height="383" rx="15.5" fill="#A3D8FF" fill-opacity="0.1"/>
<rect x="1" y="0.5" width="1247" height="383" rx="15.5" stroke="#A3D8FF" stroke-dasharray="8 8"/>
<g filter="url(#filter0_d_110_2715)">
<rect x="194.5" y="92" width="200" height="200" rx="8" fill="white" shape-rendering="crispEdges"/>
<rect x="195" y="92.5" width="199" height="199" rx="7.5" stroke="#A3D8FF" shape-rendering="crispEdges"/>
<path d="M286.996 155.127H305.893C306.098 155.127 306.273 155.054 306.42 154.908C306.581 154.761 306.662 154.585 306.662 154.38C306.662 154.175 306.581 154 306.42 153.853C306.273 153.707 306.098 153.633 305.893 153.633H286.996C286.776 153.633 286.593 153.707 286.447 153.853C286.315 154 286.249 154.175 286.249 154.38C286.249 154.585 286.315 154.761 286.447 154.908C286.593 155.054 286.776 155.127 286.996 155.127ZM286.996 160.884H300.158C300.363 160.884 300.539 160.811 300.685 160.665C300.832 160.503 300.905 160.32 300.905 160.115C300.905 159.91 300.832 159.734 300.685 159.588C300.539 159.441 300.363 159.368 300.158 159.368H286.996C286.776 159.368 286.593 159.441 286.447 159.588C286.315 159.734 286.249 159.91 286.249 160.115C286.249 160.32 286.315 160.503 286.447 160.665C286.593 160.811 286.776 160.884 286.996 160.884ZM282.272 189.405C280.456 189.405 279.057 188.929 278.075 187.977C277.094 187.024 276.603 185.684 276.603 183.956V148.887C276.603 146.939 277.101 145.467 278.097 144.471C279.093 143.46 280.565 142.955 282.514 142.955H306.2C308.134 142.955 309.599 143.46 310.595 144.471C311.591 145.467 312.089 146.939 312.089 148.887V174.595C312.089 175.577 311.935 176.412 311.627 177.1C311.32 177.774 310.954 178.36 310.529 178.858C309.547 179.942 308.961 181.048 308.771 182.176C308.595 183.318 308.756 184.388 309.254 185.384C309.752 186.38 310.536 187.2 311.605 187.845C311.752 187.918 311.869 188.021 311.957 188.152C312.045 188.299 312.089 188.445 312.089 188.592C312.089 188.841 312.016 189.039 311.869 189.185C311.737 189.332 311.554 189.405 311.32 189.405H282.272ZM282.36 187.779H309.298C308.141 186.783 307.445 185.567 307.211 184.131C306.977 182.71 307.284 181.275 308.134 179.825C307.519 180.015 306.837 180.11 306.09 180.11H282.382C281.093 180.11 280.075 180.447 279.328 181.121C278.595 181.795 278.229 182.718 278.229 183.89C278.229 185.12 278.588 186.072 279.306 186.746C280.038 187.435 281.056 187.779 282.36 187.779ZM281.459 177.649C281.649 177.649 281.811 177.583 281.942 177.452C282.089 177.305 282.162 177.137 282.162 176.946V146.316C282.162 146.126 282.089 145.965 281.942 145.833C281.811 145.701 281.649 145.635 281.459 145.635C281.269 145.635 281.1 145.701 280.954 145.833C280.822 145.965 280.756 146.126 280.756 146.316V176.946C280.756 177.137 280.822 177.305 280.954 177.452C281.1 177.583 281.269 177.649 281.459 177.649Z" fill="#3C6689"/>
<path d="M251.578 231.17C250.649 231.17 249.856 231 249.198 230.66C248.541 230.32 247.957 229.827 247.447 229.181L248.535 228.093C248.909 228.614 249.34 229.011 249.827 229.283C250.315 229.544 250.915 229.674 251.629 229.674C252.332 229.674 252.893 229.521 253.312 229.215C253.743 228.909 253.958 228.49 253.958 227.957C253.958 227.515 253.856 227.158 253.652 226.886C253.448 226.614 253.171 226.393 252.819 226.223C252.479 226.042 252.105 225.883 251.697 225.747C251.289 225.6 250.881 225.447 250.473 225.288C250.065 225.118 249.691 224.914 249.351 224.676C249.011 224.427 248.734 224.104 248.518 223.707C248.314 223.31 248.212 222.812 248.212 222.211C248.212 221.542 248.371 220.976 248.688 220.511C249.017 220.035 249.459 219.672 250.014 219.423C250.581 219.162 251.216 219.032 251.918 219.032C252.689 219.032 253.38 219.185 253.992 219.491C254.604 219.786 255.103 220.177 255.488 220.664L254.4 221.752C254.049 221.344 253.669 221.038 253.261 220.834C252.865 220.63 252.406 220.528 251.884 220.528C251.25 220.528 250.745 220.67 250.371 220.953C249.997 221.225 249.81 221.61 249.81 222.109C249.81 222.506 249.912 222.829 250.116 223.078C250.332 223.316 250.609 223.52 250.949 223.69C251.289 223.86 251.663 224.019 252.071 224.166C252.491 224.302 252.904 224.455 253.312 224.625C253.72 224.795 254.094 225.01 254.434 225.271C254.774 225.532 255.046 225.872 255.25 226.291C255.466 226.699 255.573 227.215 255.573 227.838C255.573 228.881 255.211 229.697 254.485 230.286C253.771 230.875 252.802 231.17 251.578 231.17ZM263.132 231.17C262.282 231.17 261.494 231.017 260.769 230.711C260.043 230.394 259.409 229.957 258.865 229.402C258.332 228.847 257.918 228.201 257.624 227.464C257.329 226.727 257.182 225.94 257.182 225.101C257.182 224.251 257.329 223.458 257.624 222.721C257.918 221.984 258.332 221.344 258.865 220.8C259.409 220.245 260.038 219.814 260.752 219.508C261.477 219.191 262.265 219.032 263.115 219.032C264.044 219.032 264.86 219.191 265.563 219.508C266.265 219.825 266.889 220.256 267.433 220.8L266.328 221.905C265.954 221.486 265.495 221.157 264.951 220.919C264.418 220.681 263.806 220.562 263.115 220.562C262.491 220.562 261.919 220.675 261.398 220.902C260.876 221.117 260.423 221.429 260.038 221.837C259.652 222.245 259.352 222.727 259.137 223.282C258.933 223.837 258.831 224.444 258.831 225.101C258.831 225.758 258.933 226.365 259.137 226.92C259.352 227.475 259.652 227.957 260.038 228.365C260.423 228.773 260.876 229.09 261.398 229.317C261.919 229.532 262.491 229.64 263.115 229.64C263.851 229.64 264.492 229.521 265.036 229.283C265.58 229.034 266.039 228.699 266.413 228.28L267.518 229.368C266.974 229.935 266.333 230.377 265.597 230.694C264.871 231.011 264.05 231.17 263.132 231.17ZM269.481 231V219.202H271.079V231H269.481ZM284.03 230.932V228.841H276.533V230.932H284.03ZM284.03 227.753V225.747H285.407V232.054H275.156V225.747H276.533V227.753H284.03ZM285.016 223.231H287.209V224.37H273.354V223.231H283.622C284.047 221.361 284.047 220.001 284.047 218.845H275.122V217.706H285.424V218.811C285.424 219.984 285.424 221.344 285.016 223.231ZM295.691 227.362V230.779H304.888V231.918H294.297V227.362H295.691ZM300.145 224.982H306.35V226.121H292.563V224.982H298.768V222.789H294.416V217.587H295.793V221.667H304.769V222.789H300.145V224.982ZM318.826 221.956V218.845H311.312V221.956H318.826ZM320.203 217.723V223.078H309.952V217.723H320.203ZM311.312 227.566V230.779H320.458V231.918H309.918V227.566H311.312ZM308.15 224.812H322.005V225.934H315.885V229.011H314.491V225.934H308.15V224.812ZM330.096 224.319V219.491H325.812V224.319H330.096ZM331.456 218.369V225.424H324.452V218.369H331.456ZM327.563 227.124V230.779H336.335V231.918H326.169V227.124H327.563ZM335.655 221.65H337.899V222.823H335.655V228.161H334.261V216.992H335.655V221.65ZM238.354 240.624V241.746H229.361V240.624H233.152V238.924H234.546V240.624H238.354ZM231.537 245.282C231.537 246.302 232.455 246.965 233.849 246.965C235.243 246.965 236.178 246.302 236.178 245.282C236.178 244.279 235.243 243.616 233.849 243.616C232.455 243.616 231.537 244.279 231.537 245.282ZM237.504 245.282C237.504 246.965 236.025 248.036 233.849 248.036C231.69 248.036 230.211 246.965 230.211 245.282C230.211 243.616 231.69 242.528 233.849 242.528C236.025 242.528 237.504 243.616 237.504 245.282ZM231.248 250.518V249.379H241.142V254.275H239.748V250.518H231.248ZM243.403 243.225V244.381H241.142V248.546H239.748V239.026H241.142V243.225H243.403ZM257.954 243.769L257.444 244.891C255.081 244.517 252.82 243.327 251.851 241.627C250.899 243.327 248.621 244.517 246.241 244.891L245.731 243.769C248.468 243.429 251.137 241.797 251.137 239.859V239.179H252.565V239.859C252.565 241.746 255.251 243.429 257.954 243.769ZM255.557 252.932V250.994H248.06V252.932H255.557ZM255.557 249.923V248.138H256.934V254.054H246.683V248.138H248.06V249.923H255.557ZM244.932 245.962H258.736V247.084H244.932V245.962ZM266.062 242.001V249.43C268.221 249.413 269.581 249.345 271.179 249.005L271.315 250.144C269.581 250.518 268.102 250.586 265.671 250.586H264.685V240.879H270.414V242.001H266.062ZM272.675 244.823V239.383H273.984V253.493H272.675V245.979H269.394V244.823H272.675ZM275.735 239.009H277.061V254.258H275.735V239.009ZM290.846 239.009H292.24V254.292H290.846V239.009ZM284.199 240.182C286.46 240.182 288.075 242.256 288.075 245.503C288.075 248.75 286.46 250.824 284.199 250.824C281.938 250.824 280.323 248.75 280.323 245.503C280.323 242.256 281.938 240.182 284.199 240.182ZM284.199 241.44C282.703 241.44 281.649 243.038 281.649 245.503C281.649 247.985 282.703 249.583 284.199 249.583C285.678 249.583 286.732 247.985 286.732 245.503C286.732 243.038 285.678 241.44 284.199 241.44ZM297.492 245.809V249.464C300.246 249.464 302.014 249.362 304.088 248.988L304.241 250.127C302.031 250.518 300.178 250.603 297.271 250.603H296.098V240.386H303.153V241.542H297.492V244.687H302.49V245.809H297.492ZM306.57 238.992H307.964V254.275H306.57V245.911H303.425V244.755H306.57V238.992ZM318.639 251.232H324.878V252.371H311.023V251.232H317.228V248.359H312.757V243.65H321.801V241.27H312.723V240.131H323.161V244.772H314.134V247.237H323.518V248.359H318.639V251.232ZM339.275 240.165V241.168H330.52V240.165H334.209V238.856H335.603V240.165H339.275ZM332.662 243.65C332.662 244.33 333.529 244.755 334.906 244.755C336.266 244.755 337.133 244.33 337.133 243.65C337.133 242.97 336.266 242.562 334.906 242.562C333.529 242.562 332.662 242.97 332.662 243.65ZM339.734 246.183L339.819 247.067C336.572 247.645 332.968 247.662 330.299 247.662L330.146 246.625C331.336 246.625 332.747 246.625 334.209 246.574V245.639C332.441 245.503 331.336 244.789 331.336 243.65C331.336 242.392 332.73 241.644 334.906 241.644C337.048 241.644 338.459 242.392 338.459 243.65C338.459 244.772 337.354 245.486 335.603 245.639V246.54C336.997 246.472 338.425 246.353 339.734 246.183ZM333.563 251.793V253.085H342.607V254.088H332.203V250.858H340.652V249.668H332.152V248.682H342.029V251.793H333.563ZM342.029 242.902H344.273V244.075H342.029V248.019H340.635V239.009H342.029V242.902ZM352.738 253.17C355.118 253.17 356.546 252.575 356.546 251.538C356.546 250.501 355.118 249.906 352.738 249.906C350.341 249.906 348.93 250.501 348.93 251.538C348.93 252.575 350.341 253.17 352.738 253.17ZM352.738 248.818C356.019 248.818 357.957 249.787 357.957 251.538C357.957 253.289 356.019 254.241 352.738 254.241C349.474 254.241 347.519 253.289 347.519 251.538C347.519 249.787 349.474 248.818 352.738 248.818ZM350.63 244.772V246.557H354.863V244.772C354.234 244.874 353.52 244.942 352.738 244.942C351.973 244.942 351.259 244.874 350.63 244.772ZM348.811 242.12C348.811 243.208 350.307 243.871 352.738 243.871C355.169 243.871 356.665 243.208 356.665 242.12C356.665 241.015 355.169 240.369 352.738 240.369C350.307 240.369 348.811 241.015 348.811 242.12ZM356.24 246.557H359.64V247.679H345.836V246.557H349.253V244.415C348.046 243.922 347.383 243.157 347.383 242.12C347.383 240.335 349.44 239.281 352.738 239.281C356.053 239.281 358.093 240.335 358.093 242.12C358.093 243.14 357.413 243.922 356.24 244.398V246.557Z" fill="#3C6689"/>
</g>
<g filter="url(#filter1_d_110_2715)">
<rect x="414.5" y="92" width="200" height="200" rx="8" fill="white" shape-rendering="crispEdges"/>
<rect x="415" y="92.5" width="199" height="199" rx="7.5" stroke="#A3D8FF" shape-rendering="crispEdges"/>
<path d="M502.722 189.078C501.289 189.078 500.134 188.614 499.255 187.687C498.392 186.775 497.961 185.562 497.961 184.049V165.763C497.961 164.249 498.392 163.036 499.255 162.125C500.134 161.197 501.289 160.733 502.722 160.733H526.086C527.518 160.733 528.674 161.197 529.553 162.125C530.432 163.036 530.871 164.249 530.871 165.763V184.049C530.871 185.562 530.432 186.775 529.553 187.687C528.674 188.614 527.518 189.078 526.086 189.078H502.722ZM502.453 161.563V155.24C502.453 152.636 502.966 150.374 503.991 148.453C505.033 146.516 506.449 145.019 508.239 143.961C510.046 142.903 512.097 142.374 514.392 142.374C516.719 142.374 518.778 142.903 520.568 143.961C522.375 145.019 523.791 146.516 524.816 148.453C525.842 150.374 526.354 152.636 526.354 155.24V161.563H524.548V155.191C524.548 152.978 524.108 151.041 523.229 149.381C522.367 147.721 521.179 146.435 519.665 145.523C518.151 144.596 516.394 144.132 514.392 144.132C512.406 144.132 510.656 144.596 509.143 145.523C507.629 146.435 506.441 147.721 505.578 149.381C504.715 151.041 504.284 152.978 504.284 155.191V161.563H502.453Z" fill="#3C6689"/>
<path d="M464.015 218.335V221.072C464.015 223.758 465.749 226.529 467.891 227.6L467.024 228.705C465.409 227.838 464.032 226.053 463.335 223.962C462.672 226.189 461.261 228.093 459.544 229.011L458.711 227.889C460.904 226.767 462.638 223.843 462.638 221.072V218.335H464.015ZM473.144 223.197V224.353H470.628V232.258H469.234V217.026H470.628V223.197H473.144ZM481.421 231.17C483.801 231.17 485.229 230.575 485.229 229.538C485.229 228.501 483.801 227.906 481.421 227.906C479.024 227.906 477.613 228.501 477.613 229.538C477.613 230.575 479.024 231.17 481.421 231.17ZM481.421 226.818C484.702 226.818 486.64 227.787 486.64 229.538C486.64 231.289 484.702 232.241 481.421 232.241C478.157 232.241 476.202 231.289 476.202 229.538C476.202 227.787 478.157 226.818 481.421 226.818ZM479.313 222.772V224.557H483.546V222.772C482.917 222.874 482.203 222.942 481.421 222.942C480.656 222.942 479.942 222.874 479.313 222.772ZM477.494 220.12C477.494 221.208 478.99 221.871 481.421 221.871C483.852 221.871 485.348 221.208 485.348 220.12C485.348 219.015 483.852 218.369 481.421 218.369C478.99 218.369 477.494 219.015 477.494 220.12ZM484.923 224.557H488.323V225.679H474.519V224.557H477.936V222.415C476.729 221.922 476.066 221.157 476.066 220.12C476.066 218.335 478.123 217.281 481.421 217.281C484.736 217.281 486.776 218.335 486.776 220.12C486.776 221.14 486.096 221.922 484.923 222.398V224.557ZM495.309 219.729V221.667C495.309 224.098 497.043 226.801 499.253 227.838L498.454 228.96C496.754 228.11 495.326 226.325 494.629 224.285C493.932 226.512 492.453 228.45 490.736 229.334L489.92 228.229C492.096 227.141 493.932 224.251 493.932 221.667V219.729H490.447V218.573H498.692V219.729H495.309ZM504.421 223.163V224.336H501.905V232.258H500.511V217.026H501.905V223.163H504.421ZM510.761 218.131C513.141 218.131 514.841 219.576 514.841 221.718C514.841 223.843 513.141 225.305 510.761 225.305C508.398 225.305 506.681 223.843 506.681 221.718C506.681 219.576 508.398 218.131 510.761 218.131ZM510.761 219.321C509.197 219.321 508.041 220.29 508.041 221.718C508.041 223.129 509.197 224.115 510.761 224.115C512.342 224.115 513.481 223.129 513.481 221.718C513.481 220.29 512.342 219.321 510.761 219.321ZM516.847 217.009H518.241V232.292H516.847V217.009ZM506.086 228.943L505.916 227.77C508.687 227.77 512.512 227.753 515.844 227.243L515.963 228.28C512.529 228.909 508.84 228.943 506.086 228.943ZM537.483 217.026V224.931H536.089V217.026H537.483ZM534.321 223.537L533.675 224.625C531.89 224.081 530.479 222.874 529.782 221.31C529.136 222.993 527.708 224.319 525.855 224.948L525.192 223.843C527.487 223.112 529.051 221.242 529.051 219.168V218.998H525.566V217.876H533.93V218.998H530.479V219.168C530.479 221.123 532.06 222.874 534.321 223.537ZM529.034 230.983H538.01V232.088H527.657V228.28H536.123V226.75H527.623V225.662H537.5V229.317H529.034V230.983ZM551.269 221.956V218.845H543.755V221.956H551.269ZM552.646 217.723V223.078H542.395V217.723H552.646ZM543.755 227.566V230.779H552.901V231.918H542.361V227.566H543.755ZM540.593 224.812H554.448V225.934H548.328V229.011H546.934V225.934H540.593V224.812ZM563.151 218.318C560.652 218.318 559.224 218.896 559.224 219.916C559.224 220.936 560.652 221.514 563.151 221.514C565.65 221.514 567.078 220.936 567.078 219.916C567.078 218.896 565.65 218.318 563.151 218.318ZM563.151 222.551C559.802 222.551 557.796 221.633 557.796 219.916C557.796 218.199 559.802 217.264 563.151 217.264C566.5 217.264 568.506 218.199 568.506 219.916C568.506 221.633 566.5 222.551 563.151 222.551ZM559.326 229.453V231H568.744V232.088H557.966V228.433H566.908V227.073H557.915V226.019H568.285V229.453H559.326ZM556.249 223.588H570.053V224.71H556.249V223.588ZM435.61 242.001V249.43C437.769 249.413 439.129 249.345 440.727 249.005L440.863 250.144C439.129 250.518 437.65 250.586 435.219 250.586H434.233V240.879H439.962V242.001H435.61ZM442.223 244.823V239.383H443.532V253.493H442.223V245.979H438.942V244.823H442.223ZM445.283 239.009H446.609V254.258H445.283V239.009ZM460.394 239.009H461.788V254.292H460.394V239.009ZM453.747 240.182C456.008 240.182 457.623 242.256 457.623 245.503C457.623 248.75 456.008 250.824 453.747 250.824C451.486 250.824 449.871 248.75 449.871 245.503C449.871 242.256 451.486 240.182 453.747 240.182ZM453.747 241.44C452.251 241.44 451.197 243.038 451.197 245.503C451.197 247.985 452.251 249.583 453.747 249.583C455.226 249.583 456.28 247.985 456.28 245.503C456.28 243.038 455.226 241.44 453.747 241.44ZM467.04 245.809V249.464C469.794 249.464 471.562 249.362 473.636 248.988L473.789 250.127C471.579 250.518 469.726 250.603 466.819 250.603H465.646V240.386H472.701V241.542H467.04V244.687H472.038V245.809H467.04ZM476.118 238.992H477.512V254.275H476.118V245.911H472.973V244.755H476.118V238.992ZM488.187 251.232H494.426V252.371H480.571V251.232H486.776V248.359H482.305V243.65H491.349V241.27H482.271V240.131H492.709V244.772H483.682V247.237H493.066V248.359H488.187V251.232ZM504.879 240.335V243.072C504.879 245.758 506.613 248.529 508.755 249.6L507.888 250.705C506.273 249.838 504.896 248.053 504.199 245.962C503.536 248.189 502.125 250.093 500.408 251.011L499.575 249.889C501.768 248.767 503.502 245.843 503.502 243.072V240.335H504.879ZM514.008 245.197V246.353H511.492V254.258H510.098V239.026H511.492V245.197H514.008ZM522.286 253.17C524.666 253.17 526.094 252.575 526.094 251.538C526.094 250.501 524.666 249.906 522.286 249.906C519.889 249.906 518.478 250.501 518.478 251.538C518.478 252.575 519.889 253.17 522.286 253.17ZM522.286 248.818C525.567 248.818 527.505 249.787 527.505 251.538C527.505 253.289 525.567 254.241 522.286 254.241C519.022 254.241 517.067 253.289 517.067 251.538C517.067 249.787 519.022 248.818 522.286 248.818ZM520.178 244.772V246.557H524.411V244.772C523.782 244.874 523.068 244.942 522.286 244.942C521.521 244.942 520.807 244.874 520.178 244.772ZM518.359 242.12C518.359 243.208 519.855 243.871 522.286 243.871C524.717 243.871 526.213 243.208 526.213 242.12C526.213 241.015 524.717 240.369 522.286 240.369C519.855 240.369 518.359 241.015 518.359 242.12ZM525.788 246.557H529.188V247.679H515.384V246.557H518.801V244.415C517.594 243.922 516.931 243.157 516.931 242.12C516.931 240.335 518.988 239.281 522.286 239.281C525.601 239.281 527.641 240.335 527.641 242.12C527.641 243.14 526.961 243.922 525.788 244.398V246.557ZM535.511 249.702C536.905 249.702 537.908 248.716 537.908 247.356C537.908 245.979 536.905 244.993 535.511 244.993C534.134 244.993 533.131 245.979 533.131 247.356C533.131 248.716 534.134 249.702 535.511 249.702ZM535.511 243.837C537.687 243.837 539.234 245.299 539.234 247.356C539.234 249.43 537.687 250.858 535.511 250.858C533.369 250.858 531.822 249.43 531.822 247.356C531.822 245.299 533.369 243.837 535.511 243.837ZM536.191 239.196V241.457H539.948V242.579H530.955V241.457H534.797V239.196H536.191ZM545.286 245.282V246.455H542.787V254.258H541.393V239.026H542.787V245.282H545.286ZM552.118 241.729V243.667C552.118 246.251 553.954 248.886 556.198 249.838L555.416 250.96C553.648 250.144 552.152 248.393 551.421 246.302C550.724 248.529 549.228 250.45 547.494 251.334L546.678 250.212C548.871 249.175 550.724 246.302 550.724 243.667V241.729H547.188V240.573H555.705V241.729H552.118ZM557.762 239.026H559.156V254.258H557.762V239.026ZM567.502 243.395C567.502 244.789 568.607 245.775 570.086 245.775C571.548 245.775 572.653 244.789 572.653 243.395C572.653 242.001 571.548 241.015 570.086 241.015C568.607 241.015 567.502 242.001 567.502 243.395ZM574.013 243.395C574.013 245.469 572.347 246.914 570.086 246.914C567.808 246.914 566.142 245.469 566.142 243.395C566.142 241.321 567.808 239.876 570.086 239.876C572.347 239.876 574.013 241.321 574.013 243.395ZM568.811 248.257V252.711C569.695 252.677 570.817 252.541 571.871 252.201L572.092 253.306C570.647 253.782 569.219 253.867 568.182 253.867H567.451V248.257H568.811ZM575.373 253.255C576.291 253.255 576.954 252.779 576.954 252.082C576.954 251.385 576.291 250.926 575.373 250.926C574.438 250.926 573.792 251.385 573.792 252.082C573.792 252.779 574.438 253.255 575.373 253.255ZM575.373 249.94C577.022 249.94 578.195 250.773 578.195 252.082C578.195 253.408 577.022 254.241 575.373 254.241C573.724 254.241 572.551 253.408 572.551 252.082C572.551 250.773 573.724 249.94 575.373 249.94ZM576.053 246.982V248.359H579.198V249.396H571.531V248.359H574.693V246.982H576.053ZM577.685 242.426H579.946V243.582H577.685V246.608H576.291V239.009H577.685V242.426ZM588.377 239.349C591.675 239.349 593.732 240.42 593.732 242.239C593.732 244.041 591.675 245.112 588.377 245.112C585.079 245.112 583.022 244.041 583.022 242.239C583.022 240.42 585.079 239.349 588.377 239.349ZM588.377 240.454C585.963 240.454 584.45 241.117 584.45 242.239C584.45 243.361 585.963 244.024 588.377 244.024C590.791 244.024 592.304 243.361 592.304 242.239C592.304 241.117 590.791 240.454 588.377 240.454ZM583.192 249.039H593.596V254.054H583.192V249.039ZM592.236 250.144H584.552V252.932H592.236V250.144ZM581.492 246.421H595.279V247.543H581.492V246.421Z" fill="#3C6689"/>
</g>
<g filter="url(#filter2_d_110_2715)">
<rect x="634.5" y="92" width="200" height="200" rx="8" fill="white" shape-rendering="crispEdges"/>
<rect x="635" y="92.5" width="199" height="199" rx="7.5" stroke="#A3D8FF" shape-rendering="crispEdges"/>
<path d="M717.833 163.957C717.833 167.89 718.947 171.463 721.174 174.674C723.401 177.885 726.349 180.197 730.02 181.612C730.393 181.755 730.666 181.983 730.839 182.293C731.012 182.604 731.016 182.9 730.851 183.182C730.655 183.503 730.374 183.715 730.008 183.818C729.642 183.92 729.283 183.904 728.931 183.77C724.833 182.172 721.553 179.565 719.091 175.95C716.63 172.335 715.4 168.322 715.4 163.911C715.4 162.662 715.508 161.425 715.723 160.201C715.939 158.976 716.274 157.775 716.727 156.596L712.553 159.002C712.271 159.177 711.973 159.22 711.658 159.133C711.342 159.046 711.102 158.862 710.937 158.58C710.771 158.298 710.732 157.998 710.82 157.678C710.907 157.358 711.091 157.115 711.373 156.95L717.999 153.139C718.464 152.882 718.956 152.82 719.475 152.953C719.994 153.086 720.382 153.385 720.639 153.851L724.45 160.417C724.615 160.698 724.654 160.999 724.567 161.319C724.48 161.639 724.295 161.881 724.014 162.047C723.732 162.212 723.431 162.251 723.111 162.164C722.792 162.076 722.549 161.892 722.384 161.61L719.39 156.482C718.86 157.657 718.469 158.875 718.214 160.136C717.96 161.398 717.833 162.671 717.833 163.957ZM736.843 144.888C734.691 144.888 732.612 145.25 730.607 145.974C728.602 146.698 726.761 147.733 725.084 149.08C724.793 149.306 724.472 149.408 724.122 149.385C723.771 149.362 723.513 149.21 723.348 148.928C723.143 148.598 723.094 148.25 723.201 147.884C723.308 147.518 723.512 147.217 723.812 146.981C725.694 145.518 727.735 144.406 729.935 143.643C732.134 142.881 734.421 142.5 736.797 142.5C739.91 142.5 742.855 143.125 745.633 144.376C748.411 145.626 750.827 147.427 752.881 149.778V144.796C752.881 144.456 752.995 144.172 753.223 143.944C753.451 143.716 753.735 143.602 754.075 143.602C754.415 143.602 754.699 143.716 754.927 143.944C755.155 144.172 755.269 144.456 755.269 144.796V152.418C755.269 152.972 755.086 153.432 754.72 153.798C754.354 154.164 753.895 154.346 753.34 154.346H745.718C745.379 154.346 745.095 154.232 744.867 154.004C744.639 153.776 744.525 153.492 744.525 153.153C744.525 152.813 744.639 152.529 744.867 152.301C745.095 152.073 745.379 151.959 745.718 151.959H751.628C749.828 149.691 747.635 147.945 745.048 146.722C742.461 145.499 739.726 144.888 736.843 144.888ZM751.104 176.538C753.045 174.328 754.39 171.831 755.14 169.049C755.89 166.266 755.99 163.446 755.439 160.587C755.378 160.216 755.446 159.879 755.643 159.576C755.841 159.273 756.109 159.122 756.449 159.122C756.85 159.122 757.18 159.273 757.439 159.576C757.697 159.879 757.857 160.231 757.918 160.632C758.439 163.648 758.299 166.627 757.498 169.57C756.698 172.513 755.307 175.173 753.327 177.548C751.744 179.464 749.888 181.051 747.759 182.309C745.63 183.568 743.343 184.432 740.897 184.904L745.03 187.282C745.311 187.448 745.493 187.69 745.576 188.01C745.659 188.33 745.617 188.631 745.452 188.912C745.287 189.194 745.046 189.376 744.731 189.459C744.416 189.541 744.117 189.5 743.836 189.335L737.242 185.478C736.777 185.221 736.478 184.833 736.345 184.314C736.211 183.795 736.273 183.303 736.53 182.838L740.342 176.304C740.507 176.022 740.747 175.84 741.062 175.757C741.378 175.675 741.676 175.716 741.958 175.881C742.239 176.046 742.424 176.289 742.511 176.609C742.598 176.929 742.559 177.23 742.394 177.511L739.267 182.833C741.566 182.515 743.736 181.824 745.776 180.76C747.816 179.696 749.592 178.289 751.104 176.538Z" fill="#3C6689"/>
<path d="M697.664 224.421L697.137 223.316C699.789 222.925 702.424 221.174 702.424 219.168V219.083H697.613V217.961H708.748V219.083H703.971V219.168C703.971 221.174 706.606 222.925 709.292 223.316L708.748 224.421C706.385 224.013 704.124 222.738 703.206 220.936C702.271 222.738 700.027 224.013 697.664 224.421ZM710.091 225.696L710.108 226.835H703.869V232.258H702.475V226.835H696.321V225.696H710.091ZM712.844 218.658H719.984C719.984 223.061 717.961 226.937 712.895 229.419L712.147 228.28C716.244 226.325 718.284 223.401 718.573 219.78H712.844V218.658ZM723.061 217.009H724.455V232.258H723.061V217.009ZM736.575 224.455L735.878 225.543C734.178 224.931 732.869 223.673 732.189 222.092C731.543 223.843 730.149 225.237 728.364 225.9L727.633 224.795C729.894 223.996 731.475 221.956 731.475 219.797V219.185H728.075V218.046H736.218V219.185H732.869V219.797C732.869 221.752 734.365 223.673 736.575 224.455ZM729.945 228.093V226.971H740.145V232.275H738.734V228.093H729.945ZM738.734 217.009H740.145V226.138H738.734V222.126H735.759V220.987H738.734V217.009ZM750.105 217.961C753.267 217.961 755.647 219.644 755.647 222.177C755.647 224.727 753.267 226.393 750.105 226.393C746.943 226.393 744.563 224.727 744.563 222.177C744.563 219.644 746.943 217.961 750.105 217.961ZM750.105 219.1C747.708 219.1 745.889 220.341 745.889 222.177C745.889 224.03 747.708 225.254 750.105 225.254C752.519 225.254 754.321 224.03 754.321 222.177C754.321 220.341 752.519 219.1 750.105 219.1ZM743.203 229.079H757.058V230.235H743.203V229.079ZM766.458 229.232H772.697V230.371H758.842V229.232H765.047V226.359H760.576V221.65H769.62V219.27H760.542V218.131H770.98V222.772H761.953V225.237H771.337V226.359H766.458V229.232ZM689.862 249.362V252.779H699.059V253.918H688.468V249.362H689.862ZM694.316 246.982H700.521V248.121H686.734V246.982H692.939V244.789H688.587V239.587H689.964V243.667H698.94V244.789H694.316V246.982ZM712.998 243.956V240.845H705.484V243.956H712.998ZM714.375 239.723V245.078H704.124V239.723H714.375ZM705.484 249.566V252.779H714.63V253.918H704.09V249.566H705.484ZM702.322 246.812H716.177V247.934H710.057V251.011H708.663V247.934H702.322V246.812ZM732.699 252.932V250.96H725.712V252.932H732.699ZM732.699 249.872V247.934H734.093V254.054H724.335V247.934H725.712V249.872H732.699ZM725.695 245.622C727.208 245.622 728.296 244.636 728.296 243.242C728.296 241.848 727.208 240.879 725.695 240.879C724.182 240.879 723.094 241.848 723.094 243.242C723.094 244.636 724.182 245.622 725.695 245.622ZM732.682 239.026H734.093V247.203H732.682V243.786H729.588C729.316 245.588 727.786 246.778 725.695 246.778C723.417 246.778 721.768 245.35 721.768 243.242C721.768 241.151 723.417 239.723 725.695 239.723C727.752 239.723 729.282 240.879 729.571 242.647H732.682V239.026ZM739.107 242.001V249.43C741.266 249.413 742.626 249.345 744.224 249.005L744.36 250.144C742.626 250.518 741.147 250.586 738.716 250.586H737.73V240.879H743.459V242.001H739.107ZM745.72 244.823V239.383H747.029V253.493H745.72V245.979H742.439V244.823H745.72ZM748.78 239.009H750.106V254.258H748.78V239.009ZM763.892 239.009H765.286V254.292H763.892V239.009ZM757.245 240.182C759.506 240.182 761.121 242.256 761.121 245.503C761.121 248.75 759.506 250.824 757.245 250.824C754.984 250.824 753.369 248.75 753.369 245.503C753.369 242.256 754.984 240.182 757.245 240.182ZM757.245 241.44C755.749 241.44 754.695 243.038 754.695 245.503C754.695 247.985 755.749 249.583 757.245 249.583C758.724 249.583 759.778 247.985 759.778 245.503C759.778 243.038 758.724 241.44 757.245 241.44ZM780.686 247.237V248.359H770.214V240.335H780.533V241.457H771.625V243.718H780.193V244.823H771.625V247.237H780.686ZM768.429 251.147H782.267V252.286H768.429V251.147Z" fill="#3C6689"/>
</g>
<g filter="url(#filter3_d_110_2715)">
<rect x="854.5" y="92" width="200" height="200" rx="8" fill="white" shape-rendering="crispEdges"/>
<rect x="855" y="92.5" width="199" height="199" rx="7.5" stroke="#A3D8FF" shape-rendering="crispEdges"/>
<path d="M934.745 185.911C933.808 185.911 933.046 185.677 932.46 185.208C931.889 184.739 931.603 184.109 931.603 183.318C931.603 181.927 932.021 180.462 932.855 178.924C933.705 177.371 934.921 175.921 936.503 174.573C938.1 173.211 940.019 172.112 942.26 171.277C944.516 170.428 947.05 170.003 949.862 170.003C952.675 170.003 955.202 170.428 957.443 171.277C959.699 172.112 961.618 173.211 963.2 174.573C964.796 175.921 966.012 177.371 966.847 178.924C967.697 180.462 968.122 181.927 968.122 183.318C968.122 184.109 967.829 184.739 967.243 185.208C966.671 185.677 965.917 185.911 964.979 185.911H934.745ZM949.906 166.048C948.31 166.048 946.859 165.63 945.556 164.795C944.267 163.946 943.241 162.803 942.479 161.368C941.718 159.932 941.337 158.313 941.337 156.512C941.337 154.827 941.718 153.282 942.479 151.875C943.256 150.455 944.296 149.319 945.6 148.47C946.903 147.62 948.339 147.195 949.906 147.195C951.488 147.195 952.924 147.62 954.213 148.47C955.517 149.305 956.549 150.433 957.311 151.854C958.073 153.26 958.454 154.82 958.454 156.534C958.454 158.321 958.073 159.932 957.311 161.368C956.564 162.803 955.539 163.946 954.235 164.795C952.946 165.63 951.503 166.048 949.906 166.048ZM970.868 160.687C970.312 160.687 970.033 160.401 970.033 159.83C970.033 159.698 970.033 159.573 970.033 159.456C970.033 159.324 970.033 159.192 970.033 159.061C970.033 158.152 970.238 157.383 970.648 156.753C971.059 156.124 971.718 155.486 972.626 154.842C973.695 154.109 974.442 153.465 974.867 152.908C975.307 152.337 975.526 151.67 975.526 150.909C975.526 149.927 975.138 149.122 974.362 148.492C973.6 147.847 972.567 147.525 971.264 147.525C970.458 147.525 969.74 147.693 969.11 148.03C968.48 148.367 967.975 148.807 967.594 149.349C967.213 149.876 967.001 150.433 966.957 151.019L966.869 151.326C966.84 151.517 966.752 151.67 966.605 151.788C966.459 151.89 966.283 151.941 966.078 151.941C965.873 151.941 965.697 151.875 965.551 151.744C965.404 151.597 965.331 151.392 965.331 151.128C965.331 150.967 965.331 150.828 965.331 150.711C965.346 150.579 965.36 150.44 965.375 150.293C965.536 149.166 966.137 148.177 967.177 147.327C968.231 146.478 969.616 146.053 971.33 146.053C972.472 146.053 973.49 146.258 974.384 146.668C975.277 147.063 975.98 147.62 976.493 148.338C977.021 149.056 977.284 149.883 977.284 150.821C977.284 151.861 977.021 152.754 976.493 153.501C975.98 154.234 975.16 154.988 974.032 155.765C973.153 156.365 972.538 156.907 972.187 157.391C971.835 157.874 971.659 158.467 971.659 159.17C971.659 159.288 971.659 159.405 971.659 159.522C971.659 159.639 971.659 159.756 971.659 159.874C971.659 160.108 971.586 160.306 971.439 160.467C971.308 160.613 971.117 160.687 970.868 160.687ZM970.824 166.575C970.385 166.575 970.004 166.414 969.682 166.092C969.374 165.77 969.22 165.403 969.22 164.993C969.22 164.554 969.374 164.18 969.682 163.873C970.004 163.565 970.385 163.411 970.824 163.411C971.264 163.411 971.637 163.565 971.945 163.873C972.267 164.18 972.428 164.554 972.428 164.993C972.428 165.418 972.267 165.792 971.945 166.114C971.637 166.421 971.264 166.575 970.824 166.575Z" fill="#3C6689"/>
<path d="M928.34 224.557V225.696H922.118V232.275H920.707V225.696H914.553V224.557H924.668C925.144 222.364 925.144 220.749 925.144 219.321V219.117H916.27V217.995H926.504V219.321C926.504 220.749 926.504 222.364 926.079 224.557H928.34ZM934.612 220.97V221.701C934.612 224.132 935.836 226.648 937.893 227.753L937.094 228.807C935.615 227.974 934.527 226.427 933.966 224.591C933.439 226.529 932.368 228.229 930.872 229.13L930.056 228.093C932.113 226.869 933.286 224.2 933.286 221.701V220.97H930.464V219.814H933.286V217.553H934.629V219.814H937.434V220.97H934.612ZM938.726 223.027V217.366H940.052V231.459H938.726V224.183H936.397V223.027H938.726ZM941.786 217.009H943.129V232.241H941.786V217.009ZM954.807 224.455L954.11 225.543C952.41 224.931 951.101 223.673 950.421 222.092C949.775 223.843 948.381 225.237 946.596 225.9L945.865 224.795C948.126 223.996 949.707 221.956 949.707 219.797V219.185H946.307V218.046H954.45V219.185H951.101V219.797C951.101 221.752 952.597 223.673 954.807 224.455ZM948.177 228.093V226.971H958.377V232.275H956.966V228.093H948.177ZM956.966 217.009H958.377V226.138H956.966V222.126H953.991V220.987H956.966V217.009ZM972.536 217.009H973.93V232.292H972.536V217.009ZM965.889 218.182C968.15 218.182 969.765 220.256 969.765 223.503C969.765 226.75 968.15 228.824 965.889 228.824C963.628 228.824 962.013 226.75 962.013 223.503C962.013 220.256 963.628 218.182 965.889 218.182ZM965.889 219.44C964.393 219.44 963.339 221.038 963.339 223.503C963.339 225.985 964.393 227.583 965.889 227.583C967.368 227.583 968.422 225.985 968.422 223.503C968.422 221.038 967.368 219.44 965.889 219.44ZM987.852 220.052V219.678H978.553V218.539H989.246V220.052C989.246 221.939 989.246 224.03 988.668 227.107L987.274 226.954C987.852 224.03 987.852 221.888 987.852 220.052ZM983.857 228.977H990.895V230.116H977.108V228.977H982.463V223.52H983.857V228.977ZM892.099 244.483V242.511H884.687V244.483H892.099ZM893.476 239.485V245.588H883.31V239.485H884.687V241.44H892.099V239.485H893.476ZM884.602 249.77V252.779H893.765V253.918H883.225V249.77H884.602ZM881.457 247.067H895.312V248.189H889.192V251.147H887.798V248.189H881.457V247.067ZM906.038 246.268L905.29 247.373C903.624 246.727 902.315 245.452 901.652 243.854C901.006 245.639 899.663 246.999 897.878 247.713L897.147 246.591C899.459 245.758 900.921 243.701 900.921 241.389V239.774H902.315V241.44C902.315 243.531 903.828 245.486 906.038 246.268ZM899.476 249.991V248.869H909.693V254.275H908.282V249.991H899.476ZM908.282 239.026H909.693V248.019H908.282V243.344H904.967V242.205H908.282V239.026ZM921.761 246.455L921.064 247.543C919.364 246.931 918.055 245.673 917.375 244.092C916.729 245.843 915.335 247.237 913.55 247.9L912.819 246.795C915.08 245.996 916.661 243.956 916.661 241.797V241.185H913.261V240.046H921.404V241.185H918.055V241.797C918.055 243.752 919.551 245.673 921.761 246.455ZM915.131 250.093V248.971H925.331V254.275H923.92V250.093H915.131ZM923.92 239.009H925.331V248.138H923.92V244.126H920.945V242.987H923.92V239.009ZM940.919 239.026V250.161H939.525V239.026H940.919ZM930.124 243.82C930.124 245.333 931.246 246.387 932.725 246.387C934.238 246.387 935.36 245.333 935.36 243.82C935.36 242.341 934.238 241.287 932.725 241.287C931.246 241.287 930.124 242.341 930.124 243.82ZM936.72 243.82C936.72 246.03 935.003 247.594 932.725 247.594C930.464 247.594 928.764 246.03 928.764 243.82C928.764 241.627 930.464 240.08 932.725 240.08C935.003 240.08 936.72 241.627 936.72 243.82ZM932.504 252.779H941.378V253.918H931.11V249.022H932.504V252.779ZM949.435 245.979V249.345C951.169 249.345 952.818 249.277 954.773 248.937L954.892 250.076C952.767 250.433 951.033 250.518 949.095 250.518H948.092V244.874H952.172V241.831H948.041V240.692H953.515V245.979H949.435ZM956.116 244.483V239.383H957.425V253.459H956.116V245.639H954.229V244.483H956.116ZM959.193 239.009H960.536V254.258H959.193V239.009ZM968.201 241.593V246.591H971.992V241.593H968.201ZM970.802 251.215H977.041V252.354H963.22V251.215H969.391V247.713H964.478V246.591H966.807V241.593H964.444V240.471H975.749V241.593H973.386V246.591H975.715V247.713H970.802V251.215ZM991.099 247.237V248.359H980.627V240.335H990.946V241.457H982.038V243.718H990.606V244.823H982.038V247.237H991.099ZM978.842 251.147H992.68V252.286H978.842V251.147ZM1009.19 245.639V243.803H1006.62V242.681H1009.19V239.009H1010.6V248.852H1009.19V246.778H1006.6V245.639H1009.19ZM1006.6 240.692V241.814H998.068V240.692H1001.71V238.873H1003.1V240.692H1006.6ZM1000.24 245.418C1000.24 246.489 1001.11 247.186 1002.39 247.186C1003.66 247.186 1004.53 246.489 1004.53 245.418C1004.53 244.364 1003.66 243.667 1002.39 243.667C1001.11 243.667 1000.24 244.364 1000.24 245.418ZM1005.84 245.418C1005.84 247.135 1004.41 248.257 1002.39 248.257C1000.35 248.257 998.935 247.135 998.935 245.418C998.935 243.718 1000.35 242.596 1002.39 242.596C1004.41 242.596 1005.84 243.718 1005.84 245.418ZM1005.6 253.17C1007.84 253.17 1009.22 252.609 1009.22 251.64C1009.22 250.654 1007.84 250.11 1005.6 250.11C1003.35 250.11 1001.96 250.654 1001.96 251.64C1001.96 252.609 1003.35 253.17 1005.6 253.17ZM1005.6 249.039C1008.74 249.039 1010.66 249.974 1010.66 251.64C1010.66 253.289 1008.74 254.241 1005.6 254.241C1002.44 254.241 1000.52 253.289 1000.52 251.64C1000.52 249.974 1002.44 249.039 1005.6 249.039ZM1024.82 248.036V243.395H1021.51V242.256H1024.82V239.026H1026.24V248.036H1024.82ZM1022.61 246.234L1021.87 247.322C1020.2 246.693 1018.91 245.486 1018.25 243.905C1017.6 245.707 1016.22 247.084 1014.39 247.781L1013.66 246.642C1016 245.809 1017.51 243.769 1017.51 241.44V239.876H1018.91V241.389C1018.91 243.565 1020.39 245.452 1022.61 246.234ZM1021.2 253.136C1023.5 253.136 1024.89 252.473 1024.89 251.368C1024.89 250.246 1023.5 249.583 1021.2 249.583C1018.91 249.583 1017.51 250.246 1017.51 251.368C1017.51 252.473 1018.91 253.136 1021.2 253.136ZM1021.2 248.495C1024.33 248.495 1026.29 249.532 1026.29 251.368C1026.29 253.187 1024.33 254.241 1021.2 254.241C1018.08 254.241 1016.12 253.187 1016.12 251.368C1016.12 249.532 1018.08 248.495 1021.2 248.495Z" fill="#3C6689"/>
<g filter="url(#filter4_d_110_2715)">
<circle cx="1041" cy="106" r="4" fill="#FD5E2B"/>
</g>
</g>
<path d="M1061.38 100.562H1066.84C1066.84 103.929 1065.29 106.893 1061.42 108.791L1060.85 107.92C1063.98 106.425 1065.54 104.189 1065.76 101.42H1061.38V100.562ZM1069.19 99.301H1070.26V110.962H1069.19V99.301ZM1082.62 102.59L1082.25 103.396C1080.41 103.162 1078.65 102.343 1077.93 101.095C1077.18 102.343 1075.43 103.162 1073.57 103.396L1073.21 102.59C1075.33 102.356 1077.38 101.212 1077.38 99.795V99.353H1078.47V99.795C1078.47 101.212 1080.5 102.356 1082.62 102.59ZM1083.19 105.021H1078.45V106.178H1081.84V108.843H1074.99V110H1082.19V110.832H1073.95V108.063H1080.79V106.997H1073.91V106.178H1077.38V105.021H1072.63V104.163H1083.19V105.021ZM1090.73 101.537V102.59C1090.73 104.618 1091.6 106.646 1093.21 107.556L1092.56 108.336C1091.43 107.66 1090.63 106.412 1090.22 104.93C1089.82 106.529 1088.98 107.894 1087.82 108.622L1087.17 107.829C1088.79 106.854 1089.7 104.735 1089.7 102.59V101.537H1087.49V100.666H1092.81V101.537H1090.73ZM1093.85 103.487V99.561H1094.86V110.351H1093.85V104.358H1091.93V103.487H1093.85ZM1096.19 99.288H1097.22V110.949H1096.19V99.288ZM1100.53 102.759C1100.53 103.851 1101.36 104.618 1102.53 104.618C1103.69 104.618 1104.54 103.851 1104.54 102.759C1104.54 101.654 1103.69 100.9 1102.53 100.9C1101.36 100.9 1100.53 101.654 1100.53 102.759ZM1105.58 102.759C1105.58 104.384 1104.29 105.515 1102.53 105.515C1100.77 105.515 1099.49 104.384 1099.49 102.759C1099.49 101.121 1100.77 100.003 1102.53 100.003C1104.29 100.003 1105.58 101.121 1105.58 102.759ZM1100.74 107.647V106.776H1108.32V110.962H1107.25V107.647H1100.74ZM1110.01 101.966H1108.32V103.578H1110.01V104.449H1108.32V106.23H1107.25V99.314H1108.32V101.082H1110.01V101.966ZM1115.14 100.315V102.408C1115.14 104.462 1116.47 106.581 1118.11 107.4L1117.44 108.245C1116.21 107.582 1115.16 106.217 1114.62 104.618C1114.12 106.321 1113.04 107.777 1111.72 108.479L1111.09 107.621C1112.76 106.763 1114.09 104.527 1114.09 102.408V100.315H1115.14ZM1122.12 104.033V104.917H1120.2V110.962H1119.13V99.314H1120.2V104.033H1122.12ZM1130.1 100.614V101.472H1123.23V100.614H1126.13V99.197H1127.19V100.614H1130.1ZM1124.89 104.111C1124.89 104.878 1125.59 105.372 1126.66 105.372C1127.73 105.372 1128.44 104.878 1128.44 104.111C1128.44 103.357 1127.73 102.863 1126.66 102.863C1125.59 102.863 1124.89 103.357 1124.89 104.111ZM1129.45 104.111C1129.45 105.372 1128.32 106.178 1126.66 106.178C1125 106.178 1123.88 105.372 1123.88 104.111C1123.88 102.863 1125 102.057 1126.66 102.057C1128.32 102.057 1129.45 102.863 1129.45 104.111ZM1128.58 110.13C1130.29 110.13 1131.33 109.688 1131.33 108.934C1131.33 108.18 1130.29 107.738 1128.58 107.738C1126.88 107.738 1125.84 108.18 1125.84 108.934C1125.84 109.688 1126.88 110.13 1128.58 110.13ZM1128.58 106.919C1130.92 106.919 1132.38 107.647 1132.38 108.934C1132.38 110.208 1130.92 110.949 1128.58 110.949C1126.23 110.949 1124.79 110.208 1124.79 108.934C1124.79 107.647 1126.23 106.919 1128.58 106.919ZM1132.24 102.538H1133.95V103.422H1132.24V106.802H1131.17V99.301H1132.24V102.538ZM1063.58 125.374C1064.47 125.374 1065.12 124.633 1065.12 123.593C1065.12 122.579 1064.47 121.838 1063.58 121.838C1062.67 121.838 1062.03 122.579 1062.03 123.593C1062.03 124.633 1062.67 125.374 1063.58 125.374ZM1063.58 120.941C1065.02 120.941 1066.07 122.033 1066.07 123.593C1066.07 125.179 1065.02 126.258 1063.58 126.258C1062.13 126.258 1061.08 125.179 1061.08 123.593C1061.08 122.033 1062.13 120.941 1063.58 120.941ZM1064.1 117.639V119.29H1066.46V120.161H1060.68V119.29H1063.04V117.639H1064.1ZM1069.54 117.288H1070.57V128.949H1069.54V123.086H1068.05V128.39H1067.05V117.561H1068.05V122.215H1069.54V117.288ZM1081.18 119.823H1078.3C1077.57 121.656 1075.79 122.904 1073.22 123.515L1072.83 122.644C1075.68 121.981 1077.3 120.59 1077.5 118.744H1073.44V117.873H1078.65C1078.65 118.263 1078.61 118.627 1078.54 118.991H1081.18V117.301H1082.25V123.255H1081.18V122.046H1078.13V121.214H1081.18V119.823ZM1075.82 128H1082.64V128.845H1074.77V125.842H1081.19V124.646H1074.74V123.788H1082.25V126.648H1075.82V128ZM1096.89 117.301V123.359H1095.83V117.301H1096.89ZM1090.02 118.926V122.033C1090.64 122.02 1091.28 121.994 1091.91 121.955V118.926H1090.02ZM1094.66 121.734L1094.71 122.514C1092.39 122.865 1089.68 122.943 1087.62 122.956L1087.52 122.072C1087.97 122.072 1088.47 122.072 1088.98 122.059V118.926H1087.83V118.081H1094.08V118.926H1092.94V121.89C1093.53 121.851 1094.1 121.786 1094.66 121.734ZM1090.37 127.987H1097.33V128.832H1089.31V125.92H1095.84V124.75H1089.27V123.918H1096.89V126.713H1090.37V127.987ZM1102.92 123.84V126.583H1106.17V123.84C1105.68 123.957 1105.12 124.022 1104.54 124.022C1103.96 124.022 1103.4 123.957 1102.92 123.84ZM1104.54 118.874C1102.66 118.874 1101.32 119.732 1101.32 121.032C1101.32 122.332 1102.66 123.19 1104.54 123.19C1106.41 123.19 1107.76 122.332 1107.76 121.032C1107.76 119.732 1106.41 118.874 1104.54 118.874ZM1107.24 126.583H1109.85V127.467H1099.26V126.583H1101.86V123.437C1100.88 122.93 1100.3 122.085 1100.3 121.032C1100.3 119.212 1102.07 118.042 1104.54 118.042C1107.02 118.042 1108.77 119.212 1108.77 121.032C1108.77 122.085 1108.2 122.917 1107.24 123.424V126.583ZM1118.15 118.536V119.394H1111.27V118.536H1114.17V117.197H1115.23V118.536H1118.15ZM1112.93 122.059C1112.93 122.826 1113.63 123.333 1114.7 123.333C1115.77 123.333 1116.48 122.826 1116.48 122.059C1116.48 121.292 1115.77 120.785 1114.7 120.785C1113.63 120.785 1112.93 121.292 1112.93 122.059ZM1117.5 122.059C1117.5 123.32 1116.36 124.126 1114.7 124.126C1113.04 124.126 1111.92 123.32 1111.92 122.059C1111.92 120.785 1113.04 119.979 1114.7 119.979C1116.36 119.979 1117.5 120.785 1117.5 122.059ZM1114 125.829V127.948H1119.22V125.829H1114ZM1112.96 128.806V124.984H1120.28V128.806H1112.96ZM1122.01 120.408V121.292H1120.28V124.321H1119.21V117.314H1120.28V120.408H1122.01Z" fill="#FD5E2B"/>
<defs>
<filter id="filter0_d_110_2715" x="194.5" y="92" width="200" height="204" filterUnits="userSpaceOnUse" color-interpolation-filters="sRGB">
<feFlood flood-opacity="0" result="BackgroundImageFix"/>
<feColorMatrix in="SourceAlpha" type="matrix" values="0 0 0 0 0 0 0 0 0 0 0 0 0 0 0 0 0 0 127 0" result="hardAlpha"/>
<feOffset dy="4"/>
<feComposite in2="hardAlpha" operator="out"/>
<feColorMatrix type="matrix" values="0 0 0 0 0.638457 0 0 0 0 0.773286 0 0 0 0 0.881149 0 0 0 0.3 0"/>
<feBlend mode="normal" in2="BackgroundImageFix" result="effect1_dropShadow_110_2715"/>
<feBlend mode="normal" in="SourceGraphic" in2="effect1_dropShadow_110_2715" result="shape"/>
</filter>
<filter id="filter1_d_110_2715" x="414.5" y="92" width="200" height="204" filterUnits="userSpaceOnUse" color-interpolation-filters="sRGB">
<feFlood flood-opacity="0" result="BackgroundImageFix"/>
<feColorMatrix in="SourceAlpha" type="matrix" values="0 0 0 0 0 0 0 0 0 0 0 0 0 0 0 0 0 0 127 0" result="hardAlpha"/>
<feOffset dy="4"/>
<feComposite in2="hardAlpha" operator="out"/>
<feColorMatrix type="matrix" values="0 0 0 0 0.638457 0 0 0 0 0.773286 0 0 0 0 0.881149 0 0 0 0.3 0"/>
<feBlend mode="normal" in2="BackgroundImageFix" result="effect1_dropShadow_110_2715"/>
<feBlend mode="normal" in="SourceGraphic" in2="effect1_dropShadow_110_2715" result="shape"/>
</filter>
<filter id="filter2_d_110_2715" x="634.5" y="92" width="200" height="204" filterUnits="userSpaceOnUse" color-interpolation-filters="sRGB">
<feFlood flood-opacity="0" result="BackgroundImageFix"/>
<feColorMatrix in="SourceAlpha" type="matrix" values="0 0 0 0 0 0 0 0 0 0 0 0 0 0 0 0 0 0 127 0" result="hardAlpha"/>
<feOffset dy="4"/>
<feComposite in2="hardAlpha" operator="out"/>
<feColorMatrix type="matrix" values="0 0 0 0 0.638457 0 0 0 0 0.773286 0 0 0 0 0.881149 0 0 0 0.3 0"/>
<feBlend mode="normal" in2="BackgroundImageFix" result="effect1_dropShadow_110_2715"/>
<feBlend mode="normal" in="SourceGraphic" in2="effect1_dropShadow_110_2715" result="shape"/>
</filter>
<filter id="filter3_d_110_2715" x="854.5" y="92" width="200" height="204" filterUnits="userSpaceOnUse" color-interpolation-filters="sRGB">
<feFlood flood-opacity="0" result="BackgroundImageFix"/>
<feColorMatrix in="SourceAlpha" type="matrix" values="0 0 0 0 0 0 0 0 0 0 0 0 0 0 0 0 0 0 127 0" result="hardAlpha"/>
<feOffset dy="4"/>
<feComposite in2="hardAlpha" operator="out"/>
<feColorMatrix type="matrix" values="0 0 0 0 0.638457 0 0 0 0 0.773286 0 0 0 0 0.881149 0 0 0 0.3 0"/>
<feBlend mode="normal" in2="BackgroundImageFix" result="effect1_dropShadow_110_2715"/>
<feBlend mode="normal" in="SourceGraphic" in2="effect1_dropShadow_110_2715" result="shape"/>
</filter>
<filter id="filter4_d_110_2715" x="1033" y="98" width="16" height="16" filterUnits="userSpaceOnUse" color-interpolation-filters="sRGB">
<feFlood flood-opacity="0" result="BackgroundImageFix"/>
<feColorMatrix in="SourceAlpha" type="matrix" values="0 0 0 0 0 0 0 0 0 0 0 0 0 0 0 0 0 0 127 0" result="hardAlpha"/>
<feOffset/>
<feGaussianBlur stdDeviation="2"/>
<feComposite in2="hardAlpha" operator="out"/>
<feColorMatrix type="matrix" values="0 0 0 0 0.992157 0 0 0 0 0.368627 0 0 0 0 0.168627 0 0 0 0.25 0"/>
<feBlend mode="normal" in2="BackgroundImageFix" result="effect1_dropShadow_110_2715"/>
<feBlend mode="normal" in="SourceGraphic" in2="effect1_dropShadow_110_2715" result="shape"/>
</filter>
</defs>
</svg>
