<svg width="1249" height="385" viewBox="0 0 1249 385" fill="none" xmlns="http://www.w3.org/2000/svg">
<rect x="1" y="0.712402" width="1247" height="383" rx="15.5" fill="#A3D8FF" fill-opacity="0.1"/>
<rect x="1" y="0.712402" width="1247" height="383" rx="15.5" stroke="#A3D8FF" stroke-dasharray="8 8"/>
<g filter="url(#filter0_d_110_3172)">
<rect x="50.5" y="92.2124" width="200" height="200" rx="8" fill="white" shape-rendering="crispEdges"/>
<rect x="51" y="92.7124" width="199" height="199" rx="7.5" stroke="#A3D8FF" shape-rendering="crispEdges"/>
<path d="M142.996 155.34H161.893C162.098 155.34 162.273 155.267 162.42 155.12C162.581 154.974 162.662 154.798 162.662 154.593C162.662 154.388 162.581 154.212 162.42 154.065C162.273 153.919 162.098 153.846 161.893 153.846H142.996C142.776 153.846 142.593 153.919 142.447 154.065C142.315 154.212 142.249 154.388 142.249 154.593C142.249 154.798 142.315 154.974 142.447 155.12C142.593 155.267 142.776 155.34 142.996 155.34ZM142.996 161.097H156.158C156.363 161.097 156.539 161.023 156.685 160.877C156.832 160.716 156.905 160.533 156.905 160.328C156.905 160.123 156.832 159.947 156.685 159.8C156.539 159.654 156.363 159.581 156.158 159.581H142.996C142.776 159.581 142.593 159.654 142.447 159.8C142.315 159.947 142.249 160.123 142.249 160.328C142.249 160.533 142.315 160.716 142.447 160.877C142.593 161.023 142.776 161.097 142.996 161.097ZM138.272 189.617C136.456 189.617 135.057 189.141 134.075 188.189C133.094 187.237 132.603 185.896 132.603 184.168V149.1C132.603 147.151 133.101 145.679 134.097 144.683C135.093 143.672 136.565 143.167 138.514 143.167H162.2C164.134 143.167 165.599 143.672 166.595 144.683C167.591 145.679 168.089 147.151 168.089 149.1V174.808C168.089 175.789 167.935 176.624 167.627 177.312C167.32 177.986 166.954 178.572 166.529 179.07C165.547 180.154 164.961 181.26 164.771 182.388C164.595 183.531 164.756 184.6 165.254 185.596C165.752 186.592 166.536 187.413 167.605 188.057C167.752 188.13 167.869 188.233 167.957 188.365C168.045 188.511 168.089 188.658 168.089 188.804C168.089 189.053 168.016 189.251 167.869 189.397C167.737 189.544 167.554 189.617 167.32 189.617H138.272ZM138.36 187.991H165.298C164.141 186.995 163.445 185.779 163.211 184.344C162.977 182.923 163.284 181.487 164.134 180.037C163.519 180.228 162.837 180.323 162.09 180.323H138.382C137.093 180.323 136.075 180.66 135.328 181.333C134.595 182.007 134.229 182.93 134.229 184.102C134.229 185.333 134.588 186.285 135.306 186.958C136.038 187.647 137.056 187.991 138.36 187.991ZM137.459 177.862C137.649 177.862 137.811 177.796 137.942 177.664C138.089 177.518 138.162 177.349 138.162 177.159V146.529C138.162 146.338 138.089 146.177 137.942 146.045C137.811 145.914 137.649 145.848 137.459 145.848C137.269 145.848 137.1 145.914 136.954 146.045C136.822 146.177 136.756 146.338 136.756 146.529V177.159C136.756 177.349 136.822 177.518 136.954 177.664C137.1 177.796 137.269 177.862 137.459 177.862Z" fill="#3C6689"/>
<path d="M107.578 231.382C106.649 231.382 105.856 231.212 105.198 230.872C104.541 230.532 103.957 230.039 103.447 229.393L104.535 228.305C104.909 228.827 105.34 229.223 105.827 229.495C106.315 229.756 106.915 229.886 107.629 229.886C108.332 229.886 108.893 229.733 109.312 229.427C109.743 229.121 109.958 228.702 109.958 228.169C109.958 227.727 109.856 227.37 109.652 227.098C109.448 226.826 109.171 226.605 108.819 226.435C108.479 226.254 108.105 226.095 107.697 225.959C107.289 225.812 106.881 225.659 106.473 225.5C106.065 225.33 105.691 225.126 105.351 224.888C105.011 224.639 104.734 224.316 104.518 223.919C104.314 223.523 104.212 223.024 104.212 222.423C104.212 221.755 104.371 221.188 104.688 220.723C105.017 220.247 105.459 219.885 106.014 219.635C106.581 219.375 107.216 219.244 107.918 219.244C108.689 219.244 109.38 219.397 109.992 219.703C110.604 219.998 111.103 220.389 111.488 220.876L110.4 221.964C110.049 221.556 109.669 221.25 109.261 221.046C108.865 220.842 108.406 220.74 107.884 220.74C107.25 220.74 106.745 220.882 106.371 221.165C105.997 221.437 105.81 221.823 105.81 222.321C105.81 222.718 105.912 223.041 106.116 223.29C106.332 223.528 106.609 223.732 106.949 223.902C107.289 224.072 107.663 224.231 108.071 224.378C108.491 224.514 108.904 224.667 109.312 224.837C109.72 225.007 110.094 225.223 110.434 225.483C110.774 225.744 111.046 226.084 111.25 226.503C111.466 226.911 111.573 227.427 111.573 228.05C111.573 229.093 111.211 229.909 110.485 230.498C109.771 231.088 108.802 231.382 107.578 231.382ZM119.132 231.382C118.282 231.382 117.494 231.229 116.769 230.923C116.043 230.606 115.409 230.17 114.865 229.614C114.332 229.059 113.918 228.413 113.624 227.676C113.329 226.94 113.182 226.152 113.182 225.313C113.182 224.463 113.329 223.67 113.624 222.933C113.918 222.197 114.332 221.556 114.865 221.012C115.409 220.457 116.038 220.026 116.752 219.72C117.477 219.403 118.265 219.244 119.115 219.244C120.044 219.244 120.86 219.403 121.563 219.72C122.265 220.038 122.889 220.468 123.433 221.012L122.328 222.117C121.954 221.698 121.495 221.369 120.951 221.131C120.418 220.893 119.806 220.774 119.115 220.774C118.491 220.774 117.919 220.888 117.398 221.114C116.876 221.33 116.423 221.641 116.038 222.049C115.652 222.457 115.352 222.939 115.137 223.494C114.933 224.05 114.831 224.656 114.831 225.313C114.831 225.971 114.933 226.577 115.137 227.132C115.352 227.688 115.652 228.169 116.038 228.577C116.423 228.985 116.876 229.303 117.398 229.529C117.919 229.745 118.491 229.852 119.115 229.852C119.851 229.852 120.492 229.733 121.036 229.495C121.58 229.246 122.039 228.912 122.413 228.492L123.518 229.58C122.974 230.147 122.333 230.589 121.597 230.906C120.871 231.224 120.05 231.382 119.132 231.382ZM125.481 231.212V219.414H127.079V231.212H125.481ZM140.03 231.144V229.053H132.533V231.144H140.03ZM140.03 227.965V225.959H141.407V232.266H131.156V225.959H132.533V227.965H140.03ZM141.016 223.443H143.209V224.582H129.354V223.443H139.622C140.047 221.573 140.047 220.213 140.047 219.057H131.122V217.918H141.424V219.023C141.424 220.196 141.424 221.556 141.016 223.443ZM151.691 227.574V230.991H160.888V232.13H150.297V227.574H151.691ZM156.145 225.194H162.35V226.333H148.563V225.194H154.768V223.001H150.416V217.799H151.793V221.879H160.769V223.001H156.145V225.194ZM174.826 222.168V219.057H167.312V222.168H174.826ZM176.203 217.935V223.29H165.952V217.935H176.203ZM167.312 227.778V230.991H176.458V232.13H165.918V227.778H167.312ZM164.15 225.024H178.005V226.146H171.885V229.223H170.491V226.146H164.15V225.024ZM186.096 224.531V219.703H181.812V224.531H186.096ZM187.456 218.581V225.636H180.452V218.581H187.456ZM183.563 227.336V230.991H192.335V232.13H182.169V227.336H183.563ZM191.655 221.862H193.899V223.035H191.655V228.373H190.261V217.204H191.655V221.862ZM94.3542 240.836V241.958H85.3612V240.836H89.1522V239.136H90.5462V240.836H94.3542ZM87.5372 245.494C87.5372 246.514 88.4552 247.177 89.8492 247.177C91.2432 247.177 92.1782 246.514 92.1782 245.494C92.1782 244.491 91.2432 243.828 89.8492 243.828C88.4552 243.828 87.5372 244.491 87.5372 245.494ZM93.5042 245.494C93.5042 247.177 92.0252 248.248 89.8492 248.248C87.6902 248.248 86.2112 247.177 86.2112 245.494C86.2112 243.828 87.6902 242.74 89.8492 242.74C92.0252 242.74 93.5042 243.828 93.5042 245.494ZM87.2482 250.73V249.591H97.1422V254.487H95.7482V250.73H87.2482ZM99.4032 243.437V244.593H97.1422V248.758H95.7482V239.238H97.1422V243.437H99.4032ZM113.954 243.981L113.444 245.103C111.081 244.729 108.82 243.539 107.851 241.839C106.899 243.539 104.621 244.729 102.241 245.103L101.731 243.981C104.468 243.641 107.137 242.009 107.137 240.071V239.391H108.565V240.071C108.565 241.958 111.251 243.641 113.954 243.981ZM111.557 253.144V251.206H104.06V253.144H111.557ZM111.557 250.135V248.35H112.934V254.266H102.683V248.35H104.06V250.135H111.557ZM100.932 246.174H114.736V247.296H100.932V246.174ZM122.062 242.213V249.642C124.221 249.625 125.581 249.557 127.179 249.217L127.315 250.356C125.581 250.73 124.102 250.798 121.671 250.798H120.685V241.091H126.414V242.213H122.062ZM128.675 245.035V239.595H129.984V253.705H128.675V246.191H125.394V245.035H128.675ZM131.735 239.221H133.061V254.47H131.735V239.221ZM146.846 239.221H148.24V254.504H146.846V239.221ZM140.199 240.394C142.46 240.394 144.075 242.468 144.075 245.715C144.075 248.962 142.46 251.036 140.199 251.036C137.938 251.036 136.323 248.962 136.323 245.715C136.323 242.468 137.938 240.394 140.199 240.394ZM140.199 241.652C138.703 241.652 137.649 243.25 137.649 245.715C137.649 248.197 138.703 249.795 140.199 249.795C141.678 249.795 142.732 248.197 142.732 245.715C142.732 243.25 141.678 241.652 140.199 241.652ZM153.492 246.021V249.676C156.246 249.676 158.014 249.574 160.088 249.2L160.241 250.339C158.031 250.73 156.178 250.815 153.271 250.815H152.098V240.598H159.153V241.754H153.492V244.899H158.49V246.021H153.492ZM162.57 239.204H163.964V254.487H162.57V246.123H159.425V244.967H162.57V239.204ZM174.639 251.444H180.878V252.583H167.023V251.444H173.228V248.571H168.757V243.862H177.801V241.482H168.723V240.343H179.161V244.984H170.134V247.449H179.518V248.571H174.639V251.444ZM195.275 240.377V241.38H186.52V240.377H190.209V239.068H191.603V240.377H195.275ZM188.662 243.862C188.662 244.542 189.529 244.967 190.906 244.967C192.266 244.967 193.133 244.542 193.133 243.862C193.133 243.182 192.266 242.774 190.906 242.774C189.529 242.774 188.662 243.182 188.662 243.862ZM195.734 246.395L195.819 247.279C192.572 247.857 188.968 247.874 186.299 247.874L186.146 246.837C187.336 246.837 188.747 246.837 190.209 246.786V245.851C188.441 245.715 187.336 245.001 187.336 243.862C187.336 242.604 188.73 241.856 190.906 241.856C193.048 241.856 194.459 242.604 194.459 243.862C194.459 244.984 193.354 245.698 191.603 245.851V246.752C192.997 246.684 194.425 246.565 195.734 246.395ZM189.563 252.005V253.297H198.607V254.3H188.203V251.07H196.652V249.88H188.152V248.894H198.029V252.005H189.563ZM198.029 243.114H200.273V244.287H198.029V248.231H196.635V239.221H198.029V243.114ZM208.738 253.382C211.118 253.382 212.546 252.787 212.546 251.75C212.546 250.713 211.118 250.118 208.738 250.118C206.341 250.118 204.93 250.713 204.93 251.75C204.93 252.787 206.341 253.382 208.738 253.382ZM208.738 249.03C212.019 249.03 213.957 249.999 213.957 251.75C213.957 253.501 212.019 254.453 208.738 254.453C205.474 254.453 203.519 253.501 203.519 251.75C203.519 249.999 205.474 249.03 208.738 249.03ZM206.63 244.984V246.769H210.863V244.984C210.234 245.086 209.52 245.154 208.738 245.154C207.973 245.154 207.259 245.086 206.63 244.984ZM204.811 242.332C204.811 243.42 206.307 244.083 208.738 244.083C211.169 244.083 212.665 243.42 212.665 242.332C212.665 241.227 211.169 240.581 208.738 240.581C206.307 240.581 204.811 241.227 204.811 242.332ZM212.24 246.769H215.64V247.891H201.836V246.769H205.253V244.627C204.046 244.134 203.383 243.369 203.383 242.332C203.383 240.547 205.44 239.493 208.738 239.493C212.053 239.493 214.093 240.547 214.093 242.332C214.093 243.352 213.413 244.134 212.24 244.61V246.769Z" fill="#3C6689"/>
</g>
<g filter="url(#filter1_d_110_3172)">
<rect x="270.5" y="92.2124" width="200" height="200" rx="8" fill="white" shape-rendering="crispEdges"/>
<rect x="271" y="92.7124" width="199" height="199" rx="7.5" stroke="#A3D8FF" shape-rendering="crispEdges"/>
<path d="M358.722 189.291C357.289 189.291 356.134 188.827 355.255 187.899C354.392 186.987 353.961 185.775 353.961 184.261V165.975C353.961 164.461 354.392 163.249 355.255 162.337C356.134 161.41 357.289 160.946 358.722 160.946H382.086C383.518 160.946 384.674 161.41 385.553 162.337C386.432 163.249 386.871 164.461 386.871 165.975V184.261C386.871 185.775 386.432 186.987 385.553 187.899C384.674 188.827 383.518 189.291 382.086 189.291H358.722ZM358.453 161.776V155.453C358.453 152.848 358.966 150.586 359.991 148.666C361.033 146.729 362.449 145.231 364.239 144.173C366.046 143.115 368.097 142.586 370.392 142.586C372.719 142.586 374.778 143.115 376.568 144.173C378.375 145.231 379.791 146.729 380.816 148.666C381.842 150.586 382.354 152.848 382.354 155.453V161.776H380.548V155.404C380.548 153.19 380.108 151.253 379.229 149.593C378.367 147.933 377.179 146.647 375.665 145.736C374.151 144.808 372.394 144.344 370.392 144.344C368.406 144.344 366.656 144.808 365.143 145.736C363.629 146.647 362.441 147.933 361.578 149.593C360.715 151.253 360.284 153.19 360.284 155.404V161.776H358.453Z" fill="#3C6689"/>
<path d="M320.015 218.547V221.284C320.015 223.97 321.749 226.741 323.891 227.812L323.024 228.917C321.409 228.05 320.032 226.265 319.335 224.174C318.672 226.401 317.261 228.305 315.544 229.223L314.711 228.101C316.904 226.979 318.638 224.055 318.638 221.284V218.547H320.015ZM329.144 223.409V224.565H326.628V232.47H325.234V217.238H326.628V223.409H329.144ZM337.421 231.382C339.801 231.382 341.229 230.787 341.229 229.75C341.229 228.713 339.801 228.118 337.421 228.118C335.024 228.118 333.613 228.713 333.613 229.75C333.613 230.787 335.024 231.382 337.421 231.382ZM337.421 227.03C340.702 227.03 342.64 227.999 342.64 229.75C342.64 231.501 340.702 232.453 337.421 232.453C334.157 232.453 332.202 231.501 332.202 229.75C332.202 227.999 334.157 227.03 337.421 227.03ZM335.313 222.984V224.769H339.546V222.984C338.917 223.086 338.203 223.154 337.421 223.154C336.656 223.154 335.942 223.086 335.313 222.984ZM333.494 220.332C333.494 221.42 334.99 222.083 337.421 222.083C339.852 222.083 341.348 221.42 341.348 220.332C341.348 219.227 339.852 218.581 337.421 218.581C334.99 218.581 333.494 219.227 333.494 220.332ZM340.923 224.769H344.323V225.891H330.519V224.769H333.936V222.627C332.729 222.134 332.066 221.369 332.066 220.332C332.066 218.547 334.123 217.493 337.421 217.493C340.736 217.493 342.776 218.547 342.776 220.332C342.776 221.352 342.096 222.134 340.923 222.61V224.769ZM351.309 219.941V221.879C351.309 224.31 353.043 227.013 355.253 228.05L354.454 229.172C352.754 228.322 351.326 226.537 350.629 224.497C349.932 226.724 348.453 228.662 346.736 229.546L345.92 228.441C348.096 227.353 349.932 224.463 349.932 221.879V219.941H346.447V218.785H354.692V219.941H351.309ZM360.421 223.375V224.548H357.905V232.47H356.511V217.238H357.905V223.375H360.421ZM366.761 218.343C369.141 218.343 370.841 219.788 370.841 221.93C370.841 224.055 369.141 225.517 366.761 225.517C364.398 225.517 362.681 224.055 362.681 221.93C362.681 219.788 364.398 218.343 366.761 218.343ZM366.761 219.533C365.197 219.533 364.041 220.502 364.041 221.93C364.041 223.341 365.197 224.327 366.761 224.327C368.342 224.327 369.481 223.341 369.481 221.93C369.481 220.502 368.342 219.533 366.761 219.533ZM372.847 217.221H374.241V232.504H372.847V217.221ZM362.086 229.155L361.916 227.982C364.687 227.982 368.512 227.965 371.844 227.455L371.963 228.492C368.529 229.121 364.84 229.155 362.086 229.155ZM393.483 217.238V225.143H392.089V217.238H393.483ZM390.321 223.749L389.675 224.837C387.89 224.293 386.479 223.086 385.782 221.522C385.136 223.205 383.708 224.531 381.855 225.16L381.192 224.055C383.487 223.324 385.051 221.454 385.051 219.38V219.21H381.566V218.088H389.93V219.21H386.479V219.38C386.479 221.335 388.06 223.086 390.321 223.749ZM385.034 231.195H394.01V232.3H383.657V228.492H392.123V226.962H383.623V225.874H393.5V229.529H385.034V231.195ZM407.269 222.168V219.057H399.755V222.168H407.269ZM408.646 217.935V223.29H398.395V217.935H408.646ZM399.755 227.778V230.991H408.901V232.13H398.361V227.778H399.755ZM396.593 225.024H410.448V226.146H404.328V229.223H402.934V226.146H396.593V225.024ZM419.151 218.53C416.652 218.53 415.224 219.108 415.224 220.128C415.224 221.148 416.652 221.726 419.151 221.726C421.65 221.726 423.078 221.148 423.078 220.128C423.078 219.108 421.65 218.53 419.151 218.53ZM419.151 222.763C415.802 222.763 413.796 221.845 413.796 220.128C413.796 218.411 415.802 217.476 419.151 217.476C422.5 217.476 424.506 218.411 424.506 220.128C424.506 221.845 422.5 222.763 419.151 222.763ZM415.326 229.665V231.212H424.744V232.3H413.966V228.645H422.908V227.285H413.915V226.231H424.285V229.665H415.326ZM412.249 223.8H426.053V224.922H412.249V223.8ZM291.61 242.213V249.642C293.769 249.625 295.129 249.557 296.727 249.217L296.863 250.356C295.129 250.73 293.65 250.798 291.219 250.798H290.233V241.091H295.962V242.213H291.61ZM298.223 245.035V239.595H299.532V253.705H298.223V246.191H294.942V245.035H298.223ZM301.283 239.221H302.609V254.47H301.283V239.221ZM316.394 239.221H317.788V254.504H316.394V239.221ZM309.747 240.394C312.008 240.394 313.623 242.468 313.623 245.715C313.623 248.962 312.008 251.036 309.747 251.036C307.486 251.036 305.871 248.962 305.871 245.715C305.871 242.468 307.486 240.394 309.747 240.394ZM309.747 241.652C308.251 241.652 307.197 243.25 307.197 245.715C307.197 248.197 308.251 249.795 309.747 249.795C311.226 249.795 312.28 248.197 312.28 245.715C312.28 243.25 311.226 241.652 309.747 241.652ZM323.04 246.021V249.676C325.794 249.676 327.562 249.574 329.636 249.2L329.789 250.339C327.579 250.73 325.726 250.815 322.819 250.815H321.646V240.598H328.701V241.754H323.04V244.899H328.038V246.021H323.04ZM332.118 239.204H333.512V254.487H332.118V246.123H328.973V244.967H332.118V239.204ZM344.187 251.444H350.426V252.583H336.571V251.444H342.776V248.571H338.305V243.862H347.349V241.482H338.271V240.343H348.709V244.984H339.682V247.449H349.066V248.571H344.187V251.444ZM360.879 240.547V243.284C360.879 245.97 362.613 248.741 364.755 249.812L363.888 250.917C362.273 250.05 360.896 248.265 360.199 246.174C359.536 248.401 358.125 250.305 356.408 251.223L355.575 250.101C357.768 248.979 359.502 246.055 359.502 243.284V240.547H360.879ZM370.008 245.409V246.565H367.492V254.47H366.098V239.238H367.492V245.409H370.008ZM378.286 253.382C380.666 253.382 382.094 252.787 382.094 251.75C382.094 250.713 380.666 250.118 378.286 250.118C375.889 250.118 374.478 250.713 374.478 251.75C374.478 252.787 375.889 253.382 378.286 253.382ZM378.286 249.03C381.567 249.03 383.505 249.999 383.505 251.75C383.505 253.501 381.567 254.453 378.286 254.453C375.022 254.453 373.067 253.501 373.067 251.75C373.067 249.999 375.022 249.03 378.286 249.03ZM376.178 244.984V246.769H380.411V244.984C379.782 245.086 379.068 245.154 378.286 245.154C377.521 245.154 376.807 245.086 376.178 244.984ZM374.359 242.332C374.359 243.42 375.855 244.083 378.286 244.083C380.717 244.083 382.213 243.42 382.213 242.332C382.213 241.227 380.717 240.581 378.286 240.581C375.855 240.581 374.359 241.227 374.359 242.332ZM381.788 246.769H385.188V247.891H371.384V246.769H374.801V244.627C373.594 244.134 372.931 243.369 372.931 242.332C372.931 240.547 374.988 239.493 378.286 239.493C381.601 239.493 383.641 240.547 383.641 242.332C383.641 243.352 382.961 244.134 381.788 244.61V246.769ZM391.511 249.914C392.905 249.914 393.908 248.928 393.908 247.568C393.908 246.191 392.905 245.205 391.511 245.205C390.134 245.205 389.131 246.191 389.131 247.568C389.131 248.928 390.134 249.914 391.511 249.914ZM391.511 244.049C393.687 244.049 395.234 245.511 395.234 247.568C395.234 249.642 393.687 251.07 391.511 251.07C389.369 251.07 387.822 249.642 387.822 247.568C387.822 245.511 389.369 244.049 391.511 244.049ZM392.191 239.408V241.669H395.948V242.791H386.955V241.669H390.797V239.408H392.191ZM401.286 245.494V246.667H398.787V254.47H397.393V239.238H398.787V245.494H401.286ZM408.118 241.941V243.879C408.118 246.463 409.954 249.098 412.198 250.05L411.416 251.172C409.648 250.356 408.152 248.605 407.421 246.514C406.724 248.741 405.228 250.662 403.494 251.546L402.678 250.424C404.871 249.387 406.724 246.514 406.724 243.879V241.941H403.188V240.785H411.705V241.941H408.118ZM413.762 239.238H415.156V254.47H413.762V239.238ZM423.502 243.607C423.502 245.001 424.607 245.987 426.086 245.987C427.548 245.987 428.653 245.001 428.653 243.607C428.653 242.213 427.548 241.227 426.086 241.227C424.607 241.227 423.502 242.213 423.502 243.607ZM430.013 243.607C430.013 245.681 428.347 247.126 426.086 247.126C423.808 247.126 422.142 245.681 422.142 243.607C422.142 241.533 423.808 240.088 426.086 240.088C428.347 240.088 430.013 241.533 430.013 243.607ZM424.811 248.469V252.923C425.695 252.889 426.817 252.753 427.871 252.413L428.092 253.518C426.647 253.994 425.219 254.079 424.182 254.079H423.451V248.469H424.811ZM431.373 253.467C432.291 253.467 432.954 252.991 432.954 252.294C432.954 251.597 432.291 251.138 431.373 251.138C430.438 251.138 429.792 251.597 429.792 252.294C429.792 252.991 430.438 253.467 431.373 253.467ZM431.373 250.152C433.022 250.152 434.195 250.985 434.195 252.294C434.195 253.62 433.022 254.453 431.373 254.453C429.724 254.453 428.551 253.62 428.551 252.294C428.551 250.985 429.724 250.152 431.373 250.152ZM432.053 247.194V248.571H435.198V249.608H427.531V248.571H430.693V247.194H432.053ZM433.685 242.638H435.946V243.794H433.685V246.82H432.291V239.221H433.685V242.638ZM444.377 239.561C447.675 239.561 449.732 240.632 449.732 242.451C449.732 244.253 447.675 245.324 444.377 245.324C441.079 245.324 439.022 244.253 439.022 242.451C439.022 240.632 441.079 239.561 444.377 239.561ZM444.377 240.666C441.963 240.666 440.45 241.329 440.45 242.451C440.45 243.573 441.963 244.236 444.377 244.236C446.791 244.236 448.304 243.573 448.304 242.451C448.304 241.329 446.791 240.666 444.377 240.666ZM439.192 249.251H449.596V254.266H439.192V249.251ZM448.236 250.356H440.552V253.144H448.236V250.356ZM437.492 246.633H451.279V247.755H437.492V246.633Z" fill="#3C6689"/>
</g>
<g filter="url(#filter2_d_110_3172)">
<rect x="490.5" y="92.2124" width="200" height="200" rx="8" fill="white" shape-rendering="crispEdges"/>
<rect x="491" y="92.7124" width="199" height="199" rx="7.5" stroke="#A3D8FF" shape-rendering="crispEdges"/>
<path d="M573.833 164.169C573.833 168.103 574.947 171.675 577.174 174.886C579.401 178.097 582.349 180.41 586.02 181.824C586.393 181.968 586.666 182.195 586.839 182.506C587.012 182.817 587.016 183.113 586.851 183.394C586.655 183.716 586.374 183.928 586.008 184.03C585.642 184.133 585.283 184.117 584.931 183.982C580.833 182.384 577.553 179.778 575.091 176.162C572.63 172.547 571.4 168.534 571.4 164.123C571.4 162.874 571.508 161.638 571.723 160.413C571.939 159.189 572.274 157.987 572.727 156.809L568.553 159.215C568.271 159.389 567.973 159.433 567.658 159.346C567.342 159.258 567.102 159.074 566.937 158.792C566.771 158.511 566.732 158.21 566.82 157.89C566.907 157.57 567.091 157.328 567.373 157.162L573.999 153.351C574.464 153.094 574.956 153.032 575.475 153.165C575.994 153.298 576.382 153.598 576.639 154.063L580.45 160.629C580.615 160.911 580.654 161.211 580.567 161.531C580.48 161.851 580.295 162.094 580.014 162.259C579.732 162.424 579.431 162.463 579.111 162.376C578.792 162.289 578.549 162.104 578.384 161.823L575.39 156.694C574.86 157.869 574.469 159.088 574.214 160.349C573.96 161.61 573.833 162.883 573.833 164.169ZM592.843 145.1C590.691 145.1 588.612 145.462 586.607 146.186C584.602 146.91 582.761 147.945 581.084 149.292C580.793 149.519 580.472 149.621 580.122 149.598C579.771 149.575 579.513 149.422 579.348 149.141C579.143 148.81 579.094 148.462 579.201 148.096C579.308 147.73 579.512 147.43 579.812 147.194C581.694 145.731 583.735 144.618 585.935 143.856C588.134 143.094 590.421 142.712 592.797 142.712C595.91 142.712 598.855 143.338 601.633 144.588C604.411 145.839 606.827 147.639 608.881 149.99V145.008C608.881 144.668 608.995 144.385 609.223 144.157C609.451 143.928 609.735 143.814 610.075 143.814C610.415 143.814 610.699 143.928 610.927 144.157C611.155 144.385 611.269 144.668 611.269 145.008V152.63C611.269 153.184 611.086 153.644 610.72 154.01C610.354 154.376 609.895 154.559 609.34 154.559H601.718C601.379 154.559 601.095 154.445 600.867 154.217C600.639 153.989 600.525 153.705 600.525 153.365C600.525 153.025 600.639 152.741 600.867 152.513C601.095 152.285 601.379 152.171 601.718 152.171H607.628C605.828 149.903 603.635 148.157 601.048 146.934C598.461 145.712 595.726 145.1 592.843 145.1ZM607.104 176.75C609.045 174.54 610.39 172.044 611.14 169.261C611.89 166.479 611.99 163.658 611.439 160.799C611.378 160.429 611.446 160.092 611.643 159.789C611.841 159.486 612.109 159.334 612.449 159.334C612.85 159.334 613.18 159.486 613.439 159.789C613.697 160.092 613.857 160.444 613.918 160.845C614.439 163.86 614.299 166.839 613.498 169.782C612.698 172.726 611.307 175.385 609.327 177.76C607.744 179.677 605.888 181.264 603.759 182.522C601.63 183.78 599.343 184.645 596.897 185.116L601.03 187.495C601.311 187.66 601.493 187.903 601.576 188.222C601.659 188.542 601.617 188.843 601.452 189.125C601.287 189.406 601.046 189.588 600.731 189.671C600.416 189.754 600.117 189.712 599.836 189.547L593.242 185.69C592.777 185.433 592.478 185.045 592.345 184.526C592.211 184.007 592.273 183.515 592.53 183.05L596.342 176.516C596.507 176.234 596.747 176.052 597.062 175.97C597.378 175.887 597.676 175.928 597.958 176.094C598.239 176.259 598.424 176.501 598.511 176.821C598.598 177.141 598.559 177.442 598.394 177.724L595.267 183.045C597.566 182.727 599.736 182.036 601.776 180.972C603.816 179.908 605.592 178.501 607.104 176.75Z" fill="#3C6689"/>
<path d="M553.664 224.633L553.137 223.528C555.789 223.137 558.424 221.386 558.424 219.38V219.295H553.613V218.173H564.748V219.295H559.971V219.38C559.971 221.386 562.606 223.137 565.292 223.528L564.748 224.633C562.385 224.225 560.124 222.95 559.206 221.148C558.271 222.95 556.027 224.225 553.664 224.633ZM566.091 225.908L566.108 227.047H559.869V232.47H558.475V227.047H552.321V225.908H566.091ZM568.844 218.87H575.984C575.984 223.273 573.961 227.149 568.895 229.631L568.147 228.492C572.244 226.537 574.284 223.613 574.573 219.992H568.844V218.87ZM579.061 217.221H580.455V232.47H579.061V217.221ZM592.575 224.667L591.878 225.755C590.178 225.143 588.869 223.885 588.189 222.304C587.543 224.055 586.149 225.449 584.364 226.112L583.633 225.007C585.894 224.208 587.475 222.168 587.475 220.009V219.397H584.075V218.258H592.218V219.397H588.869V220.009C588.869 221.964 590.365 223.885 592.575 224.667ZM585.945 228.305V227.183H596.145V232.487H594.734V228.305H585.945ZM594.734 217.221H596.145V226.35H594.734V222.338H591.759V221.199H594.734V217.221ZM606.105 218.173C609.267 218.173 611.647 219.856 611.647 222.389C611.647 224.939 609.267 226.605 606.105 226.605C602.943 226.605 600.563 224.939 600.563 222.389C600.563 219.856 602.943 218.173 606.105 218.173ZM606.105 219.312C603.708 219.312 601.889 220.553 601.889 222.389C601.889 224.242 603.708 225.466 606.105 225.466C608.519 225.466 610.321 224.242 610.321 222.389C610.321 220.553 608.519 219.312 606.105 219.312ZM599.203 229.291H613.058V230.447H599.203V229.291ZM622.458 229.444H628.697V230.583H614.842V229.444H621.047V226.571H616.576V221.862H625.62V219.482H616.542V218.343H626.98V222.984H617.953V225.449H627.337V226.571H622.458V229.444ZM545.862 249.574V252.991H555.059V254.13H544.468V249.574H545.862ZM550.316 247.194H556.521V248.333H542.734V247.194H548.939V245.001H544.587V239.799H545.964V243.879H554.94V245.001H550.316V247.194ZM568.998 244.168V241.057H561.484V244.168H568.998ZM570.375 239.935V245.29H560.124V239.935H570.375ZM561.484 249.778V252.991H570.63V254.13H560.09V249.778H561.484ZM558.322 247.024H572.177V248.146H566.057V251.223H564.663V248.146H558.322V247.024ZM588.699 253.144V251.172H581.712V253.144H588.699ZM588.699 250.084V248.146H590.093V254.266H580.335V248.146H581.712V250.084H588.699ZM581.695 245.834C583.208 245.834 584.296 244.848 584.296 243.454C584.296 242.06 583.208 241.091 581.695 241.091C580.182 241.091 579.094 242.06 579.094 243.454C579.094 244.848 580.182 245.834 581.695 245.834ZM588.682 239.238H590.093V247.415H588.682V243.998H585.588C585.316 245.8 583.786 246.99 581.695 246.99C579.417 246.99 577.768 245.562 577.768 243.454C577.768 241.363 579.417 239.935 581.695 239.935C583.752 239.935 585.282 241.091 585.571 242.859H588.682V239.238ZM595.107 242.213V249.642C597.266 249.625 598.626 249.557 600.224 249.217L600.36 250.356C598.626 250.73 597.147 250.798 594.716 250.798H593.73V241.091H599.459V242.213H595.107ZM601.72 245.035V239.595H603.029V253.705H601.72V246.191H598.439V245.035H601.72ZM604.78 239.221H606.106V254.47H604.78V239.221ZM619.892 239.221H621.286V254.504H619.892V239.221ZM613.245 240.394C615.506 240.394 617.121 242.468 617.121 245.715C617.121 248.962 615.506 251.036 613.245 251.036C610.984 251.036 609.369 248.962 609.369 245.715C609.369 242.468 610.984 240.394 613.245 240.394ZM613.245 241.652C611.749 241.652 610.695 243.25 610.695 245.715C610.695 248.197 611.749 249.795 613.245 249.795C614.724 249.795 615.778 248.197 615.778 245.715C615.778 243.25 614.724 241.652 613.245 241.652ZM636.686 247.449V248.571H626.214V240.547H636.533V241.669H627.625V243.93H636.193V245.035H627.625V247.449H636.686ZM624.429 251.359H638.267V252.498H624.429V251.359Z" fill="#3C6689"/>
</g>
<g filter="url(#filter3_d_110_3172)">
<rect x="710.5" y="92.2124" width="200" height="200" rx="8" fill="white" shape-rendering="crispEdges"/>
<rect x="711" y="92.7124" width="199" height="199" rx="7.5" stroke="#A3D8FF" shape-rendering="crispEdges"/>
<path d="M790.745 186.124C789.808 186.124 789.046 185.889 788.46 185.42C787.889 184.952 787.603 184.322 787.603 183.531C787.603 182.139 788.021 180.674 788.855 179.136C789.705 177.583 790.921 176.133 792.503 174.786C794.1 173.423 796.019 172.325 798.26 171.49C800.516 170.64 803.05 170.215 805.862 170.215C808.675 170.215 811.202 170.64 813.443 171.49C815.699 172.325 817.618 173.423 819.2 174.786C820.796 176.133 822.012 177.583 822.847 179.136C823.697 180.674 824.122 182.139 824.122 183.531C824.122 184.322 823.829 184.952 823.243 185.42C822.671 185.889 821.917 186.124 820.979 186.124H790.745ZM805.906 166.26C804.31 166.26 802.859 165.843 801.556 165.008C800.267 164.158 799.241 163.016 798.479 161.58C797.718 160.145 797.337 158.526 797.337 156.724C797.337 155.04 797.718 153.494 798.479 152.088C799.256 150.667 800.296 149.532 801.6 148.682C802.903 147.833 804.339 147.408 805.906 147.408C807.488 147.408 808.924 147.833 810.213 148.682C811.517 149.517 812.549 150.645 813.311 152.066C814.073 153.472 814.454 155.032 814.454 156.746C814.454 158.533 814.073 160.145 813.311 161.58C812.564 163.016 811.539 164.158 810.235 165.008C808.946 165.843 807.503 166.26 805.906 166.26ZM826.868 160.899C826.312 160.899 826.033 160.613 826.033 160.042C826.033 159.91 826.033 159.786 826.033 159.668C826.033 159.537 826.033 159.405 826.033 159.273C826.033 158.365 826.238 157.596 826.648 156.966C827.059 156.336 827.718 155.699 828.626 155.054C829.695 154.322 830.442 153.677 830.867 153.121C831.307 152.549 831.526 151.883 831.526 151.121C831.526 150.14 831.138 149.334 830.362 148.704C829.6 148.06 828.567 147.737 827.264 147.737C826.458 147.737 825.74 147.906 825.11 148.243C824.48 148.58 823.975 149.019 823.594 149.561C823.213 150.088 823.001 150.645 822.957 151.231L822.869 151.539C822.84 151.729 822.752 151.883 822.605 152C822.459 152.103 822.283 152.154 822.078 152.154C821.873 152.154 821.697 152.088 821.551 151.956C821.404 151.81 821.331 151.604 821.331 151.341C821.331 151.18 821.331 151.041 821.331 150.923C821.346 150.792 821.36 150.652 821.375 150.506C821.536 149.378 822.137 148.389 823.177 147.54C824.231 146.69 825.616 146.265 827.33 146.265C828.472 146.265 829.49 146.47 830.384 146.88C831.277 147.276 831.98 147.833 832.493 148.55C833.021 149.268 833.284 150.096 833.284 151.033C833.284 152.073 833.021 152.967 832.493 153.714C831.98 154.446 831.16 155.201 830.032 155.977C829.153 156.578 828.538 157.12 828.187 157.603C827.835 158.086 827.659 158.68 827.659 159.383C827.659 159.5 827.659 159.617 827.659 159.734C827.659 159.852 827.659 159.969 827.659 160.086C827.659 160.32 827.586 160.518 827.439 160.679C827.308 160.826 827.117 160.899 826.868 160.899ZM826.824 166.788C826.385 166.788 826.004 166.626 825.682 166.304C825.374 165.982 825.22 165.616 825.22 165.206C825.22 164.766 825.374 164.393 825.682 164.085C826.004 163.777 826.385 163.624 826.824 163.624C827.264 163.624 827.637 163.777 827.945 164.085C828.267 164.393 828.428 164.766 828.428 165.206C828.428 165.63 828.267 166.004 827.945 166.326C827.637 166.634 827.264 166.788 826.824 166.788Z" fill="#3C6689"/>
<path d="M784.34 224.769V225.908H778.118V232.487H776.707V225.908H770.553V224.769H780.668C781.144 222.576 781.144 220.961 781.144 219.533V219.329H772.27V218.207H782.504V219.533C782.504 220.961 782.504 222.576 782.079 224.769H784.34ZM790.612 221.182V221.913C790.612 224.344 791.836 226.86 793.893 227.965L793.094 229.019C791.615 228.186 790.527 226.639 789.966 224.803C789.439 226.741 788.368 228.441 786.872 229.342L786.056 228.305C788.113 227.081 789.286 224.412 789.286 221.913V221.182H786.464V220.026H789.286V217.765H790.629V220.026H793.434V221.182H790.612ZM794.726 223.239V217.578H796.052V231.671H794.726V224.395H792.397V223.239H794.726ZM797.786 217.221H799.129V232.453H797.786V217.221ZM810.807 224.667L810.11 225.755C808.41 225.143 807.101 223.885 806.421 222.304C805.775 224.055 804.381 225.449 802.596 226.112L801.865 225.007C804.126 224.208 805.707 222.168 805.707 220.009V219.397H802.307V218.258H810.45V219.397H807.101V220.009C807.101 221.964 808.597 223.885 810.807 224.667ZM804.177 228.305V227.183H814.377V232.487H812.966V228.305H804.177ZM812.966 217.221H814.377V226.35H812.966V222.338H809.991V221.199H812.966V217.221ZM828.536 217.221H829.93V232.504H828.536V217.221ZM821.889 218.394C824.15 218.394 825.765 220.468 825.765 223.715C825.765 226.962 824.15 229.036 821.889 229.036C819.628 229.036 818.013 226.962 818.013 223.715C818.013 220.468 819.628 218.394 821.889 218.394ZM821.889 219.652C820.393 219.652 819.339 221.25 819.339 223.715C819.339 226.197 820.393 227.795 821.889 227.795C823.368 227.795 824.422 226.197 824.422 223.715C824.422 221.25 823.368 219.652 821.889 219.652ZM843.852 220.264V219.89H834.553V218.751H845.246V220.264C845.246 222.151 845.246 224.242 844.668 227.319L843.274 227.166C843.852 224.242 843.852 222.1 843.852 220.264ZM839.857 229.189H846.895V230.328H833.108V229.189H838.463V223.732H839.857V229.189ZM748.099 244.695V242.723H740.687V244.695H748.099ZM749.476 239.697V245.8H739.31V239.697H740.687V241.652H748.099V239.697H749.476ZM740.602 249.982V252.991H749.765V254.13H739.225V249.982H740.602ZM737.457 247.279H751.312V248.401H745.192V251.359H743.798V248.401H737.457V247.279ZM762.038 246.48L761.29 247.585C759.624 246.939 758.315 245.664 757.652 244.066C757.006 245.851 755.663 247.211 753.878 247.925L753.147 246.803C755.459 245.97 756.921 243.913 756.921 241.601V239.986H758.315V241.652C758.315 243.743 759.828 245.698 762.038 246.48ZM755.476 250.203V249.081H765.693V254.487H764.282V250.203H755.476ZM764.282 239.238H765.693V248.231H764.282V243.556H760.967V242.417H764.282V239.238ZM777.761 246.667L777.064 247.755C775.364 247.143 774.055 245.885 773.375 244.304C772.729 246.055 771.335 247.449 769.55 248.112L768.819 247.007C771.08 246.208 772.661 244.168 772.661 242.009V241.397H769.261V240.258H777.404V241.397H774.055V242.009C774.055 243.964 775.551 245.885 777.761 246.667ZM771.131 250.305V249.183H781.331V254.487H779.92V250.305H771.131ZM779.92 239.221H781.331V248.35H779.92V244.338H776.945V243.199H779.92V239.221ZM796.919 239.238V250.373H795.525V239.238H796.919ZM786.124 244.032C786.124 245.545 787.246 246.599 788.725 246.599C790.238 246.599 791.36 245.545 791.36 244.032C791.36 242.553 790.238 241.499 788.725 241.499C787.246 241.499 786.124 242.553 786.124 244.032ZM792.72 244.032C792.72 246.242 791.003 247.806 788.725 247.806C786.464 247.806 784.764 246.242 784.764 244.032C784.764 241.839 786.464 240.292 788.725 240.292C791.003 240.292 792.72 241.839 792.72 244.032ZM788.504 252.991H797.378V254.13H787.11V249.234H788.504V252.991ZM805.435 246.191V249.557C807.169 249.557 808.818 249.489 810.773 249.149L810.892 250.288C808.767 250.645 807.033 250.73 805.095 250.73H804.092V245.086H808.172V242.043H804.041V240.904H809.515V246.191H805.435ZM812.116 244.695V239.595H813.425V253.671H812.116V245.851H810.229V244.695H812.116ZM815.193 239.221H816.536V254.47H815.193V239.221ZM824.201 241.805V246.803H827.992V241.805H824.201ZM826.802 251.427H833.041V252.566H819.22V251.427H825.391V247.925H820.478V246.803H822.807V241.805H820.444V240.683H831.749V241.805H829.386V246.803H831.715V247.925H826.802V251.427ZM847.099 247.449V248.571H836.627V240.547H846.946V241.669H838.038V243.93H846.606V245.035H838.038V247.449H847.099ZM834.842 251.359H848.68V252.498H834.842V251.359ZM865.186 245.851V244.015H862.619V242.893H865.186V239.221H866.597V249.064H865.186V246.99H862.602V245.851H865.186ZM862.602 240.904V242.026H854.068V240.904H857.706V239.085H859.1V240.904H862.602ZM856.244 245.63C856.244 246.701 857.111 247.398 858.386 247.398C859.661 247.398 860.528 246.701 860.528 245.63C860.528 244.576 859.661 243.879 858.386 243.879C857.111 243.879 856.244 244.576 856.244 245.63ZM861.837 245.63C861.837 247.347 860.409 248.469 858.386 248.469C856.346 248.469 854.935 247.347 854.935 245.63C854.935 243.93 856.346 242.808 858.386 242.808C860.409 242.808 861.837 243.93 861.837 245.63ZM861.599 253.382C863.843 253.382 865.22 252.821 865.22 251.852C865.22 250.866 863.843 250.322 861.599 250.322C859.355 250.322 857.961 250.866 857.961 251.852C857.961 252.821 859.355 253.382 861.599 253.382ZM861.599 249.251C864.744 249.251 866.665 250.186 866.665 251.852C866.665 253.501 864.744 254.453 861.599 254.453C858.437 254.453 856.516 253.501 856.516 251.852C856.516 250.186 858.437 249.251 861.599 249.251ZM880.824 248.248V243.607H877.509V242.468H880.824V239.238H882.235V248.248H880.824ZM878.614 246.446L877.866 247.534C876.2 246.905 874.908 245.698 874.245 244.117C873.599 245.919 872.222 247.296 870.386 247.993L869.655 246.854C872.001 246.021 873.514 243.981 873.514 241.652V240.088H874.908V241.601C874.908 243.777 876.387 245.664 878.614 246.446ZM877.203 253.348C879.498 253.348 880.892 252.685 880.892 251.58C880.892 250.458 879.498 249.795 877.203 249.795C874.908 249.795 873.514 250.458 873.514 251.58C873.514 252.685 874.908 253.348 877.203 253.348ZM877.203 248.707C880.331 248.707 882.286 249.744 882.286 251.58C882.286 253.399 880.331 254.453 877.203 254.453C874.075 254.453 872.12 253.399 872.12 251.58C872.12 249.744 874.075 248.707 877.203 248.707Z" fill="#3C6689"/>
</g>
<path d="M954.172 212.287C951.411 212.287 948.814 211.759 946.379 210.705C943.944 209.663 941.796 208.211 939.934 206.349C938.085 204.487 936.633 202.339 935.578 199.904C934.523 197.469 933.996 194.871 933.996 192.111C933.996 189.35 934.523 186.753 935.578 184.318C936.633 181.883 938.085 179.741 939.934 177.892C941.796 176.03 943.938 174.572 946.359 173.517C948.794 172.462 951.392 171.935 954.152 171.935C956.926 171.935 959.53 172.462 961.965 173.517C964.4 174.572 966.548 176.03 968.41 177.892C970.272 179.741 971.73 181.883 972.785 184.318C973.84 186.753 974.367 189.35 974.367 192.111C974.367 194.871 973.84 197.469 972.785 199.904C971.73 202.339 970.272 204.487 968.41 206.349C966.548 208.211 964.4 209.663 961.965 210.705C959.53 211.759 956.932 212.287 954.172 212.287ZM944.621 192.13C944.621 192.69 944.803 193.146 945.168 193.498C945.533 193.849 945.995 194.025 946.555 194.025H952.258V199.748C952.258 200.307 952.434 200.77 952.785 201.134C953.137 201.486 953.592 201.662 954.152 201.662C954.725 201.662 955.188 201.486 955.539 201.134C955.904 200.77 956.086 200.307 956.086 199.748V194.025H961.809C962.355 194.025 962.811 193.849 963.176 193.498C963.54 193.146 963.723 192.69 963.723 192.13C963.723 191.557 963.54 191.095 963.176 190.744C962.824 190.379 962.368 190.197 961.809 190.197H956.086V184.494C956.086 183.934 955.904 183.472 955.539 183.107C955.188 182.729 954.725 182.541 954.152 182.541C953.592 182.541 953.137 182.729 952.785 183.107C952.434 183.472 952.258 183.934 952.258 184.494V190.197H946.555C945.995 190.197 945.533 190.379 945.168 190.744C944.803 191.095 944.621 191.557 944.621 192.13Z" fill="#3588CD"/>
<g filter="url(#filter4_d_110_3172)">
<rect x="998.5" y="92.2124" width="200" height="200" rx="8" fill="white" shape-rendering="crispEdges"/>
<rect x="999" y="92.7124" width="199" height="199" rx="7.5" stroke="#A3D8FF" shape-rendering="crispEdges"/>
<path d="M1077.55 167.235L1096.52 134.342C1096.69 134.02 1096.93 133.778 1097.22 133.617C1097.51 133.456 1097.83 133.375 1098.19 133.375C1098.52 133.375 1098.84 133.456 1099.13 133.617C1099.42 133.778 1099.67 134.02 1099.86 134.342L1118.82 167.235C1119.36 168.202 1119.51 169.118 1119.26 169.982C1119.01 170.846 1118.38 171.498 1117.37 171.938L1100.93 179.188C1100.2 179.511 1099.55 179.723 1098.98 179.826C1098.42 179.943 1097.88 179.95 1097.35 179.848C1096.82 179.76 1096.22 179.562 1095.55 179.254L1078.98 171.938C1077.99 171.498 1077.36 170.846 1077.09 169.982C1076.84 169.118 1077 168.202 1077.55 167.235ZM1079.09 167.741C1078.74 168.341 1078.65 168.913 1078.83 169.455C1079.02 169.997 1079.43 170.407 1080.06 170.685L1095.99 177.782C1096.57 178.031 1097.09 178.2 1097.53 178.288C1097.98 178.375 1098.44 178.368 1098.91 178.266C1099.38 178.178 1099.94 177.98 1100.6 177.672L1116.29 170.685C1116.92 170.407 1117.33 169.997 1117.52 169.455C1117.71 168.913 1117.63 168.341 1117.28 167.741L1098.78 135.705C1098.63 135.441 1098.44 135.309 1098.19 135.309C1097.95 135.309 1097.75 135.441 1097.59 135.705L1079.09 167.741ZM1097.4 179.386V134.606H1098.98V179.386H1097.4Z" fill="#3C6689"/>
<path d="M1026.87 216.574V219.991H1036.06V221.13H1025.47V216.574H1026.87ZM1031.32 214.194H1037.53V215.333H1023.74V214.194H1029.94V212.001H1025.59V206.799H1026.97V210.879H1035.95V212.001H1031.32V214.194ZM1050 211.168V208.057H1042.49V211.168H1050ZM1051.38 206.935V212.29H1041.13V206.935H1051.38ZM1042.49 216.778V219.991H1051.64V221.13H1041.1V216.778H1042.49ZM1039.33 214.024H1053.18V215.146H1047.06V218.223H1045.67V215.146H1039.33V214.024ZM1059.81 212.443L1059.32 211.338C1061.99 211.032 1064.42 209.723 1064.54 208.04H1059.81V206.918H1071.08V208.04H1066.34C1066.46 209.723 1068.89 211.032 1071.56 211.338L1071.07 212.443C1068.57 212.137 1066.29 211.015 1065.44 209.332C1064.61 211.015 1062.31 212.137 1059.81 212.443ZM1069.23 218.767C1069.23 217.747 1067.8 217.169 1065.42 217.169C1063.02 217.169 1061.61 217.747 1061.61 218.767C1061.61 219.787 1063.02 220.382 1065.42 220.382C1067.8 220.382 1069.23 219.787 1069.23 218.767ZM1072.32 214.483H1066.14V216.115C1068.97 216.251 1070.64 217.186 1070.64 218.767C1070.64 220.501 1068.69 221.453 1065.44 221.453C1062.17 221.453 1060.2 220.501 1060.2 218.767C1060.2 217.186 1061.89 216.251 1064.72 216.115V214.483H1058.54V213.361H1072.32V214.483ZM1078.95 214.772V218.359H1083.2V214.772C1082.56 214.925 1081.82 215.01 1081.06 215.01C1080.31 215.01 1079.58 214.925 1078.95 214.772ZM1081.06 208.278C1078.61 208.278 1076.86 209.4 1076.86 211.1C1076.86 212.8 1078.61 213.922 1081.06 213.922C1083.51 213.922 1085.28 212.8 1085.28 211.1C1085.28 209.4 1083.51 208.278 1081.06 208.278ZM1084.6 218.359H1088.01V219.515H1074.16V218.359H1077.56V214.245C1076.28 213.582 1075.52 212.477 1075.52 211.1C1075.52 208.72 1077.83 207.19 1081.06 207.19C1084.31 207.19 1086.6 208.72 1086.6 211.1C1086.6 212.477 1085.85 213.565 1084.6 214.228V218.359ZM1097.41 218.393H1103.65V219.549H1089.8V218.393H1096V214.483H1091.56V207.445H1101.9V208.584H1092.96V213.361H1102.05V214.483H1097.41V218.393ZM1116.13 208.89V207.649H1107.19V206.663H1117.51V209.842H1108.6V211.151H1117.78V212.154H1107.22V208.89H1116.13ZM1108.51 218.852V220.263H1118.03V221.266H1107.14V217.883H1116.18V216.608H1107.1V215.605H1117.56V218.852H1108.51ZM1105.45 213.31H1119.27V214.364H1105.45V213.31ZM1135.39 209.264V208.89H1126.09V207.751H1136.78V209.264C1136.78 211.151 1136.78 213.242 1136.2 216.319L1134.81 216.166C1135.39 213.242 1135.39 211.1 1135.39 209.264ZM1131.39 218.189H1138.43V219.328H1124.64V218.189H1130V212.732H1131.39V218.189ZM1142.2 213.055V216.778C1144.45 216.778 1146.32 216.676 1148.6 216.319L1148.71 217.475C1146.32 217.849 1144.36 217.934 1141.98 217.934H1140.83V211.916H1146.08V208.72H1140.79V207.598H1147.46V213.055H1142.2ZM1151.42 206.204H1152.81V221.487H1151.42V215.01H1148.31V213.871H1151.42V210.828H1148.41V209.689H1151.42V206.204ZM1164.95 208.091V209.213H1155.96V208.091H1159.75V206.221H1161.14V208.091H1164.95ZM1158.13 212.885C1158.13 213.956 1159.07 214.636 1160.44 214.636C1161.82 214.636 1162.77 213.956 1162.77 212.885C1162.77 211.831 1161.82 211.151 1160.44 211.151C1159.07 211.151 1158.13 211.831 1158.13 212.885ZM1164.1 212.885C1164.1 214.602 1162.6 215.724 1160.44 215.724C1158.28 215.724 1156.81 214.602 1156.81 212.885C1156.81 211.185 1158.28 210.063 1160.44 210.063C1162.6 210.063 1164.1 211.185 1164.1 212.885ZM1159.64 216.761V219.991H1168.42V221.13H1158.25V216.761H1159.64ZM1167.74 211.253H1169.98V212.426H1167.74V217.662H1166.34V206.221H1167.74V211.253ZM1060.81 235.072V238.642C1063.31 238.642 1065.56 238.523 1068.23 238.098L1068.36 239.237C1065.61 239.696 1063.3 239.798 1060.68 239.798H1059.42V233.95H1065.03V230.771H1059.37V229.632H1066.44V235.072H1060.81ZM1069.65 228.204H1071.05V243.487H1069.65V228.204ZM1079.16 230.805V235.803H1082.95V230.805H1079.16ZM1081.76 240.427H1088V241.566H1074.17V240.427H1080.35V236.925H1075.43V235.803H1077.76V230.805H1075.4V229.683H1086.7V230.805H1084.34V235.803H1086.67V236.925H1081.76V240.427ZM1102.05 236.449V237.571H1091.58V229.547H1101.9V230.669H1092.99V232.93H1101.56V234.035H1092.99V236.449H1102.05ZM1089.8 240.359H1103.63V241.498H1089.8V240.359ZM1120.14 234.851V233.015H1117.57V231.893H1120.14V228.221H1121.55V238.064H1120.14V235.99H1117.56V234.851H1120.14ZM1117.56 229.904V231.026H1109.02V229.904H1112.66V228.085H1114.05V229.904H1117.56ZM1111.2 234.63C1111.2 235.701 1112.07 236.398 1113.34 236.398C1114.62 236.398 1115.48 235.701 1115.48 234.63C1115.48 233.576 1114.62 232.879 1113.34 232.879C1112.07 232.879 1111.2 233.576 1111.2 234.63ZM1116.79 234.63C1116.79 236.347 1115.36 237.469 1113.34 237.469C1111.3 237.469 1109.89 236.347 1109.89 234.63C1109.89 232.93 1111.3 231.808 1113.34 231.808C1115.36 231.808 1116.79 232.93 1116.79 234.63ZM1116.55 242.382C1118.8 242.382 1120.17 241.821 1120.17 240.852C1120.17 239.866 1118.8 239.322 1116.55 239.322C1114.31 239.322 1112.92 239.866 1112.92 240.852C1112.92 241.821 1114.31 242.382 1116.55 242.382ZM1116.55 238.251C1119.7 238.251 1121.62 239.186 1121.62 240.852C1121.62 242.501 1119.7 243.453 1116.55 243.453C1113.39 243.453 1111.47 242.501 1111.47 240.852C1111.47 239.186 1113.39 238.251 1116.55 238.251ZM1135.78 237.248V232.607H1132.46V231.468H1135.78V228.238H1137.19V237.248H1135.78ZM1133.57 235.446L1132.82 236.534C1131.16 235.905 1129.86 234.698 1129.2 233.117C1128.55 234.919 1127.18 236.296 1125.34 236.993L1124.61 235.854C1126.96 235.021 1128.47 232.981 1128.47 230.652V229.088H1129.86V230.601C1129.86 232.777 1131.34 234.664 1133.57 235.446ZM1132.16 242.348C1134.45 242.348 1135.85 241.685 1135.85 240.58C1135.85 239.458 1134.45 238.795 1132.16 238.795C1129.86 238.795 1128.47 239.458 1128.47 240.58C1128.47 241.685 1129.86 242.348 1132.16 242.348ZM1132.16 237.707C1135.29 237.707 1137.24 238.744 1137.24 240.58C1137.24 242.399 1135.29 243.453 1132.16 243.453C1129.03 243.453 1127.08 242.399 1127.08 240.58C1127.08 238.744 1129.03 237.707 1132.16 237.707ZM1031.03 266.184C1030.4 265.663 1029.87 265.017 1029.43 264.246C1028.99 263.487 1028.65 262.654 1028.41 261.747C1028.17 260.841 1028.05 259.9 1028.05 258.925C1028.05 257.951 1028.17 257.01 1028.41 256.103C1028.65 255.197 1028.99 254.364 1029.43 253.604C1029.87 252.834 1030.4 252.188 1031.03 251.666L1031.91 252.465C1031.11 253.168 1030.48 254.075 1030.04 255.185C1029.61 256.296 1029.4 257.543 1029.4 258.925C1029.4 260.297 1029.61 261.538 1030.04 262.648C1030.48 263.759 1031.11 264.671 1031.91 265.385L1031.03 266.184ZM1036.46 260.574V263.991H1045.66V265.13H1035.07V260.574H1036.46ZM1040.92 258.194H1047.12V259.333H1033.34V258.194H1039.54V256.001H1035.19V250.799H1036.57V254.879H1045.54V256.001H1040.92V258.194ZM1059.6 255.168V252.057H1052.09V255.168H1059.6ZM1060.98 250.935V256.29H1050.73V250.935H1060.98ZM1052.09 260.778V263.991H1061.23V265.13H1050.69V260.778H1052.09ZM1048.92 258.024H1062.78V259.146H1056.66V262.223H1055.26V259.146H1048.92V258.024ZM1077.62 255.423V259.095H1076.29V250.51H1077.62V254.284H1079.66V250.238H1081V259.639H1079.66V255.423H1077.62ZM1075.42 257.174L1075.56 258.296C1073.62 258.67 1072.02 258.738 1069.83 258.738H1068.83V254.437H1073.18V252.482H1068.79V251.377H1074.52V255.491H1070.17V257.616C1072.14 257.616 1073.64 257.531 1075.42 257.174ZM1075.97 264.365C1078.26 264.365 1079.69 263.753 1079.69 262.682C1079.69 261.628 1078.26 261.016 1075.97 261.016C1073.67 261.016 1072.26 261.628 1072.26 262.682C1072.26 263.753 1073.67 264.365 1075.97 264.365ZM1075.97 259.928C1079.11 259.928 1081.07 260.948 1081.07 262.682C1081.07 264.433 1079.11 265.453 1075.97 265.453C1072.82 265.453 1070.89 264.433 1070.89 262.682C1070.89 260.948 1072.82 259.928 1075.97 259.928ZM1096.28 250.221V259.401H1094.89V250.221H1096.28ZM1084.86 251.258H1091.81C1091.81 255.185 1089.62 258.024 1084.74 259.452L1084.21 258.347C1086.78 257.616 1088.46 256.494 1089.4 255.117L1084.33 255.491L1084.09 254.335L1089.96 254.08C1090.16 253.536 1090.3 252.975 1090.35 252.38H1084.86V251.258ZM1091.25 264.365C1093.55 264.365 1094.96 263.685 1094.96 262.529C1094.96 261.39 1093.55 260.71 1091.25 260.71C1088.94 260.71 1087.51 261.39 1087.51 262.529C1087.51 263.685 1088.94 264.365 1091.25 264.365ZM1091.25 259.622C1094.38 259.622 1096.35 260.693 1096.35 262.529C1096.35 264.382 1094.38 265.453 1091.25 265.453C1088.09 265.453 1086.12 264.382 1086.12 262.529C1086.12 260.693 1088.09 259.622 1091.25 259.622ZM1104.59 254.148C1104.59 255.491 1105.68 256.426 1107.16 256.426C1108.66 256.426 1109.75 255.491 1109.75 254.148C1109.75 252.839 1108.66 251.887 1107.16 251.887C1105.68 251.887 1104.59 252.839 1104.59 254.148ZM1111.11 254.148C1111.11 256.171 1109.46 257.565 1107.16 257.565C1104.88 257.565 1103.23 256.171 1103.23 254.148C1103.23 252.159 1104.88 250.765 1107.16 250.765C1109.46 250.765 1111.11 252.159 1111.11 254.148ZM1106.5 262.444V264.144H1115.34V265.266H1105.14V261.407H1113.4V259.809H1105.09V258.704H1114.78V262.444H1106.5ZM1114.78 253.502H1117.04V254.658H1114.78V257.99H1113.38V250.221H1114.78V253.502ZM1129.35 253.264V252.89H1120.05V251.751H1130.74V253.264C1130.74 255.151 1130.74 257.242 1130.16 260.319L1128.77 260.166C1129.35 257.242 1129.35 255.1 1129.35 253.264ZM1125.35 262.189H1132.39V263.328H1118.6V262.189H1123.96V256.732H1125.35V262.189ZM1136.5 257.072V260.642C1139 260.642 1141.24 260.523 1143.91 260.098L1144.05 261.237C1141.29 261.696 1138.98 261.798 1136.36 261.798H1135.11V255.95H1140.72V252.771H1135.06V251.632H1142.13V257.072H1136.5ZM1145.34 250.204H1146.73V265.487H1145.34V250.204ZM1151.14 256.443L1150.64 255.338C1153.35 255.049 1155.81 253.723 1155.86 252.006H1151.14V250.884H1162.41V252.006H1157.66C1157.72 253.723 1160.18 255.049 1162.88 255.338L1162.39 256.443C1159.89 256.137 1157.6 255.032 1156.76 253.366C1155.91 255.032 1153.64 256.137 1151.14 256.443ZM1152.92 261.237V264.144H1160.61V261.237H1152.92ZM1151.56 265.266V260.132H1161.97V265.266H1151.56ZM1149.86 257.361H1163.65V258.483H1149.86V257.361ZM1165.99 266.184L1165.11 265.385C1165.91 264.671 1166.53 263.759 1166.96 262.648C1167.39 261.538 1167.61 260.297 1167.61 258.925C1167.61 257.543 1167.39 256.296 1166.96 255.185C1166.53 254.075 1165.91 253.168 1165.11 252.465L1165.99 251.666C1166.62 252.188 1167.15 252.834 1167.59 253.604C1168.03 254.364 1168.37 255.197 1168.61 256.103C1168.85 257.01 1168.97 257.951 1168.97 258.925C1168.97 259.9 1168.85 260.841 1168.61 261.747C1168.37 262.654 1168.03 263.487 1167.59 264.246C1167.15 265.017 1166.62 265.663 1165.99 266.184Z" fill="#3C6689"/>
</g>
<defs>
<filter id="filter0_d_110_3172" x="50.5" y="92.2124" width="200" height="204" filterUnits="userSpaceOnUse" color-interpolation-filters="sRGB">
<feFlood flood-opacity="0" result="BackgroundImageFix"/>
<feColorMatrix in="SourceAlpha" type="matrix" values="0 0 0 0 0 0 0 0 0 0 0 0 0 0 0 0 0 0 127 0" result="hardAlpha"/>
<feOffset dy="4"/>
<feComposite in2="hardAlpha" operator="out"/>
<feColorMatrix type="matrix" values="0 0 0 0 0.638457 0 0 0 0 0.773286 0 0 0 0 0.881149 0 0 0 0.3 0"/>
<feBlend mode="normal" in2="BackgroundImageFix" result="effect1_dropShadow_110_3172"/>
<feBlend mode="normal" in="SourceGraphic" in2="effect1_dropShadow_110_3172" result="shape"/>
</filter>
<filter id="filter1_d_110_3172" x="270.5" y="92.2124" width="200" height="204" filterUnits="userSpaceOnUse" color-interpolation-filters="sRGB">
<feFlood flood-opacity="0" result="BackgroundImageFix"/>
<feColorMatrix in="SourceAlpha" type="matrix" values="0 0 0 0 0 0 0 0 0 0 0 0 0 0 0 0 0 0 127 0" result="hardAlpha"/>
<feOffset dy="4"/>
<feComposite in2="hardAlpha" operator="out"/>
<feColorMatrix type="matrix" values="0 0 0 0 0.638457 0 0 0 0 0.773286 0 0 0 0 0.881149 0 0 0 0.3 0"/>
<feBlend mode="normal" in2="BackgroundImageFix" result="effect1_dropShadow_110_3172"/>
<feBlend mode="normal" in="SourceGraphic" in2="effect1_dropShadow_110_3172" result="shape"/>
</filter>
<filter id="filter2_d_110_3172" x="490.5" y="92.2124" width="200" height="204" filterUnits="userSpaceOnUse" color-interpolation-filters="sRGB">
<feFlood flood-opacity="0" result="BackgroundImageFix"/>
<feColorMatrix in="SourceAlpha" type="matrix" values="0 0 0 0 0 0 0 0 0 0 0 0 0 0 0 0 0 0 127 0" result="hardAlpha"/>
<feOffset dy="4"/>
<feComposite in2="hardAlpha" operator="out"/>
<feColorMatrix type="matrix" values="0 0 0 0 0.638457 0 0 0 0 0.773286 0 0 0 0 0.881149 0 0 0 0.3 0"/>
<feBlend mode="normal" in2="BackgroundImageFix" result="effect1_dropShadow_110_3172"/>
<feBlend mode="normal" in="SourceGraphic" in2="effect1_dropShadow_110_3172" result="shape"/>
</filter>
<filter id="filter3_d_110_3172" x="710.5" y="92.2124" width="200" height="204" filterUnits="userSpaceOnUse" color-interpolation-filters="sRGB">
<feFlood flood-opacity="0" result="BackgroundImageFix"/>
<feColorMatrix in="SourceAlpha" type="matrix" values="0 0 0 0 0 0 0 0 0 0 0 0 0 0 0 0 0 0 127 0" result="hardAlpha"/>
<feOffset dy="4"/>
<feComposite in2="hardAlpha" operator="out"/>
<feColorMatrix type="matrix" values="0 0 0 0 0.638457 0 0 0 0 0.773286 0 0 0 0 0.881149 0 0 0 0.3 0"/>
<feBlend mode="normal" in2="BackgroundImageFix" result="effect1_dropShadow_110_3172"/>
<feBlend mode="normal" in="SourceGraphic" in2="effect1_dropShadow_110_3172" result="shape"/>
</filter>
<filter id="filter4_d_110_3172" x="998.5" y="92.2124" width="200" height="204" filterUnits="userSpaceOnUse" color-interpolation-filters="sRGB">
<feFlood flood-opacity="0" result="BackgroundImageFix"/>
<feColorMatrix in="SourceAlpha" type="matrix" values="0 0 0 0 0 0 0 0 0 0 0 0 0 0 0 0 0 0 127 0" result="hardAlpha"/>
<feOffset dy="4"/>
<feComposite in2="hardAlpha" operator="out"/>
<feColorMatrix type="matrix" values="0 0 0 0 0.638457 0 0 0 0 0.773286 0 0 0 0 0.881149 0 0 0 0.3 0"/>
<feBlend mode="normal" in2="BackgroundImageFix" result="effect1_dropShadow_110_3172"/>
<feBlend mode="normal" in="SourceGraphic" in2="effect1_dropShadow_110_3172" result="shape"/>
</filter>
</defs>
</svg>
