<svg width="15" height="14" viewBox="0 0 15 14" fill="none" xmlns="http://www.w3.org/2000/svg">
<path d="M3.16173 11.4245C2.56246 10.8252 2.06958 10.1782 1.6831 9.48339C1.29661 8.78858 1.01652 8.08075 0.842819 7.35989C0.67346 6.63469 0.610493 5.92469 0.653918 5.22988C0.697344 4.53073 0.849332 3.87284 1.10988 3.2562C1.37044 2.63522 1.73738 2.08806 2.21072 1.61473C2.71011 1.11533 3.28332 0.744048 3.93036 0.500867C4.57739 0.257685 5.257 0.12958 5.96917 0.116553C6.68569 0.103525 7.40004 0.19689 8.11221 0.396646C8.82439 0.59206 9.49748 0.878667 10.1315 1.25647L9.45405 1.91436C8.93729 1.63644 8.38362 1.41931 7.79304 1.26298C7.20245 1.10665 6.6097 1.03066 6.01477 1.035C5.41984 1.03934 4.85097 1.14139 4.30816 1.34115C3.76534 1.53656 3.28332 1.84488 2.86209 2.2661C2.34099 2.78721 1.97622 3.40168 1.76778 4.10951C1.56368 4.813 1.50723 5.55774 1.59842 6.34374C1.68961 7.12974 1.92194 7.90705 2.29539 8.67568C2.66885 9.43996 3.17476 10.1413 3.81311 10.7796C4.20394 11.1748 4.62082 11.507 5.06376 11.7762C5.51104 12.0411 5.95398 12.2539 6.39257 12.4146C6.83117 12.5796 7.23936 12.7055 7.61716 12.7924C7.99496 12.8792 8.31414 12.94 8.57469 12.9748C8.73536 12.9965 8.85261 13.0595 8.92644 13.1637C9.00026 13.2722 9.03066 13.383 9.01763 13.4959C9.0046 13.6044 8.95032 13.7 8.85478 13.7825C8.76359 13.865 8.63331 13.8976 8.46396 13.8802C8.17735 13.8541 7.82561 13.7933 7.40872 13.6978C6.99184 13.6066 6.54022 13.4698 6.05385 13.2874C5.57183 13.1051 5.08113 12.8619 4.58174 12.5579C4.08669 12.2539 3.61335 11.8761 3.16173 11.4245ZM5.53275 9.47687L6.52936 9.04696C6.96361 9.4595 7.43695 9.80691 7.94937 10.0892C8.46613 10.3671 8.9894 10.5582 9.51919 10.6624C10.049 10.7623 10.5571 10.7536 11.0434 10.6363C11.5341 10.5191 11.9705 10.2694 12.3527 9.88724C12.7739 9.46602 13.0323 8.95794 13.1278 8.36302C13.2234 7.76375 13.1734 7.12539 12.978 6.44796C12.7869 5.77053 12.4699 5.10395 12.027 4.44823L12.6914 3.78382C13.1126 4.38309 13.4383 4.99756 13.6685 5.62722C13.8986 6.25689 14.0289 6.87353 14.0593 7.47714C14.094 8.07641 14.0246 8.63877 13.8509 9.16421C13.6772 9.68531 13.3949 10.1435 13.0041 10.5386C12.6219 10.9208 12.1877 11.1987 11.7013 11.3724C11.2149 11.5417 10.7004 11.6199 10.1575 11.6069C9.61907 11.5895 9.07625 11.494 8.52909 11.3203C7.98194 11.1422 7.45215 10.8969 6.93973 10.5842C6.42731 10.2716 5.95832 9.90244 5.53275 9.47687ZM6.38606 8.50632L5.10935 9.00788C5.03987 9.03394 4.97691 9.01874 4.92045 8.96228C4.86834 8.90583 4.85749 8.84504 4.88788 8.7799L5.42202 7.53576L11.2649 1.6994L12.2354 2.66345L6.38606 8.50632ZM12.711 2.19445L11.7469 1.2239L12.2615 0.69628C12.3787 0.579032 12.5134 0.520408 12.6654 0.520408C12.8217 0.516066 12.9563 0.566005 13.0692 0.670225L13.2386 0.826556C13.3645 0.943805 13.4253 1.08277 13.421 1.24344C13.421 1.40411 13.358 1.54742 13.2321 1.67335L12.711 2.19445Z" fill="#21A0FE"/>
</svg>
