<svg width="15" height="16" viewBox="0 0 15 16" fill="none" xmlns="http://www.w3.org/2000/svg">
<path d="M7.39893 15.3462C6.39307 15.3462 5.4458 15.1533 4.55713 14.7676C3.67334 14.3867 2.89209 13.8594 2.21338 13.1855C1.53955 12.5068 1.00977 11.7256 0.624023 10.8418C0.243164 9.95312 0.0527344 9.00586 0.0527344 8C0.0527344 6.99414 0.243164 6.04932 0.624023 5.16553C1.00977 4.27686 1.53955 3.49561 2.21338 2.82178C2.88721 2.14307 3.66602 1.61328 4.5498 1.23242C5.43848 0.84668 6.38574 0.653809 7.3916 0.653809C8.39746 0.653809 9.34473 0.84668 10.2334 1.23242C11.1221 1.61328 11.9033 2.14307 12.5771 2.82178C13.251 3.49561 13.7808 4.27686 14.1665 5.16553C14.5522 6.04932 14.7451 6.99414 14.7451 8C14.7451 9.00586 14.5522 9.95312 14.1665 10.8418C13.7808 11.7256 13.251 12.5068 12.5771 13.1855C11.9033 13.8594 11.1221 14.3867 10.2334 14.7676C9.34961 15.1533 8.40479 15.3462 7.39893 15.3462ZM7.39893 14.4014C8.28271 14.4014 9.11035 14.2354 9.88184 13.9033C10.6582 13.5713 11.3394 13.1123 11.9253 12.5264C12.5161 11.9404 12.9751 11.2617 13.3022 10.4902C13.6343 9.71387 13.8003 8.88379 13.8003 8C13.8003 7.11621 13.6343 6.28857 13.3022 5.51709C12.9702 4.74072 12.5112 4.05957 11.9253 3.47363C11.3394 2.88281 10.6582 2.42383 9.88184 2.09668C9.11035 1.76465 8.28027 1.59863 7.3916 1.59863C6.50781 1.59863 5.67773 1.76465 4.90137 2.09668C4.12988 2.42383 3.45117 2.88281 2.86523 3.47363C2.28418 4.05957 1.82764 4.74072 1.49561 5.51709C1.16846 6.28857 1.00488 7.11621 1.00488 8C1.00488 8.88379 1.16846 9.71387 1.49561 10.4902C1.82764 11.2617 2.28662 11.9404 2.87256 12.5264C3.4585 13.1123 4.13721 13.5713 4.90869 13.9033C5.68018 14.2354 6.51025 14.4014 7.39893 14.4014ZM5.75098 11.2886C5.61914 11.2886 5.5166 11.2544 5.44336 11.186C5.37012 11.1128 5.3335 11.0176 5.3335 10.9004C5.3335 10.8369 5.3457 10.7783 5.37012 10.7246C5.39453 10.666 5.43359 10.6074 5.4873 10.5488L7.89697 7.91943C8.13623 7.66553 8.33887 7.41895 8.50488 7.17969C8.6709 6.94043 8.75391 6.68896 8.75391 6.42529C8.75391 6.08838 8.63672 5.81982 8.40234 5.61963C8.17285 5.41455 7.86279 5.31201 7.47217 5.31201C7.08154 5.31201 6.76904 5.41699 6.53467 5.62695C6.30029 5.83691 6.14648 6.0835 6.07324 6.3667C6.0293 6.45459 5.97559 6.52783 5.91211 6.58643C5.85352 6.64014 5.77051 6.66699 5.66309 6.66699C5.5459 6.66699 5.45312 6.63281 5.38477 6.56445C5.31641 6.49609 5.28223 6.40332 5.28223 6.28613C5.28223 6.24707 5.28467 6.20801 5.28955 6.16895C5.29443 6.125 5.3042 6.07861 5.31885 6.02979C5.4165 5.60986 5.66553 5.26318 6.06592 4.98975C6.46631 4.71143 6.92285 4.57227 7.43555 4.57227C8.08008 4.57227 8.59521 4.73828 8.98096 5.07031C9.37158 5.39746 9.56689 5.83203 9.56689 6.37402C9.56689 6.74023 9.47168 7.07959 9.28125 7.39209C9.0957 7.70459 8.83203 8.04639 8.49023 8.41748L6.57861 10.4829V10.5269H9.50098C9.6084 10.5269 9.69629 10.561 9.76465 10.6294C9.83789 10.6978 9.87451 10.7905 9.87451 10.9077C9.87451 11.0249 9.83789 11.1177 9.76465 11.186C9.69629 11.2544 9.6084 11.2886 9.50098 11.2886H5.75098Z" fill="#21A0FE"/>
</svg>
