<svg width="15" height="16" viewBox="0 0 15 16" fill="none" xmlns="http://www.w3.org/2000/svg">
<path d="M7.39893 15.3462C6.39307 15.3462 5.4458 15.1533 4.55713 14.7676C3.67334 14.3867 2.89209 13.8594 2.21338 13.1855C1.53955 12.5068 1.00977 11.7256 0.624023 10.8418C0.243164 9.95312 0.0527344 9.00586 0.0527344 8C0.0527344 6.99414 0.243164 6.04932 0.624023 5.16553C1.00977 4.27686 1.53955 3.49561 2.21338 2.82178C2.88721 2.14307 3.66602 1.61328 4.5498 1.23242C5.43848 0.84668 6.38574 0.653809 7.3916 0.653809C8.39746 0.653809 9.34473 0.84668 10.2334 1.23242C11.1221 1.61328 11.9033 2.14307 12.5771 2.82178C13.251 3.49561 13.7808 4.27686 14.1665 5.16553C14.5522 6.04932 14.7451 6.99414 14.7451 8C14.7451 9.00586 14.5522 9.95312 14.1665 10.8418C13.7808 11.7256 13.251 12.5068 12.5771 13.1855C11.9033 13.8594 11.1221 14.3867 10.2334 14.7676C9.34961 15.1533 8.40479 15.3462 7.39893 15.3462ZM7.39893 14.4014C8.28271 14.4014 9.11035 14.2354 9.88184 13.9033C10.6582 13.5713 11.3394 13.1123 11.9253 12.5264C12.5161 11.9404 12.9751 11.2617 13.3022 10.4902C13.6343 9.71387 13.8003 8.88379 13.8003 8C13.8003 7.11621 13.6343 6.28857 13.3022 5.51709C12.9702 4.74072 12.5112 4.05957 11.9253 3.47363C11.3394 2.88281 10.6582 2.42383 9.88184 2.09668C9.11035 1.76465 8.28027 1.59863 7.3916 1.59863C6.50781 1.59863 5.67773 1.76465 4.90137 2.09668C4.12988 2.42383 3.45117 2.88281 2.86523 3.47363C2.28418 4.05957 1.82764 4.74072 1.49561 5.51709C1.16846 6.28857 1.00488 7.11621 1.00488 8C1.00488 8.88379 1.16846 9.71387 1.49561 10.4902C1.82764 11.2617 2.28662 11.9404 2.87256 12.5264C3.4585 13.1123 4.13721 13.5713 4.90869 13.9033C5.68018 14.2354 6.51025 14.4014 7.39893 14.4014ZM7.36963 11.4277C6.80811 11.4277 6.31982 11.3008 5.90479 11.0469C5.48975 10.793 5.22852 10.4609 5.12109 10.0508C5.09668 9.96289 5.08447 9.87988 5.08447 9.80176C5.08447 9.68457 5.12109 9.58936 5.19434 9.51611C5.27246 9.44287 5.37012 9.40625 5.4873 9.40625C5.67773 9.40625 5.80957 9.50879 5.88281 9.71387C5.96582 9.99707 6.13672 10.2314 6.39551 10.417C6.6543 10.6025 6.98389 10.6953 7.38428 10.6953C7.84814 10.6953 8.22168 10.583 8.50488 10.3584C8.78809 10.1338 8.92969 9.83838 8.92969 9.47217C8.92969 9.11572 8.79053 8.82275 8.51221 8.59326C8.23389 8.36377 7.87744 8.24902 7.44287 8.24902H6.87158C6.76416 8.24902 6.67627 8.21729 6.60791 8.15381C6.54443 8.08545 6.5127 7.99756 6.5127 7.89014C6.5127 7.78271 6.54443 7.69727 6.60791 7.63379C6.67627 7.56543 6.76416 7.53125 6.87158 7.53125H7.3916C7.76758 7.53125 8.07764 7.42139 8.32178 7.20166C8.5708 6.98193 8.69531 6.70605 8.69531 6.37402C8.69531 6.04688 8.57812 5.78564 8.34375 5.59033C8.10938 5.39502 7.79443 5.29736 7.39893 5.29736C7.03271 5.29736 6.72754 5.3877 6.4834 5.56836C6.24414 5.74902 6.09033 5.98584 6.02197 6.27881C5.96338 6.48877 5.83154 6.59375 5.62646 6.59375C5.50928 6.59375 5.41406 6.55713 5.34082 6.48389C5.26758 6.41064 5.23096 6.31787 5.23096 6.20557C5.23096 6.15674 5.2334 6.11523 5.23828 6.08105C5.24316 6.04199 5.25049 5.99805 5.26025 5.94922C5.33838 5.53418 5.5752 5.20215 5.9707 4.95312C6.37109 4.69922 6.84961 4.57227 7.40625 4.57227C8.03125 4.57227 8.54395 4.7334 8.94434 5.05566C9.34961 5.37305 9.55225 5.77832 9.55225 6.27148C9.55225 6.65723 9.42773 6.99902 9.17871 7.29688C8.92969 7.58984 8.61963 7.76807 8.24854 7.83154V7.88281C8.68799 7.92188 9.0542 8.09521 9.34717 8.40283C9.64014 8.71045 9.78662 9.07422 9.78662 9.49414C9.78662 10.0557 9.56689 10.5195 9.12744 10.8857C8.68799 11.2471 8.10205 11.4277 7.36963 11.4277Z" fill="#21A0FE"/>
</svg>
