<svg width="20" height="20" viewBox="0 0 20 20" fill="none" xmlns="http://www.w3.org/2000/svg">
<path d="M9.96289 19.123C8.67025 19.123 7.45182 18.8757 6.30762 18.3809C5.1696 17.8861 4.16455 17.2026 3.29248 16.3306C2.42041 15.4585 1.73698 14.4535 1.24219 13.3154C0.747396 12.1712 0.5 10.9528 0.5 9.66016C0.5 8.36751 0.747396 7.15218 1.24219 6.01416C1.73698 4.86995 2.41732 3.86182 3.2832 2.98975C4.15527 2.11768 5.16032 1.43424 6.29834 0.939453C7.44255 0.444661 8.66097 0.197266 9.95361 0.197266C11.2463 0.197266 12.4647 0.444661 13.6089 0.939453C14.7531 1.43424 15.7612 2.11768 16.6333 2.98975C17.5054 3.86182 18.1888 4.86995 18.6836 6.01416C19.1784 7.15218 19.4258 8.36751 19.4258 9.66016C19.4258 10.9528 19.1784 12.1712 18.6836 13.3154C18.1888 14.4535 17.5054 15.4585 16.6333 16.3306C15.7612 17.2026 14.7531 17.8861 13.6089 18.3809C12.4709 18.8757 11.2555 19.123 9.96289 19.123ZM7.78271 14.002H12.709C12.8945 14.002 13.0461 13.9463 13.1636 13.835C13.2873 13.7174 13.3491 13.5628 13.3491 13.3711C13.3491 13.1732 13.2873 13.0186 13.1636 12.9072C13.0461 12.7959 12.8945 12.7402 12.709 12.7402H9.2207V12.6753L11.4844 10.2539C11.9111 9.80241 12.2575 9.36947 12.5234 8.95508C12.7894 8.53451 12.9224 8.05827 12.9224 7.52637C12.9224 6.80273 12.6533 6.21826 12.1152 5.77295C11.5833 5.32764 10.8721 5.10498 9.98145 5.10498C9.30729 5.10498 8.70117 5.28743 8.16309 5.65234C7.625 6.01725 7.27865 6.46566 7.12402 6.99756C7.09928 7.07178 7.08073 7.13981 7.06836 7.20166C7.06217 7.26351 7.05908 7.32536 7.05908 7.38721C7.05908 7.57275 7.11475 7.72119 7.22607 7.83252C7.34359 7.94385 7.49821 7.99951 7.68994 7.99951C7.85693 7.99951 7.98991 7.95312 8.08887 7.86035C8.19401 7.76758 8.28678 7.65316 8.36719 7.51709C8.49707 7.23258 8.69499 6.96354 8.96094 6.70996C9.22689 6.45638 9.5887 6.32959 10.0464 6.32959C10.5041 6.32959 10.8721 6.4502 11.1504 6.69141C11.4287 6.93262 11.5679 7.25114 11.5679 7.64697C11.5679 7.99333 11.4442 8.31803 11.1968 8.62109C10.9556 8.92415 10.6927 9.22412 10.4082 9.521L7.35596 12.7959C7.26937 12.8887 7.20443 12.9845 7.16113 13.0835C7.11784 13.1763 7.09619 13.2721 7.09619 13.3711C7.09619 13.5628 7.15804 13.7174 7.28174 13.835C7.40544 13.9463 7.57243 14.002 7.78271 14.002Z" fill="#3C6689"/>
</svg>
