<svg width="15" height="14" viewBox="0 0 15 14" fill="none" xmlns="http://www.w3.org/2000/svg">
<path d="M0 12.0156V6.36816C0 5.98168 0.115077 5.68204 0.345231 5.46926C0.579728 5.25213 0.903246 5.14357 1.31579 5.14357H2.87258V2.03649C2.87258 1.3634 3.04194 0.859662 3.38066 0.525288C3.72372 0.18657 4.23614 0.0172119 4.91791 0.0172119H12.767C13.4488 0.0172119 13.9591 0.18657 14.2978 0.525288C14.6408 0.859662 14.8124 1.3634 14.8124 2.03649V11.97C14.8124 12.6388 14.6408 13.1403 14.2978 13.4747C13.9591 13.8134 13.4488 13.9828 12.767 13.9828H1.96717C1.3071 13.9828 0.814224 13.8178 0.488535 13.4877C0.162845 13.1577 0 12.667 0 12.0156ZM1.04872 12.0156C1.04872 12.2762 1.13557 12.4933 1.30927 12.667C1.48732 12.845 1.70661 12.9341 1.96717 12.9341C2.21903 12.9341 2.43182 12.8472 2.60552 12.6735C2.78356 12.5042 2.87258 12.2849 2.87258 12.0156V6.19229H1.43303C1.31144 6.19229 1.21591 6.22703 1.14643 6.29651C1.08129 6.36165 1.04872 6.45284 1.04872 6.57009V12.0156ZM3.69983 12.9341H12.7475C13.0732 12.9341 13.3229 12.8472 13.4966 12.6735C13.6746 12.5042 13.7636 12.2501 13.7636 11.9114V2.09511C13.7636 1.75639 13.6746 1.50019 13.4966 1.32648C13.3229 1.15278 13.0732 1.06593 12.7475 1.06593H4.93746C4.61177 1.06593 4.3599 1.15278 4.18186 1.32648C4.00815 1.50019 3.9213 1.75639 3.9213 2.09511V11.9505C3.9213 12.3196 3.84748 12.6475 3.69983 12.9341ZM5.61489 3.89943C5.49764 3.89943 5.39993 3.86035 5.32177 3.78218C5.2436 3.69968 5.20452 3.60197 5.20452 3.48906C5.20452 3.3805 5.2436 3.28931 5.32177 3.21548C5.39993 3.13732 5.49764 3.09824 5.61489 3.09824H12.0831C12.196 3.09824 12.2915 3.13732 12.3697 3.21548C12.4479 3.28931 12.4869 3.3805 12.4869 3.48906C12.4869 3.60197 12.4479 3.69968 12.3697 3.78218C12.2915 3.86035 12.196 3.89943 12.0831 3.89943H5.61489ZM5.61489 6.19229C5.49764 6.19229 5.39993 6.15538 5.32177 6.08155C5.2436 6.00339 5.20452 5.90785 5.20452 5.79495C5.20452 5.68204 5.2436 5.58651 5.32177 5.50834C5.39993 5.43017 5.49764 5.39109 5.61489 5.39109H12.0831C12.196 5.39109 12.2915 5.43017 12.3697 5.50834C12.4479 5.58651 12.4869 5.68204 12.4869 5.79495C12.4869 5.90785 12.4479 6.00339 12.3697 6.08155C12.2915 6.15538 12.196 6.19229 12.0831 6.19229H5.61489ZM5.9992 10.8366C5.74734 10.8366 5.54975 10.7671 5.40645 10.6282C5.26749 10.4849 5.19801 10.2895 5.19801 10.0419V8.49166C5.19801 8.23979 5.26749 8.04438 5.40645 7.90542C5.54975 7.76211 5.74734 7.69046 5.9992 7.69046H7.68628C7.9338 7.69046 8.12704 7.76211 8.266 7.90542C8.40931 8.04438 8.48096 8.23979 8.48096 8.49166V10.0419C8.48096 10.2895 8.40931 10.4849 8.266 10.6282C8.12704 10.7671 7.9338 10.8366 7.68628 10.8366H5.9992ZM9.65344 8.49166C9.53619 8.49166 9.43849 8.45475 9.36032 8.38092C9.2865 8.30276 9.24959 8.20939 9.24959 8.10083C9.24959 7.98358 9.2865 7.88587 9.36032 7.80771C9.43849 7.72954 9.53619 7.69046 9.65344 7.69046H12.0766C12.1938 7.69046 12.2894 7.72954 12.3632 7.80771C12.4413 7.88587 12.4804 7.98358 12.4804 8.10083C12.4804 8.20939 12.4413 8.30276 12.3632 8.38092C12.2894 8.45475 12.1938 8.49166 12.0766 8.49166H9.65344ZM9.65344 10.8366C9.53619 10.8366 9.43849 10.7997 9.36032 10.7259C9.2865 10.6477 9.24959 10.5544 9.24959 10.4458C9.24959 10.3285 9.2865 10.2308 9.36032 10.1527C9.43849 10.0745 9.53619 10.0354 9.65344 10.0354H12.0766C12.1938 10.0354 12.2894 10.0745 12.3632 10.1527C12.4413 10.2308 12.4804 10.3285 12.4804 10.4458C12.4804 10.5544 12.4413 10.6477 12.3632 10.7259C12.2894 10.7997 12.1938 10.8366 12.0766 10.8366H9.65344Z" fill="#7461EC"/>
</svg>
