<svg width="14" height="12" viewBox="0 0 14 12" fill="none" xmlns="http://www.w3.org/2000/svg">
<path d="M0.497796 7.86358C0.40226 7.7637 0.354492 7.64862 0.354492 7.51835C0.354492 7.38373 0.40226 7.26648 0.497796 7.1666L1.65074 6.02018C2.78848 4.88243 3.76989 3.92056 4.59497 3.13457C5.42005 2.34423 6.12354 1.71239 6.70544 1.23905C7.29168 0.765716 7.7889 0.431341 8.1971 0.235928C8.60964 0.0405138 8.96573 -0.0311378 9.26536 0.0209725C9.565 0.0730829 9.84509 0.229414 10.1056 0.489965C10.3705 0.75486 10.5095 1.05232 10.5225 1.38236C10.5399 1.71239 10.44 2.09453 10.2229 2.52878C10.0058 2.95869 9.68007 3.45808 9.24582 4.02696C8.81157 4.59148 8.27744 5.23852 7.64343 5.96807C6.88783 6.83657 6.30159 7.55309 5.8847 8.11762C5.47216 8.68215 5.21378 9.1316 5.10956 9.46597C5.00534 9.79601 5.04008 10.0435 5.21378 10.2085C5.35274 10.3475 5.55467 10.3779 5.81956 10.2997C6.08446 10.2172 6.4362 10.0066 6.8748 9.6679C7.31339 9.32484 7.86924 8.83631 8.54233 8.2023C9.22411 7.55092 9.82121 7.0385 10.3336 6.66504C10.846 6.29158 11.289 6.07229 11.6624 6.00715C12.0359 5.94201 12.3594 6.0484 12.633 6.32632C12.8328 6.52608 12.9348 6.76058 12.9391 7.02981C12.9478 7.29471 12.8718 7.60737 12.7112 7.9678C12.5548 8.32389 12.329 8.74294 12.0337 9.22496C11.8036 9.6071 11.619 9.91325 11.4801 10.1434C11.3454 10.3736 11.2586 10.5494 11.2195 10.671C11.1848 10.7926 11.1978 10.8838 11.2586 10.9446C11.3107 10.9967 11.3932 11.0011 11.5061 10.9576C11.6234 10.9142 11.7819 10.8143 11.9816 10.658C12.1857 10.4973 12.4463 10.2715 12.7633 9.98056C12.8631 9.88068 12.9782 9.83075 13.1085 9.83075C13.2431 9.83075 13.3604 9.87851 13.4602 9.97405C13.5601 10.0739 13.6079 10.1933 13.6035 10.3323C13.5992 10.4669 13.5341 10.595 13.4081 10.7166C12.8002 11.3419 12.2574 11.7371 11.7797 11.9021C11.3064 12.0715 10.9242 12.0107 10.6333 11.7197C10.4465 11.533 10.3445 11.3224 10.3271 11.0879C10.3141 10.8534 10.3553 10.6059 10.4509 10.3453C10.5464 10.0848 10.6723 9.81772 10.8287 9.54414C10.985 9.26622 11.1413 8.99264 11.2977 8.7234C11.5452 8.29783 11.7471 7.94174 11.9034 7.65514C12.0598 7.36419 12.0641 7.14489 11.9165 6.99724C11.8296 6.91474 11.7037 6.90822 11.5387 6.9777C11.3737 7.04284 11.1739 7.16878 10.9394 7.3555C10.7093 7.53789 10.4509 7.7637 10.1643 8.03294C9.882 8.30217 9.57585 8.5953 9.24582 8.9123C8.90276 9.24667 8.55536 9.56585 8.20361 9.86983C7.85187 10.1738 7.50447 10.4409 7.16141 10.671C6.82269 10.8968 6.49483 11.0684 6.17782 11.1856C5.86082 11.3029 5.56118 11.3419 5.27892 11.3029C5.001 11.2681 4.74696 11.1357 4.51681 10.9055C4.25191 10.6406 4.10644 10.3453 4.08038 10.0196C4.05867 9.68961 4.12381 9.34004 4.2758 8.97092C4.43213 8.59747 4.64708 8.21098 4.92066 7.81147C5.19858 7.40761 5.50907 6.99725 5.85213 6.58036C6.19954 6.16348 6.55128 5.7466 6.90737 5.32971C7.32859 4.83032 7.72159 4.36133 8.08637 3.92273C8.45114 3.4798 8.75729 3.07811 9.00481 2.71768C9.25233 2.35725 9.41735 2.04676 9.49986 1.78621C9.58237 1.52566 9.55414 1.3259 9.41518 1.18694C9.25451 1.02627 9.03304 0.987185 8.75077 1.06969C8.47285 1.1522 8.13196 1.3411 7.72811 1.63639C7.32425 1.93169 6.85743 2.32468 6.32764 2.81539C5.79785 3.30175 5.20075 3.87497 4.53635 4.53503C3.87194 5.19075 3.14022 5.91813 2.3412 6.71715L1.19477 7.86358C1.09489 7.96346 0.977645 8.0134 0.843027 8.0134C0.712751 8.0134 0.597674 7.96346 0.497796 7.86358Z" fill="#21A0FE"/>
</svg>
