<svg width="101" height="26" viewBox="0 0 101 26" fill="none" xmlns="http://www.w3.org/2000/svg">
<path d="M23.8841 15.319C23.8841 15.319 23.9569 15.3086 23.9881 15.2982C23.5724 14.5291 23.1047 13.7809 22.585 13.0845C22.3876 12.8247 22.0862 12.6688 21.7536 12.6688C21.5354 12.6688 21.3171 12.7416 21.1404 12.8663C20.6831 13.2093 20.5896 13.8536 20.9222 14.3109C21.2444 14.7474 21.5146 15.1631 21.7744 15.5684C21.816 15.5684 21.8471 15.5684 21.8887 15.558C22.6162 15.4957 23.271 15.4125 23.8738 15.319H23.8841Z" fill="#1D6298"/>
<path d="M22.9277 17.5327C22.9277 17.5327 22.855 17.5327 22.8238 17.5431C23.2084 18.4473 23.4266 19.2163 23.5305 19.8191C23.8007 21.2429 23.6345 22.4381 23.1044 22.9266C22.9693 23.0513 22.7511 23.1241 22.4809 23.1241C21.8053 23.1241 20.7764 22.7291 19.602 22.0016C18.1262 21.0871 16.3699 19.6528 14.5407 17.8549C14.4888 17.8549 14.4472 17.8549 14.3952 17.8549C13.4495 17.8549 12.5453 17.8237 11.7243 17.7821C11.6723 17.7821 11.6203 17.7821 11.5684 17.7821C14.0834 20.4427 16.4842 22.5109 18.5212 23.7684C20.0697 24.7246 21.4104 25.2026 22.5016 25.2026C23.2915 25.2026 23.967 24.9532 24.5075 24.4439C26.108 22.9578 25.9728 20.1101 24.8712 17.2417C24.84 17.2417 24.7985 17.2521 24.7673 17.2625C24.1853 17.3664 23.5721 17.4599 22.9174 17.5431L22.9277 17.5327Z" fill="#1D6298"/>
<path d="M21.1093 9.13525C20.465 9.13525 19.9453 9.6549 19.9453 10.2993C19.9453 10.9436 20.465 11.4633 21.1093 11.4633C21.7537 11.4633 22.2733 10.9436 22.2733 10.2993C22.2733 9.6549 21.7537 9.13525 21.1093 9.13525Z" fill="#1D6298"/>
<path d="M6.91239 15.2463C6.91239 15.2463 6.94357 15.1839 6.95396 15.1528C6.48628 15.0592 6.08096 14.9761 5.738 14.8825C3.74257 14.3733 2.55778 13.6666 2.55778 13.0014C2.55778 12.4298 3.5555 11.7855 5.23914 11.2762C5.49896 11.2035 5.71721 11.0268 5.85232 10.7774C5.98742 10.5383 6.00821 10.2577 5.93546 9.9979C5.81075 9.5614 5.40543 9.26001 4.94814 9.26001C4.84421 9.26001 4.75068 9.2704 4.64675 9.30158C1.89264 10.1226 0.5 11.3698 0.5 12.991C0.5 14.2486 1.41457 16.0881 6.1745 17.1066C6.18489 17.0754 6.19528 17.0443 6.20567 17.0131C6.42392 16.4207 6.66296 15.8283 6.91239 15.2359V15.2463Z" fill="#21A0FE"/>
<path d="M29.808 13.677C29.808 11.931 28.2075 10.6319 25.0481 9.81084C24.9649 9.79006 24.8714 9.77966 24.7882 9.77966C24.3206 9.77966 23.9152 10.0914 23.7905 10.5487C23.645 11.0996 23.9776 11.6608 24.5284 11.8063C26.9084 12.4194 27.7502 13.1989 27.7502 13.677C27.7502 14.2382 26.5446 14.8202 24.5908 15.1943C24.4037 15.2359 24.1958 15.2671 23.988 15.2983C23.9464 15.2983 23.9152 15.3087 23.8841 15.3191C23.2917 15.4126 22.6265 15.4957 21.899 15.5581C21.8574 15.5581 21.8263 15.5581 21.7847 15.5685C19.9867 15.7244 17.7938 15.8075 15.1541 15.8075C14.1979 15.8075 13.3353 15.7867 12.5143 15.7452C12.4623 15.7452 12.4207 15.7452 12.3688 15.7452C11.423 15.7036 10.5708 15.6412 9.80174 15.5581C9.74978 15.5581 9.70821 15.5581 9.65624 15.5477C9.44839 15.5269 9.25092 15.5061 9.05346 15.4853C9.04306 15.5165 9.02228 15.5477 9.01189 15.5789C8.72089 16.2336 8.47146 16.8364 8.2636 17.3768C8.25321 17.408 8.24281 17.4392 8.23242 17.4704C9.21974 17.6055 10.3318 17.7094 11.5685 17.7718C11.6205 17.7718 11.6725 17.7718 11.7244 17.7718C12.5558 17.8133 13.4496 17.8445 14.3954 17.8445C14.4473 17.8445 14.4889 17.8445 14.5409 17.8445C14.6864 17.8445 14.8319 17.8445 14.9878 17.8445H15.1541C17.8874 17.8445 20.5376 17.7718 22.824 17.5223C22.8552 17.5223 22.8967 17.5223 22.9279 17.5119C23.5827 17.4392 24.1958 17.3457 24.7778 17.2313C24.809 17.2313 24.8506 17.2209 24.8818 17.2105C27.8437 16.6389 29.808 15.5893 29.808 13.6562V13.677Z" fill="#21A0FE"/>
<path d="M9.01213 15.5685C9.01213 15.5685 9.04331 15.5061 9.0537 15.475C9.12645 15.3191 9.18881 15.1736 9.26156 15.0177C9.38627 15.1943 9.52138 15.371 9.65649 15.5373C9.70845 15.5373 9.75002 15.5373 9.80199 15.5477C10.5711 15.6205 11.4233 15.6828 12.369 15.7348C12.421 15.7348 12.4626 15.7348 12.5145 15.7348C11.6415 14.7682 10.914 13.8225 10.3008 12.9183C10.6126 12.3363 10.9348 11.7335 11.3089 11.0892C14.8009 5.06132 19.7375 2.037 21.5251 2.037C21.733 2.037 21.8993 2.07857 22.024 2.14093C22.6164 2.48389 22.9282 4.04282 22.3046 6.76575C22.1799 7.31657 22.5228 7.87778 23.0737 8.00249C23.1464 8.02328 23.2295 8.03367 23.3023 8.03367C23.7804 8.03367 24.1961 7.7011 24.3 7.23342C25.1107 3.74143 24.6638 1.29911 23.0425 0.36375C22.6268 0.124714 22.1383 0 21.5771 0C18.1371 0 12.7328 4.52089 9.52138 10.0707C9.37588 10.3201 9.21999 10.6007 9.0537 10.8917C8.38856 9.67574 7.95206 8.62607 7.69224 7.89857C6.89199 5.64332 6.7361 3.68946 7.32849 3.14903C7.44281 3.0451 7.68184 2.91 8.15992 2.91C8.79388 2.91 9.94749 3.13864 11.8286 4.22989C11.9845 4.32343 12.1612 4.365 12.3378 4.365C12.7016 4.365 13.0446 4.16753 13.2316 3.85575C13.5122 3.36728 13.3459 2.73332 12.8575 2.45271C11.0283 1.39264 9.43824 0.852214 8.12874 0.852214C7.22456 0.852214 6.47627 1.11203 5.92545 1.63168C4.70949 2.7645 4.61595 5.20682 5.67602 8.33507C6.20606 9.8836 6.97513 11.4841 7.92088 13.0326C7.58831 13.6978 7.25574 14.4045 6.94395 15.132C6.93356 15.1632 6.91277 15.1943 6.90238 15.2255C6.65295 15.8075 6.41392 16.3999 6.19567 17.0027C6.18527 17.0339 6.17488 17.0651 6.16449 17.0962C5.01088 20.3596 4.58478 23.571 6.70492 24.7973C7.14142 25.0468 7.62988 25.1715 8.17031 25.1715H8.27424C9.86434 25.1195 11.8078 23.9659 13.9176 21.8354C14.3125 21.4301 14.3125 20.7753 13.9072 20.3804C13.7097 20.1933 13.4603 20.0894 13.1901 20.0894C12.9198 20.0894 12.6496 20.1933 12.4522 20.3908C10.7685 22.0952 9.17841 23.1137 8.1807 23.1137C8.00402 23.1137 7.85852 23.0825 7.7442 23.0098C7.15181 22.6668 7.09984 21.3157 7.5987 19.3931C7.73381 18.8734 7.94167 18.2187 8.23267 17.4392C8.24306 17.408 8.25345 17.3768 8.26384 17.3457C8.46131 16.8052 8.71074 16.2128 9.01213 15.5477V15.5685Z" fill="#1D6298"/>
<path d="M46.9558 23.6022H44.1602V2.02661H46.9558V23.5918V23.6022Z" fill="#1D6298"/>
<path d="M42.2268 20.9208L42.2476 21.0143H42.2372L42.2268 20.9208ZM42.2268 20.9208H42.1332V20.9416L42.2268 20.9208Z" fill="#1D6298"/>
<path d="M40.4603 23.6022C39.7016 23.6022 38.9741 23.4463 38.2986 23.1449C36.4175 22.2927 35.4613 20.3908 35.4613 17.4912V11.4114H33.7881V8.61568H35.4613V2.02661H38.2362V8.60529H41.2605L41.5412 11.401H38.2362V17.5639C38.2362 18.7695 38.4233 19.6633 38.7974 20.2141C39.1404 20.7233 39.7432 20.9624 40.6474 20.9624C40.9592 20.9624 41.2502 20.9416 41.51 20.8896L42.3934 20.6714L42.7155 23.1968L42.1232 23.3631C41.9465 23.4151 41.7594 23.4567 41.5931 23.4878L41.458 23.519C41.2086 23.571 40.8864 23.5918 40.4707 23.5918L40.4603 23.6022Z" fill="#1D6298"/>
<path d="M55.52 23.6021C51.5708 23.6021 48.3594 20.3908 48.3594 16.4311C48.3594 12.4714 51.5708 9.26001 55.52 9.26001C59.4693 9.26001 62.6911 12.4714 62.6911 16.4311C62.6911 20.3908 59.4693 23.6021 55.52 23.6021ZM55.52 11.8686C53.005 11.8686 50.9576 13.916 50.9576 16.4311C50.9576 18.9461 53.005 20.9935 55.52 20.9935C58.0351 20.9935 60.0825 18.9461 60.0825 16.4311C60.0825 13.916 58.0351 11.8686 55.52 11.8686Z" fill="#21A0FE"/>
<path d="M93.3286 23.6021C89.3794 23.6021 86.168 20.3908 86.168 16.4311C86.168 12.4714 89.3794 9.26001 93.3286 9.26001C97.2779 9.26001 100.5 12.4714 100.5 16.4311C100.5 20.3908 97.2779 23.6021 93.3286 23.6021ZM93.3286 11.8686C90.8136 11.8686 88.7662 13.916 88.7662 16.4311C88.7662 18.9461 90.8136 20.9935 93.3286 20.9935C95.8437 20.9935 97.8911 18.9461 97.8911 16.4311C97.8911 13.916 95.8437 11.8686 93.3286 11.8686Z" fill="#21A0FE"/>
<path d="M70.4019 23.6021C66.4526 23.6021 63.2412 20.3908 63.2412 16.4311C63.2412 12.4714 66.4526 9.26001 70.4019 9.26001C74.3512 9.26001 77.573 12.4714 77.573 16.4311C77.573 20.3908 74.3512 23.6021 70.4019 23.6021ZM70.4019 11.8686C67.8868 11.8686 65.8394 13.916 65.8394 16.4311C65.8394 18.9461 67.8868 20.9935 70.4019 20.9935C72.917 20.9935 74.9643 18.9461 74.9643 16.4311C74.9643 13.916 72.917 11.8686 70.4019 11.8686Z" fill="#21A0FE"/>
<path d="M86.0539 20.9208L86.0747 21.0143H86.0643L86.0539 20.9208ZM86.0539 20.9208H85.9604V20.9416L86.0539 20.9208Z" fill="#1D6298"/>
<path d="M84.2874 23.6022C83.5288 23.6022 82.8013 23.4463 82.1257 23.1449C80.2446 22.2927 79.2885 20.3908 79.2885 17.4912V11.4114H77.6152V8.61568H79.2885V2.02661H82.0634V8.60529H85.0877L85.3683 11.401H82.0634V17.5639C82.0634 18.7695 82.2504 19.6633 82.635 20.2141C82.9779 20.7233 83.5807 20.9624 84.4849 20.9624C84.7967 20.9624 85.0773 20.9416 85.3371 20.8896L86.2205 20.6714L86.5427 23.1968L85.9503 23.3631C85.7736 23.4151 85.5865 23.4567 85.4099 23.4878L85.2852 23.519C85.0357 23.571 84.7136 23.5918 84.2978 23.5918L84.2874 23.6022Z" fill="#1D6298"/>
</svg>
