<svg width="15" height="15" viewBox="0 0 15 15" fill="none" xmlns="http://www.w3.org/2000/svg">
<path d="M7.34619 14.6924C6.34033 14.6924 5.39307 14.4995 4.50439 14.1138C3.62061 13.7329 2.83936 13.2056 2.16064 12.5317C1.48682 11.853 0.957031 11.0718 0.571289 10.188C0.19043 9.29932 0 8.35205 0 7.34619C0 6.34033 0.19043 5.39551 0.571289 4.51172C0.957031 3.62305 1.48682 2.8418 2.16064 2.16797C2.83447 1.48926 3.61328 0.959473 4.49707 0.578613C5.38574 0.192871 6.33301 0 7.33887 0C8.34473 0 9.29199 0.192871 10.1807 0.578613C11.0693 0.959473 11.8506 1.48926 12.5244 2.16797C13.1982 2.8418 13.728 3.62305 14.1138 4.51172C14.4995 5.39551 14.6924 6.34033 14.6924 7.34619C14.6924 8.35205 14.4995 9.29932 14.1138 10.188C13.728 11.0718 13.1982 11.853 12.5244 12.5317C11.8506 13.2056 11.0693 13.7329 10.1807 14.1138C9.29688 14.4995 8.35205 14.6924 7.34619 14.6924ZM7.34619 13.7476C8.22998 13.7476 9.05762 13.5815 9.8291 13.2495C10.6055 12.9175 11.2866 12.4585 11.8726 11.8726C12.4634 11.2866 12.9224 10.6079 13.2495 9.83643C13.5815 9.06006 13.7476 8.22998 13.7476 7.34619C13.7476 6.4624 13.5815 5.63477 13.2495 4.86328C12.9175 4.08691 12.4585 3.40576 11.8726 2.81982C11.2866 2.229 10.6055 1.77002 9.8291 1.44287C9.05762 1.11084 8.22754 0.944824 7.33887 0.944824C6.45508 0.944824 5.625 1.11084 4.84863 1.44287C4.07715 1.77002 3.39844 2.229 2.8125 2.81982C2.23145 3.40576 1.7749 4.08691 1.44287 4.86328C1.11572 5.63477 0.952148 6.4624 0.952148 7.34619C0.952148 8.22998 1.11572 9.06006 1.44287 9.83643C1.7749 10.6079 2.23389 11.2866 2.81982 11.8726C3.40576 12.4585 4.08447 12.9175 4.85596 13.2495C5.62744 13.5815 6.45752 13.7476 7.34619 13.7476ZM8.25439 10.6567C8.12744 10.6567 8.0249 10.6152 7.94678 10.5322C7.87354 10.4443 7.83691 10.3296 7.83691 10.188V9.20654H5.11963C4.9292 9.20654 4.77783 9.15527 4.66553 9.05273C4.55811 8.94531 4.50439 8.80371 4.50439 8.62793C4.50439 8.54492 4.5166 8.46436 4.54102 8.38623C4.56543 8.30322 4.60449 8.21777 4.6582 8.12988C4.80957 7.88574 4.98779 7.60742 5.19287 7.29492C5.39795 6.97754 5.61279 6.65039 5.8374 6.31348C6.06689 5.97168 6.2915 5.63721 6.51123 5.31006C6.73096 4.98291 6.93115 4.68506 7.11182 4.4165C7.229 4.23584 7.35352 4.10889 7.48535 4.03564C7.62207 3.95752 7.79053 3.91846 7.99072 3.91846C8.1958 3.91846 8.36182 3.97461 8.48877 4.08691C8.61572 4.19922 8.6792 4.3457 8.6792 4.52637V8.44482H9.36035C9.47754 8.44482 9.57031 8.48145 9.63867 8.55469C9.70703 8.62793 9.74121 8.71826 9.74121 8.82568C9.74121 8.93799 9.70459 9.03076 9.63135 9.104C9.56299 9.17236 9.47266 9.20654 9.36035 9.20654H8.6792V10.188C8.6792 10.3345 8.64258 10.4492 8.56934 10.5322C8.49609 10.6152 8.39111 10.6567 8.25439 10.6567ZM7.83691 8.44482V4.69482H7.78564C7.65381 4.89502 7.50244 5.12207 7.33154 5.37598C7.16064 5.62988 6.98242 5.89844 6.79688 6.18164C6.61133 6.45996 6.42822 6.73584 6.24756 7.00928C6.06689 7.28271 5.90088 7.53906 5.74951 7.77832C5.59814 8.01758 5.46875 8.22754 5.36133 8.4082V8.44482H7.83691Z" fill="#7461EC"/>
</svg>
