<svg width="17" height="12" viewBox="0 0 17 12" fill="none" xmlns="http://www.w3.org/2000/svg">
<path d="M1.76034 11.8558C1.41294 11.8558 1.13936 11.7777 0.939605 11.6213C0.744191 11.4694 0.646484 11.2587 0.646484 10.9895C0.646484 10.5726 0.772418 10.1319 1.02428 9.66721C1.27615 9.20256 1.64092 8.76831 2.1186 8.36445C2.59628 7.95625 3.17167 7.62622 3.84476 7.37435C4.52219 7.11814 5.28213 6.99004 6.12458 6.99004C6.97138 6.99004 7.73132 7.11814 8.40441 7.37435C9.08185 7.62622 9.65723 7.95625 10.1306 8.36445C10.6082 8.76831 10.973 9.20256 11.2249 9.66721C11.4811 10.1319 11.6092 10.5726 11.6092 10.9895C11.6092 11.2587 11.5093 11.4694 11.3096 11.6213C11.1142 11.7777 10.8427 11.8558 10.4953 11.8558H1.76034ZM6.1311 5.82407C5.66645 5.82407 5.23654 5.69814 4.84137 5.44627C4.4462 5.19006 4.12702 4.847 3.88384 4.41709C3.645 3.98284 3.52558 3.49648 3.52558 2.958C3.52558 2.42821 3.645 1.95054 3.88384 1.52497C4.12702 1.0994 4.4462 0.762853 4.84137 0.515329C5.23654 0.267805 5.66645 0.144043 6.1311 0.144043C6.59575 0.144043 7.02566 0.265634 7.42083 0.508815C7.816 0.751997 8.133 1.08637 8.37184 1.51194C8.61502 1.93316 8.73662 2.41084 8.73662 2.94497C8.73662 3.48779 8.61502 3.97632 8.37184 4.41058C8.133 4.84483 7.816 5.19006 7.42083 5.44627C7.02566 5.69814 6.59575 5.82407 6.1311 5.82407ZM12.938 6.20838C12.8294 6.20838 12.7296 6.1845 12.6384 6.13673C12.5515 6.08897 12.4668 6.01297 12.3843 5.90875L10.795 3.95461C10.6951 3.81999 10.6452 3.68538 10.6452 3.55076C10.6452 3.40745 10.6929 3.28586 10.7885 3.18598C10.8883 3.08176 11.0078 3.02965 11.1467 3.02965C11.2379 3.02965 11.3204 3.04919 11.3942 3.08828C11.4724 3.12302 11.5506 3.1925 11.6287 3.29672L12.912 4.95774L15.6152 0.61955C15.7368 0.424136 15.8888 0.326429 16.0711 0.326429C16.2058 0.326429 16.3274 0.369854 16.4359 0.456705C16.5445 0.543555 16.5988 0.658632 16.5988 0.801936C16.5988 0.875759 16.5814 0.949582 16.5467 1.02341C16.5163 1.09289 16.4815 1.15802 16.4424 1.21882L13.4656 5.90875C13.3354 6.10851 13.1595 6.20838 12.938 6.20838Z" fill="#21A0FE"/>
</svg>
