<svg width="15" height="16" viewBox="0 0 15 16" fill="none" xmlns="http://www.w3.org/2000/svg">
<path d="M7.39893 15.3462C6.39307 15.3462 5.4458 15.1533 4.55713 14.7676C3.67334 14.3867 2.89209 13.8594 2.21338 13.1855C1.53955 12.5068 1.00977 11.7256 0.624023 10.8418C0.243164 9.95312 0.0527344 9.00586 0.0527344 8C0.0527344 6.99414 0.243164 6.04932 0.624023 5.16553C1.00977 4.27686 1.53955 3.49561 2.21338 2.82178C2.88721 2.14307 3.66602 1.61328 4.5498 1.23242C5.43848 0.84668 6.38574 0.653809 7.3916 0.653809C8.39746 0.653809 9.34473 0.84668 10.2334 1.23242C11.1221 1.61328 11.9033 2.14307 12.5771 2.82178C13.251 3.49561 13.7808 4.27686 14.1665 5.16553C14.5522 6.04932 14.7451 6.99414 14.7451 8C14.7451 9.00586 14.5522 9.95312 14.1665 10.8418C13.7808 11.7256 13.251 12.5068 12.5771 13.1855C11.9033 13.8594 11.1221 14.3867 10.2334 14.7676C9.34961 15.1533 8.40479 15.3462 7.39893 15.3462ZM7.39893 14.4014C8.28271 14.4014 9.11035 14.2354 9.88184 13.9033C10.6582 13.5713 11.3394 13.1123 11.9253 12.5264C12.5161 11.9404 12.9751 11.2617 13.3022 10.4902C13.6343 9.71387 13.8003 8.88379 13.8003 8C13.8003 7.11621 13.6343 6.28857 13.3022 5.51709C12.9702 4.74072 12.5112 4.05957 11.9253 3.47363C11.3394 2.88281 10.6582 2.42383 9.88184 2.09668C9.11035 1.76465 8.28027 1.59863 7.3916 1.59863C6.50781 1.59863 5.67773 1.76465 4.90137 2.09668C4.12988 2.42383 3.45117 2.88281 2.86523 3.47363C2.28418 4.05957 1.82764 4.74072 1.49561 5.51709C1.16846 6.28857 1.00488 7.11621 1.00488 8C1.00488 8.88379 1.16846 9.71387 1.49561 10.4902C1.82764 11.2617 2.28662 11.9404 2.87256 12.5264C3.4585 13.1123 4.13721 13.5713 4.90869 13.9033C5.68018 14.2354 6.51025 14.4014 7.39893 14.4014ZM7.73584 11.3105C7.59912 11.3105 7.4917 11.2666 7.41357 11.1787C7.33545 11.0908 7.29639 10.9688 7.29639 10.8125V5.67822H7.25244L6.10986 6.41797C6.05127 6.45703 6.00244 6.48389 5.96338 6.49854C5.9292 6.5083 5.89014 6.51318 5.84619 6.51318C5.74854 6.51318 5.66797 6.479 5.60449 6.41064C5.54102 6.3374 5.50928 6.25439 5.50928 6.16162C5.50928 6.0249 5.57031 5.91504 5.69238 5.83203L7.10596 4.89453C7.3208 4.74316 7.521 4.66748 7.70654 4.66748C7.85791 4.66748 7.97754 4.71143 8.06543 4.79932C8.15332 4.88721 8.19727 5.01172 8.19727 5.17285V10.8125C8.19727 10.9688 8.15576 11.0908 8.07275 11.1787C7.99463 11.2666 7.88232 11.3105 7.73584 11.3105Z" fill="#21A0FE"/>
</svg>
