<svg width="20" height="20" viewBox="0 0 20 20" fill="none" xmlns="http://www.w3.org/2000/svg">
<path d="M9.96289 19.0527C8.67025 19.0527 7.45182 18.8053 6.30762 18.3105C5.1696 17.8158 4.16455 17.1323 3.29248 16.2603C2.42041 15.3882 1.73698 14.3831 1.24219 13.2451C0.747396 12.1009 0.5 10.8825 0.5 9.58984C0.5 8.2972 0.747396 7.08187 1.24219 5.94385C1.73698 4.79964 2.41732 3.7915 3.2832 2.91943C4.15527 2.04736 5.16032 1.36393 6.29834 0.869141C7.44255 0.374349 8.66097 0.126953 9.95361 0.126953C11.2463 0.126953 12.4647 0.374349 13.6089 0.869141C14.7531 1.36393 15.7612 2.04736 16.6333 2.91943C17.5054 3.7915 18.1888 4.79964 18.6836 5.94385C19.1784 7.08187 19.4258 8.2972 19.4258 9.58984C19.4258 10.8825 19.1784 12.1009 18.6836 13.2451C18.1888 14.3831 17.5054 15.3882 16.6333 16.2603C15.7612 17.1323 14.7531 17.8158 13.6089 18.3105C12.4709 18.8053 11.2555 19.0527 9.96289 19.0527ZM9.89795 14.145C10.9246 14.145 11.7349 13.9038 12.3286 13.4214C12.9224 12.9328 13.2192 12.3112 13.2192 11.5566C13.2192 10.9938 13.0275 10.5114 12.644 10.1094C12.2668 9.70736 11.7874 9.47852 11.2061 9.42285V9.34863C11.6885 9.2806 12.0936 9.05176 12.4214 8.66211C12.7492 8.27246 12.9131 7.82715 12.9131 7.32617C12.9131 6.6582 12.6379 6.11084 12.0874 5.68408C11.5431 5.25114 10.8411 5.03467 9.98145 5.03467C9.20215 5.03467 8.54036 5.20166 7.99609 5.53564C7.45182 5.86963 7.11475 6.32113 6.98486 6.89014C6.97249 6.95817 6.96012 7.02002 6.94775 7.07568C6.94157 7.13135 6.93848 7.19629 6.93848 7.27051C6.93848 7.46224 7.00033 7.61686 7.12402 7.73438C7.24772 7.85189 7.40544 7.91064 7.59717 7.91064C7.92497 7.91064 8.14453 7.74365 8.25586 7.40967C8.361 7.05713 8.55892 6.77572 8.84961 6.56543C9.1403 6.35514 9.5083 6.25 9.95361 6.25C10.4299 6.25 10.804 6.36133 11.0762 6.58398C11.3545 6.80664 11.4937 7.1097 11.4937 7.49316C11.4937 7.889 11.3452 8.2168 11.0483 8.47656C10.7515 8.73014 10.3742 8.85693 9.9165 8.85693H9.31348C9.1403 8.85693 8.99805 8.9126 8.88672 9.02393C8.77539 9.13525 8.71973 9.2806 8.71973 9.45996C8.71973 9.62695 8.77539 9.76611 8.88672 9.87744C8.99805 9.98877 9.1403 10.0444 9.31348 10.0444H9.97217C10.5103 10.0444 10.9463 10.1805 11.2803 10.4526C11.6204 10.7186 11.7905 11.068 11.7905 11.501C11.7905 11.9277 11.6174 12.271 11.271 12.5308C10.9308 12.7905 10.4824 12.9204 9.92578 12.9204C9.40625 12.9204 8.99805 12.8091 8.70117 12.5864C8.4043 12.3638 8.1971 12.0885 8.07959 11.7607C7.95589 11.4329 7.73633 11.269 7.4209 11.269C7.22298 11.269 7.06217 11.3309 6.93848 11.4546C6.81478 11.5783 6.75293 11.736 6.75293 11.9277C6.75293 12.0391 6.76839 12.1597 6.79932 12.2896C6.94157 12.8462 7.2972 13.2946 7.86621 13.6348C8.43522 13.9749 9.11247 14.145 9.89795 14.145Z" fill="#3C6689"/>
</svg>
