<svg width="20" height="20" viewBox="0 0 20 20" fill="none" xmlns="http://www.w3.org/2000/svg">
<path d="M9.96289 19.1929C8.67025 19.1929 7.45182 18.9455 6.30762 18.4507C5.1696 17.9559 4.16455 17.2725 3.29248 16.4004C2.42041 15.5283 1.73698 14.5233 1.24219 13.3853C0.747396 12.241 0.5 11.0226 0.5 9.72998C0.5 8.43734 0.747396 7.22201 1.24219 6.08398C1.73698 4.93978 2.41732 3.93164 3.2832 3.05957C4.15527 2.1875 5.16032 1.50407 6.29834 1.00928C7.44255 0.514486 8.66097 0.26709 9.95361 0.26709C11.2463 0.26709 12.4647 0.514486 13.6089 1.00928C14.7531 1.50407 15.7612 2.1875 16.6333 3.05957C17.5054 3.93164 18.1888 4.93978 18.6836 6.08398C19.1784 7.22201 19.4258 8.43734 19.4258 9.72998C19.4258 11.0226 19.1784 12.241 18.6836 13.3853C18.1888 14.5233 17.5054 15.5283 16.6333 16.4004C15.7612 17.2725 14.7531 17.9559 13.6089 18.4507C12.4709 18.9455 11.2555 19.1929 9.96289 19.1929ZM10.4546 14.0811C10.7082 14.0811 10.8999 14.0068 11.0298 13.8584C11.1659 13.7038 11.2339 13.4904 11.2339 13.2183V6.23242C11.2339 5.9541 11.1628 5.74072 11.0205 5.59229C10.8783 5.44385 10.6772 5.36963 10.4175 5.36963C10.2381 5.36963 10.0742 5.39746 9.92578 5.45312C9.77734 5.5026 9.60417 5.59847 9.40625 5.74072L7.68066 6.90967C7.57552 6.98389 7.49821 7.06429 7.44873 7.15088C7.40544 7.23128 7.38379 7.33024 7.38379 7.44775C7.38379 7.59619 7.43636 7.72917 7.5415 7.84668C7.64665 7.96419 7.77653 8.02295 7.93115 8.02295C8.00537 8.02295 8.0734 8.01367 8.13525 7.99512C8.1971 7.97656 8.28369 7.92708 8.39502 7.84668L9.63818 7.03955H9.70312V13.2183C9.70312 13.4904 9.76807 13.7038 9.89795 13.8584C10.034 14.0068 10.2196 14.0811 10.4546 14.0811Z" fill="#3C6689"/>
</svg>
