<svg width="16" height="15" viewBox="0 0 16 15" fill="none" xmlns="http://www.w3.org/2000/svg">
<path d="M7.84619 14.6924C6.84033 14.6924 5.89307 14.4995 5.00439 14.1138C4.12061 13.7329 3.33936 13.2056 2.66064 12.5317C1.98682 11.853 1.45703 11.0718 1.07129 10.188C0.69043 9.29932 0.5 8.35205 0.5 7.34619C0.5 6.34033 0.69043 5.39551 1.07129 4.51172C1.45703 3.62305 1.98682 2.8418 2.66064 2.16797C3.33447 1.48926 4.11328 0.959473 4.99707 0.578613C5.88574 0.192871 6.83301 0 7.83887 0C8.84473 0 9.79199 0.192871 10.6807 0.578613C11.5693 0.959473 12.3506 1.48926 13.0244 2.16797C13.6982 2.8418 14.228 3.62305 14.6138 4.51172C14.9995 5.39551 15.1924 6.34033 15.1924 7.34619C15.1924 8.35205 14.9995 9.29932 14.6138 10.188C14.228 11.0718 13.6982 11.853 13.0244 12.5317C12.3506 13.2056 11.5693 13.7329 10.6807 14.1138C9.79688 14.4995 8.85205 14.6924 7.84619 14.6924ZM7.84619 13.7476C8.72998 13.7476 9.55762 13.5815 10.3291 13.2495C11.1055 12.9175 11.7866 12.4585 12.3726 11.8726C12.9634 11.2866 13.4224 10.6079 13.7495 9.83643C14.0815 9.06006 14.2476 8.22998 14.2476 7.34619C14.2476 6.4624 14.0815 5.63477 13.7495 4.86328C13.4175 4.08691 12.9585 3.40576 12.3726 2.81982C11.7866 2.229 11.1055 1.77002 10.3291 1.44287C9.55762 1.11084 8.72754 0.944824 7.83887 0.944824C6.95508 0.944824 6.125 1.11084 5.34863 1.44287C4.57715 1.77002 3.89844 2.229 3.3125 2.81982C2.73145 3.40576 2.2749 4.08691 1.94287 4.86328C1.61572 5.63477 1.45215 6.4624 1.45215 7.34619C1.45215 8.22998 1.61572 9.06006 1.94287 9.83643C2.2749 10.6079 2.73389 11.2866 3.31982 11.8726C3.90576 12.4585 4.58447 12.9175 5.35596 13.2495C6.12744 13.5815 6.95752 13.7476 7.84619 13.7476ZM8.75439 10.6567C8.62744 10.6567 8.5249 10.6152 8.44678 10.5322C8.37354 10.4443 8.33691 10.3296 8.33691 10.188V9.20654H5.61963C5.4292 9.20654 5.27783 9.15527 5.16553 9.05273C5.05811 8.94531 5.00439 8.80371 5.00439 8.62793C5.00439 8.54492 5.0166 8.46436 5.04102 8.38623C5.06543 8.30322 5.10449 8.21777 5.1582 8.12988C5.30957 7.88574 5.48779 7.60742 5.69287 7.29492C5.89795 6.97754 6.11279 6.65039 6.3374 6.31348C6.56689 5.97168 6.7915 5.63721 7.01123 5.31006C7.23096 4.98291 7.43115 4.68506 7.61182 4.4165C7.729 4.23584 7.85352 4.10889 7.98535 4.03564C8.12207 3.95752 8.29053 3.91846 8.49072 3.91846C8.6958 3.91846 8.86182 3.97461 8.98877 4.08691C9.11572 4.19922 9.1792 4.3457 9.1792 4.52637V8.44482H9.86035C9.97754 8.44482 10.0703 8.48145 10.1387 8.55469C10.207 8.62793 10.2412 8.71826 10.2412 8.82568C10.2412 8.93799 10.2046 9.03076 10.1313 9.104C10.063 9.17236 9.97266 9.20654 9.86035 9.20654H9.1792V10.188C9.1792 10.3345 9.14258 10.4492 9.06934 10.5322C8.99609 10.6152 8.89111 10.6567 8.75439 10.6567ZM8.33691 8.44482V4.69482H8.28564C8.15381 4.89502 8.00244 5.12207 7.83154 5.37598C7.66064 5.62988 7.48242 5.89844 7.29688 6.18164C7.11133 6.45996 6.92822 6.73584 6.74756 7.00928C6.56689 7.28271 6.40088 7.53906 6.24951 7.77832C6.09814 8.01758 5.96875 8.22754 5.86133 8.4082V8.44482H8.33691Z" fill="#21A0FE"/>
</svg>
