<svg width="620" height="364" viewBox="0 0 620 364" fill="none" xmlns="http://www.w3.org/2000/svg">
<g clip-path="url(#clip0_110_3745)">
<rect x="0.5" width="619" height="364" rx="16" fill="url(#paint0_linear_110_3745)"/>
<g filter="url(#filter0_d_110_3745)">
<rect x="15.5" y="216" width="260" height="133" rx="8" fill="white" shape-rendering="crispEdges"/>
<path d="M27.67 236.304V234.904H30.12C30.456 234.904 30.75 234.839 31.002 234.708C31.2633 234.568 31.4687 234.377 31.618 234.134C31.7673 233.882 31.842 233.588 31.842 233.252C31.842 232.916 31.7673 232.627 31.618 232.384C31.4687 232.132 31.2633 231.941 31.002 231.81C30.75 231.67 30.456 231.6 30.12 231.6H27.67V230.2H30.204C30.82 230.2 31.3707 230.326 31.856 230.578C32.3507 230.83 32.738 231.185 33.018 231.642C33.3073 232.099 33.452 232.636 33.452 233.252C33.452 233.868 33.3073 234.405 33.018 234.862C32.738 235.319 32.3507 235.674 31.856 235.926C31.3707 236.178 30.82 236.304 30.204 236.304H27.67ZM26.564 240V230.2H28.174V240H26.564ZM34.8032 240V233.28H36.3432V240H34.8032ZM36.3432 236.262L35.8112 235.996C35.8112 235.147 35.9979 234.461 36.3712 233.938C36.7539 233.406 37.3279 233.14 38.0932 233.14C38.4292 233.14 38.7326 233.201 39.0032 233.322C39.2739 233.443 39.5259 233.639 39.7592 233.91L38.7512 234.946C38.6299 234.815 38.4946 234.722 38.3452 234.666C38.1959 234.61 38.0232 234.582 37.8272 234.582C37.3979 234.582 37.0432 234.717 36.7632 234.988C36.4832 235.259 36.3432 235.683 36.3432 236.262ZM43.3793 240.14C42.726 240.14 42.1333 239.986 41.6013 239.678C41.0693 239.361 40.6446 238.936 40.3273 238.404C40.0193 237.872 39.8653 237.279 39.8653 236.626C39.8653 235.973 40.0193 235.385 40.3273 234.862C40.6446 234.339 41.0693 233.924 41.6013 233.616C42.1333 233.299 42.726 233.14 43.3793 233.14C44.042 233.14 44.6393 233.294 45.1713 233.602C45.7033 233.91 46.1233 234.33 46.4313 234.862C46.7486 235.385 46.9073 235.973 46.9073 236.626C46.9073 237.279 46.7486 237.872 46.4313 238.404C46.1233 238.936 45.7033 239.361 45.1713 239.678C44.6393 239.986 44.042 240.14 43.3793 240.14ZM43.3793 238.656C43.762 238.656 44.098 238.572 44.3873 238.404C44.686 238.227 44.9146 237.984 45.0733 237.676C45.2413 237.368 45.3253 237.018 45.3253 236.626C45.3253 236.234 45.2413 235.889 45.0733 235.59C44.9053 235.291 44.6766 235.058 44.3873 234.89C44.098 234.713 43.762 234.624 43.3793 234.624C43.006 234.624 42.67 234.713 42.3713 234.89C42.082 235.058 41.8533 235.291 41.6853 235.59C41.5266 235.889 41.4473 236.234 41.4473 236.626C41.4473 237.018 41.5266 237.368 41.6853 237.676C41.8533 237.984 42.082 238.227 42.3713 238.404C42.67 238.572 43.006 238.656 43.3793 238.656ZM48.9206 240V232.118C48.9206 231.67 49.0186 231.273 49.2146 230.928C49.4199 230.573 49.6999 230.293 50.0546 230.088C50.4092 229.883 50.8246 229.78 51.3006 229.78C51.6552 229.78 51.9632 229.841 52.2246 229.962C52.4952 230.074 52.7472 230.237 52.9806 230.452L51.9726 231.46C51.8792 231.385 51.7766 231.329 51.6646 231.292C51.5619 231.245 51.4406 231.222 51.3006 231.222C51.0299 231.222 50.8199 231.301 50.6706 231.46C50.5306 231.619 50.4606 231.833 50.4606 232.104V240H48.9206ZM47.3106 234.68V233.28H53.8626V234.68H47.3106ZM52.9806 240V233.28H54.5206V240H52.9806ZM53.7506 232.692C53.4892 232.692 53.2699 232.603 53.0926 232.426C52.9246 232.249 52.8406 232.029 52.8406 231.768C52.8406 231.507 52.9246 231.287 53.0926 231.11C53.2699 230.933 53.4892 230.844 53.7506 230.844C54.0212 230.844 54.2406 230.933 54.4086 231.11C54.5766 231.287 54.6606 231.507 54.6606 231.768C54.6606 232.029 54.5766 232.249 54.4086 232.426C54.2406 232.603 54.0212 232.692 53.7506 232.692ZM56.2407 240V229.92H57.7807V240H56.2407ZM62.6166 240.14C61.9446 240.14 61.338 239.991 60.7966 239.692C60.2646 239.384 59.84 238.964 59.5226 238.432C59.2146 237.9 59.0606 237.303 59.0606 236.64C59.0606 235.977 59.2146 235.385 59.5226 234.862C59.8306 234.33 60.246 233.91 60.7686 233.602C61.3006 233.294 61.8886 233.14 62.5326 233.14C63.158 233.14 63.7086 233.285 64.1846 233.574C64.67 233.863 65.048 234.26 65.3186 234.764C65.5986 235.268 65.7386 235.842 65.7386 236.486C65.7386 236.598 65.7293 236.715 65.7106 236.836C65.7013 236.948 65.6826 237.074 65.6546 237.214H60.1386V235.954H64.8566L64.2826 236.458C64.264 236.047 64.1846 235.702 64.0446 235.422C63.9046 235.142 63.704 234.927 63.4426 234.778C63.1906 234.629 62.878 234.554 62.5046 234.554C62.1126 234.554 61.772 234.638 61.4826 234.806C61.1933 234.974 60.9693 235.212 60.8106 235.52C60.652 235.819 60.5726 236.178 60.5726 236.598C60.5726 237.018 60.6566 237.387 60.8246 237.704C60.9926 238.021 61.2306 238.269 61.5386 238.446C61.8466 238.614 62.2013 238.698 62.6026 238.698C62.948 238.698 63.2653 238.637 63.5546 238.516C63.8533 238.395 64.1053 238.217 64.3106 237.984L65.2906 238.978C64.964 239.361 64.5673 239.65 64.1006 239.846C63.634 240.042 63.1393 240.14 62.6166 240.14Z" fill="#08B64D"/>
<path d="M56.8456 262V253.6H57.8056L58.2256 255.184V262H56.8456ZM62.6656 262L57.6376 255.436L57.8056 253.6L62.8336 260.164L62.6656 262ZM62.6656 262L62.2456 260.524V253.6H63.6256V262H62.6656ZM67.6792 262.12C67.1592 262.12 66.6872 261.988 66.2632 261.724C65.8472 261.46 65.5152 261.104 65.2672 260.656C65.0272 260.2 64.9072 259.692 64.9072 259.132C64.9072 258.564 65.0272 258.056 65.2672 257.608C65.5152 257.152 65.8472 256.792 66.2632 256.528C66.6872 256.256 67.1592 256.12 67.6792 256.12C68.1192 256.12 68.5072 256.216 68.8432 256.408C69.1872 256.592 69.4592 256.848 69.6592 257.176C69.8592 257.504 69.9592 257.876 69.9592 258.292V259.948C69.9592 260.364 69.8592 260.736 69.6592 261.064C69.4672 261.392 69.1992 261.652 68.8552 261.844C68.5112 262.028 68.1192 262.12 67.6792 262.12ZM67.8952 260.872C68.3832 260.872 68.7752 260.708 69.0712 260.38C69.3752 260.052 69.5272 259.632 69.5272 259.12C69.5272 258.776 69.4592 258.472 69.3232 258.208C69.1872 257.944 68.9952 257.74 68.7472 257.596C68.5072 257.444 68.2232 257.368 67.8952 257.368C67.5752 257.368 67.2912 257.444 67.0432 257.596C66.8032 257.74 66.6112 257.944 66.4672 258.208C66.3312 258.472 66.2632 258.776 66.2632 259.12C66.2632 259.464 66.3312 259.768 66.4672 260.032C66.6112 260.296 66.8032 260.504 67.0432 260.656C67.2912 260.8 67.5752 260.872 67.8952 260.872ZM69.4432 262V260.452L69.6712 259.048L69.4432 257.656V256.24H70.7632V262H69.4432ZM72.2281 262V256.24H73.5481V262H72.2281ZM76.0561 262V258.568C76.0561 258.184 75.9361 257.888 75.6961 257.68C75.4561 257.464 75.1601 257.356 74.8081 257.356C74.5681 257.356 74.3521 257.404 74.1601 257.5C73.9761 257.596 73.8281 257.736 73.7161 257.92C73.6041 258.096 73.5481 258.312 73.5481 258.568L73.0321 258.28C73.0321 257.84 73.1281 257.46 73.3201 257.14C73.5121 256.82 73.7721 256.572 74.1001 256.396C74.4281 256.212 74.7961 256.12 75.2041 256.12C75.6121 256.12 75.9801 256.208 76.3081 256.384C76.6361 256.56 76.8961 256.808 77.0881 257.128C77.2801 257.448 77.3761 257.832 77.3761 258.28V262H76.0561ZM79.8841 262V258.568C79.8841 258.184 79.7641 257.888 79.5241 257.68C79.2841 257.464 78.9881 257.356 78.6361 257.356C78.4041 257.356 78.1921 257.404 78.0001 257.5C77.8081 257.596 77.6561 257.736 77.5441 257.92C77.4321 258.096 77.3761 258.312 77.3761 258.568L76.6321 258.28C76.6721 257.84 76.8001 257.46 77.0161 257.14C77.2321 256.82 77.5081 256.572 77.8441 256.396C78.1881 256.212 78.5641 256.12 78.9721 256.12C79.3881 256.12 79.7641 256.208 80.1001 256.384C80.4361 256.56 80.7041 256.808 80.9041 257.128C81.1041 257.448 81.2041 257.832 81.2041 258.28V262H79.8841ZM85.24 262.12C84.664 262.12 84.144 261.992 83.68 261.736C83.224 261.472 82.86 261.112 82.588 260.656C82.324 260.2 82.192 259.688 82.192 259.12C82.192 258.552 82.324 258.044 82.588 257.596C82.852 257.14 83.208 256.78 83.656 256.516C84.112 256.252 84.616 256.12 85.168 256.12C85.704 256.12 86.176 256.244 86.584 256.492C87 256.74 87.324 257.08 87.556 257.512C87.796 257.944 87.916 258.436 87.916 258.988C87.916 259.084 87.908 259.184 87.892 259.288C87.884 259.384 87.868 259.492 87.844 259.612H83.116V258.532H87.16L86.668 258.964C86.652 258.612 86.584 258.316 86.464 258.076C86.344 257.836 86.172 257.652 85.948 257.524C85.732 257.396 85.464 257.332 85.144 257.332C84.808 257.332 84.516 257.404 84.268 257.548C84.02 257.692 83.828 257.896 83.692 258.16C83.556 258.416 83.488 258.724 83.488 259.084C83.488 259.444 83.56 259.76 83.704 260.032C83.848 260.304 84.052 260.516 84.316 260.668C84.58 260.812 84.884 260.884 85.228 260.884C85.524 260.884 85.796 260.832 86.044 260.728C86.3 260.624 86.516 260.472 86.692 260.272L87.532 261.124C87.252 261.452 86.912 261.7 86.512 261.868C86.112 262.036 85.688 262.12 85.24 262.12ZM89.8622 262.12C89.6062 262.12 89.3942 262.036 89.2262 261.868C89.0662 261.692 88.9862 261.48 88.9862 261.232C88.9862 260.976 89.0662 260.764 89.2262 260.596C89.3942 260.428 89.6062 260.344 89.8622 260.344C90.1182 260.344 90.3262 260.428 90.4862 260.596C90.6542 260.764 90.7382 260.976 90.7382 261.232C90.7382 261.48 90.6542 261.692 90.4862 261.868C90.3262 262.036 90.1182 262.12 89.8622 262.12ZM89.8622 258.412C89.6062 258.412 89.3942 258.328 89.2262 258.16C89.0662 257.984 88.9862 257.772 88.9862 257.524C88.9862 257.268 89.0662 257.056 89.2262 256.888C89.3942 256.72 89.6062 256.636 89.8622 256.636C90.1182 256.636 90.3262 256.72 90.4862 256.888C90.6542 257.056 90.7382 257.268 90.7382 257.524C90.7382 257.772 90.6542 257.984 90.4862 258.16C90.3262 258.328 90.1182 258.412 89.8622 258.412Z" fill="#282828"/>
<path d="M101.6 257.104V255.256H98.552V257.104H101.6ZM102.56 252.808V257.896H97.58V252.808H98.552V254.488H101.6V252.808H102.56ZM98.492 259.996V259.204H105.488V262.9H104.504V259.996H98.492ZM107.084 254.92V255.736H105.488V258.628H104.504V252.136H105.488V254.92H107.084ZM116.047 254.908H113.359C112.663 256.636 111.031 257.896 108.715 258.568L108.319 257.788C110.887 257.02 112.483 255.592 112.663 253.732H108.871V252.94H113.731C113.731 253.336 113.683 253.732 113.611 254.104H116.047V252.136H117.043V258.568H116.047V257.152H113.227V256.348H116.047V254.908ZM113.527 262.072C115.111 262.072 116.119 261.58 116.119 260.764C116.119 259.96 115.111 259.468 113.527 259.468C111.943 259.468 110.935 259.96 110.935 260.764C110.935 261.58 111.943 262.072 113.527 262.072ZM113.527 258.688C115.699 258.688 117.091 259.468 117.091 260.764C117.091 262.06 115.699 262.84 113.527 262.84C111.355 262.84 109.963 262.06 109.963 260.764C109.963 259.468 111.355 258.688 113.527 258.688ZM126.042 253.576V254.368H119.502V253.576H122.286V252.232H123.27V253.576H126.042ZM124.422 256.984C124.422 256.228 123.75 255.736 122.778 255.736C121.818 255.736 121.146 256.228 121.146 256.984C121.146 257.74 121.818 258.244 122.778 258.244C123.75 258.244 124.422 257.74 124.422 256.984ZM120.21 256.984C120.21 255.772 121.266 254.968 122.778 254.968C124.29 254.968 125.346 255.772 125.346 256.984C125.346 258.208 124.29 259 122.778 259C121.266 259 120.21 258.208 120.21 256.984ZM119.418 260.776L119.274 259.948C121.314 259.948 123.99 259.936 126.318 259.624L126.39 260.356C123.99 260.764 121.398 260.776 119.418 260.776ZM127.002 252.136H127.986V262.888H127.002V252.136Z" fill="#282828"/>
<path d="M67.1318 280L70.5878 271.6H71.5478L74.9798 280H73.4918L70.8038 273.196H71.3078L68.5958 280H67.1318ZM68.8358 278.38V277.18H73.2878V278.38H68.8358ZM78.0617 282.52C77.4537 282.52 76.9217 282.408 76.4657 282.184C76.0097 281.968 75.6417 281.66 75.3617 281.26L76.2257 280.396C76.4577 280.684 76.7217 280.9 77.0177 281.044C77.3137 281.188 77.6697 281.26 78.0857 281.26C78.6057 281.26 79.0177 281.124 79.3217 280.852C79.6257 280.588 79.7777 280.224 79.7777 279.76V278.344L80.0057 277.072L79.7777 275.788V274.24H81.0977V279.76C81.0977 280.312 80.9697 280.792 80.7137 281.2C80.4577 281.616 80.1017 281.94 79.6457 282.172C79.1897 282.404 78.6617 282.52 78.0617 282.52ZM78.0017 279.88C77.4897 279.88 77.0257 279.756 76.6097 279.508C76.2017 279.252 75.8777 278.904 75.6377 278.464C75.4057 278.024 75.2897 277.532 75.2897 276.988C75.2897 276.444 75.4057 275.956 75.6377 275.524C75.8777 275.092 76.2017 274.752 76.6097 274.504C77.0257 274.248 77.4897 274.12 78.0017 274.12C78.4577 274.12 78.8577 274.212 79.2017 274.396C79.5457 274.58 79.8137 274.836 80.0057 275.164C80.1977 275.484 80.2937 275.86 80.2937 276.292V277.708C80.2937 278.132 80.1937 278.508 79.9937 278.836C79.8017 279.164 79.5337 279.42 79.1897 279.604C78.8457 279.788 78.4497 279.88 78.0017 279.88ZM78.2657 278.632C78.5857 278.632 78.8657 278.564 79.1057 278.428C79.3457 278.292 79.5297 278.104 79.6577 277.864C79.7937 277.616 79.8617 277.328 79.8617 277C79.8617 276.672 79.7937 276.388 79.6577 276.148C79.5297 275.9 79.3457 275.708 79.1057 275.572C78.8657 275.436 78.5857 275.368 78.2657 275.368C77.9457 275.368 77.6617 275.436 77.4137 275.572C77.1737 275.708 76.9857 275.9 76.8497 276.148C76.7137 276.388 76.6457 276.672 76.6457 277C76.6457 277.32 76.7137 277.604 76.8497 277.852C76.9857 278.1 77.1737 278.292 77.4137 278.428C77.6617 278.564 77.9457 278.632 78.2657 278.632ZM85.24 280.12C84.664 280.12 84.144 279.992 83.68 279.736C83.224 279.472 82.86 279.112 82.588 278.656C82.324 278.2 82.192 277.688 82.192 277.12C82.192 276.552 82.324 276.044 82.588 275.596C82.852 275.14 83.208 274.78 83.656 274.516C84.112 274.252 84.616 274.12 85.168 274.12C85.704 274.12 86.176 274.244 86.584 274.492C87 274.74 87.324 275.08 87.556 275.512C87.796 275.944 87.916 276.436 87.916 276.988C87.916 277.084 87.908 277.184 87.892 277.288C87.884 277.384 87.868 277.492 87.844 277.612H83.116V276.532H87.16L86.668 276.964C86.652 276.612 86.584 276.316 86.464 276.076C86.344 275.836 86.172 275.652 85.948 275.524C85.732 275.396 85.464 275.332 85.144 275.332C84.808 275.332 84.516 275.404 84.268 275.548C84.02 275.692 83.828 275.896 83.692 276.16C83.556 276.416 83.488 276.724 83.488 277.084C83.488 277.444 83.56 277.76 83.704 278.032C83.848 278.304 84.052 278.516 84.316 278.668C84.58 278.812 84.884 278.884 85.228 278.884C85.524 278.884 85.796 278.832 86.044 278.728C86.3 278.624 86.516 278.472 86.692 278.272L87.532 279.124C87.252 279.452 86.912 279.7 86.512 279.868C86.112 280.036 85.688 280.12 85.24 280.12ZM89.8622 280.12C89.6062 280.12 89.3942 280.036 89.2262 279.868C89.0662 279.692 88.9862 279.48 88.9862 279.232C88.9862 278.976 89.0662 278.764 89.2262 278.596C89.3942 278.428 89.6062 278.344 89.8622 278.344C90.1182 278.344 90.3262 278.428 90.4862 278.596C90.6542 278.764 90.7382 278.976 90.7382 279.232C90.7382 279.48 90.6542 279.692 90.4862 279.868C90.3262 280.036 90.1182 280.12 89.8622 280.12ZM89.8622 276.412C89.6062 276.412 89.3942 276.328 89.2262 276.16C89.0662 275.984 88.9862 275.772 88.9862 275.524C88.9862 275.268 89.0662 275.056 89.2262 274.888C89.3942 274.72 89.6062 274.636 89.8622 274.636C90.1182 274.636 90.3262 274.72 90.4862 274.888C90.6542 275.056 90.7382 275.268 90.7382 275.524C90.7382 275.772 90.6542 275.984 90.4862 276.16C90.3262 276.328 90.1182 276.412 89.8622 276.412Z" fill="#282828"/>
<path d="M96.956 277.264L100.04 271.744H101.024L97.892 277.264H96.956ZM96.956 277.816V277.264L97.328 277.024H103.208V277.816H96.956ZM101.12 280V274.492H101.984V280H101.12ZM103.94 279.46L107 276.268C107.352 275.892 107.624 275.576 107.816 275.32C108.016 275.064 108.152 274.832 108.224 274.624C108.304 274.408 108.344 274.184 108.344 273.952C108.344 273.48 108.196 273.112 107.9 272.848C107.604 272.576 107.212 272.44 106.724 272.44C106.276 272.44 105.884 272.548 105.548 272.764C105.212 272.972 104.912 273.288 104.648 273.712L104.036 273.172C104.356 272.668 104.74 272.284 105.188 272.02C105.636 271.756 106.156 271.624 106.748 271.624C107.244 271.624 107.676 271.72 108.044 271.912C108.42 272.104 108.708 272.376 108.908 272.728C109.116 273.08 109.22 273.492 109.22 273.964C109.22 274.292 109.176 274.592 109.088 274.864C109 275.128 108.844 275.408 108.62 275.704C108.404 275.992 108.096 276.344 107.696 276.76L105.104 279.424L103.94 279.46ZM103.94 280V279.46L104.66 279.208H109.424V280H103.94Z" fill="#282828"/>
<path d="M30.276 298.12C29.676 298.12 29.116 298.008 28.596 297.784C28.076 297.56 27.62 297.252 27.228 296.86C26.836 296.46 26.528 296 26.304 295.48C26.088 294.952 25.98 294.388 25.98 293.788C25.98 293.188 26.088 292.628 26.304 292.108C26.528 291.588 26.832 291.132 27.216 290.74C27.608 290.34 28.06 290.032 28.572 289.816C29.092 289.592 29.652 289.48 30.252 289.48C30.852 289.48 31.408 289.592 31.92 289.816C32.44 290.032 32.896 290.34 33.288 290.74C33.68 291.132 33.984 291.592 34.2 292.12C34.424 292.64 34.536 293.2 34.536 293.8C34.536 294.4 34.424 294.964 34.2 295.492C33.984 296.012 33.68 296.468 33.288 296.86C32.904 297.252 32.452 297.56 31.932 297.784C31.42 298.008 30.868 298.12 30.276 298.12ZM30.252 296.8C30.82 296.8 31.316 296.672 31.74 296.416C32.172 296.16 32.508 295.808 32.748 295.36C32.996 294.904 33.12 294.38 33.12 293.788C33.12 293.348 33.048 292.948 32.904 292.588C32.768 292.22 32.572 291.904 32.316 291.64C32.06 291.368 31.756 291.16 31.404 291.016C31.06 290.872 30.676 290.8 30.252 290.8C29.692 290.8 29.196 290.928 28.764 291.184C28.34 291.432 28.004 291.78 27.756 292.228C27.516 292.676 27.396 293.196 27.396 293.788C27.396 294.228 27.464 294.636 27.6 295.012C27.744 295.38 27.94 295.696 28.188 295.96C28.444 296.224 28.748 296.432 29.1 296.584C29.452 296.728 29.836 296.8 30.252 296.8ZM38.4113 298.12C37.8433 298.12 37.3273 297.988 36.8633 297.724C36.4073 297.46 36.0473 297.1 35.7833 296.644C35.5193 296.188 35.3873 295.68 35.3873 295.12C35.3873 294.552 35.5193 294.044 35.7833 293.596C36.0473 293.14 36.4073 292.78 36.8633 292.516C37.3273 292.252 37.8433 292.12 38.4113 292.12C38.8593 292.12 39.2753 292.208 39.6593 292.384C40.0513 292.552 40.3833 292.796 40.6553 293.116L39.7913 293.992C39.6233 293.792 39.4193 293.644 39.1793 293.548C38.9473 293.444 38.6913 293.392 38.4113 293.392C38.0833 293.392 37.7913 293.468 37.5353 293.62C37.2873 293.764 37.0913 293.964 36.9473 294.22C36.8113 294.476 36.7433 294.776 36.7433 295.12C36.7433 295.456 36.8113 295.756 36.9473 296.02C37.0913 296.276 37.2873 296.48 37.5353 296.632C37.7913 296.776 38.0833 296.848 38.4113 296.848C38.6913 296.848 38.9473 296.8 39.1793 296.704C39.4193 296.6 39.6233 296.448 39.7913 296.248L40.6553 297.124C40.3833 297.444 40.0513 297.692 39.6593 297.868C39.2753 298.036 38.8593 298.12 38.4113 298.12ZM44.1418 298.12C43.5738 298.12 43.0578 297.988 42.5938 297.724C42.1378 297.46 41.7778 297.1 41.5138 296.644C41.2498 296.188 41.1178 295.68 41.1178 295.12C41.1178 294.552 41.2498 294.044 41.5138 293.596C41.7778 293.14 42.1378 292.78 42.5938 292.516C43.0578 292.252 43.5738 292.12 44.1418 292.12C44.5898 292.12 45.0058 292.208 45.3898 292.384C45.7818 292.552 46.1138 292.796 46.3858 293.116L45.5218 293.992C45.3538 293.792 45.1498 293.644 44.9098 293.548C44.6778 293.444 44.4218 293.392 44.1418 293.392C43.8138 293.392 43.5218 293.468 43.2658 293.62C43.0178 293.764 42.8218 293.964 42.6778 294.22C42.5418 294.476 42.4738 294.776 42.4738 295.12C42.4738 295.456 42.5418 295.756 42.6778 296.02C42.8218 296.276 43.0178 296.48 43.2658 296.632C43.5218 296.776 43.8138 296.848 44.1418 296.848C44.4218 296.848 44.6778 296.8 44.9098 296.704C45.1498 296.6 45.3538 296.448 45.5218 296.248L46.3858 297.124C46.1138 297.444 45.7818 297.692 45.3898 297.868C45.0058 298.036 44.5898 298.12 44.1418 298.12ZM49.7015 298.12C49.2135 298.12 48.7775 298.012 48.3935 297.796C48.0175 297.58 47.7215 297.284 47.5055 296.908C47.2975 296.524 47.1935 296.084 47.1935 295.588V292.24H48.5135V295.528C48.5135 295.808 48.5575 296.048 48.6455 296.248C48.7415 296.44 48.8775 296.588 49.0535 296.692C49.2375 296.796 49.4535 296.848 49.7015 296.848C50.0855 296.848 50.3775 296.736 50.5775 296.512C50.7855 296.28 50.8895 295.952 50.8895 295.528V292.24H52.2095V295.588C52.2095 296.092 52.1015 296.536 51.8855 296.92C51.6775 297.296 51.3855 297.592 51.0095 297.808C50.6335 298.016 50.1975 298.12 49.7015 298.12ZM56.6207 298.12C56.1807 298.12 55.7887 298.028 55.4447 297.844C55.1007 297.652 54.8287 297.392 54.6287 297.064C54.4367 296.736 54.3407 296.364 54.3407 295.948V294.292C54.3407 293.876 54.4407 293.504 54.6407 293.176C54.8407 292.848 55.1127 292.592 55.4567 292.408C55.8007 292.216 56.1887 292.12 56.6207 292.12C57.1407 292.12 57.6087 292.256 58.0247 292.528C58.4487 292.792 58.7807 293.152 59.0207 293.608C59.2687 294.056 59.3927 294.564 59.3927 295.132C59.3927 295.692 59.2687 296.2 59.0207 296.656C58.7807 297.104 58.4487 297.46 58.0247 297.724C57.6087 297.988 57.1407 298.12 56.6207 298.12ZM56.4047 296.872C56.7247 296.872 57.0047 296.8 57.2447 296.656C57.4927 296.504 57.6847 296.296 57.8207 296.032C57.9647 295.768 58.0367 295.464 58.0367 295.12C58.0367 294.776 57.9647 294.472 57.8207 294.208C57.6847 293.944 57.4927 293.74 57.2447 293.596C57.0047 293.444 56.7247 293.368 56.4047 293.368C56.0847 293.368 55.8007 293.444 55.5527 293.596C55.3047 293.74 55.1127 293.944 54.9767 294.208C54.8407 294.472 54.7727 294.776 54.7727 295.12C54.7727 295.464 54.8407 295.768 54.9767 296.032C55.1127 296.296 55.3047 296.504 55.5527 296.656C55.8007 296.8 56.0847 296.872 56.4047 296.872ZM53.5367 300.4V292.24H54.8567V293.788L54.6287 295.192L54.8567 296.584V300.4H53.5367ZM62.9096 298.12C62.3896 298.12 61.9176 297.988 61.4936 297.724C61.0776 297.46 60.7456 297.104 60.4976 296.656C60.2576 296.2 60.1376 295.692 60.1376 295.132C60.1376 294.564 60.2576 294.056 60.4976 293.608C60.7456 293.152 61.0776 292.792 61.4936 292.528C61.9176 292.256 62.3896 292.12 62.9096 292.12C63.3496 292.12 63.7376 292.216 64.0736 292.408C64.4176 292.592 64.6896 292.848 64.8896 293.176C65.0896 293.504 65.1896 293.876 65.1896 294.292V295.948C65.1896 296.364 65.0896 296.736 64.8896 297.064C64.6976 297.392 64.4296 297.652 64.0856 297.844C63.7416 298.028 63.3496 298.12 62.9096 298.12ZM63.1256 296.872C63.6136 296.872 64.0056 296.708 64.3016 296.38C64.6056 296.052 64.7576 295.632 64.7576 295.12C64.7576 294.776 64.6896 294.472 64.5536 294.208C64.4176 293.944 64.2256 293.74 63.9776 293.596C63.7376 293.444 63.4536 293.368 63.1256 293.368C62.8056 293.368 62.5216 293.444 62.2736 293.596C62.0336 293.74 61.8416 293.944 61.6976 294.208C61.5616 294.472 61.4936 294.776 61.4936 295.12C61.4936 295.464 61.5616 295.768 61.6976 296.032C61.8416 296.296 62.0336 296.504 62.2736 296.656C62.5216 296.8 62.8056 296.872 63.1256 296.872ZM64.6736 298V296.452L64.9016 295.048L64.6736 293.656V292.24H65.9936V298H64.6736ZM68.3346 298V289.84H69.6546V298H68.3346ZM66.9546 293.44V292.24H71.0346V293.44H66.9546ZM74.4697 298.12C73.9097 298.12 73.4017 297.988 72.9457 297.724C72.4897 297.452 72.1257 297.088 71.8537 296.632C71.5897 296.176 71.4577 295.668 71.4577 295.108C71.4577 294.548 71.5897 294.044 71.8537 293.596C72.1257 293.148 72.4897 292.792 72.9457 292.528C73.4017 292.256 73.9097 292.12 74.4697 292.12C75.0377 292.12 75.5497 292.252 76.0057 292.516C76.4617 292.78 76.8217 293.14 77.0857 293.596C77.3577 294.044 77.4937 294.548 77.4937 295.108C77.4937 295.668 77.3577 296.176 77.0857 296.632C76.8217 297.088 76.4617 297.452 76.0057 297.724C75.5497 297.988 75.0377 298.12 74.4697 298.12ZM74.4697 296.848C74.7977 296.848 75.0857 296.776 75.3337 296.632C75.5897 296.48 75.7857 296.272 75.9217 296.008C76.0657 295.744 76.1377 295.444 76.1377 295.108C76.1377 294.772 76.0657 294.476 75.9217 294.22C75.7777 293.964 75.5817 293.764 75.3337 293.62C75.0857 293.468 74.7977 293.392 74.4697 293.392C74.1497 293.392 73.8617 293.468 73.6057 293.62C73.3577 293.764 73.1617 293.964 73.0177 294.22C72.8817 294.476 72.8137 294.772 72.8137 295.108C72.8137 295.444 72.8817 295.744 73.0177 296.008C73.1617 296.272 73.3577 296.48 73.6057 296.632C73.8617 296.776 74.1497 296.848 74.4697 296.848ZM78.6034 298V292.24H79.9234V298H78.6034ZM79.2634 291.184C79.0394 291.184 78.8514 291.108 78.6994 290.956C78.5554 290.804 78.4834 290.616 78.4834 290.392C78.4834 290.168 78.5554 289.98 78.6994 289.828C78.8514 289.676 79.0394 289.6 79.2634 289.6C79.4954 289.6 79.6834 289.676 79.8274 289.828C79.9714 289.98 80.0434 290.168 80.0434 290.392C80.0434 290.616 79.9714 290.804 79.8274 290.956C79.6834 291.108 79.4954 291.184 79.2634 291.184ZM85.3519 298V294.676C85.3519 294.292 85.2279 293.976 84.9799 293.728C84.7399 293.48 84.4279 293.356 84.0439 293.356C83.7879 293.356 83.5599 293.412 83.3599 293.524C83.1599 293.636 83.0039 293.792 82.8919 293.992C82.7799 294.192 82.7239 294.42 82.7239 294.676L82.2079 294.388C82.2079 293.948 82.3039 293.56 82.4959 293.224C82.6879 292.88 82.9519 292.612 83.2879 292.42C83.6319 292.22 84.0159 292.12 84.4399 292.12C84.8719 292.12 85.2559 292.232 85.5919 292.456C85.9279 292.672 86.1919 292.956 86.3839 293.308C86.5759 293.652 86.6719 294.012 86.6719 294.388V298H85.3519ZM81.4039 298V292.24H82.7239V298H81.4039ZM88.9013 298.12C88.6453 298.12 88.4333 298.036 88.2653 297.868C88.1053 297.692 88.0253 297.48 88.0253 297.232C88.0253 296.976 88.1053 296.764 88.2653 296.596C88.4333 296.428 88.6453 296.344 88.9013 296.344C89.1573 296.344 89.3653 296.428 89.5253 296.596C89.6933 296.764 89.7773 296.976 89.7773 297.232C89.7773 297.48 89.6933 297.692 89.5253 297.868C89.3653 298.036 89.1573 298.12 88.9013 298.12ZM88.9013 294.412C88.6453 294.412 88.4333 294.328 88.2653 294.16C88.1053 293.984 88.0253 293.772 88.0253 293.524C88.0253 293.268 88.1053 293.056 88.2653 292.888C88.4333 292.72 88.6453 292.636 88.9013 292.636C89.1573 292.636 89.3653 292.72 89.5253 292.888C89.6933 293.056 89.7773 293.268 89.7773 293.524C89.7773 293.772 89.6933 293.984 89.5253 294.16C89.3653 294.328 89.1573 294.412 88.9013 294.412Z" fill="#282828"/>
<path d="M100.904 289.048V290.98C100.904 292.936 102.128 294.892 103.688 295.636L103.112 296.416C101.888 295.804 100.904 294.52 100.412 293.008C99.944 294.604 98.948 295.96 97.736 296.608L97.136 295.828C98.696 295.048 99.92 292.972 99.92 290.98V289.048H100.904ZM105.02 288.124H106.004V298.9H105.02V292.576H102.524V291.772H105.02V288.124ZM113.035 288.988C111.271 288.988 110.263 289.396 110.263 290.116C110.263 290.836 111.271 291.244 113.035 291.244C114.799 291.244 115.807 290.836 115.807 290.116C115.807 289.396 114.799 288.988 113.035 288.988ZM113.035 291.976C110.671 291.976 109.255 291.328 109.255 290.116C109.255 288.904 110.671 288.244 113.035 288.244C115.411 288.244 116.815 288.904 116.815 290.116C116.815 291.328 115.411 291.976 113.035 291.976ZM117.895 293.476H113.527V294.484H116.659V296.908H110.335V298H116.983V298.768H109.375V296.188H115.687V295.228H109.351V294.484H112.543V293.476H108.175V292.684H117.895V293.476ZM120.57 290.236V295.42C122.01 295.408 123.03 295.348 124.206 295.096L124.29 295.912C123.006 296.188 121.914 296.236 120.306 296.236H119.598V289.432H123.606V290.236H120.57ZM127.41 288.124H128.358V298.888H127.41V293.248H125.886V298.348H124.962V288.364H125.886V292.444H127.41V288.124ZM136.637 289.264V290.056H130.289V289.264H132.965V288.064H133.949V289.264H136.637ZM131.825 292.552C131.825 293.272 132.473 293.74 133.457 293.74C134.441 293.74 135.101 293.272 135.101 292.552C135.101 291.844 134.441 291.376 133.457 291.376C132.473 291.376 131.825 291.844 131.825 292.552ZM136.037 292.552C136.037 293.74 134.993 294.496 133.457 294.496C131.933 294.496 130.889 293.74 130.889 292.552C130.889 291.376 131.933 290.608 133.457 290.608C134.993 290.608 136.037 291.376 136.037 292.552ZM131.621 296.248V295.444H138.605V298.9H137.621V296.248H131.621ZM140.201 291.1V291.916H138.605V294.856H137.621V288.136H138.605V291.1H140.201ZM148.9 290.392V290.008H142.3V289.204H149.884V290.392C149.884 291.76 149.884 293.164 149.5 295.18L148.528 295.06C148.9 293.14 148.9 291.724 148.9 290.392ZM147.316 296.572H151.024V297.376H141.292V296.572H143.68V293.008H144.652V296.572H146.344V293.008H147.316V296.572ZM103.532 307.18V307.912H97.352V307.18H99.956V306.088H100.94V307.18H103.532ZM98.864 310.012C98.864 310.612 99.476 310.972 100.448 310.972C101.396 310.972 102.02 310.612 102.02 310.012C102.02 309.436 101.396 309.064 100.448 309.064C99.476 309.064 98.864 309.436 98.864 310.012ZM103.856 312.136L103.928 312.844C101.648 313.264 99.068 313.3 97.196 313.312L97.088 312.52C97.928 312.52 98.924 312.508 99.956 312.472V311.656C98.72 311.536 97.928 310.936 97.928 310.012C97.928 308.992 98.936 308.368 100.448 308.368C101.948 308.368 102.956 308.992 102.956 310.012C102.956 310.936 102.176 311.524 100.94 311.656V312.424C101.924 312.376 102.932 312.292 103.856 312.136ZM99.656 313.984V315.844H105.86V316.648H98.672V313.984H99.656ZM105.476 309.88H107.048V310.696H105.476V314.548H104.492V306.124H105.476V309.88ZM116.047 308.908H113.359C112.663 310.636 111.031 311.896 108.715 312.568L108.319 311.788C110.887 311.02 112.483 309.592 112.663 307.732H108.871V306.94H113.731C113.731 307.336 113.683 307.732 113.611 308.104H116.047V306.136H117.043V312.568H116.047V311.152H113.227V310.348H116.047V308.908ZM113.527 316.072C115.111 316.072 116.119 315.58 116.119 314.764C116.119 313.96 115.111 313.468 113.527 313.468C111.943 313.468 110.935 313.96 110.935 314.764C110.935 315.58 111.943 316.072 113.527 316.072ZM113.527 312.688C115.699 312.688 117.091 313.468 117.091 314.764C117.091 316.06 115.699 316.84 113.527 316.84C111.355 316.84 109.963 316.06 109.963 314.764C109.963 313.468 111.355 312.688 113.527 312.688ZM120.57 308.236V313.42C122.01 313.408 123.03 313.348 124.206 313.096L124.29 313.912C123.006 314.188 121.914 314.236 120.306 314.236H119.598V307.432H123.606V308.236H120.57ZM127.41 306.124H128.358V316.888H127.41V311.248H125.886V316.348H124.962V306.364H125.886V310.444H127.41V306.124ZM136.637 307.264V308.056H130.289V307.264H132.965V306.064H133.949V307.264H136.637ZM131.825 310.552C131.825 311.272 132.473 311.74 133.457 311.74C134.441 311.74 135.101 311.272 135.101 310.552C135.101 309.844 134.441 309.376 133.457 309.376C132.473 309.376 131.825 309.844 131.825 310.552ZM136.037 310.552C136.037 311.74 134.993 312.496 133.457 312.496C131.933 312.496 130.889 311.74 130.889 310.552C130.889 309.376 131.933 308.608 133.457 308.608C134.993 308.608 136.037 309.376 136.037 310.552ZM131.621 314.248V313.444H138.605V316.9H137.621V314.248H131.621ZM140.201 309.1V309.916H138.605V312.856H137.621V306.136H138.605V309.1H140.201ZM146.932 312.484H149.116V306.124H150.1V314.32H149.116V313.216H146.932V312.484ZM144.736 307.288C143.716 307.288 143.02 307.744 143.02 308.428C143.02 309.124 143.716 309.58 144.736 309.58C145.756 309.58 146.452 309.124 146.452 308.428C146.452 307.744 145.756 307.288 144.736 307.288ZM144.736 310.312C143.164 310.312 142.084 309.58 142.084 308.428C142.084 307.3 143.164 306.556 144.736 306.556C146.308 306.556 147.388 307.3 147.388 308.428C147.388 309.58 146.308 310.312 144.736 310.312ZM144.352 313.936V311.86C143.284 311.908 142.252 311.92 141.364 311.92L141.232 311.104C143.224 311.104 145.888 311.08 148.168 310.792L148.252 311.5C147.304 311.644 146.308 311.752 145.336 311.812V313.936H144.352ZM143.752 315.844H150.376V316.648H142.768V313.516H143.752V315.844ZM107.322 326.392V326.008H100.722V325.204H108.306V326.392C108.306 327.76 108.306 329.164 107.922 331.18L106.95 331.06C107.322 329.14 107.322 327.724 107.322 326.392ZM105.738 332.572H109.446V333.376H99.7141V332.572H102.102V329.008H103.074V332.572H104.766V329.008H105.738V332.572ZM120.017 328.228L119.609 329.02C117.941 328.732 116.321 327.796 115.625 326.5C114.953 327.808 113.333 328.732 111.653 329.02L111.257 328.228C113.213 327.94 115.109 326.644 115.109 325.108V324.508H116.141V325.108C116.141 326.608 118.061 327.94 120.017 328.228ZM120.485 330.184L120.497 331H116.093V334.9H115.109V331H110.765V330.184H120.485Z" fill="#282828"/>
</g>
<g filter="url(#filter1_d_110_3745)">
<rect x="344.5" y="15" width="260" height="79" rx="8" fill="white"/>
<path d="M359.988 39.14C359.316 39.14 358.681 39.0093 358.084 38.748C357.487 38.4867 356.964 38.1273 356.516 37.67C356.068 37.2033 355.713 36.6667 355.452 36.06C355.2 35.444 355.074 34.786 355.074 34.086C355.074 33.386 355.2 32.7327 355.452 32.126C355.713 31.5193 356.068 30.9873 356.516 30.53C356.973 30.0633 357.505 29.704 358.112 29.452C358.728 29.1907 359.391 29.06 360.1 29.06C360.875 29.06 361.593 29.2093 362.256 29.508C362.919 29.8067 363.474 30.2313 363.922 30.782L362.83 31.874C362.541 31.4633 362.153 31.1507 361.668 30.936C361.183 30.712 360.66 30.6 360.1 30.6C359.428 30.6 358.835 30.7493 358.322 31.048C357.818 31.3373 357.426 31.7433 357.146 32.266C356.866 32.7887 356.726 33.3953 356.726 34.086C356.726 34.7767 356.866 35.388 357.146 35.92C357.435 36.4427 357.823 36.8533 358.308 37.152C358.793 37.4507 359.344 37.6 359.96 37.6C360.613 37.6 361.173 37.4833 361.64 37.25C362.116 37.0073 362.48 36.6527 362.732 36.186C362.984 35.71 363.11 35.1267 363.11 34.436L364.118 35.164H359.932V33.694H364.776V33.918C364.776 35.0847 364.566 36.0553 364.146 36.83C363.735 37.6047 363.171 38.1833 362.452 38.566C361.733 38.9487 360.912 39.14 359.988 39.14ZM369.248 39.14C368.595 39.14 368.002 38.986 367.47 38.678C366.938 38.3607 366.514 37.936 366.196 37.404C365.888 36.872 365.734 36.2793 365.734 35.626C365.734 34.9727 365.888 34.3847 366.196 33.862C366.514 33.3393 366.938 32.924 367.47 32.616C368.002 32.2987 368.595 32.14 369.248 32.14C369.911 32.14 370.508 32.294 371.04 32.602C371.572 32.91 371.992 33.33 372.3 33.862C372.618 34.3847 372.776 34.9727 372.776 35.626C372.776 36.2793 372.618 36.872 372.3 37.404C371.992 37.936 371.572 38.3607 371.04 38.678C370.508 38.986 369.911 39.14 369.248 39.14ZM369.248 37.656C369.631 37.656 369.967 37.572 370.256 37.404C370.555 37.2267 370.784 36.984 370.942 36.676C371.11 36.368 371.194 36.018 371.194 35.626C371.194 35.234 371.11 34.8887 370.942 34.59C370.774 34.2913 370.546 34.058 370.256 33.89C369.967 33.7127 369.631 33.624 369.248 33.624C368.875 33.624 368.539 33.7127 368.24 33.89C367.951 34.058 367.722 34.2913 367.554 34.59C367.396 34.8887 367.316 35.234 367.316 35.626C367.316 36.018 367.396 36.368 367.554 36.676C367.722 36.984 367.951 37.2267 368.24 37.404C368.539 37.572 368.875 37.656 369.248 37.656ZM376.871 39.14C376.264 39.14 375.714 38.986 375.219 38.678C374.734 38.37 374.346 37.9547 374.057 37.432C373.777 36.9 373.637 36.3073 373.637 35.654C373.637 34.9913 373.777 34.3987 374.057 33.876C374.346 33.344 374.734 32.924 375.219 32.616C375.714 32.2987 376.264 32.14 376.871 32.14C377.384 32.14 377.837 32.252 378.229 32.476C378.63 32.6907 378.948 32.9893 379.181 33.372C379.414 33.7547 379.531 34.1887 379.531 34.674V36.606C379.531 37.0913 379.414 37.5253 379.181 37.908C378.957 38.2907 378.644 38.594 378.243 38.818C377.842 39.0327 377.384 39.14 376.871 39.14ZM377.123 37.684C377.692 37.684 378.15 37.4927 378.495 37.11C378.85 36.7273 379.027 36.2373 379.027 35.64C379.027 35.2387 378.948 34.884 378.789 34.576C378.63 34.268 378.406 34.03 378.117 33.862C377.837 33.6847 377.506 33.596 377.123 33.596C376.75 33.596 376.418 33.6847 376.129 33.862C375.849 34.03 375.625 34.268 375.457 34.576C375.298 34.884 375.219 35.2387 375.219 35.64C375.219 36.0413 375.298 36.396 375.457 36.704C375.625 37.012 375.849 37.2547 376.129 37.432C376.418 37.6 376.75 37.684 377.123 37.684ZM378.929 39V37.194L379.195 35.556L378.929 33.932V32.28H380.469V39H378.929ZM382.178 39V28.92H383.718V39H382.178ZM387.63 39.14C387.257 39.14 386.897 39.0933 386.552 39C386.207 38.8973 385.889 38.7573 385.6 38.58C385.311 38.3933 385.059 38.1693 384.844 37.908L385.824 36.928C386.057 37.1987 386.323 37.404 386.622 37.544C386.93 37.6747 387.275 37.74 387.658 37.74C388.003 37.74 388.265 37.6887 388.442 37.586C388.619 37.4833 388.708 37.334 388.708 37.138C388.708 36.9327 388.624 36.774 388.456 36.662C388.288 36.55 388.069 36.4567 387.798 36.382C387.537 36.298 387.257 36.214 386.958 36.13C386.669 36.046 386.389 35.934 386.118 35.794C385.857 35.6447 385.642 35.444 385.474 35.192C385.306 34.94 385.222 34.6133 385.222 34.212C385.222 33.7827 385.32 33.414 385.516 33.106C385.721 32.798 386.006 32.56 386.37 32.392C386.743 32.224 387.187 32.14 387.7 32.14C388.241 32.14 388.717 32.238 389.128 32.434C389.548 32.6207 389.898 32.9053 390.178 33.288L389.198 34.268C389.002 34.0253 388.778 33.8433 388.526 33.722C388.274 33.6007 387.985 33.54 387.658 33.54C387.35 33.54 387.112 33.5867 386.944 33.68C386.776 33.7733 386.692 33.9087 386.692 34.086C386.692 34.2727 386.776 34.4173 386.944 34.52C387.112 34.6227 387.327 34.7113 387.588 34.786C387.859 34.8607 388.139 34.9447 388.428 35.038C388.727 35.122 389.007 35.2433 389.268 35.402C389.539 35.5513 389.758 35.7567 389.926 36.018C390.094 36.27 390.178 36.6013 390.178 37.012C390.178 37.6653 389.949 38.1833 389.492 38.566C389.035 38.9487 388.414 39.14 387.63 39.14Z" fill="#588DF7"/>
<path d="M363.501 57.856C363.253 57.856 363.033 57.8 362.841 57.688C362.649 57.576 362.497 57.424 362.385 57.232C362.281 57.032 362.229 56.816 362.229 56.584C362.229 56.352 362.281 56.14 362.385 55.948C362.497 55.756 362.649 55.604 362.841 55.492C363.033 55.372 363.253 55.312 363.501 55.312C363.749 55.312 363.965 55.372 364.149 55.492C364.341 55.604 364.489 55.756 364.593 55.948C364.705 56.14 364.761 56.352 364.761 56.584C364.761 56.816 364.705 57.032 364.593 57.232C364.489 57.424 364.341 57.576 364.149 57.688C363.965 57.8 363.749 57.856 363.501 57.856ZM376.352 52.132V54.148C376.352 55.9 377.18 57.724 378.608 58.516L378.02 59.296C377 58.696 376.256 57.592 375.872 56.308C375.488 57.712 374.696 58.924 373.64 59.572L373.016 58.828C374.504 57.964 375.404 56.044 375.404 54.184V52.132H376.352ZM381.344 51.124H382.28V61.888H381.344V56.26H379.916V61.348H378.98V51.364H379.916V55.456H381.344V51.124ZM389.539 59.752H393.943V60.556H384.163V59.752H388.543V57.724H385.387V54.4H391.771V52.72H385.363V51.916H392.731V55.192H386.359V56.932H392.983V57.724H389.539V59.752ZM400.074 52.192C398.43 52.192 397.338 52.708 397.338 53.56C397.338 54.4 398.43 54.916 400.074 54.916C401.73 54.916 402.81 54.4 402.81 53.56C402.81 52.708 401.73 52.192 400.074 52.192ZM400.074 55.72C397.794 55.72 396.306 54.892 396.306 53.56C396.306 52.228 397.794 51.4 400.074 51.4C402.354 51.4 403.842 52.228 403.842 53.56C403.842 54.892 402.354 55.72 400.074 55.72ZM397.434 58.504V60.832H403.89V61.648H396.45V58.504H397.434ZM395.202 56.584H404.958V57.388H400.662V59.56H399.666V57.388H395.202V56.584ZM411.524 58.588C412.556 58.588 413.288 57.46 413.288 55.708C413.288 53.968 412.556 52.84 411.524 52.84C410.48 52.84 409.748 53.968 409.748 55.708C409.748 57.46 410.48 58.588 411.524 58.588ZM411.524 51.952C413.108 51.952 414.224 53.416 414.224 55.708C414.224 58 413.108 59.464 411.524 59.464C409.94 59.464 408.812 58 408.812 55.708C408.812 53.416 409.94 51.952 411.524 51.952ZM418.712 55.42V56.248H416.936V61.888H415.952V51.136H416.936V55.42H418.712ZM427.519 51.124H428.503V61.912H427.519V51.124ZM422.827 51.952C424.423 51.952 425.563 53.416 425.563 55.708C425.563 58 424.423 59.464 422.827 59.464C421.231 59.464 420.091 58 420.091 55.708C420.091 53.416 421.231 51.952 422.827 51.952ZM422.827 52.84C421.771 52.84 421.027 53.968 421.027 55.708C421.027 57.46 421.771 58.588 422.827 58.588C423.871 58.588 424.615 57.46 424.615 55.708C424.615 53.968 423.871 52.84 422.827 52.84ZM432.402 52.972V58.396C434.478 58.396 435.834 58.336 437.418 58.036L437.526 58.864C435.87 59.164 434.466 59.236 432.294 59.236H431.43V52.144H436.518V52.972H432.402ZM438.558 51.124H439.542V61.912H438.558V51.124ZM444.653 58.588C445.673 58.588 446.393 57.46 446.393 55.708C446.393 53.968 445.673 52.84 444.653 52.84C443.621 52.84 442.901 53.968 442.901 55.708C442.901 57.46 443.621 58.588 444.653 58.588ZM449.657 51.124H450.641V61.912H449.657V56.032H447.317C447.221 58.144 446.153 59.464 444.653 59.464C443.081 59.464 441.965 58 441.965 55.708C441.965 53.416 443.081 51.952 444.653 51.952C446.105 51.952 447.161 53.212 447.317 55.228H449.657V51.124ZM460.348 53.008V52.132H454.036V51.436H461.32V53.68H455.032V54.604H461.512V55.312H454.06V53.008H460.348ZM454.972 60.04V61.036H461.692V61.744H454V59.356H460.384V58.456H453.976V57.748H461.356V60.04H454.972ZM452.812 56.128H462.568V56.872H452.812V56.128ZM472.361 55.84L472.469 56.62C471.005 56.884 469.769 56.932 467.561 56.932H466.745V51.796H471.665V52.588H467.729V53.932H471.473V54.712H467.729V56.14C469.793 56.14 470.969 56.08 472.361 55.84ZM468.809 58.804V60.952H473.633V58.804H468.809ZM467.849 61.744V58.024H474.605V61.744H467.849ZM476.201 53.8V54.616H474.605V57.46H473.621V51.136H474.605V53.8H476.201ZM487.036 56.452V57.256H482.644V61.9H481.648V57.256H477.304V56.452H484.444C484.78 54.904 484.78 53.764 484.78 52.756V52.612H478.516V51.82H485.74V52.756C485.74 53.764 485.74 54.904 485.44 56.452H487.036ZM491.487 58.672C492.471 58.672 493.179 57.976 493.179 57.016C493.179 56.044 492.471 55.348 491.487 55.348C490.515 55.348 489.807 56.044 489.807 57.016C489.807 57.976 490.515 58.672 491.487 58.672ZM491.487 54.532C493.023 54.532 494.115 55.564 494.115 57.016C494.115 58.48 493.023 59.488 491.487 59.488C489.975 59.488 488.883 58.48 488.883 57.016C488.883 55.564 489.975 54.532 491.487 54.532ZM491.967 51.256V52.852H494.619V53.644H488.271V52.852H490.983V51.256H491.967ZM498.387 55.552V56.38H496.623V61.888H495.639V51.136H496.623V55.552H498.387ZM506.966 53.272V53.008H500.402V52.204H507.95V53.272C507.95 54.604 507.95 56.08 507.542 58.252L506.558 58.144C506.966 56.08 506.966 54.568 506.966 53.272ZM504.146 59.572H509.114V60.376H499.382V59.572H503.162V55.72H504.146V59.572ZM517.684 61.12C519.364 61.12 520.36 60.7 520.36 59.944C520.36 59.188 519.364 58.768 517.684 58.768C515.98 58.768 514.984 59.188 514.984 59.944C514.984 60.7 515.98 61.12 517.684 61.12ZM517.684 58C519.964 58 521.356 58.696 521.356 59.944C521.356 61.192 519.964 61.888 517.684 61.888C515.38 61.888 513.988 61.192 513.988 59.944C513.988 58.696 515.38 58 517.684 58ZM518.176 56.44H522.556V57.232H512.812V56.44H517.192V55.192H514.036V51.616H521.344V52.408H515.02V54.4H521.416V55.192H518.176V56.44ZM527.547 57.712V59.752H530.007V57.712H527.547ZM530.979 59.752H533.619V60.556H523.839V59.752H526.575V57.712H525.063V54.388H531.447V52.72H525.039V51.916H532.407V55.18H526.035V56.908H532.659V57.712H530.979V59.752ZM536.21 54.352C536.21 55.372 537.002 56.044 538.106 56.044C539.198 56.044 539.99 55.372 539.99 54.352C539.99 53.344 539.198 52.648 538.106 52.648C537.002 52.648 536.21 53.344 536.21 54.352ZM538.598 56.848V58.672C539.582 58.624 540.578 58.564 541.502 58.432L541.586 59.152C539.306 59.536 536.798 59.572 534.902 59.572L534.77 58.744C535.622 58.744 536.606 58.732 537.614 58.708V56.848C536.21 56.68 535.25 55.696 535.25 54.352C535.25 52.84 536.438 51.82 538.106 51.82C539.75 51.82 540.95 52.84 540.95 54.352C540.95 55.696 539.978 56.668 538.598 56.848ZM544.874 55.564V56.392H543.17V61.888H542.186V51.112H543.17V55.564H544.874ZM554.379 52.204V52.996H548.355V52.204H550.923V51.016H551.907V52.204H554.379ZM549.891 55.468C549.891 56.188 550.503 56.656 551.403 56.656C552.303 56.656 552.915 56.188 552.915 55.468C552.915 54.748 552.303 54.28 551.403 54.28C550.503 54.28 549.891 54.748 549.891 55.468ZM553.839 55.468C553.839 56.632 552.831 57.4 551.403 57.4C549.963 57.4 548.967 56.632 548.967 55.468C548.967 54.304 549.963 53.536 551.403 53.536C552.831 53.536 553.839 54.304 553.839 55.468ZM556.227 60.964V59.824H551.199V60.964H556.227ZM556.227 59.068V57.964H557.199V61.744H550.227V57.964H551.199V59.068H556.227ZM556.203 51.136H557.199V57.484H556.203V56.536H554.379V55.732H556.203V54.436H554.391V53.644H556.203V51.136ZM565.058 56.2L565.154 56.992C563.834 57.22 562.742 57.256 560.594 57.256H559.826V54.064H563.474V52.576H559.79V51.772H564.434V54.82H560.786V56.452C562.778 56.452 563.81 56.404 565.058 56.2ZM561.026 59.128V58.324H568.238V61.9H567.242V59.128H561.026ZM567.242 51.136H568.238V57.748H567.242V55.756H565.142V54.964H567.242V53.524H565.142V52.72H567.242V51.136ZM573.565 58.672C574.549 58.672 575.257 57.976 575.257 57.016C575.257 56.044 574.549 55.348 573.565 55.348C572.593 55.348 571.885 56.044 571.885 57.016C571.885 57.976 572.593 58.672 573.565 58.672ZM573.565 54.532C575.101 54.532 576.193 55.564 576.193 57.016C576.193 58.48 575.101 59.488 573.565 59.488C572.053 59.488 570.961 58.48 570.961 57.016C570.961 55.564 572.053 54.532 573.565 54.532ZM574.045 51.256V52.852H576.697V53.644H570.349V52.852H573.061V51.256H574.045ZM580.465 55.552V56.38H578.701V61.888H577.717V51.136H578.701V55.552H580.465ZM586.777 56.668H589.333V54.508H586.777V56.668ZM585.805 58.384V52.96H582.841V58.384H585.805ZM589.333 51.124H590.317V61.912H589.333V57.472H586.777V59.164H581.881V52.18H586.777V53.704H589.333V51.124ZM376.76 71.044V72.412C376.76 74.128 377.984 76.036 379.544 76.768L378.98 77.56C377.78 76.96 376.772 75.7 376.28 74.26C375.788 75.832 374.744 77.2 373.532 77.824L372.956 77.044C374.492 76.276 375.788 74.236 375.788 72.412V71.044H373.328V70.228H379.148V71.044H376.76ZM383.192 73.468V74.296H381.416V79.888H380.432V69.136H381.416V73.468H383.192ZM393.007 69.124V77.02H392.023V69.124H393.007ZM390.655 74.488L390.139 75.268C388.915 74.8 387.967 73.828 387.487 72.604C387.031 73.912 386.059 74.956 384.799 75.484L384.283 74.68C385.903 74.056 386.983 72.496 386.983 70.816V69.724H387.967V70.816C387.967 72.436 389.059 73.9 390.655 74.488ZM387.067 78.844H393.331V79.648H386.083V76.288H387.067V78.844ZM398.706 69.916C400.386 69.916 401.586 70.936 401.586 72.448C401.586 73.948 400.386 74.98 398.706 74.98C397.038 74.98 395.826 73.948 395.826 72.448C395.826 70.936 397.038 69.916 398.706 69.916ZM398.706 70.756C397.602 70.756 396.786 71.44 396.786 72.448C396.786 73.444 397.602 74.14 398.706 74.14C399.822 74.14 400.626 73.444 400.626 72.448C400.626 71.44 399.822 70.756 398.706 70.756ZM403.002 69.124H403.986V79.912H403.002V69.124ZM395.406 77.548L395.286 76.72C397.242 76.72 399.942 76.708 402.294 76.348L402.378 77.08C399.954 77.524 397.35 77.548 395.406 77.548ZM416.144 72.988V71.596H410.912V72.988H416.144ZM417.116 69.46V73.768H409.94V69.46H410.912V70.84H416.144V69.46H417.116ZM410.852 76.72V78.844H417.32V79.648H409.88V76.72H410.852ZM408.632 74.812H418.412V75.604H414.092V77.692H413.108V75.604H408.632V74.812ZM422.563 76.588C423.595 76.588 424.327 75.448 424.327 73.696C424.327 71.968 423.595 70.84 422.563 70.84C421.519 70.84 420.787 71.968 420.787 73.696C420.787 75.448 421.519 76.588 422.563 76.588ZM422.563 69.952C424.147 69.952 425.263 71.416 425.263 73.696C425.263 76 424.147 77.464 422.563 77.464C420.979 77.464 419.851 76 419.851 73.696C419.851 71.416 420.979 69.952 422.563 69.952ZM429.691 72.652H427.975V75.04H429.691V75.856H427.975V79.888H426.991V69.136H427.975V71.836H429.691V72.652ZM433.17 76.612C434.01 76.612 434.562 75.52 434.562 73.756C434.562 72.028 434.01 70.936 433.17 70.936C432.306 70.936 431.766 72.028 431.766 73.756C431.766 75.52 432.306 76.612 433.17 76.612ZM436.806 73.312V69.364H437.742V79.36H436.806V74.116H435.45C435.366 76.228 434.49 77.524 433.17 77.524C431.766 77.524 430.866 76.084 430.866 73.756C430.866 71.464 431.766 70.024 433.17 70.024C434.466 70.024 435.33 71.284 435.45 73.312H436.806ZM438.942 69.124H439.878V79.888H438.942V69.124ZM445.541 70.048V71.98C445.541 73.936 446.765 75.892 448.325 76.636L447.749 77.416C446.525 76.804 445.541 75.52 445.049 74.008C444.581 75.604 443.585 76.96 442.373 77.608L441.773 76.828C443.333 76.048 444.557 73.972 444.557 71.98V70.048H445.541ZM449.657 69.124H450.641V79.9H449.657V73.576H447.161V72.772H449.657V69.124ZM459.054 71.044V72.412C459.054 74.236 460.35 76.096 461.934 76.768L461.382 77.56C460.134 76.984 459.078 75.748 458.562 74.272C458.07 75.844 457.014 77.2 455.79 77.824L455.214 77.032C456.762 76.3 458.07 74.272 458.07 72.412V71.044H455.574V70.228H461.586V71.044H459.054ZM463.038 69.136H464.022V79.888H463.038V69.136ZM472.745 74.188L472.253 74.968C471.017 74.524 470.045 73.6 469.565 72.412C469.097 73.684 468.113 74.68 466.853 75.16L466.349 74.38C467.969 73.792 469.061 72.292 469.061 70.684V69.628H470.045V70.684C470.045 72.232 471.149 73.636 472.745 74.188ZM467.885 76.948V76.156H475.085V79.9H474.101V76.948H467.885ZM474.101 69.136H475.085V75.604H474.101V69.136ZM480.784 69.916C482.464 69.916 483.664 70.936 483.664 72.448C483.664 73.948 482.464 74.98 480.784 74.98C479.116 74.98 477.904 73.948 477.904 72.448C477.904 70.936 479.116 69.916 480.784 69.916ZM480.784 70.756C479.68 70.756 478.864 71.44 478.864 72.448C478.864 73.444 479.68 74.14 480.784 74.14C481.9 74.14 482.704 73.444 482.704 72.448C482.704 71.44 481.9 70.756 480.784 70.756ZM485.08 69.124H486.064V79.912H485.08V69.124ZM477.484 77.548L477.364 76.72C479.32 76.72 482.02 76.708 484.372 76.348L484.456 77.08C482.032 77.524 479.428 77.548 477.484 77.548ZM498.606 71.908H495.918C495.222 73.636 493.59 74.896 491.274 75.568L490.878 74.788C493.446 74.02 495.042 72.592 495.222 70.732H491.43V69.94H496.29C496.29 70.336 496.242 70.732 496.17 71.104H498.606V69.136H499.602V75.568H498.606V74.152H495.786V73.348H498.606V71.908ZM496.086 79.072C497.67 79.072 498.678 78.58 498.678 77.764C498.678 76.96 497.67 76.468 496.086 76.468C494.502 76.468 493.494 76.96 493.494 77.764C493.494 78.58 494.502 79.072 496.086 79.072ZM496.086 75.688C498.258 75.688 499.65 76.468 499.65 77.764C499.65 79.06 498.258 79.84 496.086 79.84C493.914 79.84 492.522 79.06 492.522 77.764C492.522 76.468 493.914 75.688 496.086 75.688ZM507.821 72.124V69.412H508.757V79.336H507.821V75.616H505.877V74.812H507.821V72.916H506.045C505.541 74.728 504.377 76.348 502.337 77.56L501.761 76.864C504.077 75.484 505.229 73.552 505.397 71.296H502.241V70.492H506.369C506.369 71.044 506.321 71.584 506.225 72.124H507.821ZM509.981 69.124H510.917V79.876H509.981V69.124ZM520.348 71.008V70.132H514.036V69.436H521.32V71.68H515.032V72.604H521.512V73.312H514.06V71.008H520.348ZM514.972 78.04V79.036H521.692V79.744H514V77.356H520.384V76.456H513.976V75.748H521.356V78.04H514.972ZM512.812 74.128H522.568V74.872H512.812V74.128ZM532.469 73.084L532.613 73.9C530.933 74.224 529.481 74.32 527.705 74.32H526.877V69.664H527.861V73.492C529.505 73.492 530.921 73.384 532.469 73.084ZM528.521 77.848V79.012C529.673 79 530.369 78.976 531.245 78.82L531.341 79.576C530.345 79.756 529.565 79.768 528.137 79.768H527.573V77.128H530.069V76.12H527.537V75.376H531.017V77.848H528.521ZM534.221 79V77.428H532.565V79H534.221ZM534.221 76.672V75.256H535.121V79.768H531.665V75.256H532.565V76.672H534.221ZM534.125 69.124H535.121V74.836H534.125V71.716H531.089V70.924H534.125V69.124ZM540.772 76.672C541.768 76.672 542.5 75.976 542.5 75.004C542.5 74.044 541.768 73.348 540.772 73.348C539.776 73.348 539.056 74.044 539.056 75.004C539.056 75.976 539.776 76.672 540.772 76.672ZM540.772 72.532C542.332 72.532 543.436 73.552 543.436 75.004C543.436 76.48 542.332 77.488 540.772 77.488C539.236 77.488 538.12 76.48 538.12 75.004C538.12 73.552 539.236 72.532 540.772 72.532ZM541.252 69.232V70.864H543.988V71.668H537.532V70.864H540.268V69.232H541.252ZM545.116 69.124H546.1V79.888H545.116V69.124ZM556.959 72.364V73.168H549.639V69.52H550.623V72.364H556.959ZM550.551 76.48V78.82H557.019V79.624H549.567V76.48H550.551ZM548.319 74.608H558.075V75.4H548.319V74.608ZM569.645 76.408V72.964H567.329V72.16H569.645V69.136H570.641V76.408H569.645ZM562.469 69.976H567.293C567.293 72.748 565.457 74.728 562.385 75.724L561.953 74.944C564.497 74.14 566.045 72.676 566.237 70.78H562.469V69.976ZM567.653 75.472V75.964C567.653 77.512 569.321 78.7 571.217 79.06L570.821 79.828C569.237 79.516 567.797 78.664 567.161 77.428C566.525 78.688 565.073 79.54 563.465 79.852L563.069 79.072C564.989 78.736 566.669 77.536 566.669 75.964V75.472H567.653Z" fill="#282828"/>
<rect x="344.5" y="99" width="260" height="97" rx="8" fill="white"/>
<path d="M355.564 123V113.2H357.174V123H355.564ZM356.67 118.8V117.33H361.654V118.8H356.67ZM356.67 114.67V113.2H361.892V114.67H356.67ZM363.284 123V116.28H364.824V123H363.284ZM364.824 119.262L364.292 118.996C364.292 118.147 364.478 117.461 364.852 116.938C365.234 116.406 365.808 116.14 366.574 116.14C366.91 116.14 367.213 116.201 367.484 116.322C367.754 116.443 368.006 116.639 368.24 116.91L367.232 117.946C367.11 117.815 366.975 117.722 366.826 117.666C366.676 117.61 366.504 117.582 366.308 117.582C365.878 117.582 365.524 117.717 365.244 117.988C364.964 118.259 364.824 118.683 364.824 119.262ZM371.743 123.14C371.174 123.14 370.665 123.014 370.217 122.762C369.778 122.51 369.433 122.165 369.181 121.726C368.938 121.278 368.817 120.765 368.817 120.186V116.28H370.357V120.116C370.357 120.443 370.408 120.723 370.511 120.956C370.623 121.18 370.782 121.353 370.987 121.474C371.202 121.595 371.454 121.656 371.743 121.656C372.191 121.656 372.532 121.525 372.765 121.264C373.008 120.993 373.129 120.611 373.129 120.116V116.28H374.669V120.186C374.669 120.774 374.543 121.292 374.291 121.74C374.048 122.179 373.708 122.524 373.269 122.776C372.83 123.019 372.322 123.14 371.743 123.14ZM378.415 123.14C378.042 123.14 377.683 123.093 377.337 123C376.992 122.897 376.675 122.757 376.385 122.58C376.096 122.393 375.844 122.169 375.629 121.908L376.609 120.928C376.843 121.199 377.109 121.404 377.407 121.544C377.715 121.675 378.061 121.74 378.443 121.74C378.789 121.74 379.05 121.689 379.227 121.586C379.405 121.483 379.493 121.334 379.493 121.138C379.493 120.933 379.409 120.774 379.241 120.662C379.073 120.55 378.854 120.457 378.583 120.382C378.322 120.298 378.042 120.214 377.743 120.13C377.454 120.046 377.174 119.934 376.903 119.794C376.642 119.645 376.427 119.444 376.259 119.192C376.091 118.94 376.007 118.613 376.007 118.212C376.007 117.783 376.105 117.414 376.301 117.106C376.507 116.798 376.791 116.56 377.155 116.392C377.529 116.224 377.972 116.14 378.485 116.14C379.027 116.14 379.503 116.238 379.913 116.434C380.333 116.621 380.683 116.905 380.963 117.288L379.983 118.268C379.787 118.025 379.563 117.843 379.311 117.722C379.059 117.601 378.77 117.54 378.443 117.54C378.135 117.54 377.897 117.587 377.729 117.68C377.561 117.773 377.477 117.909 377.477 118.086C377.477 118.273 377.561 118.417 377.729 118.52C377.897 118.623 378.112 118.711 378.373 118.786C378.644 118.861 378.924 118.945 379.213 119.038C379.512 119.122 379.792 119.243 380.053 119.402C380.324 119.551 380.543 119.757 380.711 120.018C380.879 120.27 380.963 120.601 380.963 121.012C380.963 121.665 380.735 122.183 380.277 122.566C379.82 122.949 379.199 123.14 378.415 123.14ZM383.255 123V113.48H384.795V123H383.255ZM381.645 117.68V116.28H386.405V117.68H381.645ZM387.524 123V116.28H389.064V123H387.524ZM389.064 119.262L388.532 118.996C388.532 118.147 388.719 117.461 389.092 116.938C389.475 116.406 390.049 116.14 390.814 116.14C391.15 116.14 391.453 116.201 391.724 116.322C391.995 116.443 392.247 116.639 392.48 116.91L391.472 117.946C391.351 117.815 391.215 117.722 391.066 117.666C390.917 117.61 390.744 117.582 390.548 117.582C390.119 117.582 389.764 117.717 389.484 117.988C389.204 118.259 389.064 118.683 389.064 119.262ZM395.834 123.14C395.227 123.14 394.677 122.986 394.182 122.678C393.697 122.37 393.309 121.955 393.02 121.432C392.74 120.9 392.6 120.307 392.6 119.654C392.6 118.991 392.74 118.399 393.02 117.876C393.309 117.344 393.697 116.924 394.182 116.616C394.677 116.299 395.227 116.14 395.834 116.14C396.347 116.14 396.8 116.252 397.192 116.476C397.593 116.691 397.911 116.989 398.144 117.372C398.377 117.755 398.494 118.189 398.494 118.674V120.606C398.494 121.091 398.377 121.525 398.144 121.908C397.92 122.291 397.607 122.594 397.206 122.818C396.805 123.033 396.347 123.14 395.834 123.14ZM396.086 121.684C396.655 121.684 397.113 121.493 397.458 121.11C397.813 120.727 397.99 120.237 397.99 119.64C397.99 119.239 397.911 118.884 397.752 118.576C397.593 118.268 397.369 118.03 397.08 117.862C396.8 117.685 396.469 117.596 396.086 117.596C395.713 117.596 395.381 117.685 395.092 117.862C394.812 118.03 394.588 118.268 394.42 118.576C394.261 118.884 394.182 119.239 394.182 119.64C394.182 120.041 394.261 120.396 394.42 120.704C394.588 121.012 394.812 121.255 395.092 121.432C395.381 121.6 395.713 121.684 396.086 121.684ZM397.892 123V121.194L398.158 119.556L397.892 117.932V116.28H399.432V123H397.892ZM402.163 123V113.48H403.703V123H402.163ZM400.553 117.68V116.28H405.313V117.68H400.553ZM406.446 123V116.28H407.986V123H406.446ZM407.216 115.048C406.955 115.048 406.735 114.959 406.558 114.782C406.39 114.605 406.306 114.385 406.306 114.124C406.306 113.863 406.39 113.643 406.558 113.466C406.735 113.289 406.955 113.2 407.216 113.2C407.487 113.2 407.706 113.289 407.874 113.466C408.042 113.643 408.126 113.863 408.126 114.124C408.126 114.385 408.042 114.605 407.874 114.782C407.706 114.959 407.487 115.048 407.216 115.048ZM412.793 123.14C412.14 123.14 411.547 122.986 411.015 122.678C410.483 122.361 410.059 121.936 409.741 121.404C409.433 120.872 409.279 120.279 409.279 119.626C409.279 118.973 409.433 118.385 409.741 117.862C410.059 117.339 410.483 116.924 411.015 116.616C411.547 116.299 412.14 116.14 412.793 116.14C413.456 116.14 414.053 116.294 414.585 116.602C415.117 116.91 415.537 117.33 415.845 117.862C416.163 118.385 416.321 118.973 416.321 119.626C416.321 120.279 416.163 120.872 415.845 121.404C415.537 121.936 415.117 122.361 414.585 122.678C414.053 122.986 413.456 123.14 412.793 123.14ZM412.793 121.656C413.176 121.656 413.512 121.572 413.801 121.404C414.1 121.227 414.329 120.984 414.487 120.676C414.655 120.368 414.739 120.018 414.739 119.626C414.739 119.234 414.655 118.889 414.487 118.59C414.319 118.291 414.091 118.058 413.801 117.89C413.512 117.713 413.176 117.624 412.793 117.624C412.42 117.624 412.084 117.713 411.785 117.89C411.496 118.058 411.267 118.291 411.099 118.59C410.941 118.889 410.861 119.234 410.861 119.626C410.861 120.018 410.941 120.368 411.099 120.676C411.267 120.984 411.496 121.227 411.785 121.404C412.084 121.572 412.42 121.656 412.793 121.656ZM422.208 123V119.122C422.208 118.674 422.063 118.305 421.774 118.016C421.494 117.727 421.13 117.582 420.682 117.582C420.383 117.582 420.117 117.647 419.884 117.778C419.651 117.909 419.469 118.091 419.338 118.324C419.207 118.557 419.142 118.823 419.142 119.122L418.54 118.786C418.54 118.273 418.652 117.82 418.876 117.428C419.1 117.027 419.408 116.714 419.8 116.49C420.201 116.257 420.649 116.14 421.144 116.14C421.648 116.14 422.096 116.271 422.488 116.532C422.88 116.784 423.188 117.115 423.412 117.526C423.636 117.927 423.748 118.347 423.748 118.786V123H422.208ZM417.602 123V116.28H419.142V123H417.602ZM427.511 123.14C427.138 123.14 426.778 123.093 426.433 123C426.088 122.897 425.77 122.757 425.481 122.58C425.192 122.393 424.94 122.169 424.725 121.908L425.705 120.928C425.938 121.199 426.204 121.404 426.503 121.544C426.811 121.675 427.156 121.74 427.539 121.74C427.884 121.74 428.146 121.689 428.323 121.586C428.5 121.483 428.589 121.334 428.589 121.138C428.589 120.933 428.505 120.774 428.337 120.662C428.169 120.55 427.95 120.457 427.679 120.382C427.418 120.298 427.138 120.214 426.839 120.13C426.55 120.046 426.27 119.934 425.999 119.794C425.738 119.645 425.523 119.444 425.355 119.192C425.187 118.94 425.103 118.613 425.103 118.212C425.103 117.783 425.201 117.414 425.397 117.106C425.602 116.798 425.887 116.56 426.251 116.392C426.624 116.224 427.068 116.14 427.581 116.14C428.122 116.14 428.598 116.238 429.009 116.434C429.429 116.621 429.779 116.905 430.059 117.288L429.079 118.268C428.883 118.025 428.659 117.843 428.407 117.722C428.155 117.601 427.866 117.54 427.539 117.54C427.231 117.54 426.993 117.587 426.825 117.68C426.657 117.773 426.573 117.909 426.573 118.086C426.573 118.273 426.657 118.417 426.825 118.52C426.993 118.623 427.208 118.711 427.469 118.786C427.74 118.861 428.02 118.945 428.309 119.038C428.608 119.122 428.888 119.243 429.149 119.402C429.42 119.551 429.639 119.757 429.807 120.018C429.975 120.27 430.059 120.601 430.059 121.012C430.059 121.665 429.83 122.183 429.373 122.566C428.916 122.949 428.295 123.14 427.511 123.14Z" fill="#FC5B3C"/>
<path d="M363.501 141.856C363.253 141.856 363.033 141.8 362.841 141.688C362.649 141.576 362.497 141.424 362.385 141.232C362.281 141.032 362.229 140.816 362.229 140.584C362.229 140.352 362.281 140.14 362.385 139.948C362.497 139.756 362.649 139.604 362.841 139.492C363.033 139.372 363.253 139.312 363.501 139.312C363.749 139.312 363.965 139.372 364.149 139.492C364.341 139.604 364.489 139.756 364.593 139.948C364.705 140.14 364.761 140.352 364.761 140.584C364.761 140.816 364.705 141.032 364.593 141.232C364.489 141.424 364.341 141.576 364.149 141.688C363.965 141.8 363.749 141.856 363.501 141.856ZM372.788 145L376.244 136.6H377.204L380.636 145H379.148L376.46 138.196H376.964L374.252 145H372.788ZM374.492 143.38V142.18H378.944V143.38H374.492ZM381.744 145V136.6H383.124V145H381.744ZM395.902 135.136V142.996H394.918V135.136H395.902ZM388.282 138.52C388.282 139.588 389.074 140.332 390.118 140.332C391.186 140.332 391.978 139.588 391.978 138.52C391.978 137.476 391.186 136.732 390.118 136.732C389.074 136.732 388.282 137.476 388.282 138.52ZM392.938 138.52C392.938 140.08 391.726 141.184 390.118 141.184C388.522 141.184 387.322 140.08 387.322 138.52C387.322 136.972 388.522 135.88 390.118 135.88C391.726 135.88 392.938 136.972 392.938 138.52ZM389.962 144.844H396.226V145.648H388.978V142.192H389.962V144.844ZM405.633 136.588V136.468H399.273V135.676H406.605V136.588C406.605 137.452 406.605 138.328 406.305 139.432L405.345 139.324C405.633 138.22 405.633 137.428 405.633 136.588ZM402.933 145.108C404.625 145.108 405.705 144.652 405.705 143.908C405.705 143.14 404.625 142.684 402.933 142.684C401.253 142.684 400.173 143.14 400.173 143.908C400.173 144.652 401.253 145.108 402.933 145.108ZM402.933 141.928C405.225 141.928 406.689 142.66 406.689 143.908C406.689 145.132 405.225 145.876 402.933 145.876C400.641 145.876 399.189 145.132 399.189 143.908C399.189 142.66 400.641 141.928 402.933 141.928ZM403.089 140.14H407.817V140.932H398.133V140.14H402.105V138.076H403.089V140.14ZM412.988 137.044V138.412C412.988 140.236 414.284 142.096 415.868 142.768L415.316 143.56C414.068 142.984 413.012 141.748 412.496 140.272C412.004 141.844 410.948 143.2 409.724 143.824L409.148 143.032C410.696 142.3 412.004 140.272 412.004 138.412V137.044H409.508V136.228H415.52V137.044H412.988ZM416.972 135.136H417.956V145.888H416.972V135.136ZM428.815 138.124V138.916H421.507V135.352H422.491V138.124H428.815ZM425.047 145.084C426.727 145.084 427.735 144.64 427.735 143.896C427.735 143.128 426.739 142.696 425.047 142.696C423.355 142.696 422.359 143.128 422.359 143.896C422.359 144.64 423.355 145.084 425.047 145.084ZM425.047 141.928C427.339 141.928 428.731 142.636 428.731 143.896C428.731 145.144 427.339 145.852 425.047 145.852C422.755 145.852 421.363 145.144 421.363 143.896C421.363 142.636 422.755 141.928 425.047 141.928ZM420.199 140.164H429.931V140.968H420.199V140.164ZM439.05 135.124H440.034V145.912H439.05V135.124ZM434.358 135.952C435.954 135.952 437.094 137.416 437.094 139.708C437.094 142 435.954 143.464 434.358 143.464C432.762 143.464 431.622 142 431.622 139.708C431.622 137.416 432.762 135.952 434.358 135.952ZM434.358 136.84C433.302 136.84 432.558 137.968 432.558 139.708C432.558 141.46 433.302 142.588 434.358 142.588C435.402 142.588 436.146 141.46 436.146 139.708C436.146 137.968 435.402 136.84 434.358 136.84ZM451.051 136.264V137.056H444.703V136.264H447.379V135.064H448.363V136.264H451.051ZM446.239 139.552C446.239 140.272 446.887 140.74 447.871 140.74C448.855 140.74 449.515 140.272 449.515 139.552C449.515 138.844 448.855 138.376 447.871 138.376C446.887 138.376 446.239 138.844 446.239 139.552ZM450.451 139.552C450.451 140.74 449.407 141.496 447.871 141.496C446.347 141.496 445.303 140.74 445.303 139.552C445.303 138.376 446.347 137.608 447.871 137.608C449.407 137.608 450.451 138.376 450.451 139.552ZM446.035 143.248V142.444H453.019V145.9H452.035V143.248H446.035ZM454.615 138.1V138.916H453.019V141.856H452.035V135.136H453.019V138.1H454.615ZM463.218 138.616V136.42H457.914V138.616H463.218ZM464.19 135.628V139.408H456.954V135.628H464.19ZM457.914 142.576V144.844H464.37V145.648H456.93V142.576H457.914ZM455.682 140.632H465.462V141.424H461.142V143.596H460.158V141.424H455.682V140.632ZM473.093 140.38L472.601 141.148C471.401 140.716 470.477 139.828 469.997 138.712C469.541 139.948 468.557 140.932 467.297 141.4L466.781 140.62C468.377 140.056 469.493 138.616 469.493 137.092V136.66H467.093V135.856H472.841V136.66H470.477V137.092C470.477 138.472 471.533 139.828 473.093 140.38ZM468.413 142.948V142.156H475.613V145.9H474.617V142.948H468.413ZM474.617 135.124H475.613V141.568H474.617V138.736H472.517V137.932H474.617V135.124ZM486.616 135.136V142.996H485.632V135.136H486.616ZM478.996 138.52C478.996 139.588 479.788 140.332 480.832 140.332C481.9 140.332 482.692 139.588 482.692 138.52C482.692 137.476 481.9 136.732 480.832 136.732C479.788 136.732 478.996 137.476 478.996 138.52ZM483.652 138.52C483.652 140.08 482.44 141.184 480.832 141.184C479.236 141.184 478.036 140.08 478.036 138.52C478.036 136.972 479.236 135.88 480.832 135.88C482.44 135.88 483.652 136.972 483.652 138.52ZM480.676 144.844H486.94V145.648H479.692V142.192H480.676V144.844ZM500.058 135.124V140.644H499.074V135.124H500.058ZM492.426 137.908C492.426 138.832 493.206 139.492 494.25 139.492C495.306 139.492 496.074 138.832 496.074 137.908C496.074 136.972 495.306 136.312 494.25 136.312C493.206 136.312 492.426 136.972 492.426 137.908ZM497.034 137.908C497.034 139.324 495.858 140.284 494.25 140.284C492.642 140.284 491.478 139.324 491.478 137.908C491.478 136.48 492.642 135.508 494.25 135.508C495.858 135.508 497.034 136.48 497.034 137.908ZM494.082 144.964H500.418V145.744H493.11V143.044H499.086V141.952H493.086V141.172H500.058V143.776H494.082V144.964ZM505.889 137.044V138.412C505.889 140.128 507.113 142.036 508.673 142.768L508.109 143.56C506.909 142.96 505.901 141.7 505.409 140.26C504.917 141.832 503.873 143.2 502.661 143.824L502.085 143.044C503.621 142.276 504.917 140.236 504.917 138.412V137.044H502.457V136.228H508.277V137.044H505.889ZM512.321 139.468V140.296H510.545V145.888H509.561V135.136H510.545V139.468H512.321ZM514.912 139.96V142.48C516.676 142.48 518.26 142.396 520.144 142.096L520.24 142.9C518.296 143.224 516.664 143.296 514.816 143.296H513.928V139.168H517.888V136.924H513.892V136.12H518.884V139.96H514.912ZM521.152 135.112H522.136V145.9H521.152V135.112ZM526.779 142.612C527.619 142.612 528.171 141.52 528.171 139.756C528.171 138.028 527.619 136.936 526.779 136.936C525.915 136.936 525.375 138.028 525.375 139.756C525.375 141.52 525.915 142.612 526.779 142.612ZM530.415 139.312V135.364H531.351V145.36H530.415V140.116H529.059C528.975 142.228 528.099 143.524 526.779 143.524C525.375 143.524 524.475 142.084 524.475 139.756C524.475 137.464 525.375 136.024 526.779 136.024C528.075 136.024 528.939 137.284 529.059 139.312H530.415ZM532.551 135.124H533.487V145.888H532.551V135.124ZM538.408 136.18H543.352V143.176H538.408V136.18ZM542.392 136.972H539.368V142.396H542.392V136.972ZM545.608 135.124H546.592V145.912H545.608V135.124ZM552.784 137.776V138.604C552.784 140.404 554.008 142.156 555.604 142.852L555.064 143.62C553.828 143.056 552.808 141.892 552.316 140.476C551.836 141.976 550.816 143.2 549.58 143.8L549.028 143.056C550.624 142.3 551.812 140.488 551.812 138.604V137.776H549.316V136.984H551.8V135.316H552.796V136.984H555.243V137.776H552.784ZM556.648 135.112H557.644V145.876H556.648V135.112ZM568.491 138.364V139.168H561.171V135.52H562.155V138.364H568.491ZM562.083 142.48V144.82H568.551V145.624H561.099V142.48H562.083ZM559.851 140.608H569.607V141.4H559.851V140.608ZM579.544 140.296L579.064 141.076C577.852 140.668 576.928 139.804 576.46 138.712C576.004 139.912 575.032 140.872 573.76 141.328L573.256 140.536C574.888 139.984 575.944 138.604 575.944 137.056V136.672H573.544V135.868H579.304V136.672H576.94V137.044C576.94 138.484 577.972 139.768 579.544 140.296ZM575.86 142.732V144.952H580.684V142.732H575.86ZM574.9 145.744V141.952H581.656V145.744H574.9ZM583.252 137.812V138.628H581.656V141.46H580.672V135.136H581.656V137.812H583.252ZM376.316 155.2V156.04C376.316 158.008 377.096 159.748 378.62 160.54L378.044 161.296C376.988 160.708 376.244 159.664 375.86 158.392C375.5 159.856 374.744 161.02 373.628 161.668L373.028 160.924C374.564 160.06 375.368 158.224 375.368 156.04V155.2H373.28V154.396H378.272V155.2H376.316ZM381.368 153.112H382.316V163.888H381.368V158.284H379.952V163.36H379.028V153.364H379.952V157.468H381.368V153.112ZM390.523 158.38L390.031 159.148C388.831 158.716 387.907 157.828 387.427 156.712C386.971 157.948 385.987 158.932 384.727 159.4L384.211 158.62C385.807 158.056 386.923 156.616 386.923 155.092V154.66H384.523V153.856H390.271V154.66H387.907V155.092C387.907 156.472 388.963 157.828 390.523 158.38ZM385.843 160.948V160.156H393.043V163.9H392.047V160.948H385.843ZM392.047 153.124H393.043V159.568H392.047V156.736H389.947V155.932H392.047V153.124ZM404.046 153.136V160.996H403.062V153.136H404.046ZM396.426 156.52C396.426 157.588 397.218 158.332 398.262 158.332C399.33 158.332 400.122 157.588 400.122 156.52C400.122 155.476 399.33 154.732 398.262 154.732C397.218 154.732 396.426 155.476 396.426 156.52ZM401.082 156.52C401.082 158.08 399.87 159.184 398.262 159.184C396.666 159.184 395.466 158.08 395.466 156.52C395.466 154.972 396.666 153.88 398.262 153.88C399.87 153.88 401.082 154.972 401.082 156.52ZM398.106 162.844H404.37V163.648H397.122V160.192H398.106V162.844ZM409.76 156.316C409.76 157.324 410.552 158.044 411.596 158.044C412.652 158.044 413.42 157.324 413.42 156.316C413.42 155.32 412.652 154.6 411.596 154.6C410.552 154.6 409.76 155.32 409.76 156.316ZM416.528 155.476H414.224C414.308 155.728 414.356 156.004 414.356 156.316C414.356 156.616 414.308 156.892 414.212 157.156H416.528V155.476ZM416.528 157.96H413.768C413.276 158.536 412.508 158.884 411.596 158.884C410 158.884 408.824 157.828 408.824 156.316C408.824 154.816 410 153.772 411.596 153.772C412.508 153.772 413.276 154.12 413.768 154.672H416.528V153.124H417.524V159.496H416.528V157.96ZM413.96 163.096C415.604 163.096 416.588 162.616 416.588 161.812C416.588 160.996 415.604 160.516 413.96 160.516C412.34 160.516 411.356 160.996 411.356 161.812C411.356 162.616 412.34 163.096 413.96 163.096ZM413.96 159.748C416.18 159.748 417.56 160.504 417.56 161.812C417.56 163.12 416.18 163.876 413.96 163.876C411.752 163.876 410.384 163.12 410.384 161.812C410.384 160.504 411.752 159.748 413.96 159.748ZM426.079 154.336V155.128H419.731V154.336H422.407V153.028H423.391V154.336H426.079ZM421.267 157.564C421.267 158.272 421.915 158.728 422.899 158.728C423.883 158.728 424.543 158.272 424.543 157.564C424.543 156.868 423.883 156.412 422.899 156.412C421.915 156.412 421.267 156.868 421.267 157.564ZM425.479 157.564C425.479 158.728 424.435 159.472 422.899 159.472C421.363 159.472 420.331 158.728 420.331 157.564C420.331 156.412 421.363 155.668 422.899 155.668C424.435 155.668 425.479 156.412 425.479 157.564ZM424.675 163.12C426.247 163.12 427.207 162.712 427.207 162.016C427.207 161.32 426.247 160.912 424.675 160.912C423.103 160.912 422.143 161.32 422.143 162.016C422.143 162.712 423.103 163.12 424.675 163.12ZM424.675 160.156C426.835 160.156 428.179 160.828 428.179 162.016C428.179 163.192 426.835 163.876 424.675 163.876C422.503 163.876 421.171 163.192 421.171 162.016C421.171 160.828 422.503 160.156 424.675 160.156ZM429.607 155.788H428.047V157.276H429.607V158.092H428.047V160.048H427.063V153.124H428.047V154.984H429.607V155.788ZM433.17 160.612C434.01 160.612 434.562 159.52 434.562 157.756C434.562 156.028 434.01 154.936 433.17 154.936C432.306 154.936 431.766 156.028 431.766 157.756C431.766 159.52 432.306 160.612 433.17 160.612ZM436.806 157.312V153.364H437.742V163.36H436.806V158.116H435.45C435.366 160.228 434.49 161.524 433.17 161.524C431.766 161.524 430.866 160.084 430.866 157.756C430.866 155.464 431.766 154.024 433.17 154.024C434.466 154.024 435.33 155.284 435.45 157.312H436.806ZM438.942 153.124H439.878V163.888H438.942V153.124ZM445.531 155.236V160.42C446.971 160.408 447.991 160.348 449.167 160.096L449.251 160.912C447.967 161.188 446.875 161.236 445.267 161.236H444.559V154.432H448.567V155.236H445.531ZM452.371 153.124H453.319V163.888H452.371V158.248H450.847V163.348H449.923V153.364H450.847V157.444H452.371V153.124ZM461.598 154.444V155.236H455.25V154.444H457.926V153.124H458.91V154.444H461.598ZM456.786 157.828C456.786 158.584 457.446 159.064 458.418 159.064C459.39 159.064 460.062 158.584 460.062 157.828C460.062 157.084 459.39 156.604 458.418 156.604C457.446 156.604 456.786 157.084 456.786 157.828ZM460.998 157.828C460.998 159.04 459.942 159.832 458.418 159.832C456.894 159.832 455.85 159.04 455.85 157.828C455.85 156.628 456.894 155.836 458.418 155.836C459.942 155.836 460.998 156.628 460.998 157.828ZM457.854 160.564V162.844H464.046V163.648H456.87V160.564H457.854ZM463.566 156.676H465.15V157.504H463.566V161.2H462.582V153.124H463.566V156.676ZM473.504 154.348C471.872 154.348 470.756 154.96 470.756 155.908C470.756 156.868 471.872 157.48 473.504 157.48C475.148 157.48 476.264 156.868 476.264 155.908C476.264 154.96 475.148 154.348 473.504 154.348ZM473.504 158.272C471.272 158.272 469.748 157.36 469.748 155.908C469.748 154.468 471.272 153.556 473.504 153.556C475.748 153.556 477.272 154.468 477.272 155.908C477.272 157.36 475.748 158.272 473.504 158.272ZM478.4 159.292V160.108H473.996V163.9H473.012V160.108H468.656V159.292H478.4ZM481.063 157.948V160.576C482.647 160.576 483.967 160.504 485.575 160.252L485.659 161.068C483.967 161.332 482.587 161.392 480.907 161.392H480.091V157.144H483.799V154.888H480.067V154.096H484.771V157.948H481.063ZM487.567 153.112H488.551V163.9H487.567V159.328H485.371V158.524H487.567V156.376H485.443V155.572H487.567V153.112ZM492.054 156.352C492.054 157.372 492.846 158.044 493.95 158.044C495.042 158.044 495.834 157.372 495.834 156.352C495.834 155.344 495.042 154.648 493.95 154.648C492.846 154.648 492.054 155.344 492.054 156.352ZM494.442 158.848V160.672C495.426 160.624 496.422 160.564 497.346 160.432L497.43 161.152C495.15 161.536 492.642 161.572 490.746 161.572L490.614 160.744C491.466 160.744 492.45 160.732 493.458 160.708V158.848C492.054 158.68 491.094 157.696 491.094 156.352C491.094 154.84 492.282 153.82 493.95 153.82C495.594 153.82 496.794 154.84 496.794 156.352C496.794 157.696 495.822 158.668 494.442 158.848ZM500.718 157.564V158.392H499.014V163.888H498.03V153.112H499.014V157.564H500.718ZM507.391 154.132V156.148C507.391 157.9 508.219 159.724 509.647 160.516L509.059 161.296C508.039 160.696 507.295 159.592 506.911 158.308C506.527 159.712 505.735 160.924 504.679 161.572L504.055 160.828C505.543 159.964 506.443 158.044 506.443 156.184V154.132H507.391ZM512.383 153.124H513.319V163.888H512.383V158.26H510.955V163.348H510.019V153.364H510.955V157.456H512.383V153.124ZM520.578 161.752H524.982V162.556H515.202V161.752H519.582V159.724H516.426V156.4H522.81V154.72H516.402V153.916H523.77V157.192H517.398V158.932H524.022V159.724H520.578V161.752ZM531.113 154.192C529.469 154.192 528.377 154.708 528.377 155.56C528.377 156.4 529.469 156.916 531.113 156.916C532.769 156.916 533.849 156.4 533.849 155.56C533.849 154.708 532.769 154.192 531.113 154.192ZM531.113 157.72C528.833 157.72 527.345 156.892 527.345 155.56C527.345 154.228 528.833 153.4 531.113 153.4C533.393 153.4 534.881 154.228 534.881 155.56C534.881 156.892 533.393 157.72 531.113 157.72ZM528.473 160.504V162.832H534.929V163.648H527.489V160.504H528.473ZM526.241 158.584H535.997V159.388H531.701V161.56H530.705V159.388H526.241V158.584ZM545.059 161.716H549.463V162.532H539.683V161.716H544.063V158.956H540.931V153.988H548.227V154.792H541.915V158.164H548.335V158.956H545.059V161.716ZM560.478 158.452V159.256H556.086V163.9H555.09V159.256H550.746V158.452H557.886C558.222 156.904 558.222 155.764 558.222 154.756V154.612H551.958V153.82H559.182V154.756C559.182 155.764 559.182 156.904 558.882 158.452H560.478ZM567.137 161.752H571.541V162.556H561.761V161.752H566.141V159.724H562.985V156.4H569.369V154.72H562.961V153.916H570.329V157.192H563.957V158.932H570.581V159.724H567.137V161.752ZM576.58 154.048V155.98C576.58 157.936 577.804 159.892 579.364 160.636L578.788 161.416C577.564 160.804 576.58 159.52 576.088 158.008C575.62 159.604 574.624 160.96 573.412 161.608L572.812 160.828C574.372 160.048 575.596 157.972 575.596 155.98V154.048H576.58ZM580.696 153.124H581.68V163.9H580.696V157.576H578.2V156.772H580.696V153.124ZM587.343 153.916C589.023 153.916 590.223 154.936 590.223 156.448C590.223 157.948 589.023 158.98 587.343 158.98C585.675 158.98 584.463 157.948 584.463 156.448C584.463 154.936 585.675 153.916 587.343 153.916ZM587.343 154.756C586.239 154.756 585.423 155.44 585.423 156.448C585.423 157.444 586.239 158.14 587.343 158.14C588.459 158.14 589.263 157.444 589.263 156.448C589.263 155.44 588.459 154.756 587.343 154.756ZM591.639 153.124H592.623V163.912H591.639V153.124ZM584.043 161.548L583.923 160.72C585.879 160.72 588.579 160.708 590.931 160.348L591.015 161.08C588.591 161.524 585.987 161.548 584.043 161.548ZM382.352 172.696V173.5H373.616V172.696H377.516V171.292H378.5V172.696H382.352ZM375.464 176.272C375.464 177.076 376.436 177.556 378.008 177.556C379.556 177.556 380.516 177.076 380.516 176.272C380.516 175.48 379.556 175 378.008 175C376.436 175 375.464 175.48 375.464 176.272ZM378.5 179.824H382.892V180.628H373.136V179.824H377.516V178.312C375.62 178.204 374.468 177.472 374.468 176.272C374.468 174.976 375.824 174.232 378.008 174.232C380.156 174.232 381.512 174.976 381.512 176.272C381.512 177.472 380.372 178.192 378.5 178.312V179.824ZM384.811 172.288H389.851C389.851 175.396 388.423 178.132 384.847 179.884L384.319 179.08C387.211 177.7 388.651 175.636 388.855 173.08H384.811V172.288ZM392.023 171.124H393.007V181.888H392.023V171.124ZM401.73 175.996L401.238 176.776C400.002 176.344 399.018 175.432 398.526 174.268C398.058 175.516 397.062 176.512 395.79 176.98L395.286 176.212C396.918 175.624 398.022 174.184 398.022 172.6V171.556H399.006V172.6C399.006 174.124 400.134 175.468 401.73 175.996ZM398.046 178.648V180.952H403.086V178.648H398.046ZM397.086 181.744V177.868H404.046V181.744H397.086ZM403.062 171.136H404.046V177.256H403.062V171.136Z" fill="#282828"/>
</g>
<g clip-path="url(#clip1_110_3745)">
<path d="M294.86 226.066C307.052 233.061 314.751 245.861 315.212 259.909C315.481 268.108 315.692 278.271 315.692 290.028C315.705 321.093 320.485 376.933 320.485 376.933L327.289 490.297L291.487 496.953L275.692 376.178L266.63 318.373L263.122 374.949L263.327 488.645L224.287 490.38L212.773 374.079L207.154 288.767L224.581 224.197L240.601 219.295L293.868 225.503L294.86 226.066Z" fill="#ECD2B5"/>
<path d="M256.409 235.026C256.409 235.026 256.447 235.141 256.473 235.372C256.505 235.647 256.543 235.98 256.588 236.389C256.678 237.349 256.799 238.661 256.959 240.319C257.254 243.801 257.663 248.729 258.169 254.783C259.122 267.065 260.434 283.916 261.881 302.54L261.497 302.188H261.567C263.5 302.188 265.414 302.188 267.206 302.188L266.828 302.585C266.105 285.17 265.094 269.663 264.268 258.514C263.846 252.991 263.506 248.517 263.263 245.356C263.154 243.858 263.065 242.668 263.001 241.797C262.95 240.985 262.93 240.556 262.956 240.556C262.982 240.556 263.046 240.978 263.142 241.785C263.238 242.655 263.372 243.839 263.538 245.33C263.865 248.421 264.3 252.901 264.774 258.476C265.734 269.618 266.834 285.132 267.577 302.559L267.596 302.956H267.199C265.407 302.956 263.494 302.956 261.561 302.956H261.138L261.113 302.604C259.75 283.973 258.521 267.116 257.625 254.834C257.215 248.767 256.889 243.839 256.652 240.351C256.556 238.687 256.479 237.375 256.428 236.409C256.409 235.999 256.396 235.66 256.39 235.385C256.39 235.154 256.39 235.039 256.409 235.039V235.026Z" fill="#455A64"/>
<path d="M259.353 229.785C260.979 229.785 262.297 228.466 262.297 226.841C262.297 225.215 260.979 223.897 259.353 223.897C257.727 223.897 256.409 225.215 256.409 226.841C256.409 228.466 257.727 229.785 259.353 229.785Z" fill="#455A64"/>
<path d="M229.363 65.2596C228.166 79.218 226.956 93.234 223.788 106.879C221.369 117.292 217.785 127.666 218.252 138.341C218.387 141.439 218.988 144.767 221.241 146.892C223.097 148.652 225.74 149.26 228.256 149.733C243.846 152.684 259.788 153.138 275.654 153.58C285.811 153.868 295.968 154.149 306.124 154.437C309.888 154.546 314.201 154.418 316.62 151.532C319.59 147.992 317.881 142.674 316.128 138.399C305.433 112.338 297.804 85.0164 293.452 57.1892" fill="#383626"/>
<path d="M234.463 50.0724C240.754 40.8116 249.791 35.0068 260.914 33.8228C267.192 33.1572 269.912 34.2324 274.546 35.0516C279.186 35.8708 283.487 37.938 286.527 41.5284C290.143 45.7972 293.292 50.6548 294.392 56.1396C295.525 61.7716 295.583 67.378 294.911 72.0628C294.092 77.746 291.032 86.6036 288.082 91.538L278.533 93.5732C270.54 94.5588 262.431 95.5508 254.456 94.418C246.482 93.2852 238.514 89.7588 233.72 83.282C227.064 74.29 228.159 59.3332 234.45 50.0724H234.463Z" fill="#383626"/>
<path d="M247.372 48.8244L266.041 39.4036L271.148 39.538C282.534 38.5652 291.494 50.4116 292.39 59.6212C293.382 69.8548 294.194 82.3796 293.241 90.0724C291.321 105.541 278.482 107.954 278.482 107.954C278.482 107.954 280.633 125.989 281.183 131.077L250.188 121.605L242.7 54.4692C242.553 51.666 244.569 49.2084 247.353 48.818L247.372 48.8244Z" fill="#FFBF9D"/>
<path d="M287.461 73.4452C287.532 74.4884 286.712 75.4036 285.624 75.4996C284.543 75.5956 283.602 74.8276 283.532 73.7908C283.461 72.754 284.28 71.8324 285.362 71.7364C286.444 71.6404 287.384 72.4084 287.455 73.4452H287.461Z" fill="#383626"/>
<path d="M289.388 65.0548C289.151 65.3172 287.621 64.2676 285.497 64.3444C283.372 64.3892 281.855 65.5348 281.618 65.2852C281.503 65.1764 281.733 64.7028 282.399 64.1844C283.052 63.6724 284.172 63.154 285.497 63.1156C286.821 63.0772 287.948 63.5252 288.607 64.0052C289.279 64.4852 289.516 64.9396 289.401 65.0612L289.388 65.0548Z" fill="#383626"/>
<path d="M277.286 82.834C277.273 82.7124 278.585 82.4436 280.71 82.0916C281.247 82.0148 281.759 81.8932 281.836 81.522C281.951 81.1252 281.702 80.5492 281.42 79.9284C280.863 78.6356 280.287 77.2788 279.673 75.858C277.247 70.0596 275.468 65.2788 275.705 65.1828C275.942 65.0868 278.098 69.714 280.524 75.5124C281.106 76.946 281.67 78.3092 282.201 79.6148C282.431 80.2228 282.802 80.9076 282.553 81.7332C282.418 82.1428 282.034 82.45 281.689 82.5588C281.343 82.674 281.042 82.6932 280.774 82.7188C278.63 82.9044 277.292 82.962 277.279 82.8404L277.286 82.834Z" fill="#383626"/>
<path d="M278.52 107.948C278.52 107.948 268.196 108.965 257.732 103.154C257.732 103.154 263.582 113.631 278.929 111.666L278.52 107.948Z" fill="#FF9A6C"/>
<path d="M289.394 58.5524C289.055 59.0836 287.417 58.7892 285.522 59.0132C283.621 59.1732 282.073 59.7876 281.637 59.3396C281.445 59.1156 281.637 58.6036 282.277 58.0596C282.911 57.5156 284.012 56.9972 285.317 56.8692C286.623 56.7412 287.801 57.0228 288.524 57.4324C289.253 57.8356 289.541 58.3028 289.394 58.5588V58.5524Z" fill="#383626"/>
<path d="M263.699 74.5844C263.737 75.6276 264.652 76.4532 265.74 76.434C266.828 76.4148 267.679 75.5572 267.641 74.514C267.603 73.4708 266.687 72.6452 265.606 72.6644C264.518 72.6836 263.66 73.5476 263.699 74.5844Z" fill="#383626"/>
<path d="M260.722 66.7828C260.984 67.0196 262.399 65.81 264.517 65.6628C266.629 65.4836 268.267 66.4628 268.479 66.1876C268.581 66.066 268.299 65.618 267.589 65.1764C266.885 64.7348 265.714 64.338 264.395 64.434C263.077 64.5364 262.002 65.0996 261.4 65.6436C260.779 66.1876 260.594 66.6676 260.722 66.7764V66.7828Z" fill="#383626"/>
<path d="M263.519 59.3012C263.96 59.762 265.573 59.1732 267.538 59.0388C269.503 58.8468 271.192 59.1604 271.544 58.642C271.698 58.386 271.41 57.9188 270.655 57.5028C269.912 57.0868 268.69 56.7796 267.346 56.8948C265.995 57.01 264.85 57.5092 264.191 58.0404C263.525 58.5716 263.32 59.0836 263.519 59.3076V59.3012Z" fill="#383626"/>
<path d="M247.641 79.9668C247.603 78.8212 246.182 76.1652 245.043 76.0244C242.003 75.6532 236.569 76.082 236.78 83.762C237.068 94.2516 247.545 91.8004 247.552 91.4996C247.558 91.2628 247.782 83.922 247.641 79.9668Z" fill="#FFBF9D"/>
<path d="M244.556 87.7492C244.511 87.7172 244.377 87.8836 244.069 88.0308C243.769 88.178 243.257 88.2868 242.706 88.0948C241.586 87.7172 240.607 85.9828 240.505 84.0948C240.453 83.1412 240.626 82.226 240.946 81.4644C241.247 80.69 241.727 80.1396 242.284 80.0244C242.834 79.8836 243.237 80.2036 243.378 80.498C243.525 80.786 243.468 80.9972 243.519 81.0164C243.551 81.042 243.737 80.8372 243.641 80.402C243.589 80.1908 243.461 79.9476 243.212 79.7556C242.956 79.5572 242.585 79.4612 242.194 79.5188C241.388 79.5956 240.677 80.3636 240.332 81.1956C239.941 82.0404 239.717 83.0644 239.781 84.1396C239.903 86.2516 241.042 88.1972 242.572 88.6004C243.314 88.7732 243.922 88.53 244.236 88.274C244.556 88.0052 244.601 87.7684 244.569 87.7492H244.556Z" fill="#FF9A6C"/>
<path d="M244.626 76.0948L247.525 78.61C264.223 67.6276 281.202 37.7268 276.818 38.9492C276.818 38.9492 268.69 36.4212 260.306 38.6292C251.922 40.8372 236.159 46.5396 237.298 56.5556C238.443 66.5716 244.626 76.0948 244.626 76.0948Z" fill="#383626"/>
<path d="M312.53 257.484C312.479 257.573 311.096 256.85 308.959 255.538C306.815 254.226 303.928 252.306 300.792 250.124C297.765 248.018 295.026 246.111 292.76 244.53C290.706 243.103 289.426 242.226 289.483 242.13C289.535 242.04 290.917 242.764 293.055 244.076C295.199 245.388 298.085 247.308 301.227 249.49C304.255 251.596 306.994 253.503 309.259 255.084C311.314 256.511 312.594 257.388 312.536 257.484H312.53Z" fill="#455A64"/>
<path d="M220.574 127.032L249.835 118.271H280.561L310.072 127.032L312.773 134.808L262.385 160.088L220.574 127.032Z" fill="#FFBF9D"/>
<path d="M326.278 142.085C326.278 142.085 332.454 168.005 335.641 184.709C338.336 198.866 341.651 217.036 334.547 224.268C327.449 231.5 323.686 234.316 321.184 233.106C318.681 231.896 303.225 219.045 303.225 219.045L299.865 141.772L326.278 142.085Z" fill="#BDB4B3"/>
<path d="M186.22 287.333C186.22 286.552 187.237 242.264 187.237 242.264L194.975 239.128L246.463 253.24V302.623L237.548 303.992L186.22 287.333Z" fill="#455A64"/>
<path d="M239.168 302.597L237.869 256.472L188.8 241.631L194.381 240.082L244.48 254.13V301.535L239.168 302.597Z" fill="#F5F5F5"/>
<path d="M200.895 247.084C200.895 247.084 193.375 244.722 196.3 237.234C199.224 229.746 198.879 189.413 199.276 180.364C200.37 155.365 200.978 152.268 204.677 141.951L221.778 161.88C221.778 161.88 219.692 237.279 221.778 242.936C223.864 248.594 221.778 245.202 217.599 247.084C213.42 248.972 200.888 247.084 200.888 247.084H200.895Z" fill="#BDB4B3"/>
<path d="M202.789 247.589C202.789 247.589 203.576 275.513 203.935 278.943C204.293 282.367 200.658 290.252 203.365 293.33L206.072 296.415L211.416 297.272C211.416 297.272 211.237 300.357 214.085 300.357H216.933C216.933 300.357 218.36 303.269 220.671 302.412C222.987 301.554 222.098 296.761 222.098 296.761C222.098 296.761 224.594 296.933 224.594 293.676C224.594 290.418 224.594 280.985 220.498 275.084C216.402 269.183 217.291 265.068 217.291 265.068L219.711 246.911L202.36 248.312" fill="#FFBF9D"/>
<path d="M239.743 121.292C239.743 121.292 204.678 127.96 204.678 141.951L220.582 166.687V214.834C220.582 214.834 217.9 229.624 226.796 229.784C235.692 229.944 242.719 219.538 242.719 219.538L293.881 225.503C293.881 225.503 296.127 231.941 303.34 227.64C305.363 226.437 304.979 223.628 304.979 209.138C304.979 205.388 326.86 170.988 327.295 170.264C327.5 169.925 327.916 162.008 328.307 153.599C328.863 141.663 321.42 130.815 310.079 127.039C305.228 125.599 288.595 119.877 288.595 119.877C288.595 119.877 280.063 134.629 267.647 136.248C259.27 137.343 248.499 127.871 239.75 121.298L239.743 121.292Z" fill="#BDB4B3"/>
<path d="M312.21 219.756C310.654 220.069 293.867 244.94 293.867 244.94L309.182 254.904L313.445 241.33L326.277 225.061C326.277 225.061 324.139 217.356 312.21 219.749V219.756Z" fill="#FFBF9D"/>
<path d="M207.058 152.991C207.058 152.991 207.244 153.17 207.538 153.554C207.826 153.944 208.274 154.501 208.78 155.269C209.823 156.78 211.212 159.064 212.671 162.015C215.628 167.896 218.495 176.652 219.832 186.617C221.183 196.581 221.112 205.695 220.991 212.248C220.92 215.532 220.818 218.181 220.728 220.012C220.677 220.856 220.639 221.554 220.607 222.124C220.568 222.604 220.536 222.86 220.511 222.86C220.485 222.86 220.466 222.604 220.453 222.124C220.453 221.554 220.44 220.856 220.434 220.012C220.434 218.06 220.447 215.436 220.453 212.248C220.434 205.701 220.415 196.626 219.077 186.732C217.746 176.844 214.994 168.153 212.184 162.258C210.802 159.301 209.496 156.997 208.53 155.442C207.57 153.887 207.007 153.042 207.058 153.004V152.991Z" fill="#383626"/>
<path d="M307.404 160.901C307.455 160.901 307.436 161.759 307.359 163.301C307.263 164.978 307.141 167.173 306.994 169.829C306.674 175.34 306.258 182.949 305.925 191.359C305.593 199.768 305.401 207.391 305.279 212.908C305.215 215.564 305.164 217.765 305.119 219.442C305.074 220.984 305.023 221.836 304.972 221.836C304.921 221.836 304.869 220.984 304.825 219.442C304.78 217.9 304.748 215.666 304.741 212.901C304.722 207.378 304.831 199.749 305.164 191.327C305.503 182.911 306.002 175.295 306.457 169.791C306.687 167.039 306.892 164.818 307.065 163.282C307.231 161.746 307.346 160.901 307.404 160.908V160.901Z" fill="#383626"/>
<path d="M227.795 209.586C227.91 209.407 231.648 211.583 236.14 214.444C240.64 217.305 244.192 219.769 244.076 219.948C243.961 220.127 240.224 217.951 235.731 215.084C231.232 212.223 227.68 209.759 227.795 209.58V209.586Z" fill="#383626"/>
<path d="M240.485 199.877C240.729 199.903 239.935 204.517 240.857 210.124C241.721 215.736 243.903 219.877 243.673 219.98C243.589 220.024 242.943 219.045 242.169 217.324C241.394 215.602 240.556 213.106 240.101 210.245C239.653 207.384 239.679 204.754 239.877 202.872C240.076 200.991 240.396 199.864 240.485 199.884V199.877Z" fill="#383626"/>
<path d="M274.348 129.228C272.229 131.717 267.641 136.242 267.641 136.242L280.562 143.986L290.745 120.6L279.173 113.624C279.173 113.624 278.45 124.402 274.354 129.221L274.348 129.228Z" fill="#6C6E74"/>
<path d="M258.777 130.546C261.689 132.805 267.641 136.242 267.641 136.242L254.534 147.794L238.444 125.343L250.214 114.668C250.214 114.668 253.145 126.181 258.777 130.546Z" fill="#6C6E74"/>
<path d="M248.691 110.124L231.18 118.072C228.499 131.64 228.921 145.81 232.396 159.192C232.857 160.952 233.459 162.84 234.943 163.89C236.287 164.844 238.054 164.888 239.699 164.901C246.361 164.952 253.023 165.004 259.686 165.055C256.019 146.744 252.351 128.434 248.684 110.124H248.691Z" fill="#383626"/>
<path d="M284.441 89.7396C284.441 89.7396 284.236 96.8564 275.359 96.8564C266.482 96.8564 266.277 89.7396 266.277 89.7396H284.441Z" fill="#FFFEFA"/>
<path d="M272.146 39.41C267.263 49.1316 256.792 69.7972 247.82 75.218C246.988 75.6596 245.957 76.1012 245.042 76.0116C246.015 75.9796 246.93 75.5956 247.762 75.1156C256.53 69.5092 267.16 48.9908 272.146 39.41Z" fill="#999999"/>
<path d="M269.843 36.9397C261.152 34.6485 249.888 35.1733 244.365 43.2629C240.954 47.9029 241.005 53.8293 239.232 59.1285C237.095 66.3605 232.845 72.6709 228.467 78.7061C224.026 84.7157 220.627 91.5253 219.488 98.9685C220.391 91.5445 223.898 84.6005 228.256 78.5589C232.621 72.5237 236.864 66.2645 239.034 59.0645C240.819 53.7973 240.807 47.8133 244.243 43.1797C249.799 35.0837 261.216 34.5269 269.843 36.9397Z" fill="#999999"/>
<path d="M271.596 39.41C266.924 47.6916 253.125 72.9908 244.658 75.5188C245.503 75.2116 246.399 74.7572 247.148 74.1812C252.313 69.9892 255.967 64.2676 259.749 58.866C263.973 52.5748 267.865 45.9444 271.589 39.41H271.596Z" fill="#999999"/>
<path d="M275.192 39.0196C282.968 38.546 288.959 44.9396 291.596 51.698C293.016 55.1412 293.311 58.8724 293.746 62.5268C294.188 66.1876 294.597 69.8548 294.936 73.522C295.263 77.1956 295.544 80.8756 295.576 84.5684C295.653 88.2676 295 91.922 294.7 95.5956C294.386 99.954 292.62 114.616 295.935 117.196C292.498 114.86 294.175 99.8196 294.444 95.57C294.744 91.9028 295.397 88.2548 295.32 84.562C295.25 77.1956 294.399 69.8484 293.573 62.5332C293.151 58.8852 292.869 55.1668 291.468 51.73C288.818 44.9204 282.956 38.6612 275.18 39.0068L275.192 39.0196Z" fill="#999999"/>
<path d="M240.716 91.0964C245.049 108.255 248.831 125.868 247.66 143.666C247.557 149.426 246.418 155.852 249.874 160.895C248.985 159.788 248.351 158.322 247.935 156.92C246.802 152.594 247.333 148.063 247.404 143.653C247.621 137.746 247.756 131.826 247.199 125.944C246.015 114.188 243.481 102.52 240.716 91.0964Z" fill="#999999"/>
<path d="M246.727 160.088C245.402 148.517 244.41 136.888 244.384 125.234C244.397 122.316 244.448 119.41 244.307 116.504C244.09 107.743 241.626 99.2629 240.691 90.5845H240.717C241.408 96.3765 242.848 102.034 243.731 107.794C244.634 113.56 244.755 119.423 244.621 125.24C244.557 136.869 245.575 148.581 246.733 160.095L246.727 160.088Z" fill="#999999"/>
<path d="M295.353 101.464C295.353 101.464 300.492 122.354 303.929 125.061L295.353 101.464Z" fill="#606060"/>
</g>
</g>
<rect x="1" y="0.5" width="618" height="363" rx="15.5" stroke="black" stroke-opacity="0.02"/>
<defs>
<filter id="filter0_d_110_3745" x="15.5" y="216" width="260" height="135" filterUnits="userSpaceOnUse" color-interpolation-filters="sRGB">
<feFlood flood-opacity="0" result="BackgroundImageFix"/>
<feColorMatrix in="SourceAlpha" type="matrix" values="0 0 0 0 0 0 0 0 0 0 0 0 0 0 0 0 0 0 127 0" result="hardAlpha"/>
<feOffset dy="2"/>
<feComposite in2="hardAlpha" operator="out"/>
<feColorMatrix type="matrix" values="0 0 0 0 0.643137 0 0 0 0 0.733333 0 0 0 0 0.952941 0 0 0 0.2 0"/>
<feBlend mode="normal" in2="BackgroundImageFix" result="effect1_dropShadow_110_3745"/>
<feBlend mode="normal" in="SourceGraphic" in2="effect1_dropShadow_110_3745" result="shape"/>
</filter>
<filter id="filter1_d_110_3745" x="344.5" y="15" width="260" height="183" filterUnits="userSpaceOnUse" color-interpolation-filters="sRGB">
<feFlood flood-opacity="0" result="BackgroundImageFix"/>
<feColorMatrix in="SourceAlpha" type="matrix" values="0 0 0 0 0 0 0 0 0 0 0 0 0 0 0 0 0 0 127 0" result="hardAlpha"/>
<feOffset dy="2"/>
<feComposite in2="hardAlpha" operator="out"/>
<feColorMatrix type="matrix" values="0 0 0 0 0.643137 0 0 0 0 0.733333 0 0 0 0 0.952941 0 0 0 0.4 0"/>
<feBlend mode="normal" in2="BackgroundImageFix" result="effect1_dropShadow_110_3745"/>
<feBlend mode="normal" in="SourceGraphic" in2="effect1_dropShadow_110_3745" result="shape"/>
</filter>
<linearGradient id="paint0_linear_110_3745" x1="0.5" y1="0" x2="618.055" y2="351.084" gradientUnits="userSpaceOnUse">
<stop stop-color="#FEFCF1"/>
<stop offset="0.0001" stop-color="#FEFEFA"/>
<stop offset="0.495" stop-color="#D9EFFF" stop-opacity="0.82"/>
<stop offset="1" stop-color="#D9E4FF" stop-opacity="0.82"/>
</linearGradient>
<clipPath id="clip0_110_3745">
<rect x="0.5" width="619" height="364" rx="16" fill="white"/>
</clipPath>
<clipPath id="clip1_110_3745">
<rect width="160.781" height="492.864" fill="white" transform="translate(186.22 33.618)"/>
</clipPath>
</defs>
</svg>
