<svg width="966" height="53" viewBox="0 0 966 53" fill="none" xmlns="http://www.w3.org/2000/svg">
<g clip-path="url(#clip0_242_945)">
<path d="M0.5 6C0.5 2.68629 3.18629 0 6.5 0H959.3C962.614 0 965.3 2.68629 965.3 6V28.14H0.5V6Z" fill="#DFE1E5"/>
<rect x="14.5703" y="10.7202" width="8.04" height="8.04" rx="4.02" fill="#EC6B5E"/>
<rect x="27.9707" y="10.7202" width="8.04" height="8.04" rx="4.02" fill="#F4BF4F"/>
<rect x="41.3701" y="10.7202" width="8.04" height="8.04" rx="4.02" fill="#61C453"/>
<g clip-path="url(#clip1_242_945)">
<g clip-path="url(#clip2_242_945)">
<path d="M58.79 10.7199C58.79 7.75961 61.1898 5.35986 64.15 5.35986H214.23C217.19 5.35986 219.59 7.75962 219.59 10.7199V28.1399H58.79V10.7199Z" fill="white"/>
<rect x="190.11" y="5.35986" width="29.48" height="22.78" fill="url(#paint0_linear_242_945)"/>
<path d="M206.86 14.7397L208.87 16.7497M208.87 16.7497L210.88 14.7397M208.87 16.7497L206.86 18.7597M208.87 16.7497L210.88 18.7597" stroke="#3D4043" stroke-width="1.005" stroke-linecap="round" stroke-linejoin="round"/>
<path d="M82.6376 19.3896C82.1329 19.3896 81.7672 19.2932 81.5404 19.1004C81.3164 18.9048 81.2044 18.5858 81.2044 18.1435V15.4684H80.4814V14.7412H81.2044V13.5759H82.1485V14.7412H83.1395V15.4684H82.1485V17.9181C82.1485 18.1676 82.1982 18.3477 82.2974 18.4582C82.3966 18.566 82.5611 18.6199 82.7907 18.6199C82.8588 18.6199 82.9169 18.6184 82.9651 18.6156C83.0161 18.6128 83.0743 18.6085 83.1395 18.6028V19.3429C83.0658 19.3542 82.9864 19.3641 82.9013 19.3726C82.8163 19.384 82.7284 19.3896 82.6376 19.3896ZM84.1751 19.3599V12.9294H85.098V19.3599H84.1751ZM88.341 19.4492C87.8902 19.4492 87.5003 19.3528 87.1714 19.16C86.8454 18.9672 86.5944 18.6922 86.4187 18.3349C86.2429 17.9748 86.155 17.5481 86.155 17.0548V17.0463C86.155 16.5501 86.2429 16.1234 86.4187 15.7661C86.5973 15.4089 86.8496 15.1339 87.1757 14.9411C87.5046 14.7483 87.893 14.6519 88.341 14.6519C88.7918 14.6519 89.1802 14.7483 89.5063 14.9411C89.8323 15.131 90.0833 15.4061 90.259 15.7661C90.4377 16.1234 90.527 16.5501 90.527 17.0463V17.0548C90.527 17.5481 90.4377 17.9748 90.259 18.3349C90.0833 18.6922 89.8323 18.9672 89.5063 19.16C89.1831 19.3528 88.7946 19.4492 88.341 19.4492ZM88.341 18.6751C88.6047 18.6751 88.8286 18.6113 89.0129 18.4838C89.1972 18.3533 89.3376 18.1676 89.434 17.9266C89.5304 17.6856 89.5786 17.395 89.5786 17.0548V17.0463C89.5786 16.7032 89.5304 16.4112 89.434 16.1702C89.3376 15.9292 89.1972 15.7449 89.0129 15.6173C88.8286 15.4869 88.6047 15.4217 88.341 15.4217C88.0773 15.4217 87.8533 15.4869 87.669 15.6173C87.4847 15.7449 87.343 15.9292 87.2437 16.1702C87.1473 16.4112 87.0991 16.7032 87.0991 17.0463V17.0548C87.0991 17.395 87.1473 17.6856 87.2437 17.9266C87.343 18.1676 87.4847 18.3533 87.669 18.4838C87.8533 18.6113 88.0773 18.6751 88.341 18.6751ZM93.4935 19.4492C93.0427 19.4492 92.6528 19.3528 92.3239 19.16C91.9979 18.9672 91.7469 18.6922 91.5712 18.3349C91.3954 17.9748 91.3075 17.5481 91.3075 17.0548V17.0463C91.3075 16.5501 91.3954 16.1234 91.5712 15.7661C91.7498 15.4089 92.0021 15.1339 92.3282 14.9411C92.6571 14.7483 93.0455 14.6519 93.4935 14.6519C93.9443 14.6519 94.3327 14.7483 94.6588 14.9411C94.9848 15.131 95.2358 15.4061 95.4116 15.7661C95.5902 16.1234 95.6795 16.5501 95.6795 17.0463V17.0548C95.6795 17.5481 95.5902 17.9748 95.4116 18.3349C95.2358 18.6922 94.9848 18.9672 94.6588 19.16C94.3356 19.3528 93.9471 19.4492 93.4935 19.4492ZM93.4935 18.6751C93.7572 18.6751 93.9812 18.6113 94.1654 18.4838C94.3497 18.3533 94.4901 18.1676 94.5865 17.9266C94.6829 17.6856 94.7311 17.395 94.7311 17.0548V17.0463C94.7311 16.7032 94.6829 16.4112 94.5865 16.1702C94.4901 15.9292 94.3497 15.7449 94.1654 15.6173C93.9812 15.4869 93.7572 15.4217 93.4935 15.4217C93.2298 15.4217 93.0058 15.4869 92.8215 15.6173C92.6372 15.7449 92.4955 15.9292 92.3962 16.1702C92.2998 16.4112 92.2516 16.7032 92.2516 17.0463V17.0548C92.2516 17.395 92.2998 17.6856 92.3962 17.9266C92.4955 18.1676 92.6372 18.3533 92.8215 18.4838C93.0058 18.6113 93.2298 18.6751 93.4935 18.6751ZM98.4333 19.3896C97.9287 19.3896 97.5629 19.2932 97.3361 19.1004C97.1121 18.9048 97.0001 18.5858 97.0001 18.1435V15.4684H96.2771V14.7412H97.0001V13.5759H97.9443V14.7412H98.9352V15.4684H97.9443V17.9181C97.9443 18.1676 97.9939 18.3477 98.0931 18.4582C98.1923 18.566 98.3568 18.6199 98.5865 18.6199C98.6545 18.6199 98.7126 18.6184 98.7608 18.6156C98.8119 18.6128 98.87 18.6085 98.9352 18.6028V19.3429C98.8615 19.3542 98.7821 19.3641 98.697 19.3726C98.612 19.384 98.5241 19.3896 98.4333 19.3896ZM101.834 19.4492C101.383 19.4492 100.993 19.3528 100.664 19.16C100.338 18.9672 100.087 18.6922 99.9113 18.3349C99.7355 17.9748 99.6476 17.5481 99.6476 17.0548V17.0463C99.6476 16.5501 99.7355 16.1234 99.9113 15.7661C100.09 15.4089 100.342 15.1339 100.668 14.9411C100.997 14.7483 101.386 14.6519 101.834 14.6519C102.284 14.6519 102.673 14.7483 102.999 14.9411C103.325 15.131 103.576 15.4061 103.752 15.7661C103.93 16.1234 104.02 16.5501 104.02 17.0463V17.0548C104.02 17.5481 103.93 17.9748 103.752 18.3349C103.576 18.6922 103.325 18.9672 102.999 19.16C102.676 19.3528 102.287 19.4492 101.834 19.4492ZM101.834 18.6751C102.097 18.6751 102.321 18.6113 102.506 18.4838C102.69 18.3533 102.83 18.1676 102.927 17.9266C103.023 17.6856 103.071 17.395 103.071 17.0548V17.0463C103.071 16.7032 103.023 16.4112 102.927 16.1702C102.83 15.9292 102.69 15.7449 102.506 15.6173C102.321 15.4869 102.097 15.4217 101.834 15.4217C101.57 15.4217 101.346 15.4869 101.162 15.6173C100.977 15.7449 100.836 15.9292 100.736 16.1702C100.64 16.4112 100.592 16.7032 100.592 17.0463V17.0548C100.592 17.395 100.64 17.6856 100.736 17.9266C100.836 18.1676 100.977 18.3533 101.162 18.4838C101.346 18.6113 101.57 18.6751 101.834 18.6751ZM105.74 19.4279C105.564 19.4279 105.415 19.367 105.293 19.245C105.174 19.1231 105.115 18.9771 105.115 18.807C105.115 18.6312 105.174 18.4838 105.293 18.3647C105.415 18.2456 105.564 18.1861 105.74 18.1861C105.919 18.1861 106.068 18.2456 106.187 18.3647C106.306 18.4838 106.365 18.6312 106.365 18.807C106.365 18.9771 106.306 19.1231 106.187 19.245C106.068 19.367 105.919 19.4279 105.74 19.4279ZM105.74 16.2127C105.564 16.2127 105.415 16.1517 105.293 16.0298C105.174 15.9079 105.115 15.7619 105.115 15.5918C105.115 15.416 105.174 15.2685 105.293 15.1495C105.415 15.0304 105.564 14.9708 105.74 14.9708C105.919 14.9708 106.068 15.0304 106.187 15.1495C106.306 15.2685 106.365 15.416 106.365 15.5918C106.365 15.7619 106.306 15.9079 106.187 16.0298C106.068 16.1517 105.919 16.2127 105.74 16.2127ZM111.639 19.3599V14.048H109.708V13.2229H114.523V14.048H112.592V19.3599H111.639ZM115.537 19.3599V12.9294H116.46V15.4387H116.532C116.646 15.192 116.813 14.9992 117.034 14.8603C117.255 14.7213 117.534 14.6519 117.872 14.6519C118.215 14.6519 118.505 14.7185 118.744 14.8518C118.982 14.985 119.163 15.1807 119.288 15.4387C119.413 15.6938 119.475 16.0043 119.475 16.3701V19.3599H118.548V16.587C118.548 16.2014 118.467 15.915 118.306 15.7279C118.147 15.5379 117.897 15.4429 117.557 15.4429C117.333 15.4429 117.139 15.4925 116.974 15.5918C116.81 15.6882 116.682 15.8271 116.592 16.0086C116.504 16.1872 116.46 16.4012 116.46 16.6507V19.3599H115.537ZM122.612 19.4492C122.161 19.4492 121.774 19.3528 121.451 19.16C121.127 18.9643 120.878 18.6879 120.702 18.3307C120.529 17.9734 120.443 17.551 120.443 17.0633V17.059C120.443 16.577 120.529 16.156 120.702 15.7959C120.878 15.4358 121.125 15.1551 121.442 14.9538C121.763 14.7525 122.137 14.6519 122.565 14.6519C122.996 14.6519 123.366 14.7483 123.675 14.9411C123.987 15.1339 124.226 15.4046 124.394 15.7534C124.561 16.0993 124.645 16.5047 124.645 16.9697V17.2929H120.911V16.6337H124.185L123.743 17.2462V16.8762C123.743 16.5473 123.692 16.2751 123.59 16.0596C123.491 15.8413 123.353 15.6782 123.177 15.5705C123.002 15.4628 122.799 15.4089 122.569 15.4089C122.34 15.4089 122.134 15.4656 121.953 15.579C121.774 15.6896 121.632 15.854 121.527 16.0723C121.425 16.2907 121.374 16.5586 121.374 16.8762V17.2462C121.374 17.5495 121.425 17.809 121.527 18.0244C121.629 18.2399 121.774 18.4044 121.961 18.5178C122.151 18.6312 122.375 18.6879 122.633 18.6879C122.831 18.6879 123.002 18.661 123.143 18.6071C123.288 18.5504 123.406 18.4809 123.496 18.3987C123.59 18.3165 123.654 18.2357 123.688 18.1563L123.705 18.1223H124.598L124.589 18.1605C124.55 18.3136 124.48 18.4667 124.381 18.6199C124.282 18.7701 124.15 18.9076 123.985 19.0324C123.824 19.1571 123.628 19.2578 123.399 19.3343C123.172 19.4109 122.909 19.4492 122.612 19.4492ZM127.941 19.3599V14.7412H128.864V15.4514H128.936C129.038 15.1962 129.197 14.9992 129.412 14.8603C129.631 14.7213 129.892 14.6519 130.195 14.6519C130.405 14.6519 130.593 14.6859 130.761 14.7539C130.928 14.822 131.071 14.9184 131.19 15.0431C131.312 15.1651 131.407 15.3097 131.475 15.4769H131.547C131.624 15.3097 131.732 15.1651 131.871 15.0431C132.009 14.9184 132.171 14.822 132.355 14.7539C132.543 14.6859 132.741 14.6519 132.951 14.6519C133.263 14.6519 133.529 14.7128 133.75 14.8347C133.972 14.9538 134.14 15.1268 134.256 15.3536C134.373 15.5804 134.431 15.854 134.431 16.1744V19.3599H133.508V16.3956C133.508 16.1829 133.475 16.0071 133.41 15.8682C133.345 15.7264 133.246 15.6201 133.112 15.5492C132.982 15.4784 132.818 15.4429 132.619 15.4429C132.423 15.4429 132.252 15.4883 132.104 15.579C131.96 15.6669 131.846 15.786 131.764 15.9363C131.685 16.0837 131.645 16.251 131.645 16.4381V19.3599H130.722V16.302C130.722 16.1262 130.685 15.9745 130.612 15.8469C130.541 15.7165 130.439 15.6173 130.305 15.5492C130.172 15.4784 130.015 15.4429 129.833 15.4429C129.649 15.4429 129.483 15.4911 129.336 15.5875C129.191 15.6839 129.076 15.8143 128.991 15.9788C128.906 16.1404 128.864 16.3219 128.864 16.5232V19.3599H127.941ZM137.593 19.4492C137.142 19.4492 136.752 19.3528 136.423 19.16C136.097 18.9672 135.846 18.6922 135.671 18.3349C135.495 17.9748 135.407 17.5481 135.407 17.0548V17.0463C135.407 16.5501 135.495 16.1234 135.671 15.7661C135.849 15.4089 136.102 15.1339 136.428 14.9411C136.757 14.7483 137.145 14.6519 137.593 14.6519C138.044 14.6519 138.432 14.7483 138.758 14.9411C139.084 15.131 139.335 15.4061 139.511 15.7661C139.69 16.1234 139.779 16.5501 139.779 17.0463V17.0548C139.779 17.5481 139.69 17.9748 139.511 18.3349C139.335 18.6922 139.084 18.9672 138.758 19.16C138.435 19.3528 138.047 19.4492 137.593 19.4492ZM137.593 18.6751C137.857 18.6751 138.081 18.6113 138.265 18.4838C138.449 18.3533 138.59 18.1676 138.686 17.9266C138.782 17.6856 138.831 17.395 138.831 17.0548V17.0463C138.831 16.7032 138.782 16.4112 138.686 16.1702C138.59 15.9292 138.449 15.7449 138.265 15.6173C138.081 15.4869 137.857 15.4217 137.593 15.4217C137.329 15.4217 137.105 15.4869 136.921 15.6173C136.737 15.7449 136.595 15.9292 136.496 16.1702C136.399 16.4112 136.351 16.7032 136.351 17.0463V17.0548C136.351 17.395 136.399 17.6856 136.496 17.9266C136.595 18.1676 136.737 18.3533 136.921 18.4838C137.105 18.6113 137.329 18.6751 137.593 18.6751ZM142.469 19.4492C142.098 19.4492 141.774 19.3953 141.499 19.2876C141.224 19.177 141.006 19.0253 140.844 18.8325C140.683 18.6369 140.588 18.41 140.559 18.152V18.1435H141.487V18.152C141.546 18.325 141.66 18.4653 141.827 18.5731C141.994 18.6808 142.215 18.7347 142.49 18.7347C142.68 18.7347 142.846 18.7077 142.988 18.6539C143.132 18.6 143.246 18.5249 143.328 18.4285C143.41 18.3321 143.451 18.2215 143.451 18.0967V18.0882C143.451 17.9436 143.393 17.8217 143.277 17.7225C143.161 17.6233 142.969 17.5424 142.703 17.4801L141.963 17.31C141.674 17.2447 141.434 17.1554 141.244 17.042C141.054 16.9286 140.914 16.7897 140.823 16.6252C140.732 16.4579 140.687 16.2623 140.687 16.0383V16.0341C140.687 15.7647 140.764 15.5266 140.917 15.3196C141.07 15.1098 141.281 14.9467 141.55 14.8305C141.823 14.7114 142.133 14.6519 142.482 14.6519C142.833 14.6519 143.14 14.7072 143.4 14.8177C143.664 14.9255 143.872 15.0757 144.026 15.2685C144.179 15.4585 144.269 15.6797 144.298 15.932V15.9363H143.413V15.9277C143.371 15.7661 143.269 15.6315 143.107 15.5237C142.948 15.416 142.738 15.3621 142.478 15.3621C142.31 15.3621 142.161 15.389 142.031 15.4429C141.901 15.494 141.797 15.5662 141.721 15.6598C141.647 15.7505 141.61 15.8583 141.61 15.983V15.9915C141.61 16.0879 141.634 16.173 141.682 16.2467C141.733 16.3176 141.813 16.3814 141.92 16.4381C142.028 16.492 142.167 16.5402 142.337 16.5827L143.073 16.7486C143.515 16.8535 143.844 17.0052 144.06 17.2036C144.278 17.4021 144.387 17.6686 144.387 18.0032V18.0117C144.387 18.2952 144.303 18.5461 144.136 18.7645C143.969 18.9799 143.741 19.1486 143.451 19.2706C143.165 19.3896 142.838 19.4492 142.469 19.4492ZM147.107 19.3896C146.602 19.3896 146.237 19.2932 146.01 19.1004C145.786 18.9048 145.674 18.5858 145.674 18.1435V15.4684H144.951V14.7412H145.674V13.5759H146.618V14.7412H147.609V15.4684H146.618V17.9181C146.618 18.1676 146.667 18.3477 146.767 18.4582C146.866 18.566 147.03 18.6199 147.26 18.6199C147.328 18.6199 147.386 18.6184 147.434 18.6156C147.485 18.6128 147.544 18.6085 147.609 18.6028V19.3429C147.535 19.3542 147.456 19.3641 147.371 19.3726C147.286 19.384 147.198 19.3896 147.107 19.3896ZM150.888 20.8994V14.7412H151.811V15.4684H151.883C151.971 15.2983 152.084 15.1537 152.223 15.0346C152.365 14.9156 152.527 14.8234 152.708 14.7582C152.89 14.693 153.088 14.6604 153.304 14.6604C153.692 14.6604 154.029 14.7596 154.316 14.9581C154.602 15.1537 154.823 15.4302 154.979 15.7874C155.138 16.1418 155.217 16.5614 155.217 17.0463V17.0548C155.217 17.5424 155.139 17.9649 154.984 18.3221C154.828 18.6766 154.606 18.9516 154.32 19.1472C154.034 19.34 153.695 19.4364 153.304 19.4364C153.091 19.4364 152.893 19.4038 152.708 19.3386C152.524 19.2706 152.361 19.177 152.219 19.0579C152.077 18.9388 151.965 18.7956 151.883 18.6284H151.811V20.8994H150.888ZM153.04 18.6454C153.298 18.6454 153.519 18.5816 153.703 18.454C153.888 18.3264 154.028 18.1435 154.124 17.9054C154.224 17.6672 154.273 17.3837 154.273 17.0548V17.0463C154.273 16.7145 154.224 16.4296 154.124 16.1914C154.028 15.9533 153.888 15.7704 153.703 15.6428C153.519 15.5152 153.298 15.4514 153.04 15.4514C152.785 15.4514 152.564 15.5166 152.376 15.6471C152.189 15.7746 152.046 15.9575 151.947 16.1957C151.848 16.431 151.798 16.7145 151.798 17.0463V17.0548C151.798 17.3808 151.848 17.6629 151.947 17.9011C152.046 18.1393 152.189 18.3236 152.376 18.454C152.564 18.5816 152.785 18.6454 153.04 18.6454ZM158.192 19.4492C157.742 19.4492 157.352 19.3528 157.023 19.16C156.697 18.9672 156.446 18.6922 156.27 18.3349C156.094 17.9748 156.006 17.5481 156.006 17.0548V17.0463C156.006 16.5501 156.094 16.1234 156.27 15.7661C156.449 15.4089 156.701 15.1339 157.027 14.9411C157.356 14.7483 157.744 14.6519 158.192 14.6519C158.643 14.6519 159.032 14.7483 159.358 14.9411C159.684 15.131 159.935 15.4061 160.111 15.7661C160.289 16.1234 160.378 16.5501 160.378 17.0463V17.0548C160.378 17.5481 160.289 17.9748 160.111 18.3349C159.935 18.6922 159.684 18.9672 159.358 19.16C159.035 19.3528 158.646 19.4492 158.192 19.4492ZM158.192 18.6751C158.456 18.6751 158.68 18.6113 158.864 18.4838C159.049 18.3533 159.189 18.1676 159.285 17.9266C159.382 17.6856 159.43 17.395 159.43 17.0548V17.0463C159.43 16.7032 159.382 16.4112 159.285 16.1702C159.189 15.9292 159.049 15.7449 158.864 15.6173C158.68 15.4869 158.456 15.4217 158.192 15.4217C157.929 15.4217 157.705 15.4869 157.52 15.6173C157.336 15.7449 157.194 15.9292 157.095 16.1702C156.999 16.4112 156.951 16.7032 156.951 17.0463V17.0548C156.951 17.395 156.999 17.6856 157.095 17.9266C157.194 18.1676 157.336 18.3533 157.52 18.4838C157.705 18.6113 157.929 18.6751 158.192 18.6751ZM162.095 19.3599L160.823 14.7412H161.754L162.579 18.3051H162.652L163.6 14.7412H164.48L165.433 18.3051H165.501L166.331 14.7412H167.245L165.978 19.3599H165.021L164.064 15.915H163.991L163.043 19.3599H162.095ZM169.867 19.4492C169.416 19.4492 169.029 19.3528 168.706 19.16C168.383 18.9643 168.133 18.6879 167.957 18.3307C167.784 17.9734 167.698 17.551 167.698 17.0633V17.059C167.698 16.577 167.784 16.156 167.957 15.7959C168.133 15.4358 168.38 15.1551 168.697 14.9538C169.018 14.7525 169.392 14.6519 169.82 14.6519C170.251 14.6519 170.621 14.7483 170.93 14.9411C171.242 15.1339 171.482 15.4046 171.649 15.7534C171.816 16.0993 171.9 16.5047 171.9 16.9697V17.2929H168.166V16.6337H171.44L170.998 17.2462V16.8762C170.998 16.5473 170.947 16.2751 170.845 16.0596C170.746 15.8413 170.608 15.6782 170.433 15.5705C170.257 15.4628 170.054 15.4089 169.824 15.4089C169.595 15.4089 169.389 15.4656 169.208 15.579C169.029 15.6896 168.887 15.854 168.782 16.0723C168.68 16.2907 168.629 16.5586 168.629 16.8762V17.2462C168.629 17.5495 168.68 17.809 168.782 18.0244C168.884 18.2399 169.029 18.4044 169.216 18.5178C169.406 18.6312 169.63 18.6879 169.888 18.6879C170.087 18.6879 170.257 18.661 170.399 18.6071C170.543 18.5504 170.661 18.4809 170.752 18.3987C170.845 18.3165 170.909 18.2357 170.943 18.1563L170.96 18.1223H171.853L171.845 18.1605C171.805 18.3136 171.735 18.4667 171.636 18.6199C171.537 18.7701 171.405 18.9076 171.241 19.0324C171.079 19.1571 170.883 19.2578 170.654 19.3343C170.427 19.4109 170.165 19.4492 169.867 19.4492ZM172.91 19.3599V14.7412H173.833V15.4387H173.905C173.987 15.192 174.132 15.0006 174.339 14.8645C174.549 14.7284 174.807 14.6604 175.113 14.6604C175.19 14.6604 175.265 14.6646 175.338 14.6731C175.412 14.6816 175.472 14.6916 175.517 14.7029V15.5535C175.435 15.5365 175.353 15.5237 175.27 15.5152C175.191 15.5067 175.107 15.5025 175.019 15.5025C174.784 15.5025 174.577 15.5478 174.398 15.6385C174.223 15.7293 174.084 15.8569 173.982 16.0213C173.882 16.1829 173.833 16.3757 173.833 16.5997V19.3599H172.91ZM176.876 19.3599V15.4684H176.115V14.7412H176.876V14.2563C176.876 13.9473 176.927 13.6921 177.029 13.4908C177.134 13.2867 177.293 13.135 177.505 13.0358C177.718 12.9365 177.986 12.8869 178.309 12.8869C178.411 12.8869 178.506 12.8912 178.594 12.8997C178.685 12.9053 178.771 12.9153 178.854 12.9294V13.6099C178.811 13.6014 178.759 13.5957 178.696 13.5929C178.637 13.5872 178.571 13.5844 178.501 13.5844C178.245 13.5844 178.062 13.6453 177.952 13.7673C177.844 13.8892 177.79 14.0664 177.79 14.2989V14.7412H178.811V15.4684H177.799V19.3599H176.876ZM181.301 19.4492C180.955 19.4492 180.663 19.3825 180.425 19.2493C180.19 19.1132 180.013 18.9176 179.893 18.6624C179.777 18.4044 179.719 18.0939 179.719 17.731V14.7412H180.642V17.5141C180.642 17.894 180.717 18.179 180.867 18.3689C181.018 18.5589 181.263 18.6539 181.603 18.6539C181.785 18.6539 181.946 18.6269 182.088 18.5731C182.23 18.5164 182.349 18.4356 182.445 18.3307C182.542 18.2257 182.612 18.0996 182.658 17.9521C182.706 17.8047 182.73 17.6374 182.73 17.4503V14.7412H183.657V19.3599H182.73V18.6624H182.662C182.588 18.8268 182.488 18.9686 182.36 19.0877C182.233 19.2039 182.079 19.2932 181.901 19.3556C181.725 19.418 181.525 19.4492 181.301 19.4492ZM184.94 19.3599V12.9294H185.863V19.3599H184.94ZM189.069 19.3599L191.285 13.2229H192.055V14.2989H191.766L190.073 19.3599H189.069ZM190.137 17.7012L190.405 16.9357H193.199L193.467 17.7012H190.137ZM193.526 19.3599L191.838 14.2989V13.2229H192.319L194.53 19.3599H193.526Z" fill="#3D4043"/>
<rect x="171.351" y="11.3896" width="25.46" height="11.39" fill="url(#paint1_linear_242_945)"/>
<rect x="64.1504" y="10.7197" width="12.06" height="12.06" rx="4.02" fill="url(#paint2_linear_242_945)"/>
<path d="M72.9744 17.6324C72.9744 17.6324 72.9977 17.629 73.0077 17.6257C72.8746 17.3796 72.7249 17.1401 72.5586 16.9172C72.4954 16.8341 72.399 16.7842 72.2925 16.7842C72.2227 16.7842 72.1528 16.8075 72.0963 16.8474C71.9499 16.9571 71.92 17.1634 72.0264 17.3097C72.1295 17.4494 72.216 17.5825 72.2992 17.7122C72.3125 17.7122 72.3225 17.7122 72.3358 17.7089C72.5686 17.6889 72.7782 17.6623 72.9711 17.6324H72.9744Z" fill="white"/>
<path d="M72.6688 18.3407C72.6688 18.3407 72.6455 18.3407 72.6355 18.344C72.7586 18.6334 72.8284 18.8795 72.8617 19.0725C72.9482 19.5282 72.8949 19.9107 72.7253 20.067C72.6821 20.1069 72.6122 20.1302 72.5257 20.1302C72.3095 20.1302 71.9802 20.0038 71.6044 19.771C71.1321 19.4783 70.5699 19.0192 69.9845 18.4438C69.9679 18.4438 69.9546 18.4438 69.9379 18.4438C69.6352 18.4438 69.3459 18.4338 69.0831 18.4205C69.0665 18.4205 69.0498 18.4205 69.0332 18.4205C69.8381 19.272 70.6065 19.934 71.2584 20.3364C71.7541 20.6425 72.1831 20.7955 72.5324 20.7955C72.7852 20.7955 73.0014 20.7156 73.1744 20.5527C73.6866 20.077 73.6433 19.1656 73.2908 18.2476C73.2808 18.2476 73.2675 18.2509 73.2575 18.2542C73.0712 18.2875 72.875 18.3174 72.6654 18.344L72.6688 18.3407Z" fill="white"/>
<path d="M72.0854 15.6533C71.8792 15.6533 71.7129 15.8196 71.7129 16.0259C71.7129 16.2321 71.8792 16.3984 72.0854 16.3984C72.2917 16.3984 72.458 16.2321 72.458 16.0259C72.458 15.8196 72.2917 15.6533 72.0854 15.6533Z" fill="white"/>
<path d="M67.5425 17.6093C67.5425 17.6093 67.5525 17.5893 67.5558 17.5793C67.4061 17.5494 67.2764 17.5228 67.1667 17.4929C66.528 17.3299 66.1488 17.1037 66.1488 16.8908C66.1488 16.7079 66.4681 16.5016 67.007 16.3387C67.0901 16.3154 67.16 16.2588 67.2032 16.179C67.2465 16.1025 67.2531 16.0127 67.2298 15.9295C67.1899 15.7898 67.0602 15.6934 66.9139 15.6934C66.8806 15.6934 66.8507 15.6967 66.8174 15.7067C65.9359 15.9694 65.4902 16.3686 65.4902 16.8875C65.4902 17.29 65.7829 17.8787 67.3064 18.2047C67.3097 18.1947 67.313 18.1847 67.3163 18.1747C67.3862 17.9852 67.4627 17.7956 67.5425 17.606V17.6093Z" fill="white"/>
<path d="M74.8701 17.1067C74.8701 16.5479 74.3578 16.1321 73.3467 15.8694C73.3201 15.8627 73.2901 15.8594 73.2635 15.8594C73.1138 15.8594 72.9841 15.9592 72.9442 16.1055C72.8976 16.2818 73.0041 16.4614 73.1804 16.508C73.9421 16.7042 74.2115 16.9537 74.2115 17.1067C74.2115 17.2863 73.8257 17.4726 73.2003 17.5924C73.1404 17.6057 73.0739 17.6156 73.0074 17.6256C72.9941 17.6256 72.9841 17.6289 72.9741 17.6323C72.7845 17.6622 72.5717 17.6888 72.3388 17.7088C72.3255 17.7088 72.3155 17.7088 72.3022 17.7121C71.7268 17.762 71.025 17.7886 70.1801 17.7886C69.8741 17.7886 69.598 17.782 69.3352 17.7686C69.3186 17.7686 69.3053 17.7686 69.2887 17.7686C68.986 17.7553 68.7132 17.7354 68.4671 17.7088C68.4505 17.7088 68.4372 17.7088 68.4205 17.7054C68.354 17.6988 68.2908 17.6921 68.2276 17.6855C68.2243 17.6955 68.2176 17.7054 68.2143 17.7154C68.1212 17.925 68.0413 18.1179 67.9748 18.2909C67.9715 18.3008 67.9682 18.3108 67.9648 18.3208C68.2808 18.364 68.6367 18.3973 69.0326 18.4173C69.0492 18.4173 69.0658 18.4173 69.0825 18.4173C69.3486 18.4306 69.6346 18.4405 69.9373 18.4405C69.9539 18.4405 69.9672 18.4405 69.9839 18.4405C70.0304 18.4405 70.077 18.4405 70.1269 18.4405H70.1801C71.0549 18.4405 71.9031 18.4173 72.6349 18.3374C72.6448 18.3374 72.6581 18.3374 72.6681 18.3341C72.8777 18.3108 73.0739 18.2809 73.2602 18.2443C73.2702 18.2443 73.2835 18.241 73.2935 18.2376C74.2414 18.0547 74.8701 17.7188 74.8701 17.1001V17.1067Z" fill="white"/>
<path d="M68.2146 17.7122C68.2146 17.7122 68.2246 17.6923 68.2279 17.6823C68.2512 17.6324 68.2712 17.5858 68.2945 17.5359C68.3344 17.5925 68.3776 17.649 68.4209 17.7022C68.4375 17.7022 68.4508 17.7022 68.4674 17.7056C68.7136 17.7289 68.9863 17.7488 69.289 17.7654C69.3056 17.7654 69.3189 17.7654 69.3356 17.7654C69.0562 17.4561 68.8233 17.1534 68.6271 16.864C68.7269 16.6778 68.83 16.4848 68.9497 16.2786C70.0673 14.3494 71.6473 13.3814 72.2194 13.3814C72.2859 13.3814 72.3391 13.3947 72.3791 13.4147C72.5687 13.5245 72.6684 14.0234 72.4689 14.8949C72.429 15.0712 72.5387 15.2508 72.715 15.2907C72.7383 15.2974 72.7649 15.3007 72.7882 15.3007C72.9412 15.3007 73.0742 15.1942 73.1075 15.0446C73.3669 13.9269 73.2239 13.1453 72.705 12.8459C72.572 12.7694 72.4156 12.7295 72.236 12.7295C71.1351 12.7295 69.4054 14.1764 68.3776 15.9526C68.331 16.0325 68.2812 16.1223 68.2279 16.2154C68.0151 15.8262 67.8754 15.4903 67.7922 15.2574C67.5361 14.5356 67.4862 13.9103 67.6758 13.7373C67.7124 13.7041 67.7889 13.6608 67.9419 13.6608C68.1448 13.6608 68.514 13.734 69.116 14.0833C69.1659 14.1132 69.2225 14.1265 69.279 14.1265C69.3954 14.1265 69.5052 14.0633 69.5651 13.9635C69.6549 13.8072 69.6017 13.6043 69.4453 13.5145C68.8599 13.1752 68.351 13.0022 67.9319 13.0022C67.6425 13.0022 67.403 13.0854 67.2267 13.2517C66.8376 13.6143 66.8076 14.3959 67.1469 15.3971C67.3165 15.8928 67.5627 16.405 67.8654 16.9006C67.7589 17.1135 67.6525 17.3397 67.5527 17.5725C67.5494 17.5825 67.5427 17.5925 67.5394 17.6025C67.4596 17.7887 67.3831 17.9783 67.3132 18.1712C67.3099 18.1812 67.3066 18.1912 67.3032 18.2012C66.934 19.2456 66.7977 20.2734 67.4762 20.6659C67.6159 20.7458 67.7722 20.7857 67.9452 20.7857H67.9785C68.4874 20.7691 69.1094 20.3998 69.7846 19.718C69.911 19.5882 69.911 19.3787 69.7813 19.2523C69.7181 19.1924 69.6383 19.1591 69.5518 19.1591C69.4653 19.1591 69.3788 19.1924 69.3156 19.2556C68.7768 19.8011 68.2678 20.1271 67.9485 20.1271C67.892 20.1271 67.8454 20.1171 67.8088 20.0938C67.6192 19.9841 67.6026 19.5516 67.7623 18.9363C67.8055 18.77 67.872 18.5604 67.9652 18.3109C67.9685 18.301 67.9718 18.291 67.9751 18.281C68.0383 18.108 68.1182 17.9185 68.2146 17.7056V17.7122Z" fill="white"/>
</g>
</g>
<path d="M238.35 13.3999V16.7499M238.35 20.0999V16.7499M238.35 16.7499H235M238.35 16.7499H241.7" stroke="#3D4043" stroke-width="1.005" stroke-linecap="round" stroke-linejoin="round"/>
<path d="M947.881 15.4102L950.561 18.0902L953.241 15.4102" stroke="#3D4043" stroke-width="1.005" stroke-linecap="round" stroke-linejoin="round"/>
</g>
<rect width="964.8" height="24.12" transform="translate(0.5 28.1401)" fill="white"/>
<path d="M19.2607 40.2002H11.2207M11.2207 40.2002L15.2407 36.1802M11.2207 40.2002L15.2407 44.2202" stroke="#606367" stroke-width="1.005" stroke-linecap="round" stroke-linejoin="round"/>
<path d="M32.6602 40.2002H40.7002M40.7002 40.2002L36.6802 36.1802M40.7002 40.2002L36.6802 44.2202" stroke="#606367" stroke-width="1.005" stroke-linecap="round" stroke-linejoin="round"/>
<path fill-rule="evenodd" clip-rule="evenodd" d="M54.9386 40.2002C54.9386 38.4425 56.3634 37.0177 58.1211 37.0177C59.1703 37.0177 60.1015 37.5254 60.6816 38.3097L59.4611 39.5302H62.8111V36.1802L61.3981 37.5931C60.6313 36.6305 59.4487 36.0127 58.1211 36.0127C55.8084 36.0127 53.9336 37.8875 53.9336 40.2002C53.9336 42.5129 55.8084 44.3877 58.1211 44.3877C59.7491 44.3877 61.1592 43.4585 61.8517 42.1039C61.978 41.8568 61.8801 41.5541 61.633 41.4278C61.3859 41.3014 61.0832 41.3994 60.9569 41.6465C60.4295 42.6782 59.3571 43.3827 58.1211 43.3827C56.3634 43.3827 54.9386 41.9578 54.9386 40.2002Z" fill="#606367"/>
<rect x="72.8604" y="30.8203" width="820.08" height="18.76" rx="9.38" fill="#F1F3F4"/>
<path fill-rule="evenodd" clip-rule="evenodd" d="M84.9202 36.8501C83.9952 36.8501 83.2452 37.6 83.2452 38.5251V39.1951H82.9102C82.5402 39.1951 82.2402 39.4951 82.2402 39.8651V43.2151C82.2402 43.5851 82.5402 43.8851 82.9102 43.8851H86.9302C87.3003 43.8851 87.6002 43.5851 87.6002 43.2151V39.8651C87.6002 39.4951 87.3003 39.1951 86.9302 39.1951H86.5952V38.5251C86.5952 37.6 85.8453 36.8501 84.9202 36.8501ZM85.9252 39.1951V38.5251C85.9252 37.9701 85.4753 37.5201 84.9202 37.5201C84.3652 37.5201 83.9152 37.9701 83.9152 38.5251V39.1951H85.9252Z" fill="#606367"/>
<path fill-rule="evenodd" clip-rule="evenodd" d="M859.737 35.8844C859.573 35.7208 859.308 35.7208 859.145 35.8844L857.805 37.2244C857.641 37.3879 857.641 37.653 857.805 37.8166C857.968 37.9801 858.233 37.9801 858.397 37.8166L859.022 37.1914V41.5405C859.022 41.7717 859.209 41.9592 859.441 41.9592C859.672 41.9592 859.859 41.7717 859.859 41.5405V37.1914L860.485 37.8166C860.648 37.9801 860.913 37.9801 861.077 37.8166C861.24 37.653 861.24 37.3879 861.077 37.2244L859.737 35.8844ZM856.509 39.8655C856.509 39.5417 856.772 39.2792 857.096 39.2792H857.766C857.997 39.2792 858.184 39.0917 858.184 38.8605C858.184 38.6292 857.997 38.4417 857.766 38.4417H857.096C856.309 38.4417 855.672 39.0792 855.672 39.8655V43.8855C855.672 44.6718 856.309 45.3092 857.096 45.3092H861.786C862.572 45.3092 863.209 44.6718 863.209 43.8855V39.8655C863.209 39.0792 862.572 38.4417 861.786 38.4417H861.116C860.884 38.4417 860.697 38.6292 860.697 38.8605C860.697 39.0917 860.884 39.2792 861.116 39.2792H861.786C862.109 39.2792 862.372 39.5417 862.372 39.8655V43.8855C862.372 44.2092 862.109 44.4717 861.786 44.4717H857.096C856.772 44.4717 856.509 44.2092 856.509 43.8855V39.8655Z" fill="#626365"/>
<path fill-rule="evenodd" clip-rule="evenodd" d="M880.466 36.0998C880.596 35.6985 881.164 35.6985 881.294 36.0998L882.162 38.7706H884.97C885.392 38.7706 885.568 39.3105 885.226 39.5584L882.954 41.2091L883.822 43.88C883.953 44.2812 883.493 44.6148 883.152 44.3669L880.88 42.7162L878.608 44.3669C878.267 44.6148 877.808 44.2812 877.938 43.88L878.806 41.2091L876.534 39.5584C876.193 39.3105 876.368 38.7706 876.79 38.7706H879.598L880.466 36.0998ZM880.88 37.5352L880.304 39.3072C880.246 39.4866 880.079 39.6081 879.89 39.6081H878.027L879.534 40.7032C879.687 40.8141 879.751 41.0107 879.693 41.1901L879.117 42.9621L880.624 41.867C880.777 41.7561 880.983 41.7561 881.136 41.867L882.643 42.9621L882.068 41.1901C882.009 41.0107 882.073 40.8141 882.226 40.7032L883.733 39.6081H881.87C881.681 39.6081 881.514 39.4866 881.456 39.3072L880.88 37.5352Z" fill="#626365"/>
<path d="M98.1368 43.877C97.6299 43.877 97.262 43.7747 97.033 43.5701C96.807 43.3655 96.694 43.0281 96.694 42.5579V39.5625H95.9154V38.903H96.694V37.6252H97.5185V38.903H98.5994V39.5625H97.5185V42.3564C97.5185 42.6465 97.5734 42.8556 97.6833 42.9839C97.7933 43.109 97.9765 43.1716 98.2329 43.1716C98.3032 43.1716 98.3627 43.1701 98.4116 43.1671C98.4635 43.164 98.5261 43.1594 98.5994 43.1533V43.8312C98.523 43.8434 98.4467 43.8541 98.3704 43.8632C98.294 43.8724 98.2162 43.877 98.1368 43.877ZM99.836 43.8403V36.9427H100.633V43.8403H99.836ZM104.192 43.9274C103.724 43.9274 103.32 43.8251 102.978 43.6205C102.639 43.4129 102.376 43.1182 102.19 42.7365C102.007 42.3549 101.915 41.9014 101.915 41.3762V41.3671C101.915 40.8389 102.007 40.3839 102.19 40.0022C102.376 39.6206 102.639 39.3274 102.978 39.1229C103.32 38.9183 103.724 38.816 104.192 38.816C104.662 38.816 105.066 38.9183 105.405 39.1229C105.744 39.3274 106.005 39.6206 106.189 40.0022C106.375 40.3839 106.468 40.8389 106.468 41.3671V41.3762C106.468 41.9014 106.375 42.3549 106.189 42.7365C106.005 43.1182 105.744 43.4129 105.405 43.6205C105.066 43.8251 104.662 43.9274 104.192 43.9274ZM104.192 43.222C104.503 43.222 104.767 43.1487 104.984 43.0022C105.201 42.8556 105.366 42.6449 105.479 42.3701C105.595 42.0953 105.653 41.764 105.653 41.3762V41.3671C105.653 40.9763 105.595 40.6434 105.479 40.3686C105.366 40.0938 105.201 39.8847 104.984 39.7412C104.767 39.5946 104.503 39.5213 104.192 39.5213C103.88 39.5213 103.616 39.5946 103.399 39.7412C103.182 39.8847 103.016 40.0938 102.9 40.3686C102.787 40.6434 102.731 40.9763 102.731 41.3671V41.3762C102.731 41.764 102.787 42.0953 102.9 42.3701C103.016 42.6449 103.182 42.8556 103.399 43.0022C103.616 43.1487 103.88 43.222 104.192 43.222ZM109.734 43.9274C109.266 43.9274 108.862 43.8251 108.52 43.6205C108.181 43.4129 107.918 43.1182 107.732 42.7365C107.549 42.3549 107.457 41.9014 107.457 41.3762V41.3671C107.457 40.8389 107.549 40.3839 107.732 40.0022C107.918 39.6206 108.181 39.3274 108.52 39.1229C108.862 38.9183 109.266 38.816 109.734 38.816C110.204 38.816 110.608 38.9183 110.947 39.1229C111.286 39.3274 111.547 39.6206 111.73 40.0022C111.917 40.3839 112.01 40.8389 112.01 41.3671V41.3762C112.01 41.9014 111.917 42.3549 111.73 42.7365C111.547 43.1182 111.286 43.4129 110.947 43.6205C110.608 43.8251 110.204 43.9274 109.734 43.9274ZM109.734 43.222C110.045 43.222 110.309 43.1487 110.526 43.0022C110.743 42.8556 110.908 42.6449 111.021 42.3701C111.137 42.0953 111.195 41.764 111.195 41.3762V41.3671C111.195 40.9763 111.137 40.6434 111.021 40.3686C110.908 40.0938 110.743 39.8847 110.526 39.7412C110.309 39.5946 110.045 39.5213 109.734 39.5213C109.422 39.5213 109.158 39.5946 108.941 39.7412C108.724 39.8847 108.558 40.0938 108.442 40.3686C108.329 40.6434 108.272 40.9763 108.272 41.3671V41.3762C108.272 41.764 108.329 42.0953 108.442 42.3701C108.558 42.6449 108.724 42.8556 108.941 43.0022C109.158 43.1487 109.422 43.222 109.734 43.222ZM115.001 43.877C114.494 43.877 114.126 43.7747 113.897 43.5701C113.671 43.3655 113.558 43.0281 113.558 42.5579V39.5625H112.779V38.903H113.558V37.6252H114.382V38.903H115.463V39.5625H114.382V42.3564C114.382 42.6465 114.437 42.8556 114.547 42.9839C114.657 43.109 114.84 43.1716 115.097 43.1716C115.167 43.1716 115.227 43.1701 115.275 43.1671C115.327 43.164 115.39 43.1594 115.463 43.1533V43.8312C115.387 43.8434 115.311 43.8541 115.234 43.8632C115.158 43.8724 115.08 43.877 115.001 43.877ZM118.619 43.9274C118.152 43.9274 117.747 43.8251 117.405 43.6205C117.066 43.4129 116.804 43.1182 116.617 42.7365C116.434 42.3549 116.343 41.9014 116.343 41.3762V41.3671C116.343 40.8389 116.434 40.3839 116.617 40.0022C116.804 39.6206 117.066 39.3274 117.405 39.1229C117.747 38.9183 118.152 38.816 118.619 38.816C119.089 38.816 119.494 38.9183 119.833 39.1229C120.172 39.3274 120.433 39.6206 120.616 40.0022C120.802 40.3839 120.895 40.8389 120.895 41.3671V41.3762C120.895 41.9014 120.802 42.3549 120.616 42.7365C120.433 43.1182 120.172 43.4129 119.833 43.6205C119.494 43.8251 119.089 43.9274 118.619 43.9274ZM118.619 43.222C118.93 43.222 119.194 43.1487 119.411 43.0022C119.628 42.8556 119.793 42.6449 119.906 42.3701C120.022 42.0953 120.08 41.764 120.08 41.3762V41.3671C120.08 40.9763 120.022 40.6434 119.906 40.3686C119.793 40.0938 119.628 39.8847 119.411 39.7412C119.194 39.5946 118.93 39.5213 118.619 39.5213C118.307 39.5213 118.043 39.5946 117.827 39.7412C117.61 39.8847 117.443 40.0938 117.327 40.3686C117.214 40.6434 117.158 40.9763 117.158 41.3671V41.3762C117.158 41.764 117.214 42.0953 117.327 42.3701C117.443 42.6449 117.61 42.8556 117.827 43.0022C118.043 43.1487 118.307 43.222 118.619 43.222ZM122.691 43.8861C122.529 43.8861 122.388 43.8281 122.269 43.7121C122.153 43.593 122.095 43.4526 122.095 43.2907C122.095 43.1258 122.153 42.9854 122.269 42.8694C122.388 42.7533 122.529 42.6953 122.691 42.6953C122.855 42.6953 122.996 42.7533 123.112 42.8694C123.228 42.9854 123.286 43.1258 123.286 43.2907C123.286 43.4526 123.228 43.593 123.112 43.7121C122.996 43.8281 122.855 43.8861 122.691 43.8861ZM126.661 43.9274C126.2 43.9274 125.8 43.822 125.462 43.6113C125.123 43.4006 124.86 43.1029 124.674 42.7182C124.487 42.3335 124.394 41.8801 124.394 41.3579V41.3488C124.394 40.8358 124.486 40.39 124.669 40.0114C124.855 39.6328 125.118 39.3396 125.457 39.132C125.796 38.9213 126.196 38.816 126.657 38.816C127.057 38.816 127.402 38.8862 127.692 39.0267C127.982 39.1671 128.214 39.3564 128.388 39.5946C128.562 39.8297 128.674 40.0938 128.723 40.387L128.727 40.4144H127.935L127.93 40.4007C127.869 40.1564 127.73 39.9488 127.513 39.7778C127.297 39.6068 127.011 39.5213 126.657 39.5213C126.361 39.5213 126.104 39.5961 125.887 39.7457C125.671 39.8954 125.503 40.1076 125.384 40.3824C125.268 40.6541 125.21 40.9763 125.21 41.3488V41.3579C125.21 41.7365 125.269 42.0663 125.388 42.3472C125.507 42.6251 125.675 42.8403 125.892 42.993C126.109 43.1457 126.364 43.222 126.657 43.222C126.99 43.222 127.261 43.1503 127.472 43.0068C127.683 42.8632 127.834 42.6541 127.926 42.3793L127.935 42.3518L128.723 42.3472L128.713 42.3976C128.646 42.6938 128.527 42.9579 128.356 43.19C128.185 43.419 127.959 43.5991 127.678 43.7304C127.397 43.8617 127.058 43.9274 126.661 43.9274ZM131.919 43.9274C131.452 43.9274 131.048 43.8251 130.706 43.6205C130.367 43.4129 130.104 43.1182 129.918 42.7365C129.735 42.3549 129.643 41.9014 129.643 41.3762V41.3671C129.643 40.8389 129.735 40.3839 129.918 40.0022C130.104 39.6206 130.367 39.3274 130.706 39.1229C131.048 38.9183 131.452 38.816 131.919 38.816C132.39 38.816 132.794 38.9183 133.133 39.1229C133.472 39.3274 133.733 39.6206 133.916 40.0022C134.103 40.3839 134.196 40.8389 134.196 41.3671V41.3762C134.196 41.9014 134.103 42.3549 133.916 42.7365C133.733 43.1182 133.472 43.4129 133.133 43.6205C132.794 43.8251 132.39 43.9274 131.919 43.9274ZM131.919 43.222C132.231 43.222 132.495 43.1487 132.712 43.0022C132.929 42.8556 133.093 42.6449 133.206 42.3701C133.322 42.0953 133.38 41.764 133.38 41.3762V41.3671C133.38 40.9763 133.322 40.6434 133.206 40.3686C133.093 40.0938 132.929 39.8847 132.712 39.7412C132.495 39.5946 132.231 39.5213 131.919 39.5213C131.608 39.5213 131.344 39.5946 131.127 39.7412C130.91 39.8847 130.744 40.0938 130.628 40.3686C130.515 40.6434 130.458 40.9763 130.458 41.3671V41.3762C130.458 41.764 130.515 42.0953 130.628 42.3701C130.744 42.6449 130.91 42.8556 131.127 43.0022C131.344 43.1487 131.608 43.222 131.919 43.222ZM135.432 43.8403V38.903H136.229V39.6541H136.303C136.412 39.3885 136.58 39.1824 136.806 39.0358C137.035 38.8893 137.312 38.816 137.635 38.816C137.858 38.816 138.058 38.8526 138.235 38.9259C138.412 38.9992 138.565 39.1015 138.693 39.2328C138.822 39.361 138.924 39.5106 139 39.6816H139.074C139.162 39.5076 139.281 39.3564 139.431 39.2282C139.58 39.0969 139.753 38.9961 139.948 38.9259C140.147 38.8526 140.359 38.816 140.585 38.816C140.921 38.816 141.205 38.8786 141.437 39.0038C141.672 39.129 141.851 39.3122 141.973 39.5534C142.095 39.7915 142.156 40.0831 142.156 40.4282V43.8403H141.359V40.6114C141.359 40.3671 141.321 40.1656 141.244 40.0068C141.171 39.845 141.058 39.7244 140.906 39.645C140.753 39.5625 140.561 39.5213 140.328 39.5213C140.099 39.5213 139.899 39.5732 139.728 39.677C139.557 39.7809 139.425 39.9198 139.33 40.0938C139.235 40.2648 139.188 40.4557 139.188 40.6663V43.8403H138.391V40.4877C138.391 40.2923 138.348 40.1228 138.263 39.9793C138.18 39.8328 138.061 39.7198 137.906 39.6404C137.753 39.561 137.573 39.5213 137.365 39.5213C137.151 39.5213 136.958 39.5778 136.783 39.6908C136.612 39.8038 136.477 39.9564 136.376 40.1488C136.278 40.3381 136.229 40.5488 136.229 40.7808V43.8403H135.432Z" fill="#606367"/>
<path fill-rule="evenodd" clip-rule="evenodd" d="M909.355 36.8503H911.03C911.77 36.8503 912.37 37.4502 912.37 38.1903V39.8653H913.375C913.93 39.8653 914.38 40.3152 914.38 40.8703C914.38 41.4253 913.93 41.8753 913.375 41.8753H912.37V43.5503C912.37 44.2904 911.77 44.8903 911.03 44.8903H909.355V43.8853C909.355 43.3302 908.905 42.8803 908.35 42.8803C907.795 42.8803 907.345 43.3302 907.345 43.8853V44.8903H905.67C904.93 44.8903 904.33 44.2904 904.33 43.5503V41.8753H905.335C905.89 41.8753 906.34 41.4253 906.34 40.8703C906.34 40.3152 905.89 39.8653 905.335 39.8653H904.33V38.1903C904.33 37.4502 904.93 36.8503 905.67 36.8503H907.345V36.1803C907.345 35.6252 907.795 35.1753 908.35 35.1753C908.905 35.1753 909.355 35.6252 909.355 36.1803V36.8503Z" fill="#606367"/>
<path fill-rule="evenodd" clip-rule="evenodd" d="M935.151 35.5103H925.771V44.8903H935.151V35.5103ZM931.801 36.8503H927.111V43.5503H931.801V36.8503Z" fill="#606367"/>
<path fill-rule="evenodd" clip-rule="evenodd" d="M951.901 36.8502C951.901 37.4053 951.451 37.8552 950.896 37.8552C950.341 37.8552 949.891 37.4053 949.891 36.8502C949.891 36.2952 950.341 35.8452 950.896 35.8452C951.451 35.8452 951.901 36.2952 951.901 36.8502ZM951.901 40.3677C951.901 40.9228 951.451 41.3727 950.896 41.3727C950.341 41.3727 949.891 40.9228 949.891 40.3677C949.891 39.8127 950.341 39.3627 950.896 39.3627C951.451 39.3627 951.901 39.8127 951.901 40.3677ZM950.896 44.8902C951.451 44.8902 951.901 44.4403 951.901 43.8852C951.901 43.3302 951.451 42.8802 950.896 42.8802C950.341 42.8802 949.891 43.3302 949.891 43.8852C949.891 44.4403 950.341 44.8902 950.896 44.8902Z" fill="#606367"/>
<rect width="964.8" height="0.67" transform="translate(0.5 52.2598)" fill="#DBDCDD"/>
<defs>
<linearGradient id="paint0_linear_242_945" x1="219.59" y1="16.7499" x2="190.11" y2="16.7499" gradientUnits="userSpaceOnUse">
<stop offset="0.593356" stop-color="white"/>
<stop offset="1" stop-color="white" stop-opacity="0"/>
</linearGradient>
<linearGradient id="paint1_linear_242_945" x1="171.351" y1="19.0946" x2="196.811" y2="19.0946" gradientUnits="userSpaceOnUse">
<stop stop-color="white" stop-opacity="0"/>
<stop offset="1" stop-color="white"/>
</linearGradient>
<linearGradient id="paint2_linear_242_945" x1="64.1504" y1="10.7197" x2="78.6072" y2="24.5323" gradientUnits="userSpaceOnUse">
<stop stop-color="#FCC9FA"/>
<stop offset="1" stop-color="#21A0FE"/>
</linearGradient>
<clipPath id="clip0_242_945">
<path d="M0.5 6C0.5 2.68629 3.18629 0 6.5 0H959.3C962.614 0 965.3 2.68629 965.3 6V28.14H0.5V6Z" fill="white"/>
</clipPath>
<clipPath id="clip1_242_945">
<rect width="168.84" height="22.78" fill="white" transform="translate(58.79 5.35986)"/>
</clipPath>
<clipPath id="clip2_242_945">
<path d="M58.79 10.7199C58.79 7.75961 61.1898 5.35986 64.15 5.35986H214.23C217.19 5.35986 219.59 7.75962 219.59 10.7199V28.1399H58.79V10.7199Z" fill="white"/>
</clipPath>
</defs>
</svg>
