<svg width="1188" height="442" viewBox="0 0 1188 442" fill="none" xmlns="http://www.w3.org/2000/svg">
<rect x="18" y="10.8701" width="115" height="115" rx="38" fill="#007AFF" fill-opacity="0.35"/>
<rect x="13" y="5.87012" width="125" height="125" rx="43" stroke="#007AFF" stroke-opacity="0.1" stroke-width="10"/>
<rect x="28" y="20.8701" width="95" height="95" rx="32" fill="#007AFF"/>
<path d="M40.6901 170.87V159.234H45.281C46.1636 159.234 46.9155 159.402 47.5367 159.739C48.1579 160.073 48.6314 160.537 48.9572 161.131C49.2867 161.722 49.4515 162.404 49.4515 163.177C49.4515 163.95 49.2848 164.631 48.9515 165.222C48.6181 165.813 48.1352 166.274 47.5026 166.603C46.8738 166.933 46.1125 167.097 45.2185 167.097H42.2924V165.126H44.8208C45.2943 165.126 45.6844 165.044 45.9912 164.881C46.3019 164.715 46.5329 164.486 46.6844 164.194C46.8397 163.899 46.9174 163.56 46.9174 163.177C46.9174 162.791 46.8397 162.453 46.6844 162.166C46.5329 161.874 46.3019 161.649 45.9912 161.489C45.6806 161.327 45.2867 161.245 44.8094 161.245H43.1503V170.87H40.6901ZM50.7295 170.87V159.234H55.3204C56.1992 159.234 56.9492 159.391 57.5704 159.705C58.1954 160.016 58.6708 160.457 58.9965 161.029C59.3261 161.597 59.4909 162.266 59.4909 163.035C59.4909 163.808 59.3242 164.472 58.9909 165.029C58.6575 165.582 58.1746 166.006 57.542 166.302C56.9132 166.597 56.1518 166.745 55.2579 166.745H52.184V164.768H54.8602C55.3299 164.768 55.72 164.703 56.0306 164.575C56.3412 164.446 56.5723 164.253 56.7238 163.995C56.8791 163.738 56.9568 163.417 56.9568 163.035C56.9568 162.649 56.8791 162.323 56.7238 162.058C56.5723 161.792 56.3393 161.592 56.0249 161.455C55.7143 161.315 55.3223 161.245 54.8488 161.245H53.1897V170.87H50.7295ZM57.0136 165.575L59.9056 170.87H57.1897L54.3602 165.575H57.0136ZM63.3697 159.234V170.87H60.9095V159.234H63.3697ZM65.0739 159.234H68.108L71.3125 167.052H71.4489L74.6534 159.234H77.6875V170.87H75.3011V163.296H75.2045L72.1932 170.813H70.5682L67.5568 163.268H67.4602V170.87H65.0739V159.234ZM81.4002 170.87H78.7638L82.7809 159.234H85.9513L89.9627 170.87H87.3263L84.4115 161.893H84.3206L81.4002 170.87ZM81.2354 166.296H87.4627V168.217H81.2354V166.296ZM91.0432 170.87V159.234H95.6341C96.5129 159.234 97.2629 159.391 97.8841 159.705C98.5091 160.016 98.9845 160.457 99.3103 161.029C99.6398 161.597 99.8046 162.266 99.8046 163.035C99.8046 163.808 99.6379 164.472 99.3046 165.029C98.9713 165.582 98.4883 166.006 97.8557 166.302C97.227 166.597 96.4656 166.745 95.5716 166.745H92.4978V164.768H95.1739C95.6436 164.768 96.0338 164.703 96.3444 164.575C96.655 164.446 96.886 164.253 97.0376 163.995C97.1929 163.738 97.2705 163.417 97.2705 163.035C97.2705 162.649 97.1929 162.323 97.0376 162.058C96.886 161.792 96.6531 161.592 96.3387 161.455C96.0281 161.315 95.636 161.245 95.1626 161.245H93.5035V170.87H91.0432ZM97.3273 165.575L100.219 170.87H97.5035L94.6739 165.575H97.3273ZM100.057 159.234H102.813L105.466 164.245H105.58L108.233 159.234H110.989L106.745 166.756V170.87H104.301V166.756L100.057 159.234Z" fill="black"/>
<path d="M47.9524 193.87H46.9124L49.073 183.301H50.1131L49.4393 186.583L49.4173 186.7L48.6775 190.318L48.6556 190.435L47.9524 193.87ZM51.4021 193.87H50.3548L51.0652 190.435L51.0872 190.318L51.827 186.7L51.8489 186.583L52.5228 183.301H53.5701L51.4021 193.87ZM53.9217 190.918H45.7918L45.9969 189.864H48.1136H48.2674H51.556H51.7098H54.1268L53.9217 190.918ZM54.6028 187.198H52.2664H52.1053H48.824H48.6629H46.4583L46.6707 186.15H54.8079L54.6028 187.198ZM59.3371 194.119C58.5559 194.119 57.8869 193.895 57.3303 193.445C56.7785 192.996 56.3537 192.359 56.0559 191.534C55.758 190.704 55.6091 189.722 55.6091 188.589V188.575C55.6091 187.442 55.758 186.463 56.0559 185.638C56.3537 184.812 56.7785 184.175 57.3303 183.726C57.8869 183.277 58.5559 183.052 59.3371 183.052C60.1184 183.052 60.7873 183.277 61.3439 183.726C61.9006 184.175 62.3278 184.812 62.6257 185.638C62.9284 186.463 63.0798 187.442 63.0798 188.575V188.589C63.0798 189.722 62.9284 190.704 62.6257 191.534C62.3278 192.359 61.9006 192.996 61.3439 193.445C60.7873 193.895 60.1184 194.119 59.3371 194.119ZM59.3371 192.969C59.8449 192.969 60.2771 192.791 60.6335 192.435C60.9948 192.078 61.2707 191.573 61.4611 190.918C61.6564 190.264 61.7541 189.488 61.7541 188.589V188.575C61.7541 187.676 61.6564 186.902 61.4611 186.253C61.2707 185.599 60.9948 185.096 60.6335 184.744C60.2771 184.388 59.8449 184.209 59.3371 184.209C58.8342 184.209 58.4021 184.388 58.0407 184.744C57.6843 185.096 57.4108 185.599 57.2204 186.253C57.03 186.902 56.9348 187.676 56.9348 188.575V188.589C56.9348 189.488 57.03 190.264 57.2204 190.918C57.4108 191.573 57.6843 192.078 58.0407 192.435C58.4021 192.791 58.8342 192.969 59.3371 192.969ZM68.3854 194.119C67.6041 194.119 66.9352 193.895 66.3785 193.445C65.8268 192.996 65.402 192.359 65.1041 191.534C64.8063 190.704 64.6573 189.722 64.6573 188.589V188.575C64.6573 187.442 64.8063 186.463 65.1041 185.638C65.402 184.812 65.8268 184.175 66.3785 183.726C66.9352 183.277 67.6041 183.052 68.3854 183.052C69.1666 183.052 69.8355 183.277 70.3922 183.726C70.9488 184.175 71.3761 184.812 71.6739 185.638C71.9767 186.463 72.128 187.442 72.128 188.575V188.589C72.128 189.722 71.9767 190.704 71.6739 191.534C71.3761 192.359 70.9488 192.996 70.3922 193.445C69.8355 193.895 69.1666 194.119 68.3854 194.119ZM68.3854 192.969C68.8932 192.969 69.3253 192.791 69.6817 192.435C70.0431 192.078 70.3189 191.573 70.5094 190.918C70.7047 190.264 70.8023 189.488 70.8023 188.589V188.575C70.8023 187.676 70.7047 186.902 70.5094 186.253C70.3189 185.599 70.0431 185.096 69.6817 184.744C69.3253 184.388 68.8932 184.209 68.3854 184.209C67.8824 184.209 67.4503 184.388 67.089 184.744C66.7325 185.096 66.4591 185.599 66.2687 186.253C66.0782 186.902 65.983 187.676 65.983 188.575V188.589C65.983 189.488 66.0782 190.264 66.2687 190.918C66.4591 191.573 66.7325 192.078 67.089 192.435C67.4503 192.791 67.8824 192.969 68.3854 192.969ZM74.0425 193.87L78.7886 184.583V184.48H73.1343V183.301H80.1289V184.524L75.4268 193.87H74.0425ZM79.4579 193.87L83.3544 183.301H84.3651V185.008H83.9477L80.8422 193.87H79.4579ZM81.223 190.845L81.6332 189.725H86.4086L86.8188 190.845H81.223ZM87.1703 193.87L84.0648 185.008V183.301H84.6581L88.5546 193.87H87.1703ZM90.0076 193.87V183.301H96.4236V184.488H91.326V188.121H96.0062V189.292H91.326V193.87H90.0076ZM98.1916 193.87V183.301H104.608V184.488H99.51V188.121H104.19V189.292H99.51V193.87H98.1916Z" fill="black" fill-opacity="0.8"/>
<rect x="366.333" y="10.8701" width="115" height="115" rx="38" fill="#0C2C50" fill-opacity="0.4"/>
<rect x="361.333" y="5.87012" width="125" height="125" rx="43" stroke="#0C2C50" stroke-opacity="0.1" stroke-width="10"/>
<rect x="376.333" y="20.8701" width="95" height="95" rx="32" fill="#0C2C50"/>
<path d="M381.859 162.58C381.814 162.122 381.618 161.766 381.274 161.512C380.929 161.258 380.461 161.131 379.87 161.131C379.469 161.131 379.13 161.188 378.853 161.302C378.577 161.412 378.365 161.565 378.217 161.762C378.073 161.959 378.001 162.183 378.001 162.433C377.993 162.641 378.037 162.823 378.132 162.978C378.23 163.133 378.365 163.268 378.535 163.381C378.706 163.491 378.903 163.588 379.126 163.671C379.35 163.751 379.588 163.819 379.842 163.876L380.887 164.126C381.395 164.239 381.861 164.391 382.285 164.58C382.709 164.77 383.077 165.003 383.387 165.279C383.698 165.556 383.939 165.881 384.109 166.256C384.283 166.631 384.372 167.061 384.376 167.546C384.372 168.258 384.19 168.876 383.831 169.399C383.475 169.917 382.959 170.321 382.285 170.609C381.615 170.893 380.806 171.035 379.859 171.035C378.92 171.035 378.101 170.891 377.404 170.603C376.711 170.315 376.17 169.889 375.779 169.325C375.393 168.756 375.19 168.054 375.171 167.217H377.552C377.579 167.607 377.69 167.933 377.887 168.194C378.088 168.452 378.355 168.647 378.689 168.779C379.026 168.908 379.406 168.972 379.831 168.972C380.247 168.972 380.609 168.912 380.916 168.791C381.226 168.669 381.467 168.501 381.637 168.285C381.808 168.069 381.893 167.821 381.893 167.541C381.893 167.279 381.815 167.06 381.66 166.881C381.509 166.703 381.285 166.552 380.99 166.427C380.698 166.302 380.34 166.188 379.916 166.086L378.649 165.768C377.668 165.529 376.893 165.156 376.325 164.649C375.757 164.141 375.475 163.457 375.478 162.597C375.475 161.893 375.662 161.277 376.041 160.751C376.423 160.224 376.948 159.813 377.615 159.518C378.281 159.222 379.039 159.075 379.887 159.075C380.751 159.075 381.505 159.222 382.149 159.518C382.796 159.813 383.3 160.224 383.66 160.751C384.02 161.277 384.206 161.887 384.217 162.58H381.859ZM385.711 170.87V159.234H393.552V161.262H388.171V164.035H393.148V166.063H388.171V168.842H393.575V170.87H385.711ZM405.455 163.308H402.966C402.921 162.986 402.828 162.7 402.688 162.45C402.548 162.196 402.368 161.98 402.148 161.802C401.928 161.624 401.674 161.488 401.387 161.393C401.103 161.298 400.794 161.251 400.46 161.251C399.858 161.251 399.334 161.4 398.887 161.7C398.44 161.995 398.093 162.427 397.847 162.995C397.601 163.56 397.478 164.245 397.478 165.052C397.478 165.881 397.601 166.578 397.847 167.143C398.097 167.707 398.445 168.133 398.892 168.421C399.339 168.709 399.856 168.853 400.443 168.853C400.773 168.853 401.078 168.81 401.358 168.722C401.642 168.635 401.894 168.508 402.114 168.342C402.334 168.171 402.515 167.965 402.659 167.722C402.807 167.48 402.909 167.203 402.966 166.893L405.455 166.904C405.39 167.438 405.229 167.953 404.972 168.45C404.718 168.942 404.375 169.383 403.943 169.774C403.515 170.16 403.004 170.467 402.409 170.694C401.818 170.917 401.15 171.029 400.404 171.029C399.366 171.029 398.438 170.794 397.62 170.325C396.805 169.855 396.161 169.175 395.688 168.285C395.218 167.395 394.983 166.317 394.983 165.052C394.983 163.783 395.222 162.703 395.699 161.813C396.176 160.923 396.824 160.245 397.642 159.779C398.46 159.31 399.381 159.075 400.404 159.075C401.078 159.075 401.703 159.169 402.279 159.359C402.858 159.548 403.371 159.825 403.818 160.188C404.265 160.548 404.629 160.989 404.909 161.512C405.193 162.035 405.375 162.633 405.455 163.308ZM417.592 165.052C417.592 166.321 417.352 167.4 416.871 168.291C416.393 169.181 415.742 169.861 414.916 170.33C414.094 170.796 413.17 171.029 412.143 171.029C411.109 171.029 410.181 170.794 409.359 170.325C408.537 169.855 407.888 169.175 407.41 168.285C406.933 167.395 406.694 166.317 406.694 165.052C406.694 163.783 406.933 162.703 407.41 161.813C407.888 160.923 408.537 160.245 409.359 159.779C410.181 159.31 411.109 159.075 412.143 159.075C413.17 159.075 414.094 159.31 414.916 159.779C415.742 160.245 416.393 160.923 416.871 161.813C417.352 162.703 417.592 163.783 417.592 165.052ZM415.098 165.052C415.098 164.23 414.975 163.537 414.729 162.972C414.486 162.408 414.143 161.98 413.7 161.688C413.257 161.397 412.738 161.251 412.143 161.251C411.549 161.251 411.03 161.397 410.586 161.688C410.143 161.98 409.799 162.408 409.552 162.972C409.31 163.537 409.189 164.23 409.189 165.052C409.189 165.874 409.31 166.567 409.552 167.131C409.799 167.696 410.143 168.124 410.586 168.416C411.03 168.707 411.549 168.853 412.143 168.853C412.738 168.853 413.257 168.707 413.7 168.416C414.143 168.124 414.486 167.696 414.729 167.131C414.975 166.567 415.098 165.874 415.098 165.052ZM428.828 159.234V170.87H426.703L421.64 163.546H421.555V170.87H419.095V159.234H421.254L426.276 166.552H426.379V159.234H428.828ZM434.665 170.87H430.54V159.234H434.699C435.87 159.234 436.877 159.467 437.722 159.933C438.567 160.395 439.216 161.06 439.671 161.927C440.129 162.794 440.358 163.832 440.358 165.041C440.358 166.253 440.129 167.294 439.671 168.166C439.216 169.037 438.563 169.705 437.711 170.171C436.862 170.637 435.847 170.87 434.665 170.87ZM433 168.762H434.563C435.29 168.762 435.902 168.633 436.398 168.376C436.898 168.114 437.273 167.711 437.523 167.166C437.777 166.616 437.904 165.908 437.904 165.041C437.904 164.181 437.777 163.478 437.523 162.933C437.273 162.387 436.9 161.986 436.404 161.728C435.908 161.47 435.296 161.342 434.569 161.342H433V168.762ZM443.21 170.87H440.574L444.591 159.234H447.761L451.773 170.87H449.136L446.222 161.893H446.131L443.21 170.87ZM443.046 166.296H449.273V168.217H443.046V166.296ZM452.853 170.87V159.234H457.444C458.323 159.234 459.073 159.391 459.694 159.705C460.319 160.016 460.795 160.457 461.12 161.029C461.45 161.597 461.615 162.266 461.615 163.035C461.615 163.808 461.448 164.472 461.115 165.029C460.781 165.582 460.298 166.006 459.666 166.302C459.037 166.597 458.276 166.745 457.382 166.745H454.308V164.768H456.984C457.454 164.768 457.844 164.703 458.155 164.575C458.465 164.446 458.696 164.253 458.848 163.995C459.003 163.738 459.081 163.417 459.081 163.035C459.081 162.649 459.003 162.323 458.848 162.058C458.696 161.792 458.463 161.592 458.149 161.455C457.838 161.315 457.446 161.245 456.973 161.245H455.314V170.87H452.853ZM459.137 165.575L462.03 170.87H459.314L456.484 165.575H459.137ZM461.867 159.234H464.623L467.276 164.245H467.39L470.043 159.234H472.799L468.555 166.756V170.87H466.111V166.756L461.867 159.234Z" fill="black"/>
<path d="M393.341 193.87H392.301L394.462 183.301H395.502L394.828 186.583L394.806 186.7L394.066 190.318L394.044 190.435L393.341 193.87ZM396.791 193.87H395.744L396.454 190.435L396.476 190.318L397.216 186.7L397.238 186.583L397.912 183.301H398.959L396.791 193.87ZM399.311 190.918H391.181L391.386 189.864H393.502H393.656H396.945H397.099H399.516L399.311 190.918ZM399.992 187.198H397.655H397.494H394.213H394.052H391.847L392.06 186.15H400.197L399.992 187.198ZM404.726 194.119C403.945 194.119 403.276 193.895 402.719 193.445C402.167 192.996 401.743 192.359 401.445 191.534C401.147 190.704 400.998 189.722 400.998 188.589V188.575C400.998 187.442 401.147 186.463 401.445 185.638C401.743 184.812 402.167 184.175 402.719 183.726C403.276 183.277 403.945 183.052 404.726 183.052C405.507 183.052 406.176 183.277 406.733 183.726C407.29 184.175 407.717 184.812 408.015 185.638C408.317 186.463 408.469 187.442 408.469 188.575V188.589C408.469 189.722 408.317 190.704 408.015 191.534C407.717 192.359 407.29 192.996 406.733 193.445C406.176 193.895 405.507 194.119 404.726 194.119ZM404.726 192.969C405.234 192.969 405.666 192.791 406.022 192.435C406.384 192.078 406.66 191.573 406.85 190.918C407.045 190.264 407.143 189.488 407.143 188.589V188.575C407.143 187.676 407.045 186.902 406.85 186.253C406.66 185.599 406.384 185.096 406.022 184.744C405.666 184.388 405.234 184.209 404.726 184.209C404.223 184.209 403.791 184.388 403.43 184.744C403.073 185.096 402.8 185.599 402.609 186.253C402.419 186.902 402.324 187.676 402.324 188.575V188.589C402.324 189.488 402.419 190.264 402.609 190.918C402.8 191.573 403.073 192.078 403.43 192.435C403.791 192.791 404.223 192.969 404.726 192.969ZM414.66 194.119C413.703 194.119 412.876 193.895 412.178 193.445C411.479 192.996 410.94 192.359 410.559 191.534C410.183 190.708 409.995 189.729 409.995 188.597V188.582C409.995 187.444 410.183 186.463 410.559 185.638C410.94 184.812 411.477 184.175 412.17 183.726C412.869 183.277 413.696 183.052 414.653 183.052C415.395 183.052 416.069 183.199 416.675 183.492C417.285 183.78 417.788 184.183 418.183 184.7C418.579 185.213 418.828 185.806 418.931 186.48L418.923 186.495H417.598L417.59 186.48C417.473 186.026 417.275 185.635 416.997 185.308C416.719 184.976 416.379 184.72 415.979 184.539C415.583 184.358 415.141 184.268 414.653 184.268C413.979 184.268 413.393 184.444 412.895 184.795C412.402 185.147 412.021 185.645 411.753 186.29C411.484 186.934 411.35 187.698 411.35 188.582V188.597C411.35 189.476 411.484 190.237 411.753 190.882C412.021 191.526 412.402 192.024 412.895 192.376C413.393 192.728 413.982 192.903 414.66 192.903C415.154 192.903 415.6 192.825 416.001 192.669C416.401 192.508 416.738 192.281 417.012 191.988C417.285 191.69 417.475 191.338 417.583 190.933L417.598 190.918H418.931V190.933C418.813 191.578 418.559 192.139 418.169 192.618C417.778 193.091 417.283 193.46 416.682 193.724C416.086 193.987 415.412 194.119 414.66 194.119ZM420.574 193.87V192.962L424.148 189.095C424.597 188.606 424.949 188.204 425.203 187.886C425.457 187.564 425.635 187.273 425.738 187.015C425.84 186.756 425.891 186.473 425.891 186.165V186.15C425.891 185.779 425.811 185.447 425.65 185.154C425.489 184.861 425.259 184.629 424.961 184.458C424.663 184.288 424.307 184.202 423.892 184.202C423.472 184.202 423.103 184.29 422.786 184.466C422.469 184.637 422.222 184.878 422.046 185.191C421.87 185.499 421.782 185.86 421.782 186.275L421.775 186.29L420.515 186.282L420.501 186.275C420.506 185.65 420.657 185.096 420.955 184.612C421.253 184.124 421.663 183.743 422.185 183.47C422.708 183.191 423.306 183.052 423.98 183.052C424.595 183.052 425.149 183.182 425.642 183.44C426.135 183.694 426.524 184.043 426.807 184.488C427.095 184.932 427.239 185.44 427.239 186.011V186.026C427.239 186.426 427.168 186.812 427.027 187.183C426.89 187.554 426.646 187.967 426.294 188.421C425.943 188.87 425.447 189.424 424.807 190.083L422.075 192.903L422.405 192.295V192.903L422.083 192.684H427.415V193.87H420.574ZM433.651 194.119C432.694 194.119 431.866 193.895 431.168 193.445C430.469 192.996 429.93 192.359 429.549 191.534C429.173 190.708 428.985 189.729 428.985 188.597V188.582C428.985 187.444 429.173 186.463 429.549 185.638C429.93 184.812 430.467 184.175 431.16 183.726C431.859 183.277 432.686 183.052 433.643 183.052C434.385 183.052 435.059 183.199 435.665 183.492C436.275 183.78 436.778 184.183 437.173 184.7C437.569 185.213 437.818 185.806 437.921 186.48L437.913 186.495H436.588L436.58 186.48C436.463 186.026 436.265 185.635 435.987 185.308C435.709 184.976 435.369 184.72 434.969 184.539C434.573 184.358 434.131 184.268 433.643 184.268C432.969 184.268 432.383 184.444 431.885 184.795C431.392 185.147 431.011 185.645 430.743 186.29C430.474 186.934 430.34 187.698 430.34 188.582V188.597C430.34 189.476 430.474 190.237 430.743 190.882C431.011 191.526 431.392 192.024 431.885 192.376C432.383 192.728 432.972 192.903 433.651 192.903C434.144 192.903 434.59 192.825 434.991 192.669C435.391 192.508 435.728 192.281 436.002 191.988C436.275 191.69 436.465 191.338 436.573 190.933L436.588 190.918H437.921V190.933C437.803 191.578 437.549 192.139 437.159 192.618C436.768 193.091 436.273 193.46 435.672 193.724C435.076 193.987 434.402 194.119 433.651 194.119ZM443.036 194.119C442.381 194.119 441.798 193.99 441.285 193.731C440.773 193.472 440.36 193.121 440.047 192.676C439.74 192.227 439.559 191.722 439.505 191.16L439.498 191.08H440.765L440.773 191.138C440.816 191.475 440.939 191.783 441.139 192.061C441.344 192.334 441.61 192.552 441.937 192.713C442.269 192.874 442.64 192.955 443.05 192.955C443.519 192.955 443.932 192.852 444.288 192.647C444.645 192.437 444.923 192.149 445.123 191.783C445.323 191.417 445.423 190.997 445.423 190.523V190.508C445.423 190.04 445.321 189.625 445.116 189.263C444.916 188.897 444.64 188.611 444.288 188.406C443.937 188.201 443.531 188.099 443.072 188.099C442.721 188.099 442.396 188.152 442.098 188.26C441.805 188.367 441.544 188.528 441.315 188.743C441.222 188.831 441.134 188.926 441.051 189.029C440.973 189.131 440.899 189.246 440.831 189.373H439.689L440.245 183.301H446.127V184.48H441.285L440.926 188.055H441.044C441.2 187.815 441.393 187.615 441.622 187.454C441.852 187.293 442.108 187.171 442.391 187.088C442.679 187 442.982 186.956 443.299 186.956C443.963 186.956 444.552 187.11 445.065 187.417C445.577 187.72 445.98 188.138 446.273 188.67C446.566 189.197 446.712 189.803 446.712 190.486V190.501C446.712 191.209 446.554 191.836 446.236 192.383C445.924 192.925 445.492 193.35 444.94 193.658C444.388 193.965 443.753 194.119 443.036 194.119ZM451.974 194.119C451.193 194.119 450.524 193.895 449.967 193.445C449.415 192.996 448.991 192.359 448.693 191.534C448.395 190.704 448.246 189.722 448.246 188.589V188.575C448.246 187.442 448.395 186.463 448.693 185.638C448.991 184.812 449.415 184.175 449.967 183.726C450.524 183.277 451.193 183.052 451.974 183.052C452.755 183.052 453.424 183.277 453.981 183.726C454.538 184.175 454.965 184.812 455.263 185.638C455.565 186.463 455.717 187.442 455.717 188.575V188.589C455.717 189.722 455.565 190.704 455.263 191.534C454.965 192.359 454.538 192.996 453.981 193.445C453.424 193.895 452.755 194.119 451.974 194.119ZM451.974 192.969C452.482 192.969 452.914 192.791 453.27 192.435C453.632 192.078 453.908 191.573 454.098 190.918C454.293 190.264 454.391 189.488 454.391 188.589V188.575C454.391 187.676 454.293 186.902 454.098 186.253C453.908 185.599 453.632 185.096 453.27 184.744C452.914 184.388 452.482 184.209 451.974 184.209C451.471 184.209 451.039 184.388 450.678 184.744C450.321 185.096 450.048 185.599 449.857 186.253C449.667 186.902 449.572 187.676 449.572 188.575V188.589C449.572 189.488 449.667 190.264 449.857 190.918C450.048 191.573 450.321 192.078 450.678 192.435C451.039 192.791 451.471 192.969 451.974 192.969Z" fill="black" fill-opacity="0.8"/>
<rect x="714.667" y="10.8701" width="115" height="115" rx="38" fill="#FC4747" fill-opacity="0.35"/>
<rect x="709.667" y="5.87012" width="125" height="125" rx="43" stroke="#FC4747" stroke-opacity="0.1" stroke-width="10"/>
<rect x="724.667" y="20.8701" width="95" height="95" rx="32" fill="#FC4747"/>
<path d="M743.601 159.234V170.87H741.476L736.414 163.546H736.329V170.87H733.868V159.234H736.027L741.05 166.552H741.152V159.234H743.601ZM745.314 170.87V159.234H753.155V161.262H747.774V164.035H752.751V166.063H747.774V168.842H753.178V170.87H745.314ZM762.507 162.995C762.427 162.719 762.315 162.474 762.171 162.262C762.028 162.046 761.851 161.864 761.643 161.717C761.439 161.565 761.204 161.45 760.939 161.37C760.677 161.291 760.387 161.251 760.069 161.251C759.475 161.251 758.952 161.399 758.501 161.694C758.054 161.989 757.706 162.419 757.456 162.984C757.206 163.544 757.081 164.23 757.081 165.041C757.081 165.851 757.204 166.541 757.45 167.109C757.696 167.677 758.045 168.111 758.495 168.41C758.946 168.705 759.478 168.853 760.092 168.853C760.649 168.853 761.124 168.755 761.518 168.558C761.916 168.357 762.219 168.075 762.427 167.711C762.639 167.347 762.745 166.917 762.745 166.421L763.245 166.495H760.245V164.643H765.115V166.109C765.115 167.131 764.899 168.01 764.467 168.745C764.035 169.476 763.44 170.041 762.683 170.438C761.925 170.832 761.058 171.029 760.081 171.029C758.99 171.029 758.031 170.789 757.206 170.308C756.38 169.823 755.736 169.135 755.274 168.245C754.815 167.351 754.586 166.291 754.586 165.063C754.586 164.12 754.723 163.279 754.995 162.541C755.272 161.798 755.658 161.169 756.154 160.654C756.651 160.139 757.228 159.747 757.887 159.478C758.546 159.209 759.26 159.075 760.029 159.075C760.689 159.075 761.302 159.171 761.87 159.364C762.439 159.554 762.942 159.823 763.382 160.171C763.825 160.52 764.187 160.935 764.467 161.416C764.747 161.893 764.927 162.419 765.007 162.995H762.507ZM768.289 170.87H765.653L769.67 159.234H772.84L776.851 170.87H774.215L771.3 161.893H771.209L768.289 170.87ZM768.124 166.296H774.351V168.217H768.124V166.296ZM776.067 161.262V159.234H785.624V161.262H782.061V170.87H779.629V161.262H776.067ZM789.338 159.234V170.87H786.878V159.234H789.338ZM793.144 159.234L795.957 168.075H796.065L798.883 159.234H801.61L797.599 170.87H794.428L790.411 159.234H793.144ZM802.691 170.87V159.234H810.532V161.262H805.151V164.035H810.128V166.063H805.151V168.842H810.554V170.87H802.691Z" fill="black"/>
<path d="M743.608 193.87H742.568L744.729 183.301H745.769L745.095 186.583L745.073 186.7L744.333 190.318L744.311 190.435L743.608 193.87ZM747.058 193.87H746.011L746.721 190.435L746.743 190.318L747.483 186.7L747.505 186.583L748.179 183.301H749.226L747.058 193.87ZM749.578 190.918H741.448L741.653 189.864H743.769H743.923H747.212H747.366H749.783L749.578 190.918ZM750.259 187.198H747.922H747.761H744.48H744.319H742.114L742.327 186.15H750.464L750.259 187.198ZM751.624 193.87V183.301H758.04V184.488H752.942V188.121H757.622V189.292H752.942V193.87H751.624ZM764.063 194.119C763.106 194.119 762.279 193.895 761.58 193.445C760.882 192.996 760.343 192.359 759.962 191.534C759.586 190.708 759.398 189.729 759.398 188.597V188.582C759.398 187.444 759.586 186.463 759.962 185.638C760.343 184.812 760.88 184.175 761.573 183.726C762.271 183.277 763.099 183.052 764.056 183.052C764.798 183.052 765.472 183.199 766.077 183.492C766.688 183.78 767.191 184.183 767.586 184.7C767.982 185.213 768.231 185.806 768.333 186.48L768.326 186.495H767L766.993 186.48C766.876 186.026 766.678 185.635 766.4 185.308C766.121 184.976 765.782 184.72 765.382 184.539C764.986 184.358 764.544 184.268 764.056 184.268C763.382 184.268 762.796 184.444 762.298 184.795C761.805 185.147 761.424 185.645 761.155 186.29C760.887 186.934 760.753 187.698 760.753 188.582V188.597C760.753 189.476 760.887 190.237 761.155 190.882C761.424 191.526 761.805 192.024 762.298 192.376C762.796 192.728 763.384 192.903 764.063 192.903C764.556 192.903 765.003 192.825 765.404 192.669C765.804 192.508 766.141 192.281 766.414 191.988C766.688 191.69 766.878 191.338 766.986 190.933L767 190.918H768.333V190.933C768.216 191.578 767.962 192.139 767.572 192.618C767.181 193.091 766.685 193.46 766.085 193.724C765.489 193.987 764.815 194.119 764.063 194.119ZM774.803 193.87V191.68H769.654V190.479C769.943 190 770.235 189.517 770.533 189.029C770.831 188.536 771.131 188.045 771.434 187.557C771.742 187.063 772.049 186.575 772.357 186.092C772.665 185.608 772.97 185.132 773.273 184.664C773.58 184.195 773.883 183.741 774.181 183.301H776.092V190.501H777.594V191.68H776.092V193.87H774.803ZM771.002 190.508H774.811V184.524H774.723C774.484 184.881 774.239 185.252 773.99 185.638C773.741 186.019 773.487 186.409 773.229 186.81C772.975 187.21 772.721 187.613 772.467 188.018C772.213 188.423 771.962 188.829 771.713 189.234C771.468 189.634 771.232 190.03 771.002 190.42V190.508ZM779.669 193.87L784.416 184.583V184.48H778.761V183.301H785.756V184.524L781.054 193.87H779.669ZM791.318 193.87V191.68H786.169V190.479C786.457 190 786.75 189.517 787.048 189.029C787.346 188.536 787.646 188.045 787.949 187.557C788.256 187.063 788.564 186.575 788.872 186.092C789.179 185.608 789.484 185.132 789.787 184.664C790.095 184.195 790.397 183.741 790.695 183.301H792.607V190.501H794.108V191.68H792.607V193.87H791.318ZM787.517 190.508H791.325V184.524H791.237C790.998 184.881 790.754 185.252 790.505 185.638C790.256 186.019 790.002 186.409 789.743 186.81C789.489 187.21 789.235 187.613 788.981 188.018C788.727 188.423 788.476 188.829 788.227 189.234C787.983 189.634 787.746 190.03 787.517 190.42V190.508ZM796.184 193.87L800.93 184.583V184.48H795.276V183.301H802.27V184.524L797.568 193.87H796.184Z" fill="black" fill-opacity="0.8"/>
<rect x="1063" y="10.8701" width="115" height="115" rx="38" fill="#42D151" fill-opacity="0.35"/>
<rect x="1058" y="5.87012" width="125" height="125" rx="43" stroke="#42D151" stroke-opacity="0.1" stroke-width="10"/>
<rect x="1073" y="20.8701" width="95" height="95" rx="32" fill="#42D151"/>
<path d="M1085.24 170.87V159.234H1089.83C1090.71 159.234 1091.47 159.402 1092.09 159.739C1092.71 160.073 1093.18 160.537 1093.51 161.131C1093.84 161.722 1094 162.404 1094 163.177C1094 163.95 1093.84 164.631 1093.5 165.222C1093.17 165.813 1092.69 166.274 1092.05 166.603C1091.42 166.933 1090.66 167.097 1089.77 167.097H1086.84V165.126H1089.37C1089.84 165.126 1090.24 165.044 1090.54 164.881C1090.85 164.715 1091.08 164.486 1091.24 164.194C1091.39 163.899 1091.47 163.56 1091.47 163.177C1091.47 162.791 1091.39 162.453 1091.24 162.166C1091.08 161.874 1090.85 161.649 1090.54 161.489C1090.23 161.327 1089.84 161.245 1089.36 161.245H1087.7V170.87H1085.24ZM1105.97 165.052C1105.97 166.321 1105.73 167.4 1105.25 168.291C1104.77 169.181 1104.12 169.861 1103.3 170.33C1102.48 170.796 1101.55 171.029 1100.52 171.029C1099.49 171.029 1098.56 170.794 1097.74 170.325C1096.92 169.855 1096.27 169.175 1095.79 168.285C1095.31 167.395 1095.08 166.317 1095.08 165.052C1095.08 163.783 1095.31 162.703 1095.79 161.813C1096.27 160.923 1096.92 160.245 1097.74 159.779C1098.56 159.31 1099.49 159.075 1100.52 159.075C1101.55 159.075 1102.48 159.31 1103.3 159.779C1104.12 160.245 1104.77 160.923 1105.25 161.813C1105.73 162.703 1105.97 163.783 1105.97 165.052ZM1103.48 165.052C1103.48 164.23 1103.36 163.537 1103.11 162.972C1102.87 162.408 1102.52 161.98 1102.08 161.688C1101.64 161.397 1101.12 161.251 1100.52 161.251C1099.93 161.251 1099.41 161.397 1098.97 161.688C1098.52 161.98 1098.18 162.408 1097.93 162.972C1097.69 163.537 1097.57 164.23 1097.57 165.052C1097.57 165.874 1097.69 166.567 1097.93 167.131C1098.18 167.696 1098.52 168.124 1098.97 168.416C1099.41 168.707 1099.93 168.853 1100.52 168.853C1101.12 168.853 1101.64 168.707 1102.08 168.416C1102.52 168.124 1102.87 167.696 1103.11 167.131C1103.36 166.567 1103.48 165.874 1103.48 165.052ZM1113.79 162.58C1113.74 162.122 1113.55 161.766 1113.2 161.512C1112.86 161.258 1112.39 161.131 1111.8 161.131C1111.4 161.131 1111.06 161.188 1110.78 161.302C1110.51 161.412 1110.29 161.565 1110.15 161.762C1110 161.959 1109.93 162.183 1109.93 162.433C1109.92 162.641 1109.97 162.823 1110.06 162.978C1110.16 163.133 1110.29 163.268 1110.46 163.381C1110.63 163.491 1110.83 163.588 1111.06 163.671C1111.28 163.751 1111.52 163.819 1111.77 163.876L1112.82 164.126C1113.32 164.239 1113.79 164.391 1114.21 164.58C1114.64 164.77 1115.01 165.003 1115.32 165.279C1115.63 165.556 1115.87 165.881 1116.04 166.256C1116.21 166.631 1116.3 167.061 1116.31 167.546C1116.3 168.258 1116.12 168.876 1115.76 169.399C1115.4 169.917 1114.89 170.321 1114.21 170.609C1113.54 170.893 1112.74 171.035 1111.79 171.035C1110.85 171.035 1110.03 170.891 1109.33 170.603C1108.64 170.315 1108.1 169.889 1107.71 169.325C1107.32 168.756 1107.12 168.054 1107.1 167.217H1109.48C1109.51 167.607 1109.62 167.933 1109.82 168.194C1110.02 168.452 1110.28 168.647 1110.62 168.779C1110.95 168.908 1111.34 168.972 1111.76 168.972C1112.18 168.972 1112.54 168.912 1112.85 168.791C1113.16 168.669 1113.4 168.501 1113.57 168.285C1113.74 168.069 1113.82 167.821 1113.82 167.541C1113.82 167.279 1113.74 167.06 1113.59 166.881C1113.44 166.703 1113.21 166.552 1112.92 166.427C1112.63 166.302 1112.27 166.188 1111.85 166.086L1110.58 165.768C1109.6 165.529 1108.82 165.156 1108.25 164.649C1107.69 164.141 1107.4 163.457 1107.41 162.597C1107.4 161.893 1107.59 161.277 1107.97 160.751C1108.35 160.224 1108.88 159.813 1109.54 159.518C1110.21 159.222 1110.97 159.075 1111.82 159.075C1112.68 159.075 1113.43 159.222 1114.08 159.518C1114.73 159.813 1115.23 160.224 1115.59 160.751C1115.95 161.277 1116.13 161.887 1116.15 162.58H1113.79ZM1120.1 159.234V170.87H1117.64V159.234H1120.1ZM1121.36 161.262V159.234H1130.92V161.262H1127.36V170.87H1124.92V161.262H1121.36ZM1134.63 159.234V170.87H1132.17V159.234H1134.63ZM1138.44 159.234L1141.25 168.075H1141.36L1144.18 159.234H1146.9L1142.89 170.87H1139.72L1135.71 159.234H1138.44ZM1147.99 170.87V159.234H1155.83V161.262H1150.45V164.035H1155.42V166.063H1150.45V168.842H1155.85V170.87H1147.99Z" fill="black"/>
<path d="M1093.07 193.87H1092.03L1094.19 183.301H1095.23L1094.56 186.583L1094.53 186.7L1093.79 190.318L1093.77 190.435L1093.07 193.87ZM1096.52 193.87H1095.47L1096.18 190.435L1096.2 190.318L1096.94 186.7L1096.97 186.583L1097.64 183.301H1098.69L1096.52 193.87ZM1099.04 190.918H1090.91L1091.11 189.864H1093.23H1093.38H1096.67H1096.83H1099.24L1099.04 190.918ZM1099.72 187.198H1097.38H1097.22H1093.94H1093.78H1091.58L1091.79 186.15H1099.93L1099.72 187.198ZM1105.52 193.87V191.68H1100.37V190.479C1100.66 190 1100.96 189.517 1101.25 189.029C1101.55 188.536 1101.85 188.045 1102.15 187.557C1102.46 187.063 1102.77 186.575 1103.08 186.092C1103.38 185.608 1103.69 185.132 1103.99 184.664C1104.3 184.195 1104.6 183.741 1104.9 183.301H1106.81V190.501H1108.31V191.68H1106.81V193.87H1105.52ZM1101.72 190.508H1105.53V184.524H1105.44C1105.2 184.881 1104.96 185.252 1104.71 185.638C1104.46 186.019 1104.21 186.409 1103.95 186.81C1103.7 187.21 1103.44 187.613 1103.19 188.018C1102.93 188.423 1102.68 188.829 1102.43 189.234C1102.19 189.634 1101.95 190.03 1101.72 190.42V190.508ZM1109.95 193.87V192.962L1113.52 189.095C1113.97 188.606 1114.33 188.204 1114.58 187.886C1114.83 187.564 1115.01 187.273 1115.11 187.015C1115.22 186.756 1115.27 186.473 1115.27 186.165V186.15C1115.27 185.779 1115.19 185.447 1115.03 185.154C1114.86 184.861 1114.64 184.629 1114.34 184.458C1114.04 184.288 1113.68 184.202 1113.27 184.202C1112.85 184.202 1112.48 184.29 1112.16 184.466C1111.84 184.637 1111.6 184.878 1111.42 185.191C1111.25 185.499 1111.16 185.86 1111.16 186.275L1111.15 186.29L1109.89 186.282L1109.88 186.275C1109.88 185.65 1110.03 185.096 1110.33 184.612C1110.63 184.124 1111.04 183.743 1111.56 183.47C1112.08 183.191 1112.68 183.052 1113.36 183.052C1113.97 183.052 1114.53 183.182 1115.02 183.44C1115.51 183.694 1115.9 184.043 1116.18 184.488C1116.47 184.932 1116.62 185.44 1116.62 186.011V186.026C1116.62 186.426 1116.54 186.812 1116.4 187.183C1116.27 187.554 1116.02 187.967 1115.67 188.421C1115.32 188.87 1114.82 189.424 1114.18 190.083L1111.45 192.903L1111.78 192.295V192.903L1111.46 192.684H1116.79V193.87H1109.95ZM1118.77 193.87V183.301H1122.4C1123.44 183.301 1124.34 183.511 1125.08 183.931C1125.82 184.346 1126.4 184.947 1126.79 185.733C1127.19 186.519 1127.38 187.466 1127.38 188.575V188.589C1127.38 189.698 1127.19 190.647 1126.79 191.438C1126.4 192.225 1125.83 192.828 1125.08 193.248C1124.34 193.663 1123.45 193.87 1122.4 193.87H1118.77ZM1120.09 192.684H1122.31C1123.1 192.684 1123.77 192.522 1124.32 192.2C1124.88 191.878 1125.3 191.412 1125.6 190.801C1125.89 190.191 1126.04 189.458 1126.04 188.604V188.589C1126.04 187.73 1125.89 186.995 1125.59 186.385C1125.3 185.77 1124.87 185.301 1124.32 184.979C1123.76 184.651 1123.09 184.488 1122.31 184.488H1120.09V192.684ZM1131.69 193.87V184.766H1131.57L1128.88 186.714V185.323L1131.69 183.301H1133.01V193.87H1131.69ZM1139.13 194.119C1138.48 194.119 1137.89 193.99 1137.38 193.731C1136.87 193.472 1136.46 193.121 1136.14 192.676C1135.84 192.227 1135.65 191.722 1135.6 191.16L1135.59 191.08H1136.86L1136.87 191.138C1136.91 191.475 1137.03 191.783 1137.23 192.061C1137.44 192.334 1137.71 192.552 1138.03 192.713C1138.36 192.874 1138.74 192.955 1139.15 192.955C1139.61 192.955 1140.03 192.852 1140.38 192.647C1140.74 192.437 1141.02 192.149 1141.22 191.783C1141.42 191.417 1141.52 190.997 1141.52 190.523V190.508C1141.52 190.04 1141.42 189.625 1141.21 189.263C1141.01 188.897 1140.74 188.611 1140.38 188.406C1140.03 188.201 1139.63 188.099 1139.17 188.099C1138.82 188.099 1138.49 188.152 1138.19 188.26C1137.9 188.367 1137.64 188.528 1137.41 188.743C1137.32 188.831 1137.23 188.926 1137.15 189.029C1137.07 189.131 1136.99 189.246 1136.93 189.373H1135.78L1136.34 183.301H1142.22V184.48H1137.38L1137.02 188.055H1137.14C1137.3 187.815 1137.49 187.615 1137.72 187.454C1137.95 187.293 1138.2 187.171 1138.49 187.088C1138.77 187 1139.08 186.956 1139.39 186.956C1140.06 186.956 1140.65 187.11 1141.16 187.417C1141.67 187.72 1142.08 188.138 1142.37 188.67C1142.66 189.197 1142.81 189.803 1142.81 190.486V190.501C1142.81 191.209 1142.65 191.836 1142.33 192.383C1142.02 192.925 1141.59 193.35 1141.04 193.658C1140.48 193.965 1139.85 194.119 1139.13 194.119ZM1147.12 193.87V184.766H1147L1144.31 186.714V185.323L1147.12 183.301H1148.44V193.87H1147.12Z" fill="black" fill-opacity="0.8"/>
<rect x="10.2778" y="287.87" width="95" height="95" rx="32" fill="#151825"/>
<rect x="67.8334" y="287.87" width="95" height="95" rx="32" fill="#1E2334"/>
<rect x="125.389" y="287.87" width="95" height="95" rx="32" fill="#4B4F5D"/>
<rect x="182.944" y="287.87" width="95" height="95" rx="32" fill="#787B85"/>
<rect x="240.5" y="287.87" width="95" height="95" rx="32" fill="#BCBDC2"/>
<rect x="298.056" y="287.87" width="95" height="95" rx="32" fill="#C9CAD1"/>
<rect x="355.611" y="287.87" width="95" height="95" rx="32" fill="#E8E9EE"/>
<rect x="413.167" y="287.87" width="95" height="95" rx="32" fill="#F5F6F7"/>
<rect x="470.722" y="287.87" width="95" height="95" rx="32" fill="white"/>
<rect x="470.222" y="287.37" width="96" height="96" rx="32.5" stroke="black" stroke-opacity="0.1"/>
<path d="M256.37 419.995C256.291 419.719 256.179 419.474 256.035 419.262C255.891 419.046 255.715 418.864 255.507 418.717C255.302 418.565 255.067 418.45 254.802 418.37C254.541 418.291 254.251 418.251 253.933 418.251C253.338 418.251 252.815 418.399 252.365 418.694C251.918 418.989 251.569 419.419 251.319 419.984C251.069 420.544 250.944 421.23 250.944 422.041C250.944 422.851 251.067 423.541 251.314 424.109C251.56 424.677 251.908 425.111 252.359 425.41C252.81 425.705 253.342 425.853 253.956 425.853C254.512 425.853 254.988 425.755 255.382 425.558C255.779 425.357 256.083 425.075 256.291 424.711C256.503 424.347 256.609 423.917 256.609 423.421L257.109 423.495H254.109V421.643H258.978V423.109C258.978 424.131 258.762 425.01 258.331 425.745C257.899 426.476 257.304 427.041 256.547 427.438C255.789 427.832 254.922 428.029 253.944 428.029C252.853 428.029 251.895 427.789 251.069 427.308C250.244 426.823 249.6 426.135 249.137 425.245C248.679 424.351 248.45 423.291 248.45 422.063C248.45 421.12 248.586 420.279 248.859 419.541C249.136 418.798 249.522 418.169 250.018 417.654C250.514 417.139 251.092 416.747 251.751 416.478C252.41 416.209 253.124 416.075 253.893 416.075C254.552 416.075 255.166 416.171 255.734 416.364C256.302 416.554 256.806 416.823 257.245 417.171C257.689 417.52 258.05 417.935 258.331 418.416C258.611 418.893 258.791 419.419 258.87 419.995H256.37ZM260.461 427.87V419.143H262.807V420.666H262.898C263.057 420.124 263.325 419.715 263.7 419.438C264.075 419.158 264.506 419.018 264.995 419.018C265.116 419.018 265.247 419.025 265.387 419.041C265.527 419.056 265.65 419.077 265.756 419.103V421.251C265.643 421.217 265.486 421.186 265.285 421.16C265.084 421.133 264.9 421.12 264.734 421.12C264.378 421.12 264.059 421.198 263.779 421.353C263.503 421.505 263.283 421.717 263.12 421.989C262.961 422.262 262.881 422.577 262.881 422.933V427.87H260.461ZM268.926 428.035C268.37 428.035 267.873 427.938 267.438 427.745C267.002 427.548 266.657 427.258 266.404 426.876C266.154 426.489 266.029 426.008 266.029 425.433C266.029 424.948 266.118 424.541 266.296 424.211C266.474 423.881 266.716 423.616 267.023 423.416C267.33 423.215 267.678 423.063 268.068 422.961C268.462 422.859 268.875 422.787 269.307 422.745C269.815 422.692 270.224 422.643 270.534 422.597C270.845 422.548 271.07 422.476 271.211 422.381C271.351 422.287 271.421 422.147 271.421 421.961V421.927C271.421 421.567 271.307 421.289 271.08 421.092C270.856 420.895 270.538 420.796 270.125 420.796C269.69 420.796 269.343 420.893 269.086 421.086C268.828 421.275 268.657 421.514 268.574 421.802L266.336 421.62C266.449 421.09 266.673 420.631 267.006 420.245C267.339 419.855 267.769 419.556 268.296 419.347C268.826 419.135 269.44 419.029 270.137 419.029C270.621 419.029 271.086 419.086 271.529 419.2C271.976 419.313 272.371 419.489 272.716 419.728C273.065 419.967 273.339 420.274 273.54 420.649C273.741 421.02 273.841 421.465 273.841 421.984V427.87H271.546V426.66H271.478C271.337 426.933 271.15 427.173 270.915 427.381C270.68 427.586 270.398 427.747 270.068 427.864C269.739 427.978 269.358 428.035 268.926 428.035ZM269.62 426.364C269.976 426.364 270.29 426.294 270.563 426.154C270.836 426.01 271.05 425.817 271.205 425.575C271.36 425.332 271.438 425.058 271.438 424.751V423.825C271.362 423.874 271.258 423.919 271.125 423.961C270.996 423.999 270.851 424.035 270.688 424.069C270.525 424.099 270.362 424.128 270.199 424.154C270.036 424.177 269.889 424.198 269.756 424.217C269.472 424.258 269.224 424.325 269.012 424.416C268.8 424.506 268.635 424.63 268.517 424.785C268.4 424.936 268.341 425.126 268.341 425.353C268.341 425.683 268.461 425.935 268.699 426.109C268.942 426.279 269.248 426.364 269.62 426.364ZM276.581 431.143C276.274 431.143 275.986 431.118 275.717 431.069C275.452 431.024 275.232 430.965 275.058 430.893L275.604 429.086C275.888 429.173 276.143 429.22 276.371 429.228C276.602 429.236 276.801 429.183 276.967 429.069C277.138 428.955 277.276 428.762 277.382 428.489L277.524 428.12L274.393 419.143H276.939L278.746 425.552H278.837L280.66 419.143H283.223L279.831 428.813C279.668 429.283 279.446 429.692 279.166 430.041C278.89 430.393 278.539 430.664 278.115 430.853C277.691 431.046 277.179 431.143 276.581 431.143ZM293.883 419.58C293.837 419.122 293.642 418.766 293.297 418.512C292.953 418.258 292.485 418.131 291.894 418.131C291.492 418.131 291.153 418.188 290.877 418.302C290.6 418.412 290.388 418.565 290.241 418.762C290.097 418.959 290.025 419.183 290.025 419.433C290.017 419.641 290.061 419.823 290.155 419.978C290.254 420.133 290.388 420.268 290.559 420.381C290.729 420.491 290.926 420.588 291.15 420.671C291.373 420.751 291.612 420.819 291.866 420.876L292.911 421.126C293.419 421.239 293.885 421.391 294.309 421.58C294.733 421.77 295.1 422.003 295.411 422.279C295.722 422.556 295.962 422.881 296.133 423.256C296.307 423.631 296.396 424.061 296.4 424.546C296.396 425.258 296.214 425.876 295.854 426.399C295.498 426.917 294.983 427.321 294.309 427.609C293.638 427.893 292.83 428.035 291.883 428.035C290.943 428.035 290.125 427.891 289.428 427.603C288.735 427.315 288.193 426.889 287.803 426.325C287.417 425.756 287.214 425.054 287.195 424.217H289.576C289.602 424.607 289.714 424.933 289.911 425.194C290.112 425.452 290.379 425.647 290.712 425.779C291.049 425.908 291.43 425.972 291.854 425.972C292.271 425.972 292.633 425.912 292.939 425.791C293.25 425.669 293.491 425.501 293.661 425.285C293.831 425.069 293.917 424.821 293.917 424.541C293.917 424.279 293.839 424.06 293.684 423.881C293.532 423.703 293.309 423.552 293.013 423.427C292.722 423.302 292.364 423.188 291.939 423.086L290.672 422.768C289.691 422.529 288.917 422.156 288.349 421.649C287.78 421.141 287.498 420.457 287.502 419.597C287.498 418.893 287.686 418.277 288.064 417.751C288.447 417.224 288.972 416.813 289.638 416.518C290.305 416.222 291.063 416.075 291.911 416.075C292.775 416.075 293.528 416.222 294.172 416.518C294.82 416.813 295.324 417.224 295.684 417.751C296.044 418.277 296.229 418.887 296.241 419.58H293.883ZM301.632 428.041C300.738 428.041 299.969 427.851 299.325 427.472C298.685 427.09 298.193 426.56 297.848 425.881C297.507 425.203 297.337 424.423 297.337 423.541C297.337 422.647 297.509 421.863 297.854 421.188C298.202 420.51 298.697 419.982 299.337 419.603C299.977 419.22 300.738 419.029 301.621 419.029C302.382 419.029 303.049 419.167 303.621 419.444C304.193 419.72 304.645 420.109 304.979 420.609C305.312 421.109 305.496 421.696 305.53 422.37H303.246C303.181 421.935 303.011 421.584 302.734 421.319C302.462 421.05 302.104 420.916 301.661 420.916C301.286 420.916 300.958 421.018 300.678 421.222C300.401 421.423 300.185 421.717 300.03 422.103C299.875 422.489 299.797 422.957 299.797 423.506C299.797 424.063 299.873 424.537 300.024 424.927C300.18 425.317 300.397 425.614 300.678 425.819C300.958 426.024 301.286 426.126 301.661 426.126C301.937 426.126 302.185 426.069 302.405 425.955C302.628 425.842 302.812 425.677 302.956 425.461C303.104 425.241 303.2 424.978 303.246 424.671H305.53C305.492 425.338 305.31 425.925 304.984 426.433C304.663 426.936 304.217 427.33 303.649 427.614C303.081 427.899 302.409 428.041 301.632 428.041ZM309.248 428.035C308.691 428.035 308.195 427.938 307.76 427.745C307.324 427.548 306.979 427.258 306.726 426.876C306.476 426.489 306.351 426.008 306.351 425.433C306.351 424.948 306.44 424.541 306.618 424.211C306.796 423.881 307.038 423.616 307.345 423.416C307.652 423.215 308 423.063 308.39 422.961C308.784 422.859 309.197 422.787 309.629 422.745C310.137 422.692 310.546 422.643 310.856 422.597C311.167 422.548 311.392 422.476 311.532 422.381C311.673 422.287 311.743 422.147 311.743 421.961V421.927C311.743 421.567 311.629 421.289 311.402 421.092C311.178 420.895 310.86 420.796 310.447 420.796C310.012 420.796 309.665 420.893 309.407 421.086C309.15 421.275 308.979 421.514 308.896 421.802L306.657 421.62C306.771 421.09 306.995 420.631 307.328 420.245C307.661 419.855 308.091 419.556 308.618 419.347C309.148 419.135 309.762 419.029 310.459 419.029C310.943 419.029 311.407 419.086 311.851 419.2C312.298 419.313 312.693 419.489 313.038 419.728C313.387 419.967 313.661 420.274 313.862 420.649C314.063 421.02 314.163 421.465 314.163 421.984V427.87H311.868V426.66H311.799C311.659 426.933 311.472 427.173 311.237 427.381C311.002 427.586 310.72 427.747 310.39 427.864C310.061 427.978 309.68 428.035 309.248 428.035ZM309.941 426.364C310.298 426.364 310.612 426.294 310.885 426.154C311.157 426.01 311.371 425.817 311.527 425.575C311.682 425.332 311.76 425.058 311.76 424.751V423.825C311.684 423.874 311.58 423.919 311.447 423.961C311.318 423.999 311.173 424.035 311.01 424.069C310.847 424.099 310.684 424.128 310.521 424.154C310.358 424.177 310.21 424.198 310.078 424.217C309.794 424.258 309.546 424.325 309.334 424.416C309.121 424.506 308.957 424.63 308.839 424.785C308.722 424.936 308.663 425.126 308.663 425.353C308.663 425.683 308.782 425.935 309.021 426.109C309.263 426.279 309.57 426.364 309.941 426.364ZM318.141 416.234V427.87H315.721V416.234H318.141ZM323.738 428.041C322.84 428.041 322.067 427.859 321.419 427.495C320.775 427.128 320.279 426.609 319.931 425.938C319.582 425.264 319.408 424.467 319.408 423.546C319.408 422.649 319.582 421.861 319.931 421.183C320.279 420.505 320.77 419.976 321.402 419.597C322.039 419.219 322.785 419.029 323.641 419.029C324.217 419.029 324.753 419.122 325.249 419.308C325.749 419.489 326.185 419.764 326.556 420.131C326.931 420.499 327.222 420.961 327.431 421.518C327.639 422.071 327.743 422.719 327.743 423.461V424.126H320.374V422.626H325.465C325.465 422.277 325.389 421.969 325.238 421.7C325.086 421.431 324.876 421.22 324.607 421.069C324.342 420.914 324.033 420.836 323.681 420.836C323.313 420.836 322.988 420.921 322.703 421.092C322.423 421.258 322.203 421.484 322.044 421.768C321.885 422.048 321.804 422.361 321.8 422.705V424.131C321.8 424.563 321.88 424.936 322.039 425.251C322.202 425.565 322.431 425.808 322.726 425.978C323.022 426.149 323.372 426.234 323.777 426.234C324.046 426.234 324.292 426.196 324.516 426.12C324.739 426.044 324.931 425.931 325.09 425.779C325.249 425.628 325.37 425.442 325.453 425.222L327.692 425.37C327.578 425.908 327.346 426.378 326.993 426.779C326.645 427.177 326.194 427.488 325.641 427.711C325.092 427.931 324.457 428.041 323.738 428.041Z" fill="black"/>
<rect x="648" y="287.87" width="95" height="95" rx="32" fill="#007AFF"/>
<rect x="718.833" y="287.87" width="95" height="95" rx="32" fill="#4599FF"/>
<rect x="789.667" y="287.87" width="95" height="95" rx="32" fill="#84C4FF"/>
<rect x="860.5" y="287.87" width="95" height="95" rx="32" fill="#E0EDFD"/>
<rect x="931.333" y="287.87" width="95" height="95" rx="32" fill="#ECF5FF"/>
<rect x="1002.17" y="287.87" width="95" height="95" rx="32" fill="#F6F9FD"/>
<rect x="1073" y="287.87" width="95" height="95" rx="32" fill="#F1F4F6"/>
<path d="M817.144 427.87V416.234H821.735C822.618 416.234 823.37 416.402 823.991 416.739C824.612 417.073 825.086 417.537 825.412 418.131C825.741 418.722 825.906 419.404 825.906 420.177C825.906 420.95 825.739 421.631 825.406 422.222C825.073 422.813 824.59 423.274 823.957 423.603C823.328 423.933 822.567 424.097 821.673 424.097H818.747V422.126H821.275C821.749 422.126 822.139 422.044 822.446 421.881C822.756 421.715 822.987 421.486 823.139 421.194C823.294 420.899 823.372 420.56 823.372 420.177C823.372 419.791 823.294 419.453 823.139 419.166C822.987 418.874 822.756 418.649 822.446 418.489C822.135 418.327 821.741 418.245 821.264 418.245H819.605V427.87H817.144ZM827.138 427.87V419.143H829.485V420.666H829.576C829.735 420.124 830.002 419.715 830.377 419.438C830.752 419.158 831.184 419.018 831.673 419.018C831.794 419.018 831.924 419.025 832.065 419.041C832.205 419.056 832.328 419.077 832.434 419.103V421.251C832.32 421.217 832.163 421.186 831.962 421.16C831.762 421.133 831.578 421.12 831.411 421.12C831.055 421.12 830.737 421.198 830.457 421.353C830.18 421.505 829.96 421.717 829.798 421.989C829.638 422.262 829.559 422.577 829.559 422.933V427.87H827.138ZM833.365 427.87V419.143H835.786V427.87H833.365ZM834.581 418.018C834.221 418.018 833.913 417.899 833.655 417.66C833.401 417.417 833.274 417.128 833.274 416.791C833.274 416.457 833.401 416.171 833.655 415.933C833.913 415.69 834.221 415.569 834.581 415.569C834.941 415.569 835.248 415.69 835.502 415.933C835.759 416.171 835.888 416.457 835.888 416.791C835.888 417.128 835.759 417.417 835.502 417.66C835.248 417.899 834.941 418.018 834.581 418.018ZM837.405 427.87V419.143H839.711V420.683H839.814C839.996 420.171 840.299 419.768 840.723 419.472C841.147 419.177 841.655 419.029 842.246 419.029C842.844 419.029 843.354 419.179 843.774 419.478C844.194 419.774 844.475 420.175 844.615 420.683H844.706C844.884 420.183 845.206 419.783 845.672 419.484C846.141 419.181 846.696 419.029 847.336 419.029C848.151 419.029 848.812 419.289 849.319 419.808C849.831 420.323 850.086 421.054 850.086 422.001V427.87H847.672V422.478C847.672 421.993 847.543 421.63 847.285 421.387C847.028 421.145 846.706 421.024 846.319 421.024C845.88 421.024 845.537 421.164 845.291 421.444C845.045 421.72 844.922 422.086 844.922 422.541V427.87H842.575V422.427C842.575 421.999 842.452 421.658 842.206 421.404C841.963 421.15 841.643 421.024 841.246 421.024C840.977 421.024 840.734 421.092 840.518 421.228C840.306 421.361 840.138 421.548 840.013 421.791C839.888 422.029 839.825 422.31 839.825 422.631V427.87H837.405ZM854.167 428.035C853.61 428.035 853.114 427.938 852.678 427.745C852.243 427.548 851.898 427.258 851.644 426.876C851.394 426.489 851.269 426.008 851.269 425.433C851.269 424.948 851.358 424.541 851.536 424.211C851.714 423.881 851.957 423.616 852.264 423.416C852.57 423.215 852.919 423.063 853.309 422.961C853.703 422.859 854.116 422.787 854.548 422.745C855.055 422.692 855.464 422.643 855.775 422.597C856.086 422.548 856.311 422.476 856.451 422.381C856.591 422.287 856.661 422.147 856.661 421.961V421.927C856.661 421.567 856.548 421.289 856.32 421.092C856.097 420.895 855.779 420.796 855.366 420.796C854.93 420.796 854.584 420.893 854.326 421.086C854.069 421.275 853.898 421.514 853.815 421.802L851.576 421.62C851.69 421.09 851.913 420.631 852.247 420.245C852.58 419.855 853.01 419.556 853.536 419.347C854.067 419.135 854.68 419.029 855.377 419.029C855.862 419.029 856.326 419.086 856.769 419.2C857.216 419.313 857.612 419.489 857.957 419.728C858.305 419.967 858.58 420.274 858.781 420.649C858.981 421.02 859.082 421.465 859.082 421.984V427.87H856.786V426.66H856.718C856.578 426.933 856.391 427.173 856.156 427.381C855.921 427.586 855.639 427.747 855.309 427.864C854.98 427.978 854.599 428.035 854.167 428.035ZM854.86 426.364C855.216 426.364 855.531 426.294 855.803 426.154C856.076 426.01 856.29 425.817 856.445 425.575C856.601 425.332 856.678 425.058 856.678 424.751V423.825C856.603 423.874 856.498 423.919 856.366 423.961C856.237 423.999 856.091 424.035 855.928 424.069C855.766 424.099 855.603 424.128 855.44 424.154C855.277 424.177 855.129 424.198 854.997 424.217C854.713 424.258 854.464 424.325 854.252 424.416C854.04 424.506 853.875 424.63 853.758 424.785C853.641 424.936 853.582 425.126 853.582 425.353C853.582 425.683 853.701 425.935 853.94 426.109C854.182 426.279 854.489 426.364 854.86 426.364ZM860.64 427.87V419.143H862.986V420.666H863.077C863.236 420.124 863.503 419.715 863.878 419.438C864.253 419.158 864.685 419.018 865.174 419.018C865.295 419.018 865.426 419.025 865.566 419.041C865.706 419.056 865.829 419.077 865.935 419.103V421.251C865.821 421.217 865.664 421.186 865.464 421.16C865.263 421.133 865.079 421.12 864.912 421.12C864.556 421.12 864.238 421.198 863.958 421.353C863.681 421.505 863.462 421.717 863.299 421.989C863.14 422.262 863.06 422.577 863.06 422.933V427.87H860.64ZM868.626 431.143C868.32 431.143 868.032 431.118 867.763 431.069C867.498 431.024 867.278 430.965 867.104 430.893L867.649 429.086C867.933 429.173 868.189 429.22 868.416 429.228C868.647 429.236 868.846 429.183 869.013 429.069C869.183 428.955 869.322 428.762 869.428 428.489L869.57 428.12L866.439 419.143H868.984L870.791 425.552H870.882L872.706 419.143H875.269L871.876 428.813C871.714 429.283 871.492 429.692 871.212 430.041C870.935 430.393 870.585 430.664 870.161 430.853C869.736 431.046 869.225 431.143 868.626 431.143ZM889.883 420.308H887.394C887.349 419.986 887.256 419.7 887.116 419.45C886.976 419.196 886.796 418.98 886.576 418.802C886.356 418.624 886.102 418.488 885.815 418.393C885.531 418.298 885.222 418.251 884.888 418.251C884.286 418.251 883.762 418.4 883.315 418.7C882.868 418.995 882.521 419.427 882.275 419.995C882.029 420.56 881.906 421.245 881.906 422.052C881.906 422.881 882.029 423.578 882.275 424.143C882.525 424.707 882.873 425.133 883.32 425.421C883.767 425.709 884.284 425.853 884.871 425.853C885.201 425.853 885.506 425.81 885.786 425.722C886.07 425.635 886.322 425.508 886.542 425.342C886.762 425.171 886.943 424.965 887.087 424.722C887.235 424.48 887.337 424.203 887.394 423.893L889.883 423.904C889.818 424.438 889.657 424.953 889.4 425.45C889.146 425.942 888.803 426.383 888.371 426.774C887.943 427.16 887.432 427.467 886.837 427.694C886.246 427.917 885.578 428.029 884.832 428.029C883.794 428.029 882.866 427.794 882.048 427.325C881.233 426.855 880.589 426.175 880.116 425.285C879.646 424.395 879.411 423.317 879.411 422.052C879.411 420.783 879.65 419.703 880.127 418.813C880.604 417.923 881.252 417.245 882.07 416.779C882.888 416.31 883.809 416.075 884.832 416.075C885.506 416.075 886.131 416.169 886.707 416.359C887.286 416.548 887.799 416.825 888.246 417.188C888.693 417.548 889.057 417.989 889.337 418.512C889.621 419.035 889.803 419.633 889.883 420.308ZM895.225 428.041C894.342 428.041 893.579 427.853 892.935 427.478C892.295 427.099 891.8 426.573 891.452 425.899C891.104 425.22 890.929 424.435 890.929 423.541C890.929 422.639 891.104 421.851 891.452 421.177C891.8 420.499 892.295 419.972 892.935 419.597C893.579 419.219 894.342 419.029 895.225 419.029C896.107 419.029 896.869 419.219 897.509 419.597C898.153 419.972 898.649 420.499 898.997 421.177C899.346 421.851 899.52 422.639 899.52 423.541C899.52 424.435 899.346 425.22 898.997 425.899C898.649 426.573 898.153 427.099 897.509 427.478C896.869 427.853 896.107 428.041 895.225 428.041ZM895.236 426.166C895.638 426.166 895.973 426.052 896.242 425.825C896.511 425.594 896.713 425.279 896.85 424.881C896.99 424.484 897.06 424.031 897.06 423.524C897.06 423.016 896.99 422.563 896.85 422.166C896.713 421.768 896.511 421.453 896.242 421.222C895.973 420.991 895.638 420.876 895.236 420.876C894.831 420.876 894.49 420.991 894.213 421.222C893.941 421.453 893.734 421.768 893.594 422.166C893.458 422.563 893.389 423.016 893.389 423.524C893.389 424.031 893.458 424.484 893.594 424.881C893.734 425.279 893.941 425.594 894.213 425.825C894.49 426.052 894.831 426.166 895.236 426.166ZM903.194 416.234V427.87H900.774V416.234H903.194ZM908.757 428.041C907.874 428.041 907.111 427.853 906.467 427.478C905.827 427.099 905.332 426.573 904.984 425.899C904.635 425.22 904.461 424.435 904.461 423.541C904.461 422.639 904.635 421.851 904.984 421.177C905.332 420.499 905.827 419.972 906.467 419.597C907.111 419.219 907.874 419.029 908.757 419.029C909.639 419.029 910.401 419.219 911.041 419.597C911.685 419.972 912.181 420.499 912.529 421.177C912.878 421.851 913.052 422.639 913.052 423.541C913.052 424.435 912.878 425.22 912.529 425.899C912.181 426.573 911.685 427.099 911.041 427.478C910.401 427.853 909.639 428.041 908.757 428.041ZM908.768 426.166C909.169 426.166 909.505 426.052 909.774 425.825C910.043 425.594 910.245 425.279 910.382 424.881C910.522 424.484 910.592 424.031 910.592 423.524C910.592 423.016 910.522 422.563 910.382 422.166C910.245 421.768 910.043 421.453 909.774 421.222C909.505 420.991 909.169 420.876 908.768 420.876C908.363 420.876 908.022 420.991 907.745 421.222C907.473 421.453 907.266 421.768 907.126 422.166C906.99 422.563 906.921 423.016 906.921 423.524C906.921 424.031 906.99 424.484 907.126 424.881C907.266 425.279 907.473 425.594 907.745 425.825C908.022 426.052 908.363 426.166 908.768 426.166ZM914.306 427.87V419.143H916.653V420.666H916.743C916.903 420.124 917.17 419.715 917.545 419.438C917.92 419.158 918.351 419.018 918.84 419.018C918.961 419.018 919.092 419.025 919.232 419.041C919.372 419.056 919.495 419.077 919.601 419.103V421.251C919.488 421.217 919.331 421.186 919.13 421.16C918.929 421.133 918.745 421.12 918.579 421.12C918.223 421.12 917.904 421.198 917.624 421.353C917.348 421.505 917.128 421.717 916.965 421.989C916.806 422.262 916.726 422.577 916.726 422.933V427.87H914.306ZM926.064 416.234L928.876 425.075H928.984L931.802 416.234H934.53L930.518 427.87H927.348L923.331 416.234H926.064ZM937.085 428.035C936.528 428.035 936.032 427.938 935.596 427.745C935.16 427.548 934.816 427.258 934.562 426.876C934.312 426.489 934.187 426.008 934.187 425.433C934.187 424.948 934.276 424.541 934.454 424.211C934.632 423.881 934.874 423.616 935.181 423.416C935.488 423.215 935.836 423.063 936.227 422.961C936.621 422.859 937.033 422.787 937.465 422.745C937.973 422.692 938.382 422.643 938.692 422.597C939.003 422.548 939.228 422.476 939.369 422.381C939.509 422.287 939.579 422.147 939.579 421.961V421.927C939.579 421.567 939.465 421.289 939.238 421.092C939.014 420.895 938.696 420.796 938.283 420.796C937.848 420.796 937.501 420.893 937.244 421.086C936.986 421.275 936.816 421.514 936.732 421.802L934.494 421.62C934.607 421.09 934.831 420.631 935.164 420.245C935.497 419.855 935.927 419.556 936.454 419.347C936.984 419.135 937.598 419.029 938.295 419.029C938.78 419.029 939.244 419.086 939.687 419.2C940.134 419.313 940.53 419.489 940.874 419.728C941.223 419.967 941.497 420.274 941.698 420.649C941.899 421.02 941.999 421.465 941.999 421.984V427.87H939.704V426.66H939.636C939.496 426.933 939.308 427.173 939.073 427.381C938.838 427.586 938.556 427.747 938.227 427.864C937.897 427.978 937.516 428.035 937.085 428.035ZM937.778 426.364C938.134 426.364 938.448 426.294 938.721 426.154C938.994 426.01 939.208 425.817 939.363 425.575C939.518 425.332 939.596 425.058 939.596 424.751V423.825C939.52 423.874 939.416 423.919 939.283 423.961C939.155 423.999 939.009 424.035 938.846 424.069C938.683 424.099 938.52 424.128 938.357 424.154C938.194 424.177 938.047 424.198 937.914 424.217C937.63 424.258 937.382 424.325 937.17 424.416C936.958 424.506 936.793 424.63 936.675 424.785C936.558 424.936 936.499 425.126 936.499 425.353C936.499 425.683 936.619 425.935 936.857 426.109C937.1 426.279 937.407 426.364 937.778 426.364ZM943.557 427.87V419.143H945.904V420.666H945.995C946.154 420.124 946.421 419.715 946.796 419.438C947.171 419.158 947.603 419.018 948.091 419.018C948.212 419.018 948.343 419.025 948.483 419.041C948.623 419.056 948.747 419.077 948.853 419.103V421.251C948.739 421.217 948.582 421.186 948.381 421.16C948.18 421.133 947.997 421.12 947.83 421.12C947.474 421.12 947.156 421.198 946.875 421.353C946.599 421.505 946.379 421.717 946.216 421.989C946.057 422.262 945.978 422.577 945.978 422.933V427.87H943.557ZM949.784 427.87V419.143H952.204V427.87H949.784ZM951 418.018C950.64 418.018 950.331 417.899 950.074 417.66C949.82 417.417 949.693 417.128 949.693 416.791C949.693 416.457 949.82 416.171 950.074 415.933C950.331 415.69 950.64 415.569 951 415.569C951.36 415.569 951.667 415.69 951.92 415.933C952.178 416.171 952.307 416.457 952.307 416.791C952.307 417.128 952.178 417.417 951.92 417.66C951.667 417.899 951.36 418.018 951 418.018ZM956.312 428.035C955.755 428.035 955.259 427.938 954.823 427.745C954.388 427.548 954.043 427.258 953.789 426.876C953.539 426.489 953.414 426.008 953.414 425.433C953.414 424.948 953.503 424.541 953.681 424.211C953.859 423.881 954.102 423.616 954.409 423.416C954.715 423.215 955.064 423.063 955.454 422.961C955.848 422.859 956.261 422.787 956.693 422.745C957.2 422.692 957.609 422.643 957.92 422.597C958.231 422.548 958.456 422.476 958.596 422.381C958.736 422.287 958.806 422.147 958.806 421.961V421.927C958.806 421.567 958.693 421.289 958.465 421.092C958.242 420.895 957.924 420.796 957.511 420.796C957.075 420.796 956.729 420.893 956.471 421.086C956.214 421.275 956.043 421.514 955.96 421.802L953.721 421.62C953.835 421.09 954.058 420.631 954.392 420.245C954.725 419.855 955.155 419.556 955.681 419.347C956.212 419.135 956.825 419.029 957.522 419.029C958.007 419.029 958.471 419.086 958.914 419.2C959.361 419.313 959.757 419.489 960.102 419.728C960.45 419.967 960.725 420.274 960.926 420.649C961.126 421.02 961.227 421.465 961.227 421.984V427.87H958.931V426.66H958.863C958.723 426.933 958.536 427.173 958.301 427.381C958.066 427.586 957.784 427.747 957.454 427.864C957.125 427.978 956.744 428.035 956.312 428.035ZM957.005 426.364C957.361 426.364 957.676 426.294 957.948 426.154C958.221 426.01 958.435 425.817 958.59 425.575C958.746 425.332 958.823 425.058 958.823 424.751V423.825C958.748 423.874 958.643 423.919 958.511 423.961C958.382 423.999 958.236 424.035 958.073 424.069C957.911 424.099 957.748 424.128 957.585 424.154C957.422 424.177 957.274 424.198 957.142 424.217C956.858 424.258 956.609 424.325 956.397 424.416C956.185 424.506 956.02 424.63 955.903 424.785C955.786 424.936 955.727 425.126 955.727 425.353C955.727 425.683 955.846 425.935 956.085 426.109C956.327 426.279 956.634 426.364 957.005 426.364ZM967.427 419.143V420.961H962.171V419.143H967.427ZM963.364 417.052H965.785V425.188C965.785 425.412 965.819 425.586 965.887 425.711C965.955 425.832 966.05 425.917 966.171 425.967C966.296 426.016 966.44 426.041 966.603 426.041C966.716 426.041 966.83 426.031 966.944 426.012C967.057 425.989 967.145 425.972 967.205 425.961L967.586 427.762C967.465 427.8 967.294 427.844 967.074 427.893C966.855 427.946 966.588 427.978 966.273 427.989C965.69 428.012 965.179 427.935 964.739 427.756C964.304 427.578 963.965 427.302 963.722 426.927C963.48 426.552 963.36 426.078 963.364 425.506V417.052ZM968.683 427.87V419.143H971.104V427.87H968.683ZM969.899 418.018C969.539 418.018 969.231 417.899 968.973 417.66C968.719 417.417 968.592 417.128 968.592 416.791C968.592 416.457 968.719 416.171 968.973 415.933C969.231 415.69 969.539 415.569 969.899 415.569C970.259 415.569 970.566 415.69 970.82 415.933C971.077 416.171 971.206 416.457 971.206 416.791C971.206 417.128 971.077 417.417 970.82 417.66C970.566 417.899 970.259 418.018 969.899 418.018ZM976.666 428.041C975.783 428.041 975.02 427.853 974.376 427.478C973.736 427.099 973.242 426.573 972.893 425.899C972.545 425.22 972.371 424.435 972.371 423.541C972.371 422.639 972.545 421.851 972.893 421.177C973.242 420.499 973.736 419.972 974.376 419.597C975.02 419.219 975.783 419.029 976.666 419.029C977.549 419.029 978.31 419.219 978.95 419.597C979.594 419.972 980.09 420.499 980.439 421.177C980.787 421.851 980.961 422.639 980.961 423.541C980.961 424.435 980.787 425.22 980.439 425.899C980.09 426.573 979.594 427.099 978.95 427.478C978.31 427.853 977.549 428.041 976.666 428.041ZM976.677 426.166C977.079 426.166 977.414 426.052 977.683 425.825C977.952 425.594 978.155 425.279 978.291 424.881C978.431 424.484 978.501 424.031 978.501 423.524C978.501 423.016 978.431 422.563 978.291 422.166C978.155 421.768 977.952 421.453 977.683 421.222C977.414 420.991 977.079 420.876 976.677 420.876C976.272 420.876 975.931 420.991 975.655 421.222C975.382 421.453 975.175 421.768 975.035 422.166C974.899 422.563 974.831 423.016 974.831 423.524C974.831 424.031 974.899 424.484 975.035 424.881C975.175 425.279 975.382 425.594 975.655 425.825C975.931 426.052 976.272 426.166 976.677 426.166ZM984.636 422.825V427.87H982.215V419.143H984.522V420.683H984.624C984.818 420.175 985.141 419.774 985.596 419.478C986.051 419.179 986.602 419.029 987.249 419.029C987.855 419.029 988.384 419.162 988.835 419.427C989.285 419.692 989.636 420.071 989.886 420.563C990.136 421.052 990.261 421.635 990.261 422.313V427.87H987.84V422.745C987.844 422.211 987.708 421.794 987.431 421.495C987.155 421.192 986.774 421.041 986.289 421.041C985.963 421.041 985.676 421.111 985.426 421.251C985.179 421.391 984.986 421.595 984.846 421.864C984.71 422.13 984.64 422.45 984.636 422.825ZM999.11 421.631L996.894 421.768C996.856 421.578 996.775 421.408 996.65 421.256C996.525 421.101 996.36 420.978 996.155 420.887C995.954 420.792 995.714 420.745 995.434 420.745C995.059 420.745 994.742 420.825 994.485 420.984C994.227 421.139 994.098 421.347 994.098 421.609C994.098 421.817 994.182 421.993 994.348 422.137C994.515 422.281 994.801 422.397 995.206 422.484L996.786 422.802C997.634 422.976 998.267 423.256 998.684 423.643C999.1 424.029 999.309 424.537 999.309 425.166C999.309 425.738 999.14 426.239 998.803 426.671C998.47 427.103 998.011 427.44 997.428 427.683C996.848 427.921 996.18 428.041 995.422 428.041C994.267 428.041 993.347 427.8 992.661 427.319C991.979 426.834 991.579 426.175 991.462 425.342L993.843 425.217C993.915 425.569 994.089 425.838 994.365 426.024C994.642 426.205 994.996 426.296 995.428 426.296C995.852 426.296 996.193 426.215 996.451 426.052C996.712 425.885 996.845 425.671 996.848 425.41C996.845 425.19 996.752 425.01 996.57 424.87C996.388 424.726 996.108 424.616 995.729 424.541L994.218 424.239C993.365 424.069 992.731 423.774 992.314 423.353C991.901 422.933 991.695 422.397 991.695 421.745C991.695 421.185 991.847 420.702 992.15 420.296C992.456 419.891 992.886 419.578 993.439 419.359C993.996 419.139 994.648 419.029 995.394 419.029C996.496 419.029 997.364 419.262 997.996 419.728C998.633 420.194 999.004 420.828 999.11 421.631Z" fill="black"/>
</svg>
