<svg width="1040" height="233" viewBox="0 0 1040 233" fill="none" xmlns="http://www.w3.org/2000/svg">
<path d="M48.6 75L41.76 56.46H16.92L10.08 75H0L24.39 10.47H34.47L58.77 75H48.6ZM39.06 48L32.58 29.91C32.34 29.25 32.01 28.26 31.59 26.94C31.17 25.62 30.75 24.24 30.33 22.8C29.91 21.36 29.58 20.19 29.34 19.29C28.86 21.15 28.32 23.13 27.72 25.23C27.12 27.33 26.64 28.89 26.28 29.91L19.8 48H39.06ZM85.1667 25.59C91.2267 25.59 95.7567 26.94 98.7567 29.64C101.817 32.28 103.347 36.45 103.347 42.15V75H96.5967L94.7067 68.25H94.3467C92.2467 70.89 90.0267 72.84 87.6867 74.1C85.4067 75.3 82.2267 75.9 78.1467 75.9C73.7667 75.9 70.1367 74.73 67.2567 72.39C64.3767 69.99 62.9367 66.27 62.9367 61.23C62.9367 56.25 64.7967 52.5 68.5167 49.98C72.2967 47.4 78.0267 45.99 85.7067 45.75L93.9867 45.48V42.78C93.9867 39.24 93.1767 36.75 91.5567 35.31C89.9367 33.81 87.6567 33.06 84.7167 33.06C82.2567 33.06 79.8867 33.42 77.6067 34.14C75.3267 34.86 73.1367 35.73 71.0367 36.75L67.9767 29.82C70.2567 28.62 72.8667 27.63 75.8067 26.85C78.8067 26.01 81.9267 25.59 85.1667 25.59ZM93.8967 51.69L87.4167 51.87C81.8967 52.11 78.0567 53.04 75.8967 54.66C73.7967 56.28 72.7467 58.5 72.7467 61.32C72.7467 63.84 73.4967 65.67 74.9967 66.81C76.4967 67.95 78.4467 68.52 80.8467 68.52C84.5667 68.52 87.6567 67.47 90.1167 65.37C92.6367 63.27 93.8967 60.12 93.8967 55.92V51.69ZM193.435 0.569998H200.995V82.02H193.435V0.569998ZM198.925 33.6H213.955V39.81H198.925V33.6ZM172.645 9.39H179.935C179.935 32.52 169.315 53.4 143.035 66.63L138.895 60.87C161.395 49.44 172.645 32.07 172.645 10.56V9.39ZM142.675 9.39H176.515V15.51H142.675V9.39ZM281.718 33.06H296.748V39.36H281.718V33.06ZM276.228 0.569998H283.788V82.02H276.228V0.569998ZM224.388 8.58H231.858V58.98H224.388V8.58ZM224.388 55.11H230.868C242.928 55.11 255.258 54.3 268.668 51.51L269.568 57.72C255.708 60.6 243.198 61.41 230.868 61.41H224.388V55.11ZM359.021 0.569998H366.581V82.11H359.021V0.569998ZM364.781 32.7H379.901V39H364.781V32.7ZM307.451 55.56H313.841C328.871 55.56 339.401 55.02 351.551 52.77L352.361 59.07C339.851 61.41 329.141 61.86 313.841 61.86H307.451V55.56ZM307.451 8.49H345.251V14.61H314.831V58.35H307.451V8.49Z" fill="#2C3543"/>
<path d="M10.3364 128H7.80143L3.28643 119.6H3.22643C3.23643 119.82 3.24643 120.055 3.25643 120.305C3.26643 120.545 3.27643 120.795 3.28643 121.055C3.30643 121.305 3.32143 121.56 3.33143 121.82C3.34143 122.08 3.34643 122.34 3.34643 122.6V128H1.54643V117.29H4.06643L8.56643 125.63H8.62643C8.61643 125.43 8.60643 125.215 8.59643 124.985C8.58643 124.745 8.57643 124.5 8.56643 124.25C8.55643 124 8.54643 123.745 8.53643 123.485C8.52643 123.225 8.52143 122.975 8.52143 122.735V117.29H10.3364V128ZM19.265 123.92C19.265 124.6 19.18 125.2 19.01 125.72C18.84 126.24 18.59 126.685 18.26 127.055C17.94 127.415 17.55 127.69 17.09 127.88C16.63 128.06 16.115 128.15 15.545 128.15C15.015 128.15 14.52 128.06 14.06 127.88C13.61 127.69 13.22 127.415 12.89 127.055C12.57 126.685 12.32 126.24 12.14 125.72C11.96 125.2 11.87 124.6 11.87 123.92C11.87 123.02 12.015 122.26 12.305 121.64C12.605 121.01 13.035 120.535 13.595 120.215C14.155 119.885 14.82 119.72 15.59 119.72C16.31 119.72 16.945 119.885 17.495 120.215C18.045 120.535 18.475 121.01 18.785 121.64C19.105 122.26 19.265 123.02 19.265 123.92ZM13.895 123.92C13.895 124.49 13.955 124.98 14.075 125.39C14.195 125.79 14.375 126.095 14.615 126.305C14.865 126.515 15.185 126.62 15.575 126.62C15.965 126.62 16.28 126.515 16.52 126.305C16.77 126.095 16.95 125.79 17.06 125.39C17.18 124.98 17.24 124.49 17.24 123.92C17.24 123.34 17.18 122.855 17.06 122.465C16.94 122.065 16.755 121.765 16.505 121.565C16.265 121.355 15.95 121.25 15.56 121.25C14.97 121.25 14.545 121.48 14.285 121.94C14.025 122.4 13.895 123.06 13.895 123.92ZM23.7855 126.635C24.0055 126.635 24.2155 126.615 24.4155 126.575C24.6255 126.525 24.8205 126.47 25.0005 126.41V127.82C24.7905 127.91 24.5355 127.985 24.2355 128.045C23.9355 128.115 23.6005 128.15 23.2305 128.15C22.7705 128.15 22.3605 128.075 22.0005 127.925C21.6405 127.765 21.3555 127.495 21.1455 127.115C20.9455 126.735 20.8455 126.205 20.8455 125.525V121.295H19.8255V120.47L20.9655 119.81L21.5655 118.085H22.8255V119.87H24.9255V121.295H22.8255V125.51C22.8255 125.89 22.9105 126.175 23.0805 126.365C23.2605 126.545 23.4955 126.635 23.7855 126.635ZM33.0695 123.92C33.0695 124.6 32.9845 125.2 32.8145 125.72C32.6445 126.24 32.3945 126.685 32.0645 127.055C31.7445 127.415 31.3545 127.69 30.8945 127.88C30.4345 128.06 29.9195 128.15 29.3495 128.15C28.8195 128.15 28.3245 128.06 27.8645 127.88C27.4145 127.69 27.0245 127.415 26.6945 127.055C26.3745 126.685 26.1245 126.24 25.9445 125.72C25.7645 125.2 25.6745 124.6 25.6745 123.92C25.6745 123.02 25.8195 122.26 26.1095 121.64C26.4095 121.01 26.8395 120.535 27.3995 120.215C27.9595 119.885 28.6245 119.72 29.3945 119.72C30.1145 119.72 30.7495 119.885 31.2995 120.215C31.8495 120.535 32.2795 121.01 32.5895 121.64C32.9095 122.26 33.0695 123.02 33.0695 123.92ZM27.6995 123.92C27.6995 124.49 27.7595 124.98 27.8795 125.39C27.9995 125.79 28.1795 126.095 28.4195 126.305C28.6695 126.515 28.9895 126.62 29.3795 126.62C29.7695 126.62 30.0845 126.515 30.3245 126.305C30.5745 126.095 30.7545 125.79 30.8645 125.39C30.9845 124.98 31.0445 124.49 31.0445 123.92C31.0445 123.34 30.9845 122.855 30.8645 122.465C30.7445 122.065 30.5595 121.765 30.3095 121.565C30.0695 121.355 29.7545 121.25 29.3645 121.25C28.7745 121.25 28.3495 121.48 28.0895 121.94C27.8295 122.4 27.6995 123.06 27.6995 123.92ZM43.8971 125.075C43.8971 125.705 43.7521 126.25 43.4621 126.71C43.1821 127.17 42.7621 127.525 42.2021 127.775C41.6521 128.025 40.9721 128.15 40.1621 128.15C39.7621 128.15 39.3921 128.125 39.0521 128.075C38.7121 128.035 38.3921 127.97 38.0921 127.88C37.8021 127.79 37.5221 127.68 37.2521 127.55V125.75C37.7021 125.95 38.1871 126.135 38.7071 126.305C39.2371 126.465 39.7521 126.545 40.2521 126.545C40.6321 126.545 40.9421 126.49 41.1821 126.38C41.4221 126.26 41.5971 126.1 41.7071 125.9C41.8271 125.69 41.8871 125.45 41.8871 125.18C41.8871 124.88 41.8121 124.625 41.6621 124.415C41.5221 124.205 41.3021 124.01 41.0021 123.83C40.7021 123.65 40.3121 123.465 39.8321 123.275C39.4921 123.125 39.1671 122.965 38.8571 122.795C38.5571 122.615 38.2921 122.4 38.0621 122.15C37.8421 121.9 37.6671 121.605 37.5371 121.265C37.4171 120.925 37.3571 120.525 37.3571 120.065C37.3571 119.455 37.5021 118.93 37.7921 118.49C38.0821 118.05 38.4871 117.715 39.0071 117.485C39.5271 117.255 40.1321 117.14 40.8221 117.14C41.4021 117.14 41.9321 117.2 42.4121 117.32C42.9021 117.44 43.3621 117.61 43.7921 117.83L43.1621 119.375C42.7521 119.185 42.3471 119.035 41.9471 118.925C41.5571 118.815 41.1621 118.76 40.7621 118.76C40.4521 118.76 40.1921 118.815 39.9821 118.925C39.7721 119.025 39.6121 119.17 39.5021 119.36C39.4021 119.55 39.3521 119.77 39.3521 120.02C39.3521 120.31 39.4221 120.555 39.5621 120.755C39.7021 120.955 39.9221 121.145 40.2221 121.325C40.5221 121.495 40.9121 121.695 41.3921 121.925C41.9221 122.165 42.3721 122.42 42.7421 122.69C43.1221 122.96 43.4071 123.285 43.5971 123.665C43.7971 124.045 43.8971 124.515 43.8971 125.075ZM48.3933 119.72C49.3733 119.72 50.1233 119.95 50.6433 120.41C51.1633 120.86 51.4233 121.57 51.4233 122.54V128H50.0283L49.6383 126.875H49.5783C49.3583 127.165 49.1333 127.41 48.9033 127.61C48.6733 127.8 48.4083 127.935 48.1083 128.015C47.8083 128.105 47.4483 128.15 47.0283 128.15C46.5783 128.15 46.1733 128.06 45.8133 127.88C45.4533 127.7 45.1683 127.425 44.9583 127.055C44.7483 126.675 44.6433 126.2 44.6433 125.63C44.6433 124.79 44.9333 124.16 45.5133 123.74C46.0933 123.31 46.9633 123.075 48.1233 123.035L49.4283 122.99V122.585C49.4283 122.065 49.3183 121.695 49.0983 121.475C48.8783 121.255 48.5783 121.145 48.1983 121.145C47.8383 121.145 47.4733 121.205 47.1033 121.325C46.7433 121.445 46.3883 121.585 46.0383 121.745L45.4233 120.425C45.8333 120.215 46.2883 120.045 46.7883 119.915C47.2883 119.785 47.8233 119.72 48.3933 119.72ZM48.5883 124.19C47.8783 124.22 47.3833 124.365 47.1033 124.625C46.8233 124.875 46.6833 125.215 46.6833 125.645C46.6833 126.025 46.7783 126.3 46.9683 126.47C47.1683 126.64 47.4283 126.725 47.7483 126.725C48.2183 126.725 48.6183 126.57 48.9483 126.26C49.2783 125.94 49.4433 125.47 49.4433 124.85V124.16L48.5883 124.19ZM57.4069 119.72C58.2569 119.72 58.9269 119.955 59.4169 120.425C59.9069 120.895 60.1519 121.655 60.1519 122.705V128H58.1569V123.08C58.1569 122.47 58.0519 122.015 57.8419 121.715C57.6319 121.405 57.3019 121.25 56.8519 121.25C56.1819 121.25 55.7269 121.49 55.4869 121.97C55.2469 122.44 55.1269 123.125 55.1269 124.025V128H53.1319V119.87H54.6619L54.9469 120.935H55.0219C55.2019 120.655 55.4119 120.425 55.6519 120.245C55.8919 120.065 56.1619 119.935 56.4619 119.855C56.7619 119.765 57.0769 119.72 57.4069 119.72ZM67.2275 125.645C67.2275 126.185 67.1075 126.645 66.8675 127.025C66.6275 127.395 66.2725 127.675 65.8025 127.865C65.3325 128.055 64.7425 128.15 64.0325 128.15C63.4925 128.15 63.0225 128.11 62.6225 128.03C62.2225 127.95 61.8375 127.825 61.4675 127.655V126.05C61.8675 126.24 62.2975 126.4 62.7575 126.53C63.2275 126.66 63.6525 126.725 64.0325 126.725C64.4825 126.725 64.8075 126.645 65.0075 126.485C65.2075 126.325 65.3075 126.11 65.3075 125.84C65.3075 125.68 65.2625 125.535 65.1725 125.405C65.0925 125.275 64.9225 125.14 64.6625 125C64.4125 124.85 64.0475 124.665 63.5675 124.445C63.0975 124.235 62.7075 124.025 62.3975 123.815C62.0875 123.605 61.8525 123.355 61.6925 123.065C61.5325 122.765 61.4525 122.39 61.4525 121.94C61.4525 121.21 61.7275 120.66 62.2775 120.29C62.8375 119.91 63.5675 119.72 64.4675 119.72C64.9575 119.72 65.4125 119.77 65.8325 119.87C66.2625 119.96 66.6925 120.11 67.1225 120.32L66.5375 121.715C66.2975 121.605 66.0525 121.51 65.8025 121.43C65.5625 121.34 65.3275 121.27 65.0975 121.22C64.8775 121.17 64.6575 121.145 64.4375 121.145C64.0875 121.145 63.8225 121.21 63.6425 121.34C63.4625 121.46 63.3725 121.635 63.3725 121.865C63.3725 122.025 63.4175 122.17 63.5075 122.3C63.5975 122.42 63.7675 122.545 64.0175 122.675C64.2675 122.805 64.6225 122.97 65.0825 123.17C65.5425 123.35 65.9325 123.545 66.2525 123.755C66.5725 123.955 66.8125 124.205 66.9725 124.505C67.1425 124.805 67.2275 125.185 67.2275 125.645ZM79.9112 128H77.6162L74.8562 123.26L73.9412 124.055V128H71.9312V117.29H73.9412V122.33C74.1212 122.08 74.3062 121.825 74.4962 121.565C74.6962 121.305 74.8962 121.045 75.0962 120.785L77.6162 117.29H79.8662L76.3112 122L79.9112 128ZM83.7594 117.29C84.6494 117.29 85.3844 117.405 85.9644 117.635C86.5444 117.865 86.9744 118.215 87.2544 118.685C87.5344 119.145 87.6744 119.73 87.6744 120.44C87.6744 120.96 87.5894 121.405 87.4194 121.775C87.2494 122.145 87.0194 122.455 86.7294 122.705C86.4494 122.945 86.1444 123.14 85.8144 123.29L88.6944 128H86.4144L84.0894 123.77H82.7844V128H80.7744V117.29H83.7594ZM83.6694 118.895H82.7844V122.195H83.6994C84.1294 122.195 84.4844 122.13 84.7644 122C85.0544 121.87 85.2694 121.68 85.4094 121.43C85.5594 121.18 85.6344 120.87 85.6344 120.5C85.6344 120.11 85.5644 119.8 85.4244 119.57C85.2844 119.33 85.0694 119.16 84.7794 119.06C84.4894 118.95 84.1194 118.895 83.6694 118.895Z" fill="#2C3543"/>
<path d="M463 0V233" stroke="#2C3543" stroke-opacity="0.5" stroke-dasharray="2 2"/>
<path d="M547.245 7.29C548.135 7.29 548.87 7.405 549.45 7.635C550.03 7.865 550.46 8.215 550.74 8.685C551.02 9.145 551.16 9.73 551.16 10.44C551.16 10.96 551.075 11.405 550.905 11.775C550.735 12.145 550.505 12.455 550.215 12.705C549.935 12.945 549.63 13.14 549.3 13.29L552.18 18H549.9L547.575 13.77H546.27V18H544.26V7.29H547.245ZM547.155 8.895H546.27V12.195H547.185C547.615 12.195 547.97 12.13 548.25 12C548.54 11.87 548.755 11.68 548.895 11.43C549.045 11.18 549.12 10.87 549.12 10.5C549.12 10.11 549.05 9.8 548.91 9.57C548.77 9.33 548.555 9.16 548.265 9.06C547.975 8.95 547.605 8.895 547.155 8.895ZM556.468 9.72C557.168 9.72 557.768 9.87 558.268 10.17C558.778 10.46 559.173 10.88 559.453 11.43C559.733 11.97 559.873 12.63 559.873 13.41V14.37H554.893C554.913 15.11 555.093 15.685 555.433 16.095C555.783 16.495 556.273 16.695 556.903 16.695C557.403 16.695 557.848 16.645 558.238 16.545C558.628 16.435 559.033 16.28 559.453 16.08V17.595C559.073 17.785 558.678 17.925 558.268 18.015C557.858 18.105 557.353 18.15 556.753 18.15C555.993 18.15 555.318 18 554.728 17.7C554.148 17.39 553.693 16.925 553.363 16.305C553.033 15.685 552.868 14.915 552.868 13.995C552.868 13.065 553.018 12.285 553.318 11.655C553.618 11.015 554.038 10.535 554.578 10.215C555.128 9.885 555.758 9.72 556.468 9.72ZM556.498 11.115C556.048 11.115 555.683 11.28 555.403 11.61C555.133 11.93 554.973 12.41 554.923 13.05H557.983C557.983 12.67 557.928 12.335 557.818 12.045C557.708 11.755 557.543 11.53 557.323 11.37C557.113 11.2 556.838 11.115 556.498 11.115ZM564.138 9.72C564.638 9.72 565.073 9.82 565.443 10.02C565.813 10.22 566.123 10.52 566.373 10.92H566.433L566.613 9.87H568.293V18.06C568.293 18.83 568.153 19.475 567.873 19.995C567.593 20.525 567.173 20.925 566.613 21.195C566.063 21.465 565.363 21.6 564.513 21.6C563.943 21.6 563.423 21.56 562.953 21.48C562.493 21.41 562.053 21.285 561.633 21.105V19.545C561.923 19.675 562.218 19.785 562.518 19.875C562.828 19.975 563.148 20.05 563.478 20.1C563.808 20.15 564.158 20.175 564.528 20.175C565.108 20.175 565.548 20 565.848 19.65C566.158 19.3 566.313 18.8 566.313 18.15V17.94C566.313 17.79 566.318 17.615 566.328 17.415C566.348 17.215 566.363 17.055 566.373 16.935H566.313C566.073 17.355 565.773 17.665 565.413 17.865C565.053 18.055 564.618 18.15 564.108 18.15C563.198 18.15 562.478 17.78 561.948 17.04C561.428 16.3 561.168 15.27 561.168 13.95C561.168 13.06 561.288 12.3 561.528 11.67C561.768 11.04 562.108 10.56 562.548 10.23C562.998 9.89 563.528 9.72 564.138 9.72ZM564.738 11.265C564.398 11.265 564.113 11.37 563.883 11.58C563.663 11.78 563.493 12.08 563.373 12.48C563.253 12.88 563.193 13.38 563.193 13.98C563.193 14.86 563.323 15.525 563.583 15.975C563.843 16.425 564.233 16.65 564.753 16.65C565.053 16.65 565.308 16.61 565.518 16.53C565.728 16.44 565.898 16.3 566.028 16.11C566.158 15.91 566.258 15.66 566.328 15.36C566.398 15.05 566.433 14.68 566.433 14.25V13.965C566.433 13.315 566.373 12.795 566.253 12.405C566.143 12.005 565.963 11.715 565.713 11.535C565.463 11.355 565.138 11.265 564.738 11.265ZM577.404 9.87V18H575.874L575.619 16.95H575.514C575.354 17.23 575.149 17.46 574.899 17.64C574.649 17.81 574.374 17.935 574.074 18.015C573.774 18.105 573.464 18.15 573.144 18.15C572.584 18.15 572.099 18.045 571.689 17.835C571.279 17.625 570.959 17.305 570.729 16.875C570.509 16.435 570.399 15.87 570.399 15.18V9.87H572.394V14.805C572.394 15.405 572.494 15.86 572.694 16.17C572.904 16.47 573.234 16.62 573.684 16.62C574.134 16.62 574.484 16.515 574.734 16.305C574.994 16.085 575.174 15.77 575.274 15.36C575.374 14.95 575.424 14.445 575.424 13.845V9.87H577.404ZM581.573 18H579.578V6.6H581.573V18ZM586.988 9.72C587.968 9.72 588.718 9.95 589.238 10.41C589.758 10.86 590.018 11.57 590.018 12.54V18H588.623L588.233 16.875H588.173C587.953 17.165 587.728 17.41 587.498 17.61C587.268 17.8 587.003 17.935 586.703 18.015C586.403 18.105 586.043 18.15 585.623 18.15C585.173 18.15 584.768 18.06 584.408 17.88C584.048 17.7 583.763 17.425 583.553 17.055C583.343 16.675 583.238 16.2 583.238 15.63C583.238 14.79 583.528 14.16 584.108 13.74C584.688 13.31 585.558 13.075 586.718 13.035L588.023 12.99V12.585C588.023 12.065 587.913 11.695 587.693 11.475C587.473 11.255 587.173 11.145 586.793 11.145C586.433 11.145 586.068 11.205 585.698 11.325C585.338 11.445 584.983 11.585 584.633 11.745L584.018 10.425C584.428 10.215 584.883 10.045 585.383 9.915C585.883 9.785 586.418 9.72 586.988 9.72ZM587.183 14.19C586.473 14.22 585.978 14.365 585.698 14.625C585.418 14.875 585.278 15.215 585.278 15.645C585.278 16.025 585.373 16.3 585.563 16.47C585.763 16.64 586.023 16.725 586.343 16.725C586.813 16.725 587.213 16.57 587.543 16.26C587.873 15.94 588.038 15.47 588.038 14.85V14.16L587.183 14.19ZM596.275 9.72C596.415 9.72 596.56 9.725 596.71 9.735C596.86 9.745 596.985 9.765 597.085 9.795L596.905 11.55C596.805 11.53 596.685 11.515 596.545 11.505C596.415 11.485 596.275 11.475 596.125 11.475C595.875 11.475 595.63 11.525 595.39 11.625C595.15 11.715 594.935 11.855 594.745 12.045C594.555 12.225 594.4 12.46 594.28 12.75C594.17 13.04 594.115 13.385 594.115 13.785V18H592.12V9.87H593.65L593.92 11.28H594.025C594.175 10.99 594.36 10.73 594.58 10.5C594.81 10.26 595.065 10.07 595.345 9.93C595.635 9.79 595.945 9.72 596.275 9.72Z" fill="#2C3543"/>
<path d="M671.175 16L669.885 12.685H665.64L664.365 16H663L667.185 5.245H668.4L672.57 16H671.175ZM669.48 11.485L668.28 8.245C668.25 8.165 668.2 8.02 668.13 7.81C668.06 7.6 667.99 7.385 667.92 7.165C667.86 6.935 667.81 6.76 667.77 6.64C667.69 6.95 667.605 7.255 667.515 7.555C667.435 7.845 667.365 8.075 667.305 8.245L666.09 11.485H669.48ZM676.894 7.825C677.874 7.825 678.599 8.04 679.069 8.47C679.539 8.9 679.774 9.585 679.774 10.525V16H678.814L678.559 14.86H678.499C678.149 15.3 677.779 15.625 677.389 15.835C676.999 16.045 676.469 16.15 675.799 16.15C675.069 16.15 674.464 15.96 673.984 15.58C673.504 15.19 673.264 14.585 673.264 13.765C673.264 12.965 673.579 12.35 674.209 11.92C674.839 11.48 675.809 11.24 677.119 11.2L678.484 11.155V10.675C678.484 10.005 678.339 9.54 678.049 9.28C677.759 9.02 677.349 8.89 676.819 8.89C676.399 8.89 675.999 8.955 675.619 9.085C675.239 9.205 674.884 9.345 674.554 9.505L674.149 8.515C674.499 8.325 674.914 8.165 675.394 8.035C675.874 7.895 676.374 7.825 676.894 7.825ZM678.469 12.07L677.284 12.115C676.284 12.155 675.589 12.315 675.199 12.595C674.819 12.875 674.629 13.27 674.629 13.78C674.629 14.23 674.764 14.56 675.034 14.77C675.314 14.98 675.669 15.085 676.099 15.085C676.769 15.085 677.329 14.9 677.779 14.53C678.239 14.15 678.469 13.57 678.469 12.79V12.07ZM686.322 5.29H689.382C690.712 5.29 691.722 5.49 692.412 5.89C693.102 6.29 693.447 6.975 693.447 7.945C693.447 8.575 693.272 9.1 692.922 9.52C692.572 9.93 692.067 10.195 691.407 10.315V10.39C691.857 10.47 692.262 10.605 692.622 10.795C692.992 10.985 693.282 11.255 693.492 11.605C693.702 11.955 693.807 12.405 693.807 12.955C693.807 13.925 693.472 14.675 692.802 15.205C692.142 15.735 691.237 16 690.087 16H686.322V5.29ZM687.672 9.85H689.652C690.562 9.85 691.187 9.705 691.527 9.415C691.877 9.115 692.052 8.675 692.052 8.095C692.052 7.505 691.842 7.085 691.422 6.835C691.012 6.575 690.352 6.445 689.442 6.445H687.672V9.85ZM687.672 10.975V14.86H689.832C690.782 14.86 691.442 14.675 691.812 14.305C692.182 13.935 692.367 13.45 692.367 12.85C692.367 12.29 692.172 11.84 691.782 11.5C691.402 11.15 690.717 10.975 689.727 10.975H687.672ZM697.212 4.6V7.375C697.212 7.715 697.202 8.035 697.182 8.335C697.172 8.625 697.157 8.855 697.137 9.025H697.212C697.442 8.685 697.757 8.4 698.157 8.17C698.557 7.94 699.072 7.825 699.702 7.825C700.702 7.825 701.502 8.175 702.102 8.875C702.712 9.565 703.017 10.6 703.017 11.98C703.017 13.36 702.712 14.4 702.102 15.1C701.492 15.8 700.692 16.15 699.702 16.15C699.072 16.15 698.557 16.035 698.157 15.805C697.757 15.575 697.442 15.3 697.212 14.98H697.107L696.837 16H695.892V4.6H697.212ZM699.477 8.92C698.617 8.92 698.022 9.165 697.692 9.655C697.372 10.145 697.212 10.905 697.212 11.935V11.995C697.212 12.985 697.372 13.745 697.692 14.275C698.022 14.795 698.627 15.055 699.507 15.055C700.227 15.055 700.762 14.79 701.112 14.26C701.472 13.73 701.652 12.965 701.652 11.965C701.652 9.935 700.927 8.92 699.477 8.92ZM713.775 6.325C712.625 6.325 711.72 6.71 711.06 7.48C710.4 8.25 710.07 9.305 710.07 10.645C710.07 11.975 710.375 13.03 710.985 13.81C711.605 14.58 712.53 14.965 713.76 14.965C714.22 14.965 714.66 14.925 715.08 14.845C715.5 14.765 715.915 14.665 716.325 14.545V15.715C715.925 15.865 715.51 15.975 715.08 16.045C714.66 16.115 714.155 16.15 713.565 16.15C712.475 16.15 711.565 15.925 710.835 15.475C710.105 15.025 709.555 14.385 709.185 13.555C708.825 12.725 708.645 11.75 708.645 10.63C708.645 9.55 708.84 8.6 709.23 7.78C709.63 6.95 710.215 6.305 710.985 5.845C711.755 5.375 712.69 5.14 713.79 5.14C714.92 5.14 715.905 5.35 716.745 5.77L716.205 6.91C715.875 6.76 715.505 6.625 715.095 6.505C714.695 6.385 714.255 6.325 713.775 6.325ZM721.701 16.15C720.981 16.15 720.346 16.005 719.796 15.715C719.246 15.425 718.811 14.975 718.491 14.365C718.181 13.755 718.026 12.975 718.026 12.025C718.026 11.035 718.186 10.23 718.506 9.61C718.836 8.99 719.286 8.535 719.856 8.245C720.426 7.955 721.071 7.81 721.791 7.81C722.191 7.81 722.581 7.855 722.961 7.945C723.351 8.025 723.666 8.125 723.906 8.245L723.501 9.34C723.261 9.25 722.981 9.165 722.661 9.085C722.341 9.005 722.041 8.965 721.761 8.965C720.181 8.965 719.391 9.98 719.391 12.01C719.391 12.98 719.581 13.725 719.961 14.245C720.351 14.755 720.926 15.01 721.686 15.01C722.116 15.01 722.501 14.965 722.841 14.875C723.181 14.785 723.491 14.675 723.771 14.545V15.715C723.501 15.855 723.201 15.96 722.871 16.03C722.551 16.11 722.161 16.15 721.701 16.15ZM738.328 10.54C738.328 12.35 737.833 13.715 736.843 14.635C735.863 15.545 734.493 16 732.733 16H729.748V5.29H733.048C734.118 5.29 735.048 5.49 735.838 5.89C736.638 6.29 737.253 6.88 737.683 7.66C738.113 8.44 738.328 9.4 738.328 10.54ZM736.903 10.585C736.903 9.155 736.548 8.11 735.838 7.45C735.138 6.78 734.143 6.445 732.853 6.445H731.098V14.845H732.553C735.453 14.845 736.903 13.425 736.903 10.585ZM743.369 16.15C742.369 16.15 741.569 15.805 740.969 15.115C740.369 14.415 740.069 13.375 740.069 11.995C740.069 10.615 740.369 9.575 740.969 8.875C741.579 8.165 742.384 7.81 743.384 7.81C744.004 7.81 744.509 7.925 744.899 8.155C745.299 8.385 745.624 8.665 745.874 8.995H745.964C745.944 8.865 745.924 8.675 745.904 8.425C745.884 8.165 745.874 7.96 745.874 7.81V4.6H747.194V16H746.129L745.934 14.92H745.874C745.634 15.26 745.314 15.55 744.914 15.79C744.514 16.03 743.999 16.15 743.369 16.15ZM743.579 15.055C744.429 15.055 745.024 14.825 745.364 14.365C745.714 13.895 745.889 13.19 745.889 12.25V12.01C745.889 11.01 745.724 10.245 745.394 9.715C745.064 9.175 744.454 8.905 743.564 8.905C742.854 8.905 742.319 9.19 741.959 9.76C741.609 10.32 741.434 11.075 741.434 12.025C741.434 12.985 741.609 13.73 741.959 14.26C742.319 14.79 742.859 15.055 743.579 15.055ZM759.797 16H753.812V5.29H759.797V6.475H755.162V9.82H759.527V10.99H755.162V14.815H759.797V16ZM765.066 7.81C765.746 7.81 766.336 7.96 766.836 8.26C767.336 8.56 767.716 8.985 767.976 9.535C768.246 10.075 768.381 10.71 768.381 11.44V12.235H762.876C762.896 13.145 763.126 13.84 763.566 14.32C764.016 14.79 764.641 15.025 765.441 15.025C765.951 15.025 766.401 14.98 766.791 14.89C767.191 14.79 767.601 14.65 768.021 14.47V15.625C767.611 15.805 767.206 15.935 766.806 16.015C766.406 16.105 765.931 16.15 765.381 16.15C764.611 16.15 763.936 15.995 763.356 15.685C762.776 15.375 762.321 14.915 761.991 14.305C761.671 13.695 761.511 12.94 761.511 12.04C761.511 11.16 761.656 10.405 761.946 9.775C762.246 9.145 762.661 8.66 763.191 8.32C763.731 7.98 764.356 7.81 765.066 7.81ZM765.051 8.89C764.421 8.89 763.921 9.095 763.551 9.505C763.191 9.905 762.976 10.465 762.906 11.185H767.001C766.991 10.505 766.831 9.955 766.521 9.535C766.211 9.105 765.721 8.89 765.051 8.89ZM775.842 16H774.492V5.29H780.477V6.475H775.842V10.27H780.192V11.455H775.842V16ZM785.789 8.98H783.764V16H782.444V8.98H781.034V8.365L782.444 7.915V7.45C782.444 6.41 782.669 5.665 783.119 5.215C783.579 4.755 784.224 4.525 785.054 4.525C785.364 4.525 785.654 4.555 785.924 4.615C786.194 4.665 786.424 4.725 786.614 4.795L786.269 5.83C786.109 5.78 785.924 5.73 785.714 5.68C785.504 5.63 785.289 5.605 785.069 5.605C784.629 5.605 784.299 5.755 784.079 6.055C783.869 6.345 783.764 6.805 783.764 7.435V7.96H785.789V8.98ZM795.955 10.345H799.66V15.595C799.08 15.785 798.495 15.925 797.905 16.015C797.315 16.105 796.645 16.15 795.895 16.15C794.785 16.15 793.85 15.93 793.09 15.49C792.33 15.04 791.75 14.405 791.35 13.585C790.96 12.755 790.765 11.775 790.765 10.645C790.765 9.535 790.98 8.57 791.41 7.75C791.85 6.92 792.485 6.28 793.315 5.83C794.145 5.37 795.145 5.14 796.315 5.14C796.915 5.14 797.48 5.195 798.01 5.305C798.55 5.415 799.05 5.57 799.51 5.77L799 6.94C798.62 6.78 798.19 6.64 797.71 6.52C797.24 6.39 796.75 6.325 796.24 6.325C794.96 6.325 793.96 6.715 793.24 7.495C792.53 8.265 792.175 9.315 792.175 10.645C792.175 11.495 792.31 12.25 792.58 12.91C792.86 13.56 793.295 14.07 793.885 14.44C794.475 14.8 795.25 14.98 796.21 14.98C796.68 14.98 797.08 14.955 797.41 14.905C797.74 14.855 798.04 14.795 798.31 14.725V11.545H795.955V10.345ZM804.882 7.81C805.412 7.81 805.887 7.91 806.307 8.11C806.737 8.31 807.102 8.615 807.402 9.025H807.477L807.657 7.96H808.707V16.135C808.707 17.285 808.412 18.15 807.822 18.73C807.242 19.31 806.337 19.6 805.107 19.6C803.927 19.6 802.962 19.43 802.212 19.09V17.875C803.002 18.295 803.992 18.505 805.182 18.505C805.872 18.505 806.412 18.3 806.802 17.89C807.202 17.49 807.402 16.94 807.402 16.24V15.925C807.402 15.805 807.407 15.635 807.417 15.415C807.427 15.185 807.437 15.025 807.447 14.935H807.387C806.847 15.745 806.017 16.15 804.897 16.15C803.857 16.15 803.042 15.785 802.452 15.055C801.872 14.325 801.582 13.305 801.582 11.995C801.582 10.715 801.872 9.7 802.452 8.95C803.042 8.19 803.852 7.81 804.882 7.81ZM805.062 8.92C804.392 8.92 803.872 9.19 803.502 9.73C803.132 10.26 802.947 11.02 802.947 12.01C802.947 13 803.127 13.76 803.487 14.29C803.847 14.81 804.382 15.07 805.092 15.07C805.902 15.07 806.492 14.855 806.862 14.425C807.232 13.985 807.417 13.28 807.417 12.31V11.995C807.417 10.905 807.227 10.12 806.847 9.64C806.467 9.16 805.872 8.92 805.062 8.92ZM823.515 16H822.165V11.005H816.675V16H815.325V5.29H816.675V9.82H822.165V5.29H823.515V16ZM827.577 4.6V7.945C827.577 8.345 827.552 8.72 827.502 9.07H827.592C827.852 8.66 828.202 8.35 828.642 8.14C829.092 7.93 829.577 7.825 830.097 7.825C831.067 7.825 831.797 8.06 832.287 8.53C832.787 8.99 833.037 9.735 833.037 10.765V16H831.732V10.855C831.732 9.565 831.132 8.92 829.932 8.92C829.032 8.92 828.412 9.175 828.072 9.685C827.742 10.185 827.577 10.905 827.577 11.845V16H826.257V4.6H827.577ZM842.609 16H838.739V15.22L839.999 14.935V6.37L838.739 6.07V5.29H842.609V6.07L841.349 6.37V14.935L842.609 15.22V16ZM845.166 4.945C845.366 4.945 845.541 5.015 845.691 5.155C845.851 5.285 845.931 5.495 845.931 5.785C845.931 6.075 845.851 6.29 845.691 6.43C845.541 6.56 845.366 6.625 845.166 6.625C844.946 6.625 844.761 6.56 844.611 6.43C844.461 6.29 844.386 6.075 844.386 5.785C844.386 5.495 844.461 5.285 844.611 5.155C844.761 5.015 844.946 4.945 845.166 4.945ZM845.811 7.96V16H844.491V7.96H845.811ZM850.908 18.85C850.668 18.85 850.458 18.83 850.278 18.79C850.098 18.76 849.938 18.715 849.798 18.655V17.515C849.958 17.565 850.128 17.6 850.308 17.62C850.488 17.65 850.678 17.665 850.878 17.665C851.128 17.665 851.363 17.615 851.583 17.515C851.813 17.415 851.998 17.24 852.138 16.99C852.278 16.75 852.348 16.4 852.348 15.94V5.29H853.698V15.835C853.698 16.865 853.443 17.625 852.933 18.115C852.423 18.605 851.748 18.85 850.908 18.85ZM856.233 5.785C856.233 5.495 856.308 5.285 856.458 5.155C856.608 5.015 856.793 4.945 857.013 4.945C857.213 4.945 857.388 5.015 857.538 5.155C857.698 5.285 857.778 5.495 857.778 5.785C857.778 6.075 857.698 6.29 857.538 6.43C857.388 6.56 857.213 6.625 857.013 6.625C856.793 6.625 856.608 6.56 856.458 6.43C856.308 6.29 856.233 6.075 856.233 5.785ZM855.393 19.6C855.133 19.6 854.908 19.58 854.718 19.54C854.528 19.51 854.368 19.47 854.238 19.42V18.355C854.388 18.405 854.543 18.44 854.703 18.46C854.863 18.49 855.038 18.505 855.228 18.505C855.548 18.505 855.813 18.415 856.023 18.235C856.233 18.065 856.338 17.735 856.338 17.245V7.96H857.658V17.2C857.658 17.95 857.478 18.535 857.118 18.955C856.758 19.385 856.183 19.6 855.393 19.6ZM872.1 16H870.51L866.715 10.885L865.62 11.845V16H864.27V5.29H865.62V10.57C865.92 10.23 866.225 9.89 866.535 9.55C866.845 9.21 867.155 8.87 867.465 8.53L870.36 5.29H871.935L867.69 9.955L872.1 16ZM874.676 4.6V10.555C874.676 10.715 874.666 10.925 874.646 11.185C874.636 11.445 874.626 11.67 874.616 11.86H874.676C874.736 11.78 874.826 11.665 874.946 11.515C875.066 11.365 875.186 11.215 875.306 11.065C875.436 10.905 875.546 10.775 875.636 10.675L878.201 7.96H879.746L876.491 11.395L879.971 16H878.381L875.591 12.25L874.676 13.045V16H873.371V4.6H874.676ZM885.448 16V5.29H886.798V14.8H891.478V16H885.448ZM894.449 16H893.129V4.6H894.449V16ZM905.785 16L902.26 6.61H902.2C902.23 6.92 902.255 7.34 902.275 7.87C902.295 8.39 902.305 8.935 902.305 9.505V16H901.06V5.29H903.055L906.355 14.065H906.415L909.775 5.29H911.755V16H910.42V9.415C910.42 8.895 910.43 8.38 910.45 7.87C910.48 7.36 910.505 6.945 910.525 6.625H910.465L906.895 16H905.785ZM923.303 7.81C924.213 7.81 924.893 8.045 925.343 8.515C925.793 8.985 926.018 9.735 926.018 10.765V16H924.713V10.825C924.713 9.555 924.168 8.92 923.078 8.92C922.298 8.92 921.738 9.145 921.398 9.595C921.068 10.045 920.903 10.7 920.903 11.56V16H919.598V10.825C919.598 9.555 919.048 8.92 917.948 8.92C917.138 8.92 916.578 9.17 916.268 9.67C915.958 10.17 915.803 10.89 915.803 11.83V16H914.483V7.96H915.548L915.743 9.055H915.818C916.068 8.635 916.403 8.325 916.823 8.125C917.253 7.915 917.708 7.81 918.188 7.81C919.448 7.81 920.268 8.26 920.648 9.16H920.723C920.993 8.7 921.358 8.36 921.818 8.14C922.278 7.92 922.773 7.81 923.303 7.81ZM941.056 16H939.481L933.751 7.105H933.691C933.711 7.455 933.736 7.89 933.766 8.41C933.796 8.93 933.811 9.465 933.811 10.015V16H932.566V5.29H934.126L939.841 14.155H939.901C939.891 13.995 939.876 13.755 939.856 13.435C939.846 13.115 939.831 12.77 939.811 12.4C939.801 12.02 939.796 11.665 939.796 11.335V5.29H941.056V16ZM947.646 7.81C948.606 7.81 949.331 8.045 949.821 8.515C950.311 8.985 950.556 9.735 950.556 10.765V16H949.251V10.855C949.251 9.565 948.651 8.92 947.451 8.92C946.561 8.92 945.946 9.17 945.606 9.67C945.266 10.17 945.096 10.89 945.096 11.83V16H943.776V7.96H944.841L945.036 9.055H945.111C945.371 8.635 945.731 8.325 946.191 8.125C946.651 7.915 947.136 7.81 947.646 7.81ZM966.458 10.63C966.458 11.74 966.268 12.71 965.888 13.54C965.518 14.36 964.963 15 964.223 15.46C963.493 15.92 962.593 16.15 961.523 16.15C960.413 16.15 959.488 15.92 958.748 15.46C958.018 15 957.473 14.355 957.113 13.525C956.753 12.695 956.573 11.725 956.573 10.615C956.573 9.525 956.753 8.57 957.113 7.75C957.473 6.92 958.018 6.275 958.748 5.815C959.488 5.355 960.418 5.125 961.538 5.125C962.608 5.125 963.508 5.355 964.238 5.815C964.968 6.265 965.518 6.905 965.888 7.735C966.268 8.555 966.458 9.52 966.458 10.63ZM957.998 10.63C957.998 11.98 958.283 13.045 958.853 13.825C959.423 14.595 960.313 14.98 961.523 14.98C962.733 14.98 963.618 14.595 964.178 13.825C964.748 13.045 965.033 11.98 965.033 10.63C965.033 9.28 964.753 8.225 964.193 7.465C963.633 6.695 962.748 6.31 961.538 6.31C960.318 6.31 959.423 6.695 958.853 7.465C958.283 8.225 957.998 9.28 957.998 10.63ZM975.636 11.965C975.636 13.295 975.296 14.325 974.616 15.055C973.946 15.785 973.036 16.15 971.886 16.15C971.176 16.15 970.541 15.99 969.981 15.67C969.431 15.34 968.996 14.865 968.676 14.245C968.356 13.615 968.196 12.855 968.196 11.965C968.196 10.635 968.526 9.61 969.186 8.89C969.856 8.17 970.771 7.81 971.931 7.81C972.651 7.81 973.291 7.975 973.851 8.305C974.411 8.625 974.846 9.095 975.156 9.715C975.476 10.325 975.636 11.075 975.636 11.965ZM969.561 11.965C969.561 12.915 969.746 13.67 970.116 14.23C970.496 14.78 971.096 15.055 971.916 15.055C972.726 15.055 973.321 14.78 973.701 14.23C974.081 13.67 974.271 12.915 974.271 11.965C974.271 11.015 974.081 10.27 973.701 9.73C973.321 9.19 972.721 8.92 971.901 8.92C971.081 8.92 970.486 9.19 970.116 9.73C969.746 10.27 969.561 11.015 969.561 11.965ZM984.627 5.29C986.027 5.29 987.047 5.565 987.687 6.115C988.327 6.665 988.647 7.44 988.647 8.44C988.647 9.03 988.512 9.585 988.242 10.105C987.982 10.615 987.537 11.03 986.907 11.35C986.287 11.67 985.442 11.83 984.372 11.83H983.142V16H981.792V5.29H984.627ZM984.507 6.445H983.142V10.675H984.222C985.242 10.675 986.002 10.51 986.502 10.18C987.002 9.85 987.252 9.29 987.252 8.5C987.252 7.81 987.027 7.295 986.577 6.955C986.137 6.615 985.447 6.445 984.507 6.445ZM994.513 7.81C995.503 7.81 996.298 8.155 996.898 8.845C997.508 9.535 997.813 10.575 997.813 11.965C997.813 13.335 997.508 14.375 996.898 15.085C996.298 15.795 995.498 16.15 994.498 16.15C993.878 16.15 993.363 16.035 992.953 15.805C992.553 15.575 992.238 15.3 992.008 14.98H991.918C991.928 15.15 991.943 15.365 991.963 15.625C991.993 15.885 992.008 16.11 992.008 16.3V19.6H990.688V7.96H991.768L991.948 9.055H992.008C992.248 8.705 992.563 8.41 992.953 8.17C993.343 7.93 993.863 7.81 994.513 7.81ZM994.273 8.92C993.453 8.92 992.873 9.15 992.533 9.61C992.193 10.07 992.018 10.77 992.008 11.71V11.965C992.008 12.955 992.168 13.72 992.488 14.26C992.818 14.79 993.423 15.055 994.303 15.055C994.783 15.055 995.183 14.925 995.503 14.665C995.823 14.395 996.058 14.025 996.208 13.555C996.368 13.085 996.448 12.55 996.448 11.95C996.448 11.03 996.268 10.295 995.908 9.745C995.558 9.195 995.013 8.92 994.273 8.92ZM1013.33 10.63C1013.33 11.94 1013.06 13.06 1012.53 13.99C1012.01 14.91 1011.24 15.54 1010.21 15.88L1012.77 18.55H1010.84L1008.77 16.135C1008.71 16.135 1008.64 16.135 1008.57 16.135C1008.51 16.145 1008.45 16.15 1008.39 16.15C1007.28 16.15 1006.36 15.92 1005.62 15.46C1004.89 15 1004.34 14.355 1003.98 13.525C1003.62 12.695 1003.44 11.725 1003.44 10.615C1003.44 9.525 1003.62 8.57 1003.98 7.75C1004.34 6.92 1004.89 6.275 1005.62 5.815C1006.36 5.355 1007.29 5.125 1008.41 5.125C1009.48 5.125 1010.38 5.355 1011.11 5.815C1011.84 6.265 1012.39 6.905 1012.76 7.735C1013.14 8.555 1013.33 9.52 1013.33 10.63ZM1004.87 10.63C1004.87 11.98 1005.15 13.045 1005.72 13.825C1006.29 14.595 1007.18 14.98 1008.39 14.98C1009.6 14.98 1010.49 14.595 1011.05 13.825C1011.62 13.045 1011.9 11.98 1011.9 10.63C1011.9 9.28 1011.62 8.225 1011.06 7.465C1010.5 6.695 1009.62 6.31 1008.41 6.31C1007.19 6.31 1006.29 6.695 1005.72 7.465C1005.15 8.225 1004.87 9.28 1004.87 10.63ZM1020.87 19.6V16.165C1020.87 15.985 1020.87 15.775 1020.88 15.535C1020.89 15.295 1020.91 15.09 1020.94 14.92H1020.85C1020.62 15.26 1020.3 15.55 1019.89 15.79C1019.49 16.03 1018.97 16.15 1018.33 16.15C1017.36 16.15 1016.57 15.805 1015.96 15.115C1015.36 14.415 1015.06 13.375 1015.06 11.995C1015.06 10.615 1015.37 9.575 1015.98 8.875C1016.6 8.165 1017.4 7.81 1018.38 7.81C1019.01 7.81 1019.52 7.93 1019.92 8.17C1020.32 8.41 1020.64 8.705 1020.88 9.055H1020.94L1021.14 7.96H1022.19V19.6H1020.87ZM1018.59 15.055C1019.41 15.055 1019.99 14.83 1020.34 14.38C1020.69 13.92 1020.87 13.22 1020.88 12.28V12.01C1020.88 10.99 1020.71 10.22 1020.37 9.7C1020.03 9.17 1019.43 8.905 1018.56 8.905C1017.84 8.905 1017.3 9.19 1016.95 9.76C1016.6 10.32 1016.43 11.075 1016.43 12.025C1016.43 12.975 1016.6 13.72 1016.95 14.26C1017.3 14.79 1017.85 15.055 1018.59 15.055ZM667.41 25.29C668.74 25.29 669.72 25.545 670.35 26.055C670.99 26.555 671.31 27.315 671.31 28.335C671.31 28.905 671.205 29.38 670.995 29.76C670.785 30.14 670.515 30.445 670.185 30.675C669.865 30.905 669.525 31.08 669.165 31.2L672.105 36H670.53L667.935 31.575H665.805V36H664.455V25.29H667.41ZM667.335 26.46H665.805V30.435H667.41C668.28 30.435 668.915 30.265 669.315 29.925C669.715 29.575 669.915 29.065 669.915 28.395C669.915 27.695 669.705 27.2 669.285 26.91C668.865 26.61 668.215 26.46 667.335 26.46ZM677.35 27.81C677.5 27.81 677.66 27.82 677.83 27.84C678 27.85 678.155 27.87 678.295 27.9L678.13 29.115C678 29.085 677.855 29.06 677.695 29.04C677.535 29.02 677.39 29.01 677.26 29.01C676.85 29.01 676.465 29.125 676.105 29.355C675.745 29.575 675.455 29.89 675.235 30.3C675.025 30.7 674.92 31.17 674.92 31.71V36H673.6V27.96H674.68L674.83 29.43H674.89C675.14 28.99 675.47 28.61 675.88 28.29C676.3 27.97 676.79 27.81 677.35 27.81ZM689.936 33.135C689.936 34.085 689.591 34.825 688.901 35.355C688.211 35.885 687.281 36.15 686.111 36.15C685.511 36.15 684.956 36.105 684.446 36.015C683.936 35.925 683.511 35.8 683.171 35.64V34.35C683.531 34.51 683.976 34.655 684.506 34.785C685.046 34.915 685.601 34.98 686.171 34.98C686.961 34.98 687.561 34.825 687.971 34.515C688.381 34.205 688.586 33.785 688.586 33.255C688.586 32.905 688.511 32.61 688.361 32.37C688.211 32.13 687.951 31.91 687.581 31.71C687.211 31.51 686.706 31.29 686.066 31.05C685.146 30.72 684.456 30.315 683.996 29.835C683.536 29.355 683.306 28.7 683.306 27.87C683.306 27.31 683.451 26.825 683.741 26.415C684.031 26.005 684.431 25.69 684.941 25.47C685.451 25.25 686.046 25.14 686.726 25.14C687.306 25.14 687.841 25.195 688.331 25.305C688.821 25.415 689.271 25.56 689.681 25.74L689.261 26.895C688.891 26.735 688.486 26.6 688.046 26.49C687.606 26.38 687.156 26.325 686.696 26.325C686.026 26.325 685.521 26.47 685.181 26.76C684.841 27.04 684.671 27.415 684.671 27.885C684.671 28.245 684.746 28.545 684.896 28.785C685.046 29.025 685.291 29.245 685.631 29.445C685.971 29.635 686.431 29.835 687.011 30.045C687.641 30.275 688.171 30.525 688.601 30.795C689.041 31.055 689.371 31.37 689.591 31.74C689.821 32.11 689.936 32.575 689.936 33.135ZM697.142 33.78C697.142 34.56 696.852 35.15 696.272 35.55C695.692 35.95 694.912 36.15 693.932 36.15C693.372 36.15 692.887 36.105 692.477 36.015C692.077 35.925 691.722 35.8 691.412 35.64V34.44C691.732 34.6 692.117 34.75 692.567 34.89C693.027 35.02 693.492 35.085 693.962 35.085C694.632 35.085 695.117 34.98 695.417 34.77C695.717 34.55 695.867 34.26 695.867 33.9C695.867 33.7 695.812 33.52 695.702 33.36C695.592 33.2 695.392 33.04 695.102 32.88C694.822 32.72 694.417 32.54 693.887 32.34C693.367 32.14 692.922 31.94 692.552 31.74C692.182 31.54 691.897 31.3 691.697 31.02C691.497 30.74 691.397 30.38 691.397 29.94C691.397 29.26 691.672 28.735 692.222 28.365C692.782 27.995 693.512 27.81 694.412 27.81C694.902 27.81 695.357 27.86 695.777 27.96C696.207 28.06 696.607 28.19 696.977 28.35L696.527 29.4C696.187 29.26 695.832 29.14 695.462 29.04C695.092 28.94 694.712 28.89 694.322 28.89C693.782 28.89 693.367 28.98 693.077 29.16C692.797 29.33 692.657 29.565 692.657 29.865C692.657 30.095 692.722 30.285 692.852 30.435C692.982 30.585 693.197 30.735 693.497 30.885C693.807 31.035 694.217 31.205 694.727 31.395C695.237 31.585 695.672 31.78 696.032 31.98C696.392 32.18 696.667 32.425 696.857 32.715C697.047 32.995 697.142 33.35 697.142 33.78ZM706.539 36H705.189V26.475H701.844V25.29H709.869V26.475H706.539V36ZM713.983 35.07C714.183 35.07 714.388 35.055 714.598 35.025C714.808 34.995 714.978 34.955 715.108 34.905V35.91C714.968 35.98 714.768 36.035 714.508 36.075C714.248 36.125 713.998 36.15 713.758 36.15C713.338 36.15 712.948 36.08 712.588 35.94C712.238 35.79 711.953 35.535 711.733 35.175C711.513 34.815 711.403 34.31 711.403 33.66V28.98H710.263V28.35L711.418 27.825L711.943 26.115H712.723V27.96H715.048V28.98H712.723V33.63C712.723 34.12 712.838 34.485 713.068 34.725C713.308 34.955 713.613 35.07 713.983 35.07ZM728.928 25.29V32.22C728.928 32.96 728.778 33.63 728.478 34.23C728.178 34.82 727.718 35.29 727.098 35.64C726.478 35.98 725.698 36.15 724.758 36.15C723.418 36.15 722.403 35.79 721.713 35.07C721.023 34.34 720.678 33.38 720.678 32.19V25.29H722.028V32.235C722.028 33.105 722.258 33.78 722.718 34.26C723.188 34.74 723.893 34.98 724.833 34.98C725.803 34.98 726.503 34.725 726.933 34.215C727.373 33.695 727.593 33.03 727.593 32.22V25.29H728.928ZM738.289 27.96V36H737.209L737.014 34.935H736.954C736.694 35.355 736.334 35.665 735.874 35.865C735.414 36.055 734.924 36.15 734.404 36.15C733.434 36.15 732.704 35.92 732.214 35.46C731.724 34.99 731.479 34.245 731.479 33.225V27.96H732.814V33.135C732.814 34.415 733.409 35.055 734.599 35.055C735.489 35.055 736.104 34.805 736.444 34.305C736.794 33.805 736.969 33.085 736.969 32.145V27.96H738.289ZM752.45 25.29L748.625 36H747.275L743.45 25.29H744.86L747.275 32.16C747.435 32.6 747.565 33.015 747.665 33.405C747.775 33.785 747.87 34.15 747.95 34.5C748.02 34.15 748.11 33.78 748.22 33.39C748.33 33 748.465 32.58 748.625 32.13L751.025 25.29H752.45ZM755.484 36L752.439 27.96H753.849L755.559 32.7C755.639 32.92 755.724 33.165 755.814 33.435C755.904 33.705 755.984 33.965 756.054 34.215C756.124 34.465 756.174 34.67 756.204 34.83H756.264C756.294 34.67 756.349 34.465 756.429 34.215C756.509 33.955 756.594 33.695 756.684 33.435C756.774 33.165 756.859 32.92 756.939 32.7L758.649 27.96H760.059L756.999 36H755.484ZM777.695 25.29L774.845 36H773.48L771.395 28.98C771.305 28.7 771.22 28.415 771.14 28.125C771.07 27.825 771.005 27.565 770.945 27.345C770.895 27.115 770.865 26.955 770.855 26.865C770.845 26.995 770.79 27.275 770.69 27.705C770.59 28.125 770.475 28.565 770.345 29.025L768.32 36H766.955L764.12 25.29H765.53L767.195 31.83C767.315 32.29 767.415 32.735 767.495 33.165C767.585 33.595 767.655 34 767.705 34.38C767.755 33.99 767.83 33.565 767.93 33.105C768.03 32.645 768.145 32.195 768.275 31.755L770.165 25.29H771.56L773.525 31.8C773.665 32.26 773.785 32.72 773.885 33.18C773.985 33.64 774.06 34.04 774.11 34.38C774.15 34.01 774.215 33.61 774.305 33.18C774.405 32.74 774.515 32.285 774.635 31.815L776.285 25.29H777.695ZM785.725 35.985L784.345 31.455C784.215 31.045 784.1 30.645 784 30.255C783.9 29.865 783.83 29.555 783.79 29.325H783.73C783.69 29.555 783.625 29.865 783.535 30.255C783.445 30.645 783.33 31.05 783.19 31.47L781.75 35.985H780.25L778.045 27.945H779.41L780.52 32.235C780.63 32.665 780.735 33.1 780.835 33.54C780.935 33.98 781.005 34.345 781.045 34.635H781.105C781.135 34.465 781.18 34.255 781.24 34.005C781.3 33.755 781.365 33.495 781.435 33.225C781.505 32.945 781.575 32.695 781.645 32.475L783.07 27.945H784.51L785.89 32.475C785.99 32.825 786.095 33.2 786.205 33.6C786.315 34 786.39 34.34 786.43 34.62H786.49C786.52 34.37 786.585 34.025 786.685 33.585C786.795 33.145 786.91 32.695 787.03 32.235L788.155 27.945H789.505L787.27 35.985H785.725ZM802.286 36H800.756L797.921 31.35L795.041 36H793.616L797.171 30.42L793.841 25.29H795.341L797.966 29.49L800.606 25.29H802.031L798.716 30.39L802.286 36ZM805.519 31.89L802.744 27.96H804.244L806.314 30.99L808.369 27.96H809.854L807.079 31.89L810.004 36H808.504L806.314 32.79L804.094 36H802.609L805.519 31.89ZM818.408 30.555L821.198 25.29H822.653L819.083 31.845V36H817.733V31.905L814.163 25.29H815.633L818.408 30.555ZM822.668 27.96H824.078L825.818 32.535C825.968 32.945 826.103 33.33 826.223 33.69C826.343 34.05 826.433 34.395 826.493 34.725H826.553C826.613 34.475 826.708 34.15 826.838 33.75C826.968 33.34 827.103 32.93 827.243 32.52L828.878 27.96H830.303L826.838 37.11C826.548 37.87 826.183 38.475 825.743 38.925C825.303 39.375 824.693 39.6 823.913 39.6C823.673 39.6 823.463 39.585 823.283 39.555C823.103 39.535 822.948 39.51 822.818 39.48V38.43C822.928 38.45 823.058 38.47 823.208 38.49C823.368 38.51 823.533 38.52 823.703 38.52C824.163 38.52 824.533 38.39 824.813 38.13C825.093 37.87 825.318 37.525 825.488 37.095L825.908 36.03L822.668 27.96ZM842.179 36H834.754V34.98L840.394 26.49H834.934V25.29H842.029V26.31L836.389 34.8H842.179V36ZM849.227 36H843.347V35.13L847.667 28.98H843.602V27.96H849.122V28.95L844.862 34.98H849.227V36ZM672.915 63.595H674.175V77.17H672.915V63.595ZM673.83 69.1H676.335V70.135H673.83V69.1ZM669.45 65.065H670.665C670.665 68.92 668.895 72.4 664.515 74.605L663.825 73.645C667.575 71.74 669.45 68.845 669.45 65.26V65.065ZM664.455 65.065H670.095V66.085H664.455V65.065ZM687.623 69.01H690.128V70.06H687.623V69.01ZM686.708 63.595H687.968V77.17H686.708V63.595ZM678.068 64.93H679.313V73.33H678.068V64.93ZM678.068 72.685H679.148C681.158 72.685 683.213 72.55 685.448 72.085L685.598 73.12C683.288 73.6 681.203 73.735 679.148 73.735H678.068V72.685ZM700.501 63.595H701.761V77.185H700.501V63.595ZM701.461 68.95H703.981V70H701.461V68.95ZM691.906 72.76H692.971C695.476 72.76 697.231 72.67 699.256 72.295L699.391 73.345C697.306 73.735 695.521 73.81 692.971 73.81H691.906V72.76ZM691.906 64.915H698.206V65.935H693.136V73.225H691.906V64.915ZM714.308 63.595H715.553V77.185H714.308V63.595ZM715.253 68.995H717.773V70.045H715.253V68.995ZM705.668 72.88H706.748C709.298 72.88 711.068 72.79 713.123 72.4L713.258 73.435C711.143 73.81 709.343 73.915 706.748 73.915H705.668V72.88ZM705.638 64.87H711.773V69.73H706.898V73.3H705.668V68.71H710.543V65.89H705.638V64.87ZM719.446 64.96H725.671V73.735H719.446V64.96ZM724.456 65.965H720.661V72.73H724.456V65.965ZM728.086 63.61H729.346V77.17H728.086V63.61ZM729.046 69.025H731.566V70.075H729.046V69.025ZM741.879 63.61H743.139V77.17H741.879V63.61ZM742.839 68.935H745.359V70H742.839V68.935ZM733.239 64.75H734.469V68.335H738.339V64.75H739.569V73.915H733.239V64.75ZM734.469 69.325V72.895H738.339V69.325H734.469Z" fill="#2C3543"/>
<path d="M547.41 127.29C548.31 127.29 549.055 127.38 549.645 127.56C550.235 127.73 550.67 128.01 550.95 128.4C551.24 128.79 551.385 129.315 551.385 129.975C551.385 130.385 551.315 130.755 551.175 131.085C551.035 131.415 550.835 131.685 550.575 131.895C550.325 132.105 550.035 132.245 549.705 132.315V132.39C550.045 132.46 550.365 132.59 550.665 132.78C550.965 132.96 551.205 133.225 551.385 133.575C551.565 133.915 551.655 134.365 551.655 134.925C551.655 135.575 551.505 136.13 551.205 136.59C550.915 137.05 550.495 137.4 549.945 137.64C549.395 137.88 548.74 138 547.98 138H544.26V127.29H547.41ZM547.59 131.655C548.24 131.655 548.69 131.535 548.94 131.295C549.19 131.055 549.315 130.7 549.315 130.23C549.315 129.75 549.165 129.405 548.865 129.195C548.575 128.985 548.11 128.88 547.47 128.88H546.27V131.655H547.59ZM546.27 133.2V136.395H547.74C548.42 136.395 548.89 136.245 549.15 135.945C549.42 135.645 549.555 135.245 549.555 134.745C549.555 134.425 549.495 134.15 549.375 133.92C549.265 133.69 549.075 133.515 548.805 133.395C548.535 133.265 548.16 133.2 547.68 133.2H546.27ZM562.719 132.63C562.719 133.46 562.624 134.215 562.434 134.895C562.244 135.565 561.949 136.145 561.549 136.635C561.159 137.125 560.664 137.5 560.064 137.76C559.464 138.02 558.759 138.15 557.949 138.15C557.129 138.15 556.419 138.02 555.819 137.76C555.219 137.49 554.724 137.115 554.334 136.635C553.944 136.145 553.649 135.56 553.449 134.88C553.259 134.2 553.164 133.445 553.164 132.615C553.164 131.505 553.334 130.54 553.674 129.72C554.024 128.9 554.554 128.265 555.264 127.815C555.974 127.355 556.874 127.125 557.964 127.125C559.044 127.125 559.934 127.355 560.634 127.815C561.334 128.265 561.854 128.905 562.194 129.735C562.544 130.555 562.719 131.52 562.719 132.63ZM555.294 132.63C555.294 133.44 555.384 134.135 555.564 134.715C555.744 135.295 556.029 135.74 556.419 136.05C556.819 136.36 557.329 136.515 557.949 136.515C558.569 136.515 559.074 136.36 559.464 136.05C559.854 135.74 560.139 135.295 560.319 134.715C560.499 134.135 560.589 133.44 560.589 132.63C560.589 131.42 560.379 130.47 559.959 129.78C559.549 129.09 558.879 128.745 557.949 128.745C557.329 128.745 556.819 128.9 556.419 129.21C556.029 129.52 555.744 129.965 555.564 130.545C555.384 131.125 555.294 131.82 555.294 132.63ZM564.785 138V127.29H566.795V136.38H570.92V138H564.785ZM580.926 132.54C580.926 133.74 580.711 134.745 580.281 135.555C579.861 136.365 579.251 136.975 578.451 137.385C577.651 137.795 576.691 138 575.571 138H572.631V127.29H575.871C576.911 127.29 577.811 127.49 578.571 127.89C579.331 128.29 579.911 128.88 580.311 129.66C580.721 130.43 580.926 131.39 580.926 132.54ZM578.826 132.6C578.826 131.75 578.711 131.05 578.481 130.5C578.261 129.95 577.926 129.545 577.476 129.285C577.036 129.015 576.491 128.88 575.841 128.88H574.641V136.395H575.616C576.696 136.395 577.501 136.08 578.031 135.45C578.561 134.81 578.826 133.86 578.826 132.6Z" fill="#2C3543"/>
<path d="M670.905 136L670.125 133.45H666.225L665.445 136H663L666.78 125.245H669.555L673.35 136H670.905ZM669.585 131.545L668.805 129.055C668.755 128.885 668.69 128.67 668.61 128.41C668.53 128.15 668.45 127.885 668.37 127.615C668.29 127.345 668.225 127.11 668.175 126.91C668.125 127.11 668.055 127.36 667.965 127.66C667.885 127.95 667.805 128.23 667.725 128.5C667.655 128.76 667.6 128.945 667.56 129.055L666.795 131.545H669.585ZM677.88 127.645C678.98 127.645 679.82 127.885 680.4 128.365C680.99 128.835 681.285 129.56 681.285 130.54V136H679.725L679.29 134.89H679.23C678.88 135.33 678.51 135.65 678.12 135.85C677.73 136.05 677.195 136.15 676.515 136.15C675.785 136.15 675.18 135.94 674.7 135.52C674.22 135.1 673.98 134.445 673.98 133.555C673.98 132.685 674.285 132.045 674.895 131.635C675.505 131.225 676.42 130.995 677.64 130.945L679.065 130.9V130.54C679.065 130.11 678.95 129.795 678.72 129.595C678.5 129.395 678.19 129.295 677.79 129.295C677.39 129.295 677 129.355 676.62 129.475C676.24 129.585 675.86 129.725 675.48 129.895L674.745 128.38C675.175 128.16 675.66 127.985 676.2 127.855C676.74 127.715 677.3 127.645 677.88 127.645ZM679.065 132.205L678.195 132.235C677.475 132.255 676.975 132.385 676.695 132.625C676.415 132.865 676.275 133.18 676.275 133.57C676.275 133.91 676.375 134.155 676.575 134.305C676.775 134.445 677.035 134.515 677.355 134.515C677.835 134.515 678.24 134.375 678.57 134.095C678.9 133.805 679.065 133.4 679.065 132.88V132.205ZM687.638 125.29H690.968C692.388 125.29 693.463 125.49 694.193 125.89C694.933 126.29 695.303 126.995 695.303 128.005C695.303 128.615 695.158 129.13 694.868 129.55C694.588 129.97 694.183 130.225 693.653 130.315V130.39C694.003 130.47 694.323 130.6 694.613 130.78C694.913 130.95 695.148 131.205 695.318 131.545C695.488 131.885 695.573 132.335 695.573 132.895C695.573 133.865 695.218 134.625 694.508 135.175C693.808 135.725 692.853 136 691.643 136H687.638V125.29ZM689.903 129.535H691.223C691.883 129.535 692.338 129.435 692.588 129.235C692.848 129.025 692.978 128.715 692.978 128.305C692.978 127.895 692.828 127.6 692.528 127.42C692.228 127.24 691.753 127.15 691.103 127.15H689.903V129.535ZM689.903 131.335V134.125H691.388C692.068 134.125 692.543 133.995 692.813 133.735C693.083 133.465 693.218 133.11 693.218 132.67C693.218 132.27 693.078 131.95 692.798 131.71C692.528 131.46 692.033 131.335 691.313 131.335H689.903ZM699.765 124.6V127.255C699.765 127.565 699.755 127.87 699.735 128.17C699.715 128.47 699.695 128.705 699.675 128.875H699.765C699.985 128.535 700.28 128.25 700.65 128.02C701.02 127.78 701.5 127.66 702.09 127.66C703.01 127.66 703.755 128.02 704.325 128.74C704.895 129.45 705.18 130.5 705.18 131.89C705.18 133.29 704.89 134.35 704.31 135.07C703.73 135.79 702.97 136.15 702.03 136.15C701.43 136.15 700.955 136.045 700.605 135.835C700.265 135.615 699.985 135.37 699.765 135.1H699.615L699.24 136H697.53V124.6H699.765ZM701.37 129.445C700.79 129.445 700.38 129.63 700.14 130C699.9 130.36 699.775 130.905 699.765 131.635V131.875C699.765 132.665 699.88 133.275 700.11 133.705C700.35 134.125 700.78 134.335 701.4 134.335C701.86 134.335 702.225 134.125 702.495 133.705C702.765 133.275 702.9 132.66 702.9 131.86C702.9 131.06 702.76 130.46 702.48 130.06C702.21 129.65 701.84 129.445 701.37 129.445ZM715.631 127.03C714.761 127.03 714.096 127.355 713.636 128.005C713.176 128.655 712.946 129.545 712.946 130.675C712.946 131.815 713.156 132.7 713.576 133.33C714.006 133.95 714.691 134.26 715.631 134.26C716.061 134.26 716.496 134.21 716.936 134.11C717.376 134.01 717.851 133.87 718.361 133.69V135.595C717.891 135.785 717.426 135.925 716.966 136.015C716.506 136.105 715.991 136.15 715.421 136.15C714.311 136.15 713.401 135.925 712.691 135.475C711.981 135.015 711.456 134.375 711.116 133.555C710.776 132.725 710.606 131.76 710.606 130.66C710.606 129.58 710.801 128.625 711.191 127.795C711.581 126.965 712.146 126.315 712.886 125.845C713.636 125.375 714.551 125.14 715.631 125.14C716.161 125.14 716.691 125.21 717.221 125.35C717.761 125.48 718.276 125.66 718.766 125.89L718.031 127.735C717.631 127.545 717.226 127.38 716.816 127.24C716.416 127.1 716.021 127.03 715.631 127.03ZM723.781 136.15C722.561 136.15 721.616 135.815 720.946 135.145C720.286 134.475 719.956 133.41 719.956 131.95C719.956 130.95 720.126 130.135 720.466 129.505C720.806 128.875 721.276 128.41 721.876 128.11C722.486 127.81 723.186 127.66 723.976 127.66C724.536 127.66 725.021 127.715 725.431 127.825C725.851 127.935 726.216 128.065 726.526 128.215L725.866 129.94C725.516 129.8 725.186 129.685 724.876 129.595C724.576 129.505 724.276 129.46 723.976 129.46C722.816 129.46 722.236 130.285 722.236 131.935C722.236 132.755 722.386 133.36 722.686 133.75C722.996 134.14 723.426 134.335 723.976 134.335C724.446 134.335 724.861 134.275 725.221 134.155C725.581 134.025 725.931 133.85 726.271 133.63V135.535C725.931 135.755 725.571 135.91 725.191 136C724.821 136.1 724.351 136.15 723.781 136.15ZM741.101 130.54C741.101 132.35 740.586 133.715 739.556 134.635C738.526 135.545 737.091 136 735.251 136H732.221V125.29H735.581C736.701 125.29 737.671 125.49 738.491 125.89C739.321 126.29 739.961 126.88 740.411 127.66C740.871 128.44 741.101 129.4 741.101 130.54ZM738.746 130.6C738.746 129.42 738.486 128.55 737.966 127.99C737.446 127.43 736.691 127.15 735.701 127.15H734.486V134.125H735.461C737.651 134.125 738.746 132.95 738.746 130.6ZM745.733 136.15C744.823 136.15 744.078 135.795 743.498 135.085C742.928 134.365 742.643 133.31 742.643 131.92C742.643 130.52 742.933 129.46 743.513 128.74C744.093 128.02 744.853 127.66 745.793 127.66C746.383 127.66 746.868 127.775 747.248 128.005C747.628 128.235 747.928 128.52 748.148 128.86H748.223C748.193 128.7 748.158 128.47 748.118 128.17C748.078 127.86 748.058 127.545 748.058 127.225V124.6H750.293V136H748.583L748.148 134.935H748.058C747.838 135.275 747.543 135.565 747.173 135.805C746.803 136.035 746.323 136.15 745.733 136.15ZM746.513 134.365C747.123 134.365 747.553 134.185 747.803 133.825C748.053 133.455 748.188 132.905 748.208 132.175V131.935C748.208 131.145 748.083 130.54 747.833 130.12C747.593 129.69 747.143 129.475 746.483 129.475C745.993 129.475 745.608 129.69 745.328 130.12C745.048 130.54 744.908 131.15 744.908 131.95C744.908 132.75 745.048 133.355 745.328 133.765C745.608 134.165 746.003 134.365 746.513 134.365ZM762.86 136H756.695V125.29H762.86V127.15H758.96V129.505H762.59V131.365H758.96V134.125H762.86V136ZM768.278 127.66C769.408 127.66 770.303 127.985 770.963 128.635C771.623 129.275 771.953 130.19 771.953 131.38V132.46H766.673C766.693 133.09 766.878 133.585 767.228 133.945C767.588 134.305 768.083 134.485 768.713 134.485C769.233 134.485 769.708 134.435 770.138 134.335C770.578 134.225 771.028 134.06 771.488 133.84V135.565C771.078 135.765 770.653 135.91 770.213 136C769.773 136.1 769.238 136.15 768.608 136.15C767.788 136.15 767.063 136 766.433 135.7C765.803 135.39 765.308 134.93 764.948 134.32C764.588 133.7 764.408 132.915 764.408 131.965C764.408 131.015 764.568 130.22 764.888 129.58C765.218 128.94 765.673 128.46 766.253 128.14C766.833 127.82 767.508 127.66 768.278 127.66ZM768.293 129.25C767.853 129.25 767.493 129.39 767.213 129.67C766.933 129.95 766.768 130.385 766.718 130.975H769.853C769.843 130.485 769.708 130.075 769.448 129.745C769.198 129.415 768.813 129.25 768.293 129.25ZM780.064 136H777.829V125.29H783.964V127.15H780.064V129.91H783.694V131.77H780.064V136ZM790.406 129.49H788.471V136H786.236V129.49H785.006V128.41L786.236 127.81V127.21C786.236 126.51 786.351 125.97 786.581 125.59C786.821 125.2 787.156 124.925 787.586 124.765C788.026 124.605 788.541 124.525 789.131 124.525C789.561 124.525 789.956 124.56 790.316 124.63C790.676 124.7 790.966 124.78 791.186 124.87L790.616 126.505C790.446 126.455 790.256 126.41 790.046 126.37C789.846 126.32 789.621 126.295 789.371 126.295C789.061 126.295 788.831 126.39 788.681 126.58C788.541 126.77 788.471 127.01 788.471 127.3V127.81H790.406V129.49ZM799.806 129.985H804.051V135.535C803.491 135.725 802.906 135.875 802.296 135.985C801.686 136.095 801.001 136.15 800.241 136.15C798.641 136.15 797.411 135.68 796.551 134.74C795.691 133.8 795.261 132.43 795.261 130.63C795.261 129.51 795.476 128.54 795.906 127.72C796.336 126.9 796.966 126.265 797.796 125.815C798.636 125.365 799.656 125.14 800.856 125.14C801.426 125.14 801.986 125.2 802.536 125.32C803.086 125.44 803.586 125.6 804.036 125.8L803.286 127.615C802.956 127.445 802.581 127.305 802.161 127.195C801.741 127.085 801.301 127.03 800.841 127.03C800.181 127.03 799.606 127.18 799.116 127.48C798.636 127.78 798.261 128.205 797.991 128.755C797.731 129.305 797.601 129.945 797.601 130.675C797.601 131.375 797.696 131.995 797.886 132.535C798.076 133.075 798.376 133.5 798.786 133.81C799.196 134.11 799.731 134.26 800.391 134.26C800.711 134.26 800.981 134.245 801.201 134.215C801.421 134.185 801.631 134.15 801.831 134.11V131.875H799.806V129.985ZM809.065 127.66C810.075 127.66 810.865 128.06 811.435 128.86H811.495L811.675 127.81H813.565V136.015C813.565 137.185 813.22 138.075 812.53 138.685C811.84 139.295 810.82 139.6 809.47 139.6C808.89 139.6 808.35 139.565 807.85 139.495C807.36 139.425 806.88 139.3 806.41 139.12V137.335C807.41 137.755 808.475 137.965 809.605 137.965C810.755 137.965 811.33 137.345 811.33 136.105V135.94C811.33 135.78 811.335 135.61 811.345 135.43C811.355 135.24 811.37 135.075 811.39 134.935H811.33C811.05 135.365 810.715 135.675 810.325 135.865C809.935 136.055 809.495 136.15 809.005 136.15C808.035 136.15 807.275 135.78 806.725 135.04C806.185 134.29 805.915 133.25 805.915 131.92C805.915 130.58 806.195 129.535 806.755 128.785C807.315 128.035 808.085 127.66 809.065 127.66ZM809.77 129.475C808.72 129.475 808.195 130.3 808.195 131.95C808.195 133.58 808.73 134.395 809.8 134.395C810.37 134.395 810.79 134.235 811.06 133.915C811.34 133.585 811.48 133.015 811.48 132.205V131.935C811.48 131.055 811.345 130.425 811.075 130.045C810.805 129.665 810.37 129.475 809.77 129.475ZM828.741 136H826.476V131.38H822.231V136H819.966V125.29H822.231V129.49H826.476V125.29H828.741V136ZM833.485 124.6V126.925C833.485 127.335 833.47 127.725 833.44 128.095C833.42 128.455 833.4 128.71 833.38 128.86H833.5C833.76 128.44 834.095 128.135 834.505 127.945C834.915 127.755 835.37 127.66 835.87 127.66C836.75 127.66 837.46 127.9 838 128.38C838.54 128.85 838.81 129.61 838.81 130.66V136H836.575V131.215C836.575 130.035 836.135 129.445 835.255 129.445C834.585 129.445 834.12 129.68 833.86 130.15C833.61 130.61 833.485 131.275 833.485 132.145V136H831.25V124.6H833.485ZM849.178 136H844.303V134.71L845.608 134.11V127.18L844.303 126.58V125.29H849.178V126.58L847.873 127.18V134.11L849.178 134.71V136ZM851.942 124.6C852.272 124.6 852.557 124.68 852.797 124.84C853.037 124.99 853.157 125.275 853.157 125.695C853.157 126.105 853.037 126.39 852.797 126.55C852.557 126.71 852.272 126.79 851.942 126.79C851.602 126.79 851.312 126.71 851.072 126.55C850.842 126.39 850.727 126.105 850.727 125.695C850.727 125.275 850.842 124.99 851.072 124.84C851.312 124.68 851.602 124.6 851.942 124.6ZM853.052 127.81V136H850.817V127.81H853.052ZM858.327 139.15C858.037 139.15 857.782 139.135 857.562 139.105C857.342 139.075 857.152 139.035 856.992 138.985V137.095C857.152 137.135 857.322 137.17 857.502 137.2C857.672 137.23 857.857 137.245 858.057 137.245C858.317 137.245 858.552 137.195 858.762 137.095C858.982 136.995 859.152 136.805 859.272 136.525C859.392 136.255 859.452 135.855 859.452 135.325V125.29H861.717V135.31C861.717 136.23 861.572 136.97 861.282 137.53C861.002 138.1 860.607 138.51 860.097 138.76C859.587 139.02 858.997 139.15 858.327 139.15ZM864.141 125.695C864.141 125.275 864.256 124.99 864.486 124.84C864.726 124.68 865.016 124.6 865.356 124.6C865.686 124.6 865.971 124.68 866.211 124.84C866.451 124.99 866.571 125.275 866.571 125.695C866.571 126.105 866.451 126.39 866.211 126.55C865.971 126.71 865.686 126.79 865.356 126.79C865.016 126.79 864.726 126.71 864.486 126.55C864.256 126.39 864.141 126.105 864.141 125.695ZM863.571 139.6C863.311 139.6 863.046 139.58 862.776 139.54C862.506 139.51 862.281 139.47 862.101 139.42V137.665C862.281 137.715 862.451 137.75 862.611 137.77C862.771 137.79 862.951 137.8 863.151 137.8C863.451 137.8 863.706 137.715 863.916 137.545C864.126 137.375 864.231 137.045 864.231 136.555V127.81H866.466V136.885C866.466 137.385 866.371 137.84 866.181 138.25C865.991 138.66 865.681 138.985 865.251 139.225C864.831 139.475 864.271 139.6 863.571 139.6ZM881.476 136H878.896L876.091 131.485L875.131 132.175V136H872.866V125.29H875.131V130.195C875.281 129.985 875.431 129.775 875.581 129.565C875.731 129.355 875.881 129.145 876.031 128.935L878.926 125.29H881.446L877.711 130.03L881.476 136ZM884.876 124.6V129.7C884.876 130.01 884.861 130.32 884.831 130.63C884.811 130.93 884.786 131.235 884.756 131.545H884.786C884.936 131.335 885.091 131.125 885.251 130.915C885.411 130.705 885.581 130.5 885.761 130.3L888.056 127.81H890.576L887.321 131.365L890.771 136H888.191L885.836 132.685L884.876 133.45V136H882.641V124.6H884.876ZM896.007 136V125.29H898.272V134.125H902.622V136H896.007ZM906.538 136H904.303V124.6H906.538V136ZM917.468 136L914.888 127.6H914.828C914.838 127.8 914.853 128.1 914.873 128.5C914.893 128.9 914.913 129.33 914.933 129.79C914.953 130.25 914.963 130.66 914.963 131.02V136H912.938V125.29H916.028L918.563 133.48H918.608L921.293 125.29H924.383V136H922.268V130.93C922.268 130.59 922.273 130.2 922.283 129.76C922.303 129.32 922.318 128.905 922.328 128.515C922.348 128.115 922.363 127.815 922.373 127.615H922.313L919.553 136H917.468ZM936.517 127.66C937.447 127.66 938.147 127.9 938.617 128.38C939.097 128.85 939.337 129.61 939.337 130.66V136H937.102V131.215C937.102 130.035 936.692 129.445 935.872 129.445C935.282 129.445 934.862 129.655 934.612 130.075C934.362 130.495 934.237 131.1 934.237 131.89V136H932.002V131.215C932.002 130.035 931.592 129.445 930.772 129.445C930.152 129.445 929.722 129.68 929.482 130.15C929.252 130.61 929.137 131.275 929.137 132.145V136H926.902V127.81H928.612L928.912 128.86H929.032C929.282 128.44 929.622 128.135 930.052 127.945C930.492 127.755 930.947 127.66 931.417 127.66C932.017 127.66 932.522 127.76 932.932 127.96C933.352 128.15 933.677 128.45 933.907 128.86H934.102C934.352 128.44 934.697 128.135 935.137 127.945C935.587 127.755 936.047 127.66 936.517 127.66ZM955.198 136H952.318L947.653 127.9H947.593C947.613 128.41 947.633 128.92 947.653 129.43C947.683 129.94 947.708 130.45 947.728 130.96V136H945.703V125.29H948.568L953.218 133.315H953.263C953.243 132.825 953.223 132.335 953.203 131.845C953.183 131.355 953.168 130.86 953.158 130.36V125.29H955.198V136ZM962.369 127.66C963.249 127.66 963.954 127.9 964.484 128.38C965.014 128.85 965.279 129.61 965.279 130.66V136H963.044V131.215C963.044 130.625 962.939 130.185 962.729 129.895C962.519 129.595 962.184 129.445 961.724 129.445C961.044 129.445 960.579 129.68 960.329 130.15C960.079 130.61 959.954 131.275 959.954 132.145V136H957.719V127.81H959.429L959.729 128.86H959.849C960.109 128.44 960.464 128.135 960.914 127.945C961.374 127.755 961.859 127.66 962.369 127.66ZM981.362 130.63C981.362 131.74 981.177 132.71 980.807 133.54C980.447 134.36 979.887 135 979.127 135.46C978.377 135.92 977.422 136.15 976.262 136.15C975.102 136.15 974.142 135.92 973.382 135.46C972.632 135 972.072 134.355 971.702 133.525C971.342 132.695 971.162 131.725 971.162 130.615C971.162 129.505 971.342 128.54 971.702 127.72C972.072 126.9 972.632 126.265 973.382 125.815C974.142 125.355 975.107 125.125 976.277 125.125C977.437 125.125 978.392 125.355 979.142 125.815C979.892 126.265 980.447 126.905 980.807 127.735C981.177 128.555 981.362 129.52 981.362 130.63ZM973.547 130.63C973.547 131.75 973.762 132.635 974.192 133.285C974.622 133.925 975.312 134.245 976.262 134.245C977.232 134.245 977.927 133.925 978.347 133.285C978.767 132.635 978.977 131.75 978.977 130.63C978.977 129.51 978.767 128.63 978.347 127.99C977.927 127.34 977.237 127.015 976.277 127.015C975.317 127.015 974.622 127.34 974.192 127.99C973.762 128.63 973.547 129.51 973.547 130.63ZM990.834 131.89C990.834 133.25 990.474 134.3 989.754 135.04C989.044 135.78 988.074 136.15 986.844 136.15C986.084 136.15 985.404 135.985 984.804 135.655C984.214 135.325 983.749 134.845 983.409 134.215C983.069 133.575 982.899 132.8 982.899 131.89C982.899 130.53 983.254 129.485 983.964 128.755C984.674 128.025 985.649 127.66 986.889 127.66C987.659 127.66 988.339 127.825 988.929 128.155C989.519 128.485 989.984 128.965 990.324 129.595C990.664 130.225 990.834 130.99 990.834 131.89ZM985.179 131.89C985.179 132.7 985.309 133.315 985.569 133.735C985.839 134.145 986.274 134.35 986.874 134.35C987.464 134.35 987.889 134.145 988.149 133.735C988.419 133.315 988.554 132.7 988.554 131.89C988.554 131.08 988.419 130.475 988.149 130.075C987.889 129.665 987.459 129.46 986.859 129.46C986.269 129.46 985.839 129.665 985.569 130.075C985.309 130.475 985.179 131.08 985.179 131.89ZM1000.17 125.29C1001.55 125.29 1002.55 125.59 1003.18 126.19C1003.82 126.78 1004.14 127.595 1004.14 128.635C1004.14 129.265 1004.01 129.85 1003.75 130.39C1003.49 130.93 1003.06 131.365 1002.45 131.695C1001.85 132.025 1001.03 132.19 999.986 132.19H999.011V136H996.746V125.29H1000.17ZM1000.05 127.15H999.011V130.33H999.761C1000.4 130.33 1000.91 130.205 1001.28 129.955C1001.66 129.695 1001.85 129.28 1001.85 128.71C1001.85 127.67 1001.25 127.15 1000.05 127.15ZM1010.54 127.66C1011.46 127.66 1012.2 128.02 1012.77 128.74C1013.34 129.45 1013.63 130.5 1013.63 131.89C1013.63 133.29 1013.33 134.35 1012.74 135.07C1012.15 135.79 1011.4 136.15 1010.48 136.15C1009.89 136.15 1009.42 136.045 1009.07 135.835C1008.72 135.615 1008.43 135.37 1008.21 135.1H1008.09C1008.17 135.52 1008.21 135.92 1008.21 136.3V139.6H1005.98V127.81H1007.79L1008.11 128.875H1008.21C1008.43 128.545 1008.73 128.26 1009.1 128.02C1009.47 127.78 1009.95 127.66 1010.54 127.66ZM1009.82 129.445C1009.24 129.445 1008.83 129.63 1008.59 130C1008.35 130.36 1008.22 130.905 1008.21 131.635V131.875C1008.21 132.665 1008.33 133.275 1008.56 133.705C1008.8 134.125 1009.23 134.335 1009.85 134.335C1010.36 134.335 1010.73 134.125 1010.97 133.705C1011.22 133.275 1011.35 132.66 1011.35 131.86C1011.35 130.25 1010.84 129.445 1009.82 129.445ZM1029.26 130.63C1029.26 131.83 1029.04 132.87 1028.61 133.75C1028.18 134.63 1027.52 135.27 1026.62 135.67L1029.2 138.55H1026.29L1024.32 136.15H1024.16C1023 136.15 1022.04 135.92 1021.28 135.46C1020.53 135 1019.97 134.355 1019.6 133.525C1019.24 132.695 1019.06 131.725 1019.06 130.615C1019.06 129.505 1019.24 128.54 1019.6 127.72C1019.97 126.9 1020.53 126.265 1021.28 125.815C1022.04 125.355 1023 125.125 1024.17 125.125C1025.33 125.125 1026.29 125.355 1027.04 125.815C1027.79 126.265 1028.34 126.905 1028.7 127.735C1029.07 128.555 1029.26 129.52 1029.26 130.63ZM1021.44 130.63C1021.44 131.75 1021.66 132.635 1022.09 133.285C1022.52 133.925 1023.21 134.245 1024.16 134.245C1025.13 134.245 1025.82 133.925 1026.24 133.285C1026.66 132.635 1026.87 131.75 1026.87 130.63C1026.87 129.51 1026.66 128.63 1026.24 127.99C1025.82 127.34 1025.13 127.015 1024.17 127.015C1023.21 127.015 1022.52 127.34 1022.09 127.99C1021.66 128.63 1021.44 129.51 1021.44 130.63ZM1036.21 139.6V136.165C1036.21 135.755 1036.24 135.345 1036.3 134.935H1036.21C1036 135.275 1035.71 135.565 1035.34 135.805C1034.97 136.035 1034.48 136.15 1033.88 136.15C1032.96 136.15 1032.22 135.795 1031.65 135.085C1031.08 134.365 1030.79 133.31 1030.79 131.92C1030.79 130.52 1031.08 129.46 1031.66 128.74C1032.24 128.02 1033 127.66 1033.93 127.66C1034.53 127.66 1035.01 127.775 1035.38 128.005C1035.76 128.235 1036.07 128.52 1036.3 128.86H1036.36L1036.55 127.81H1038.44V139.6H1036.21ZM1034.68 134.395C1035.3 134.395 1035.73 134.215 1035.97 133.855C1036.21 133.485 1036.34 132.935 1036.36 132.205V131.935C1036.36 131.145 1036.23 130.54 1035.98 130.12C1035.74 129.69 1035.3 129.475 1034.65 129.475C1034.12 129.475 1033.72 129.69 1033.46 130.12C1033.2 130.54 1033.07 131.15 1033.07 131.95C1033.07 133.58 1033.61 134.395 1034.68 134.395ZM667.47 145.29C668.93 145.29 670.005 145.555 670.695 146.085C671.395 146.615 671.745 147.42 671.745 148.5C671.745 148.99 671.65 149.42 671.46 149.79C671.28 150.15 671.035 150.46 670.725 150.72C670.425 150.97 670.1 151.175 669.75 151.335L672.9 156H670.38L667.83 151.89H666.615V156H664.35V145.29H667.47ZM667.305 147.15H666.615V150.045H667.35C668.1 150.045 668.635 149.92 668.955 149.67C669.285 149.42 669.45 149.05 669.45 148.56C669.45 148.05 669.275 147.69 668.925 147.48C668.575 147.26 668.035 147.15 667.305 147.15ZM678.641 147.66C678.751 147.66 678.881 147.665 679.031 147.675C679.181 147.685 679.301 147.7 679.391 147.72L679.226 149.82C679.146 149.8 679.041 149.785 678.911 149.775C678.781 149.755 678.666 149.745 678.566 149.745C678.186 149.745 677.821 149.815 677.471 149.955C677.121 150.085 676.836 150.3 676.616 150.6C676.406 150.9 676.301 151.31 676.301 151.83V156H674.066V147.81H675.761L676.091 149.19H676.196C676.436 148.77 676.766 148.41 677.186 148.11C677.606 147.81 678.091 147.66 678.641 147.66ZM691.257 153.03C691.257 153.98 690.912 154.74 690.222 155.31C689.542 155.87 688.572 156.15 687.312 156.15C686.182 156.15 685.172 155.935 684.282 155.505V153.39C684.792 153.61 685.317 153.815 685.857 154.005C686.407 154.185 686.952 154.275 687.492 154.275C688.052 154.275 688.447 154.17 688.677 153.96C688.917 153.74 689.037 153.465 689.037 153.135C689.037 152.865 688.942 152.635 688.752 152.445C688.572 152.255 688.327 152.08 688.017 151.92C687.707 151.75 687.352 151.57 686.952 151.38C686.702 151.26 686.432 151.12 686.142 150.96C685.852 150.79 685.572 150.585 685.302 150.345C685.042 150.095 684.827 149.795 684.657 149.445C684.487 149.095 684.402 148.675 684.402 148.185C684.402 147.225 684.727 146.48 685.377 145.95C686.027 145.41 686.912 145.14 688.032 145.14C688.592 145.14 689.122 145.205 689.622 145.335C690.122 145.465 690.652 145.65 691.212 145.89L690.477 147.66C689.987 147.46 689.547 147.305 689.157 147.195C688.767 147.085 688.367 147.03 687.957 147.03C687.527 147.03 687.197 147.13 686.967 147.33C686.737 147.53 686.622 147.79 686.622 148.11C686.622 148.49 686.792 148.79 687.132 149.01C687.472 149.23 687.977 149.5 688.647 149.82C689.197 150.08 689.662 150.35 690.042 150.63C690.432 150.91 690.732 151.24 690.942 151.62C691.152 152 691.257 152.47 691.257 153.03ZM698.733 153.57C698.733 154.4 698.438 155.04 697.848 155.49C697.268 155.93 696.398 156.15 695.238 156.15C694.668 156.15 694.178 156.11 693.768 156.03C693.358 155.96 692.948 155.84 692.538 155.67V153.825C692.978 154.025 693.453 154.19 693.963 154.32C694.473 154.45 694.923 154.515 695.313 154.515C695.743 154.515 696.053 154.45 696.243 154.32C696.433 154.19 696.528 154.02 696.528 153.81C696.528 153.67 696.488 153.545 696.408 153.435C696.338 153.325 696.178 153.2 695.928 153.06C695.678 152.92 695.288 152.74 694.758 152.52C694.238 152.3 693.813 152.085 693.483 151.875C693.163 151.655 692.923 151.395 692.763 151.095C692.603 150.785 692.523 150.4 692.523 149.94C692.523 149.18 692.818 148.61 693.408 148.23C693.998 147.85 694.783 147.66 695.763 147.66C696.273 147.66 696.758 147.71 697.218 147.81C697.678 147.91 698.153 148.075 698.643 148.305L697.968 149.91C697.568 149.74 697.188 149.6 696.828 149.49C696.468 149.37 696.103 149.31 695.733 149.31C695.073 149.31 694.743 149.49 694.743 149.85C694.743 149.98 694.783 150.1 694.863 150.21C694.953 150.31 695.118 150.42 695.358 150.54C695.608 150.66 695.973 150.82 696.453 151.02C696.923 151.21 697.328 151.41 697.668 151.62C698.008 151.82 698.268 152.075 698.448 152.385C698.638 152.695 698.733 153.09 698.733 153.57ZM708.664 156H706.399V147.18H703.489V145.29H711.574V147.18H708.664V156ZM716.489 154.365C716.739 154.365 716.979 154.345 717.209 154.305C717.439 154.255 717.669 154.19 717.899 154.11V155.775C717.659 155.885 717.359 155.975 716.999 156.045C716.649 156.115 716.264 156.15 715.844 156.15C715.354 156.15 714.914 156.07 714.524 155.91C714.144 155.75 713.839 155.475 713.609 155.085C713.389 154.695 713.279 154.145 713.279 153.435V149.49H712.214V148.545L713.444 147.795L714.089 146.07H715.514V147.81H717.809V149.49H715.514V153.435C715.514 153.745 715.604 153.98 715.784 154.14C715.964 154.29 716.199 154.365 716.489 154.365ZM732.323 145.29V152.22C732.323 152.96 732.158 153.63 731.828 154.23C731.508 154.82 731.018 155.29 730.358 155.64C729.698 155.98 728.873 156.15 727.883 156.15C726.463 156.15 725.383 155.79 724.643 155.07C723.903 154.34 723.533 153.38 723.533 152.19V145.29H725.798V151.845C725.798 152.735 725.978 153.36 726.338 153.72C726.698 154.07 727.233 154.245 727.943 154.245C728.683 154.245 729.218 154.05 729.548 153.66C729.888 153.27 730.058 152.66 730.058 151.83V145.29H732.323ZM742.274 147.81V156H740.564L740.264 154.95H740.144C739.884 155.37 739.524 155.675 739.064 155.865C738.614 156.055 738.134 156.15 737.624 156.15C736.744 156.15 736.039 155.915 735.509 155.445C734.979 154.965 734.714 154.2 734.714 153.15V147.81H736.949V152.595C736.949 153.185 737.054 153.63 737.264 153.93C737.474 154.22 737.809 154.365 738.269 154.365C738.949 154.365 739.414 154.135 739.664 153.675C739.914 153.205 740.039 152.535 740.039 151.665V147.81H742.274ZM757.082 145.29L753.437 156H750.962L747.332 145.29H749.627L751.637 151.665C751.667 151.775 751.722 151.98 751.802 152.28C751.882 152.57 751.962 152.88 752.042 153.21C752.122 153.53 752.177 153.8 752.207 154.02C752.237 153.8 752.287 153.53 752.357 153.21C752.437 152.88 752.512 152.57 752.582 152.28C752.662 151.98 752.722 151.775 752.762 151.665L754.787 145.29H757.082ZM760.202 156L757.082 147.81H759.422L760.997 152.475C761.087 152.755 761.157 153.045 761.207 153.345C761.257 153.645 761.292 153.915 761.312 154.155H761.372C761.402 153.615 761.512 153.055 761.702 152.475L763.277 147.81H765.617L762.497 156H760.202ZM784.012 145.29L781.282 156H778.702L777.247 150.375C777.217 150.265 777.177 150.1 777.127 149.88C777.087 149.66 777.037 149.42 776.977 149.16C776.927 148.9 776.877 148.655 776.827 148.425C776.787 148.195 776.762 148.01 776.752 147.87C776.742 148.01 776.712 148.195 776.662 148.425C776.622 148.655 776.577 148.9 776.527 149.16C776.477 149.41 776.427 149.65 776.377 149.88C776.327 150.1 776.287 150.27 776.257 150.39L774.817 156H772.237L769.507 145.29H771.742L773.107 151.14C773.167 151.37 773.232 151.66 773.302 152.01C773.372 152.36 773.437 152.71 773.497 153.06C773.557 153.41 773.602 153.705 773.632 153.945C773.662 153.695 773.707 153.4 773.767 153.06C773.827 152.71 773.887 152.375 773.947 152.055C774.017 151.725 774.077 151.47 774.127 151.29L775.687 145.29H777.832L779.392 151.29C779.442 151.47 779.497 151.725 779.557 152.055C779.627 152.375 779.692 152.71 779.752 153.06C779.812 153.41 779.857 153.705 779.887 153.945C779.917 153.695 779.962 153.4 780.022 153.06C780.082 152.71 780.147 152.365 780.217 152.025C780.297 151.675 780.362 151.38 780.412 151.14L781.777 145.29H784.012ZM791.908 156L791.278 153.135C791.238 152.965 791.178 152.715 791.098 152.385C791.028 152.045 790.948 151.685 790.858 151.305C790.768 150.915 790.683 150.56 790.603 150.24C790.523 149.91 790.468 149.67 790.438 149.52H790.378C790.348 149.67 790.293 149.91 790.213 150.24C790.143 150.56 790.063 150.915 789.973 151.305C789.883 151.685 789.798 152.045 789.718 152.385C789.638 152.725 789.578 152.985 789.538 153.165L788.878 156H786.478L784.153 147.81H786.373L787.318 151.44C787.388 151.7 787.448 152.005 787.498 152.355C787.558 152.695 787.608 153.03 787.648 153.36C787.698 153.68 787.738 153.935 787.768 154.125H787.828C787.838 153.985 787.858 153.8 787.888 153.57C787.918 153.33 787.953 153.085 787.993 152.835C788.043 152.585 788.083 152.36 788.113 152.16C788.153 151.96 788.183 151.82 788.203 151.74L789.208 147.81H791.668L792.628 151.74C792.658 151.88 792.703 152.105 792.763 152.415C792.823 152.725 792.873 153.04 792.913 153.36C792.953 153.68 792.978 153.935 792.988 154.125H793.048C793.068 153.955 793.103 153.71 793.153 153.39C793.203 153.06 793.258 152.72 793.318 152.37C793.388 152.01 793.458 151.7 793.528 151.44L794.503 147.81H796.693L794.338 156H791.908ZM810.739 156H808.144L805.654 151.95L803.164 156H800.734L804.289 150.48L800.959 145.29H803.464L805.774 149.145L808.039 145.29H810.484L807.124 150.6L810.739 156ZM813.583 151.815L810.943 147.81H813.478L815.068 150.42L816.673 147.81H819.208L816.538 151.815L819.328 156H816.793L815.068 153.195L813.343 156H810.808L813.583 151.815ZM827.969 149.7L830.204 145.29H832.649L829.094 151.83V156H826.844V151.905L823.289 145.29H825.749L827.969 149.7ZM832.643 147.81H835.088L836.633 152.415C836.713 152.645 836.773 152.875 836.813 153.105C836.853 153.335 836.883 153.58 836.903 153.84H836.948C836.978 153.58 837.018 153.335 837.068 153.105C837.118 152.875 837.183 152.645 837.263 152.415L838.778 147.81H841.178L837.713 157.05C837.393 157.9 836.938 158.535 836.348 158.955C835.758 159.385 835.073 159.6 834.293 159.6C834.033 159.6 833.813 159.585 833.633 159.555C833.453 159.535 833.293 159.51 833.153 159.48V157.71C833.253 157.73 833.383 157.75 833.543 157.77C833.703 157.79 833.868 157.8 834.038 157.8C834.508 157.8 834.878 157.655 835.148 157.365C835.418 157.085 835.623 156.745 835.763 156.345L835.898 155.94L832.643 147.81ZM853.393 156H845.428V154.53L850.558 147.165H845.563V145.29H853.258V146.76L848.128 154.125H853.393V156ZM860.618 156H854.153V154.68L857.948 149.52H854.378V147.81H860.483V149.265L856.793 154.29H860.618V156ZM672.48 183.43H674.49V197.32H672.48V183.43ZM673.965 188.74H676.41V190.375H673.965V188.74ZM668.835 184.87H670.785C670.785 189.04 669.195 192.61 664.575 194.935L663.465 193.42C667.11 191.53 668.835 188.98 668.835 185.215V184.87ZM664.23 184.87H669.855V186.475H664.23V184.87ZM687.758 188.695H690.203V190.33H687.758V188.695ZM686.273 183.43H688.283V197.32H686.273V183.43ZM677.813 184.765H679.808V193.39H677.813V184.765ZM677.813 192.28H679.013C680.993 192.28 683.138 192.145 685.373 191.695L685.583 193.33C683.288 193.81 681.053 193.93 679.013 193.93H677.813V192.28ZM700.066 183.43H702.076V197.365H700.066V183.43ZM701.626 188.575H704.086V190.21H701.626V188.575ZM691.726 192.37H692.896C695.236 192.37 697.081 192.295 699.121 191.935L699.316 193.585C697.216 193.96 695.311 194.02 692.896 194.02H691.726V192.37ZM691.726 184.72H698.206V186.325H693.706V193.165H691.726V184.72ZM713.888 183.43H715.868V197.365H713.888V183.43ZM715.418 188.68H717.878V190.33H715.418V188.68ZM705.548 192.505H706.718C709.073 192.505 710.903 192.43 712.943 192.07L713.138 193.675C711.038 194.05 709.133 194.14 706.718 194.14H705.548V192.505ZM705.533 184.615H711.923V190H707.528V193.12H705.548V188.41H709.943V186.205H705.533V184.615ZM719.191 184.75H725.836V193.96H719.191V184.75ZM723.871 186.31H721.156V192.385H723.871V186.31ZM727.651 183.445H729.661V197.335H727.651V183.445ZM729.211 188.68H731.671V190.33H729.211V188.68ZM741.444 183.445H743.454V197.335H741.444V183.445ZM743.004 188.62H745.464V190.27H743.004V188.62ZM732.984 184.54H734.964V187.915H737.754V184.54H739.734V194.125H732.984V184.54ZM734.964 189.46V192.52H737.754V189.46H734.964Z" fill="#2C3543"/>
</svg>
