<svg width="15" height="16" viewBox="0 0 15 16" fill="none" xmlns="http://www.w3.org/2000/svg">
<g clip-path="url(#clip0_472_3215)">
<path d="M3.33653 12.6454C2.73726 12.0461 2.24439 11.399 1.8579 10.7042C1.47142 10.0094 1.19132 9.30158 1.01762 8.58072C0.848265 7.85551 0.785298 7.14551 0.828723 6.4507C0.872148 5.75156 1.02414 5.09366 1.28469 4.47702C1.54524 3.85604 1.91218 3.30888 2.38552 2.83555C2.88491 2.33616 3.45812 1.96487 4.10516 1.72169C4.7522 1.47851 5.4318 1.35041 6.14398 1.33738C6.8605 1.32435 7.57484 1.41771 8.28702 1.61747C8.99919 1.81288 9.67228 2.09949 10.3063 2.47729L9.62886 3.13518C9.1121 2.85726 8.55842 2.64014 7.96784 2.4838C7.37726 2.32747 6.7845 2.25148 6.18958 2.25582C5.59465 2.26016 5.02578 2.36221 4.48296 2.56197C3.94015 2.75738 3.45812 3.0657 3.0369 3.48693C2.5158 4.00803 2.15102 4.6225 1.94258 5.33033C1.73848 6.03382 1.68203 6.77857 1.77322 7.56456C1.86442 8.35056 2.09674 9.12787 2.4702 9.8965C2.84366 10.6608 3.34956 11.3621 3.98791 12.0005C4.37874 12.3957 4.79562 12.7279 5.23856 12.9971C5.68584 13.262 6.12878 13.4748 6.56738 13.6354C7.00597 13.8005 7.41417 13.9264 7.79197 14.0132C8.16977 14.1001 8.48894 14.1609 8.7495 14.1956C8.91017 14.2173 9.02742 14.2803 9.10124 14.3845C9.17506 14.4931 9.20546 14.6038 9.19243 14.7167C9.17941 14.8253 9.12513 14.9208 9.02959 15.0033C8.9384 15.0859 8.80812 15.1184 8.63876 15.1011C8.35215 15.075 8.00041 15.0142 7.58353 14.9187C7.16664 14.8275 6.71502 14.6907 6.22866 14.5083C5.74664 14.3259 5.25593 14.0827 4.75654 13.7788C4.26149 13.4748 3.78816 13.097 3.33653 12.6454ZM5.70755 10.6977L6.70416 10.2678C7.13842 10.6804 7.61175 11.0278 8.12417 11.31C8.64093 11.5879 9.16421 11.779 9.694 11.8832C10.2238 11.9831 10.7319 11.9744 11.2182 11.8572C11.7089 11.7399 12.1454 11.4902 12.5275 11.1081C12.9487 10.6869 13.2071 10.1788 13.3026 9.58384C13.3982 8.98457 13.3482 8.34622 13.1528 7.66878C12.9617 6.99135 12.6447 6.32477 12.2018 5.66905L12.8662 5.00464C13.2874 5.60391 13.6131 6.21838 13.8433 6.84805C14.0734 7.47771 14.2037 8.09435 14.2341 8.69796C14.2689 9.29723 14.1994 9.85959 14.0257 10.385C13.852 10.9062 13.5697 11.3643 13.1789 11.7595C12.7967 12.1416 12.3625 12.4195 11.8761 12.5932C11.3898 12.7626 10.8752 12.8408 10.3323 12.8277C9.79387 12.8104 9.25106 12.7148 8.7039 12.5411C8.15674 12.3631 7.62695 12.1177 7.11453 11.8051C6.60212 11.4924 6.13312 11.1233 5.70755 10.6977ZM6.56086 9.72714L5.28416 10.2287C5.21468 10.2548 5.15171 10.2396 5.09526 10.1831C5.04315 10.1267 5.03229 10.0659 5.06269 10.0007L5.59682 8.75659L11.4397 2.92023L12.4102 3.88427L6.56086 9.72714ZM12.8858 3.41528L11.9217 2.44472L12.4363 1.9171C12.5536 1.79986 12.6882 1.74123 12.8402 1.74123C12.9965 1.73689 13.1311 1.78683 13.244 1.89105L13.4134 2.04738C13.5393 2.16463 13.6001 2.30359 13.5958 2.46426C13.5958 2.62494 13.5328 2.76824 13.4069 2.89417L12.8858 3.41528Z" fill="#007AFF"/>
</g>
<defs>
<clipPath id="clip0_472_3215">
<rect width="15" height="15" fill="white" transform="translate(0 0.5)"/>
</clipPath>
</defs>
</svg>
