<svg width="1180" height="323" viewBox="0 0 1180 323" fill="none" xmlns="http://www.w3.org/2000/svg">
<rect y="0.870117" width="151" height="151" rx="10" fill="#F4F7FB"/>
<path d="M98.7002 57.5523V80.3063C98.7002 83.3769 96.3906 85.8701 93.53 85.8701H76.3924C76.4186 85.7389 76.4448 85.6077 76.4448 85.4764V64.0347C76.4448 63.2999 75.8675 62.7225 75.1326 62.7225C74.3978 62.7225 73.8204 63.2999 73.8204 64.0347V85.4764C73.8204 85.4764 73.8466 85.7389 73.8991 85.8701H57.4701C54.6094 85.8701 52.2999 83.3769 52.2999 80.3063V57.5523C52.2999 54.4555 53.8746 51.5948 56.4203 50.0464L71.5109 40.9921C73.9779 39.4961 77.0222 39.4961 79.4892 40.9921L94.5798 50.0464C97.1255 51.5948 98.7002 54.4555 98.7002 57.5523Z" fill="#4599FF"/>
<path d="M80.438 108.384V109.28H70.33V108.384H74.852V107.18H76V108.384H80.438ZM72.262 117.036V118.87H78.59V117.036H72.262ZM71.142 119.738V116.168H79.71V119.738H71.142ZM72.57 111.548C72.57 112.178 73.592 112.528 75.426 112.528C77.232 112.528 78.254 112.178 78.254 111.548C78.254 110.932 77.232 110.582 75.426 110.582C73.592 110.582 72.57 110.932 72.57 111.548ZM76 114.278H81.082V115.188H69.742V114.278H74.852V113.326C72.612 113.242 71.366 112.626 71.366 111.548C71.366 110.386 72.822 109.77 75.426 109.77C78.002 109.77 79.472 110.386 79.472 111.548C79.472 112.626 78.212 113.242 76 113.326V114.278Z" fill="#151825"/>
<rect x="171" y="0.870117" width="151" height="151" rx="10" fill="#F4F7FB"/>
<path d="M264.545 71.6693C263.533 70.0793 263.678 62.5399 263.196 56.6416C262.955 53.6156 262.015 50.6408 260.498 48.0764C260.449 47.9738 260.377 47.8968 260.329 47.8199C260.016 47.2814 259.678 46.7428 259.293 46.2556C256.378 42.3833 251.752 39.8701 246.524 39.8701C241.296 39.8701 236.67 42.3833 233.755 46.2556C233.394 46.7685 233.008 47.2814 232.719 47.8199C232.671 47.9225 232.599 47.9738 232.551 48.0764C231.033 50.6665 230.093 53.6156 229.852 56.6416C229.371 62.4886 229.491 70.0793 228.503 71.6693C227.443 73.2593 226.624 74.0542 226.624 75.6955C226.624 76.8495 227.54 77.4137 227.949 77.4137H265.051C265.461 77.4137 266.376 76.8238 266.376 75.6955C266.376 74.0286 265.533 73.2593 264.569 71.6693H264.545Z" fill="#4599FF"/>
<path d="M254.33 79.8471C254.33 83.1718 250.818 85.8702 246.5 85.8702C242.183 85.8702 238.67 83.1718 238.67 79.8471H254.33Z" fill="#4599FF"/>
<path d="M235.6 110.582C235.6 111.688 236.496 112.458 237.714 112.458C238.946 112.458 239.842 111.688 239.842 110.582C239.842 109.504 238.946 108.72 237.714 108.72C236.496 108.72 235.6 109.504 235.6 110.582ZM240.962 110.582C240.962 112.248 239.604 113.396 237.714 113.396C235.838 113.396 234.48 112.248 234.48 110.582C234.48 108.944 235.838 107.796 237.714 107.796C239.604 107.796 240.962 108.944 240.962 110.582ZM237.168 117.414V118.814H244.448V119.738H236.048V116.56H242.852V115.244H236.006V114.334H243.986V117.414H237.168ZM243.986 110.05H245.848V111.002H243.986V113.746H242.838V107.348H243.986V110.05ZM254.471 112.864L254.597 113.788C252.539 114.124 250.831 114.194 248.507 114.194H247.499V110.638H252.035V109.042H247.457V108.104H253.169V111.52H248.619V113.256C250.845 113.256 252.483 113.186 254.471 112.864ZM250.145 116.406V118.814H256.025V116.406H250.145ZM249.025 119.738V115.496H257.145V119.738H249.025ZM255.997 107.362H257.145V114.796H255.997V107.362Z" fill="#151825"/>
<rect x="342" y="0.870117" width="151" height="151" rx="10" fill="#F4F7FB"/>
<g clip-path="url(#clip0_370_885)">
<path d="M439.044 78.1681C435.348 70.6945 426.525 66.6204 417.513 66.6204C408.502 66.6204 399.679 70.6945 395.983 78.1681C393.258 83.6721 395.794 86.2892 399.463 86.3701C399.49 86.3701 399.517 86.3701 399.544 86.3701H435.509C435.509 86.3701 435.563 86.3701 435.59 86.3701C439.26 86.3162 441.769 83.6721 439.071 78.1681H439.044Z" fill="#4599FF"/>
<path d="M417.513 64.5699C424.472 64.5699 430.113 58.9287 430.113 51.97C430.113 45.0113 424.472 39.3701 417.513 39.3701C410.555 39.3701 404.914 45.0113 404.914 51.97C404.914 58.9287 410.555 64.5699 417.513 64.5699Z" fill="#4599FF"/>
</g>
<path d="M402.956 108.44V110.694C402.956 112.906 404.384 115.188 406.148 116.07L405.434 116.98C404.104 116.266 402.97 114.796 402.396 113.074C401.85 114.908 400.688 116.476 399.274 117.232L398.588 116.308C400.394 115.384 401.822 112.976 401.822 110.694V108.44H402.956ZM410.474 112.444V113.396H408.402V119.906H407.254V107.362H408.402V112.444H410.474ZM417.011 119.01C418.971 119.01 420.147 118.52 420.147 117.666C420.147 116.812 418.971 116.322 417.011 116.322C415.037 116.322 413.875 116.812 413.875 117.666C413.875 118.52 415.037 119.01 417.011 119.01ZM417.011 115.426C419.713 115.426 421.309 116.224 421.309 117.666C421.309 119.108 419.713 119.892 417.011 119.892C414.323 119.892 412.713 119.108 412.713 117.666C412.713 116.224 414.323 115.426 417.011 115.426ZM415.275 112.094V113.564H418.761V112.094C418.243 112.178 417.655 112.234 417.011 112.234C416.381 112.234 415.793 112.178 415.275 112.094ZM413.777 109.91C413.777 110.806 415.009 111.352 417.011 111.352C419.013 111.352 420.245 110.806 420.245 109.91C420.245 109 419.013 108.468 417.011 108.468C415.009 108.468 413.777 109 413.777 109.91ZM419.895 113.564H422.695V114.488H411.327V113.564H414.141V111.8C413.147 111.394 412.601 110.764 412.601 109.91C412.601 108.44 414.295 107.572 417.011 107.572C419.741 107.572 421.421 108.44 421.421 109.91C421.421 110.75 420.861 111.394 419.895 111.786V113.564ZM428.168 109.588V111.184C428.168 113.186 429.596 115.412 431.416 116.266L430.758 117.19C429.358 116.49 428.182 115.02 427.608 113.34C427.034 115.174 425.816 116.77 424.402 117.498L423.73 116.588C425.522 115.692 427.034 113.312 427.034 111.184V109.588H424.164V108.636H430.954V109.588H428.168ZM435.672 112.416V113.382H433.6V119.906H432.452V107.362H433.6V112.416H435.672Z" fill="#151825"/>
<rect x="513" y="0.870117" width="151" height="151" rx="10" fill="#F4F7FB"/>
<path d="M612.016 83.9889L597.628 69.291C596.981 68.6166 595.913 68.6166 595.239 69.291C594.564 69.9374 594.564 71.0053 595.239 71.6798L609.628 86.3777C609.965 86.7149 610.386 86.8835 610.836 86.8835C611.286 86.8835 611.679 86.7149 612.016 86.4058C612.691 85.7594 612.691 84.6915 612.016 84.017V83.9889Z" fill="#4599FF"/>
<path d="M583.548 74.6306C572.307 65.6939 571.52 54.9023 571.857 49.9C571.913 49.0569 570.845 48.6915 570.339 49.3379C562.414 59.3426 562.442 73.7595 570.93 83.7079C571.492 84.3543 572.279 84.7477 573.15 84.804C573.206 84.804 573.262 84.804 573.318 84.804C574.133 84.804 574.948 84.4948 575.567 83.9047L584.503 75.3894L583.604 74.6306H583.548Z" fill="#4599FF"/>
<path d="M598.33 59.989C590.742 50.0124 581.3 48.8321 576.803 48.9164C575.932 48.9164 575.229 49.6189 575.173 50.4901C574.948 54.9304 575.82 64.2044 585.628 71.989L586.976 72.9726L599.286 61.2536L598.33 59.989Z" fill="#4599FF"/>
<path d="M610.611 45.7688C600.859 37.1412 586.33 36.6353 575.932 43.9983C575.258 44.4761 575.567 45.5721 576.41 45.544C581.496 45.4035 592.372 46.5838 601 57.9374L601.787 58.8648L610.639 50.4339C611.286 49.8157 611.651 48.9445 611.651 48.0171C611.651 47.1459 611.258 46.3028 610.611 45.7407V45.7688Z" fill="#4599FF"/>
<path d="M586.924 108.734V109.658H576.83V108.734H581.338V107.278H582.5V108.734H586.924ZM584.796 112.444C584.796 111.688 583.746 111.24 581.926 111.24C580.092 111.24 579.028 111.688 579.028 112.444C579.028 113.214 580.092 113.648 581.926 113.648C583.746 113.648 584.796 113.214 584.796 112.444ZM577.838 112.444C577.838 111.114 579.364 110.372 581.926 110.372C584.46 110.372 585.986 111.114 585.986 112.444C585.986 113.788 584.46 114.53 581.926 114.53C579.364 114.53 577.838 113.788 577.838 112.444ZM587.624 115.384V116.308H584.656V119.92H583.508V116.308H580.344V119.92H579.196V116.308H576.242V115.384H587.624ZM589.513 108.692H595.253C595.253 112.262 593.615 115.496 589.555 117.526L588.925 116.63C592.131 115.02 593.853 112.612 594.119 109.644H589.513V108.692ZM600.517 112.444V113.396H598.501V119.906H597.353V107.348H598.501V112.444H600.517Z" fill="#151825"/>
<rect y="171.87" width="151" height="151" rx="10" fill="#F4F7FB"/>
<mask id="mask0_370_885" style="mask-type:luminance" maskUnits="userSpaceOnUse" x="53" y="209" width="45" height="49">
<path d="M97.8496 209.87H53.1504V257.87H97.8496V209.87Z" fill="white"/>
</mask>
<g mask="url(#mask0_370_885)">
<path d="M97.6732 217.53C97.6732 216.875 97.396 216.27 96.9425 215.816C88.5267 207.829 75.374 207.879 67.0338 215.942C58.6684 224.005 58.1645 237.158 65.8495 245.826C66.2779 246.305 66.8826 246.582 67.5377 246.607C67.5629 246.607 67.5881 246.607 67.6385 246.607C68.2432 246.607 68.848 246.355 69.3015 245.952L96.9677 219.268C97.4212 218.815 97.6984 218.185 97.6984 217.555L97.6732 217.53ZM69.4023 218.437C72.0984 218.235 79.5566 218.437 85.7299 225.845L76.2306 235.016C69.0495 228.566 69.0999 221.108 69.4023 218.437ZM67.6637 243.306C62.4984 237.032 62.1204 228.314 66.3031 221.662C66.5551 225.769 68.1425 231.766 74.0385 237.133L67.6637 243.281V243.306ZM87.9472 223.728C82.7818 217.656 76.8606 215.867 72.7535 215.464C75.6259 213.801 78.8511 212.919 82.0763 212.919C86.4606 212.919 90.8196 214.456 94.3472 217.555L87.9724 223.703L87.9472 223.728Z" fill="#4599FF"/>
<path d="M97.4213 245.221L86.4102 233.832C85.8307 233.227 84.848 233.202 84.2433 233.782C83.6386 234.361 83.6134 235.319 84.1929 235.949L95.2039 247.338C95.5063 247.64 95.9094 247.791 96.3126 247.791C96.7157 247.791 97.0685 247.64 97.3709 247.363C97.9756 246.783 98.0008 245.826 97.4213 245.196V245.221Z" fill="#4599FF"/>
<path d="M67.0339 257.87C63.2291 257.87 59.9283 256.51 57.2323 253.788C54.5362 251.067 53.1504 247.791 53.1504 243.987C53.1504 240.182 54.511 236.881 57.2071 234.16C59.9031 231.464 63.2039 230.103 67.0339 230.103C70.8638 230.103 74.1646 231.464 76.8354 234.135C79.5063 236.806 80.9173 240.157 80.9173 243.987C80.9173 247.817 79.5315 251.143 76.8354 253.813C74.1394 256.51 70.8386 257.87 67.0339 257.87Z" fill="#F4F7FB"/>
<path d="M75.0716 235.924C72.8543 233.706 70.1835 232.623 67.0338 232.623C63.8842 232.623 61.2134 233.706 58.996 235.924C56.7787 238.166 55.67 240.837 55.67 243.987C55.67 247.136 56.8039 249.807 58.996 252.024C61.2134 254.242 63.8842 255.35 67.0338 255.35C70.1835 255.35 72.8543 254.217 75.0716 252.024C77.3141 249.807 78.3976 247.136 78.3976 243.987C78.3976 240.837 77.3141 238.166 75.0716 235.924ZM61.9693 245.171C61.6417 245.499 61.2385 245.675 60.785 245.675C60.3315 245.675 59.9283 245.499 59.5756 245.171C59.248 244.843 59.0968 244.44 59.0968 243.987C59.0968 243.533 59.248 243.13 59.5756 242.777C59.9283 242.45 60.3315 242.299 60.785 242.299C61.2385 242.299 61.6417 242.45 61.9693 242.777C62.2968 243.13 62.4732 243.533 62.4732 243.987C62.4732 244.44 62.2968 244.843 61.9693 245.171ZM68.2181 245.171C67.8905 245.499 67.4874 245.675 67.0338 245.675C66.5803 245.675 66.1771 245.499 65.8496 245.171C65.4968 244.843 65.3457 244.44 65.3457 243.987C65.3457 243.533 65.4968 243.13 65.8496 242.777C66.1771 242.45 66.5803 242.299 67.0338 242.299C67.4874 242.299 67.8905 242.45 68.2181 242.777C68.5708 243.13 68.722 243.533 68.722 243.987C68.722 244.44 68.5708 244.843 68.2181 245.171ZM74.4921 245.171C74.1394 245.499 73.7362 245.675 73.2826 245.675C72.8291 245.675 72.426 245.499 72.0984 245.171C71.7708 244.843 71.5945 244.44 71.5945 243.987C71.5945 243.533 71.7708 243.13 72.0984 242.777C72.426 242.45 72.8291 242.299 73.2826 242.299C73.7362 242.299 74.1394 242.45 74.4921 242.777C74.8197 243.13 74.996 243.533 74.996 243.987C74.996 244.44 74.8197 244.843 74.4921 245.171Z" fill="#4599FF"/>
</g>
<path d="M53.424 279.734V280.658H43.33V279.734H47.838V278.278H49V279.734H53.424ZM51.296 283.444C51.296 282.688 50.246 282.24 48.426 282.24C46.592 282.24 45.528 282.688 45.528 283.444C45.528 284.214 46.592 284.648 48.426 284.648C50.246 284.648 51.296 284.214 51.296 283.444ZM44.338 283.444C44.338 282.114 45.864 281.372 48.426 281.372C50.96 281.372 52.486 282.114 52.486 283.444C52.486 284.788 50.96 285.53 48.426 285.53C45.864 285.53 44.338 284.788 44.338 283.444ZM54.124 286.384V287.308H51.156V290.92H50.008V287.308H46.844V290.92H45.696V287.308H42.742V286.384H54.124ZM56.0129 279.692H61.7529C61.7529 283.262 60.1149 286.496 56.0549 288.526L55.4249 287.63C58.6309 286.02 60.3529 283.612 60.6189 280.644H56.0129V279.692ZM67.0169 283.444V284.396H65.0009V290.906H63.8529V278.348H65.0009V283.444H67.0169ZM73.4733 283.99V286.93C75.5313 286.93 77.3793 286.832 79.5773 286.482L79.6893 287.42C77.4213 287.798 75.5173 287.882 73.3613 287.882H72.3253V283.066H76.9453V280.448H72.2833V279.51H78.1073V283.99H73.4733ZM80.7533 278.334H81.9013V290.92H80.7533V278.334ZM95.0182 284.662L94.5002 285.614C92.5962 285.18 90.6362 283.836 89.8382 281.988C89.0402 283.822 87.0802 285.166 85.1902 285.614L84.6722 284.662C86.8702 284.228 89.2362 282.338 89.2362 280.196V279.23H90.4402V280.196C90.4402 282.338 92.8202 284.242 95.0182 284.662ZM84.1962 288.274H95.5782V289.226H84.1962V288.274ZM106.875 285.124V286.048H98.2511V279.44H106.749V280.364H99.4131V282.226H106.469V283.136H99.4131V285.124H106.875ZM96.7811 288.344H108.177V289.282H96.7811V288.344Z" fill="#374254"/>
<rect x="171" y="171.87" width="151" height="151" rx="10" fill="#F4F7FB"/>
<path fill-rule="evenodd" clip-rule="evenodd" d="M268.778 216.514C259.399 207.599 244.695 207.661 235.377 216.669C228.382 223.417 226.308 233.292 229.31 241.928H232.963C230.394 235.768 230.982 228.71 234.573 223.015C234.758 225.739 235.439 229.206 237.359 232.827C237.947 232.549 238.597 232.425 239.309 232.425C239.959 232.425 240.578 232.549 241.166 232.827L241.352 232.92C237.668 227.225 237.792 221.746 238.04 219.424C241.042 219.176 249.369 219.424 256.272 227.689L246.212 237.378L248.626 239.792L268.778 220.353C269.304 219.857 269.614 219.145 269.614 218.433C269.583 217.69 269.304 217.009 268.778 216.514ZM258.718 225.336C252.96 218.557 246.336 216.545 241.754 216.081C244.974 214.223 248.564 213.264 252.155 213.264C257.046 213.264 261.937 214.997 265.868 218.464L258.718 225.336ZM269.273 249.327L256.984 236.604C256.334 235.923 255.251 235.923 254.57 236.573C253.889 237.223 253.889 238.307 254.539 238.988L266.828 251.71C267.168 252.051 267.602 252.236 268.066 252.236C268.53 252.236 268.933 252.082 269.242 251.772C269.923 251.122 269.923 250.039 269.273 249.357V249.327ZM240.485 257.344L249.895 247.934V247.965C250.267 247.593 250.453 247.191 250.453 246.695C250.453 246.2 250.267 245.798 249.895 245.457L240.516 236.078C240.33 235.892 240.114 235.768 239.928 235.675C239.742 235.582 239.525 235.552 239.309 235.552C238.813 235.552 238.411 235.706 238.102 236.016C237.792 236.325 237.637 236.697 237.637 237.161C237.637 237.409 237.668 237.656 237.761 237.842C237.854 238.028 238.132 238.368 238.132 238.368L241.352 241.588L245.297 245.202L242.033 245.024H224.946C224.45 245.024 224.017 245.179 223.707 245.488C223.398 245.798 223.243 246.169 223.243 246.695C223.243 247.222 223.398 247.624 223.707 247.934C224.017 248.243 224.419 248.398 224.946 248.398H242.002L245.289 248.199L241.321 251.834L238.102 255.053C237.947 255.208 237.823 255.363 237.73 255.579C237.637 255.796 237.606 256.013 237.606 256.26C237.606 256.725 237.73 257.096 238.071 257.406C238.411 257.715 238.783 257.87 239.278 257.87C239.742 257.87 240.145 257.684 240.485 257.344Z" fill="#4599FF"/>
<path d="M215.924 279.734V280.658H205.83V279.734H210.338V278.278H211.5V279.734H215.924ZM213.796 283.444C213.796 282.688 212.746 282.24 210.926 282.24C209.092 282.24 208.028 282.688 208.028 283.444C208.028 284.214 209.092 284.648 210.926 284.648C212.746 284.648 213.796 284.214 213.796 283.444ZM206.838 283.444C206.838 282.114 208.364 281.372 210.926 281.372C213.46 281.372 214.986 282.114 214.986 283.444C214.986 284.788 213.46 285.53 210.926 285.53C208.364 285.53 206.838 284.788 206.838 283.444ZM216.624 286.384V287.308H213.656V290.92H212.508V287.308H209.344V290.92H208.196V287.308H205.242V286.384H216.624ZM218.513 279.692H224.253C224.253 283.262 222.615 286.496 218.555 288.526L217.925 287.63C221.131 286.02 222.853 283.612 223.119 280.644H218.513V279.692ZM229.517 283.444V284.396H227.501V290.906H226.353V278.348H227.501V283.444H229.517ZM244.793 282.45L244.359 283.346C242.427 283.038 240.579 282.03 239.781 280.602C238.997 282.044 237.135 283.038 235.189 283.346L234.769 282.45C237.009 282.128 239.193 280.756 239.193 279.118V278.558H240.369V279.118C240.369 280.714 242.567 282.128 244.793 282.45ZM239.781 290.01C241.741 290.01 242.903 289.534 242.903 288.666C242.903 287.812 241.741 287.322 239.781 287.322C237.793 287.322 236.631 287.812 236.631 288.666C236.631 289.534 237.793 290.01 239.781 290.01ZM239.781 286.44C242.455 286.44 244.065 287.238 244.065 288.666C244.065 290.108 242.455 290.906 239.781 290.906C237.093 290.906 235.469 290.108 235.469 288.666C235.469 287.238 237.093 286.44 239.781 286.44ZM234.097 284.34H245.451V285.278H234.097V284.34ZM257 278.362V287.532H255.852V278.362H257ZM248.11 282.31C248.11 283.556 249.034 284.424 250.252 284.424C251.498 284.424 252.422 283.556 252.422 282.31C252.422 281.092 251.498 280.224 250.252 280.224C249.034 280.224 248.11 281.092 248.11 282.31ZM253.542 282.31C253.542 284.13 252.128 285.418 250.252 285.418C248.39 285.418 246.99 284.13 246.99 282.31C246.99 280.504 248.39 279.23 250.252 279.23C252.128 279.23 253.542 280.504 253.542 282.31ZM250.07 289.688H257.378V290.626H248.922V286.594H250.07V289.688ZM266.887 285.39V288.344H270.387V285.39C269.855 285.516 269.253 285.586 268.623 285.586C268.007 285.586 267.405 285.516 266.887 285.39ZM268.623 280.042C266.607 280.042 265.165 280.966 265.165 282.366C265.165 283.766 266.607 284.69 268.623 284.69C270.639 284.69 272.095 283.766 272.095 282.366C272.095 280.966 270.639 280.042 268.623 280.042ZM271.535 288.344H274.349V289.296H262.939V288.344H265.739V284.956C264.689 284.41 264.059 283.5 264.059 282.366C264.059 280.406 265.963 279.146 268.623 279.146C271.297 279.146 273.187 280.406 273.187 282.366C273.187 283.5 272.571 284.396 271.535 284.942V288.344ZM282.23 281.918H284.736V278.348H285.898V285.964H284.736V282.87H282.23V281.918ZM282.986 284.536L282.44 285.432C280.998 284.984 279.864 284.046 279.29 282.828C278.758 284.2 277.624 285.264 276.14 285.754L275.58 284.872C277.428 284.242 278.688 282.716 278.688 281.022V280.784H275.902V279.86H278.688V278.278H279.836V279.86H282.608V280.784H279.836V281.022C279.836 282.59 281.138 283.99 282.986 284.536ZM281.74 289.996C283.644 289.996 284.792 289.464 284.792 288.582C284.792 287.714 283.658 287.182 281.74 287.182C279.85 287.182 278.716 287.714 278.716 288.582C278.716 289.464 279.85 289.996 281.74 289.996ZM281.74 286.286C284.344 286.286 285.94 287.126 285.94 288.582C285.94 290.052 284.344 290.892 281.74 290.892C279.164 290.892 277.568 290.052 277.568 288.582C277.568 287.126 279.164 286.286 281.74 286.286Z" fill="#374254"/>
<rect x="342" y="171.87" width="151" height="151" rx="10" fill="#F4F7FB"/>
<path d="M399.579 253.773V213.968C399.579 212.707 399.909 211.709 400.569 210.973C401.245 210.238 402.16 209.87 403.316 209.87H431.706C432.847 209.87 433.748 210.238 434.408 210.973C435.084 211.709 435.421 212.707 435.421 213.968V253.773C435.421 255.018 435.084 256.009 434.408 256.744C433.748 257.495 432.847 257.87 431.706 257.87H403.316C402.16 257.87 401.245 257.495 400.569 256.744C399.909 256.009 399.579 255.018 399.579 253.773ZM403.204 252.94C403.204 253.39 403.309 253.72 403.519 253.93C403.729 254.14 404.059 254.245 404.509 254.245H430.513C430.948 254.245 431.271 254.14 431.481 253.93C431.691 253.72 431.796 253.39 431.796 252.94V214.801C431.796 214.35 431.691 214.02 431.481 213.81C431.271 213.6 430.948 213.495 430.513 213.495H404.509C404.059 213.495 403.729 213.6 403.519 213.81C403.309 214.02 403.204 214.35 403.204 214.801V252.94ZM409.665 255.956V247.604C409.665 246.628 409.883 245.915 410.318 245.465C410.768 245 411.451 244.767 412.367 244.767H422.633C423.564 244.767 424.247 245 424.682 245.465C425.117 245.915 425.335 246.628 425.335 247.604V255.956H422.386V248.437C422.386 247.956 422.145 247.716 421.665 247.716H413.335C412.855 247.716 412.615 247.956 412.615 248.437V255.956H409.665ZM410.025 223.334C409.44 223.334 409.147 223.026 409.147 222.41V218.155C409.147 217.54 409.44 217.232 410.025 217.232H414.416C415.031 217.232 415.339 217.54 415.339 218.155V222.41C415.339 223.026 415.031 223.334 414.416 223.334H410.025ZM420.584 223.334C419.984 223.334 419.684 223.026 419.684 222.41V218.155C419.684 217.54 419.984 217.232 420.584 217.232H424.952C425.568 217.232 425.875 217.54 425.875 218.155V222.41C425.875 223.026 425.568 223.334 424.952 223.334H420.584ZM410.025 232.249C409.44 232.249 409.147 231.941 409.147 231.326V227.071C409.147 226.455 409.44 226.148 410.025 226.148H414.416C415.031 226.148 415.339 226.455 415.339 227.071V231.326C415.339 231.941 415.031 232.249 414.416 232.249H410.025ZM420.584 232.249C419.984 232.249 419.684 231.941 419.684 231.326V227.071C419.684 226.455 419.984 226.148 420.584 226.148H424.952C425.568 226.148 425.875 226.455 425.875 227.071V231.326C425.875 231.941 425.568 232.249 424.952 232.249H420.584ZM410.025 241.165C409.44 241.165 409.147 240.857 409.147 240.242V235.986C409.147 235.371 409.44 235.063 410.025 235.063H414.416C415.031 235.063 415.339 235.371 415.339 235.986V240.242C415.339 240.857 415.031 241.165 414.416 241.165H410.025ZM420.584 241.165C419.984 241.165 419.684 240.857 419.684 240.242V235.986C419.684 235.371 419.984 235.063 420.584 235.063H424.952C425.568 235.063 425.875 235.371 425.875 235.986V240.242C425.875 240.857 425.568 241.165 424.952 241.165H420.584Z" fill="#4599FF"/>
<path d="M407.874 286.468V289.674H415.532V290.612H406.74V286.468H407.874ZM414.846 284.13H416.638V285.054H405.228V284.13H413.684C414.034 282.394 414.034 281.162 414.034 280.07V280.028H406.684V279.09H415.168V280.07C415.168 281.148 415.168 282.422 414.846 284.13ZM426.633 283.024V279.972H420.403V283.024H426.633ZM427.767 279.048V283.934H419.283V279.048H427.767ZM429.223 285.642V286.566H424.071V290.892H422.923V286.566H417.827V285.642H429.223Z" fill="#151825"/>
<rect x="513" y="171.87" width="151" height="151" rx="10" fill="#F4F7FB"/>
<path d="M566.797 257.87C564.698 257.87 563.106 257.25 561.968 256.037C560.856 254.824 560.3 253.076 560.3 250.735V230.29C560.3 227.95 560.856 226.173 561.968 224.96C563.106 223.748 564.698 223.155 566.797 223.155H596.222L592.86 226.878H566.771C564.85 226.878 563.889 227.95 563.889 230.093V250.933C563.889 251.948 564.142 252.738 564.648 253.302C565.153 253.866 565.861 254.148 566.771 254.148H600.444C601.354 254.148 602.061 253.866 602.567 253.302C603.073 252.738 603.325 251.948 603.325 250.933V234.464L606.915 230.459V250.707C606.915 253.048 606.359 254.796 605.221 256.009C604.109 257.222 602.516 257.842 600.418 257.842H566.797V257.87ZM572.105 244.052C571.22 244.052 570.487 243.714 569.855 243.009C569.223 242.304 568.92 241.486 568.92 240.499C568.92 239.512 569.223 238.694 569.855 237.989C570.487 237.284 571.22 236.945 572.105 236.945C572.99 236.945 573.723 237.284 574.355 237.989C574.987 238.694 575.29 239.512 575.29 240.499C575.29 241.486 574.987 242.304 574.355 243.009C573.723 243.714 572.99 244.052 572.105 244.052ZM581.686 244.052C580.801 244.052 580.068 243.714 579.436 243.009C578.804 242.304 578.501 241.486 578.501 240.499C578.501 239.512 578.804 238.694 579.436 237.989C580.068 237.284 580.801 236.945 581.686 236.945C582.571 236.945 583.304 237.284 583.936 237.989C584.568 238.694 584.871 239.512 584.871 240.499C584.871 241.486 584.568 242.304 583.936 243.009C583.304 243.714 582.571 244.052 581.686 244.052ZM588.714 241.796C588.512 241.909 588.309 241.852 588.132 241.655C587.955 241.429 587.93 241.232 588.031 241.006L590.155 236.128L609.696 214.329L612.83 217.769L593.264 239.568L588.739 241.796H588.714ZM614.448 215.88L611.364 212.383L613.033 210.55C613.412 210.127 613.842 209.901 614.322 209.873C614.828 209.845 615.257 210.014 615.611 210.409L616.142 211.001C616.521 211.424 616.724 211.932 616.698 212.496C616.698 213.032 616.496 213.539 616.117 213.99L614.448 215.88Z" fill="#4599FF"/>
<path d="M564.374 286.468V289.674H572.032V290.612H563.24V286.468H564.374ZM571.346 284.13H573.138V285.054H561.728V284.13H570.184C570.534 282.394 570.534 281.162 570.534 280.07V280.028H563.184V279.09H571.668V280.07C571.668 281.148 571.668 282.422 571.346 284.13ZM575.937 284.018V286.846C577.771 286.846 578.891 286.79 580.235 286.524L580.347 287.476C578.891 287.756 577.687 287.798 575.657 287.798H574.831V279.79H579.787V280.728H575.937V283.108H579.591V284.018H575.937ZM583.917 278.348H585.009V290.906H583.917V284.326H582.251V290.29H581.159V278.628H582.251V283.388H583.917V278.348ZM591.339 279.706H597.219C597.219 283.332 595.553 286.524 591.381 288.568L590.765 287.63C594.139 286.02 595.819 283.612 596.057 280.63H591.339V279.706ZM599.753 278.348H600.901V290.906H599.753V278.348ZM604.456 288.092V287.154H613.192V290.794H612.044V288.092H604.456ZM609.468 285.25H614.578V286.188H603.182V285.25H608.306V283.934H604.652V280.868H611.988V279.566H604.624V278.67H613.122V281.722H605.786V283.038H613.388V283.934H609.468V285.25Z" fill="#151825"/>
<rect x="684" y="171.87" width="151" height="151" rx="10" fill="#F4F7FB"/>
<path d="M760.773 221.231C761.248 221.231 761.65 221.396 761.981 221.727C762.312 222.058 762.477 222.46 762.477 222.935V237.774L760.514 231.735L767.697 241.419C768.027 241.851 768.171 242.303 768.128 242.778C768.099 243.238 767.884 243.605 767.481 243.878C767.05 244.18 766.597 244.295 766.122 244.223C765.662 244.137 765.252 243.864 764.893 243.403L759.565 236.372C759.393 236.142 759.263 235.919 759.177 235.703C759.091 235.473 759.048 235.229 759.048 234.97V222.935C759.048 222.46 759.213 222.058 759.544 221.727C759.889 221.396 760.299 221.231 760.773 221.231ZM761.593 255.87C759.177 255.87 756.869 255.482 754.669 254.705C752.469 253.943 750.449 252.865 748.608 251.47C746.768 250.09 745.165 248.486 743.799 246.66C743.425 246.186 743.281 245.69 743.367 245.172C743.468 244.654 743.734 244.259 744.165 243.986C744.625 243.713 745.085 243.641 745.546 243.77C746.02 243.885 746.423 244.166 746.753 244.611C747.846 246.135 749.155 247.466 750.679 248.601C752.218 249.737 753.907 250.615 755.748 251.233C757.588 251.866 759.536 252.189 761.593 252.203C764.138 252.218 766.518 251.751 768.732 250.801C770.946 249.852 772.887 248.544 774.555 246.876C776.238 245.194 777.553 243.245 778.502 241.031C779.451 238.802 779.926 236.415 779.926 233.87C779.926 231.325 779.451 228.945 778.502 226.731C777.553 224.517 776.238 222.575 774.555 220.907C772.887 219.225 770.946 217.917 768.732 216.982C766.518 216.033 764.138 215.558 761.593 215.558C759.048 215.558 756.668 216.033 754.453 216.982C752.239 217.917 750.291 219.218 748.608 220.886C746.926 222.554 745.61 224.495 744.661 226.709C743.727 228.924 743.259 231.303 743.259 233.849H739.593C739.593 230.843 740.168 228.018 741.318 225.372C742.468 222.712 744.057 220.375 746.085 218.362C748.112 216.335 750.449 214.746 753.095 213.596C755.755 212.445 758.587 211.87 761.593 211.87C764.598 211.87 767.423 212.445 770.069 213.596C772.729 214.746 775.073 216.335 777.101 218.362C779.128 220.39 780.717 222.734 781.867 225.394C783.018 228.039 783.593 230.865 783.593 233.87C783.593 236.875 783.018 239.708 781.867 242.368C780.717 245.014 779.128 247.351 777.101 249.378C775.073 251.405 772.729 252.994 770.069 254.145C767.423 255.295 764.598 255.87 761.593 255.87ZM736.94 229.707H746.84C747.343 229.707 747.724 229.815 747.983 230.031C748.242 230.232 748.364 230.505 748.35 230.851C748.35 231.181 748.213 231.548 747.94 231.951L743.108 238.831C742.763 239.32 742.361 239.571 741.901 239.586C741.44 239.586 741.031 239.334 740.671 238.831L735.84 231.972C735.567 231.569 735.423 231.196 735.408 230.851C735.394 230.505 735.516 230.232 735.775 230.031C736.034 229.815 736.422 229.707 736.94 229.707Z" fill="#4599FF"/>
<path d="M751.694 279.44V281.694C751.694 283.99 753.192 286.3 755.054 287.14L754.368 288.064C752.94 287.364 751.736 285.88 751.134 284.088C750.56 285.978 749.356 287.546 747.886 288.302L747.186 287.364C749.034 286.482 750.56 284.074 750.56 281.694V279.44H751.694ZM756.37 278.348H757.518V290.934H756.37V278.348ZM760.373 279.328H766.225C766.225 282.576 763.943 284.956 760.331 286.09L759.869 285.18C762.823 284.256 764.755 282.478 764.993 280.266H760.373V279.328ZM762.907 286.594V289.688H770.131V290.626H761.759V286.594H762.907ZM769.585 282.17H771.433V283.122H769.585V287.532H768.437V278.362H769.585V282.17Z" fill="#151825"/>
<rect x="855" y="171.87" width="151" height="151" rx="10" fill="#F4F7FB"/>
<path d="M908.026 244.968C907.602 244.968 907.242 244.82 906.945 244.523C906.648 244.237 906.5 243.876 906.5 243.442C906.5 240.686 906.882 238.057 907.645 235.556C908.408 233.044 909.489 230.733 910.888 228.624C912.287 226.514 913.93 224.67 915.817 223.091L917.963 225.269C916.257 226.647 914.773 228.279 913.512 230.166C912.25 232.042 911.275 234.104 910.586 236.351C909.897 238.598 909.553 240.962 909.553 243.442C909.553 243.876 909.404 244.237 909.107 244.523C908.811 244.82 908.45 244.968 908.026 244.968ZM952.942 244.968C952.528 244.968 952.173 244.82 951.877 244.523C951.59 244.237 951.447 243.876 951.447 243.442C951.447 240.94 951.092 238.555 950.382 236.287C949.672 234.019 948.676 231.936 947.393 230.039C946.11 228.141 944.595 226.498 942.846 225.11C941.097 223.711 939.178 222.63 937.09 221.866C935.002 221.103 932.803 220.722 930.492 220.722C929.316 220.722 928.165 220.828 927.042 221.04C925.929 221.252 924.848 221.559 923.798 221.962L921.429 219.593C922.829 218.967 924.286 218.49 925.802 218.162C927.328 217.823 928.892 217.653 930.492 217.653C933.131 217.653 935.649 218.093 938.044 218.973C940.44 219.842 942.639 221.066 944.642 222.646C946.646 224.225 948.384 226.09 949.857 228.242C951.331 230.383 952.47 232.747 953.276 235.333C954.092 237.909 954.5 240.612 954.5 243.442C954.5 243.876 954.346 244.237 954.039 244.523C953.742 244.82 953.376 244.968 952.942 244.968ZM915.404 244.968C914.99 244.968 914.635 244.82 914.338 244.523C914.042 244.237 913.893 243.882 913.893 243.458C913.893 241.454 914.201 239.536 914.815 237.702C915.441 235.858 916.32 234.178 917.455 232.662C918.599 231.136 919.946 229.843 921.493 228.783L922.94 230.229C923.003 230.378 923.072 230.532 923.147 230.691C923.231 230.85 923.321 230.998 923.417 231.136C922.103 232.016 920.963 233.091 919.999 234.363C919.034 235.635 918.287 237.045 917.757 238.593C917.227 240.14 916.962 241.762 916.962 243.458C916.962 243.882 916.808 244.237 916.501 244.523C916.193 244.82 915.828 244.968 915.404 244.968ZM946.614 244.396L943.768 241.55C943.641 240.087 943.296 238.699 942.735 237.384C942.173 236.059 941.441 234.856 940.54 233.775C939.65 232.694 938.606 231.772 937.408 231.009C937.578 230.457 937.679 229.896 937.71 229.323C937.742 228.74 937.71 228.168 937.615 227.606C939.523 228.571 941.187 229.864 942.607 231.486C944.038 233.097 945.146 234.93 945.93 236.987C946.725 239.032 947.123 241.189 947.123 243.458C947.123 243.86 946.953 244.173 946.614 244.396ZM934.101 232.28L926.962 225.142C927.386 224.591 927.906 224.156 928.521 223.838C929.146 223.509 929.814 223.345 930.524 223.345C931.414 223.345 932.236 223.584 932.988 224.061C933.741 224.527 934.345 225.163 934.801 225.968C935.267 226.774 935.5 227.675 935.5 228.671C935.5 229.392 935.373 230.065 935.119 230.691C934.864 231.305 934.525 231.835 934.101 232.28ZM922.542 245.254C921.832 245.254 921.27 245.095 920.857 244.777C920.454 244.459 920.253 244.009 920.253 243.426C920.253 242.705 920.449 241.958 920.841 241.184C921.233 240.4 921.8 239.652 922.542 238.942C923.284 238.232 924.18 237.623 925.229 237.114C926.289 236.605 927.482 236.266 928.807 236.096L937.965 245.254H922.542ZM945.501 250.04L914.974 219.497C914.731 219.264 914.609 218.967 914.609 218.607C914.609 218.247 914.731 217.95 914.974 217.717C915.229 217.462 915.531 217.335 915.881 217.335C916.23 217.325 916.532 217.452 916.787 217.717L947.298 248.243C947.552 248.498 947.674 248.795 947.663 249.134C947.663 249.484 947.541 249.78 947.298 250.024C947.054 250.279 946.757 250.406 946.407 250.406C946.057 250.406 945.755 250.284 945.501 250.04Z" fill="#4599FF"/>
<path d="M907.97 280.588V282.184C907.97 284.186 909.398 286.412 911.218 287.266L910.56 288.19C909.16 287.49 907.984 286.02 907.41 284.34C906.836 286.174 905.618 287.77 904.204 288.498L903.532 287.588C905.324 286.692 906.836 284.312 906.836 282.184V280.588H903.966V279.636H910.756V280.588H907.97ZM915.474 283.416V284.382H913.402V290.906H912.254V278.362H913.402V283.416H915.474ZM918.217 283.99V286.93C920.275 286.93 922.123 286.832 924.321 286.482L924.433 287.42C922.165 287.798 920.261 287.882 918.105 287.882H917.069V283.066H921.689V280.448H917.027V279.51H922.851V283.99H918.217ZM925.497 278.334H926.645V290.92H925.497V278.334ZM941.725 278.348H942.873V290.92H941.725V278.348ZM933.311 279.412H934.445V282.73H938.085V279.412H939.219V287.882H933.311V279.412ZM934.445 283.64V286.944H938.085V283.64H934.445ZM950.88 279.482C948.878 279.482 947.632 280.028 947.632 280.952C947.632 281.862 948.878 282.408 950.88 282.408C952.854 282.408 954.1 281.862 954.1 280.952C954.1 280.028 952.854 279.482 950.88 279.482ZM950.88 283.29C948.15 283.29 946.456 282.436 946.456 280.952C946.456 279.454 948.15 278.586 950.88 278.586C953.582 278.586 955.276 279.454 955.276 280.952C955.276 282.436 953.582 283.29 950.88 283.29ZM954.044 289.814V287.518H947.716V289.814H954.044ZM956.55 285.18H951.454V286.608H955.164V290.738H946.596V286.608H950.306V285.18H945.196V284.256H956.55V285.18Z" fill="#151825"/>
<rect x="1026" y="171.87" width="151" height="151" rx="10" fill="#F4F7FB"/>
<path d="M1085.05 250.87C1081.39 250.87 1079.52 249.011 1079.52 245.388V222.352C1079.52 218.729 1081.39 216.87 1085.05 216.87H1117.95C1121.63 216.87 1123.48 218.748 1123.48 222.352V245.388C1123.48 248.993 1121.63 250.87 1117.95 250.87H1085.05ZM1085.09 248.542H1117.91C1119.97 248.542 1121.16 247.434 1121.16 245.257V222.484C1121.16 220.306 1119.97 219.198 1117.91 219.198H1085.09C1082.99 219.198 1081.84 220.306 1081.84 222.484V245.257C1081.84 247.434 1082.99 248.542 1085.09 248.542ZM1093.45 233.748C1091.14 233.748 1089.28 231.796 1089.28 229.186C1089.28 226.745 1091.14 224.718 1093.45 224.718C1095.77 224.718 1097.63 226.745 1097.63 229.186C1097.63 231.796 1095.77 233.748 1093.45 233.748ZM1105.89 227.121C1105.35 227.121 1104.95 226.708 1104.95 226.182C1104.95 225.675 1105.35 225.281 1105.89 225.281H1116.46C1116.99 225.281 1117.4 225.675 1117.4 226.182C1117.4 226.708 1116.99 227.121 1116.46 227.121H1105.89ZM1105.89 234.818C1105.35 234.818 1104.95 234.405 1104.95 233.88C1104.95 233.373 1105.35 232.96 1105.89 232.96H1116.46C1116.99 232.96 1117.4 233.373 1117.4 233.88C1117.4 234.405 1116.99 234.818 1116.46 234.818H1105.89ZM1085.84 242.516C1085.3 242.516 1085.05 242.159 1085.05 241.671C1085.05 239.85 1087.74 235.081 1093.45 235.081C1099.15 235.081 1101.86 239.85 1101.86 241.671C1101.86 242.159 1101.61 242.516 1101.07 242.516H1085.84ZM1105.89 242.516C1105.35 242.516 1104.95 242.103 1104.95 241.596C1104.95 241.07 1105.35 240.657 1105.89 240.657H1116.46C1116.99 240.657 1117.4 241.07 1117.4 241.596C1117.4 242.103 1116.99 242.516 1116.46 242.516H1105.89Z" fill="#4599FF"/>
<path d="M1076.41 284.48L1075.85 285.39C1074.41 284.886 1073.26 283.85 1072.69 282.534C1072.16 283.962 1071 285.082 1069.51 285.628L1068.91 284.732C1070.81 284.06 1072.09 282.422 1072.09 280.658V280.154H1069.22V279.23H1076.11V280.154H1073.26V280.658C1073.26 282.338 1074.57 283.864 1076.41 284.48ZM1070.65 287.532V286.608H1079.05V290.906H1077.9V287.532H1070.65ZM1077.9 278.348H1079.05V285.95H1077.9V278.348ZM1087.92 285.768H1090.47V278.348H1091.62V287.91H1090.47V286.622H1087.92V285.768ZM1085.36 279.706C1084.17 279.706 1083.36 280.238 1083.36 281.036C1083.36 281.848 1084.17 282.38 1085.36 282.38C1086.55 282.38 1087.36 281.848 1087.36 281.036C1087.36 280.238 1086.55 279.706 1085.36 279.706ZM1085.36 283.234C1083.52 283.234 1082.26 282.38 1082.26 281.036C1082.26 279.72 1083.52 278.852 1085.36 278.852C1087.19 278.852 1088.45 279.72 1088.45 281.036C1088.45 282.38 1087.19 283.234 1085.36 283.234ZM1084.91 287.462V285.04C1083.66 285.096 1082.46 285.11 1081.42 285.11L1081.27 284.158C1083.59 284.158 1086.7 284.13 1089.36 283.794L1089.46 284.62C1088.35 284.788 1087.19 284.914 1086.06 284.984V287.462H1084.91ZM1084.21 289.688H1091.94V290.626H1083.06V286.972H1084.21V289.688ZM1099.47 283.99V286.93C1101.53 286.93 1103.38 286.832 1105.58 286.482L1105.69 287.42C1103.42 287.798 1101.52 287.882 1099.36 287.882H1098.33V283.066H1102.95V280.448H1098.28V279.51H1104.11V283.99H1099.47ZM1106.75 278.334H1107.9V290.92H1106.75V278.334ZM1121.02 284.662L1120.5 285.614C1118.6 285.18 1116.64 283.836 1115.84 281.988C1115.04 283.822 1113.08 285.166 1111.19 285.614L1110.67 284.662C1112.87 284.228 1115.24 282.338 1115.24 280.196V279.23H1116.44V280.196C1116.44 282.338 1118.82 284.242 1121.02 284.662ZM1110.2 288.274H1121.58V289.226H1110.2V288.274ZM1132.88 285.124V286.048H1124.25V279.44H1132.75V280.364H1125.41V282.226H1132.47V283.136H1125.41V285.124H1132.88ZM1122.78 288.344H1134.18V289.282H1122.78V288.344Z" fill="#151825"/>
<defs>
<clipPath id="clip0_370_885">
<rect width="45.3542" height="47" fill="white" transform="translate(394.823 39.3701)"/>
</clipPath>
</defs>
</svg>
