<svg width="18" height="13" viewBox="0 0 18 13" fill="none" xmlns="http://www.w3.org/2000/svg">
<g clip-path="url(#clip0_472_3209)">
<mask id="mask0_472_3209" style="mask-type:luminance" maskUnits="userSpaceOnUse" x="0" y="0" width="18" height="13">
<path d="M17.5 0.5H0.5V12.5H17.5V0.5Z" fill="white"/>
</mask>
<g mask="url(#mask0_472_3209)">
<path d="M2.26034 12.3558C1.91294 12.3558 1.63936 12.2777 1.43961 12.1213C1.24419 11.9694 1.14648 11.7587 1.14648 11.4895C1.14648 11.0726 1.27242 10.6319 1.52428 10.1672C1.77615 9.70256 2.14092 9.26831 2.6186 8.86445C3.09628 8.45625 3.67167 8.12622 4.34476 7.87435C5.02219 7.61814 5.78213 7.49004 6.62458 7.49004C7.47138 7.49004 8.23132 7.61814 8.90441 7.87435C9.58185 8.12622 10.1572 8.45625 10.6306 8.86445C11.1082 9.26831 11.473 9.70256 11.7249 10.1672C11.9811 10.6319 12.1092 11.0726 12.1092 11.4895C12.1092 11.7587 12.0093 11.9694 11.8096 12.1213C11.6142 12.2777 11.3427 12.3558 10.9953 12.3558H2.26034ZM6.6311 6.32407C6.16645 6.32407 5.73654 6.19814 5.34137 5.94627C4.9462 5.69006 4.62702 5.347 4.38384 4.91709C4.145 4.48284 4.02558 3.99648 4.02558 3.458C4.02558 2.92821 4.145 2.45054 4.38384 2.02497C4.62702 1.5994 4.9462 1.26285 5.34137 1.01533C5.73654 0.767805 6.16645 0.644043 6.6311 0.644043C7.09575 0.644043 7.52566 0.765634 7.92083 1.00881C8.316 1.252 8.633 1.58637 8.87184 2.01194C9.11502 2.43316 9.23662 2.91084 9.23662 3.44497C9.23662 3.98779 9.11502 4.47632 8.87184 4.91058C8.633 5.34483 8.316 5.69006 7.92083 5.94627C7.52566 6.19814 7.09575 6.32407 6.6311 6.32407ZM13.438 6.70838C13.3294 6.70838 13.2296 6.6845 13.1384 6.63673C13.0515 6.58897 12.9668 6.51297 12.8843 6.40875L11.295 4.45461C11.1951 4.31999 11.1452 4.18538 11.1452 4.05076C11.1452 3.90745 11.1929 3.78586 11.2885 3.68598C11.3883 3.58176 11.5078 3.52965 11.6467 3.52965C11.7379 3.52965 11.8204 3.54919 11.8942 3.58828C11.9724 3.62302 12.0506 3.6925 12.1287 3.79672L13.412 5.45774L16.1152 1.11955C16.2368 0.924136 16.3888 0.826429 16.5711 0.826429C16.7058 0.826429 16.8274 0.869854 16.9359 0.956705C17.0445 1.04355 17.0988 1.15863 17.0988 1.30194C17.0988 1.37576 17.0814 1.44958 17.0467 1.52341C17.0163 1.59289 16.9815 1.65802 16.9424 1.71882L13.9656 6.40875C13.8354 6.60851 13.6595 6.70838 13.438 6.70838Z" fill="#007AFF"/>
</g>
</g>
<defs>
<clipPath id="clip0_472_3209">
<rect width="18" height="12" fill="white" transform="translate(0 0.5)"/>
</clipPath>
</defs>
</svg>
