<svg width="17" height="14" viewBox="0 0 17 14" fill="none" xmlns="http://www.w3.org/2000/svg">
<mask id="mask0_473_3271" style="mask-type:luminance" maskUnits="userSpaceOnUse" x="1" y="0" width="15" height="14">
<path d="M16 0H1V14H16V0Z" fill="white"/>
</mask>
<g mask="url(#mask0_473_3271)">
<path d="M1 12.0155V6.36804C1 5.98156 1.11508 5.68192 1.34523 5.46914C1.57973 5.25201 1.90325 5.14345 2.31579 5.14345H3.87258V2.03637C3.87258 1.36328 4.04194 0.85954 4.38066 0.525166C4.72372 0.186448 5.23614 0.0170898 5.91791 0.0170898H13.767C14.4488 0.0170898 14.9591 0.186448 15.2978 0.525166C15.6408 0.85954 15.8124 1.36328 15.8124 2.03637V11.9699C15.8124 12.6387 15.6408 13.1402 15.2978 13.4746C14.9591 13.8133 14.4488 13.9827 13.767 13.9827H2.96717C2.3071 13.9827 1.81422 13.8177 1.48853 13.4876C1.16284 13.1576 1 12.6669 1 12.0155ZM2.04872 12.0155C2.04872 12.2761 2.13557 12.4932 2.30927 12.6669C2.48732 12.8449 2.70661 12.934 2.96717 12.934C3.21903 12.934 3.43182 12.8471 3.60552 12.6734C3.78356 12.5041 3.87258 12.2848 3.87258 12.0155V6.19217H2.43303C2.31144 6.19217 2.21591 6.22691 2.14643 6.29639C2.08129 6.36153 2.04872 6.45272 2.04872 6.56997V12.0155ZM4.69983 12.934H13.7475C14.0732 12.934 14.3229 12.8471 14.4966 12.6734C14.6746 12.5041 14.7636 12.25 14.7636 11.9113V2.09499C14.7636 1.75627 14.6746 1.50007 14.4966 1.32636C14.3229 1.15266 14.0732 1.06581 13.7475 1.06581H5.93746C5.61177 1.06581 5.3599 1.15266 5.18186 1.32636C5.00815 1.50007 4.9213 1.75627 4.9213 2.09499V11.9504C4.9213 12.3195 4.84748 12.6474 4.69983 12.934ZM6.61489 3.89931C6.49764 3.89931 6.39993 3.86023 6.32177 3.78206C6.2436 3.69956 6.20452 3.60185 6.20452 3.48894C6.20452 3.38038 6.2436 3.28919 6.32177 3.21536C6.39993 3.1372 6.49764 3.09812 6.61489 3.09812H13.0831C13.196 3.09812 13.2915 3.1372 13.3697 3.21536C13.4479 3.28919 13.4869 3.38038 13.4869 3.48894C13.4869 3.60185 13.4479 3.69956 13.3697 3.78206C13.2915 3.86023 13.196 3.89931 13.0831 3.89931H6.61489ZM6.61489 6.19217C6.49764 6.19217 6.39993 6.15526 6.32177 6.08143C6.2436 6.00327 6.20452 5.90773 6.20452 5.79483C6.20452 5.68192 6.2436 5.58639 6.32177 5.50822C6.39993 5.43005 6.49764 5.39097 6.61489 5.39097H13.0831C13.196 5.39097 13.2915 5.43005 13.3697 5.50822C13.4479 5.58639 13.4869 5.68192 13.4869 5.79483C13.4869 5.90773 13.4479 6.00327 13.3697 6.08143C13.2915 6.15526 13.196 6.19217 13.0831 6.19217H6.61489ZM6.9992 10.8365C6.74734 10.8365 6.54975 10.767 6.40645 10.6281C6.26749 10.4848 6.19801 10.2894 6.19801 10.0418V8.49154C6.19801 8.23967 6.26749 8.04426 6.40645 7.9053C6.54975 7.76199 6.74734 7.69034 6.9992 7.69034H8.68628C8.9338 7.69034 9.12704 7.76199 9.266 7.9053C9.40931 8.04426 9.48096 8.23967 9.48096 8.49154V10.0418C9.48096 10.2894 9.40931 10.4848 9.266 10.6281C9.12704 10.767 8.9338 10.8365 8.68628 10.8365H6.9992ZM10.6534 8.49154C10.5362 8.49154 10.4385 8.45463 10.3603 8.3808C10.2865 8.30264 10.2496 8.20927 10.2496 8.10071C10.2496 7.98346 10.2865 7.88575 10.3603 7.80759C10.4385 7.72942 10.5362 7.69034 10.6534 7.69034H13.0766C13.1938 7.69034 13.2894 7.72942 13.3632 7.80759C13.4413 7.88575 13.4804 7.98346 13.4804 8.10071C13.4804 8.20927 13.4413 8.30264 13.3632 8.3808C13.2894 8.45463 13.1938 8.49154 13.0766 8.49154H10.6534ZM10.6534 10.8365C10.5362 10.8365 10.4385 10.7996 10.3603 10.7258C10.2865 10.6476 10.2496 10.5543 10.2496 10.4457C10.2496 10.3284 10.2865 10.2307 10.3603 10.1526C10.4385 10.0744 10.5362 10.0353 10.6534 10.0353H13.0766C13.1938 10.0353 13.2894 10.0744 13.3632 10.1526C13.4413 10.2307 13.4804 10.3284 13.4804 10.4457C13.4804 10.5543 13.4413 10.6476 13.3632 10.7258C13.2894 10.7996 13.1938 10.8365 13.0766 10.8365H10.6534Z" fill="#007AFF"/>
</g>
</svg>
