<svg width="18" height="16" viewBox="0 0 18 16" fill="none" xmlns="http://www.w3.org/2000/svg">
<path d="M2.65931 12.2784C2.19465 12.2784 1.82771 12.146 1.55847 11.8811C1.29358 11.6119 1.16113 11.2427 1.16113 10.7737V2.96375C1.16113 2.49476 1.29358 2.12781 1.55847 1.86292C1.82771 1.59802 2.19465 1.46558 2.65931 1.46558H15.1853C15.6543 1.46558 16.0213 1.59802 16.2862 1.86292C16.5554 2.12781 16.69 2.49476 16.69 2.96375V10.7737C16.69 11.2427 16.5554 11.6119 16.2862 11.8811C16.0213 12.146 15.6543 12.2784 15.1853 12.2784H2.65931ZM2.67885 11.2297H15.1723C15.3156 11.2297 15.4285 11.1885 15.511 11.106C15.5979 11.0191 15.6413 10.904 15.6413 10.7607V2.98329C15.6413 2.83565 15.5979 2.72057 15.511 2.63806C15.4285 2.55555 15.3156 2.5143 15.1723 2.5143H2.67885C2.53554 2.5143 2.42047 2.55555 2.33362 2.63806C2.25111 2.72057 2.20985 2.83565 2.20985 2.98329V10.7607C2.20985 10.904 2.25111 11.0191 2.33362 11.106C2.42047 11.1885 2.53554 11.2297 2.67885 11.2297ZM6.86722 13.8287V12.1938H10.9839V13.8287H6.86722ZM6.82813 14.5908C6.68483 14.5908 6.56107 14.5387 6.45685 14.4345C6.35263 14.3346 6.30052 14.2109 6.30052 14.0632C6.30052 13.9156 6.35263 13.7896 6.45685 13.6854C6.56107 13.5855 6.68483 13.5356 6.82813 13.5356H11.023C11.1663 13.5356 11.2879 13.5855 11.3878 13.6854C11.492 13.7896 11.5441 13.9156 11.5441 14.0632C11.5441 14.2109 11.492 14.3346 11.3878 14.4345C11.2879 14.5387 11.1663 14.5908 11.023 14.5908H6.82813Z" fill="#007AFF"/>
</svg>
