<svg width="17" height="15" viewBox="0 0 17 15" fill="none" xmlns="http://www.w3.org/2000/svg">
<g clip-path="url(#clip0_472_3219)">
<mask id="mask0_472_3219" style="mask-type:luminance" maskUnits="userSpaceOnUse" x="0" y="0" width="17" height="15">
<path d="M16.5 0.5H0.5V14.5H16.5V0.5Z" fill="white"/>
</mask>
<g mask="url(#mask0_472_3219)">
<path d="M1.99817 11.7504C1.53352 11.7504 1.16658 11.6179 0.897341 11.353C0.632447 11.0838 0.5 10.7147 0.5 10.2457V2.43567C0.5 1.96667 0.632447 1.59973 0.897341 1.33484C1.16658 1.06995 1.53352 0.9375 1.99817 0.9375H14.5242C14.9932 0.9375 15.3601 1.06995 15.625 1.33484C15.8943 1.59973 16.0289 1.96667 16.0289 2.43567V10.2457C16.0289 10.7147 15.8943 11.0838 15.625 11.353C15.3601 11.6179 14.9932 11.7504 14.5242 11.7504H1.99817ZM2.01771 10.7016H14.5112C14.6545 10.7016 14.7674 10.6604 14.8499 10.5779C14.9367 10.4911 14.9802 10.376 14.9802 10.2327V2.45521C14.9802 2.30756 14.9367 2.19249 14.8499 2.10998C14.7674 2.02747 14.6545 1.98622 14.5112 1.98622H2.01771C1.87441 1.98622 1.75933 2.02747 1.67248 2.10998C1.58997 2.19249 1.54872 2.30756 1.54872 2.45521V10.2327C1.54872 10.376 1.58997 10.4911 1.67248 10.5779C1.75933 10.6604 1.87441 10.7016 2.01771 10.7016ZM6.20608 13.3006V11.6657H10.3228V13.3006H6.20608ZM6.167 14.0627C6.0237 14.0627 5.89993 14.0106 5.79571 13.9064C5.69149 13.8065 5.63938 13.6828 5.63938 13.5351C5.63938 13.3875 5.69149 13.2616 5.79571 13.1573C5.89993 13.0575 6.0237 13.0075 6.167 13.0075H10.3619C10.5052 13.0075 10.6268 13.0575 10.7267 13.1573C10.8309 13.2616 10.883 13.3875 10.883 13.5351C10.883 13.6828 10.8309 13.8065 10.7267 13.9064C10.6268 14.0106 10.5052 14.0627 10.3619 14.0627H6.167Z" fill="#007AFF"/>
</g>
</g>
<defs>
<clipPath id="clip0_472_3219">
<rect width="17" height="14" fill="white" transform="translate(0 0.5)"/>
</clipPath>
</defs>
</svg>
