<svg width="14" height="17" viewBox="0 0 14 17" fill="none" xmlns="http://www.w3.org/2000/svg">
<g clip-path="url(#clip0_472_3225)">
<mask id="mask0_472_3225" style="mask-type:luminance" maskUnits="userSpaceOnUse" x="0" y="0" width="14" height="17">
<path d="M13.5 0.5H0.5V16.5H13.5V0.5Z" fill="white"/>
</mask>
<g mask="url(#mask0_472_3225)">
<path d="M7.75326 15.6301C7.67076 15.6301 7.5991 15.6019 7.53831 15.5454C7.48186 15.4933 7.44712 15.4217 7.43409 15.3305C7.33421 14.6183 7.22565 14.019 7.1084 13.5327C6.99549 13.0506 6.8435 12.6533 6.65243 12.3406C6.46136 12.028 6.2095 11.7783 5.89683 11.5916C5.58851 11.4048 5.19334 11.255 4.71132 11.1421C4.23364 11.0249 3.64306 10.9206 2.93957 10.8294C2.84403 10.8208 2.76804 10.786 2.71159 10.7252C2.65513 10.6644 2.62691 10.5906 2.62691 10.5038C2.62691 10.4213 2.65513 10.3497 2.71159 10.2889C2.76804 10.2281 2.84403 10.1933 2.93957 10.1847C3.64306 10.1065 4.23582 10.0131 4.71784 9.90456C5.19986 9.79599 5.5972 9.64618 5.90986 9.45511C6.22252 9.26403 6.47439 9.01 6.66546 8.69299C6.85653 8.37599 7.00852 7.9743 7.12143 7.48794C7.23867 6.99723 7.3429 6.39362 7.43409 5.67711C7.44712 5.59026 7.48186 5.52077 7.53831 5.46866C7.5991 5.41221 7.67076 5.38398 7.75326 5.38398C7.84011 5.38398 7.91177 5.41221 7.96822 5.46866C8.02467 5.52077 8.06158 5.59026 8.07895 5.67711C8.17015 6.39362 8.2722 6.99723 8.3851 7.48794C8.50235 7.9743 8.65434 8.37599 8.84107 8.69299C9.03214 9.01 9.28401 9.26403 9.59667 9.45511C9.90933 9.64618 10.3067 9.79599 10.7887 9.90456C11.2707 10.0131 11.8656 10.1065 12.5735 10.1847C12.6647 10.1933 12.7385 10.2281 12.7949 10.2889C12.8514 10.3497 12.8796 10.4213 12.8796 10.5038C12.8796 10.5906 12.8514 10.6644 12.7949 10.7252C12.7385 10.786 12.6647 10.8208 12.5735 10.8294C11.8656 10.9076 11.2707 11.001 10.7887 11.1095C10.3067 11.2181 9.90933 11.3679 9.59667 11.559C9.28401 11.7457 9.03214 11.9976 8.84107 12.3146C8.65434 12.6316 8.50235 13.0355 8.3851 13.5262C8.2722 14.0169 8.17015 14.6183 8.07895 15.3305C8.06158 15.4217 8.02467 15.4933 7.96822 15.5454C7.91177 15.6019 7.84011 15.6301 7.75326 15.6301ZM3.33691 8.42593C3.20664 8.42593 3.13281 8.35427 3.11544 8.21097C3.06333 7.77672 3.00688 7.43583 2.94608 7.18831C2.88963 6.94078 2.79627 6.75622 2.66599 6.63463C2.54006 6.5087 2.34899 6.41316 2.09278 6.34803C1.84091 6.28289 1.49351 6.21341 1.05057 6.13958C0.902925 6.11787 0.829102 6.04405 0.829102 5.91812C0.829102 5.79653 0.894239 5.72487 1.02451 5.70316C1.4718 5.61631 1.82354 5.54032 2.07975 5.47518C2.33596 5.4057 2.5292 5.31016 2.65948 5.18857C2.78975 5.06698 2.88529 4.88677 2.94608 4.64793C3.00688 4.40474 3.06333 4.06603 3.11544 3.63177C3.13281 3.48847 3.20664 3.41682 3.33691 3.41682C3.46719 3.41682 3.54101 3.4863 3.55838 3.62526C3.61483 4.06386 3.67129 4.40909 3.72774 4.66095C3.78853 4.91282 3.8819 5.10389 4.00783 5.23417C4.13811 5.3601 4.33135 5.45347 4.58756 5.51426C4.84377 5.57506 5.19769 5.63802 5.64931 5.70316C5.70576 5.7075 5.75136 5.72922 5.7861 5.7683C5.82518 5.80738 5.84472 5.85732 5.84472 5.91812C5.84472 6.03971 5.77958 6.11353 5.64931 6.13958C5.19769 6.22644 4.84377 6.3046 4.58756 6.37408C4.33569 6.43922 4.14462 6.53475 4.01435 6.66069C3.88841 6.78228 3.79505 6.96467 3.73425 7.20785C3.67346 7.45103 3.61483 7.78975 3.55838 8.224C3.5497 8.28045 3.52581 8.32822 3.48673 8.3673C3.44765 8.40638 3.39771 8.42593 3.33691 8.42593ZM6.48959 3.94444C6.40708 3.94444 6.35931 3.90101 6.34628 3.81416C6.29417 3.54927 6.24858 3.34082 6.20949 3.18884C6.17475 3.03685 6.1183 2.92177 6.04014 2.84361C5.96631 2.7611 5.85124 2.69596 5.69491 2.64819C5.53857 2.60042 5.31928 2.55266 5.03701 2.50489C4.95016 2.48752 4.90674 2.43758 4.90674 2.35507C4.90674 2.27691 4.95016 2.22914 5.03701 2.21177C5.31928 2.15966 5.53857 2.11189 5.69491 2.06846C5.85124 2.0207 5.96631 1.95773 6.04014 1.87956C6.1183 1.79706 6.17475 1.67981 6.20949 1.52782C6.24858 1.37583 6.29417 1.16739 6.34628 0.902493C6.35931 0.815642 6.40708 0.772217 6.48959 0.772217C6.56775 0.772217 6.61552 0.815642 6.63289 0.902493C6.68066 1.16739 6.72408 1.37583 6.76317 1.52782C6.80225 1.67981 6.8587 1.79706 6.93253 1.87956C7.01069 1.95773 7.12794 2.0207 7.28427 2.06846C7.4406 2.11189 7.6599 2.15966 7.94216 2.21177C8.02901 2.22914 8.07244 2.27691 8.07244 2.35507C8.07244 2.43758 8.02901 2.48752 7.94216 2.50489C7.6599 2.55266 7.4406 2.60042 7.28427 2.64819C7.12794 2.69596 7.01069 2.7611 6.93253 2.84361C6.8587 2.92177 6.80225 3.03685 6.76317 3.18884C6.72408 3.34082 6.68066 3.54927 6.63289 3.81416C6.61552 3.90101 6.56775 3.94444 6.48959 3.94444Z" fill="#007AFF"/>
</g>
</g>
<defs>
<clipPath id="clip0_472_3225">
<rect width="14" height="16" fill="white" transform="translate(0 0.5)"/>
</clipPath>
</defs>
</svg>
