<svg width="16" height="16" viewBox="0 0 16 16" fill="none" xmlns="http://www.w3.org/2000/svg">
<g clip-path="url(#clip0_472_3217)">
<path d="M3.83653 12.6454C3.23726 12.0461 2.74439 11.399 2.3579 10.7042C1.97142 10.0094 1.69132 9.30158 1.51762 8.58072C1.34826 7.85551 1.2853 7.14551 1.32872 6.4507C1.37215 5.75156 1.52414 5.09366 1.78469 4.47702C2.04524 3.85604 2.41218 3.30888 2.88552 2.83555C3.38491 2.33616 3.95812 1.96487 4.60516 1.72169C5.2522 1.47851 5.9318 1.35041 6.64398 1.33738C7.3605 1.32435 8.07484 1.41771 8.78702 1.61747C9.49919 1.81288 10.1723 2.09949 10.8063 2.47729L10.1289 3.13518C9.6121 2.85726 9.05842 2.64014 8.46784 2.4838C7.87726 2.32747 7.2845 2.25148 6.68958 2.25582C6.09465 2.26016 5.52578 2.36221 4.98296 2.56197C4.44015 2.75738 3.95812 3.0657 3.5369 3.48693C3.0158 4.00803 2.65102 4.6225 2.44258 5.33033C2.23848 6.03382 2.18203 6.77857 2.27322 7.56456C2.36442 8.35056 2.59674 9.12787 2.9702 9.8965C3.34366 10.6608 3.84956 11.3621 4.48791 12.0005C4.87874 12.3957 5.29562 12.7279 5.73856 12.9971C6.18584 13.262 6.62878 13.4748 7.06738 13.6354C7.50597 13.8005 7.91417 13.9264 8.29197 14.0132C8.66977 14.1001 8.98894 14.1609 9.2495 14.1956C9.41017 14.2173 9.52742 14.2803 9.60124 14.3845C9.67506 14.4931 9.70546 14.6038 9.69243 14.7167C9.67941 14.8253 9.62513 14.9208 9.52959 15.0033C9.4384 15.0859 9.30812 15.1184 9.13876 15.1011C8.85215 15.075 8.50041 15.0142 8.08353 14.9187C7.66664 14.8275 7.21502 14.6907 6.72866 14.5083C6.24664 14.3259 5.75593 14.0827 5.25654 13.7788C4.76149 13.4748 4.28816 13.097 3.83653 12.6454ZM6.20755 10.6977L7.20416 10.2678C7.63842 10.6804 8.11175 11.0278 8.62417 11.31C9.14093 11.5879 9.66421 11.779 10.194 11.8832C10.7238 11.9831 11.2319 11.9744 11.7182 11.8572C12.2089 11.7399 12.6454 11.4902 13.0275 11.1081C13.4487 10.6869 13.7071 10.1788 13.8026 9.58384C13.8982 8.98457 13.8482 8.34622 13.6528 7.66878C13.4617 6.99135 13.1447 6.32477 12.7018 5.66905L13.3662 5.00464C13.7874 5.60391 14.1131 6.21838 14.3433 6.84805C14.5734 7.47771 14.7037 8.09435 14.7341 8.69796C14.7689 9.29723 14.6994 9.85959 14.5257 10.385C14.352 10.9062 14.0697 11.3643 13.6789 11.7595C13.2967 12.1416 12.8625 12.4195 12.3761 12.5932C11.8898 12.7626 11.3752 12.8408 10.8323 12.8277C10.2939 12.8104 9.75106 12.7148 9.2039 12.5411C8.65674 12.3631 8.12695 12.1177 7.61453 11.8051C7.10212 11.4924 6.63312 11.1233 6.20755 10.6977ZM7.06086 9.72714L5.78416 10.2287C5.71468 10.2548 5.65171 10.2396 5.59526 10.1831C5.54315 10.1267 5.53229 10.0659 5.56269 10.0007L6.09682 8.75659L11.9397 2.92023L12.9102 3.88427L7.06086 9.72714ZM13.3858 3.41528L12.4217 2.44472L12.9363 1.9171C13.0536 1.79986 13.1882 1.74123 13.3402 1.74123C13.4965 1.73689 13.6311 1.78683 13.744 1.89105L13.9134 2.04738C14.0393 2.16463 14.1001 2.30359 14.0958 2.46426C14.0958 2.62494 14.0328 2.76824 13.9069 2.89417L13.3858 3.41528Z" fill="#007AFF"/>
</g>
<defs>
<clipPath id="clip0_472_3217">
<rect width="16" height="15" fill="white" transform="translate(0 0.5)"/>
</clipPath>
</defs>
</svg>
