<svg width="15" height="13" viewBox="0 0 15 13" fill="none" xmlns="http://www.w3.org/2000/svg">
<g clip-path="url(#clip0_472_3203)">
<mask id="mask0_472_3203" style="mask-type:luminance" maskUnits="userSpaceOnUse" x="0" y="0" width="15" height="13">
<path d="M14.5 0.5H0.5V12.5H14.5V0.5Z" fill="white"/>
</mask>
<g mask="url(#mask0_472_3203)">
<path d="M0.997796 8.3637C0.90226 8.26382 0.854492 8.14874 0.854492 8.01847C0.854492 7.88385 0.90226 7.7666 0.997796 7.66672L2.15074 6.5203C3.28848 5.38255 4.26989 4.42068 5.09497 3.63469C5.92005 2.84435 6.62354 2.21251 7.20544 1.73917C7.79168 1.26584 8.2889 0.931463 8.6971 0.73605C9.10964 0.540636 9.46573 0.468984 9.76536 0.521095C10.065 0.573205 10.3451 0.729536 10.6056 0.990087C10.8705 1.25498 11.0095 1.55244 11.0225 1.88248C11.0399 2.21251 10.94 2.59465 10.7229 3.0289C10.5058 3.45881 10.1801 3.9582 9.74582 4.52708C9.31157 5.0916 8.77744 5.73864 8.14343 6.46819C7.38783 7.33669 6.80159 8.05321 6.3847 8.61774C5.97216 9.18227 5.71378 9.63172 5.60956 9.96609C5.50534 10.2961 5.54008 10.5436 5.71378 10.7086C5.85274 10.8476 6.05467 10.878 6.31956 10.7998C6.58446 10.7173 6.9362 10.5067 7.3748 10.168C7.81339 9.82496 8.36924 9.33643 9.04233 8.70242C9.72411 8.05104 10.3212 7.53862 10.8336 7.16516C11.346 6.7917 11.789 6.57241 12.1624 6.50727C12.5359 6.44213 12.8594 6.54852 13.133 6.82644C13.3328 7.0262 13.4348 7.2607 13.4391 7.52993C13.4478 7.79483 13.3718 8.10749 13.2112 8.46792C13.0548 8.82401 12.829 9.24306 12.5337 9.72508C12.3036 10.1072 12.119 10.4134 11.9801 10.6435C11.8454 10.8737 11.7586 11.0495 11.7195 11.1711C11.6848 11.2927 11.6978 11.3839 11.7586 11.4447C11.8107 11.4968 11.8932 11.5012 12.0061 11.4577C12.1234 11.4143 12.2819 11.3144 12.4816 11.1581C12.6857 10.9974 12.9463 10.7716 13.2633 10.4807C13.3631 10.3808 13.4782 10.3309 13.6085 10.3309C13.7431 10.3309 13.8604 10.3786 13.9602 10.4742C14.0601 10.574 14.1079 10.6934 14.1035 10.8324C14.0992 10.967 14.0341 11.0951 13.9081 11.2167C13.3002 11.842 12.7574 12.2372 12.2797 12.4022C11.8064 12.5716 11.4242 12.5108 11.1333 12.2198C10.9465 12.0331 10.8445 11.8225 10.8271 11.588C10.8141 11.3535 10.8553 11.106 10.9509 10.8454C11.0464 10.5849 11.1723 10.3178 11.3287 10.0443C11.485 9.76634 11.6413 9.49276 11.7977 9.22352C12.0452 8.79795 12.2471 8.44186 12.4034 8.15526C12.5598 7.86431 12.5641 7.64501 12.4165 7.49736C12.3296 7.41486 12.2037 7.40834 12.0387 7.47782C11.8737 7.54296 11.6739 7.6689 11.4394 7.85562C11.2093 8.03801 10.9509 8.26382 10.6643 8.53306C10.382 8.80229 10.0759 9.09542 9.74582 9.41242C9.40276 9.74679 9.05536 10.066 8.70361 10.37C8.35187 10.6739 8.00447 10.941 7.66141 11.1711C7.32269 11.3969 6.99483 11.5685 6.67782 11.6857C6.36082 11.803 6.06118 11.842 5.77892 11.803C5.501 11.7682 5.24696 11.6358 5.01681 11.4056C4.75191 11.1407 4.60644 10.8454 4.58038 10.5197C4.55867 10.1897 4.62381 9.84016 4.7758 9.47104C4.93213 9.09759 5.14708 8.7111 5.42066 8.31159C5.69858 7.90773 6.00907 7.49737 6.35213 7.08048C6.69954 6.6636 7.05128 6.24672 7.40737 5.82983C7.82859 5.33044 8.22159 4.86145 8.58637 4.42285C8.95114 3.97992 9.25729 3.57823 9.50481 3.2178C9.75233 2.85737 9.91735 2.54688 9.99986 2.28633C10.0824 2.02578 10.0541 1.82602 9.91518 1.68706C9.75451 1.52639 9.53304 1.48731 9.25077 1.56981C8.97285 1.65232 8.63196 1.84122 8.22811 2.13651C7.82425 2.43181 7.35743 2.8248 6.82764 3.31551C6.29785 3.80187 5.70075 4.37509 5.03635 5.03515C4.37194 5.69087 3.64022 6.41825 2.8412 7.21727L1.69477 8.3637C1.59489 8.46358 1.47765 8.51352 1.34303 8.51352C1.21275 8.51352 1.09767 8.46358 0.997796 8.3637Z" fill="#007AFF"/>
</g>
</g>
<defs>
<clipPath id="clip0_472_3203">
<rect width="15" height="12" fill="white" transform="translate(0 0.5)"/>
</clipPath>
</defs>
</svg>
