<svg width="16" height="16" viewBox="0 0 16 16" fill="none" xmlns="http://www.w3.org/2000/svg">
<g clip-path="url(#clip0_472_3245)">
<mask id="mask0_472_3245" style="mask-type:luminance" maskUnits="userSpaceOnUse" x="0" y="0" width="16" height="16">
<path d="M15.5 0.5H0.5V15.5H15.5V0.5Z" fill="white"/>
</mask>
<g mask="url(#mask0_472_3245)">
<path d="M7.84619 15.1924C6.84033 15.1924 5.89307 14.9995 5.00439 14.6138C4.12061 14.2329 3.33936 13.7056 2.66064 13.0317C1.98682 12.353 1.45703 11.5718 1.07129 10.688C0.69043 9.79932 0.5 8.85205 0.5 7.84619C0.5 6.84033 0.69043 5.89551 1.07129 5.01172C1.45703 4.12305 1.98682 3.3418 2.66064 2.66797C3.33447 1.98926 4.11328 1.45947 4.99707 1.07861C5.88574 0.692871 6.83301 0.5 7.83887 0.5C8.84473 0.5 9.79199 0.692871 10.6807 1.07861C11.5693 1.45947 12.3506 1.98926 13.0244 2.66797C13.6982 3.3418 14.228 4.12305 14.6138 5.01172C14.9995 5.89551 15.1924 6.84033 15.1924 7.84619C15.1924 8.85205 14.9995 9.79932 14.6138 10.688C14.228 11.5718 13.6982 12.353 13.0244 13.0317C12.3506 13.7056 11.5693 14.2329 10.6807 14.6138C9.79688 14.9995 8.85205 15.1924 7.84619 15.1924ZM7.84619 14.2476C8.72998 14.2476 9.55762 14.0815 10.3291 13.7495C11.1055 13.4175 11.7866 12.9585 12.3726 12.3726C12.9634 11.7866 13.4224 11.1079 13.7495 10.3364C14.0815 9.56006 14.2476 8.72998 14.2476 7.84619C14.2476 6.9624 14.0815 6.13477 13.7495 5.36328C13.4175 4.58691 12.9585 3.90576 12.3726 3.31982C11.7866 2.729 11.1055 2.27002 10.3291 1.94287C9.55762 1.61084 8.72754 1.44482 7.83887 1.44482C6.95508 1.44482 6.125 1.61084 5.34863 1.94287C4.57715 2.27002 3.89844 2.729 3.3125 3.31982C2.73145 3.90576 2.2749 4.58691 1.94287 5.36328C1.61572 6.13477 1.45215 6.9624 1.45215 7.84619C1.45215 8.72998 1.61572 9.56006 1.94287 10.3364C2.2749 11.1079 2.73389 11.7866 3.31982 12.3726C3.90576 12.9585 4.58447 13.4175 5.35596 13.7495C6.12744 14.0815 6.95752 14.2476 7.84619 14.2476ZM7.81689 11.2739C7.25537 11.2739 6.76709 11.147 6.35205 10.8931C5.93701 10.6392 5.67578 10.3071 5.56836 9.89697C5.54395 9.80908 5.53174 9.72607 5.53174 9.64795C5.53174 9.53076 5.56836 9.43555 5.6416 9.3623C5.71973 9.28906 5.81738 9.25244 5.93457 9.25244C6.125 9.25244 6.25684 9.35498 6.33008 9.56006C6.41309 9.84326 6.58398 10.0776 6.84277 10.2632C7.10156 10.4487 7.43115 10.5415 7.83154 10.5415C8.29541 10.5415 8.66895 10.4292 8.95215 10.2046C9.23535 9.97998 9.37695 9.68457 9.37695 9.31836C9.37695 8.96191 9.23779 8.66895 8.95947 8.43945C8.68115 8.20996 8.32471 8.09521 7.89014 8.09521H7.31885C7.21143 8.09521 7.12354 8.06348 7.05518 8C6.9917 7.93164 6.95996 7.84375 6.95996 7.73633C6.95996 7.62891 6.9917 7.54346 7.05518 7.47998C7.12354 7.41162 7.21143 7.37744 7.31885 7.37744H7.83887C8.21484 7.37744 8.5249 7.26758 8.76904 7.04785C9.01807 6.82812 9.14258 6.55225 9.14258 6.22021C9.14258 5.89307 9.02539 5.63184 8.79102 5.43652C8.55664 5.24121 8.2417 5.14355 7.84619 5.14355C7.47998 5.14355 7.1748 5.23389 6.93066 5.41455C6.69141 5.59521 6.5376 5.83203 6.46924 6.125C6.41064 6.33496 6.27881 6.43994 6.07373 6.43994C5.95654 6.43994 5.86133 6.40332 5.78809 6.33008C5.71484 6.25684 5.67822 6.16406 5.67822 6.05176C5.67822 6.00293 5.68066 5.96143 5.68555 5.92725C5.69043 5.88818 5.69775 5.84424 5.70752 5.79541C5.78564 5.38037 6.02246 5.04834 6.41797 4.79932C6.81836 4.54541 7.29688 4.41846 7.85352 4.41846C8.47852 4.41846 8.99121 4.57959 9.3916 4.90186C9.79688 5.21924 9.99951 5.62451 9.99951 6.11768C9.99951 6.50342 9.875 6.84521 9.62598 7.14307C9.37695 7.43604 9.06689 7.61426 8.6958 7.67773V7.729C9.13525 7.76807 9.50146 7.94141 9.79443 8.24902C10.0874 8.55664 10.2339 8.92041 10.2339 9.34033C10.2339 9.90186 10.0142 10.3657 9.57471 10.7319C9.13525 11.0933 8.54932 11.2739 7.81689 11.2739Z" fill="#007AFF"/>
</g>
</g>
<defs>
<clipPath id="clip0_472_3245">
<rect width="16" height="15" fill="white" transform="translate(0 0.5)"/>
</clipPath>
</defs>
</svg>
