<svg width="16" height="16" viewBox="0 0 16 16" fill="none" xmlns="http://www.w3.org/2000/svg">
<g clip-path="url(#clip0_472_3251)">
<mask id="mask0_472_3251" style="mask-type:luminance" maskUnits="userSpaceOnUse" x="0" y="0" width="16" height="16">
<path d="M15.5 0.5H0.5V15.5H15.5V0.5Z" fill="white"/>
</mask>
<g mask="url(#mask0_472_3251)">
<path d="M7.84619 15.1924C6.84033 15.1924 5.89307 14.9995 5.00439 14.6138C4.12061 14.2329 3.33936 13.7056 2.66064 13.0317C1.98682 12.353 1.45703 11.5718 1.07129 10.688C0.69043 9.79932 0.5 8.85205 0.5 7.84619C0.5 6.84033 0.69043 5.89551 1.07129 5.01172C1.45703 4.12305 1.98682 3.3418 2.66064 2.66797C3.33447 1.98926 4.11328 1.45947 4.99707 1.07861C5.88574 0.692871 6.83301 0.5 7.83887 0.5C8.84473 0.5 9.79199 0.692871 10.6807 1.07861C11.5693 1.45947 12.3506 1.98926 13.0244 2.66797C13.6982 3.3418 14.228 4.12305 14.6138 5.01172C14.9995 5.89551 15.1924 6.84033 15.1924 7.84619C15.1924 8.85205 14.9995 9.79932 14.6138 10.688C14.228 11.5718 13.6982 12.353 13.0244 13.0317C12.3506 13.7056 11.5693 14.2329 10.6807 14.6138C9.79688 14.9995 8.85205 15.1924 7.84619 15.1924ZM7.84619 14.2476C8.72998 14.2476 9.55762 14.0815 10.3291 13.7495C11.1055 13.4175 11.7866 12.9585 12.3726 12.3726C12.9634 11.7866 13.4224 11.1079 13.7495 10.3364C14.0815 9.56006 14.2476 8.72998 14.2476 7.84619C14.2476 6.9624 14.0815 6.13477 13.7495 5.36328C13.4175 4.58691 12.9585 3.90576 12.3726 3.31982C11.7866 2.729 11.1055 2.27002 10.3291 1.94287C9.55762 1.61084 8.72754 1.44482 7.83887 1.44482C6.95508 1.44482 6.125 1.61084 5.34863 1.94287C4.57715 2.27002 3.89844 2.729 3.3125 3.31982C2.73145 3.90576 2.2749 4.58691 1.94287 5.36328C1.61572 6.13477 1.45215 6.9624 1.45215 7.84619C1.45215 8.72998 1.61572 9.56006 1.94287 10.3364C2.2749 11.1079 2.73389 11.7866 3.31982 12.3726C3.90576 12.9585 4.58447 13.4175 5.35596 13.7495C6.12744 14.0815 6.95752 14.2476 7.84619 14.2476ZM8.75439 11.1567C8.62744 11.1567 8.5249 11.1152 8.44678 11.0322C8.37354 10.9443 8.33691 10.8296 8.33691 10.688V9.70654H5.61963C5.4292 9.70654 5.27783 9.65527 5.16553 9.55273C5.05811 9.44531 5.00439 9.30371 5.00439 9.12793C5.00439 9.04492 5.0166 8.96436 5.04102 8.88623C5.06543 8.80322 5.10449 8.71777 5.1582 8.62988C5.30957 8.38574 5.48779 8.10742 5.69287 7.79492C5.89795 7.47754 6.11279 7.15039 6.3374 6.81348C6.56689 6.47168 6.7915 6.13721 7.01123 5.81006C7.23096 5.48291 7.43115 5.18506 7.61182 4.9165C7.729 4.73584 7.85352 4.60889 7.98535 4.53564C8.12207 4.45752 8.29053 4.41846 8.49072 4.41846C8.6958 4.41846 8.86182 4.47461 8.98877 4.58691C9.11572 4.69922 9.1792 4.8457 9.1792 5.02637V8.94482H9.86035C9.97754 8.94482 10.0703 8.98145 10.1387 9.05469C10.207 9.12793 10.2412 9.21826 10.2412 9.32568C10.2412 9.43799 10.2046 9.53076 10.1313 9.604C10.063 9.67236 9.97266 9.70654 9.86035 9.70654H9.1792V10.688C9.1792 10.8345 9.14258 10.9492 9.06934 11.0322C8.99609 11.1152 8.89111 11.1567 8.75439 11.1567ZM8.33691 8.94482V5.19482H8.28564C8.15381 5.39502 8.00244 5.62207 7.83154 5.87598C7.66064 6.12988 7.48242 6.39844 7.29688 6.68164C7.11133 6.95996 6.92822 7.23584 6.74756 7.50928C6.56689 7.78271 6.40088 8.03906 6.24951 8.27832C6.09814 8.51758 5.96875 8.72754 5.86133 8.9082V8.94482H8.33691Z" fill="#007AFF"/>
</g>
</g>
<defs>
<clipPath id="clip0_472_3251">
<rect width="16" height="15" fill="white" transform="translate(0 0.5)"/>
</clipPath>
</defs>
</svg>
