<svg width="16" height="16" viewBox="0 0 16 16" fill="none" xmlns="http://www.w3.org/2000/svg">
<g clip-path="url(#clip0_472_3233)">
<mask id="mask0_472_3233" style="mask-type:luminance" maskUnits="userSpaceOnUse" x="0" y="0" width="16" height="16">
<path d="M15.5 0.5H0.5V15.5H15.5V0.5Z" fill="white"/>
</mask>
<g mask="url(#mask0_472_3233)">
<path d="M7.84619 15.1924C6.84033 15.1924 5.89307 14.9995 5.00439 14.6138C4.12061 14.2329 3.33936 13.7056 2.66064 13.0317C1.98682 12.353 1.45703 11.5718 1.07129 10.688C0.69043 9.79932 0.5 8.85205 0.5 7.84619C0.5 6.84033 0.69043 5.89551 1.07129 5.01172C1.45703 4.12305 1.98682 3.3418 2.66064 2.66797C3.33447 1.98926 4.11328 1.45947 4.99707 1.07861C5.88574 0.692871 6.83301 0.5 7.83887 0.5C8.84473 0.5 9.79199 0.692871 10.6807 1.07861C11.5693 1.45947 12.3506 1.98926 13.0244 2.66797C13.6982 3.3418 14.228 4.12305 14.6138 5.01172C14.9995 5.89551 15.1924 6.84033 15.1924 7.84619C15.1924 8.85205 14.9995 9.79932 14.6138 10.688C14.228 11.5718 13.6982 12.353 13.0244 13.0317C12.3506 13.7056 11.5693 14.2329 10.6807 14.6138C9.79688 14.9995 8.85205 15.1924 7.84619 15.1924ZM7.84619 14.2476C8.72998 14.2476 9.55762 14.0815 10.3291 13.7495C11.1055 13.4175 11.7866 12.9585 12.3726 12.3726C12.9634 11.7866 13.4224 11.1079 13.7495 10.3364C14.0815 9.56006 14.2476 8.72998 14.2476 7.84619C14.2476 6.9624 14.0815 6.13477 13.7495 5.36328C13.4175 4.58691 12.9585 3.90576 12.3726 3.31982C11.7866 2.729 11.1055 2.27002 10.3291 1.94287C9.55762 1.61084 8.72754 1.44482 7.83887 1.44482C6.95508 1.44482 6.125 1.61084 5.34863 1.94287C4.57715 2.27002 3.89844 2.729 3.3125 3.31982C2.73145 3.90576 2.2749 4.58691 1.94287 5.36328C1.61572 6.13477 1.45215 6.9624 1.45215 7.84619C1.45215 8.72998 1.61572 9.56006 1.94287 10.3364C2.2749 11.1079 2.73389 11.7866 3.31982 12.3726C3.90576 12.9585 4.58447 13.4175 5.35596 13.7495C6.12744 14.0815 6.95752 14.2476 7.84619 14.2476ZM6.19824 11.1348C6.06641 11.1348 5.96387 11.1006 5.89062 11.0322C5.81738 10.959 5.78076 10.8638 5.78076 10.7466C5.78076 10.6831 5.79297 10.6245 5.81738 10.5708C5.8418 10.5122 5.88086 10.4536 5.93457 10.395L8.34424 7.76562C8.5835 7.51172 8.78613 7.26514 8.95215 7.02588C9.11816 6.78662 9.20117 6.53516 9.20117 6.27148C9.20117 5.93457 9.08398 5.66602 8.84961 5.46582C8.62012 5.26074 8.31006 5.1582 7.91943 5.1582C7.52881 5.1582 7.21631 5.26318 6.98193 5.47314C6.74756 5.68311 6.59375 5.92969 6.52051 6.21289C6.47656 6.30078 6.42285 6.37402 6.35938 6.43262C6.30078 6.48633 6.21777 6.51318 6.11035 6.51318C5.99316 6.51318 5.90039 6.479 5.83203 6.41064C5.76367 6.34229 5.72949 6.24951 5.72949 6.13232C5.72949 6.09326 5.73193 6.0542 5.73682 6.01514C5.7417 5.97119 5.75146 5.9248 5.76611 5.87598C5.86377 5.45605 6.11279 5.10938 6.51318 4.83594C6.91357 4.55762 7.37012 4.41846 7.88281 4.41846C8.52734 4.41846 9.04248 4.58447 9.42822 4.9165C9.81885 5.24365 10.0142 5.67822 10.0142 6.22021C10.0142 6.58643 9.91895 6.92578 9.72852 7.23828C9.54297 7.55078 9.2793 7.89258 8.9375 8.26367L7.02588 10.3291V10.373H9.94824C10.0557 10.373 10.1436 10.4072 10.2119 10.4756C10.2852 10.5439 10.3218 10.6367 10.3218 10.7539C10.3218 10.8711 10.2852 10.9639 10.2119 11.0322C10.1436 11.1006 10.0557 11.1348 9.94824 11.1348H6.19824Z" fill="#007AFF"/>
</g>
</g>
<defs>
<clipPath id="clip0_472_3233">
<rect width="16" height="15" fill="white" transform="translate(0 0.5)"/>
</clipPath>
</defs>
</svg>
