<svg width="17" height="17" viewBox="0 0 17 17" fill="none" xmlns="http://www.w3.org/2000/svg">
<mask id="mask0_472_3239" style="mask-type:luminance" maskUnits="userSpaceOnUse" x="0" y="0" width="17" height="17">
<path d="M16.5 0.5H0.5V16.5H16.5V0.5Z" fill="white"/>
</mask>
<g mask="url(#mask0_472_3239)">
<path d="M8.21143 15.8462C7.20557 15.8462 6.2583 15.6533 5.36963 15.2676C4.48584 14.8867 3.70459 14.3594 3.02588 13.6855C2.35205 13.0068 1.82227 12.2256 1.43652 11.3418C1.05566 10.4531 0.865234 9.50586 0.865234 8.5C0.865234 7.49414 1.05566 6.54932 1.43652 5.66553C1.82227 4.77686 2.35205 3.99561 3.02588 3.32178C3.69971 2.64307 4.47852 2.11328 5.3623 1.73242C6.25098 1.34668 7.19824 1.15381 8.2041 1.15381C9.20996 1.15381 10.1572 1.34668 11.0459 1.73242C11.9346 2.11328 12.7158 2.64307 13.3896 3.32178C14.0635 3.99561 14.5933 4.77686 14.979 5.66553C15.3647 6.54932 15.5576 7.49414 15.5576 8.5C15.5576 9.50586 15.3647 10.4531 14.979 11.3418C14.5933 12.2256 14.0635 13.0068 13.3896 13.6855C12.7158 14.3594 11.9346 14.8867 11.0459 15.2676C10.1621 15.6533 9.21729 15.8462 8.21143 15.8462ZM8.21143 14.9014C9.09521 14.9014 9.92285 14.7354 10.6943 14.4033C11.4707 14.0713 12.1519 13.6123 12.7378 13.0264C13.3286 12.4404 13.7876 11.7617 14.1147 10.9902C14.4468 10.2139 14.6128 9.38379 14.6128 8.5C14.6128 7.61621 14.4468 6.78857 14.1147 6.01709C13.7827 5.24072 13.3237 4.55957 12.7378 3.97363C12.1519 3.38281 11.4707 2.92383 10.6943 2.59668C9.92285 2.26465 9.09277 2.09863 8.2041 2.09863C7.32031 2.09863 6.49023 2.26465 5.71387 2.59668C4.94238 2.92383 4.26367 3.38281 3.67773 3.97363C3.09668 4.55957 2.64014 5.24072 2.30811 6.01709C1.98096 6.78857 1.81738 7.61621 1.81738 8.5C1.81738 9.38379 1.98096 10.2139 2.30811 10.9902C2.64014 11.7617 3.09912 12.4404 3.68506 13.0264C4.271 13.6123 4.94971 14.0713 5.72119 14.4033C6.49268 14.7354 7.32275 14.9014 8.21143 14.9014ZM8.54834 11.8105C8.41162 11.8105 8.3042 11.7666 8.22607 11.6787C8.14795 11.5908 8.10889 11.4688 8.10889 11.3125V6.17822H8.06494L6.92236 6.91797C6.86377 6.95703 6.81494 6.98389 6.77588 6.99854C6.7417 7.0083 6.70264 7.01318 6.65869 7.01318C6.56104 7.01318 6.48047 6.979 6.41699 6.91064C6.35352 6.8374 6.32178 6.75439 6.32178 6.66162C6.32178 6.5249 6.38281 6.41504 6.50488 6.33203L7.91846 5.39453C8.1333 5.24316 8.3335 5.16748 8.51904 5.16748C8.67041 5.16748 8.79004 5.21143 8.87793 5.29932C8.96582 5.38721 9.00977 5.51172 9.00977 5.67285V11.3125C9.00977 11.4688 8.96826 11.5908 8.88525 11.6787C8.80713 11.7666 8.69482 11.8105 8.54834 11.8105Z" fill="#007AFF"/>
</g>
</svg>
