<svg width="18" height="18" viewBox="0 0 18 18" fill="none" xmlns="http://www.w3.org/2000/svg">
<mask id="mask0_472_3257" style="mask-type:luminance" maskUnits="userSpaceOnUse" x="0" y="0" width="18" height="18">
<path d="M17.5 0.5H0.5V17.5H17.5V0.5Z" fill="white"/>
</mask>
<g mask="url(#mask0_472_3257)">
<path d="M8.73438 16.6953C7.66146 16.6953 6.65104 16.4896 5.70312 16.0781C4.76042 15.6719 3.92708 15.1094 3.20312 14.3906C2.48438 13.6667 1.91927 12.8333 1.50781 11.8906C1.10156 10.9427 0.898438 9.93229 0.898438 8.85938C0.898438 7.78646 1.10156 6.77865 1.50781 5.83594C1.91927 4.88802 2.48438 4.05469 3.20312 3.33594C3.92188 2.61198 4.7526 2.04688 5.69531 1.64062C6.64323 1.22917 7.65365 1.02344 8.72656 1.02344C9.79948 1.02344 10.8099 1.22917 11.7578 1.64062C12.7057 2.04688 13.5391 2.61198 14.2578 3.33594C14.9766 4.05469 15.5417 4.88802 15.9531 5.83594C16.3646 6.77865 16.5703 7.78646 16.5703 8.85938C16.5703 9.93229 16.3646 10.9427 15.9531 11.8906C15.5417 12.8333 14.9766 13.6667 14.2578 14.3906C13.5391 15.1094 12.7057 15.6719 11.7578 16.0781C10.8151 16.4896 9.80729 16.6953 8.73438 16.6953ZM8.73438 15.6875C9.67708 15.6875 10.5599 15.5104 11.3828 15.1562C12.2109 14.8021 12.9375 14.3125 13.5625 13.6875C14.1927 13.0625 14.6823 12.3385 15.0312 11.5156C15.3854 10.6875 15.5625 9.80208 15.5625 8.85938C15.5625 7.91667 15.3854 7.03385 15.0312 6.21094C14.6771 5.38281 14.1875 4.65625 13.5625 4.03125C12.9375 3.40104 12.2109 2.91146 11.3828 2.5625C10.5599 2.20833 9.67448 2.03125 8.72656 2.03125C7.78385 2.03125 6.89844 2.20833 6.07031 2.5625C5.2474 2.91146 4.52344 3.40104 3.89844 4.03125C3.27865 4.65625 2.79167 5.38281 2.4375 6.21094C2.08854 7.03385 1.91406 7.91667 1.91406 8.85938C1.91406 9.80208 2.08854 10.6875 2.4375 11.5156C2.79167 12.3385 3.28125 13.0625 3.90625 13.6875C4.53125 14.3125 5.25521 14.8021 6.07812 15.1562C6.90104 15.5104 7.78646 15.6875 8.73438 15.6875ZM8.69531 12.5156C8.09115 12.5156 7.58073 12.3932 7.16406 12.1484C6.7526 11.9036 6.47917 11.5781 6.34375 11.1719C6.30208 11.0677 6.28125 10.9714 6.28125 10.8828C6.28125 10.763 6.31771 10.6667 6.39062 10.5938C6.46875 10.5156 6.56771 10.4766 6.6875 10.4766C6.78125 10.4766 6.86458 10.5026 6.9375 10.5547C7.01562 10.6068 7.07812 10.6849 7.125 10.7891C7.23958 11.0755 7.4401 11.3073 7.72656 11.4844C8.01302 11.6562 8.33594 11.7422 8.69531 11.7422C9.16406 11.7422 9.55469 11.5859 9.86719 11.2734C10.1797 10.9609 10.3359 10.5729 10.3359 10.1094C10.3359 9.63542 10.1927 9.25521 9.90625 8.96875C9.625 8.68229 9.25521 8.53906 8.79688 8.53906C8.55729 8.53906 8.33854 8.58073 8.14062 8.66406C7.94792 8.7474 7.74479 8.89583 7.53125 9.10938C7.41146 9.19792 7.3099 9.26042 7.22656 9.29688C7.14844 9.32812 7.05208 9.34375 6.9375 9.34375C6.77083 9.34375 6.64062 9.29167 6.54688 9.1875C6.45312 9.07812 6.41406 8.9375 6.42969 8.76562L6.65625 5.9375C6.67188 5.75521 6.73698 5.61198 6.85156 5.50781C6.97135 5.40365 7.13021 5.35156 7.32812 5.35156H10.6172C10.7266 5.35156 10.8151 5.38802 10.8828 5.46094C10.9505 5.53385 10.9844 5.625 10.9844 5.73438C10.9844 5.84375 10.9479 5.9375 10.875 6.01562C10.8073 6.08854 10.7214 6.125 10.6172 6.125H7.44531L7.24219 8.51562H7.28906C7.44531 8.30208 7.67448 8.1276 7.97656 7.99219C8.27865 7.85677 8.58854 7.78906 8.90625 7.78906C9.59896 7.78906 10.1641 8.0026 10.6016 8.42969C11.0391 8.85677 11.2578 9.40885 11.2578 10.0859C11.2578 10.8203 11.0182 11.4089 10.5391 11.8516C10.0651 12.2943 9.45052 12.5156 8.69531 12.5156Z" fill="#007AFF"/>
</g>
</svg>
