<svg width="18" height="18" viewBox="0 0 18 18" fill="none" xmlns="http://www.w3.org/2000/svg">
<mask id="mask0_472_3263" style="mask-type:luminance" maskUnits="userSpaceOnUse" x="0" y="0" width="18" height="18">
<path d="M17.5 0.5H0.5V17.5H17.5V0.5Z" fill="white"/>
</mask>
<g mask="url(#mask0_472_3263)">
<path d="M8.73438 16.6953C7.66146 16.6953 6.65104 16.4896 5.70312 16.0781C4.76042 15.6719 3.92708 15.1094 3.20312 14.3906C2.48438 13.6667 1.91927 12.8333 1.50781 11.8906C1.10156 10.9427 0.898438 9.93229 0.898438 8.85938C0.898438 7.78646 1.10156 6.77865 1.50781 5.83594C1.91927 4.88802 2.48438 4.05469 3.20312 3.33594C3.92188 2.61198 4.7526 2.04688 5.69531 1.64062C6.64323 1.22917 7.65365 1.02344 8.72656 1.02344C9.79948 1.02344 10.8099 1.22917 11.7578 1.64062C12.7057 2.04688 13.5391 2.61198 14.2578 3.33594C14.9766 4.05469 15.5417 4.88802 15.9531 5.83594C16.3646 6.77865 16.5703 7.78646 16.5703 8.85938C16.5703 9.93229 16.3646 10.9427 15.9531 11.8906C15.5417 12.8333 14.9766 13.6667 14.2578 14.3906C13.5391 15.1094 12.7057 15.6719 11.7578 16.0781C10.8151 16.4896 9.80729 16.6953 8.73438 16.6953ZM8.73438 15.6875C9.67708 15.6875 10.5599 15.5104 11.3828 15.1562C12.2109 14.8021 12.9375 14.3125 13.5625 13.6875C14.1927 13.0625 14.6823 12.3385 15.0312 11.5156C15.3854 10.6875 15.5625 9.80208 15.5625 8.85938C15.5625 7.91667 15.3854 7.03385 15.0312 6.21094C14.6771 5.38281 14.1875 4.65625 13.5625 4.03125C12.9375 3.40104 12.2109 2.91146 11.3828 2.5625C10.5599 2.20833 9.67448 2.03125 8.72656 2.03125C7.78385 2.03125 6.89844 2.20833 6.07031 2.5625C5.2474 2.91146 4.52344 3.40104 3.89844 4.03125C3.27865 4.65625 2.79167 5.38281 2.4375 6.21094C2.08854 7.03385 1.91406 7.91667 1.91406 8.85938C1.91406 9.80208 2.08854 10.6875 2.4375 11.5156C2.79167 12.3385 3.28125 13.0625 3.90625 13.6875C4.53125 14.3125 5.25521 14.8021 6.07812 15.1562C6.90104 15.5104 7.78646 15.6875 8.73438 15.6875ZM8.78125 12.5156C8.32292 12.5156 7.89844 12.4219 7.50781 12.2344C7.1224 12.0469 6.8125 11.75 6.57812 11.3438C6.43229 11.099 6.31771 10.7839 6.23438 10.3984C6.15104 10.0078 6.10938 9.5599 6.10938 9.05469C6.10938 7.79427 6.36198 6.83854 6.86719 6.1875C7.3724 5.53125 8.0651 5.20312 8.94531 5.20312C9.29948 5.20312 9.61719 5.26042 9.89844 5.375C10.1797 5.48438 10.4167 5.625 10.6094 5.79688C10.8021 5.96354 10.9323 6.13802 11 6.32031C11.0208 6.36198 11.0339 6.40365 11.0391 6.44531C11.0495 6.48698 11.0547 6.53385 11.0547 6.58594C11.0547 6.69531 11.0182 6.78385 10.9453 6.85156C10.8776 6.91927 10.7891 6.95312 10.6797 6.95312C10.5755 6.95312 10.487 6.92708 10.4141 6.875C10.3411 6.82292 10.2604 6.74479 10.1719 6.64062C10.0573 6.45833 9.89323 6.30469 9.67969 6.17969C9.46615 6.05469 9.21094 5.99219 8.91406 5.99219C8.33594 5.99219 7.8724 6.2526 7.52344 6.77344C7.17448 7.28906 7 7.99479 7 8.89062C7 8.90625 7 8.92188 7 8.9375C7 8.94792 7 8.96094 7 8.97656C7.01042 8.97656 7.01823 8.97656 7.02344 8.97656C7.03385 8.97656 7.04167 8.97656 7.04688 8.97656C7.19792 8.65885 7.4349 8.38542 7.75781 8.15625C8.08073 7.92708 8.50521 7.8125 9.03125 7.8125C9.44792 7.8125 9.83073 7.90365 10.1797 8.08594C10.5339 8.26823 10.8151 8.52865 11.0234 8.86719C11.2318 9.20573 11.3359 9.60938 11.3359 10.0781C11.3359 10.8385 11.099 11.4349 10.625 11.8672C10.151 12.2995 9.53646 12.5156 8.78125 12.5156ZM8.74219 11.7734C9.2474 11.7734 9.64844 11.625 9.94531 11.3281C10.2422 11.026 10.3906 10.6276 10.3906 10.1328C10.3906 9.65365 10.2396 9.26823 9.9375 8.97656C9.63542 8.67969 9.24219 8.53125 8.75781 8.53125C8.27344 8.53125 7.8776 8.68229 7.57031 8.98438C7.26302 9.28125 7.10938 9.66146 7.10938 10.125C7.10938 10.599 7.26302 10.9922 7.57031 11.3047C7.8776 11.6172 8.26823 11.7734 8.74219 11.7734Z" fill="#007AFF"/>
</g>
</svg>
