<?xml version="1.0" encoding="utf-8"?>
<!-- Generator: Adobe Illustrator 27.0.0, SVG Export Plug-In . SVG Version: 6.00 Build 0)  -->
<svg version="1.1" id="레이어_1" xmlns="http://www.w3.org/2000/svg" xmlns:xlink="http://www.w3.org/1999/xlink" x="0px"
	 y="0px" viewBox="0 0 1200 388" style="enable-background:new 0 0 1200 388;" xml:space="preserve">
<style type="text/css">
	.st0{fill:none;}
	.st1{font-family:'ArialMT';}
	.st2{font-size:7.2377px;}
	.st3{fill:url(#SVGID_1_);}
	.st4{fill:#FFFFFF;stroke:#0067F9;stroke-width:3;stroke-linecap:round;stroke-linejoin:round;stroke-miterlimit:10;}
	.st5{fill:url(#SVGID_00000039829475466021975320000004621582574642869670_);}
	.st6{fill:url(#SVGID_00000150097301270645213620000016422715654754506137_);}
	.st7{fill:none;stroke:#C5F800;stroke-miterlimit:10;}
	.st8{fill:none;stroke:#CFFA8D;stroke-miterlimit:10;}
	.st9{opacity:0.2;fill:#020346;enable-background:new    ;}
	.st10{fill:url(#SVGID_00000160902715978352276290000009876307040811882373_);}
	.st11{fill:#D69BFB;}
	.st12{fill:url(#SVGID_00000026160476163976126550000016974481575997728910_);}
	.st13{fill:#8CF59A;}
	.st14{fill:#BDC3C7;}
	.st15{fill:#DAE0E4;}
	.st16{fill:url(#SVGID_00000123423642401717380210000017356965276090455180_);}
	.st17{fill:none;stroke:#4C19FA;stroke-width:2;stroke-miterlimit:10;}
	.st18{fill:none;stroke:#050505;stroke-miterlimit:10;}
	.st19{fill:url(#SVGID_00000125595549453081328150000017271923878235169720_);}
	.st20{fill:#EDD6E9;}
	.st21{clip-path:url(#SVGID_00000134952063093239462930000003978833472678184377_);}
	.st22{clip-path:url(#SVGID_00000183212377730800221960000014978290918127044023_);}
	.st23{fill:none;stroke:#4C19FA;stroke-width:1.5;stroke-miterlimit:10;}
	.st24{clip-path:url(#SVGID_00000050657142763729069450000007007368780445216388_);}
	.st25{fill:#F7AF3A;}
	.st26{fill:#FDDB83;}
	
		.st27{clip-path:url(#SVGID_00000032621170567612796310000011911468298052689311_);fill:url(#SVGID_00000158750932729354251350000012047232789279740090_);}
</style>
<g>
	<path class="st0" d="M1185.9,387.8H14.1c-9.5,0-17.2-7.7-17.2-17.2v-355C-3.1,6,4.6-1.7,14.1-1.7h1171.8c9.5,0,17.2,7.7,17.2,17.2
		v355C1203.1,380.1,1195.4,387.8,1185.9,387.8z"/>
	<g>
		<text transform="matrix(1 0 0 1 589.2847 194.8169)" class="st1 st2">2000</text>
		<g>
			
				<linearGradient id="SVGID_1_" gradientUnits="userSpaceOnUse" x1="59.6158" y1="182.0603" x2="1140.8236" y2="-442.1752" gradientTransform="matrix(1 0 0 -1 0 62)">
				<stop  offset="0" style="stop-color:#E6FFA5"/>
				<stop  offset="0.5394" style="stop-color:#53B3F6"/>
				<stop  offset="1" style="stop-color:#AA7AEC"/>
			</linearGradient>
			<rect x="-7.3" y="-4.1" class="st3" width="1215.1" height="392.3"/>
			<circle class="st4" cx="881.8" cy="69.2" r="4.7"/>
			<g>
				<g>
					
						<image style="overflow:visible;enable-background:new    ;" width="372" height="507" xlink:href="651F71054D01F656.png"  transform="matrix(0.1321 0 0 0.1321 117.9849 285.6049)">
					</image>
				</g>
			</g>
			<path class="st4" d="M138,321.7c0,0,10.4,13,0,22.5c0,0,14.3-1.9,22.8,9.5c0,0-6.3-14.2-1.1-24.6
				C159.7,329.1,148.4,336.4,138,321.7z"/>
			<path class="st4" d="M194,251.6c0,0,10.4,13,0,22.5c0,0,14.3-1.9,22.8,9.5c0,0-6.3-14.2-1.1-24.6
				C215.7,259,204.4,266.3,194,251.6z"/>
			<path class="st4" d="M373.5,328.9c0,0,10.4,13,0,22.5c0,0,14.3-1.9,22.8,9.5c0,0-6.3-14.2-1.1-24.6
				C395.1,336.3,383.8,343.7,373.5,328.9z"/>
			<circle class="st4" cx="260.6" cy="128.4" r="6.1"/>
			<circle class="st4" cx="975.5" cy="152.2" r="8.4"/>
			<g>
				
					<radialGradient id="SVGID_00000120537983903494546930000006216047007022736520_" cx="797.6408" cy="-365.1894" r="100.0694" gradientTransform="matrix(1.0071 0 0 -1.0214 -203.1785 -163.3204)" gradientUnits="userSpaceOnUse">
					<stop  offset="0" style="stop-color:#9F6EE3"/>
					<stop  offset="0" style="stop-color:#A77BDE"/>
					<stop  offset="0.2592" style="stop-color:#A87DDD"/>
					<stop  offset="0.3541" style="stop-color:#AC84DA"/>
					<stop  offset="0.422" style="stop-color:#B490D5"/>
					<stop  offset="0.477" style="stop-color:#BEA1CE"/>
					<stop  offset="0.5242" style="stop-color:#CBB7C4"/>
					<stop  offset="0.5659" style="stop-color:#DCD2B9"/>
					<stop  offset="0.6028" style="stop-color:#EFF1AB"/>
					<stop  offset="0.6076" style="stop-color:#F2F6A9"/>
					<stop  offset="0.7858" style="stop-color:#C9E3BC;stop-opacity:0.781"/>
					<stop  offset="0.9115" style="stop-color:#88C5D5;stop-opacity:0.627"/>
					<stop  offset="0.9962" style="stop-color:#45A8ED;stop-opacity:0.6"/>
					<stop  offset="1" style="stop-color:#54AEE8;stop-opacity:0"/>
				</radialGradient>
				
					<ellipse style="fill:url(#SVGID_00000120537983903494546930000006216047007022736520_);" cx="600.1" cy="209.7" rx="100.3" ry="102.7"/>
				
					<linearGradient id="SVGID_00000160190787985285989780000013462047504018973869_" gradientUnits="userSpaceOnUse" x1="600.1379" y1="-339.4733" x2="600.1379" y2="-137.153" gradientTransform="matrix(1 0 0 -1 0 62)">
					<stop  offset="0" style="stop-color:#00E3DC"/>
					<stop  offset="1" style="stop-color:#0091E2"/>
				</linearGradient>
				<polygon style="fill:url(#SVGID_00000160190787985285989780000013462047504018973869_);" points="1204.8,401.5 -4.5,401.5 
					-4.5,283.4 -4.5,199.2 1204.8,199.2 				"/>
			</g>
			<line class="st7" x1="28.4" y1="396" x2="260.6" y2="198.9"/>
			<line class="st7" x1="235.9" y1="393.8" x2="387" y2="197.9"/>
			<line class="st8" x1="386.2" y1="428.1" x2="515.6" y2="198"/>
			<line class="st7" x1="1190.9" y1="404" x2="950.7" y2="198.1"/>
			<line class="st7" x1="984.2" y1="405" x2="822.7" y2="197.9"/>
			<line class="st7" x1="825.1" y1="428.1" x2="694.8" y2="198"/>
			<line class="st7" x1="603.6" y1="405.5" x2="603" y2="197.9"/>
			<line class="st7" x1="28.4" y1="198.6" x2="1215" y2="198.6"/>
			<line class="st7" x1="1215" y1="267.6" x2="-4.5" y2="267.6"/>
			<line class="st7" x1="1211.7" y1="334.7" x2="-15" y2="334.7"/>
			
				<ellipse transform="matrix(0.2658 -0.964 0.964 0.2658 -48.8507 593.7964)" class="st9" cx="365.4" cy="329" rx="11.2" ry="22.5"/>
			
				<ellipse transform="matrix(0.9908 -0.1354 0.1354 0.9908 -45.749 32.2781)" class="st9" cx="214.4" cy="352.5" rx="15.7" ry="8.7"/>
			
				<ellipse transform="matrix(0.9908 -0.1354 0.1354 0.9908 -43.7148 93.5668)" class="st9" cx="666" cy="368.2" rx="15.7" ry="8.7"/>
			<ellipse class="st9" cx="950.7" cy="300.4" rx="12.6" ry="6.9"/>
			<ellipse transform="matrix(0.9836 -0.1801 0.1801 0.9836 -33.7843 143.9922)" class="st9" cx="776" cy="258" rx="18" ry="9"/>
			<path class="st4" d="M585.8,277.2c0,0,10.4,13,0,22.5c0,0,14.3-1.9,22.8,9.5c0,0-10.2-13.4-1.1-24.6
				C607.5,284.6,596.2,292,585.8,277.2z"/>
			<path class="st4" d="M157,247.7c0,0,7.5,14.9-4.7,22c0,0,14.4,1.1,20.3,14c0,0-7.2-15.2,4.1-24.3
				C176.7,259.5,164.1,264.3,157,247.7z"/>
			<g>
				<g>
					
						<image style="overflow:visible;opacity:0.5;enable-background:new    ;" width="190" height="179" xlink:href="651F71054D01F65A.png"  transform="matrix(0.6 0 0 0.6 706.7565 149.0263)">
					</image>
					<g>
						
							<linearGradient id="SVGID_00000086658401521139642080000003557364619569743273_" gradientUnits="userSpaceOnUse" x1="-1009.8992" y1="-1037.0702" x2="-1058.8107" y2="-1089.5214" gradientTransform="matrix(0.9764 -0.2161 -0.2161 -0.9764 1538.0341 -1073.1499)">
							<stop  offset="1.209481e-03" style="stop-color:#F29FF1"/>
							<stop  offset="0.7467" style="stop-color:#867AF9"/>
							<stop  offset="1" style="stop-color:#4AA79F"/>
						</linearGradient>
						<path style="fill:url(#SVGID_00000086658401521139642080000003557364619569743273_);" d="M767.2,232c-6.6,0-18.5-7.1-22.7-9.8
							c-4.3-2.7-13.7-9.2-20-17.7c-7.7-11.5-5.2-19.1-4.3-21.8c0.9-2.7,3.1-10,12.1-12.5c9-2.5,15.2,0.6,19.1,2.1
							c2.2,0.9,3.1,1.1,3.4,1.1l0.2,0c0.2,0,0.8-0.2,2.9-2.5c2.8-3,7.1-8.4,16.4-9.9c9.2-1.5,14.4,4.2,16.3,6.2
							c1.9,2.1,7.4,7.9,5.3,21.5c-2.1,10.4-7.9,20.2-10.6,24.4c-2.7,4.2-10.5,15.6-16.5,18.4L768,232L767.2,232z"/>
					</g>
				</g>
				<path class="st11" d="M779.3,204.3c-4.8,9.2-9.3,15.4-8.2,16.4s7.2-4.1,12-13.3c4.8-9.2,6.5-18.9,5.3-20
					C787.4,186.5,784.1,195.2,779.3,204.3z"/>
				<path class="st11" d="M744.4,178.4c5.5,1.2,9.3,2.8,9.7,1.9s-2.9-3.8-8.3-5c-5.5-1.2-11-0.2-11.5,0.7
					C733.8,176.9,738.9,177.2,744.4,178.4z"/>
			</g>
			<path class="st4" d="M792.5,135c0,0-4.3,16.1-18.1,13.3c0,0,10,10.4,5.8,24c0,0,6.1-18.7,19.2-15.5
				C799.4,156.8,786.7,152.1,792.5,135z"/>
			<g>
				<g>
					
						<image style="overflow:visible;opacity:0.5;enable-background:new    ;" width="249" height="238" xlink:href="651F71054D01F65D.png"  transform="matrix(0.5932 0 0 0.5932 339.4695 175.8569)">
					</image>
					<g>
						
							<linearGradient id="SVGID_00000041264416699102383300000003066154658864086669_" gradientUnits="userSpaceOnUse" x1="-3749.6572" y1="-3565.6501" x2="-3821.387" y2="-3642.5708" gradientTransform="matrix(0.9425 0.3341 0.3341 -0.9425 5177.4712 -1900.8788)">
							<stop  offset="8.073434e-08" style="stop-color:#67F781"/>
							<stop  offset="0.7411" style="stop-color:#84B473"/>
							<stop  offset="1" style="stop-color:#CB7FE5"/>
						</linearGradient>
						<path style="fill:url(#SVGID_00000041264416699102383300000003066154658864086669_);" d="M383.2,292.6
							c-8.2-5.1-17.3-23.1-20.5-29.7c-3.2-6.6-9.8-22-10.9-37.5c-0.5-20.3,8.4-27.8,11.6-30.5c3.2-2.7,11.6-10,24.7-6.2
							c13,3.8,18.4,12.5,21.9,17.3c2,2.8,2.9,3.7,3.4,4l0.2,0.1c0.2,0.1,1.1,0.3,5.4-0.9c5.8-1.6,15.4-4.9,27.9,0.3
							c12.5,5.2,14.5,16.3,15.3,20.4c0.8,4,3,15.5-10.2,31c-10.7,11.3-25.4,19.1-32.1,22.3c-6.7,3.1-25.1,11.4-34.6,10.2l-1-0.1
							L383.2,292.6z"/>
					</g>
				</g>
				<path class="st13" d="M417.6,269.3c-13.1,7.6-23.6,11.8-23,13.9s12.1,0.6,25.3-7c13.1-7.6,22.9-18.4,22.3-20.6
					C441.5,253.4,430.7,261.7,417.6,269.3z"/>
				<path class="st13" d="M395.2,209.8c5.8,5.7,9.2,10.7,10.5,9.9c1.3-0.8-0.5-6.9-6.3-12.7c-5.8-5.7-13.3-8.9-14.6-8.1
					C383.4,199.7,389.4,204,395.2,209.8z"/>
			</g>
			<path class="st4" d="M345.6,152.1c0,0,6.6,27.6-16.3,34.7c0,0,23.5,7.5,28.3,31.2c0,0-3.8-30.1,16.2-38.8
				C373.7,179.2,350.9,182.4,345.6,152.1z"/>
		</g>
		<g>
			<g>
				<ellipse class="st14" cx="651.8" cy="321.7" rx="25.3" ry="25.3"/>
				<g>
					<path class="st15" d="M651.8,296.4c-0.2,0-0.4,0-0.6,0L626.5,321c0,0.2,0,0.5,0,0.7c0,1.6,0.1,3.1,0.4,4.6l29.6-29.5
						C655,296.5,653.4,296.4,651.8,296.4z"/>
					
						<linearGradient id="SVGID_00000179625206974280080230000001142035760077974924_" gradientUnits="userSpaceOnUse" x1="644.6193" y1="-252.5305" x2="669.6466" y2="-277.5578" gradientTransform="matrix(1 0 0 -1 0 62)">
						<stop  offset="0" style="stop-color:#ECEEF0"/>
						<stop  offset="0.4132" style="stop-color:#BDC3C7"/>
					</linearGradient>
					<path style="fill:url(#SVGID_00000179625206974280080230000001142035760077974924_);" d="M677,321.7c0,14-11.3,25.3-25.3,25.3
						c-10.7,0-19.8-6.7-23.5-16.1l0,0l32.9-32.8C670.4,301.9,677,311,677,321.7z"/>
				</g>
			</g>
			<circle class="st17" cx="651.8" cy="321.7" r="20.4"/>
		</g>
		<g>
			<g>
				<path class="st18" d="M947.1,242.9"/>
				
					<linearGradient id="SVGID_00000057133052345468116420000009417012687224954010_" gradientUnits="userSpaceOnUse" x1="924.0672" y1="-191.6212" x2="964.344" y2="-188.0973" gradientTransform="matrix(1 0 0 -1 0 62)">
					<stop  offset="8.073434e-08" style="stop-color:#DE95D7"/>
					<stop  offset="0.5773" style="stop-color:#DE95D7"/>
					<stop  offset="1" style="stop-color:#2E00BD"/>
				</linearGradient>
				
					<ellipse style="fill:url(#SVGID_00000057133052345468116420000009417012687224954010_);" cx="944.2" cy="251.9" rx="20.2" ry="20.2"/>
				<path class="st20" d="M944.2,231.6c-0.1,0-0.3,0-0.5,0L924,251.3c0,0.2,0,0.4,0,0.6c0,1.3,0.1,2.5,0.3,3.7L948,232
					C946.8,231.7,945.5,231.6,944.2,231.6z"/>
				<g>
					<g>
						<g>
							<g>
								<g>
									<defs>
										<path id="SVGID_00000005978931184885219930000014231515779691018644_" d="M964.4,251.9c0,11.2-9,20.2-20.2,20.2
											c-8.6,0-15.9-5.3-18.8-12.9l0,0l26.3-26.2C959.1,236,964.4,243.3,964.4,251.9z"/>
									</defs>
									<clipPath id="SVGID_00000106136106400080456340000008679219177709339016_">
										<use xlink:href="#SVGID_00000005978931184885219930000014231515779691018644_"  style="overflow:visible;"/>
									</clipPath>
									<g style="clip-path:url(#SVGID_00000106136106400080456340000008679219177709339016_);">
										<g>
											<g>
												<g>
													<g>
														<defs>
															
																<rect id="SVGID_00000088822278995807922600000005064665193396662442_" x="922.4" y="230" width="45.1" height="45.1"/>
														</defs>
														<clipPath id="SVGID_00000029023136193944492580000007094180049435442622_">
															<use xlink:href="#SVGID_00000088822278995807922600000005064665193396662442_"  style="overflow:visible;"/>
														</clipPath>
														<g style="clip-path:url(#SVGID_00000029023136193944492580000007094180049435442622_);">
															
																<image style="overflow:visible;enable-background:new    ;" width="157" height="156" xlink:href="651F71054D01F65E.jpg"  transform="matrix(0.2877 0 0 0.2877 922.2727 230.1185)">
															</image>
														</g>
													</g>
												</g>
											</g>
										</g>
									</g>
								</g>
							</g>
						</g>
					</g>
				</g>
			</g>
			<circle class="st23" cx="944.2" cy="251.9" r="16.1"/>
		</g>
	</g>
	<g>
		<defs>
			<path id="SVGID_00000075127148836204617370000011621763379809294741_" d="M1185.9,387.8H14.1c-9.5,0-17.2-7.7-17.2-17.2v-355
				C-3.1,6,4.6-1.7,14.1-1.7h1171.8c9.5,0,17.2,7.7,17.2,17.2v355C1203.1,380.1,1195.4,387.8,1185.9,387.8z"/>
		</defs>
		<clipPath id="SVGID_00000060006917364943513870000016513057309759145880_">
			<use xlink:href="#SVGID_00000075127148836204617370000011621763379809294741_"  style="overflow:visible;"/>
		</clipPath>
		<g style="clip-path:url(#SVGID_00000060006917364943513870000016513057309759145880_);">
			
				<ellipse transform="matrix(0.1414 -0.9899 0.9899 0.1414 -127.9998 455.8233)" class="st25" cx="198.8" cy="301.7" rx="24.2" ry="24.2"/>
			<path class="st26" d="M203,277.9c-1.5-0.3-3.1-0.4-4.7-0.4l-23.7,23.7c0,1.6,0.1,3.2,0.4,4.7L203,277.9z"/>
			<g>
				<g>
					<g>
						<g>
							<g>
								<defs>
									
										<ellipse id="SVGID_00000137120196520925892570000017287571576686723504_" transform="matrix(0.1414 -0.9899 0.9899 0.1414 -127.9998 455.8233)" cx="198.8" cy="301.7" rx="24.2" ry="24.2"/>
								</defs>
								<clipPath id="SVGID_00000004516489967336179720000010917783396691686583_">
									<use xlink:href="#SVGID_00000137120196520925892570000017287571576686723504_"  style="overflow:visible;"/>
								</clipPath>
								
									<linearGradient id="SVGID_00000154408727963191933220000017918061194961357699_" gradientUnits="userSpaceOnUse" x1="149.1705" y1="781.7579" x2="140.788" y2="773.1754" gradientTransform="matrix(0.9217 7.830000e-02 7.830000e-02 0.9217 3.2511 -427.2511)">
									<stop  offset="0" style="stop-color:#FFFFFF;stop-opacity:0"/>
									<stop  offset="1" style="stop-color:#FDDB83"/>
								</linearGradient>
								
									<polygon style="clip-path:url(#SVGID_00000004516489967336179720000010917783396691686583_);fill:url(#SVGID_00000154408727963191933220000017918061194961357699_);" points="
									185.5,322.7 174.9,312.1 209.2,277.8 219.8,288.4 								"/>
							</g>
						</g>
					</g>
				</g>
			</g>
		</g>
	</g>
	<g>
		<circle class="st17" cx="198.8" cy="301.7" r="18.9"/>
	</g>
</g>
</svg>
