<?xml version="1.0" encoding="utf-8"?>
<!-- Generator: Adobe Illustrator 27.0.0, SVG Export Plug-In . SVG Version: 6.00 Build 0)  -->
<svg version="1.1" id="레이어_1" xmlns="http://www.w3.org/2000/svg" xmlns:xlink="http://www.w3.org/1999/xlink" x="0px"
	 y="0px" viewBox="0 0 80 81" style="enable-background:new 0 0 80 81;" xml:space="preserve">
<style type="text/css">
	.st0{fill:url(#SVGID_1_);}
	.st1{fill:#8DF79C;}
	.st2{fill:#FFFFFF;}
	.st3{fill:#0067F9;}
</style>
<g>
	<g>
		
			<linearGradient id="SVGID_1_" gradientUnits="userSpaceOnUse" x1="-1798.9561" y1="1160.5884" x2="-1835.2214" y2="1199.4783" gradientTransform="matrix(0.9744 -0.225 0.225 0.9744 1556.6951 -1510.8203)">
			<stop  offset="8.073434e-08" style="stop-color:#68F983"/>
			<stop  offset="0.7467" style="stop-color:#86B673"/>
			<stop  offset="1" style="stop-color:#D4782E"/>
		</linearGradient>
		<path class="st0" d="M58.81,79.93c-4.86,0.05-13.65-5.16-16.81-7.12c-3.16-1.96-10.14-6.74-14.85-13.04
			c-5.76-8.52-3.97-14.16-3.34-16.15c0.62-1.99,2.23-7.44,8.83-9.35s11.22,0.33,14.03,1.45c1.6,0.64,2.26,0.77,2.53,0.77l0.11-0.01
			c0.12-0.02,0.56-0.17,2.09-1.85c2.04-2.24,5.2-6.28,11.97-7.46c6.77-1.18,10.6,3.02,12.03,4.53c1.43,1.52,5.52,5.8,4.08,15.98
			c-1.47,7.72-5.65,15.07-7.63,18.22c-1.98,3.15-7.59,11.68-11.98,13.77l-0.47,0.22L58.81,79.93z"/>
		<path class="st1" d="M67.13,60.65c-3.52,6.82-6.86,11.42-6.02,12.18c0.84,0.76,5.34-3.03,8.86-9.85
			c3.52-6.82,4.75-14.08,3.9-14.84S70.65,53.83,67.13,60.65z"/>
		<path class="st1" d="M41.4,41.36c4.03,0.88,6.83,2.09,7.17,1.39c0.34-0.7-2.11-2.81-6.14-3.69c-4.03-0.88-8.11-0.19-8.45,0.51
			C33.64,40.26,37.37,40.48,41.4,41.36z"/>
	</g>
	<g>
		<path class="st2" d="M6.01,3.07c0,0,12.33,19.89-3.79,31.44c0,0,20.36-0.22,30.22,17.14c0,0-10.8-22.61,2.65-34.59
			C35.08,17.05,18.03,25.42,6.01,3.07z"/>
		<path class="st3" d="M32.43,53.15c-0.52,0-1.03-0.27-1.31-0.76c-9.31-16.4-28.69-16.35-28.9-16.38c-0.64-0.03-1.24-0.41-1.44-1.03
			c-0.2-0.62,0.02-1.3,0.55-1.69c6.16-4.41,8.63-10.64,7.35-18.51c-0.71-4.33-2.4-8.02-3.33-9.79c-0.23-0.4-0.45-0.8-0.67-1.21
			C4.3,3.06,4.55,2.17,5.25,1.77c0.7-0.41,1.6-0.18,2.03,0.51C7.3,2.3,7.54,2.7,7.9,3.4c11.15,19.56,25.89,12.62,26.52,12.31
			c0.67-0.33,1.49-0.11,1.91,0.51c0.42,0.62,0.31,1.46-0.25,1.96C23.62,29.28,33.68,50.78,33.79,51c0.35,0.73,0.06,1.6-0.66,1.98
			C32.91,53.09,32.67,53.15,32.43,53.15z M6.01,33.28c5.17,0.64,14.57,2.83,22.08,10.24c-0.34-1.39-0.64-2.89-0.86-4.46
			c-1.1-7.7,0.1-14.25,3.47-19.26c-4.79,0.71-12.3,0.24-19.34-6.8C12.64,19.21,12.36,27.02,6.01,33.28z"/>
	</g>
</g>
</svg>
