<?xml version="1.0" encoding="utf-8"?>
<!-- Generator: Adobe Illustrator 26.5.0, SVG Export Plug-In . SVG Version: 6.00 Build 0)  -->
<svg version="1.1" id="레이어_1" xmlns="http://www.w3.org/2000/svg" xmlns:xlink="http://www.w3.org/1999/xlink" x="0px"
	 y="0px" viewBox="0 0 143.46 24.77" style="enable-background:new 0 0 143.46 24.77;" xml:space="preserve">
<style type="text/css">
	.st0{fill:#FFFFFF;}
</style>
<g>
	<path class="st0" d="M1.08,21.82C0.6,21.84,0.27,21.49,0.27,21v-2.49c0-0.49,0.33-0.81,0.81-0.81l18.59-0.05
		c0.49,0,0.81,0.33,0.81,0.81v2.2c0,0.49-0.33,0.79-0.81,0.81L1.08,21.82z M18.59,14.34c-0.19,0.41-0.6,0.57-1.17,0.38
		c-2.49-0.84-4.93-2.17-7.21-4.17c-1.82,1.98-4.2,3.52-6.88,4.39c-0.51,0.16-1.06,0.08-1.3-0.35L1.11,12.9
		c-0.24-0.43-0.08-0.98,0.41-1.19c4.12-1.82,7.02-5.23,7.45-9.08c0.08-0.84,0.46-1.22,1.08-1.22h2.87c0.73,0,1.17,0.51,1.08,1.22
		c-0.19,1.68-0.73,3.33-1.54,4.82c2.22,1.65,4.44,2.71,6.75,3.5c0.51,0.19,0.62,0.65,0.43,1.06L18.59,14.34z"/>
	<path class="st0" d="M24.01,22.09c-0.49,0.03-0.81-0.33-0.81-0.81v-2.22c0-0.49,0.33-0.81,0.81-0.81h6.94l-0.03-2.6l-4.04,0.14
		c-1.22,0-1.9-0.65-1.9-1.87L24.85,3.06c-0.03-1.27,0.79-1.9,1.9-1.9l13.8,0.03c0.57,0,0.95,0.38,0.95,0.95V4.2
		c0,0.57-0.38,0.95-0.95,0.95H29.57v1.44l10.71-0.05c0.49,0,0.76,0.38,0.76,0.81v2.03c0,0.54-0.35,0.81-0.89,0.81l-10.57,0.05v1.57
		l11.19,0.03c0.57-0.05,0.81,0.05,0.89,0.54v1.98c0.08,0.51-0.11,0.87-0.57,0.95l-5.34,0.19l-0.03,2.71l6.88-0.03
		c0.49,0,0.81,0.33,0.81,0.81v1.92c0,0.49-0.33,0.79-0.81,0.81L24.01,22.09z"/>
	<path class="st0" d="M60.81,17.67c0.08,0.51-0.11,0.81-0.57,0.95c-2.85,0.79-7.59,1.19-11.17,1.14c-1.22-0.03-1.9-0.65-1.9-1.87
		v-7.56c0-1.27,0.76-1.9,1.87-1.9l5.91-0.03l0.03-2.68h-6.45c-0.57,0-0.95-0.38-0.95-0.95V2.65c0-0.57,0.38-0.95,0.95-0.95
		l9.35,0.05c1.11,0,1.9,0.62,1.87,1.9l-0.14,6.88c-0.03,1.19-0.65,1.87-1.9,1.9l-5.8,0.08v2.93c2.41,0.05,5.15-0.14,7.59-0.57
		c0.57-0.11,0.81,0.05,0.89,0.54L60.81,17.67z M63.42,22.22c-0.54,0-0.81-0.27-0.81-0.81V2.22c0-0.54,0.24-0.81,0.79-0.81h3.31
		c0.54,0,0.81,0.27,0.79,0.81l-0.6,19.19c0,0.54-0.27,0.81-0.81,0.81H63.42z"/>
	<path class="st0" d="M82.36,17.07c0.11,0.57-0.11,0.81-0.57,0.95c-2.49,0.68-5.56,1.11-8.05,1.06c-1.22-0.03-1.87-0.65-1.9-1.87
		L71.44,3.44c-0.03-0.54,0.24-0.81,0.79-0.81h3.25c0.54,0,0.76,0.27,0.79,0.81l0.33,11.22c1.54,0,3.12-0.16,4.47-0.38
		c0.6-0.11,0.81,0.05,0.89,0.54L82.36,17.07z M84.58,22.22c-0.54,0-0.81-0.27-0.81-0.81l-0.16-9.95h-3.63
		c-0.57,0-0.95-0.38-0.95-0.95V8.18c0-0.57,0.38-0.95,0.95-0.95h3.58L83.5,2.49c0-0.54,0.24-0.81,0.79-0.81h3.04
		c0.54,0,0.81,0.27,0.79,0.81l-0.33,18.92c0,0.54-0.27,0.81-0.81,0.81H84.58z M89.97,22.22c-0.54,0-0.81-0.27-0.81-0.81V2.22
		c0-0.54,0.24-0.81,0.79-0.81h3.04c0.54,0,0.81,0.27,0.79,0.81l-0.6,19.19c0,0.54-0.27,0.81-0.81,0.81H89.97z"/>
	<path class="st0" d="M96.42,9.65c0-4.58,3.31-7.78,7.59-7.78c4.26,0,7.53,3.2,7.53,7.78c0,4.58-3.28,7.62-7.53,7.62
		C99.73,17.26,96.42,14.23,96.42,9.65z M107.53,9.65c0-2.2-1.27-3.55-3.12-3.55c-1.95,0-3.14,1.36-3.14,3.55
		c0,2.2,1.27,3.52,3.14,3.52C106.26,13.17,107.53,11.84,107.53,9.65z M113.96,22.22c-0.54,0-0.81-0.27-0.81-0.81V2.22
		c0-0.54,0.24-0.81,0.79-0.81h3.31c0.54,0,0.81,0.27,0.79,0.81l-0.6,19.19c0,0.54-0.27,0.81-0.81,0.81H113.96z"/>
	<path class="st0" d="M139.13,17.21c-0.54,0-0.81-0.27-0.81-0.81l-0.05-4.63h-1.84c-0.03,0.11-0.05,0.22-0.11,0.3l-1.27,2.44
		c-0.24,0.41-0.68,0.51-1.19,0.3c-1.92-0.76-3.71-1.87-5.28-3.6c-1.19,1.6-2.68,3.04-4.47,4.2c-0.51,0.33-1,0.22-1.33-0.14
		l-1.38-1.41c-0.3-0.33-0.24-0.81,0.19-1.17c3.39-2.63,5.1-6.78,5.2-10.46C126.8,1.38,127.23,1,127.86,1h2.9
		c0.73,0,1.08,0.51,1.06,1.22c-0.11,1.87-0.54,3.77-1.3,5.56c0.84,0.76,1.76,1.38,2.71,1.92V9.1c0-0.57,0.38-0.95,0.95-0.95h4.07
		l-0.03-1.14h-4.04c-0.57,0-0.95-0.38-0.95-0.95V4.36c0-0.57,0.38-0.95,0.95-0.95h4.01l-0.03-2.01c0-0.54,0.24-0.81,0.79-0.81h3.31
		c0.54,0,0.81,0.27,0.79,0.81l-0.27,14.99c-0.03,0.54-0.27,0.81-0.81,0.81H139.13z M129.16,24.77c-1.22,0.03-1.87-0.65-1.9-1.87
		l-0.16-5.91c-0.03-0.54,0.24-0.81,0.79-0.81h2.98c0.54,0,0.79,0.27,0.79,0.81l-0.05,3.88l10.35,0.11c0.57,0,0.79,0.22,0.79,0.7
		v2.06c0,0.6-0.27,0.84-0.73,0.84L129.16,24.77z"/>
</g>
</svg>
