<?xml version="1.0" encoding="utf-8"?>
<!-- Generator: Adobe Illustrator 27.0.0, SVG Export Plug-In . SVG Version: 6.00 Build 0)  -->
<svg version="1.1" id="레이어_1" xmlns="http://www.w3.org/2000/svg" xmlns:xlink="http://www.w3.org/1999/xlink" x="0px"
	 y="0px" viewBox="0 0 61 39" style="enable-background:new 0 0 61 39;" xml:space="preserve">
<style type="text/css">
	.st0{fill:#F9B13A;}
	.st1{fill:#FFDD85;}
	.st2{clip-path:url(#SVGID_00000067933299928550136420000000549750694574762116_);}
	.st3{fill:#FFDD84;}
	.st4{fill:#FFDC84;}
	.st5{fill:#FFDC83;}
	.st6{fill:#FFDB82;}
	.st7{fill:#FFDB81;}
	.st8{fill:#FFDA80;}
	.st9{fill:#FFDA7F;}
	.st10{fill:#FFD97F;}
	.st11{fill:#FED97E;}
	.st12{fill:#FED87D;}
	.st13{fill:#FED87C;}
	.st14{fill:#FED77B;}
	.st15{fill:#FED77A;}
	.st16{fill:#FED679;}
	.st17{fill:#FED678;}
	.st18{fill:#FED578;}
	.st19{fill:#FED577;}
	.st20{fill:#FED476;}
	.st21{fill:#FED475;}
	.st22{fill:#FED374;}
	.st23{fill:#FED273;}
	.st24{fill:#FDD272;}
	.st25{fill:#FDD171;}
	.st26{fill:#FDD170;}
	.st27{fill:#FDD06F;}
	.st28{fill:#FDCF6E;}
	.st29{fill:#FDCF6C;}
	.st30{fill:#FDCE6B;}
	.st31{fill:#FDCD6A;}
	.st32{fill:#FDCD69;}
	.st33{fill:#FDCC68;}
	.st34{fill:#FDCB66;}
	.st35{fill:#FCCA65;}
	.st36{fill:#FCCA64;}
	.st37{fill:#FCC962;}
	.st38{fill:#FCC861;}
	.st39{fill:#FCC760;}
	.st40{fill:#FCC65E;}
	.st41{fill:#FCC55D;}
	.st42{fill:#FCC55B;}
	.st43{fill:#FCC45A;}
	.st44{fill:#FBC358;}
	.st45{fill:#FBC257;}
	.st46{fill:#FBC155;}
	.st47{fill:#FBC053;}
	.st48{fill:#FBBF52;}
	.st49{fill:#FBBE50;}
	.st50{fill:#FBBD4E;}
	.st51{fill:#FABC4D;}
	.st52{fill:#FABB4B;}
	.st53{fill:#FABA49;}
	.st54{fill:#FAB947;}
	.st55{fill:#FAB846;}
	.st56{fill:#FAB744;}
	.st57{fill:#FAB642;}
	.st58{fill:#F9B440;}
	.st59{fill:#F9B33E;}
	.st60{fill:#F9B23C;}
	.st61{fill:#432DF1;}
	.st62{fill:#FFFFFF;}
	.st63{fill:#0067F9;}
</style>
<g>
	<g>
		<g>
			<path class="st0" d="M46.01,14.11"/>
		</g>
	</g>
	<g>
		<g>
			<circle class="st0" cx="43.6" cy="21.59" r="16.98"/>
		</g>
	</g>
	<g>
		<g>
			<path class="st1" d="M43.6,4.61c-0.13,0-0.26,0-0.38,0.01L26.62,21.13c-0.01,0.15-0.01,0.31-0.01,0.46c0,1.06,0.1,2.1,0.28,3.11
				L46.78,4.91C45.75,4.71,44.69,4.61,43.6,4.61z"/>
		</g>
	</g>
	<g>
		<g>
			<defs>
				<path id="SVGID_1_" d="M60.58,21.59c0,9.38-7.6,16.98-16.98,16.98c-7.19,0-13.34-4.47-15.82-10.78v0L49.88,5.8
					C56.15,8.3,60.58,14.43,60.58,21.59z"/>
			</defs>
			<clipPath id="SVGID_00000165921312936517361150000000223382298508981130_">
				<use xlink:href="#SVGID_1_"  style="overflow:visible;"/>
			</clipPath>
			<g style="clip-path:url(#SVGID_00000165921312936517361150000000223382298508981130_);">
				<polygon class="st1" points="49.09,5.8 27.78,27.83 27.78,5.8 				"/>
			</g>
			<g style="clip-path:url(#SVGID_00000165921312936517361150000000223382298508981130_);">
				<polygon class="st1" points="49.31,5.8 27.78,28.06 27.78,27.83 49.09,5.8 				"/>
			</g>
			<g style="clip-path:url(#SVGID_00000165921312936517361150000000223382298508981130_);">
				<polygon class="st1" points="49.52,5.8 27.78,28.28 27.78,28.06 49.31,5.8 				"/>
			</g>
			<g style="clip-path:url(#SVGID_00000165921312936517361150000000223382298508981130_);">
				<polygon class="st1" points="49.74,5.8 27.78,28.51 27.78,28.28 49.52,5.8 				"/>
			</g>
			<g style="clip-path:url(#SVGID_00000165921312936517361150000000223382298508981130_);">
				<polygon class="st1" points="49.96,5.8 27.78,28.73 27.78,28.51 49.74,5.8 				"/>
			</g>
			<g style="clip-path:url(#SVGID_00000165921312936517361150000000223382298508981130_);">
				<polygon class="st1" points="50.18,5.8 27.78,28.96 27.78,28.73 49.96,5.8 				"/>
			</g>
			<g style="clip-path:url(#SVGID_00000165921312936517361150000000223382298508981130_);">
				<polygon class="st1" points="50.4,5.8 27.78,29.19 27.78,28.96 50.18,5.8 				"/>
			</g>
			<g style="clip-path:url(#SVGID_00000165921312936517361150000000223382298508981130_);">
				<polygon class="st3" points="50.61,5.8 27.78,29.41 27.78,29.19 50.4,5.8 				"/>
			</g>
			<g style="clip-path:url(#SVGID_00000165921312936517361150000000223382298508981130_);">
				<polygon class="st3" points="50.83,5.8 27.78,29.64 27.78,29.41 50.61,5.8 				"/>
			</g>
			<g style="clip-path:url(#SVGID_00000165921312936517361150000000223382298508981130_);">
				<polygon class="st4" points="51.05,5.8 27.78,29.86 27.78,29.64 50.83,5.8 				"/>
			</g>
			<g style="clip-path:url(#SVGID_00000165921312936517361150000000223382298508981130_);">
				<polygon class="st4" points="51.27,5.8 27.78,30.09 27.78,29.86 51.05,5.8 				"/>
			</g>
			<g style="clip-path:url(#SVGID_00000165921312936517361150000000223382298508981130_);">
				<polygon class="st4" points="51.49,5.8 27.78,30.31 27.78,30.09 51.27,5.8 				"/>
			</g>
			<g style="clip-path:url(#SVGID_00000165921312936517361150000000223382298508981130_);">
				<polygon class="st5" points="51.71,5.8 27.78,30.54 27.78,30.31 51.49,5.8 				"/>
			</g>
			<g style="clip-path:url(#SVGID_00000165921312936517361150000000223382298508981130_);">
				<polygon class="st5" points="51.92,5.8 27.78,30.77 27.78,30.54 51.71,5.8 				"/>
			</g>
			<g style="clip-path:url(#SVGID_00000165921312936517361150000000223382298508981130_);">
				<polygon class="st5" points="52.14,5.8 27.78,30.99 27.78,30.77 51.92,5.8 				"/>
			</g>
			<g style="clip-path:url(#SVGID_00000165921312936517361150000000223382298508981130_);">
				<polygon class="st6" points="52.36,5.8 27.78,31.22 27.78,30.99 52.14,5.8 				"/>
			</g>
			<g style="clip-path:url(#SVGID_00000165921312936517361150000000223382298508981130_);">
				<polygon class="st6" points="52.58,5.8 27.78,31.44 27.78,31.22 52.36,5.8 				"/>
			</g>
			<g style="clip-path:url(#SVGID_00000165921312936517361150000000223382298508981130_);">
				<polygon class="st7" points="52.8,5.8 27.78,31.67 27.78,31.44 52.58,5.8 				"/>
			</g>
			<g style="clip-path:url(#SVGID_00000165921312936517361150000000223382298508981130_);">
				<polygon class="st7" points="53.02,5.8 27.78,31.89 27.78,31.67 52.8,5.8 				"/>
			</g>
			<g style="clip-path:url(#SVGID_00000165921312936517361150000000223382298508981130_);">
				<polygon class="st8" points="53.23,5.8 27.78,32.12 27.78,31.89 53.02,5.8 				"/>
			</g>
			<g style="clip-path:url(#SVGID_00000165921312936517361150000000223382298508981130_);">
				<polygon class="st8" points="53.45,5.8 27.89,32.23 27.78,32.13 27.78,32.12 53.23,5.8 				"/>
			</g>
			<g style="clip-path:url(#SVGID_00000165921312936517361150000000223382298508981130_);">
				<polygon class="st9" points="53.67,5.8 28,32.34 27.89,32.23 53.45,5.8 				"/>
			</g>
			<g style="clip-path:url(#SVGID_00000165921312936517361150000000223382298508981130_);">
				<polygon class="st10" points="53.89,5.8 28.12,32.45 28,32.34 53.67,5.8 				"/>
			</g>
			<g style="clip-path:url(#SVGID_00000165921312936517361150000000223382298508981130_);">
				<polygon class="st11" points="53.99,5.8 54.05,5.86 28.23,32.56 28.12,32.45 53.89,5.8 				"/>
			</g>
			<g style="clip-path:url(#SVGID_00000165921312936517361150000000223382298508981130_);">
				<polygon class="st11" points="54.05,5.86 54.17,5.97 28.34,32.67 28.23,32.56 				"/>
			</g>
			<g style="clip-path:url(#SVGID_00000165921312936517361150000000223382298508981130_);">
				<polygon class="st12" points="54.17,5.97 54.28,6.08 28.46,32.78 28.34,32.67 				"/>
			</g>
			<g style="clip-path:url(#SVGID_00000165921312936517361150000000223382298508981130_);">
				<polygon class="st13" points="54.28,6.08 54.39,6.19 28.57,32.89 28.46,32.78 				"/>
			</g>
			<g style="clip-path:url(#SVGID_00000165921312936517361150000000223382298508981130_);">
				<polygon class="st14" points="54.39,6.19 54.5,6.3 28.68,33 28.57,32.89 				"/>
			</g>
			<g style="clip-path:url(#SVGID_00000165921312936517361150000000223382298508981130_);">
				<polygon class="st14" points="54.5,6.3 54.62,6.4 28.79,33.11 28.68,33 				"/>
			</g>
			<g style="clip-path:url(#SVGID_00000165921312936517361150000000223382298508981130_);">
				<polygon class="st15" points="54.62,6.4 54.73,6.51 28.91,33.21 28.79,33.11 				"/>
			</g>
			<g style="clip-path:url(#SVGID_00000165921312936517361150000000223382298508981130_);">
				<polygon class="st16" points="54.73,6.51 54.84,6.62 29.02,33.32 28.91,33.21 				"/>
			</g>
			<g style="clip-path:url(#SVGID_00000165921312936517361150000000223382298508981130_);">
				<polygon class="st17" points="54.84,6.62 54.96,6.73 29.13,33.43 29.02,33.32 				"/>
			</g>
			<g style="clip-path:url(#SVGID_00000165921312936517361150000000223382298508981130_);">
				<polygon class="st18" points="54.96,6.73 55.07,6.84 29.25,33.54 29.13,33.43 				"/>
			</g>
			<g style="clip-path:url(#SVGID_00000165921312936517361150000000223382298508981130_);">
				<polygon class="st19" points="55.07,6.84 55.18,6.95 29.36,33.65 29.25,33.54 				"/>
			</g>
			<g style="clip-path:url(#SVGID_00000165921312936517361150000000223382298508981130_);">
				<polygon class="st20" points="55.18,6.95 55.29,7.06 29.47,33.76 29.36,33.65 				"/>
			</g>
			<g style="clip-path:url(#SVGID_00000165921312936517361150000000223382298508981130_);">
				<polygon class="st21" points="55.29,7.06 55.41,7.17 29.59,33.87 29.47,33.76 				"/>
			</g>
			<g style="clip-path:url(#SVGID_00000165921312936517361150000000223382298508981130_);">
				<polygon class="st22" points="55.41,7.17 55.52,7.28 29.7,33.98 29.59,33.87 				"/>
			</g>
			<g style="clip-path:url(#SVGID_00000165921312936517361150000000223382298508981130_);">
				<polygon class="st23" points="55.52,7.28 55.63,7.38 29.81,34.09 29.7,33.98 				"/>
			</g>
			<g style="clip-path:url(#SVGID_00000165921312936517361150000000223382298508981130_);">
				<polygon class="st24" points="55.63,7.38 55.75,7.49 29.92,34.2 29.81,34.09 				"/>
			</g>
			<g style="clip-path:url(#SVGID_00000165921312936517361150000000223382298508981130_);">
				<polygon class="st25" points="55.75,7.49 55.86,7.6 30.04,34.3 29.92,34.2 				"/>
			</g>
			<g style="clip-path:url(#SVGID_00000165921312936517361150000000223382298508981130_);">
				<polygon class="st26" points="55.86,7.6 55.97,7.71 30.15,34.41 30.04,34.3 				"/>
			</g>
			<g style="clip-path:url(#SVGID_00000165921312936517361150000000223382298508981130_);">
				<polygon class="st27" points="55.97,7.71 56.09,7.82 30.26,34.52 30.15,34.41 				"/>
			</g>
			<g style="clip-path:url(#SVGID_00000165921312936517361150000000223382298508981130_);">
				<polygon class="st28" points="56.09,7.82 56.2,7.93 30.38,34.63 30.26,34.52 				"/>
			</g>
			<g style="clip-path:url(#SVGID_00000165921312936517361150000000223382298508981130_);">
				<polygon class="st29" points="56.2,7.93 56.31,8.04 30.49,34.74 30.38,34.63 				"/>
			</g>
			<g style="clip-path:url(#SVGID_00000165921312936517361150000000223382298508981130_);">
				<polygon class="st30" points="56.31,8.04 56.42,8.15 30.6,34.85 30.49,34.74 				"/>
			</g>
			<g style="clip-path:url(#SVGID_00000165921312936517361150000000223382298508981130_);">
				<polygon class="st31" points="56.42,8.15 56.54,8.26 30.71,34.96 30.6,34.85 				"/>
			</g>
			<g style="clip-path:url(#SVGID_00000165921312936517361150000000223382298508981130_);">
				<polygon class="st32" points="56.54,8.26 56.65,8.36 30.83,35.07 30.71,34.96 				"/>
			</g>
			<g style="clip-path:url(#SVGID_00000165921312936517361150000000223382298508981130_);">
				<polygon class="st33" points="56.65,8.36 56.76,8.47 30.94,35.18 30.83,35.07 				"/>
			</g>
			<g style="clip-path:url(#SVGID_00000165921312936517361150000000223382298508981130_);">
				<polygon class="st34" points="56.76,8.47 56.88,8.58 31.05,35.28 30.94,35.18 				"/>
			</g>
			<g style="clip-path:url(#SVGID_00000165921312936517361150000000223382298508981130_);">
				<polygon class="st35" points="56.88,8.58 56.99,8.69 31.17,35.39 31.05,35.28 				"/>
			</g>
			<g style="clip-path:url(#SVGID_00000165921312936517361150000000223382298508981130_);">
				<polygon class="st36" points="56.99,8.69 57.1,8.8 31.28,35.5 31.17,35.39 				"/>
			</g>
			<g style="clip-path:url(#SVGID_00000165921312936517361150000000223382298508981130_);">
				<polygon class="st37" points="57.1,8.8 57.21,8.91 31.39,35.61 31.28,35.5 				"/>
			</g>
			<g style="clip-path:url(#SVGID_00000165921312936517361150000000223382298508981130_);">
				<polygon class="st38" points="57.21,8.91 57.33,9.02 31.51,35.72 31.39,35.61 				"/>
			</g>
			<g style="clip-path:url(#SVGID_00000165921312936517361150000000223382298508981130_);">
				<polygon class="st39" points="57.33,9.02 57.44,9.13 31.62,35.83 31.51,35.72 				"/>
			</g>
			<g style="clip-path:url(#SVGID_00000165921312936517361150000000223382298508981130_);">
				<polygon class="st40" points="57.44,9.13 57.55,9.24 31.73,35.94 31.62,35.83 				"/>
			</g>
			<g style="clip-path:url(#SVGID_00000165921312936517361150000000223382298508981130_);">
				<polygon class="st41" points="57.55,9.24 57.67,9.34 31.84,36.05 31.73,35.94 				"/>
			</g>
			<g style="clip-path:url(#SVGID_00000165921312936517361150000000223382298508981130_);">
				<polygon class="st42" points="57.67,9.34 57.78,9.45 31.96,36.16 31.84,36.05 				"/>
			</g>
			<g style="clip-path:url(#SVGID_00000165921312936517361150000000223382298508981130_);">
				<polygon class="st43" points="57.78,9.45 57.89,9.56 32.07,36.26 31.96,36.16 				"/>
			</g>
			<g style="clip-path:url(#SVGID_00000165921312936517361150000000223382298508981130_);">
				<polygon class="st44" points="57.89,9.56 58.01,9.67 32.18,36.37 32.07,36.26 				"/>
			</g>
			<g style="clip-path:url(#SVGID_00000165921312936517361150000000223382298508981130_);">
				<polygon class="st45" points="58.01,9.67 58.12,9.78 32.3,36.48 32.18,36.37 				"/>
			</g>
			<g style="clip-path:url(#SVGID_00000165921312936517361150000000223382298508981130_);">
				<polygon class="st46" points="58.12,9.78 58.23,9.89 32.41,36.59 32.3,36.48 				"/>
			</g>
			<g style="clip-path:url(#SVGID_00000165921312936517361150000000223382298508981130_);">
				<polygon class="st47" points="58.23,9.89 58.34,10 32.52,36.7 32.41,36.59 				"/>
			</g>
			<g style="clip-path:url(#SVGID_00000165921312936517361150000000223382298508981130_);">
				<polygon class="st48" points="58.34,10 58.46,10.11 32.63,36.81 32.52,36.7 				"/>
			</g>
			<g style="clip-path:url(#SVGID_00000165921312936517361150000000223382298508981130_);">
				<polygon class="st49" points="58.46,10.11 58.57,10.22 32.75,36.92 32.63,36.81 				"/>
			</g>
			<g style="clip-path:url(#SVGID_00000165921312936517361150000000223382298508981130_);">
				<polygon class="st50" points="58.57,10.22 58.68,10.32 32.86,37.03 32.75,36.92 				"/>
			</g>
			<g style="clip-path:url(#SVGID_00000165921312936517361150000000223382298508981130_);">
				<polygon class="st51" points="58.68,10.32 58.8,10.43 32.97,37.14 32.86,37.03 				"/>
			</g>
			<g style="clip-path:url(#SVGID_00000165921312936517361150000000223382298508981130_);">
				<polygon class="st52" points="58.8,10.43 58.91,10.54 33.09,37.24 32.97,37.14 				"/>
			</g>
			<g style="clip-path:url(#SVGID_00000165921312936517361150000000223382298508981130_);">
				<polygon class="st53" points="58.91,10.54 59.02,10.65 33.2,37.35 33.09,37.24 				"/>
			</g>
			<g style="clip-path:url(#SVGID_00000165921312936517361150000000223382298508981130_);">
				<polygon class="st54" points="59.02,10.65 59.13,10.76 33.31,37.46 33.2,37.35 				"/>
			</g>
			<g style="clip-path:url(#SVGID_00000165921312936517361150000000223382298508981130_);">
				<polygon class="st55" points="59.13,10.76 59.25,10.87 33.43,37.57 33.31,37.46 				"/>
			</g>
			<g style="clip-path:url(#SVGID_00000165921312936517361150000000223382298508981130_);">
				<polygon class="st56" points="59.25,10.87 59.36,10.98 33.54,37.68 33.43,37.57 				"/>
			</g>
			<g style="clip-path:url(#SVGID_00000165921312936517361150000000223382298508981130_);">
				<polygon class="st57" points="59.36,10.98 59.47,11.09 33.65,37.79 33.54,37.68 				"/>
			</g>
			<g style="clip-path:url(#SVGID_00000165921312936517361150000000223382298508981130_);">
				<polygon class="st58" points="59.47,11.09 59.59,11.2 33.76,37.9 33.65,37.79 				"/>
			</g>
			<g style="clip-path:url(#SVGID_00000165921312936517361150000000223382298508981130_);">
				<polygon class="st59" points="59.59,11.2 59.7,11.3 33.88,38.01 33.76,37.9 				"/>
			</g>
			<g style="clip-path:url(#SVGID_00000165921312936517361150000000223382298508981130_);">
				<polygon class="st60" points="59.7,11.3 59.81,11.41 33.99,38.12 33.88,38.01 				"/>
			</g>
			<g style="clip-path:url(#SVGID_00000165921312936517361150000000223382298508981130_);">
				<polygon class="st0" points="59.81,11.41 59.93,11.52 34.1,38.22 33.99,38.12 				"/>
			</g>
			<g style="clip-path:url(#SVGID_00000165921312936517361150000000223382298508981130_);">
				<polygon class="st0" points="59.93,11.52 60.58,12.16 60.58,24.25 46.73,38.57 34.47,38.57 34.1,38.22 				"/>
			</g>
			<g style="clip-path:url(#SVGID_00000165921312936517361150000000223382298508981130_);">
				<polygon class="st0" points="60.58,25.33 47.77,38.57 46.73,38.57 60.58,24.25 				"/>
			</g>
			<g style="clip-path:url(#SVGID_00000165921312936517361150000000223382298508981130_);">
				<polygon class="st0" points="47.77,38.57 60.58,25.33 60.58,38.57 				"/>
			</g>
		</g>
	</g>
</g>
<g>
	<path class="st61" d="M43.6,8.49c7.23,0,13.12,5.88,13.12,13.1s-5.89,13.1-13.12,13.1s-13.12-5.88-13.12-13.1S36.37,8.49,43.6,8.49
		 M43.6,7.74c-7.66,0-13.87,6.2-13.87,13.85s6.21,13.85,13.87,13.85s13.87-6.2,13.87-13.85S51.26,7.74,43.6,7.74L43.6,7.74z"/>
</g>
<g>
	<path class="st62" d="M1.83,2.97c0,0,12.15,7.49,6.51,18.19c0,0,11.05-5.68,21.16,1.1c0,0-11.6-8.77-8-19.59
		C21.51,2.66,14.5,11.88,1.83,2.97z"/>
	<path class="st63" d="M29.51,23.76c-0.29,0-0.58-0.08-0.83-0.25c-9.23-6.19-19.54-1.06-19.64-1.01c-0.58,0.3-1.29,0.18-1.75-0.28
		c-0.46-0.47-0.56-1.17-0.26-1.75c2.05-3.89,1.7-7.77-1.03-11.53C4.49,6.86,2.66,5.39,1.7,4.7C1.46,4.54,1.22,4.37,0.97,4.2
		C0.31,3.73,0.14,2.82,0.58,2.14c0.45-0.68,1.35-0.88,2.04-0.45c0.35,0.22,0.72,0.46,1.1,0.74c10.62,6.79,16.36-0.36,16.61-0.68
		c0.45-0.58,1.25-0.75,1.89-0.41c0.64,0.34,0.95,1.1,0.72,1.79c-3.22,9.66,7.37,17.84,7.48,17.92c0.65,0.49,0.79,1.41,0.31,2.07
		C30.44,23.54,29.98,23.76,29.51,23.76z M8.96,7.94c1.87,2.93,2.99,6.57,1.99,10.61c2.91-0.89,7.44-1.72,12.36-0.59
		c-2.17-2.95-4.14-6.92-4-11.46C16.78,7.98,13.25,8.91,8.96,7.94z"/>
</g>
</svg>
