<?xml version="1.0" encoding="utf-8"?>
<!-- Generator: Adobe Illustrator 27.0.0, SVG Export Plug-In . SVG Version: 6.00 Build 0)  -->
<svg version="1.1" id="레이어_1" xmlns="http://www.w3.org/2000/svg" xmlns:xlink="http://www.w3.org/1999/xlink" x="0px"
	 y="0px" viewBox="0 0 650 650" style="enable-background:new 0 0 650 650;" xml:space="preserve">
<style type="text/css">
	.st0{fill:url(#SVGID_1_);}
	.st1{fill:url(#SVGID_00000130616863135732393750000000981736625545734291_);}
	.st2{fill:url(#패스_7886_00000145741984849634693020000000323926805724414908_);}
	.st3{fill:url(#SVGID_00000011736867787502625010000006584080637125159332_);}
	.st4{fill:none;stroke:#FFFFFF;stroke-miterlimit:10;}
	.st5{fill:#6E47FF;}
</style>
<g>
	
		<linearGradient id="SVGID_1_" gradientUnits="userSpaceOnUse" x1="1.818989e-12" y1="652" x2="650" y2="2" gradientTransform="matrix(1 0 0 -1 0 652)">
		<stop  offset="0" style="stop-color:#00C8F6"/>
		<stop  offset="0.1322" style="stop-color:#04C2F6"/>
		<stop  offset="0.3156" style="stop-color:#0EB0F7"/>
		<stop  offset="0.5291" style="stop-color:#1F92F7"/>
		<stop  offset="0.7634" style="stop-color:#3769F8"/>
		<stop  offset="0.8722" style="stop-color:#4354F9"/>
	</linearGradient>
	<rect class="st0" width="650" height="650"/>
	<g>
		
			<linearGradient id="SVGID_00000126309871293355344250000003709013565386413732_" gradientUnits="userSpaceOnUse" x1="283.58" y1="226.8" x2="330.8882" y2="179.4918" gradientTransform="matrix(1 0 0 -1 0 652)">
			<stop  offset="1.209481e-03" style="stop-color:#201C54"/>
			<stop  offset="1" style="stop-color:#211E55"/>
		</linearGradient>
		<path style="fill:url(#SVGID_00000126309871293355344250000003709013565386413732_);" d="M381.92,419.02l-1.49,2.48
			c-0.06,0.07-0.14,0.15-0.22,0.24l-24.54,25.98c0,0-2.9,3.16-8.33,5.79l-0.02,0.01l-34.06,8.99
			c-32.37,7.85-81.63,19.87-81.63,19.87l0.1-0.11l22.5-27.15l2.77-3.34l6.86-2.1l117.38-35.95L381.92,419.02z"/>
		
			<linearGradient id="패스_7886_00000000220174566786323000000002755421988717432234_" gradientUnits="userSpaceOnUse" x1="235.8627" y1="197.7227" x2="248.1227" y2="185.4627" gradientTransform="matrix(1 0 0 -1 0 652)">
			<stop  offset="0" style="stop-color:#5849FE"/>
			<stop  offset="0.0895" style="stop-color:#5445F6"/>
			<stop  offset="0.2313" style="stop-color:#4839DF"/>
			<stop  offset="0.4069" style="stop-color:#3526BA"/>
			<stop  offset="0.5" style="stop-color:#2A1BA3"/>
			<stop  offset="0.5663" style="stop-color:#201583"/>
			<stop  offset="0.6421" style="stop-color:#170F65"/>
			<stop  offset="0.7071" style="stop-color:#120B53"/>
			<stop  offset="0.7533" style="stop-color:#100A4C"/>
			<stop  offset="0.8398" style="stop-color:#130E4E"/>
			<stop  offset="0.9215" style="stop-color:#1D1953"/>
			<stop  offset="0.9359" style="stop-color:#201C54"/>
		</linearGradient>
		
			<path id="패스_7886_00000158726885504270189010000015360190559747521969_" style="fill:url(#패스_7886_00000000220174566786323000000002755421988717432234_);" d="
			M263.93,449.76l-31.38,32.35c-5.52,1.23-9-1.4-10.71-5.35c-0.17-0.38-0.31-0.78-0.45-1.18c-0.03-0.09-0.11-0.41-0.18-0.71
			c-0.01-0.07-0.03-0.13-0.04-0.2c-0.01-0.04-0.01-0.08-0.02-0.12c-0.01-0.06-0.02-0.12-0.02-0.17c-0.01-0.07-0.01-0.14-0.02-0.21
			c0-0.05-0.01-0.11-0.01-0.16c0-0.07-0.01-0.14-0.01-0.21c-0.01-0.12-0.01-0.24-0.01-0.36s-0.01-0.25-0.01-0.38
			c-0.03-1.77,0.1-3.89,0.1-3.89l33.5-33.7L263.93,449.76z"/>
		
			<linearGradient id="SVGID_00000132811096457101992490000003873546396415825292_" gradientUnits="userSpaceOnUse" x1="221.29" y1="317.62" x2="289.15" y2="317.62" gradientTransform="matrix(1 0 0 -1 0 652)">
			<stop  offset="1.209481e-03" style="stop-color:#6243FF"/>
			<stop  offset="0.619" style="stop-color:#5F3EFF"/>
			<stop  offset="1" style="stop-color:#5F3EFF"/>
		</linearGradient>
		<path style="fill:url(#SVGID_00000132811096457101992490000003873546396415825292_);" d="M221.29,469.79l36.01-230.13
			c0.63-3.85,2.11-7.64,4.32-10.86c0.19-0.27,0.38-0.54,0.57-0.8c0.18-0.24,0.36-0.47,0.54-0.7c0.13-0.16,0.44-0.51,0.79-0.89
			c0.24-0.26,0.51-0.55,0.75-0.8c0.31-0.32,0.58-0.6,0.72-0.73l1.72-1.85l22.44-24.06l-44.26,246.3L221.29,469.79z"/>
		<path class="st4" d="M428.94,433.09"/>
		<path class="st4" d="M393.69,448.06"/>
		<path id="패스_7886_00000061446829198627106490000005760195628206917046_" class="st5" d="M283.35,210.85L244.9,445.28
			c-1.08,6.59,4.35,11.14,11.63,9.53l109.1-26.08c12.55-2.49,18.31-9.15,19.53-16.6l36.55-233.6c1.08-6.59-6.72-12.74-14.62-10.44
			l-109.22,25.03C290.21,196.01,284.67,202.77,283.35,210.85z"/>
		<path id="패스_7886_00000034799129582932299910000003189822613985074579_" class="st4" d="M300.56,184.75"/>
		<path class="st4" d="M256.53,454.8"/>
		<path class="st4" d="M221.06,471.17"/>
		<path class="st4" d="M244.9,445.28"/>
		<path class="st4" d="M393.01,446.8"/>
		<path class="st4" d="M393.75,443.19"/>
	</g>
</g>
</svg>
