<svg width="16" height="14" viewBox="0 0 16 14" fill="none" xmlns="http://www.w3.org/2000/svg">
<path d="M1.49817 11.2503C1.03352 11.2503 0.666578 11.1178 0.397341 10.8529C0.132447 10.5837 0 10.2146 0 9.74557V1.93553C0 1.46653 0.132447 1.09959 0.397341 0.834696C0.666578 0.569802 1.03352 0.437355 1.49817 0.437355H14.0242C14.4932 0.437355 14.8601 0.569802 15.125 0.834696C15.3943 1.09959 15.5289 1.46653 15.5289 1.93553V9.74557C15.5289 10.2146 15.3943 10.5837 15.125 10.8529C14.8601 11.1178 14.4932 11.2503 14.0242 11.2503H1.49817ZM1.51771 10.2015H14.0112C14.1545 10.2015 14.2674 10.1603 14.3499 10.0778C14.4367 9.99092 14.4802 9.87584 14.4802 9.73254V1.95507C14.4802 1.80742 14.4367 1.69235 14.3499 1.60984C14.2674 1.52733 14.1545 1.48608 14.0112 1.48608H1.51771C1.37441 1.48608 1.25933 1.52733 1.17248 1.60984C1.08997 1.69235 1.04872 1.80742 1.04872 1.95507V9.73254C1.04872 9.87584 1.08997 9.99092 1.17248 10.0778C1.25933 10.1603 1.37441 10.2015 1.51771 10.2015ZM5.70608 12.8005V11.1656H9.8228V12.8005H5.70608ZM5.667 13.5626C5.5237 13.5626 5.39993 13.5105 5.29571 13.4063C5.19149 13.3064 5.13938 13.1827 5.13938 13.035C5.13938 12.8874 5.19149 12.7615 5.29571 12.6572C5.39993 12.5574 5.5237 12.5074 5.667 12.5074H9.86188C10.0052 12.5074 10.1268 12.5574 10.2267 12.6572C10.3309 12.7615 10.383 12.8874 10.383 13.035C10.383 13.1827 10.3309 13.3064 10.2267 13.4063C10.1268 13.5105 10.0052 13.5626 9.86188 13.5626H5.667Z" fill="#7461EC"/>
</svg>
