<svg width="15" height="15" viewBox="0 0 15 15" fill="none" xmlns="http://www.w3.org/2000/svg">
<path d="M3.33653 12.1454C2.73726 11.5461 2.24439 10.899 1.8579 10.2042C1.47142 9.50944 1.19132 8.80161 1.01762 8.08075C0.848265 7.35554 0.785298 6.64554 0.828723 5.95073C0.872148 5.25159 1.02414 4.59369 1.28469 3.97705C1.54524 3.35607 1.91218 2.80891 2.38552 2.33558C2.88491 1.83619 3.45812 1.4649 4.10516 1.22172C4.7522 0.978539 5.4318 0.850434 6.14398 0.837407C6.8605 0.824379 7.57484 0.917743 8.28702 1.1175C8.99919 1.31291 9.67228 1.59952 10.3063 1.97732L9.62886 2.63521C9.1121 2.35729 8.55842 2.14017 7.96784 1.98383C7.37726 1.8275 6.7845 1.75151 6.18958 1.75585C5.59465 1.76019 5.02578 1.86224 4.48296 2.062C3.94015 2.25741 3.45812 2.56573 3.0369 2.98696C2.5158 3.50806 2.15102 4.12253 1.94258 4.83036C1.73848 5.53385 1.68203 6.2786 1.77322 7.06459C1.86442 7.85059 2.09674 8.6279 2.4702 9.39653C2.84366 10.1608 3.34956 10.8621 3.98791 11.5005C4.37874 11.8957 4.79562 12.2279 5.23856 12.4971C5.68584 12.762 6.12878 12.9748 6.56738 13.1354C7.00597 13.3005 7.41417 13.4264 7.79197 13.5132C8.16977 13.6001 8.48894 13.6609 8.7495 13.6956C8.91017 13.7173 9.02742 13.7803 9.10124 13.8845C9.17506 13.9931 9.20546 14.1038 9.19243 14.2167C9.17941 14.3253 9.12513 14.4208 9.02959 14.5033C8.9384 14.5859 8.80812 14.6184 8.63876 14.6011C8.35215 14.575 8.00041 14.5142 7.58353 14.4187C7.16664 14.3275 6.71502 14.1907 6.22866 14.0083C5.74664 13.8259 5.25593 13.5827 4.75654 13.2788C4.26149 12.9748 3.78816 12.597 3.33653 12.1454ZM5.70755 10.1977L6.70416 9.76782C7.13842 10.1804 7.61175 10.5278 8.12417 10.81C8.64093 11.0879 9.16421 11.279 9.694 11.3832C10.2238 11.4831 10.7319 11.4744 11.2182 11.3572C11.7089 11.2399 12.1454 10.9902 12.5275 10.6081C12.9487 10.1869 13.2071 9.6788 13.3026 9.08387C13.3982 8.4846 13.3482 7.84625 13.1528 7.16881C12.9617 6.49138 12.6447 5.8248 12.2018 5.16908L12.8662 4.50467C13.2874 5.10394 13.6131 5.71841 13.8433 6.34808C14.0734 6.97774 14.2037 7.59438 14.2341 8.19799C14.2689 8.79726 14.1994 9.35962 14.0257 9.88507C13.852 10.4062 13.5697 10.8643 13.1789 11.2595C12.7967 11.6416 12.3625 11.9195 11.8761 12.0932C11.3898 12.2626 10.8752 12.3408 10.3323 12.3277C9.79387 12.3104 9.25106 12.2148 8.7039 12.0411C8.15674 11.8631 7.62695 11.6177 7.11453 11.3051C6.60212 10.9924 6.13312 10.6233 5.70755 10.1977ZM6.56086 9.22717L5.28416 9.72873C5.21468 9.75479 5.15171 9.73959 5.09526 9.68314C5.04315 9.62669 5.03229 9.56589 5.06269 9.50075L5.59682 8.25662L11.4397 2.42026L12.4102 3.3843L6.56086 9.22717ZM12.8858 2.91531L11.9217 1.94475L12.4363 1.41713C12.5536 1.29989 12.6882 1.24126 12.8402 1.24126C12.9965 1.23692 13.1311 1.28686 13.244 1.39108L13.4134 1.54741C13.5393 1.66466 13.6001 1.80362 13.5958 1.96429C13.5958 2.12497 13.5328 2.26827 13.4069 2.3942L12.8858 2.91531Z" fill="#7461EC"/>
</svg>
