<svg width="17" height="15" viewBox="0 0 17 15" fill="none" xmlns="http://www.w3.org/2000/svg">
<path d="M2.15931 11.7785C1.69465 11.7785 1.32771 11.6461 1.05847 11.3812C0.79358 11.112 0.661133 10.7428 0.661133 10.2738V2.46381C0.661133 1.99482 0.79358 1.62787 1.05847 1.36298C1.32771 1.09808 1.69465 0.965637 2.15931 0.965637H14.6853C15.1543 0.965637 15.5213 1.09808 15.7862 1.36298C16.0554 1.62787 16.19 1.99482 16.19 2.46381V10.2738C16.19 10.7428 16.0554 11.112 15.7862 11.3812C15.5213 11.6461 15.1543 11.7785 14.6853 11.7785H2.15931ZM2.17885 10.7298H14.6723C14.8156 10.7298 14.9285 10.6886 15.011 10.6061C15.0979 10.5192 15.1413 10.4041 15.1413 10.2608V2.48335C15.1413 2.33571 15.0979 2.22063 15.011 2.13812C14.9285 2.05561 14.8156 2.01436 14.6723 2.01436H2.17885C2.03554 2.01436 1.92047 2.05561 1.83362 2.13812C1.75111 2.22063 1.70985 2.33571 1.70985 2.48335V10.2608C1.70985 10.4041 1.75111 10.5192 1.83362 10.6061C1.92047 10.6886 2.03554 10.7298 2.17885 10.7298ZM6.36722 13.3288V11.6939H10.4839V13.3288H6.36722ZM6.32813 14.0909C6.18483 14.0909 6.06107 14.0388 5.95685 13.9346C5.85263 13.8347 5.80052 13.711 5.80052 13.5633C5.80052 13.4157 5.85263 13.2897 5.95685 13.1855C6.06107 13.0856 6.18483 13.0357 6.32813 13.0357H10.523C10.6663 13.0357 10.7879 13.0856 10.8878 13.1855C10.992 13.2897 11.0441 13.4157 11.0441 13.5633C11.0441 13.711 10.992 13.8347 10.8878 13.9346C10.7879 14.0388 10.6663 14.0909 10.523 14.0909H6.32813Z" fill="#7461EC"/>
</svg>
