<svg width="17" height="17" viewBox="0 0 17 17" fill="none" xmlns="http://www.w3.org/2000/svg">
<path d="M8.23438 16.1953C7.16146 16.1953 6.15104 15.9896 5.20312 15.5781C4.26042 15.1719 3.42708 14.6094 2.70312 13.8906C1.98438 13.1667 1.41927 12.3333 1.00781 11.3906C0.601562 10.4427 0.398438 9.43229 0.398438 8.35938C0.398438 7.28646 0.601562 6.27865 1.00781 5.33594C1.41927 4.38802 1.98438 3.55469 2.70312 2.83594C3.42188 2.11198 4.2526 1.54688 5.19531 1.14062C6.14323 0.729167 7.15365 0.523438 8.22656 0.523438C9.29948 0.523438 10.3099 0.729167 11.2578 1.14062C12.2057 1.54688 13.0391 2.11198 13.7578 2.83594C14.4766 3.55469 15.0417 4.38802 15.4531 5.33594C15.8646 6.27865 16.0703 7.28646 16.0703 8.35938C16.0703 9.43229 15.8646 10.4427 15.4531 11.3906C15.0417 12.3333 14.4766 13.1667 13.7578 13.8906C13.0391 14.6094 12.2057 15.1719 11.2578 15.5781C10.3151 15.9896 9.30729 16.1953 8.23438 16.1953ZM8.23438 15.1875C9.17708 15.1875 10.0599 15.0104 10.8828 14.6562C11.7109 14.3021 12.4375 13.8125 13.0625 13.1875C13.6927 12.5625 14.1823 11.8385 14.5312 11.0156C14.8854 10.1875 15.0625 9.30208 15.0625 8.35938C15.0625 7.41667 14.8854 6.53385 14.5312 5.71094C14.1771 4.88281 13.6875 4.15625 13.0625 3.53125C12.4375 2.90104 11.7109 2.41146 10.8828 2.0625C10.0599 1.70833 9.17448 1.53125 8.22656 1.53125C7.28385 1.53125 6.39844 1.70833 5.57031 2.0625C4.7474 2.41146 4.02344 2.90104 3.39844 3.53125C2.77865 4.15625 2.29167 4.88281 1.9375 5.71094C1.58854 6.53385 1.41406 7.41667 1.41406 8.35938C1.41406 9.30208 1.58854 10.1875 1.9375 11.0156C2.29167 11.8385 2.78125 12.5625 3.40625 13.1875C4.03125 13.8125 4.75521 14.3021 5.57812 14.6562C6.40104 15.0104 7.28646 15.1875 8.23438 15.1875ZM8.19531 12.0156C7.59115 12.0156 7.08073 11.8932 6.66406 11.6484C6.2526 11.4036 5.97917 11.0781 5.84375 10.6719C5.80208 10.5677 5.78125 10.4714 5.78125 10.3828C5.78125 10.263 5.81771 10.1667 5.89062 10.0938C5.96875 10.0156 6.06771 9.97656 6.1875 9.97656C6.28125 9.97656 6.36458 10.0026 6.4375 10.0547C6.51562 10.1068 6.57812 10.1849 6.625 10.2891C6.73958 10.5755 6.9401 10.8073 7.22656 10.9844C7.51302 11.1562 7.83594 11.2422 8.19531 11.2422C8.66406 11.2422 9.05469 11.0859 9.36719 10.7734C9.67969 10.4609 9.83594 10.0729 9.83594 9.60938C9.83594 9.13542 9.69271 8.75521 9.40625 8.46875C9.125 8.18229 8.75521 8.03906 8.29688 8.03906C8.05729 8.03906 7.83854 8.08073 7.64062 8.16406C7.44792 8.2474 7.24479 8.39583 7.03125 8.60938C6.91146 8.69792 6.8099 8.76042 6.72656 8.79688C6.64844 8.82812 6.55208 8.84375 6.4375 8.84375C6.27083 8.84375 6.14062 8.79167 6.04688 8.6875C5.95312 8.57812 5.91406 8.4375 5.92969 8.26562L6.15625 5.4375C6.17188 5.25521 6.23698 5.11198 6.35156 5.00781C6.47135 4.90365 6.63021 4.85156 6.82812 4.85156H10.1172C10.2266 4.85156 10.3151 4.88802 10.3828 4.96094C10.4505 5.03385 10.4844 5.125 10.4844 5.23438C10.4844 5.34375 10.4479 5.4375 10.375 5.51562C10.3073 5.58854 10.2214 5.625 10.1172 5.625H6.94531L6.74219 8.01562H6.78906C6.94531 7.80208 7.17448 7.6276 7.47656 7.49219C7.77865 7.35677 8.08854 7.28906 8.40625 7.28906C9.09896 7.28906 9.66406 7.5026 10.1016 7.92969C10.5391 8.35677 10.7578 8.90885 10.7578 9.58594C10.7578 10.3203 10.5182 10.9089 10.0391 11.3516C9.5651 11.7943 8.95052 12.0156 8.19531 12.0156Z" fill="#7461EC"/>
</svg>
