<svg width="17" height="17" viewBox="0 0 17 17" fill="none" xmlns="http://www.w3.org/2000/svg">
<path d="M8.23438 16.1953C7.16146 16.1953 6.15104 15.9896 5.20312 15.5781C4.26042 15.1719 3.42708 14.6094 2.70312 13.8906C1.98438 13.1667 1.41927 12.3333 1.00781 11.3906C0.601562 10.4427 0.398438 9.43229 0.398438 8.35938C0.398438 7.28646 0.601562 6.27865 1.00781 5.33594C1.41927 4.38802 1.98438 3.55469 2.70312 2.83594C3.42188 2.11198 4.2526 1.54688 5.19531 1.14062C6.14323 0.729167 7.15365 0.523438 8.22656 0.523438C9.29948 0.523438 10.3099 0.729167 11.2578 1.14062C12.2057 1.54688 13.0391 2.11198 13.7578 2.83594C14.4766 3.55469 15.0417 4.38802 15.4531 5.33594C15.8646 6.27865 16.0703 7.28646 16.0703 8.35938C16.0703 9.43229 15.8646 10.4427 15.4531 11.3906C15.0417 12.3333 14.4766 13.1667 13.7578 13.8906C13.0391 14.6094 12.2057 15.1719 11.2578 15.5781C10.3151 15.9896 9.30729 16.1953 8.23438 16.1953ZM8.23438 15.1875C9.17708 15.1875 10.0599 15.0104 10.8828 14.6562C11.7109 14.3021 12.4375 13.8125 13.0625 13.1875C13.6927 12.5625 14.1823 11.8385 14.5312 11.0156C14.8854 10.1875 15.0625 9.30208 15.0625 8.35938C15.0625 7.41667 14.8854 6.53385 14.5312 5.71094C14.1771 4.88281 13.6875 4.15625 13.0625 3.53125C12.4375 2.90104 11.7109 2.41146 10.8828 2.0625C10.0599 1.70833 9.17448 1.53125 8.22656 1.53125C7.28385 1.53125 6.39844 1.70833 5.57031 2.0625C4.7474 2.41146 4.02344 2.90104 3.39844 3.53125C2.77865 4.15625 2.29167 4.88281 1.9375 5.71094C1.58854 6.53385 1.41406 7.41667 1.41406 8.35938C1.41406 9.30208 1.58854 10.1875 1.9375 11.0156C2.29167 11.8385 2.78125 12.5625 3.40625 13.1875C4.03125 13.8125 4.75521 14.3021 5.57812 14.6562C6.40104 15.0104 7.28646 15.1875 8.23438 15.1875ZM8.28125 12.0156C7.82292 12.0156 7.39844 11.9219 7.00781 11.7344C6.6224 11.5469 6.3125 11.25 6.07812 10.8438C5.93229 10.599 5.81771 10.2839 5.73438 9.89844C5.65104 9.50781 5.60938 9.0599 5.60938 8.55469C5.60938 7.29427 5.86198 6.33854 6.36719 5.6875C6.8724 5.03125 7.5651 4.70312 8.44531 4.70312C8.79948 4.70312 9.11719 4.76042 9.39844 4.875C9.67969 4.98438 9.91667 5.125 10.1094 5.29688C10.3021 5.46354 10.4323 5.63802 10.5 5.82031C10.5208 5.86198 10.5339 5.90365 10.5391 5.94531C10.5495 5.98698 10.5547 6.03385 10.5547 6.08594C10.5547 6.19531 10.5182 6.28385 10.4453 6.35156C10.3776 6.41927 10.2891 6.45312 10.1797 6.45312C10.0755 6.45312 9.98698 6.42708 9.91406 6.375C9.84115 6.32292 9.76042 6.24479 9.67188 6.14062C9.55729 5.95833 9.39323 5.80469 9.17969 5.67969C8.96615 5.55469 8.71094 5.49219 8.41406 5.49219C7.83594 5.49219 7.3724 5.7526 7.02344 6.27344C6.67448 6.78906 6.5 7.49479 6.5 8.39062C6.5 8.40625 6.5 8.42188 6.5 8.4375C6.5 8.44792 6.5 8.46094 6.5 8.47656C6.51042 8.47656 6.51823 8.47656 6.52344 8.47656C6.53385 8.47656 6.54167 8.47656 6.54688 8.47656C6.69792 8.15885 6.9349 7.88542 7.25781 7.65625C7.58073 7.42708 8.00521 7.3125 8.53125 7.3125C8.94792 7.3125 9.33073 7.40365 9.67969 7.58594C10.0339 7.76823 10.3151 8.02865 10.5234 8.36719C10.7318 8.70573 10.8359 9.10938 10.8359 9.57812C10.8359 10.3385 10.599 10.9349 10.125 11.3672C9.65104 11.7995 9.03646 12.0156 8.28125 12.0156ZM8.24219 11.2734C8.7474 11.2734 9.14844 11.125 9.44531 10.8281C9.74219 10.526 9.89062 10.1276 9.89062 9.63281C9.89062 9.15365 9.73958 8.76823 9.4375 8.47656C9.13542 8.17969 8.74219 8.03125 8.25781 8.03125C7.77344 8.03125 7.3776 8.18229 7.07031 8.48438C6.76302 8.78125 6.60938 9.16146 6.60938 9.625C6.60938 10.099 6.76302 10.4922 7.07031 10.8047C7.3776 11.1172 7.76823 11.2734 8.24219 11.2734Z" fill="#7461EC"/>
</svg>
