<svg width="388" height="116" viewBox="0 0 388 116" fill="none" xmlns="http://www.w3.org/2000/svg">
<rect x="2" y="2" width="384" height="112" rx="6" fill="#F24822" stroke="#C23A1B" stroke-width="4" stroke-linecap="round"/>
<path d="M55.6952 53.056H58.0952V53.632C58.0952 58.24 56.7512 62.872 53.1992 64.912L51.3992 62.512C54.5672 60.664 55.6952 57.04 55.6952 53.632V53.056ZM56.3192 53.056H58.7192V53.632C58.7192 56.968 59.8712 60.352 63.0152 62.032L61.2872 64.384C57.6872 62.512 56.3192 58.168 56.3192 53.632V53.056ZM52.1432 50.656H62.2472V53.224H52.1432V50.656ZM55.6952 47.656H58.7192V52.72H55.6952V47.656ZM68.0312 46.912H71.0552V69.136H68.0312V46.912ZM65.3672 55.432H69.0632V58.024H65.3672V55.432ZM63.2552 47.248H66.2312V68.128H63.2552V47.248ZM74.6533 47.824H77.8213V56.92H74.6533V47.824ZM74.6533 55.024H76.5013C79.6213 55.024 82.8133 54.856 86.2453 54.232L86.6293 56.8C83.0533 57.472 79.7173 57.64 76.5013 57.64H74.6533V55.024ZM83.4613 50.008H89.5093V52.552H83.4613V50.008ZM88.8373 46.912H92.0293V58.12H88.8373V46.912ZM77.3413 58.96H92.0293V65.056H80.5813V67.72H77.3893V62.68H88.8373V61.48H77.3413V58.96ZM77.3893 66.376H92.5573V68.896H77.3893V66.376ZM95.0275 58.696H115.139V61.216H95.0275V58.696ZM103.475 56.08H106.667V59.368H103.475V56.08ZM97.2835 62.536H112.691V69.136H109.499V65.056H97.2835V62.536ZM97.5235 54.688H113.003V57.112H97.5235V54.688ZM97.5235 47.416H112.835V49.84H100.691V55.912H97.5235V47.416ZM99.8035 51.064H112.331V53.392H99.8035V51.064ZM126.73 48.016C131.41 48.016 135.034 50.584 135.034 54.448C135.034 58.336 131.41 60.88 126.73 60.88C122.05 60.88 118.426 58.336 118.426 54.448C118.426 50.584 122.05 48.016 126.73 48.016ZM126.73 50.608C123.706 50.608 121.546 52.048 121.546 54.448C121.546 56.824 123.706 58.264 126.73 58.264C129.754 58.264 131.914 56.824 131.914 54.448C131.914 52.048 129.754 50.608 126.73 50.608ZM116.698 63.856H136.81V66.472H116.698V63.856ZM138.32 64.096H158.432V66.688H138.32V64.096ZM146.744 59.896H149.936V65.152H146.744V59.896ZM140.576 48.352H156.176V55.744H143.792V59.488H140.624V53.248H153.008V50.872H140.576V48.352ZM140.624 58.216H156.68V60.784H140.624V58.216ZM181.073 46.912H184.097V69.136H181.073V46.912ZM178.097 55.456H181.793V58.024H178.097V55.456ZM176.105 47.296H179.057V68.08H176.105V47.296ZM165.641 61.504H167.201C169.937 61.504 172.217 61.408 174.857 60.928L175.097 63.52C172.409 64.048 170.057 64.12 167.201 64.12H165.641V61.504ZM165.641 49.48H173.849V52.048H168.809V62.752H165.641V49.48ZM195.687 55.336H199.215V57.904H195.687V55.336ZM190.527 53.08H192.927V53.656C192.927 58.288 191.583 62.92 188.031 64.96L186.231 62.56C189.399 60.712 190.527 57.064 190.527 53.656V53.08ZM191.151 53.08H193.551V53.656C193.551 57.016 194.703 60.4 197.847 62.08L196.119 64.432C192.519 62.56 191.151 58.216 191.151 53.656V53.08ZM187.071 50.632H196.983V53.2H187.071V50.632ZM190.527 47.656H193.551V52.72H190.527V47.656ZM202.695 46.912H205.719V69.136H202.695V46.912ZM198.207 47.272H201.183V68.128H198.207V47.272ZM214.319 49.216H232.415V51.736H214.319V49.216ZM213.383 61.288H233.495V63.856H213.383V61.288ZM221.807 63.544H224.999V69.16H221.807V63.544ZM223.415 52.6C228.191 52.6 231.023 53.944 231.023 56.416C231.023 58.864 228.191 60.232 223.415 60.232C218.615 60.232 215.783 58.864 215.783 56.416C215.783 53.944 218.615 52.6 223.415 52.6ZM223.415 54.976C220.511 54.976 219.095 55.408 219.095 56.416C219.095 57.424 220.511 57.856 223.415 57.856C226.319 57.856 227.735 57.424 227.735 56.416C227.735 55.408 226.319 54.976 223.415 54.976ZM221.807 46.888H224.999V50.896H221.807V46.888ZM239.416 64.6136L239.323 65.5511C239.249 66.3011 239.107 67.0483 238.897 67.7926C238.692 68.5426 238.476 69.2216 238.249 69.8295C238.027 70.4375 237.848 70.9148 237.712 71.2614H235.36C235.445 70.9261 235.561 70.4574 235.709 69.8551C235.857 69.2585 235.996 68.5881 236.127 67.8438C236.257 67.0994 236.34 66.3409 236.374 65.5682L236.416 64.6136H239.416ZM251.062 48.064H253.654V50.08C253.654 54.352 251.734 58.096 247.438 59.512L245.83 56.968C249.526 55.792 251.062 52.96 251.062 50.08V48.064ZM251.71 48.064H254.278V50.368C254.278 53.032 255.766 55.624 259.27 56.728L257.71 59.224C253.582 57.904 251.71 54.376 251.71 50.368V48.064ZM260.374 46.912H263.566V60.328H260.374V46.912ZM262.678 52.312H266.518V54.952H262.678V52.312ZM248.734 61.264H263.566V69.136H260.374V63.832H248.734V61.264ZM283.748 46.912H286.772V69.136H283.748V46.912ZM276.428 54.496H280.1V57.088H276.428V54.496ZM279.26 47.272H282.236V68.128H279.26V47.272ZM271.628 50.536H274.028V52.816C274.028 57.808 272.66 62.776 269.132 64.984L267.236 62.632C270.5 60.592 271.628 56.608 271.628 52.816V50.536ZM272.348 50.536H274.724V52.816C274.724 56.512 275.828 60.256 279.044 62.128L277.172 64.456C273.644 62.368 272.348 57.712 272.348 52.816V50.536ZM268.076 49.144H277.988V51.712H268.076V49.144ZM303.245 51.808H306.941V54.376H303.245V51.808ZM303.245 58.672H306.941V61.264H303.245V58.672ZM310.469 46.912H313.517V69.136H310.469V46.912ZM306.029 47.248H309.005V68.128H306.029V47.248ZM299.405 48.472C302.357 48.472 304.253 51.52 304.253 56.536C304.253 61.576 302.357 64.624 299.405 64.624C296.477 64.624 294.605 61.576 294.605 56.536C294.605 51.52 296.477 48.472 299.405 48.472ZM299.405 51.472C298.181 51.472 297.461 53.152 297.461 56.536C297.461 59.944 298.181 61.6 299.405 61.6C300.653 61.6 301.373 59.944 301.373 56.536C301.373 53.152 300.653 51.472 299.405 51.472ZM328.083 52.288H332.307V54.88H328.083V52.288ZM331.443 46.912H334.635V60.112H331.443V46.912ZM327.099 60.592C331.803 60.592 334.707 62.2 334.707 64.888C334.707 67.6 331.803 69.16 327.099 69.16C322.395 69.16 319.491 67.6 319.491 64.888C319.491 62.2 322.395 60.592 327.099 60.592ZM327.099 63.016C324.219 63.016 322.683 63.616 322.683 64.888C322.683 66.136 324.219 66.736 327.099 66.736C330.003 66.736 331.539 66.136 331.539 64.888C331.539 63.616 330.003 63.016 327.099 63.016ZM321.171 49.144H323.763V50.536C323.763 54.784 321.795 58.672 317.547 60.112L315.915 57.592C319.587 56.344 321.171 53.392 321.171 50.536V49.144ZM321.843 49.144H324.411V50.536C324.411 53.152 325.923 55.864 329.427 57.04L327.867 59.56C323.739 58.192 321.843 54.496 321.843 50.536V49.144ZM316.779 48.256H328.731V50.8H316.779V48.256Z" fill="white"/>
</svg>
