<?xml version="1.0" encoding="utf-8"?>
<!-- Generator: Adobe Illustrator 22.1.0, SVG Export Plug-In . SVG Version: 6.00 Build 0)  -->
<svg version="1.1" id="Layer_1" xmlns="http://www.w3.org/2000/svg" xmlns:xlink="http://www.w3.org/1999/xlink" x="0px" y="0px"
	 viewBox="0 0 50 50" style="enable-background:new 0 0 50 50;" xml:space="preserve">
<style type="text/css">
	.st0{fill:#9C9C9D;}
</style>
<g>
	<path class="st0" d="M25,1c13.2,0,24,10.8,24,24S38.2,49,25,49S1,38.2,1,25S11.8,1,25,1 M25,0C11.2,0,0,11.2,0,25
		c0,13.8,11.2,25,25,25s25-11.2,25-25S38.8,0,25,0L25,0z"/>
</g>
<polygon class="st0" points="20.2,14.6 20.9,15.3 11.8,24.5 39.5,24.5 39.5,25.5 11.8,25.5 20.9,34.7 20.2,35.4 9.8,25 "/>
</svg>
