<?xml version="1.0" encoding="utf-8"?>
<!-- Generator: Adobe Illustrator 22.1.0, SVG Export Plug-In . SVG Version: 6.00 Build 0)  -->
<svg version="1.1" id="Layer_1" xmlns="http://www.w3.org/2000/svg" xmlns:xlink="http://www.w3.org/1999/xlink" x="0px" y="0px"
	 viewBox="0 0 1200 461.3" style="enable-background:new 0 0 1200 461.3;" xml:space="preserve">
<style type="text/css">
	.st0{display:none;}
	.st1{display:inline;fill:#FFFFFF;}
	.st2{display:inline;fill:#302E27;}
	.st3{fill:#FFFFFF;}
	.st4{fill:#00FF9B;}
	.st5{enable-background:new    ;}
	.st6{fill:none;stroke:#5F8EF4;stroke-width:3;stroke-linecap:round;stroke-miterlimit:10;}
</style>
<g id="Layer_1_1_" class="st0">
	
		<image style="display:inline;overflow:visible;enable-background:new    ;" width="1440" height="900" xlink:href="../../../스크린샷 2022-04-17 오후 6.53.20.png"  transform="matrix(1 0 0 1 -130.6743 -40)">
	</image>
	<rect x="776" y="288" class="st1" width="137" height="45"/>
</g>
<g id="Layer_3" class="st0">
	<rect x="-48.4" y="258.1" class="st2" width="1229.9" height="549.9"/>
</g>
<g id="Layer_2_1_">
	<g>
		<path class="st3" d="M1163.3,78.2H32.7c-4.3,0-7.8-3.5-7.8-7.8V32.2c0-4.3,3.5-7.8,7.8-7.8h1130.6c4.3,0,7.8,3.5,7.8,7.8v38.2
			C1171.1,74.7,1167.6,78.2,1163.3,78.2z"/>
		<g>
			<path d="M567.3,45.2c0,3.5-2.5,6-6.5,7.2l-0.5-1c3.3-0.9,5.4-2.8,5.6-5.1H561v-1h6.3V45.2z M562.6,52.9h9v5.2h-9V52.9z M563.9,57
				h6.5v-3.2h-6.5V57z M571.6,44.3v8h-1.3V49h-3v-1h3v-3.6h1.3V44.3z"/>
			<path d="M580.7,51.9c-1.3-0.5-2.3-1.6-2.8-2.8c-0.5,1.3-1.5,2.5-2.8,3.1l-0.7-1c1.8-0.8,2.9-2.7,2.9-4.2v-1.9h1.2V47
				c0,1.6,1,3.2,2.8,3.9L580.7,51.9z M576.8,53.5h9.4v4.7h-1.3v-3.7h-8.1L576.8,53.5L576.8,53.5z M586.2,44.3v8.4H585V49h-1.8v3.7
				H582v-8.1h1.2V48h1.8v-3.6h1.2V44.3z"/>
			<path d="M596.3,54.1c1.5-0.1,3.1-0.2,4.5-0.3l0.1,0.9c-2.9,0.5-6.2,0.5-8.6,0.5l-0.1-1.1c0.9,0,1.9,0,3,0v-4.3h1.3v4.3H596.3z
				 M598.2,52c0.4-2.3,0.4-4,0.4-5.1h-5.8v-1h7v0.8c0,1.1,0,2.9-0.4,5.5L598.2,52z M605.1,51.2h-2.2v7h-1.3V44.3h1.3v5.8h2.2V51.2z"
				/>
			<path d="M617.5,51.2c-1.5-0.5-2.8-1.6-3.4-3.1c-0.6,1.6-1.8,2.8-3.5,3.4l-0.7-1c2.1-0.7,3.5-2.5,3.5-4.5v-1.3h1.3V46
				c0,1.8,1.4,3.5,3.4,4.2L617.5,51.2z M622,57.1v1h-9.5v-3.5h7.7v-1.4h-7.7v-1h9v3.3h-7.7V57h8.2V57.1z M620.2,47.9h-3v-1h3v-2.5
				h1.3v7.2h-1.3V47.9z"/>
			<path d="M631.3,51.6h-6.4v-6.2h6.4v1.2h3.2v-2.3h1.3v8.2h-1.3v-2.2h-3.2V51.6z M630,46.4h-3.9v4.1h3.9V46.4z M635.8,55.6
				c0,1.7-1.8,2.6-4.7,2.6s-4.6-1-4.6-2.6c0-1.7,1.8-2.6,4.6-2.6C634,53,635.8,53.9,635.8,55.6z M634.5,55.6c0-1-1.3-1.6-3.4-1.6
				c-2.1,0-3.4,0.6-3.4,1.6s1.3,1.6,3.4,1.6C633.2,57.2,634.5,56.6,634.5,55.6z M631.3,47.6v1.7h3.2v-1.7H631.3z"/>
		</g>
	</g>
	<g>
		<path class="st3" d="M286.1,137.9H32.7c-4.3,0-7.8-3.5-7.8-7.8V91.9c0-4.3,3.5-7.8,7.8-7.8h253.4c4.3,0,7.8,3.5,7.8,7.8v38.2
			C293.9,134.5,290.4,137.9,286.1,137.9z"/>
		<g>
			<path d="M159,111.2v1h-12.6v-1h5.7v-1.4c-2.6-0.1-4.3-1.1-4.3-2.7c0-1.7,1.9-2.7,4.9-2.7s4.9,1,4.9,2.7c0,1.6-1.6,2.5-4.2,2.7
				v1.4H159z M147.8,113.5h9.7v4.5h-1.3v-3.5h-8.4V113.5z M152.7,108.8c2.2,0,3.6-0.6,3.6-1.7s-1.4-1.7-3.6-1.7
				c-2.2,0-3.6,0.6-3.6,1.7C149.1,108.2,150.5,108.8,152.7,108.8z"/>
			<path d="M168.1,112.4c-1.5-0.6-2.7-1.9-3.3-3.4c-0.6,1.7-1.8,3-3.4,3.7l-0.7-1c2.1-0.8,3.5-2.8,3.5-5v-1.8h1.3v1.8
				c0,2.1,1.4,4,3.4,4.8L168.1,112.4z M172.5,116.7v1h-9.3v-4.3h1.3v3.2h8V116.7z M170.9,110h-2.8v-1h2.8v-1.8h-2.8v-1h2.8v-2.1h1.3
				v10.4h-1.3V110z"/>
		</g>
	</g>
	<g>
		<path class="st4" d="M871.1,137.9H617.7c-4.3,0-7.8-3.5-7.8-7.8V91.9c0-4.3,3.5-7.8,7.8-7.8h253.4c4.3,0,7.8,3.5,7.8,7.8v38.2
			C878.8,134.5,875.4,137.9,871.1,137.9z"/>
		<g>
			<path d="M729.2,110.9v1h-12.6v-1H729.2z M727.8,107c0,1.6-1.9,2.6-4.9,2.6s-4.9-1-4.9-2.6c0-1.7,1.9-2.6,4.9-2.6
				C725.9,104.4,727.8,105.4,727.8,107z M727.7,113.3v4.6h-9.5v-4.6H727.7z M719.3,107c0,1,1.4,1.6,3.6,1.6c2.2,0,3.6-0.6,3.6-1.6
				s-1.4-1.6-3.6-1.6S719.3,106,719.3,107z M719.4,114.3v2.5h7v-2.5H719.4z"/>
			<path d="M734.9,111.5c-1.4,0.1-2.7,0.1-3.9,0.1l-0.2-1.1c2.6,0,6,0,9-0.4l0.1,0.9c-1.2,0.2-2.5,0.3-3.8,0.4v2.8h-1.3v-2.7H734.9z
				 M731.9,107.1c0-1.5,1.4-2.4,3.4-2.4s3.4,1,3.4,2.4c0,1.5-1.4,2.4-3.4,2.4C733.3,109.5,731.9,108.6,731.9,107.1z M742.7,116.7v1
				h-9.9v-4.1h1.3v3L742.7,116.7L742.7,116.7z M733.1,107.1c0,0.9,0.9,1.5,2.2,1.5s2.2-0.6,2.2-1.5s-0.9-1.5-2.2-1.5
				S733.1,106.2,733.1,107.1z M741,112.3v-8.2h1.3v10.6H741v-1.4h-2.8v-0.9L741,112.3L741,112.3z"/>
			<path d="M752.8,111.9c-1.6-0.6-2.8-1.7-3.4-3.1c-0.6,1.6-1.9,2.9-3.5,3.5l-0.7-1c2.1-0.8,3.5-2.6,3.5-4.6v-0.5h-3.1v-1h7.4v1h-3
				v0.5c0,1.8,1.4,3.5,3.4,4.3L752.8,111.9z M756.7,115.4c0,1.6-1.8,2.6-4.6,2.6c-2.9,0-4.6-0.9-4.6-2.6c0-1.6,1.8-2.6,4.6-2.6
				S756.7,113.8,756.7,115.4z M755.5,115.4c0-1-1.3-1.6-3.4-1.6c-2.1,0-3.4,0.6-3.4,1.6s1.3,1.6,3.4,1.6S755.5,116.4,755.5,115.4z
				 M755.4,107.7v-3.6h1.3v8.3h-1.3v-3.7h-2.8v-1C752.6,107.7,755.4,107.7,755.4,107.7z"/>
			<path d="M772.1,115.2v1h-12.6v-1h5.7v-3H761v-7.1h1.3v2.5h7.1v-2.5h1.2v7.1h-4.2v3H772.1z M762.2,111.2h7.1v-2.6h-7.1V111.2z"/>
		</g>
	</g>
	<g>
		<path class="st4" d="M1163.3,137.9H910c-4.3,0-7.8-3.5-7.8-7.8V91.9c0-4.3,3.5-7.8,7.8-7.8h253.4c4.3,0,7.8,3.5,7.8,7.8v38.2
			C1171.1,134.5,1167.6,137.9,1163.3,137.9z"/>
		<g>
			<path d="M1002.2,110.4v1h-12.6v-1h5.7V109c-2.6-0.1-4.3-1.1-4.3-2.7c0-1.7,1.9-2.7,4.9-2.7s4.9,1,4.9,2.7c0,1.6-1.6,2.5-4.2,2.7
				v1.4H1002.2z M991,112.7h9.6v4.5h-1.3v-3.5H991V112.7z M995.9,108c2.2,0,3.6-0.6,3.6-1.7s-1.4-1.7-3.6-1.7
				c-2.2,0-3.6,0.6-3.6,1.7C992.3,107.4,993.7,108,995.9,108z"/>
			<path d="M1011.4,111.6c-1.5-0.6-2.7-1.9-3.3-3.4c-0.6,1.7-1.8,3-3.4,3.7l-0.7-1c2.1-0.8,3.5-2.8,3.5-5V104h1.3v1.8
				c0,2.1,1.4,4,3.4,4.8L1011.4,111.6z M1015.7,115.9v1h-9.3v-4.3h1.3v3.2h8V115.9z M1014.1,109.2h-2.8v-1h2.8v-1.8h-2.8v-1h2.8
				v-2.1h1.3v10.4h-1.3V109.2z"/>
			<path d="M1025.3,104.8c0,4-1.8,7.6-6.3,9.8l-0.7-1c3.6-1.8,5.5-4.5,5.8-7.8h-5.1v-1.1L1025.3,104.8L1025.3,104.8z M1031.2,110
				h-2.2v7.2h-1.3v-13.9h1.3v5.7h2.2V110z"/>
			<path d="M1036.5,103.7h1l-4.6,15.1h-1L1036.5,103.7z"/>
			<path d="M1042.7,104.7h6.4v9h-6.4V104.7z M1043.9,112.6h3.9v-6.9h-3.9V112.6z M1055.1,109.9h-2.3v7.3h-1.3v-13.9h1.3v5.5h2.3
				V109.9z"/>
			<path d="M1061.7,108.4c-0.8,1.6-2.3,2.9-4.6,3.9l-0.6-0.9c2-0.9,3.3-2,4.1-3.4l-3.9,0.4l-0.2-1l4.5-0.3c0.2-0.5,0.3-1,0.3-1.6
				h-4.1v-1h5.4c0,1-0.1,2-0.4,2.9h2.1v-3.8h1.2v8h-1.2v-3.1L1061.7,108.4L1061.7,108.4z M1064.2,112.4c0,1.9,2.3,3.4,4.8,3.8
				l-0.5,1c-2.1-0.4-4-1.5-4.9-3c-0.9,1.6-2.8,2.7-4.9,3l-0.5-1c2.5-0.4,4.7-1.9,4.7-3.8V112h1.3V112.4z M1068.2,112.7h-1.2v-9.4
				h1.2V112.7z"/>
			<path d="M1077.8,104.8c0,4-1.8,7.6-6.3,9.8l-0.7-1c3.6-1.8,5.5-4.5,5.8-7.8h-5.1v-1.1L1077.8,104.8L1077.8,104.8z M1083.6,110
				h-2.2v7.2h-1.3v-13.9h1.3v5.7h2.2V110z"/>
		</g>
	</g>
	<g>
		<path class="st3" d="M286.1,377H32.7c-4.3,0-7.8-3.5-7.8-7.8V331c0-4.3,3.5-7.8,7.8-7.8h253.4c4.3,0,7.8,3.5,7.8,7.8v38.2
			C293.9,373.5,290.4,377,286.1,377z"/>
		<g>
			<path d="M148.5,352.6h-5.7v4.5h-1.3v-4.5h-5.7v-1h12.6L148.5,352.6L148.5,352.6z M136.6,349.5c2.5-0.3,4.9-1.9,4.9-3.6h-4.4v-1
				h4.4v-1.7h1.3v1.7h4.4v1h-4.4c0,1.7,2.4,3.2,4.8,3.6l-0.5,1c-2.2-0.3-4.1-1.4-5-2.9c-0.9,1.5-2.9,2.6-5.1,2.9L136.6,349.5z"/>
			<path d="M157.7,351.6c-1.6-0.5-2.8-1.6-3.5-3c-0.6,1.5-1.8,2.7-3.5,3.3l-0.6-1c2.1-0.7,3.4-2.4,3.4-4.4V346h-3.1v-1h3.1v-1.8h1.3
				v1.8h3.1v1h-3.1v0.4c0,1.8,1.4,3.5,3.5,4.1L157.7,351.6z M162,355.7v1h-9.3v-4.1h1.3v3.1H162z M160.3,347.4v-4.3h1.3v10.4h-1.3
				v-5.1h-2.8v-1.1h2.8V347.4z"/>
		</g>
	</g>
	<g>
		<path class="st3" d="M581.9,377H328.5c-4.3,0-7.8-3.5-7.8-7.8V331c0-4.3,3.5-7.8,7.8-7.8h253.4c4.3,0,7.8,3.5,7.8,7.8v38.2
			C589.7,373.5,586.2,377,581.9,377z"/>
		<g>
			<path d="M413.3,349.1c0,3-1.5,4.9-3.5,4.9s-3.5-1.9-3.5-4.9s1.5-4.9,3.5-4.9S413.3,346.1,413.3,349.1z M407.4,349.1
				c0,2.3,1,3.7,2.3,3.7c1.4,0,2.3-1.5,2.3-3.7c0-2.3-1-3.7-2.3-3.7C408.4,345.3,407.4,346.8,407.4,349.1z M417.1,343.1v14h-1.3v-14
				H417.1z"/>
			<path d="M436.1,349.9v1h-12.6v-1H436.1z M434.7,346.1c0,1.6-1.9,2.6-4.9,2.6s-4.9-1-4.9-2.6c0-1.7,1.9-2.6,4.9-2.6
				C432.8,343.4,434.7,344.4,434.7,346.1z M434.6,352.3v4.6h-9.5v-4.6H434.6z M426.2,346.1c0,1,1.4,1.6,3.6,1.6s3.6-0.6,3.6-1.6
				s-1.4-1.6-3.6-1.6C427.6,344.4,426.2,345,426.2,346.1z M426.3,353.3v2.5h7v-2.5H426.3z"/>
			<path d="M441.8,350.5c-1.4,0.1-2.7,0.1-3.9,0.1l-0.2-1.1c2.6,0,6,0,9-0.4l0.1,0.9c-1.2,0.2-2.5,0.3-3.8,0.4v2.8h-1.3L441.8,350.5
				L441.8,350.5z M438.8,346.1c0-1.5,1.4-2.4,3.4-2.4s3.4,1,3.4,2.4c0,1.5-1.4,2.4-3.4,2.4C440.2,348.5,438.8,347.6,438.8,346.1z
				 M449.6,355.7v1h-9.9v-4.1h1.3v3h8.6V355.7z M440,346.1c0,0.9,0.9,1.5,2.2,1.5c1.3,0,2.2-0.6,2.2-1.5s-0.9-1.5-2.2-1.5
				S440,345.2,440,346.1z M447.9,351.4v-8.2h1.3v10.6h-1.3v-1.4h-2.8v-0.9h2.8V351.4z"/>
			<path d="M467.1,343.1v14h-1.3v-7.6h-3c-0.1,2.7-1.5,4.4-3.4,4.4c-2,0-3.5-1.9-3.5-4.9s1.4-4.9,3.5-4.9c1.9,0,3.2,1.6,3.4,4.2h3
				V343L467.1,343.1L467.1,343.1z M461.6,349.1c0-2.3-0.9-3.7-2.3-3.7c-1.3,0-2.3,1.5-2.3,3.7c0,2.3,0.9,3.7,2.3,3.7
				C460.6,352.8,461.6,351.3,461.6,349.1z"/>
			<path d="M471.4,352.4c0.5,0,1.2-0.1,1.9-0.2l0.1,1.1c-1.1,0.3-2.1,0.3-2.6,0.3h-0.6v-8.5h3v1h-1.8V352.4z M475,352.4
				c0.6,0,1.4-0.1,2.2-0.3l0.1,1.1c-1.1,0.3-2.1,0.3-2.9,0.3h-0.6V345h3.1v1H475V352.4z M481.9,343.1V357h-1.2v-7.2H479v6.5h-1.2
				v-12.9h1.2v5.4h1.6v-5.7L481.9,343.1L481.9,343.1z"/>
			<path d="M496.8,354.2v1.1h-12.7v-1.1h3.1v-3.8c-1.2-0.6-1.9-1.6-1.9-2.9c0-2.2,2.1-3.6,5.1-3.6s5.1,1.4,5.1,3.6
				c0,1.3-0.7,2.3-1.8,2.9v3.8H496.8z M486.6,347.6c0,1.6,1.6,2.6,3.8,2.6c2.2,0,3.9-1,3.9-2.6s-1.6-2.6-3.9-2.6
				C488.2,345,486.6,346,486.6,347.6z M488.5,354.2h3.9v-3.3c-0.6,0.1-1.3,0.2-2,0.2s-1.4-0.1-1.9-0.2V354.2z"/>
			<path d="M502.8,346.9c0-0.9-0.6-1.7-1.7-1.7c-0.8,0-1.5,0.4-2,1l-0.8-0.7c0.7-0.8,1.7-1.4,3-1.4c1.8,0,2.9,1.1,2.9,2.8
				c0,2.3-2.8,3.2-2.5,5.6h-1.3C500,349.8,502.8,348.8,502.8,346.9z M500,355c0-0.7,0.5-1.1,1-1.1c0.6,0,1,0.5,1,1.1s-0.5,1.1-1,1.1
				S500,355.7,500,355z"/>
		</g>
	</g>
	<g>
		<path class="st3" d="M581.9,436.8H328.5c-4.3,0-7.8-3.5-7.8-7.8v-38.2c0-4.3,3.5-7.8,7.8-7.8h253.4c4.3,0,7.8,3.5,7.8,7.8V429
			C589.7,433.3,586.2,436.8,581.9,436.8z"/>
		<g>
			<path d="M403.1,409.7c-1.6-0.6-2.9-1.7-3.5-3.2c-0.6,1.6-1.9,2.9-3.5,3.5l-0.7-1c2.1-0.7,3.5-2.6,3.5-4.6v-1.1h1.3v1.1
				c0,1.9,1.5,3.7,3.5,4.4L403.1,409.7z M407.2,415.7v1h-9.5v-3.5h7.7v-1.4h-7.8v-1h9v3.4H399v1.5H407.2z M406.7,410.1h-1.3v-7.2
				h1.3V410.1z"/>
			<path d="M414.6,406.6c0,2.5,1.7,5.1,3.7,6l-0.8,1c-1.6-0.8-2.9-2.4-3.6-4.4c-0.6,2.1-2,3.8-3.6,4.7l-0.8-1c2.1-1,3.7-3.7,3.7-6.3
				v-2.5h1.3L414.6,406.6L414.6,406.6z M421,402.9v14h-1.3v-14H421z"/>
			<path d="M431,404c0,3.6-2.5,6.2-6.5,7.5l-0.5-1c3.3-1,5.4-3,5.7-5.5h-5.1v-1H431z M427.3,415.5h8v1H426V412h1.3V415.5z
				 M436.8,407.1v1.1h-2.1v4.9h-1.3v-10.2h1.3v4.2H436.8z"/>
			<path d="M454.3,409.7v1h-12.6v-1H454.3z M452.9,405.8c0,1.6-1.9,2.6-4.9,2.6s-4.9-1-4.9-2.6c0-1.7,1.9-2.6,4.9-2.6
				S452.9,404.2,452.9,405.8z M452.8,412.1v4.6h-9.5v-4.6H452.8z M444.4,405.8c0,1,1.4,1.6,3.6,1.6s3.6-0.6,3.6-1.6
				s-1.4-1.6-3.6-1.6S444.4,404.8,444.4,405.8z M444.5,413.1v2.5h7v-2.5H444.5z"/>
			<path d="M459.9,410.3c-2.1,0-3.6-1.3-3.6-3.3c0-1.9,1.5-3.3,3.6-3.3s3.6,1.3,3.6,3.3S462,410.3,459.9,410.3z M459.9,409.2
				c1.4,0,2.4-0.9,2.4-2.2c0-1.3-1-2.2-2.4-2.2s-2.4,0.9-2.4,2.2C457.5,408.3,458.5,409.2,459.9,409.2z M457.7,411.8h9.1v5h-1.3v-4
				h-7.8L457.7,411.8L457.7,411.8z M468.9,407.5h-2.1v3.6h-1.3v-8.2h1.3v3.6h2.1V407.5z"/>
			<path d="M478.1,403.3h1.2v12.9h-1.2v-4.8h-2.5v-1h2.5v-2.5h-2.3c-0.7,2.3-2.2,4.4-4.8,6l-0.7-0.9c3-1.8,4.5-4.3,4.7-7.2h-4.1v-1
				h5.3c0,0.7-0.1,1.4-0.2,2.1h2.1V403.3z M482.1,402.9v13.9h-1.2v-13.9H482.1z"/>
			<path d="M500.7,411.7h-3.3v5.1h-1.3v-5.1h-3.5v5.1h-1.3v-5.1H488v-1.1h12.6L500.7,411.7L500.7,411.7z M499.2,408.6h-9.5v-5h1.3v4
				h8.2V408.6z"/>
			<path d="M515,413.9v1.1h-12.6v-1.1H515z M513.8,410.9c-2.1-0.5-4.3-2-5.2-4c-0.9,2-3.1,3.5-5.2,4l-0.6-1.1c2.4-0.5,5.1-2.6,5.1-5
				v-1.1h1.3v1.1c0,2.4,2.6,4.5,5.1,5L513.8,410.9z"/>
		</g>
	</g>
	<g>
		<path class="st3" d="M286.1,317.2H32.7c-4.3,0-7.8-3.5-7.8-7.8v-38.2c0-4.3,3.5-7.8,7.8-7.8h253.4c4.3,0,7.8,3.5,7.8,7.8v38.2
			C293.9,313.8,290.4,317.2,286.1,317.2z"/>
		<g>
			<path d="M117.6,291.9c2,0,4.1-0.2,6.3-0.6l0.2,1.1c-2.4,0.5-4.5,0.6-6.6,0.6h-1.1v-9.1h1.3v8H117.6z M128.8,289.1h-2.2v7.3h-1.3
				v-13.9h1.3v5.6h2.2V289.1z"/>
			<path d="M130.2,292.3c2.5,0,6,0,9.1-0.5l0.1,0.9c-3.1,0.6-6.5,0.6-9,0.6L130.2,292.3z M138.3,286.8c0,1.9-1.6,3.3-3.7,3.3
				c-2.2,0-3.7-1.3-3.7-3.3s1.6-3.3,3.7-3.3C136.8,283.5,138.3,284.9,138.3,286.8z M132.1,286.8c0,1.3,1.1,2.2,2.5,2.2
				s2.5-0.9,2.5-2.2c0-1.3-1-2.2-2.5-2.2C133.2,284.6,132.1,285.5,132.1,286.8z M141.5,282.5v14h-1.3v-14H141.5z"/>
			<path d="M160.5,291.6h-3.2v4.9H156v-4.9h-3.7v4.9H151v-4.9h-3.2v-1h12.6L160.5,291.6L160.5,291.6z M158.9,288.7h-9.4v-5.4h9.4
				V288.7z M157.6,284.3h-6.9v3.4h6.9V284.3z"/>
			<path d="M169.3,284c0,4-1.4,7.7-6.4,10.2l-0.7-1c2.6-1.3,4.1-2.9,5-4.7l-4.7,0.5l-0.2-1.1l5.3-0.4c0.2-0.8,0.4-1.6,0.4-2.4h-5v-1
				h6.3V284z M175.1,289.2h-2.2v7.2h-1.3v-13.9h1.3v5.7h2.2V289.2z"/>
			<path d="M180.5,290.5c0-3,0.9-5.6,2.3-7.9l0.9,0.4c-1.4,2.2-2,4.8-2,7.5s0.6,5.3,2,7.5l-0.9,0.4
				C181.4,296,180.5,293.5,180.5,290.5z"/>
			<path d="M197.8,290.2v1h-12.6v-1h5.7v-1.1c-2.5-0.1-3.9-0.8-3.9-2c0-1.3,1.6-2,4.5-2s4.5,0.7,4.5,2c0,1.2-1.4,1.9-3.9,2v1.1
				H197.8z M197.1,284.7h-11.2v-1h5v-1.3h1.3v1.3h4.9V284.7z M186.7,292.3h9.5v4h-9.5V292.3z M188,295.3h7v-2h-7V295.3z
				 M191.5,288.3c2,0,3.1-0.4,3.1-1.1s-1.1-1.1-3.1-1.1s-3.2,0.4-3.2,1.1S189.5,288.3,191.5,288.3z"/>
			<path d="M199.3,297.9c1.3-2.2,2-4.8,2-7.5s-0.7-5.3-2-7.5l0.9-0.4c1.4,2.3,2.3,4.8,2.3,7.9s-0.9,5.6-2.3,7.9L199.3,297.9z"/>
		</g>
	</g>
	<g>
		<path class="st4" d="M1163.3,197.7H910c-4.3,0-7.8-3.5-7.8-7.8v-38.2c0-4.3,3.5-7.8,7.8-7.8h253.4c4.3,0,7.8,3.5,7.8,7.8v38.2
			C1171.1,194.2,1167.6,197.7,1163.3,197.7z"/>
		<g>
			<path d="M1005.5,167.9c0,2.3,1.6,4.8,3.7,5.8l-0.8,1c-1.6-0.8-2.9-2.5-3.5-4.4c-0.6,2.1-2,3.8-3.5,4.7l-0.7-1
				c2-1,3.7-3.6,3.7-6.1v-1.6h-3.2v-1h7.6v1h-3.2L1005.5,167.9L1005.5,167.9z M1012.1,163.8v14h-1.3V170h-3v-1h3v-5.1L1012.1,163.8
				L1012.1,163.8z"/>
			<path d="M1022.4,171.7c-1.6-0.5-2.8-1.7-3.4-3.1c-0.6,1.6-1.8,2.8-3.5,3.4l-0.7-1c2.1-0.7,3.5-2.5,3.5-4.5v-0.6h-3.1v-1h7.5v1
				h-3.1v0.5c0,1.9,1.3,3.6,3.4,4.3L1022.4,171.7z M1016.7,173h9.1v4.8h-1.3V174h-7.8V173z M1027.8,168.6h-2.1v3.7h-1.3v-8.4h1.3
				v3.7h2.1V168.6z"/>
			<path d="M1033.1,170.3c-1.4,0.1-2.6,0.1-3.8,0.1l-0.2-1c1.8,0,4,0,6.2-0.2c0.3-1.5,0.3-2.7,0.3-3.4h-5.3v-1h6.5v0.5
				c0,0.8,0,2.1-0.3,3.8c0.5,0,1.1-0.1,1.6-0.2l0.1,0.9c-1.3,0.2-2.6,0.4-3.9,0.5v3.2h-1.3v-3.2H1033.1z M1041.1,176.4v1h-9.9v-4.2
				h1.3v3.2H1041.1z M1039.4,171.4v-7.6h1.3v10.5h-1.3v-1.9h-3v-1H1039.4z"/>
			<path d="M1059.6,172.7h-5.7v5.1h-1.3v-5.1h-5.6v-1.1h12.6V172.7z M1058.5,170.2c-2.2-0.4-4.3-1.6-5.2-3.3c-0.9,1.7-3,2.9-5.1,3.3
				l-0.5-1c2.5-0.4,5-2.1,5-4v-0.8h1.3v0.8c0,1.9,2.5,3.7,5,4L1058.5,170.2z"/>
			<path d="M1068.9,167.7c0,1.9-1.5,3.2-3.7,3.2c-2.1,0-3.6-1.3-3.6-3.2s1.5-3.2,3.6-3.2C1067.4,164.5,1068.9,165.8,1068.9,167.7z
				 M1062.9,167.7c0,1.3,1,2.2,2.4,2.2s2.4-0.9,2.4-2.2s-1-2.1-2.4-2.1C1063.9,165.6,1062.9,166.4,1062.9,167.7z M1065,172v1.7h6.5
				V172h1.3v5.6h-9V172H1065z M1065,176.6h6.5v-1.8h-6.5V176.6z M1072.7,163.9v7.5h-1.3v-7.5H1072.7z"/>
		</g>
	</g>
	<g>
		<path class="st3" d="M286.1,197.7H32.7c-4.3,0-7.8-3.5-7.8-7.8v-38.2c0-4.3,3.5-7.8,7.8-7.8h253.4c4.3,0,7.8,3.5,7.8,7.8v38.2
			C293.9,194.2,290.4,197.7,286.1,197.7z"/>
		<g>
			<path d="M144.9,165.2h6.4v9h-6.4V165.2z M146.2,173.2h3.9v-6.9h-3.9V173.2z M157.4,170.5h-2.3v7.3h-1.3v-13.9h1.3v5.5h2.3V170.5z
				"/>
			<path d="M164,169c-0.8,1.6-2.3,2.9-4.6,3.9l-0.6-0.9c2-0.9,3.3-2,4.1-3.4L159,169l-0.2-1l4.5-0.3c0.2-0.5,0.3-1,0.3-1.6h-4.1v-1
				h5.4c0,1-0.1,2-0.4,2.9h2.1v-3.8h1.2v8h-1.2V169H164z M166.4,172.9c0,1.9,2.3,3.4,4.8,3.8l-0.5,1c-2.1-0.4-4-1.5-4.9-3
				c-0.9,1.6-2.8,2.7-4.9,3l-0.5-1c2.5-0.4,4.7-1.9,4.7-3.8v-0.4h1.3L166.4,172.9L166.4,172.9z M170.5,173.3h-1.2v-9.4h1.2V173.3z"
				/>
		</g>
	</g>
	<g>
		<path class="st3" d="M581.9,197.7H328.5c-4.3,0-7.8-3.5-7.8-7.8v-38.2c0-4.3,3.5-7.8,7.8-7.8h253.4c4.3,0,7.8,3.5,7.8,7.8v38.2
			C589.7,194.2,586.2,197.7,581.9,197.7z"/>
		<g>
			<path d="M409.8,174.9v1.1h-12.7v-1.1h5.7V172c-2.6-0.2-4.4-1.6-4.4-3.6c0-2.2,2.1-3.7,5.1-3.7c2.9,0,5.1,1.4,5.1,3.7
				c0,2.1-1.8,3.4-4.4,3.6v2.9H409.8z M403.4,171c2.2,0,3.8-1,3.8-2.6s-1.6-2.6-3.8-2.6c-2.2,0-3.9,1-3.9,2.6
				C399.6,170,401.2,171,403.4,171z"/>
			<path d="M424.1,169.5v1h-12.6v-1H424.1z M414.3,176.6h8.6v1H413v-3.4h8.2v-1.3H413v-1h9.5v3.3h-8.2V176.6z M422.6,168.2h-9.5V164
				h1.3v3.1h8.2V168.2z"/>
			<path d="M425.8,173.7c2.5,0,6,0,9.1-0.5l0.1,0.9c-3.1,0.6-6.5,0.6-9,0.6L425.8,173.7z M434,168.1c0,1.9-1.6,3.3-3.7,3.3
				c-2.2,0-3.7-1.3-3.7-3.3s1.6-3.3,3.7-3.3C432.4,164.9,434,166.2,434,168.1z M427.8,168.1c0,1.3,1.1,2.2,2.5,2.2s2.5-0.9,2.5-2.2
				s-1-2.2-2.5-2.2C428.8,165.9,427.8,166.8,427.8,168.1z M437.1,163.8v14h-1.3v-14H437.1z"/>
			<path d="M448.3,167.9c0,2.3,1.6,4.8,3.7,5.8l-0.8,1c-1.6-0.8-2.9-2.5-3.5-4.4c-0.6,2.1-2,3.8-3.5,4.7l-0.7-1c2-1,3.7-3.6,3.7-6.1
				v-1.6H444v-1h7.6v1h-3.2v1.6H448.3z M455,163.8v14h-1.3V170h-3v-1h3v-5.1L455,163.8L455,163.8z"/>
			<path d="M465.2,171.6c-1.6-0.5-2.8-1.7-3.4-3.1c-0.6,1.6-1.8,2.8-3.5,3.4l-0.7-1c2.1-0.7,3.5-2.5,3.5-4.5v-0.6H458v-1h7.5v1h-3.1
				v0.5c0,1.8,1.3,3.6,3.4,4.3L465.2,171.6z M459.5,173h9.1v4.8h-1.3V174h-7.8L459.5,173L459.5,173z M470.7,168.6h-2.1v3.7h-1.3
				v-8.4h1.3v3.7h2.1V168.6z"/>
			<path d="M475.9,170.3c-1.4,0.1-2.6,0.1-3.8,0.1l-0.2-1c1.8,0,4,0,6.2-0.2c0.3-1.5,0.3-2.7,0.3-3.5h-5.3v-1h6.5v0.5
				c0,0.8,0,2.1-0.3,3.8c0.5,0,1.1-0.1,1.6-0.2l0.1,0.9c-1.3,0.2-2.6,0.4-3.9,0.5v3.2h-1.3L475.9,170.3L475.9,170.3z M483.9,176.4v1
				H474v-4.2h1.3v3.2H483.9z M482.3,171.4v-7.6h1.3v10.5h-1.3v-1.9h-3v-1H482.3z"/>
			<path d="M491.4,168.1c0,2.4,1.7,4.8,3.7,5.6l-0.7,1c-1.6-0.7-3-2.3-3.7-4.3c-0.6,2-2,3.8-3.6,4.6l-0.7-1c2-0.9,3.7-3.6,3.7-6
				v-1.8h-3.2v-1.1h7.8v1.1h-3.3L491.4,168.1L491.4,168.1z M497.8,163.8v13.9h-1.3v-13.9H497.8z"/>
			<path d="M513.3,172.7h-5.7v5h-1.3v-5h-5.6v-1.1h12.6V172.7z M512.1,170.2c-2.2-0.4-4.3-1.6-5.2-3.3c-0.9,1.7-3,2.9-5.1,3.3
				l-0.5-1c2.5-0.4,5-2.1,5-4v-0.8h1.3v0.8c0,1.9,2.5,3.7,5,4L512.1,170.2z"/>
		</g>
	</g>
	<g>
		<path class="st4" d="M1163.3,257.5H910c-4.3,0-7.8-3.5-7.8-7.8v-38.2c0-4.3,3.5-7.8,7.8-7.8h253.4c4.3,0,7.8,3.5,7.8,7.8v38.2
			C1171.1,254,1167.6,257.5,1163.3,257.5z"/>
		<g>
			<path d="M1022.1,232.6h-5.7v5h-1.3v-5h-5.6v-1h12.6V232.6z M1010.2,229.4c2.4-0.4,4.8-2,4.8-3.8v-0.1h-4.4v-1h10.2v1h-4.4v0.1
				c0,1.8,2.4,3.4,4.9,3.8l-0.5,1c-2.2-0.4-4.2-1.5-5.1-3.2c-0.9,1.6-2.9,2.8-5.1,3.2L1010.2,229.4z"/>
			<path d="M1036.4,230.7v1h-5.6v2.8h-1.3v-2.8h-5.8v-1H1036.4z M1026.6,236.2h8.4v1h-9.6v-4h1.3v3H1026.6z M1034.8,229.2h-9.4v-4.9
				h9.4V229.2z M1033.5,225.3h-6.9v2.8h6.9V225.3z"/>
			<path d="M1042.8,225.8h3.4v1h-8.2v-1h3.5v-2.1h1.3L1042.8,225.8L1042.8,225.8z M1045.6,231.2c0,1.9-1.4,3.2-3.4,3.2
				s-3.4-1.3-3.4-3.2s1.4-3.2,3.4-3.2C1044.1,228,1045.6,229.4,1045.6,231.2z M1044.3,231.2c0-1.3-0.9-2.2-2.2-2.2
				c-1.3,0-2.2,0.9-2.2,2.2c0,1.2,0.9,2.1,2.2,2.1C1043.4,233.4,1044.3,232.5,1044.3,231.2z M1051.1,230.4h-2.3v7.1h-1.3v-13.9h1.3
				v5.7h2.3V230.4z"/>
			<path d="M1059.7,225.1c0,4-1.8,7.6-6.5,9.8l-0.7-1c3.7-1.8,5.6-4.5,5.9-7.8h-5.2v-1H1059.7z M1063.8,223.6v13.9h-1.3v-13.9
				H1063.8z"/>
		</g>
	</g>
	<g>
		<path class="st3" d="M581.9,257.5H328.5c-4.3,0-7.8-3.5-7.8-7.8v-38.2c0-4.3,3.5-7.8,7.8-7.8h253.4c4.3,0,7.8,3.5,7.8,7.8v38.2
			C589.7,254,586.2,257.5,581.9,257.5z"/>
		<g>
			<path d="M420,234.7v1.1h-12.7v-1.1h5.7v-2.9c-2.6-0.2-4.4-1.6-4.4-3.6c0-2.2,2.1-3.7,5.1-3.7c2.9,0,5.1,1.4,5.1,3.7
				c0,2.1-1.8,3.4-4.4,3.6v2.9H420z M413.6,230.8c2.2,0,3.8-1,3.8-2.6s-1.6-2.6-3.8-2.6c-2.2,0-3.9,1-3.9,2.6
				S411.4,230.8,413.6,230.8z"/>
			<path d="M434.3,229.3v1h-12.6v-1H434.3z M424.5,236.4h8.6v1h-9.9V234h8.2v-1.3h-8.2v-1h9.5v3.3h-8.2V236.4z M432.8,227.9h-9.5
				v-4.1h1.3v3.1h8.2V227.9z"/>
			<path d="M436,233.4c2.5,0,6,0,9.1-0.5l0.1,0.9c-3.1,0.6-6.5,0.6-9,0.6L436,233.4z M444.2,227.9c0,1.9-1.6,3.3-3.7,3.3
				c-2.2,0-3.7-1.3-3.7-3.3s1.6-3.3,3.7-3.3C442.6,224.6,444.2,225.9,444.2,227.9z M438,227.9c0,1.3,1.1,2.2,2.5,2.2
				s2.5-0.9,2.5-2.2s-1-2.2-2.5-2.2S438,226.6,438,227.9z M447.3,223.6v14H446v-14H447.3z"/>
			<path d="M456.8,226.2h-3.4V225h8.3v1.2h-3.4v10.2h-1.4v-10.2H456.8z"/>
			<path d="M462.7,230.6c0-3.7,2-5.9,4.9-5.9s4.9,2.2,4.9,5.9s-2,5.9-4.9,5.9S462.7,234.3,462.7,230.6z M470.9,230.6
				c0-2.9-1.4-4.6-3.4-4.6c-2.1,0-3.4,1.8-3.4,4.6s1.3,4.7,3.4,4.7S470.9,233.5,470.9,230.6z"/>
			<path d="M474.9,225h3.3c2.5,0,4.3,0.9,4.3,3.4c0,2.4-1.7,3.5-4.2,3.5h-1.9v4.5H475L474.9,225L474.9,225z M478,230.7
				c2,0,3-0.7,3-2.4c0-1.6-1-2.2-3-2.2h-1.6v4.5L478,230.7L478,230.7z"/>
			<path d="M488,235.2h2.5V227h-2v-0.9c1-0.2,1.7-0.4,2.4-0.8h1.1v9.9h2.3v1.2H488V235.2z"/>
			<path d="M496,230.8c0-3.7,1.4-5.7,3.6-5.7s3.5,2,3.5,5.7s-1.3,5.8-3.5,5.8C497.3,236.6,496,234.5,496,230.8z M501.7,230.8
				c0-3.2-0.9-4.6-2.2-4.6c-1.3,0-2.2,1.3-2.2,4.6c0,3.2,0.9,4.6,2.2,4.6C500.8,235.5,501.7,234.1,501.7,230.8z"/>
		</g>
	</g>
	<text transform="matrix(1 0 0 1 -769.9893 -341.7709)" style="font-family:'NotoSansKR-Regular-KSCpc-EUC-H'; font-size:13px;">옥션</text>
	<text transform="matrix(1 0 0 1 -423.5195 -396.5845)" style="font-family:'NotoSansKR-Regular-KSCpc-EUC-H'; font-size:13px;">검색 과 설명</text>
	<text transform="matrix(1 0 0 1 -303.2687 -338.3076)" style="font-family:'NotoSansKR-Regular-KSCpc-EUC-H'; font-size:13px;">음원정보</text>
	<text transform="matrix(1 0 0 1 -71.7218 -338.3068)" style="font-family:'NotoSansKR-Regular-KSCpc-EUC-H'; font-size:13px;">옥션가/ 마켓가</text>
	<text transform="matrix(1 0 0 1 -61.4884 -288.0419)" style="font-family:'NotoSansKR-Regular-KSCpc-EUC-H'; font-size:13px;">저작권 수입</text>
	<text transform="matrix(1 0 0 1 -36.499 -232.6251)" style="font-family:'NotoSansKR-Regular-KSCpc-EUC-H'; font-size:13px;">주문하기</text>
	<text transform="matrix(1 0 0 1 -784.8179 -258.217)" style="font-family:'NotoSansKR-Regular-KSCpc-EUC-H'; font-size:13px;">마켓가</text>
	<text transform="matrix(1 0 0 1 -531.1511 -35.5003)" style="font-family:'NotoSansKR-Regular-KSCpc-EUC-H'; font-size:13px;">이 음원 어때요?</text>
	<text transform="matrix(1 0 0 1 -549.2273 18.4545)" style="font-family:'NotoSansKR-Regular-KSCpc-EUC-H'; font-size:13px;">실시간 음악계 뉴스</text>
	<text transform="matrix(1 0 0 1 -802.5757 -90.0828)" style="font-family:'NotoSansKR-Regular-KSCpc-EUC-H'; font-size:13px;">나의 뮤카 (홈) </text>
	<text transform="matrix(1 0 0 1 -778.5414 -35.5003)" style="font-family:'NotoSansKR-Regular-KSCpc-EUC-H'; font-size:13px;">추천</text>
	<text transform="matrix(1 0 0 1 -531.1511 -256.8129)" style="font-family:'NotoSansKR-Regular-KSCpc-EUC-H'; font-size:13px;">오늘의 저작권지수</text>
	<text transform="matrix(1 0 0 1 -531.1511 -211.8124)" style="font-family:'NotoSansKR-Regular-KSCpc-EUC-H'; font-size:13px;">오늘의 top 10</text>
</g>
<g id="Layer_4">
	<g>
		<line class="st6" x1="631.2" y1="109.7" x2="266.2" y2="109.7"/>
		<polyline class="st6" points="623.3,97.4 633.6,109.8 623.3,120.8 		"/>
	</g>
	<g>
		<line class="st6" x1="345.1" y1="170.4" x2="266.2" y2="170.4"/>
		<polyline class="st6" points="337.3,158.1 347.6,170.5 337.3,181.6 		"/>
	</g>
	<g>
		<line class="st6" x1="930.6" y1="109.7" x2="818.8" y2="109.7"/>
		<polyline class="st6" points="922.7,97.4 933,109.8 922.7,120.8 		"/>
	</g>
	<path class="st6" d="M347.6,170.5c0,0-41.9-3.7-41.9,33.2s36.7,33.9,36.7,33.9"/>
	<polyline class="st6" points="332.1,224.9 342.4,237.3 332.1,248.3 	"/>
	<g>
		<path class="st6" d="M922.4,164.9"/>
		<polyline class="st6" points="914.6,152.6 924.8,165 914.6,176.1 		"/>
	</g>
	<path class="st6" d="M924.8,165c0,0-41.9-3.7-41.9,33.2s36.7,33.9,36.7,33.9"/>
	<polyline class="st6" points="909.4,219.3 919.7,231.7 909.4,242.8 	"/>
	<path class="st6" d="M930.6,109.7c0,0-47-5.9-47,30.9s38.9,24.3,38.9,24.3"/>
	<path class="st6" d="M744.4,138.1C764.1,354.7,272,293.5,266.2,292.3"/>
	<path class="st6" d="M584.1,172.5"/>
	<path class="st6" d="M707,138.1c-37.9,69.6-135.4,43.5-135.4,43.5"/>
	<path class="st6" d="M570.3,236.6c0,0,98.1,15.1,136.7-98.4"/>
	<g>
		<line class="st6" x1="342.9" y1="351.8" x2="261.9" y2="351.8"/>
		<polyline class="st6" points="335,339.5 345.3,351.9 335,362.9 		"/>
	</g>
	<path class="st6" d="M341.7,352.5c0,0-41.9-3.7-41.9,33.2s36.7,33.9,36.7,33.9"/>
	<polyline class="st6" points="326.2,406.8 336.5,419.2 326.2,430.2 	"/>
	<path class="st6" d="M576.8,354.3c0,0,198.7-0.5,209.8-216.2"/>
	<path class="st6" d="M576.8,412c0,0,203.8,24.1,209.8-273.9"/>
	<polyline class="st6" points="686.4,144.1 709.2,137.1 709.4,159.8 	"/>
	<polyline class="st6" points="727.9,152.5 745.7,136.6 755.3,157.2 	"/>
	<polyline class="st6" points="769.4,152.5 787.2,136.6 796.8,157.2 	"/>
</g>
</svg>
