<?xml version="1.0" encoding="utf-8"?>
<!-- Generator: Adobe Illustrator 22.1.0, SVG Export Plug-In . SVG Version: 6.00 Build 0)  -->
<svg version="1.1" xmlns="http://www.w3.org/2000/svg" xmlns:xlink="http://www.w3.org/1999/xlink" x="0px" y="0px"
	 viewBox="0 0 600 200" style="enable-background:new 0 0 600 200;" xml:space="preserve">
<style type="text/css">
	.st0{display:none;}
	.st1{display:inline;fill:#FFFFFF;stroke:#000000;stroke-miterlimit:10;}
	.st2{display:inline;}
	.st3{fill:#EDF0F2;}
	.st4{fill:#41B3F2;}
	.st5{fill:#1EFFA3;}
	.st6{fill:#F7FD91;}
	.st7{fill:none;stroke:#1EFFA3;stroke-width:14;stroke-linecap:round;stroke-miterlimit:10;}
</style>
<g id="Layer_2" class="st0">
	<rect class="st1" width="600" height="200"/>
</g>
<g id="Layer_1" class="st0">
	<g class="st2">
		<path class="st3" d="M125,181.4L125,181.4c-3.7,0-6.7-3-6.7-6.7V23.2c0-3.9,3.1-7,7-7h0c3.9,0,7,3.1,7,7v151
			C132.3,178.1,129,181.4,125,181.4z"/>
		<path class="st4" d="M125.3,180.5L125.3,180.5c-3.9,0-7-3.1-7-7V32.3c0-3.9,3.1-7,7-7h0c3.9,0,7,3.1,7,7v141.2
			C132.3,177.4,129.1,180.5,125.3,180.5z"/>
		<path class="st5" d="M125.3,180.5L125.3,180.5c-3.9,0-7-3.1-7-7V85.4c0-3.9,3.1-7,7-7h0c3.9,0,7,3.1,7,7v88.2
			C132.3,177.4,129.1,180.5,125.3,180.5z"/>
		<path class="st6" d="M125.3,180.5L125.3,180.5c-3.9,0-7-3.1-7-7v-48.8c0-3.9,3.1-7,7-7h0c3.9,0,7,3.1,7,7v48.8
			C132.3,177.4,129.1,180.5,125.3,180.5z"/>
		<path class="st3" d="M156.5,181.4L156.5,181.4c-3.7,0-6.7-3-6.7-6.7V23.2c0-3.9,3.1-7,7-7h0c3.9,0,7,3.1,7,7v151
			C163.8,178.1,160.5,181.4,156.5,181.4z"/>
		<path class="st6" d="M156.8,180.5L156.8,180.5c-3.9,0-7-3.1-7-7v-48.8c0-3.9,3.1-7,7-7h0c3.9,0,7,3.1,7,7v48.8
			C163.8,177.4,160.6,180.5,156.8,180.5z"/>
		<path class="st3" d="M188,181.4L188,181.4c-3.7,0-6.7-3-6.7-6.7V23.2c0-3.9,3.1-7,7-7h0c3.9,0,7,3.1,7,7v151
			C195.3,178.1,192,181.4,188,181.4z"/>
		<path class="st6" d="M188.3,180.5L188.3,180.5c-3.9,0-7-3.1-7-7v-26.9c0-3.9,3.1-7,7-7h0c3.9,0,7,3.1,7,7v26.9
			C195.3,177.4,192.1,180.5,188.3,180.5z"/>
		<path class="st3" d="M219.5,181.4L219.5,181.4c-3.7,0-6.7-3-6.7-6.7V23.2c0-3.9,3.1-7,7-7h0c3.9,0,7,3.1,7,7v151
			C226.8,178.1,223.5,181.4,219.5,181.4z"/>
		<path class="st4" d="M219.8,180.5L219.8,180.5c-3.9,0-7-3.1-7-7V45.4c0-3.9,3.1-7,7-7h0c3.9,0,7,3.1,7,7v128.1
			C226.8,177.4,223.6,180.5,219.8,180.5z"/>
		<path class="st5" d="M219.8,180.5L219.8,180.5c-3.9,0-7-3.1-7-7V85.4c0-3.9,3.1-7,7-7h0c3.9,0,7,3.1,7,7v88.2
			C226.8,177.4,223.6,180.5,219.8,180.5z"/>
		<path class="st6" d="M219.8,180.5L219.8,180.5c-3.9,0-7-3.1-7-7v-48.8c0-3.9,3.1-7,7-7h0c3.9,0,7,3.1,7,7v48.8
			C226.8,177.4,223.6,180.5,219.8,180.5z"/>
		<path class="st3" d="M251,181.4L251,181.4c-3.7,0-6.7-3-6.7-6.7V23.2c0-3.9,3.1-7,7-7h0c3.9,0,7,3.1,7,7v151
			C258.3,178.1,255,181.4,251,181.4z"/>
		<path class="st4" d="M251.3,180.5L251.3,180.5c-3.9,0-7-3.1-7-7V60.7c0-3.9,3.1-7,7-7h0c3.9,0,7,3.1,7,7v112.9
			C258.3,177.4,255.1,180.5,251.3,180.5z"/>
		<path class="st5" d="M251.3,180.5L251.3,180.5c-3.9,0-7-3.1-7-7V85.4c0-3.9,3.1-7,7-7l0,0c3.9,0,7,3.1,7,7v88.2
			C258.3,177.4,255.1,180.5,251.3,180.5z"/>
		<path class="st6" d="M251.3,180.5L251.3,180.5c-3.9,0-7-3.1-7-7v-48.8c0-3.9,3.1-7,7-7h0c3.9,0,7,3.1,7,7v48.8
			C258.3,177.4,255.1,180.5,251.3,180.5z"/>
		<path class="st3" d="M282.5,181.4L282.5,181.4c-3.7,0-6.7-3-6.7-6.7V23.2c0-3.9,3.1-7,7-7l0,0c3.9,0,7,3.1,7,7v151
			C289.8,178.1,286.5,181.4,282.5,181.4z"/>
		<path class="st5" d="M282.8,180.5L282.8,180.5c-3.9,0-7-3.1-7-7v-67.8c0-3.9,3.1-7,7-7h0c3.9,0,7,3.1,7,7v67.8
			C289.8,177.4,286.6,180.5,282.8,180.5z"/>
		<path class="st6" d="M282.8,180.5L282.8,180.5c-3.9,0-7-3.1-7-7v-48.8c0-3.9,3.1-7,7-7h0c3.9,0,7,3.1,7,7v48.8
			C289.8,177.4,286.6,180.5,282.8,180.5z"/>
		<path class="st3" d="M314,181.4L314,181.4c-3.7,0-6.7-3-6.7-6.7V23.2c0-3.9,3.1-7,7-7h0c3.9,0,7,3.1,7,7v151
			C321.3,178.1,318,181.4,314,181.4z"/>
		<path class="st5" d="M314.3,180.5L314.3,180.5c-3.9,0-7-3.1-7-7v-49.7c0-3.9,3.1-7,7-7l0,0c3.9,0,7,3.1,7,7v49.7
			C321.3,177.4,318.1,180.5,314.3,180.5z"/>
		<path class="st6" d="M314.3,180.5L314.3,180.5c-3.9,0-7-3.1-7-7v-48.8c0-3.9,3.1-7,7-7l0,0c3.9,0,7,3.1,7,7v48.8
			C321.3,177.4,318.1,180.5,314.3,180.5z"/>
		<path class="st3" d="M345.5,181.4L345.5,181.4c-3.7,0-6.7-3-6.7-6.7V23.2c0-3.9,3.1-7,7-7l0,0c3.9,0,7,3.1,7,7v151
			C352.8,178.1,349.5,181.4,345.5,181.4z"/>
		<path class="st6" d="M345.8,180.5L345.8,180.5c-3.9,0-7-3.1-7-7v0c0-3.9,3.1-7,7-7h0c3.9,0,7,3.1,7,7v0
			C352.8,177.4,349.6,180.5,345.8,180.5z"/>
		<path class="st3" d="M377,181.4L377,181.4c-3.7,0-6.7-3-6.7-6.7V23.2c0-3.9,3.1-7,7-7l0,0c3.9,0,7,3.1,7,7v151
			C384.3,178.1,381,181.4,377,181.4z"/>
		<path class="st6" d="M377.3,180.5L377.3,180.5c-3.9,0-7-3.1-7-7v-48.8c0-3.9,3.1-7,7-7h0c3.9,0,7,3.1,7,7v48.8
			C384.3,177.4,381.1,180.5,377.3,180.5z"/>
		<path class="st3" d="M409.6,181.4L409.6,181.4c-3.7,0-6.7-3-6.7-6.7V23.2c0-3.9,3.1-7,7-7l0,0c3.9,0,7,3.1,7,7v151
			C416.9,178.1,413.6,181.4,409.6,181.4z"/>
		<path class="st5" d="M409.9,180.5L409.9,180.5c-3.9,0-7-3.1-7-7V91c0-3.9,3.1-7,7-7h0c3.9,0,7,3.1,7,7v82.6
			C416.9,177.4,413.7,180.5,409.9,180.5z"/>
		<path class="st6" d="M409.9,180.5L409.9,180.5c-3.9,0-7-3.1-7-7v-48.8c0-3.9,3.1-7,7-7h0c3.9,0,7,3.1,7,7v48.8
			C416.9,177.4,413.7,180.5,409.9,180.5z"/>
		<path class="st3" d="M442.2,181.4L442.2,181.4c-3.7,0-6.7-3-6.7-6.7V23.2c0-3.9,3.1-7,7-7h0c3.9,0,7,3.1,7,7v151
			C449.5,178.1,446.2,181.4,442.2,181.4z"/>
		<path class="st5" d="M442.5,180.5L442.5,180.5c-3.9,0-7-3.1-7-7v-67.8c0-3.9,3.1-7,7-7l0,0c3.9,0,7,3.1,7,7v67.8
			C449.5,177.4,446.3,180.5,442.5,180.5z"/>
		<path class="st6" d="M442.5,180.5L442.5,180.5c-3.9,0-7-3.1-7-7v-48.8c0-3.9,3.1-7,7-7l0,0c3.9,0,7,3.1,7,7v48.8
			C449.5,177.4,446.3,180.5,442.5,180.5z"/>
		<path class="st3" d="M474.5,181.4L474.5,181.4c-3.7,0-6.7-3-6.7-6.7V23.2c0-3.9,3.1-7,7-7l0,0c3.9,0,7,3.1,7,7v151
			C481.7,178.1,478.5,181.4,474.5,181.4z"/>
		<path class="st4" d="M474.7,180.5L474.7,180.5c-3.9,0-7-3.1-7-7V66.6c0-3.9,3.1-7,7-7l0,0c3.9,0,7,3.1,7,7v106.9
			C481.7,177.4,478.6,180.5,474.7,180.5z"/>
		<path class="st5" d="M474.7,180.5L474.7,180.5c-3.9,0-7-3.1-7-7V85.4c0-3.9,3.1-7,7-7h0c3.9,0,7,3.1,7,7v88.2
			C481.7,177.4,478.6,180.5,474.7,180.5z"/>
		<path class="st6" d="M474.7,180.5L474.7,180.5c-3.9,0-7-3.1-7-7v-48.8c0-3.9,3.1-7,7-7l0,0c3.9,0,7,3.1,7,7v48.8
			C481.7,177.4,478.6,180.5,474.7,180.5z"/>
	</g>
</g>
<g id="Layer_3">
	<g>
		<path class="st3" d="M125,181.3L125,181.3c-3.7,0-6.7-3-6.7-6.7V23.1c0-3.9,3.1-7,7-7h0c3.9,0,7,3.1,7,7v151
			C132.3,178,129,181.3,125,181.3z"/>
		<path class="st3" d="M156.5,181.3L156.5,181.3c-3.7,0-6.7-3-6.7-6.7V23.1c0-3.9,3.1-7,7-7h0c3.9,0,7,3.1,7,7v151
			C163.8,178,160.5,181.3,156.5,181.3z"/>
		<path class="st3" d="M188,181.3L188,181.3c-3.7,0-6.7-3-6.7-6.7V23.1c0-3.9,3.1-7,7-7h0c3.9,0,7,3.1,7,7v151
			C195.3,178,192,181.3,188,181.3z"/>
		<path class="st3" d="M219.5,181.3L219.5,181.3c-3.7,0-6.7-3-6.7-6.7V23.1c0-3.9,3.1-7,7-7h0c3.9,0,7,3.1,7,7v151
			C226.8,178,223.5,181.3,219.5,181.3z"/>
		<path class="st3" d="M251,181.3L251,181.3c-3.7,0-6.7-3-6.7-6.7V23.1c0-3.9,3.1-7,7-7h0c3.9,0,7,3.1,7,7v151
			C258.3,178,255,181.3,251,181.3z"/>
		<path class="st3" d="M282.5,181.3L282.5,181.3c-3.7,0-6.7-3-6.7-6.7V23.1c0-3.9,3.1-7,7-7h0c3.9,0,7,3.1,7,7v151
			C289.8,178,286.5,181.3,282.5,181.3z"/>
		<path class="st3" d="M314,181.3L314,181.3c-3.7,0-6.7-3-6.7-6.7V23.1c0-3.9,3.1-7,7-7l0,0c3.9,0,7,3.1,7,7v151
			C321.3,178,318,181.3,314,181.3z"/>
		<path class="st3" d="M345.5,181.3L345.5,181.3c-3.7,0-6.7-3-6.7-6.7V23.1c0-3.9,3.1-7,7-7l0,0c3.9,0,7,3.1,7,7v151
			C352.8,178,349.5,181.3,345.5,181.3z"/>
		<path class="st3" d="M377,181.3L377,181.3c-3.7,0-6.7-3-6.7-6.7V23.1c0-3.9,3.1-7,7-7h0c3.9,0,7,3.1,7,7v151
			C384.3,178,381,181.3,377,181.3z"/>
		<path class="st3" d="M409.6,181.3L409.6,181.3c-3.7,0-6.7-3-6.7-6.7V23.1c0-3.9,3.1-7,7-7h0c3.9,0,7,3.1,7,7v151
			C416.9,178,413.6,181.3,409.6,181.3z"/>
		<path class="st3" d="M442.2,181.3L442.2,181.3c-3.7,0-6.7-3-6.7-6.7V23.1c0-3.9,3.1-7,7-7l0,0c3.9,0,7,3.1,7,7v151
			C449.5,178,446.2,181.3,442.2,181.3z"/>
		<path class="st3" d="M474.5,181.3L474.5,181.3c-3.7,0-6.7-3-6.7-6.7V23.1c0-3.9,3.1-7,7-7l0,0c3.9,0,7,3.1,7,7v151
			C481.7,178,478.5,181.3,474.5,181.3z"/>
		<polyline class="st7" points="118.4,92.8 190.9,116.3 226.9,80.9 260.9,105 348.4,72.1 412.5,148.9 478.8,48.5 		"/>
	</g>
</g>
</svg>
