<?xml version="1.0" encoding="utf-8"?>
<!-- Generator: Adobe Illustrator 22.1.0, SVG Export Plug-In . SVG Version: 6.00 Build 0)  -->
<svg version="1.1" id="Layer_1" xmlns="http://www.w3.org/2000/svg" xmlns:xlink="http://www.w3.org/1999/xlink" x="0px" y="0px"
	 viewBox="0 0 50 50" style="enable-background:new 0 0 50 50;" xml:space="preserve">
<style type="text/css">
	.st0{fill:#61F7A0;}
	.st1{fill:#FCFCFA;stroke:#FCFCFA;stroke-miterlimit:10;}
</style>
<g>
	<path class="st0" d="M24.9,49.5c-1,0-2.1-0.1-3.1-0.2C15.3,48.5,9.5,45.2,5.5,40s-5.8-11.6-5-18.1C2.1,9.7,12.5,0.5,24.8,0.5
		c1,0,2.1,0.1,3.1,0.2c6.5,0.8,12.3,4.1,16.3,9.3s5.8,11.6,5,18.1C47.6,40.3,37.2,49.5,24.9,49.5z"/>
	<path d="M24.8,0v1c1,0,2,0.1,3,0.2C41,2.8,50.3,14.9,48.7,28C47.2,40,37,49,24.9,49c-1,0-2-0.1-3-0.2C8.7,47.2-0.6,35.1,1.1,22
		C2.6,10,12.8,1,24.8,1V0 M24.8,0C12.4,0,1.6,9.2,0.1,21.9c-1.7,13.7,8,26.2,21.7,27.9c1.1,0.1,2.1,0.2,3.1,0.2
		c12.4,0,23.2-9.2,24.8-21.9c1.7-13.7-8-26.2-21.7-27.9C26.9,0.1,25.9,0,24.8,0L24.8,0z"/>
</g>
<g>
	<g>
		<path class="st1" d="M27,14.1h-2.9v11.6l10.1,6.2l1.6-2.5L27,24.2V14.1z"/>
	</g>
</g>
</svg>
