<?xml version="1.0" encoding="utf-8"?>
<!-- Generator: Adobe Illustrator 22.1.0, SVG Export Plug-In . SVG Version: 6.00 Build 0)  -->
<svg version="1.1" id="Layer_1" xmlns="http://www.w3.org/2000/svg" xmlns:xlink="http://www.w3.org/1999/xlink" x="0px" y="0px"
	 viewBox="0 0 50 50" style="enable-background:new 0 0 50 50;" xml:space="preserve">
<style type="text/css">
	.st0{fill:#F1EF58;}
	.st1{fill:none;stroke:#000000;stroke-linecap:round;stroke-miterlimit:10;}
</style>
<g>
	<path class="st0" d="M24.8,49.5c-1,0-2.1-0.1-3.1-0.2C15.2,48.5,9.4,45.2,5.4,40s-5.8-11.6-5-18.1C2,9.7,12.4,0.5,24.7,0.5
		c1,0,2.1,0.1,3.1,0.2c6.5,0.8,12.3,4.1,16.3,9.3s5.8,11.6,5,18.1C47.5,40.3,37.1,49.5,24.8,49.5z"/>
	<path d="M24.7,0v1c1,0,2,0.1,3,0.2C41,2.8,50.3,14.9,48.7,28C47.2,40,37,49,24.8,49c-1,0-2-0.1-3-0.2C8.6,47.2-0.7,35.1,1,22
		C2.5,10,12.7,1,24.7,1V0 M24.7,0C12.3,0,1.5,9.2,0,21.9c-1.7,13.7,8,26.2,21.7,27.9c1.1,0.1,2.1,0.2,3.1,0.2
		c12.4,0,23.2-9.2,24.8-21.9c1.7-13.7-8-26.2-21.7-27.9C26.9,0.1,25.9,0,24.7,0L24.7,0z"/>
	<line class="st1" x1="14.4" y1="34.1" x2="35.5" y2="34.1"/>
</g>
<g>
	<g>
		<path d="M16.2,21.7h-1.1c-0.8,0-1.5-0.7-1.5-1.5v-1.1c0-0.8,0.7-1.5,1.5-1.5h1.1c0.8,0,1.5,0.7,1.5,1.5v1.1
			C17.7,21,17.1,21.7,16.2,21.7z"/>
		<path d="M34.5,21.7h-1.1c-0.8,0-1.5-0.7-1.5-1.5v-1.1c0-0.8,0.7-1.5,1.5-1.5h1.1c0.8,0,1.5,0.7,1.5,1.5v1.1
			C36,21,35.4,21.7,34.5,21.7z"/>
	</g>
</g>
</svg>
