<?xml version="1.0" encoding="utf-8"?>
<!-- Generator: Adobe Illustrator 22.1.0, SVG Export Plug-In . SVG Version: 6.00 Build 0)  -->
<svg version="1.1" id="Layer_1" xmlns="http://www.w3.org/2000/svg" xmlns:xlink="http://www.w3.org/1999/xlink" x="0px" y="0px"
	 viewBox="0 0 50 50" style="enable-background:new 0 0 50 50;" xml:space="preserve">
<style type="text/css">
	.st0{fill:#FCFCFA;stroke:#FCFCFA;stroke-miterlimit:10;}
	.st1{fill:#1EFFA3;}
</style>
<g>
	<g>
		<path class="st0" d="M27,14.1h-2.9v11.6l10.1,6.2l1.6-2.5L27,24.2V14.1z"/>
	</g>
</g>
<g>
	<path class="st1" d="M49.2,23.4v21.2c0,2.7-2,4.8-4.5,4.8h-40c-2.5,0-4.5-2.2-4.5-4.8V12.4c0,0,41.3-1.6,48.8,10.4L49.2,23.4z"/>
</g>
<g>
	<path d="M45.3,1.4c1.6,0,2.9,1.3,2.9,2.9v41.2c0,1.6-1.3,2.9-2.9,2.9H4.2c-1.6,0-2.9-1.3-2.9-2.9V4.3c0-1.6,1.3-2.9,2.9-2.9H45.3
		 M45.3,0.4H4.2C2,0.4,0.2,2.2,0.2,4.3v41.2c0,2.2,1.8,3.9,3.9,3.9h41.2c2.2,0,3.9-1.8,3.9-3.9V4.3C49.2,2.2,47.5,0.4,45.3,0.4
		L45.3,0.4z"/>
</g>
</svg>
