<?xml version="1.0" encoding="utf-8"?>
<!-- Generator: Adobe Illustrator 22.1.0, SVG Export Plug-In . SVG Version: 6.00 Build 0)  -->
<svg version="1.1" id="Layer_1" xmlns="http://www.w3.org/2000/svg" xmlns:xlink="http://www.w3.org/1999/xlink" x="0px" y="0px"
	 viewBox="0 0 50 50" style="enable-background:new 0 0 50 50;" xml:space="preserve">
<style type="text/css">
	.st0{fill:#1EFFA3;}
</style>
<g>
	<path class="st0" d="M24.9,49.3c-13.2,0-24-10.8-24-24s10.8-24,24-24c6.4,0,12.4,2.5,17,7.1l0.4,0.4L48.9,2v19.7H29.1l9.4-9.4
		L38.1,12c-3.6-3.6-8.3-5.6-13.3-5.6C14.4,6.4,6,14.9,6,25.3c0,10.4,8.5,18.9,18.9,18.9c7.9,0,14.9-4.9,17.7-12.2h5.4
		C44.9,42.2,35.6,49.3,24.9,49.3z"/>
	<path d="M24.9,1.8c6.3,0,12.2,2.5,16.6,6.9l0.7,0.7l0.7-0.7l5.5-5.5v18h-18l8.2-8.2l0.7-0.7l-0.7-0.7C34.8,8,30,5.9,24.9,5.9
		c-10.7,0-19.4,8.7-19.4,19.4s8.7,19.4,19.4,19.4c8,0,15.1-4.9,18-12.2h4.4c-3.1,9.7-12.1,16.4-22.4,16.4
		c-12.9,0-23.5-10.5-23.5-23.5S11.9,1.8,24.9,1.8 M49.4,0.8L42.2,8c-4.4-4.4-10.5-7.2-17.3-7.2c-13.5,0-24.5,11-24.5,24.5
		s10.9,24.5,24.5,24.5c11.4,0,21-7.8,23.7-18.4h-6.4c-2.5,7.1-9.3,12.2-17.3,12.2c-10.1,0-18.4-8.2-18.4-18.4S14.7,6.9,24.9,6.9
		c5.1,0,9.6,2.1,12.9,5.5l-9.9,9.9h21.5V0.8L49.4,0.8z"/>
</g>
</svg>
