<?xml version="1.0" encoding="utf-8"?>
<!-- Generator: Adobe Illustrator 22.1.0, SVG Export Plug-In . SVG Version: 6.00 Build 0)  -->
<svg version="1.1" id="Layer_1" xmlns="http://www.w3.org/2000/svg" xmlns:xlink="http://www.w3.org/1999/xlink" x="0px" y="0px"
	 viewBox="0 0 706 1485" style="enable-background:new 0 0 706 1485;" xml:space="preserve">
<style type="text/css">
	.st0{fill:#ECF0F3;}
	.st1{fill:#E58777;stroke:#000000;stroke-miterlimit:10;}
	.st2{fill:#6495ED;}
	.st3{fill:#61F7A0;}
	.st4{fill:#F1EF58;}
	.st5{fill:#F85B46;}
	.st6{clip-path:url(#SVGID_2_);}
	.st7{fill:#121212;stroke:#FCFCFA;stroke-miterlimit:10;}
	.st8{fill:#FCFCFA;}
	.st9{font-family:'Pretendard-Medium-KSCpc-EUC-H';}
	.st10{font-size:20px;}
	.st11{fill:#FFFFFF;}
	.st12{font-family:'Pretendard-ExtraLight-KSCpc-EUC-H';}
	.st13{fill:#FCFCFA;stroke:#FCFCFA;stroke-width:2;stroke-miterlimit:10;}
	.st14{fill:none;stroke:#FCFCFA;stroke-width:2;stroke-miterlimit:10;}
	.st15{fill:#FCFCFA;stroke:#FCFCFA;stroke-miterlimit:10;}
	.st16{fill:#E2DDC5;}
	.st17{fill:#F7F7F9;}
	.st18{fill:none;stroke:#000000;stroke-miterlimit:10;}
	.st19{font-family:'NanumGothic';}
	.st20{font-size:30px;}
	.st21{fill:#FEFEFE;}
	.st22{fill:#1EFFA3;stroke:#000000;stroke-miterlimit:10;}
	.st23{fill:none;}
	.st24{font-size:22px;}
	.st25{fill:#F2F2F2;}
	.st26{fill:#666666;}
	.st27{fill:#1B1B1E;}
</style>
<g id="Layer_2_1_">
	<g>
		<path class="st0" d="M633.7,19C662,19,685,42,685,70.3v1337.5c0,28.3-23,51.3-51.3,51.3H70.3c-28.3,0-51.3-23-51.3-51.3V70.3
			C19,42,42,19,70.3,19H633.7 M633.7,12H70.3C38.1,12,12,38.1,12,70.3v1337.5c0,32.1,26.1,58.3,58.3,58.3h563.5
			c32.1,0,58.3-26.1,58.3-58.3V70.3C692,38.1,665.9,12,633.7,12L633.7,12z"/>
	</g>
	<g>
		<path class="st0" d="M633.7,19C662,19,685,42,685,70.3v1337.5c0,28.3-23,51.3-51.3,51.3H70.3c-28.3,0-51.3-23-51.3-51.3V70.3
			C19,42,42,19,70.3,19H633.7 M633.7,12H70.3C38.1,12,12,38.1,12,70.3v1337.5c0,32.1,26.1,58.3,58.3,58.3h563.5
			c32.1,0,58.3-26.1,58.3-58.3V70.3C692,38.1,665.9,12,633.7,12L633.7,12z"/>
	</g>
	<g>
		<path class="st0" d="M633.7,19C662,19,685,42,685,70.3v1337.5c0,28.3-23,51.3-51.3,51.3H70.3c-28.3,0-51.3-23-51.3-51.3V70.3
			C19,42,42,19,70.3,19H633.7 M633.7,12H70.3C38.1,12,12,38.1,12,70.3v1337.5c0,32.1,26.1,58.3,58.3,58.3h563.5
			c32.1,0,58.3-26.1,58.3-58.3V70.3C692,38.1,665.9,12,633.7,12L633.7,12z"/>
	</g>
</g>
<g id="Layer_3">
	<path class="st1" d="M1460.3,572.7"/>
	<g>
		<path class="st0" d="M3167.9,35.4h-563.4c-32.2,0-58.3,26.1-58.3,58.3v1337.5c0,32.1,26.1,58.3,58.3,58.3H3168
			c32.1,0,58.3-26.1,58.3-58.3V93.7C3226.2,61.5,3200.1,35.4,3167.9,35.4L3167.9,35.4z"/>
	</g>
	<rect x="-230.4" y="-965.8" class="st2" width="383.3" height="294.7"/>
	<rect x="192.9" y="-965.8" class="st3" width="383.3" height="294.7"/>
	<rect x="628.3" y="-965.8" class="st4" width="383.3" height="294.7"/>
	<rect x="1051.5" y="-965.8" class="st5" width="383.3" height="294.7"/>
	<g>
		<defs>
			<path id="SVGID_1_" d="M633.7,1452H70.3c-28.3,0-51.3-23-51.3-51.3V63.3C19,35,42,12,70.3,12h563.5C662,12,685,35,685,63.3
				v1337.5C685,1429,662,1452,633.7,1452z"/>
		</defs>
		<clipPath id="SVGID_2_">
			<use xlink:href="#SVGID_1_"  style="overflow:visible;"/>
		</clipPath>
		<g class="st6">
			<path class="st7" d="M485.6,1373.4"/>
			<path class="st7" d="M476.2,1373.4"/>
			<g>
				<text transform="matrix(1 0 0 1 77.3498 1411.1813)" class="st8 st9 st10">옥션</text>
			</g>
			<g>
				<g>
					<text transform="matrix(1 0 0 1 313.0622 1411.6116)" class="st11 st12 st10">마이 뮤카</text>
				</g>
			</g>
			<g>
				<g>
					<text transform="matrix(1 0 0 1 458.7717 1411.6115)" class="st11 st12 st10">추천</text>
				</g>
			</g>
			<g>
				<text transform="matrix(1 0 0 1 575.4948 1411.6118)" class="st11 st12 st10">더보기</text>
			</g>
			<g>
				<ellipse class="st8" cx="583.5" cy="1361.6" rx="2.5" ry="3"/>
				<ellipse class="st8" cx="600.5" cy="1361.6" rx="2.5" ry="3"/>
				<ellipse class="st8" cx="617.5" cy="1361.6" rx="2.5" ry="3"/>
			</g>
			<g>
				<text transform="matrix(1 0 0 1 197.8034 1411.6118)" class="st11 st12 st10">마켓</text>
			</g>
			<g>
				<circle class="st13" cx="209.3" cy="1373.7" r="6.1"/>
				<path class="st14" d="M215.4,1373v-31.4c0,0,20.2,13.8,7,24.5"/>
			</g>
			<g>
				<circle class="st8" cx="348.9" cy="1349.4" r="7.3"/>
				<g>
					<path class="st8" d="M348.9,1359.2c-6.5,0-11.8,7.3-11.8,16.2v5.5h23.6v-5.5C360.8,1366.5,355.4,1359.2,348.9,1359.2"/>
				</g>
			</g>
			<path class="st15" d="M477.8,1374.6h6.5c3.1,0,5.6-2.8,5.6-6.3v-19.5c0-3.5-2.5-6.3-5.6-6.3H467c-3.1,0-5.6,2.8-5.6,6.3v19.5
				c0,3.5,2.5,6.3,5.6,6.3h6.5l2.1,6.7L477.8,1374.6z"/>
			<g>
				<path class="st15" d="M97.4,1366.4h8.3c3.9,0,7.1-2.1,7.1-4.8v-14.8c0-2.6-3.2-4.8-7.1-4.8H83.5c-3.9,0-7.1,2.1-7.1,4.8v14.8
					c0,2.6,3.2,4.8,7.1,4.8h8.3H97.4z"/>
				<rect x="93" y="1366.4" class="st15" width="3.2" height="14.5"/>
			</g>
			<path class="st16" d="M632.9,1459.5H69.5c-28.3,0-51.3-23-51.3-51.3V70.8c0-28.3,23-51.3,51.3-51.3H633c28.2,0,51.2,23,51.2,51.3
				v1337.5C684.2,1436.5,661.2,1459.5,632.9,1459.5z"/>
			<polygon class="st17" points="785.2,1459.5 -79.9,1459.5 -81.2,19.5 785.2,19.5 			"/>
			<polyline class="st18" points="62.5,106.3 49.1,119.7 62.5,133.1 			"/>
			<line class="st18" x1="49.1" y1="119.7" x2="87.7" y2="119.7"/>
			<g>
				<text transform="matrix(1 0 0 1 268.1013 128.5997)" class="st19 st20">이번주 옥션  </text>
			</g>
			<g>
				<path class="st18" d="M588.5,119.1c0,4.2-1.8,7.9-4.6,10.6c-2.6,2.4-6,3.8-9.8,3.8c-7.9,0-14.4-6.4-14.4-14.4
					s6.4-14.4,14.4-14.4S588.5,111.1,588.5,119.1z"/>
				<line class="st18" x1="592.2" y1="138" x2="583.9" y2="129.6"/>
			</g>
			<g>
				<path d="M636.7,105.7L636.7,105.7c0.2,0,0.5,0,0.8,0c5.2,0.4,9.3,4.9,9.3,10.1c0,3-1.9,4.7-4,6.5c-1.9,1.7-3.9,3.4-4.3,6.3H635
					c0.3-3.8,2.4-5.4,4.5-7c1.9-1.4,3.8-2.9,3.8-5.8s-1.9-5.4-4.6-6.2c-0.6-0.2-1.3-0.3-2-0.3c-1.7,0-3.4,0.7-4.6,1.9
					c-1,1-1.6,2.2-1.8,3.6h-3.5C627.2,109.7,631.5,105.7,636.7,105.7 M638.5,134.3v3.5H635v-3.5H638.5 M636.7,104.7
					c-6.1,0-11,4.9-11,11h5.5c0-3,2.5-5.5,5.5-5.5c0.5,0,1.1,0.1,1.7,0.2c2.3,0.7,3.8,2.9,3.9,5.3c0,5.5-8.3,4.8-8.3,13.8h5.5
					c0-6.2,8.2-6.9,8.3-13.7c0.1-5.7-4.5-10.7-10.2-11.1C637.3,104.7,637,104.7,636.7,104.7L636.7,104.7z M639.5,133.3H634v5.5h5.5
					V133.3L639.5,133.3z"/>
			</g>
			<g>
				<path class="st21" d="M41.9,220.4h618.6c13.1,0,23.7,10.6,23.7,23.7v1218.3h-666V244.1C18.2,231,28.8,220.4,41.9,220.4z"/>
			</g>
			<path class="st18" d="M611.6,405.8l35.2-0.3c1.1,0,1.9,1.1,1.9,2.4v50.2c0,2.1-2,3.2-3.2,1.7l-15.4-19.2c-0.5-0.6-1.3-0.6-1.8,0
				l-15.4,19.2c-1.2,1.5-3.2,0.4-3.2-1.7v-50C609.7,406.9,610.5,405.8,611.6,405.8z"/>
			<g>
				<path d="M58.4,440.7c-0.7,0-1.2-0.2-1.6-0.7c-0.4-0.5-0.7-1-0.7-1.7v-30.5c0-0.7,0.2-1.2,0.7-1.7s1-0.7,1.6-0.7
					c0.7,0,1.2,0.2,1.7,0.7s0.7,1,0.7,1.7v28.1h16.3c0.7,0,1.2,0.2,1.7,0.7s0.7,1,0.7,1.7s-0.2,1.2-0.7,1.7s-1,0.7-1.7,0.7
					L58.4,440.7L58.4,440.7z"/>
				<path d="M94.4,440.8c-2.4,0-4.6-0.5-6.4-1.6c-1.9-1.1-3.3-2.5-4.4-4.4s-1.6-4-1.6-6.5s0.5-4.6,1.6-6.5s2.5-3.3,4.4-4.4
					s4-1.6,6.4-1.6s4.5,0.5,6.4,1.6s3.3,2.5,4.4,4.4s1.6,4,1.6,6.5c0,2.4-0.5,4.6-1.6,6.5s-2.5,3.3-4.4,4.4S96.8,440.8,94.4,440.8z
					 M94.4,436.8c1.6,0,2.9-0.4,4.1-1.1s2.1-1.7,2.8-3s1-2.7,1-4.4c0-1.6-0.3-3.1-1-4.4s-1.6-2.3-2.8-3c-1.2-0.7-2.6-1.1-4.1-1.1
					c-1.6,0-2.9,0.4-4.1,1.1s-2.1,1.7-2.8,3c-0.7,1.3-1,2.7-1,4.4c0,1.7,0.3,3.1,1,4.4s1.6,2.2,2.8,3
					C91.4,436.4,92.8,436.8,94.4,436.8z"/>
				<path d="M119.2,440.6c-0.9,0-1.7-0.5-2.2-1.5l-9.5-20.1c-0.2-0.5-0.3-1-0.1-1.5c0.2-0.5,0.6-0.9,1.1-1.1c0.5-0.3,1-0.3,1.6-0.1
					c0.5,0.2,0.9,0.5,1.2,1l8.9,19.2H118l8.8-19.2c0.3-0.5,0.7-0.9,1.2-1c0.6-0.2,1.1-0.1,1.7,0.1c0.5,0.2,0.9,0.6,1.1,1.1
					c0.2,0.5,0.1,1-0.1,1.5l-9.5,20.1C120.8,440.1,120.1,440.6,119.2,440.6z"/>
				<path d="M144.8,440.8c-2.5,0-4.7-0.5-6.6-1.6c-1.9-1.1-3.5-2.5-4.5-4.4c-1.1-1.9-1.6-4-1.6-6.5s0.5-4.6,1.6-6.5s2.5-3.3,4.3-4.4
					s3.9-1.6,6.3-1.6c2.3,0,4.3,0.5,6,1.6c1.7,1,3,2.5,3.8,4.3c0.9,1.8,1.3,3.9,1.3,6.3c0,0.6-0.2,1-0.6,1.4s-0.9,0.6-1.5,0.6h-18.1
					v-3.6h18l-1.8,1.3c0-1.5-0.3-2.8-0.9-4c-0.6-1.2-1.4-2.1-2.4-2.8s-2.3-1-3.8-1c-1.7,0-3.2,0.4-4.4,1.1s-2.1,1.8-2.8,3.1
					c-0.6,1.3-0.9,2.8-0.9,4.4c0,1.7,0.4,3.1,1.1,4.4c0.8,1.3,1.8,2.3,3.1,3.1c1.3,0.8,2.8,1.1,4.5,1.1c0.9,0,1.9-0.2,2.9-0.5
					s1.8-0.7,2.4-1.2c0.5-0.3,0.9-0.5,1.5-0.5c0.5,0,1,0.1,1.4,0.5c0.5,0.5,0.8,0.9,0.8,1.5c0,0.5-0.2,1-0.7,1.4
					c-1,0.8-2.3,1.5-3.8,2C147.7,440.6,146.2,440.8,144.8,440.8z"/>
				<path d="M174.5,440.7c-0.7,0-1.2-0.2-1.7-0.7s-0.7-1-0.7-1.7v-30.5c0-0.7,0.2-1.3,0.7-1.7s1-0.7,1.7-0.7h8.1
					c2.6,0,4.9,0.4,7,1.3s4,2.1,5.5,3.6c1.6,1.6,2.8,3.4,3.6,5.6c0.8,2.1,1.3,4.5,1.3,7.1s-0.4,4.9-1.3,7.1c-0.8,2.1-2,4-3.6,5.6
					s-3.4,2.8-5.5,3.6c-2.1,0.9-4.5,1.3-7,1.3h-8.1V440.7z M176.8,436.5h5.8c2.5,0,4.7-0.6,6.7-1.7c1.9-1.2,3.5-2.7,4.6-4.8
					c1.1-2,1.7-4.3,1.7-7c0-2.6-0.6-5-1.7-7c-1.1-2-2.6-3.6-4.6-4.7c-1.9-1.1-4.2-1.7-6.7-1.7h-5.8V436.5z"/>
				<path d="M208.3,412c-0.8,0-1.5-0.3-2.1-0.9s-0.9-1.3-0.9-2.1c0-0.8,0.3-1.5,0.9-2.1s1.3-0.9,2.1-0.9s1.5,0.3,2.1,0.9
					s0.9,1.3,0.9,2.1c0,0.8-0.3,1.5-0.9,2.1S209.2,412,208.3,412z M208.3,440.7c-0.7,0-1.2-0.2-1.6-0.7c-0.4-0.4-0.7-1-0.7-1.6v-20
					c0-0.7,0.2-1.2,0.7-1.7c0.4-0.4,1-0.6,1.6-0.6c0.7,0,1.2,0.2,1.7,0.6c0.4,0.4,0.6,1,0.6,1.7v20c0,0.7-0.2,1.2-0.6,1.6
					S209,440.7,208.3,440.7z"/>
				<path d="M226.2,440.6c-0.9,0-1.7-0.5-2.2-1.5l-9.5-20.1c-0.2-0.5-0.3-1-0.1-1.5s0.6-0.9,1.1-1.1c0.5-0.3,1-0.3,1.6-0.1
					c0.5,0.2,0.9,0.5,1.2,1l8.9,19.2H225l8.8-19.2c0.3-0.5,0.7-0.9,1.2-1c0.6-0.2,1.1-0.1,1.7,0.1c0.5,0.2,0.9,0.6,1.1,1.1
					c0.2,0.5,0.1,1-0.1,1.5l-9.5,20.1C227.8,440.1,227.1,440.6,226.2,440.6z"/>
				<path d="M251.8,440.8c-2.5,0-4.7-0.5-6.6-1.6c-1.9-1.1-3.5-2.5-4.5-4.4c-1.1-1.9-1.6-4-1.6-6.5s0.5-4.6,1.6-6.5s2.5-3.3,4.3-4.4
					s3.9-1.6,6.3-1.6c2.3,0,4.3,0.5,6,1.6c1.7,1,3,2.5,3.8,4.3c0.9,1.8,1.3,3.9,1.3,6.3c0,0.6-0.2,1-0.6,1.4s-0.9,0.6-1.5,0.6h-18.1
					v-3.6h18l-1.8,1.3c0-1.5-0.3-2.8-0.9-4s-1.4-2.1-2.4-2.8s-2.3-1-3.8-1c-1.7,0-3.2,0.4-4.4,1.1s-2.1,1.8-2.8,3.1
					c-0.6,1.3-0.9,2.8-0.9,4.4c0,1.7,0.4,3.1,1.1,4.4c0.8,1.3,1.8,2.3,3.1,3.1c1.3,0.8,2.8,1.1,4.5,1.1c0.9,0,1.9-0.2,2.9-0.5
					s1.8-0.7,2.4-1.2c0.5-0.3,0.9-0.5,1.5-0.5c0.5,0,1,0.1,1.4,0.5c0.5,0.5,0.8,0.9,0.8,1.5c0,0.5-0.2,1-0.7,1.4
					c-1,0.8-2.3,1.5-3.8,2C254.6,440.6,253.2,440.8,251.8,440.8z"/>
				<path d="M66.8,468.1c0,1-0.1,2.1-0.4,3.1c-0.2,1-0.6,2-1.2,2.8c-0.5,0.8-1.2,1.5-2,2.1c-0.8,0.5-1.8,0.8-3,0.8s-2.2-0.3-3.1-0.8
					c-0.8-0.5-1.5-1.2-2-2.1s-0.9-1.8-1.1-2.8s-0.3-2.1-0.3-3.1c0-1.1,0.1-2.1,0.3-3.2s0.6-2,1.1-2.8s1.2-1.5,2-2s1.9-0.8,3.1-0.8
					c1.2,0,2.2,0.3,3,0.8c0.8,0.5,1.5,1.2,2,2s0.9,1.8,1.2,2.8C66.7,466,66.8,467,66.8,468.1z M64.8,468.1c0-0.8-0.1-1.7-0.3-2.5
					c-0.2-0.8-0.4-1.6-0.8-2.3c-0.4-0.7-0.8-1.2-1.4-1.7c-0.6-0.4-1.3-0.6-2.1-0.6c-0.9,0-1.6,0.2-2.2,0.6c-0.6,0.4-1,1-1.4,1.7
					c-0.3,0.7-0.6,1.4-0.7,2.3c-0.1,0.8-0.2,1.7-0.2,2.5s0.1,1.6,0.2,2.4c0.1,0.8,0.4,1.6,0.7,2.3c0.3,0.7,0.8,1.3,1.4,1.7
					c0.6,0.4,1.3,0.7,2.2,0.7c0.8,0,1.6-0.2,2.1-0.7c0.6-0.4,1.1-1,1.4-1.7c0.4-0.7,0.6-1.5,0.8-2.3
					C64.8,469.7,64.8,468.9,64.8,468.1z M72.4,483h-1.1c-0.3,0-0.4-0.1-0.4-0.4V458c0-0.3,0.1-0.4,0.4-0.4h1.1
					c0.3,0,0.4,0.1,0.4,0.4v10h3.8c0.1,0,0.2,0,0.3,0.1s0.1,0.2,0.1,0.3v0.9c0,0.1,0,0.2-0.1,0.2c-0.1,0.1-0.2,0.1-0.3,0.1h-3.8
					v12.9C72.8,482.9,72.7,483,72.4,483z"/>
				<path d="M93.2,468.1c0,1-0.1,2.1-0.4,3.1c-0.2,1-0.6,2-1.2,2.8c-0.5,0.8-1.2,1.5-2,2.1c-0.8,0.5-1.8,0.8-3,0.8s-2.2-0.3-3.1-0.8
					c-0.8-0.5-1.5-1.2-2-2.1s-0.9-1.8-1.1-2.8s-0.3-2.1-0.3-3.1c0-1.1,0.1-2.1,0.3-3.2s0.6-2,1.1-2.8s1.2-1.5,2-2s1.9-0.8,3.1-0.8
					s2.2,0.3,3,0.8s1.5,1.2,2,2s0.9,1.8,1.2,2.8C93,466,93.2,467,93.2,468.1z M91.2,468.1c0-0.8-0.1-1.7-0.3-2.6s-0.4-1.6-0.8-2.3
					c-0.4-0.7-0.8-1.2-1.4-1.7s-1.3-0.6-2.1-0.6c-0.9,0-1.6,0.2-2.2,0.6s-1,1-1.4,1.7s-0.6,1.5-0.7,2.3c-0.1,0.9-0.2,1.7-0.2,2.6
					c0,0.8,0.1,1.6,0.2,2.5s0.4,1.6,0.7,2.3c0.3,0.7,0.8,1.3,1.4,1.7c0.6,0.4,1.3,0.7,2.2,0.7c0.8,0,1.6-0.2,2.1-0.7s1.1-1,1.4-1.7
					c0.4-0.7,0.6-1.5,0.8-2.3C91.1,469.7,91.2,468.9,91.2,468.1z M99.2,483h-1.1c-0.3,0-0.4-0.1-0.4-0.4V458c0-0.3,0.1-0.4,0.4-0.4
					h1.1c0.3,0,0.4,0.1,0.4,0.4v24.6C99.6,482.9,99.5,483,99.2,483z"/>
				<path d="M128.2,477.1c0.1,0.1,0.1,0.2,0.1,0.3v0.9c0,0.1,0,0.2-0.1,0.2c-0.1,0.1-0.2,0.1-0.3,0.1h-23.4c-0.1,0-0.2,0-0.3-0.1
					c-0.1-0.1-0.1-0.2-0.1-0.2v-0.9c0-0.1,0-0.2,0.1-0.3c0.1-0.1,0.2-0.1,0.3-0.1h23.4C128,477,128.1,477,128.2,477.1z M109.7,471.6
					c-0.4,0-0.8,0-1.1-0.1s-0.5-0.2-0.6-0.3c-0.1-0.2-0.2-0.4-0.3-0.6s-0.1-0.6-0.1-0.9v-10.6c0-0.1,0-0.2,0.1-0.2s0.2-0.1,0.2-0.1
					h1.2c0.1,0,0.2,0,0.2,0.1c0.1,0.1,0.1,0.1,0.1,0.2v4.5h13.2v-4.5c0-0.1,0-0.2,0.1-0.2c0.1-0.1,0.1-0.1,0.2-0.1h1.2
					c0.1,0,0.2,0,0.2,0.1c0.1,0.1,0.1,0.1,0.1,0.2v10.8c0,0.7-0.1,1.2-0.4,1.4c-0.3,0.2-0.8,0.4-1.7,0.4L109.7,471.6L109.7,471.6z
					 M109.6,465.2v4.1c0,0.3,0,0.5,0.1,0.5s0.3,0.1,0.5,0.1h11.9c0.3,0,0.4,0,0.5-0.1s0.1-0.3,0.1-0.5v-4.1H109.6z"/>
				<path d="M142.6,485.6c-0.3,0-0.5-0.1-0.8-0.2s-0.4-0.4-0.6-0.7c-1-2.2-1.8-4.4-2.3-6.5s-0.8-4.3-0.8-6.5s0.3-4.4,0.8-6.5
					c0.5-2.2,1.3-4.3,2.3-6.4c0.3-0.6,0.7-1,1.3-1c0.4,0,0.7,0.1,1,0.4s0.4,0.6,0.4,1c0,0.3-0.1,0.5-0.2,0.7
					c-1.9,3.9-2.9,7.8-2.9,11.8c0,1.9,0.3,3.9,0.8,5.9s1.2,4,2.2,5.9c0.1,0.2,0.2,0.4,0.2,0.7c0,0.4-0.1,0.7-0.4,1
					S143,485.6,142.6,485.6z"/>
				<path d="M148.9,479.2c-0.4,0-0.7-0.1-1-0.4s-0.4-0.6-0.4-1v-18.6c0-0.4,0.1-0.8,0.4-1c0.3-0.3,0.6-0.4,1-0.4s0.8,0.1,1,0.4
					c0.3,0.3,0.4,0.6,0.4,1v18.6c0,0.4-0.1,0.7-0.4,1C149.7,479,149.3,479.2,148.9,479.2z"/>
				<path d="M163.2,479.2c-0.6,0-1-0.3-1.3-0.9l-8.1-18.4c-0.3-0.6-0.3-1.1-0.1-1.5s0.6-0.6,1.2-0.6c0.6,0,1.1,0.3,1.3,0.9l7.1,17
					H163l7.2-17c0.1-0.3,0.3-0.6,0.5-0.7s0.5-0.2,0.8-0.2c0.5,0,0.9,0.2,1.1,0.6c0.2,0.4,0.2,0.8,0,1.3l-8.1,18.7
					c-0.1,0.3-0.3,0.5-0.5,0.7C163.8,479.1,163.5,479.2,163.2,479.2z"/>
				<path d="M177.5,479.2c-0.4,0-0.7-0.1-1-0.4s-0.4-0.6-0.4-1v-18.6c0-0.4,0.1-0.8,0.4-1c0.3-0.3,0.6-0.4,1-0.4h12.4
					c0.4,0,0.8,0.1,1,0.4c0.3,0.2,0.4,0.6,0.4,1s-0.1,0.7-0.4,0.9c-0.3,0.2-0.6,0.4-1,0.4h-11v6.7h7.9c0.4,0,0.8,0.1,1,0.4
					c0.3,0.2,0.4,0.6,0.4,0.9s-0.1,0.7-0.4,0.9c-0.3,0.2-0.6,0.4-1,0.4h-7.9v6.9h11c0.4,0,0.8,0.1,1,0.4c0.3,0.2,0.4,0.5,0.4,0.9
					s-0.1,0.7-0.4,1c-0.3,0.2-0.6,0.4-1,0.4h-12.4V479.2z"/>
				<path d="M194.7,485.6c-0.4,0-0.7-0.1-1-0.4s-0.4-0.6-0.4-1c0-0.2,0.1-0.5,0.2-0.7c0.9-1.9,1.7-3.9,2.2-5.9s0.8-4,0.8-5.9
					c0-3.9-1-7.9-2.9-11.8c-0.1-0.2-0.2-0.4-0.2-0.7c0-0.4,0.1-0.7,0.4-1s0.6-0.4,1-0.4c0.6,0,1,0.3,1.3,1c1,2.1,1.8,4.3,2.3,6.4
					c0.5,2.2,0.8,4.3,0.8,6.5s-0.3,4.4-0.8,6.5c-0.5,2.2-1.3,4.3-2.3,6.5c-0.2,0.3-0.4,0.6-0.6,0.7
					C195.3,485.5,195,485.6,194.7,485.6z"/>
			</g>
			<g>
				<g>
					<g>
						
							<image style="overflow:visible;opacity:0.1;enable-background:new    ;" width="316" height="139" xlink:href="19CA7DB437D85202.png"  transform="matrix(1 0 0 1 41.25 1100.5)">
						</image>
						<g>
							<path class="st11" d="M284.8,1220.4H107.9c-29.5,0-53.4-23.9-53.4-53.4l0,0c0-29.5,23.9-53.4,53.4-53.4h176.9
								c29.5,0,53.4,23.9,53.4,53.4l0,0C338.2,1196.5,314.3,1220.4,284.8,1220.4z"/>
							<path class="st18" d="M284.8,1220.4H107.9c-29.5,0-53.4-23.9-53.4-53.4l0,0c0-29.5,23.9-53.4,53.4-53.4h176.9
								c29.5,0,53.4,23.9,53.4,53.4l0,0C338.2,1196.5,314.3,1220.4,284.8,1220.4z"/>
						</g>
					</g>
					<g>
						<path d="M179.3,1167.1c0.1,0.1,0.2,0.2,0.2,0.3v1.1c0,0.1-0.1,0.2-0.2,0.3c-0.1,0.1-0.2,0.1-0.3,0.1h-28.4
							c-0.1,0-0.2,0-0.3-0.1s-0.2-0.2-0.2-0.3v-1.1c0-0.1,0-0.2,0.2-0.3c0.1-0.1,0.2-0.1,0.3-0.1h13v-4c-1,0-2-0.2-3.1-0.4
							c-1.1-0.2-2.1-0.5-3-1c-0.9-0.4-1.6-1-2.2-1.7c-0.6-0.7-0.9-1.5-0.9-2.5c0-1.1,0.4-2,1.1-2.7c0.7-0.7,1.6-1.3,2.6-1.7
							s2.2-0.7,3.4-0.9c1.2-0.2,2.3-0.3,3.4-0.3c1,0,2.2,0.1,3.4,0.3c1.2,0.2,2.3,0.5,3.4,1c1,0.4,1.9,1,2.6,1.7
							c0.7,0.7,1,1.6,1,2.6c0,0.9-0.3,1.8-0.9,2.4c-0.6,0.7-1.3,1.2-2.2,1.7c-0.9,0.4-1.9,0.8-3,1s-2.1,0.4-3.2,0.4v4h13.1
							C179.1,1167,179.2,1167,179.3,1167.1z M154.2,1172.3c0.1-0.1,0.2-0.1,0.3-0.1h17.7c1,0,1.7,0.2,2.1,0.6c0.3,0.4,0.5,1,0.5,1.9
							v7.3c0,0.3-0.2,0.5-0.5,0.5h-1.4c-0.3,0-0.5-0.2-0.5-0.5v-7.1c0-0.3-0.1-0.5-0.2-0.6c-0.1-0.1-0.3-0.1-0.6-0.1h-17.2
							c-0.1,0-0.2,0-0.3-0.1s-0.2-0.2-0.2-0.3v-1.2C154,1172.4,154.1,1172.3,154.2,1172.3z M164.8,1153.9c-0.7,0-1.5,0-2.4,0.1
							s-1.8,0.3-2.6,0.5s-1.5,0.6-2.1,1.1s-0.9,1.1-0.9,1.8c0,0.7,0.3,1.3,0.9,1.8c0.6,0.5,1.3,0.8,2.1,1.1c0.8,0.3,1.7,0.4,2.6,0.5
							c0.9,0.1,1.7,0.1,2.4,0.1s1.5,0,2.4-0.1s1.8-0.3,2.6-0.5c0.8-0.3,1.5-0.6,2.1-1.1s0.9-1.1,0.9-1.8c0-0.7-0.3-1.3-0.9-1.8
							c-0.6-0.5-1.3-0.8-2.1-1.1s-1.7-0.4-2.6-0.5C166.2,1154,165.4,1153.9,164.8,1153.9z"/>
						<path d="M192.9,1153.2c0,2.1-0.3,4.1-0.8,5.8c0.3,0.8,0.6,1.7,1.1,2.5s1,1.6,1.6,2.4s1.3,1.4,2,2s1.4,1.1,2.2,1.5
							c0.1,0.1,0.2,0.2,0.2,0.3s0,0.2-0.1,0.3l-0.7,1.1c-0.1,0.1-0.2,0.2-0.3,0.2s-0.2,0-0.4-0.1c-0.6-0.3-1.2-0.7-1.8-1.3
							c-0.6-0.5-1.2-1.1-1.8-1.8c-0.6-0.7-1.1-1.4-1.7-2.1c-0.5-0.7-1-1.4-1.4-2.1c-1.6,3.3-3.9,5.9-7,7.9c-0.1,0.1-0.2,0.1-0.4,0.1
							c-0.1,0-0.2,0-0.3-0.1l-0.8-1.1c-0.1-0.1-0.1-0.2,0-0.3s0.1-0.2,0.2-0.3c1.2-0.7,2.3-1.6,3.3-2.7s1.8-2.3,2.5-3.6
							c0.7-1.3,1.2-2.7,1.6-4.2c0.4-1.5,0.5-3,0.5-4.5c0-0.4,0.1-0.5,0.4-0.5l1.6,0.1C192.8,1152.7,192.9,1152.8,192.9,1153.2z
							 M208.2,1181.4c-0.1,0.1-0.2,0.1-0.3,0.1h-16.7c-1,0-1.7-0.2-2.1-0.6s-0.5-1-0.5-1.9v-6.5c0-0.3,0.2-0.5,0.5-0.5h1.4
							c0.3,0,0.5,0.2,0.5,0.5v6.3c0,0.3,0.1,0.5,0.2,0.6c0.1,0.1,0.3,0.1,0.6,0.1H208c0.1,0,0.2,0,0.3,0.1s0.2,0.2,0.2,0.3v1.2
							C208.3,1181.2,208.3,1181.3,208.2,1181.4z M205,1157.3v-5.2c0-0.3,0.2-0.5,0.5-0.5h1.4c0.3,0,0.5,0.2,0.5,0.5v21.1
							c0,0.3-0.2,0.5-0.5,0.5h-1.4c-0.3,0-0.5-0.2-0.5-0.5v-8.1h-6.8c-0.3,0-0.4-0.1-0.4-0.4v-1.2c0-0.3,0.1-0.4,0.4-0.4h6.8v-3.9
							h-6.8c-0.3,0-0.4-0.1-0.4-0.4v-1.2c0-0.3,0.1-0.4,0.4-0.4L205,1157.3L205,1157.3z"/>
						<path d="M228.8,1156.5c-0.1,1.9-0.5,3.8-1.1,5.6s-1.5,3.6-2.7,5.2c-1.1,1.7-2.5,3.2-4.1,4.6s-3.4,2.7-5.5,3.7
							c-0.3,0.2-0.5,0.1-0.6-0.1l-0.7-1.2c-0.2-0.3-0.1-0.5,0.1-0.6c1.9-1,3.6-2.1,5-3.3c1.5-1.2,2.7-2.6,3.7-4s1.9-3,2.5-4.6
							s1-3.3,1.1-5c0-0.3,0-0.6-0.1-0.7s-0.4-0.2-0.7-0.2h-10.4c-0.3,0-0.4-0.1-0.4-0.4v-1.2c0-0.3,0.1-0.4,0.4-0.4h11
							c1,0,1.7,0.2,2.1,0.6C228.7,1155.1,228.8,1155.7,228.8,1156.5z M237.1,1182.1h-1.4c-0.3,0-0.5-0.2-0.5-0.5v-29.5
							c0-0.3,0.2-0.5,0.5-0.5h1.4c0.3,0,0.5,0.2,0.5,0.5v11.7h4.6c0.1,0,0.2,0,0.4,0.1c0.1,0.1,0.1,0.2,0.1,0.3v1.1
							c0,0.1,0,0.2-0.1,0.3c-0.1,0.1-0.2,0.1-0.4,0.1h-4.6v15.8C237.6,1181.9,237.4,1182.1,237.1,1182.1z"/>
					</g>
				</g>
				<g>
					<g>
						
							<image style="overflow:visible;opacity:0.1;enable-background:new    ;" width="316" height="139" xlink:href="19CA7DB437D85203.png"  transform="matrix(1 0 0 1 351.25 1100.5)">
						</image>
						<g>
							<path class="st11" d="M594.5,1220.4H417.6c-29.5,0-53.4-23.9-53.4-53.4l0,0c0-29.5,23.9-53.4,53.4-53.4h176.9
								c29.5,0,53.4,23.9,53.4,53.4l0,0C647.9,1196.5,624,1220.4,594.5,1220.4z"/>
							<path class="st18" d="M594.5,1220.4H417.6c-29.5,0-53.4-23.9-53.4-53.4l0,0c0-29.5,23.9-53.4,53.4-53.4h176.9
								c29.5,0,53.4,23.9,53.4,53.4l0,0C647.9,1196.5,624,1220.4,594.5,1220.4z"/>
						</g>
					</g>
					<g>
						<path d="M448.4,1173.1c-0.1,0.1-0.2,0.2-0.3,0.2c-0.1,0-0.2,0-0.4-0.2c-0.5-0.4-1.1-0.9-1.7-1.4s-1.2-1.1-1.8-1.6
							s-1.1-1.2-1.7-1.8s-1.1-1.2-1.5-1.9c-1.1,1.4-2.4,2.7-3.8,4s-3.1,2.5-4.9,3.8c-0.1,0.1-0.2,0.1-0.3,0.1s-0.2,0-0.3-0.1l-0.8-1
							c-0.1-0.1-0.1-0.2-0.1-0.3c0-0.1,0.1-0.2,0.2-0.3c3.6-2.5,6.3-5,8.3-7.6s3.4-5.2,4.2-8c0.1-0.3,0.1-0.5,0-0.7
							c-0.1-0.1-0.3-0.2-0.6-0.2h-10.1c-0.3,0-0.4-0.1-0.4-0.4v-1.2c0-0.3,0.2-0.4,0.5-0.4h11c1.2,0,1.9,0.2,2.2,0.6
							c0.3,0.4,0.3,1.1,0,2.1c-0.9,2.8-2.1,5.4-3.7,7.8c0.5,0.7,1.1,1.4,1.6,2.1c0.6,0.7,1.2,1.3,1.7,1.9c0.6,0.6,1.2,1.2,1.7,1.6
							c0.6,0.5,1.1,0.9,1.6,1.2c0.1,0.1,0.2,0.2,0.2,0.3s0,0.2-0.1,0.3L448.4,1173.1z M455.2,1182.2h-1.4c-0.3,0-0.5-0.2-0.5-0.5
							v-17.2H447c-0.3,0-0.4-0.1-0.4-0.4v-1.2c0-0.3,0.1-0.4,0.4-0.4h6.3v-10.3c0-0.3,0.2-0.5,0.5-0.5h1.4c0.3,0,0.5,0.2,0.5,0.5
							v29.5C455.6,1182,455.5,1182.2,455.2,1182.2z"/>
						<path d="M477.2,1156.1c-0.3,0.9-0.7,1.7-1.3,2.6c-0.5,0.9-1.2,1.7-1.9,2.5c0.8,0.8,1.7,1.6,2.9,2.3c1.1,0.7,2.4,1.4,3.7,1.9
							c0.1,0.1,0.2,0.2,0.2,0.3c0,0.1,0,0.2-0.1,0.3l-0.7,1.2c-0.1,0.1-0.1,0.2-0.2,0.2s-0.2,0-0.4-0.1c-0.5-0.2-1-0.5-1.6-0.8
							s-1.2-0.7-1.8-1.1c-0.6-0.4-1.2-0.8-1.8-1.3c-0.6-0.5-1.1-0.9-1.7-1.5c-1.3,1.3-2.7,2.4-4.3,3.4s-3.1,1.9-4.7,2.6
							c-0.1,0-0.2,0.1-0.3,0.1s-0.2,0-0.3-0.1l-0.7-1.2c-0.1-0.1-0.1-0.2,0-0.3s0.1-0.2,0.3-0.2c2.9-1.4,5.3-2.9,7.3-4.7
							c2-1.8,3.6-3.8,4.7-6.1c0.2-0.3,0.2-0.5,0.1-0.7c-0.1-0.1-0.3-0.2-0.6-0.2h-9.8c-0.3,0-0.4-0.1-0.4-0.4v-1.2
							c0-0.3,0.2-0.4,0.5-0.4H475c1.2,0,1.9,0.2,2.2,0.6S477.5,1155.1,477.2,1156.1z M466.6,1171.4c0.1-0.1,0.2-0.1,0.3-0.1h16.4
							c0.5,0,1,0,1.3,0.1s0.6,0.2,0.8,0.4c0.2,0.2,0.3,0.4,0.4,0.8c0.1,0.3,0.1,0.7,0.1,1.3v8.1c0,0.3-0.2,0.5-0.5,0.5H484
							c-0.3,0-0.5-0.2-0.5-0.5v-7.9c0-0.3,0-0.5-0.2-0.6c-0.1-0.1-0.3-0.1-0.6-0.1h-15.9c-0.1,0-0.2,0-0.3-0.1s-0.2-0.2-0.2-0.3
							v-1.2C466.4,1171.5,466.5,1171.4,466.6,1171.4z M485.4,1169.4H484c-0.3,0-0.5-0.2-0.5-0.5v-16.7c0-0.3,0.2-0.5,0.5-0.5h1.4
							c0.3,0,0.5,0.2,0.5,0.5v7.9h4.6c0.1,0,0.3,0,0.4,0.1s0.1,0.2,0.1,0.3v1.1c0,0.1,0,0.2-0.1,0.3c-0.1,0.1-0.2,0.1-0.4,0.1h-4.6
							v6.9C485.9,1169.2,485.7,1169.4,485.4,1169.4z"/>
						<path d="M495.8,1153.9c0.1-0.1,0.2-0.1,0.3-0.1h11.5c0.5,0,1,0.1,1.3,0.2s0.6,0.3,0.8,0.5c0.2,0.2,0.3,0.5,0.4,0.8
							s0.1,0.7,0.1,1.2c0,0.6,0,1.2,0,1.9c0,0.7-0.1,1.4-0.2,2.1s-0.2,1.4-0.3,2.1c-0.1,0.7-0.2,1.3-0.4,1.9
							c0.9-0.1,1.8-0.2,2.6-0.3c0.8-0.1,1.5-0.2,2.1-0.3c0.3-0.1,0.5,0,0.5,0.3l0.2,1.1c0,0.3-0.1,0.4-0.4,0.5
							c-1.4,0.2-3,0.5-4.8,0.7s-3.5,0.4-5.2,0.5v6.6c0,0.1,0,0.2-0.1,0.3c-0.1,0.1-0.2,0.1-0.3,0.1h-1.4c-0.1,0-0.2,0-0.3-0.1
							s-0.1-0.2-0.1-0.3v-6.5c-0.7,0-1.4,0.1-2.2,0.1c-0.8,0-1.5,0-2.3,0.1c-0.7,0-1.4,0-2.1,0s-1.2,0-1.7,0c-0.1,0-0.3,0-0.4-0.1
							s-0.2-0.2-0.2-0.3v-1.1c0-0.1,0.1-0.2,0.2-0.3c0.1-0.1,0.2-0.1,0.4-0.1c0.6,0,1.4,0,2.3,0s1.8,0,2.7,0c0.9,0,1.8,0,2.7-0.1
							s1.6-0.1,2.2-0.1c0.5,0,1.1-0.1,1.6-0.1c0.6,0,1.2-0.1,1.8-0.1c0.1-0.5,0.3-1.2,0.4-1.9c0.1-0.7,0.3-1.5,0.4-2.2
							s0.2-1.5,0.2-2.2s0.1-1.3,0-1.8c0-0.3-0.1-0.5-0.2-0.6s-0.3-0.1-0.6-0.1h-11c-0.1,0-0.2,0-0.3-0.1s-0.2-0.2-0.2-0.3v-1.2
							C495.7,1154,495.7,1153.9,495.8,1153.9z M519.1,1181.5c-0.1,0.1-0.2,0.1-0.3,0.1h-18.2c-1,0-1.7-0.2-2.1-0.6
							c-0.3-0.4-0.5-1-0.5-1.9v-4.8c0-0.3,0.2-0.5,0.5-0.5h1.4c0.3,0,0.5,0.2,0.5,0.5v4.7c0,0.3,0,0.5,0.2,0.6s0.3,0.1,0.6,0.1h17.6
							c0.1,0,0.2,0,0.3,0.1s0.2,0.2,0.2,0.3v1.2C519.2,1181.3,519.2,1181.4,519.1,1181.5z M516.1,1168.9v-16.7
							c0-0.3,0.2-0.5,0.5-0.5h1.4c0.3,0,0.5,0.2,0.5,0.5v22.8c0,0.3-0.2,0.5-0.5,0.5h-1.4c-0.3,0-0.5-0.2-0.5-0.5v-4.1h-6.7
							c-0.3,0-0.4-0.1-0.4-0.4v-1.2c0-0.3,0.1-0.4,0.4-0.4L516.1,1168.9L516.1,1168.9z"/>
						<path d="M537.9,1182c-0.1,0-0.2,0-0.3-0.1s-0.1-0.2-0.1-0.3v-10.8h-13c-0.1,0-0.2,0-0.4-0.1s-0.2-0.2-0.2-0.3v-1.1
							c0-0.1,0-0.2,0.2-0.3s0.2-0.1,0.4-0.1H553c0.1,0,0.2,0,0.3,0.1s0.2,0.2,0.2,0.3v1.1c0,0.1-0.1,0.2-0.2,0.3
							c-0.1,0.1-0.2,0.1-0.3,0.1h-13.1v10.8c0,0.1,0,0.2-0.1,0.3s-0.2,0.1-0.3,0.1H537.9z M539.8,1152.5c0,0.3-0.1,0.6-0.2,0.8
							c-0.1,0.3-0.1,0.5-0.2,0.8c0.1,0.2,0.1,0.5,0.2,0.7c0.1,0.2,0.2,0.4,0.3,0.6c0.4,0.7,0.9,1.5,1.7,2.2c0.7,0.7,1.6,1.4,2.5,2.1
							c1,0.6,2,1.2,3.1,1.7s2.3,0.9,3.4,1.2c0.1,0,0.2,0.1,0.3,0.3s0,0.3,0,0.4l-0.5,1.1c-0.1,0.1-0.1,0.2-0.2,0.2
							c-0.1,0-0.2,0-0.5,0c-1.2-0.3-2.3-0.7-3.5-1.3c-1.2-0.5-2.2-1.2-3.2-1.9c-1-0.7-1.9-1.5-2.7-2.3s-1.5-1.6-2-2.5
							c-1,1.7-2.3,3.3-4.1,4.6s-4,2.6-6.7,3.6c-0.4,0.1-0.6,0.1-0.7-0.1l-0.6-1.2c0-0.1,0-0.2,0-0.4s0.1-0.2,0.3-0.3
							c1.4-0.5,2.8-1.1,4.1-1.9s2.5-1.7,3.5-2.7s1.8-2,2.4-3c0.6-1.1,1-2.1,1-3.1c0-0.3,0.2-0.4,0.4-0.4l1.5,0.2
							c0.1,0,0.2,0.1,0.3,0.1C539.8,1152.2,539.9,1152.3,539.8,1152.5z"/>
						<path d="M573.1,1160.5c0,1.1-0.2,2.1-0.6,3c-0.4,0.9-1,1.7-1.7,2.4s-1.6,1.2-2.5,1.6c-1,0.4-2,0.6-3.2,0.6
							c-1.1,0-2.1-0.2-3.1-0.5c-1-0.4-1.8-0.9-2.5-1.5s-1.3-1.5-1.7-2.4s-0.6-1.9-0.6-3c0-1.2,0.2-2.2,0.6-3.2
							c0.4-0.9,1-1.7,1.7-2.4c0.7-0.6,1.5-1.1,2.5-1.5c1-0.3,2-0.5,3.1-0.5c1,0,2,0.2,3,0.5s1.8,0.8,2.5,1.5
							c0.7,0.6,1.3,1.4,1.8,2.4C572.8,1158.3,573.1,1159.4,573.1,1160.5z M570.7,1160.5c0-0.9-0.2-1.7-0.5-2.3s-0.7-1.2-1.2-1.7
							s-1.1-0.8-1.8-1s-1.4-0.3-2.2-0.3s-1.5,0.1-2.2,0.3c-0.7,0.2-1.2,0.6-1.7,1s-0.9,1-1.2,1.7s-0.4,1.4-0.4,2.3
							c0,0.8,0.1,1.6,0.4,2.2s0.6,1.2,1.1,1.7s1.1,0.9,1.7,1.1c0.7,0.3,1.4,0.4,2.2,0.4s1.5-0.1,2.2-0.4s1.3-0.6,1.8-1.1
							s0.9-1.1,1.2-1.7S570.7,1161.4,570.7,1160.5z M561.9,1171.2c0.1-0.1,0.2-0.1,0.3-0.1h16.4c1,0,1.7,0.2,2.1,0.6s0.5,1,0.5,1.9
							v8.2c0,0.3-0.2,0.5-0.5,0.5h-1.4c-0.3,0-0.5-0.2-0.5-0.5v-8c0-0.3,0-0.5-0.2-0.6c-0.1-0.1-0.3-0.1-0.6-0.1h-15.9
							c-0.1,0-0.2,0-0.3-0.1s-0.2-0.2-0.2-0.3v-1.2C561.8,1171.4,561.8,1171.3,561.9,1171.2z M580.8,1169.2h-1.4
							c-0.3,0-0.5-0.2-0.5-0.5v-16.6c0-0.3,0.2-0.5,0.5-0.5h1.4c0.3,0,0.5,0.2,0.5,0.5v16.6C581.2,1169.1,581.1,1169.2,580.8,1169.2
							z"/>
					</g>
				</g>
				<g>
					<g>
						
							<image style="overflow:visible;opacity:0.1;enable-background:new    ;" width="626" height="139" xlink:href="19CA7DB437D85204.png"  transform="matrix(1 0 0 1 41.25 1234.5)">
						</image>
						<g>
							<path class="st3" d="M594.5,1354.3H107.9c-29.5,0-53.4-23.9-53.4-53.4l0,0c0-29.5,23.9-53.4,53.4-53.4h486.6
								c29.5,0,53.4,23.9,53.4,53.4l0,0C647.9,1330.3,624,1354.3,594.5,1354.3z"/>
							<path class="st18" d="M594.5,1354.3H107.9c-29.5,0-53.4-23.9-53.4-53.4l0,0c0-29.5,23.9-53.4,53.4-53.4h486.6
								c29.5,0,53.4,23.9,53.4,53.4l0,0C647.9,1330.3,624,1354.3,594.5,1354.3z"/>
						</g>
					</g>
					<g>
						<path d="M305.1,1315.8c-0.1,0-0.2,0-0.3-0.1c-0.1-0.1-0.1-0.2-0.1-0.3v-10.7h-13c-0.1,0-0.2,0-0.4-0.1
							c-0.1-0.1-0.2-0.2-0.2-0.3v-1.1c0-0.1,0-0.2,0.2-0.3c0.1-0.1,0.2-0.1,0.4-0.1h28.4c0.1,0,0.2,0,0.3,0.1
							c0.1,0.1,0.2,0.2,0.2,0.3v1.1c0,0.1-0.1,0.2-0.2,0.3c-0.1,0.1-0.2,0.1-0.3,0.1H307v10.7c0,0.1,0,0.2-0.1,0.3s-0.2,0.1-0.3,0.1
							H305.1z M317.7,1298.3c-0.1,0.2-0.3,0.3-0.6,0.2c-1.7-0.4-3.5-0.9-5.4-1.6s-3.6-1.4-5.4-2.3c-1.6,0.8-3.3,1.6-5.2,2.3
							c-1.9,0.7-3.9,1.4-6,1.9c-0.3,0.1-0.5,0-0.6-0.3l-0.4-1.1c-0.1-0.3,0-0.5,0.3-0.6c1.6-0.4,3.2-0.9,4.8-1.5s3.1-1.2,4.5-1.9
							s2.8-1.4,4.1-2.1c1.3-0.7,2.4-1.5,3.4-2.2c0.3-0.2,0.4-0.4,0.4-0.5c0-0.2-0.2-0.2-0.6-0.2h-14.4c-0.3,0-0.4-0.1-0.4-0.4v-1.2
							c0-0.3,0.1-0.4,0.4-0.4h15.3c0.9,0,1.6,0.1,2.1,0.3s0.8,0.4,1,0.7c0.1,0.3,0.1,0.7-0.1,1.1s-0.5,0.8-1,1.3
							c-1.5,1.3-3.2,2.5-5.2,3.7c1.4,0.6,2.9,1.2,4.6,1.7c1.7,0.6,3.3,1,4.9,1.4c0.2,0,0.3,0.1,0.3,0.2s0,0.2-0.1,0.3L317.7,1298.3z
							"/>
						<path d="M336.8,1309.8c-0.1,0-0.2,0-0.3-0.1c-0.1-0.1-0.1-0.2-0.1-0.3v-6.7h-13.3c-0.1,0-0.2,0-0.4-0.1s-0.2-0.2-0.2-0.3v-1.1
							c0-0.1,0-0.2,0.2-0.3c0.1-0.1,0.2-0.1,0.4-0.1h28.4c0.1,0,0.2,0,0.3,0.1c0.1,0.1,0.2,0.2,0.2,0.3v1.1c0,0.1-0.1,0.2-0.2,0.3
							c-0.1,0.1-0.2,0.1-0.3,0.1h-12.8v6.7c0,0.1,0,0.2-0.1,0.3c-0.1,0.1-0.2,0.1-0.3,0.1H336.8z M348.2,1315.4
							c-0.1,0.1-0.2,0.1-0.3,0.1h-18.4c-1,0-1.7-0.2-2.1-0.6c-0.3-0.4-0.5-1.1-0.5-2v-6.6c0-0.3,0.2-0.5,0.5-0.5h1.4
							c0.3,0,0.5,0.2,0.5,0.5v6.5c0,0.3,0,0.5,0.2,0.6s0.3,0.1,0.6,0.1H348c0.1,0,0.2,0,0.3,0.1c0.1,0.1,0.2,0.2,0.2,0.3v1.2
							C348.3,1315.2,348.3,1315.3,348.2,1315.4z M327.3,1288.9c0-0.9,0.2-1.5,0.5-1.9c0.4-0.3,1-0.5,2-0.5h14.8c0.5,0,1,0,1.3,0.1
							s0.6,0.2,0.8,0.4s0.3,0.4,0.4,0.7c0.1,0.3,0.1,0.7,0.1,1.2v6.1c0,0.9-0.2,1.5-0.5,1.9c-0.4,0.3-1,0.5-2,0.5h-14.8
							c-0.5,0-1,0-1.3-0.1s-0.6-0.2-0.8-0.4c-0.2-0.2-0.3-0.4-0.4-0.7c-0.1-0.3-0.1-0.7-0.1-1.1V1288.9z M330.4,1288.6
							c-0.3,0-0.5,0.1-0.6,0.2s-0.2,0.3-0.2,0.7v5.1c0,0.3,0.1,0.6,0.2,0.7s0.3,0.2,0.6,0.2H344c0.3,0,0.5-0.1,0.6-0.2
							s0.2-0.3,0.2-0.7v-5.1c0-0.3-0.1-0.6-0.2-0.7s-0.3-0.2-0.6-0.2H330.4z"/>
						<path d="M373.5,1294.7h-18.4c-0.1,0-0.2,0-0.3-0.1c-0.1-0.1-0.2-0.2-0.2-0.3v-1.1c0-0.1,0-0.2,0.2-0.3
							c0.1-0.1,0.2-0.1,0.3-0.1h18.4c0.3,0,0.5,0.1,0.5,0.4v1.1C374,1294.6,373.8,1294.7,373.5,1294.7z M371.5,1303.5
							c0,0.9-0.2,1.7-0.6,2.5s-0.9,1.4-1.5,2s-1.4,1-2.3,1.4s-1.8,0.5-2.9,0.5c-1,0-2-0.2-2.9-0.5s-1.6-0.8-2.3-1.4
							c-0.6-0.6-1.2-1.2-1.5-2c-0.4-0.8-0.6-1.6-0.6-2.5s0.2-1.8,0.6-2.6c0.4-0.8,0.9-1.5,1.5-2s1.4-1,2.3-1.4
							c0.9-0.3,1.8-0.5,2.9-0.5c1,0,2,0.2,2.9,0.5s1.7,0.8,2.3,1.4c0.6,0.6,1.2,1.3,1.5,2C371.3,1301.8,371.5,1302.6,371.5,1303.5z
							 M368.6,1289.1h-9.2c-0.1,0-0.2,0-0.3-0.1c-0.1-0.1-0.2-0.2-0.2-0.3v-1.1c0-0.1,0-0.2,0.1-0.3c0.1-0.1,0.2-0.1,0.3-0.1h9.2
							c0.3,0,0.5,0.2,0.5,0.5v1.1C369.1,1289,368.9,1289.1,368.6,1289.1z M369.2,1303.5c0-0.6-0.1-1.2-0.4-1.8c-0.2-0.5-0.6-1-1-1.4
							s-1-0.7-1.6-1c-0.6-0.2-1.3-0.3-2-0.3s-1.4,0.1-2,0.3c-0.6,0.2-1.1,0.6-1.6,1c-0.4,0.4-0.8,0.9-1.1,1.4
							c-0.3,0.6-0.4,1.1-0.4,1.8c0,0.6,0.1,1.2,0.4,1.8c0.3,0.5,0.6,1,1.1,1.4s1,0.7,1.6,1s1.3,0.3,2,0.3s1.4-0.1,2-0.3
							s1.1-0.5,1.6-0.9c0.4-0.4,0.8-0.9,1-1.4C369.1,1304.7,369.2,1304.1,369.2,1303.5z M378.2,1316h-1.4c-0.3,0-0.5-0.2-0.5-0.5
							V1286c0-0.3,0.2-0.5,0.5-0.5h1.4c0.3,0,0.5,0.2,0.5,0.5v12.2h4.6c0.1,0,0.3,0,0.4,0.1s0.1,0.2,0.1,0.3v1.1
							c0,0.1,0,0.2-0.1,0.3c-0.1,0.1-0.2,0.1-0.4,0.1h-4.6v15.3C378.7,1315.9,378.5,1316,378.2,1316z"/>
						<path d="M402.3,1290.5c-0.1,1.9-0.5,3.8-1.1,5.6s-1.5,3.6-2.7,5.2c-1.1,1.7-2.5,3.2-4.1,4.6s-3.4,2.7-5.5,3.7
							c-0.3,0.2-0.5,0.1-0.6-0.1l-0.7-1.2c-0.2-0.3-0.1-0.5,0.1-0.6c1.9-1,3.6-2.1,5-3.3c1.5-1.2,2.7-2.6,3.7-4c1-1.5,1.9-3,2.5-4.6
							s1-3.3,1.1-5c0-0.3,0-0.6-0.1-0.7s-0.4-0.2-0.7-0.2h-10.6c-0.3,0-0.4-0.1-0.4-0.4v-1.2c0-0.3,0.1-0.4,0.4-0.4h11.3
							c1,0,1.7,0.2,2.1,0.6C402.2,1289.1,402.3,1289.7,402.3,1290.5z M410.8,1316h-1.4c-0.3,0-0.5-0.2-0.5-0.5V1286
							c0-0.3,0.2-0.5,0.5-0.5h1.4c0.3,0,0.5,0.2,0.5,0.5v29.5C411.2,1315.9,411.1,1316,410.8,1316z"/>
					</g>
				</g>
			</g>
			<rect x="53.7" y="539.2" width="595" height="1"/>
			<g>
				<g>
					<circle class="st22" cx="129.5" cy="291.3" r="18"/>
					<g>
						<path d="M168.6,298.9c-1.1,0-2.1-0.2-3-0.6s-1.7-0.9-2.4-1.6s-1.2-1.5-1.6-2.4s-0.6-1.9-0.6-3s0.2-2.1,0.6-3
							c0.4-0.9,0.9-1.7,1.6-2.4c0.7-0.7,1.5-1.2,2.4-1.6s1.9-0.6,3-0.6s2.1,0.2,3,0.6s1.7,0.9,2.4,1.6s1.2,1.5,1.6,2.4
							c0.4,0.9,0.6,1.9,0.6,3s-0.2,2.1-0.6,3s-0.9,1.7-1.6,2.4c-0.7,0.7-1.5,1.2-2.4,1.6C170.7,298.7,169.7,298.9,168.6,298.9z
							 M168.6,297.5c0.9,0,1.7-0.2,2.4-0.5s1.4-0.7,1.9-1.3s1-1.2,1.3-2s0.5-1.6,0.5-2.5s-0.2-1.7-0.5-2.4c-0.3-0.8-0.7-1.4-1.3-2
							s-1.2-1-1.9-1.3s-1.6-0.5-2.4-0.5c-0.9,0-1.7,0.2-2.5,0.5c-0.7,0.3-1.4,0.7-1.9,1.3s-1,1.2-1.3,2s-0.5,1.6-0.5,2.4
							c0,0.9,0.2,1.7,0.5,2.5s0.7,1.4,1.3,2s1.2,1,1.9,1.3C166.9,297.3,167.7,297.5,168.6,297.5z"/>
						<path d="M180,298.7c-0.2,0-0.4-0.1-0.5-0.2s-0.2-0.3-0.2-0.5v-13.4c0-0.2,0.1-0.4,0.2-0.5c0.1-0.1,0.3-0.2,0.5-0.2
							s0.4,0.1,0.6,0.3l9.1,11.9v-11.5c0-0.2,0.1-0.4,0.2-0.5s0.3-0.2,0.5-0.2s0.4,0.1,0.5,0.2s0.2,0.3,0.2,0.5V298
							c0,0.2-0.1,0.4-0.2,0.5s-0.3,0.2-0.5,0.2c-0.1,0-0.2,0-0.3-0.1c-0.1,0-0.2-0.1-0.2-0.2l-9.1-11.9v11.4c0,0.2-0.1,0.4-0.2,0.5
							S180.2,298.7,180,298.7z"/>
						<path d="M195.7,298.7c-0.2,0-0.4-0.1-0.5-0.2s-0.2-0.3-0.2-0.5v-13.4c0-0.2,0.1-0.4,0.2-0.5s0.3-0.2,0.5-0.2s0.4,0.1,0.5,0.2
							s0.2,0.3,0.2,0.5v12.7h7.4c0.2,0,0.4,0.1,0.5,0.2s0.2,0.3,0.2,0.5s-0.1,0.4-0.2,0.5c-0.1,0.1-0.3,0.2-0.5,0.2L195.7,298.7
							L195.7,298.7z"/>
						<path d="M208.8,298.7c-0.2,0-0.4-0.1-0.5-0.2s-0.2-0.3-0.2-0.5v-4.8l-5.2-8.2c-0.1-0.2-0.2-0.4-0.1-0.6c0-0.2,0.1-0.3,0.2-0.4
							s0.3-0.2,0.5-0.2s0.3,0,0.4,0.1s0.2,0.2,0.3,0.3l5.1,8.3h-0.8l5.1-8.2c0.1-0.1,0.2-0.2,0.3-0.3s0.2-0.1,0.4-0.1
							s0.3,0.1,0.4,0.2c0.1,0.1,0.2,0.3,0.2,0.4c0,0.2,0,0.4-0.1,0.5l-5.2,8.2v4.8c0,0.2-0.1,0.4-0.2,0.5
							C209.1,298.6,209,298.7,208.8,298.7z"/>
						<path d="M225,298.7c-0.2,0-0.4-0.1-0.5-0.2s-0.2-0.3-0.2-0.5v-12.3l-1.9,0.7c-0.1,0.1-0.3,0.1-0.4,0.1c-0.2,0-0.4-0.1-0.5-0.2
							s-0.2-0.3-0.2-0.5s0-0.3,0.1-0.4s0.2-0.2,0.4-0.3l2.9-1c0.1,0,0.1,0,0.2-0.1c0.1,0,0.1,0,0.2,0c0.2,0,0.4,0.1,0.5,0.2
							s0.2,0.3,0.2,0.5v13.4c0,0.2-0.1,0.4-0.2,0.5C225.4,298.6,225.2,298.7,225,298.7z"/>
						<path d="M232.2,298.7c-0.2,0-0.4-0.1-0.5-0.2s-0.2-0.3-0.2-0.5v-12.3l-1.9,0.7c-0.1,0.1-0.3,0.1-0.4,0.1
							c-0.2,0-0.4-0.1-0.5-0.2s-0.2-0.3-0.2-0.5s0-0.3,0.1-0.4s0.2-0.2,0.4-0.3l2.9-1c0.1,0,0.1,0,0.2-0.1c0.1,0,0.1,0,0.2,0
							c0.2,0,0.4,0.1,0.5,0.2s0.2,0.3,0.2,0.5v13.4c0,0.2-0.1,0.4-0.2,0.5C232.6,298.6,232.4,298.7,232.2,298.7z"/>
						<path d="M242.1,290.6c-0.3,0-0.6-0.1-0.8-0.3c-0.2-0.2-0.3-0.5-0.3-0.8s0.1-0.6,0.3-0.8c0.2-0.2,0.5-0.3,0.8-0.3
							s0.6,0.1,0.8,0.3s0.3,0.5,0.3,0.8s-0.1,0.6-0.3,0.8S242.4,290.6,242.1,290.6z M242.2,299c-0.3,0-0.6-0.1-0.8-0.3
							c-0.2-0.2-0.3-0.5-0.3-0.8s0.1-0.6,0.3-0.8c0.2-0.2,0.5-0.3,0.8-0.3s0.6,0.1,0.8,0.3c0.2,0.2,0.3,0.5,0.3,0.8
							s-0.1,0.5-0.3,0.8S242.5,299,242.2,299z"/>
						<path d="M251.8,298.7c-0.2,0-0.4-0.1-0.5-0.2s-0.2-0.3-0.2-0.5s0.1-0.4,0.2-0.5l5.8-6.8c0.3-0.3,0.6-0.7,0.8-1.1
							c0.2-0.4,0.3-0.8,0.3-1.2c0-0.6-0.1-1.1-0.4-1.6s-0.6-0.8-1-1.1c-0.4-0.3-0.9-0.4-1.5-0.4c-0.5,0-1,0.1-1.5,0.4
							c-0.4,0.3-0.8,0.6-1,1.1s-0.4,1-0.4,1.5c0,0.2-0.1,0.4-0.2,0.5s-0.3,0.2-0.5,0.2s-0.4-0.1-0.5-0.2s-0.2-0.3-0.2-0.5
							c0-0.8,0.2-1.6,0.6-2.3s0.9-1.2,1.5-1.6s1.4-0.6,2.2-0.6s1.6,0.2,2.2,0.6s1.1,0.9,1.5,1.6s0.5,1.4,0.5,2.3
							c0,0.4-0.1,0.8-0.2,1.2s-0.3,0.7-0.5,1.1c-0.2,0.3-0.5,0.7-0.7,1l-4.9,5.6h5.9c0.2,0,0.4,0.1,0.5,0.2c0.1,0.2,0.2,0.3,0.2,0.5
							s-0.1,0.4-0.2,0.5s-0.3,0.2-0.5,0.2L251.8,298.7L251.8,298.7z"/>
						<path d="M266.1,298.7c-0.9,0-1.7-0.3-2.4-0.9c-0.7-0.6-1.2-1.4-1.5-2.6c-0.3-1.1-0.5-2.4-0.5-4c0-1.5,0.2-2.9,0.5-4
							s0.9-2,1.5-2.6c0.7-0.6,1.5-0.9,2.4-0.9c1,0,1.8,0.3,2.4,0.9s1.2,1.5,1.5,2.6s0.5,2.4,0.5,4c0,1.5-0.2,2.9-0.5,4
							s-0.9,2-1.5,2.6S267.1,298.7,266.1,298.7z M266.1,297.2c0.7,0,1.2-0.3,1.7-0.8c0.4-0.5,0.8-1.2,1-2.1s0.3-1.9,0.3-3.1
							c0-1.1-0.1-2.2-0.3-3c-0.2-0.9-0.6-1.6-1-2.1s-1-0.8-1.7-0.8s-1.2,0.3-1.7,0.8c-0.4,0.5-0.8,1.2-1,2.1s-0.3,1.9-0.3,3.1
							s0.1,2.2,0.3,3.1c0.2,0.9,0.6,1.6,1,2.1C264.9,297,265.5,297.2,266.1,297.2z"/>
						<path d="M278.9,290.6c-0.3,0-0.6-0.1-0.8-0.3c-0.2-0.2-0.3-0.5-0.3-0.8s0.1-0.6,0.3-0.8c0.2-0.2,0.5-0.3,0.8-0.3
							s0.6,0.1,0.8,0.3s0.3,0.5,0.3,0.8s-0.1,0.6-0.3,0.8C279.4,290.5,279.2,290.6,278.9,290.6z M278.9,299c-0.3,0-0.6-0.1-0.8-0.3
							c-0.2-0.2-0.3-0.5-0.3-0.8s0.1-0.6,0.3-0.8c0.2-0.2,0.5-0.3,0.8-0.3s0.6,0.1,0.8,0.3c0.2,0.2,0.3,0.5,0.3,0.8
							s-0.1,0.5-0.3,0.8S279.2,299,278.9,299z"/>
						<path d="M294.9,298.7c-0.2,0-0.4-0.1-0.5-0.2s-0.2-0.3-0.2-0.5v-2.8h-6.8c-0.2,0-0.4-0.1-0.5-0.2s-0.2-0.3-0.2-0.5
							s0-0.3,0.1-0.5l7.5-9.8c0.1-0.1,0.1-0.2,0.2-0.2s0.2-0.1,0.4-0.1c0.2,0,0.4,0.1,0.5,0.2s0.2,0.3,0.2,0.5v9.2h1.5
							c0.2,0,0.4,0.1,0.5,0.2s0.2,0.3,0.2,0.5s-0.1,0.3-0.2,0.4s-0.3,0.2-0.5,0.2h-1.5v2.8c0,0.2-0.1,0.4-0.2,0.5
							S295.1,298.7,294.9,298.7z M288.2,294.4l-0.3-0.6h6.3v-8.2l0.4,0.4L288.2,294.4z"/>
						<path d="M303.8,298.7c-0.9,0-1.7-0.2-2.5-0.6c-0.7-0.4-1.3-1-1.7-1.7c-0.4-0.7-0.6-1.5-0.6-2.5c0-0.2,0.1-0.4,0.2-0.5
							s0.3-0.2,0.5-0.2s0.4,0.1,0.5,0.2s0.2,0.3,0.2,0.5c0,0.6,0.1,1.2,0.4,1.7s0.7,0.9,1.2,1.2c0.5,0.3,1.1,0.4,1.7,0.4
							s1.2-0.1,1.7-0.4s0.9-0.7,1.2-1.2c0.3-0.5,0.4-1.1,0.4-1.7s-0.1-1.2-0.4-1.7s-0.7-0.9-1.2-1.2c-0.5-0.3-1.1-0.4-1.7-0.4h-3.3
							c-0.2,0-0.4-0.1-0.5-0.2s-0.2-0.3-0.2-0.5v-5.2c0-0.2,0.1-0.4,0.2-0.5s0.3-0.2,0.5-0.2h6.7c0.2,0,0.4,0.1,0.5,0.2
							s0.2,0.3,0.2,0.5s-0.1,0.4-0.2,0.5s-0.3,0.2-0.5,0.2h-5.9v3.7h2.6c0.9,0,1.7,0.2,2.5,0.6c0.7,0.4,1.3,1,1.7,1.7
							c0.4,0.7,0.6,1.5,0.6,2.5s-0.2,1.7-0.6,2.5c-0.4,0.7-1,1.3-1.7,1.7C305.6,298.5,304.7,298.7,303.8,298.7z"/>
					</g>
					<g>
						<g>
							<path class="st15" d="M131.4,281h-2.9v11.6l10.1,6.2l1.6-2.5l-8.7-5.2V281H131.4z"/>
						</g>
					</g>
				</g>
				<g>
					<path class="st3" d="M71.7,308.9c-9.7,0-17.5-7.9-17.5-17.6s7.9-17.6,17.5-17.6c4.7,0,9.1,1.8,12.4,5.2l0.4,0.4l4.8-4.8v14.1
						H75.2l6.8-6.8l-0.4-0.4c-2.7-2.7-6.2-4.2-9.9-4.2c-7.7,0-14,6.3-14,14s6.3,14,14,14c5.8,0,11-3.6,13.1-9h3.7
						C86.3,303.8,79.5,308.9,71.7,308.9z"/>
					<path d="M71.7,274.3c4.5,0,8.8,1.8,12,5l0.7,0.7l0.7-0.7l3.6-3.6v12.4H76.4l5.6-5.6l0.7-0.7l-0.7-0.7
						c-2.8-2.8-6.4-4.3-10.2-4.3c-8,0-14.5,6.5-14.5,14.5s6.5,14.5,14.5,14.5c5.9,0,11.2-3.6,13.4-9h2.7
						c-2.3,6.9-8.8,11.5-16.1,11.5c-9.4,0-17-7.7-17-17.1S62.3,274.3,71.7,274.3 M89.8,273.3l-5.3,5.3c-3.3-3.3-7.8-5.3-12.8-5.3
						c-10,0-18,8.1-18,18.1s8.1,18.1,18,18.1c8.4,0,15.4-5.8,17.5-13.5h-4.7c-1.9,5.3-6.9,9-12.8,9c-7.5,0-13.5-6.1-13.5-13.5
						S64.3,278,71.7,278c3.7,0,7.1,1.6,9.5,4l-7.3,7.3h15.8v-16H89.8z"/>
				</g>
			</g>
			<rect x="58.4" y="495.7" class="st23" width="580.5" height="433.6"/>
			<path class="st23" d="M632.9,1459.5H69.5c-28.3,0-51.3-23-51.3-51.3V70.8c0-28.3,23-51.3,51.3-51.3H633c28.2,0,51.2,23,51.2,51.3
				v1337.5C684.2,1436.5,661.2,1459.5,632.9,1459.5z"/>
			<g>
				<rect x="53.7" y="812.5" class="st23" width="583.4" height="433.6"/>
				<text transform="matrix(1 0 0 1 53.7004 829.0164)"><tspan x="0" y="0" class="st19 st24"> 아이브의 본격 글로벌 행보를 알리는 데뷔 첫 영어 앨범,</tspan><tspan x="0" y="40" class="st19 st24">그 선공개 싱글 “Love Dive” 이곡은 사랑이라는 감정이 </tspan><tspan x="0" y="80" class="st19 st24">생각했던 것보다 빨리 사라질 때. 제발 머물러 주기를 바라는 </tspan><tspan x="0" y="120" class="st19 st24">애절한 마음을 담은 곡으로, 잔잔한 멜로디 라인과 미니멀한 </tspan><tspan x="0" y="160" class="st19 st24">편곡 위에 아이브의 애틋하고 감미로운 보컬이 돋보이는 팝 </tspan><tspan x="0" y="200" class="st19 st24">발라드이다. </tspan></text>
			</g>
			<rect x="53.7" y="753.5" class="st25" width="595.4" height="1"/>
			<g>
				<g>
					<g>
						<g>
							<g>
								<path class="st26" d="M58,627c-0.4,0-0.7,0-0.9-0.1c-0.2,0-0.4-0.1-0.5-0.3c-0.1-0.1-0.2-0.3-0.3-0.5s-0.1-0.5-0.1-0.8v-8.4
									c0-0.1,0-0.1,0.1-0.2c0.1-0.1,0.1-0.1,0.2-0.1h1c0.1,0,0.1,0,0.2,0.1s0.1,0.1,0.1,0.2v3.7h7V617c0-0.1,0-0.2,0.1-0.2
									c0.1-0.1,0.1-0.1,0.2-0.1h1c0.1,0,0.2,0,0.2,0.1c0.1,0.1,0.1,0.1,0.1,0.2v8.6c0,0.6-0.1,1-0.4,1.2c-0.3,0.2-0.7,0.3-1.4,0.3
									H58z M57.9,622.1v3c0,0.2,0,0.4,0.1,0.5c0.1,0.1,0.2,0.1,0.5,0.1h5.9c0.2,0,0.4,0,0.5-0.1c0.1-0.1,0.1-0.2,0.1-0.5v-3H57.9z
									 M72.7,638.2c0,0.1,0,0.1-0.1,0.2c-0.1,0.1-0.1,0.1-0.2,0.1H60.3c-0.8,0-1.2-0.1-1.5-0.4c-0.2-0.3-0.3-0.8-0.3-1.4v-1.8
									c0-0.7,0.1-1.1,0.4-1.4c0.3-0.2,0.8-0.3,1.5-0.3H70c0.2,0,0.4,0,0.4-0.1c0.1-0.1,0.1-0.2,0.1-0.5v-1.4c0-0.2,0-0.4-0.1-0.5
									c-0.1-0.1-0.2-0.1-0.4-0.1H58.8c-0.1,0-0.2,0-0.2-0.1c-0.1,0-0.1-0.1-0.1-0.2v-0.9c0-0.1,0-0.1,0.1-0.2s0.1-0.1,0.2-0.1
									h11.5c0.4,0,0.7,0,0.9,0.1c0.2,0.1,0.4,0.1,0.6,0.3c0.1,0.1,0.2,0.3,0.3,0.5c0.1,0.2,0.1,0.5,0.1,0.9v1.8
									c0,0.7-0.1,1.1-0.4,1.4c-0.3,0.2-0.8,0.3-1.5,0.3h-9.6c-0.2,0-0.4,0-0.4,0.1c-0.1,0.1-0.1,0.2-0.1,0.5v1.5
									c0,0.2,0,0.4,0.1,0.4c0.1,0.1,0.2,0.1,0.4,0.1h11.7c0.1,0,0.2,0,0.2,0.1c0.1,0,0.1,0.1,0.1,0.2V638.2z M71.8,628h-1
									c-0.2,0-0.3-0.1-0.3-0.3v-11c0-0.2,0.1-0.3,0.3-0.3h1c0.2,0,0.3,0.1,0.3,0.3v4.8h3.3c0.1,0,0.2,0,0.3,0.1s0.1,0.1,0.1,0.2
									v0.8c0,0.1,0,0.2-0.1,0.2s-0.2,0.1-0.3,0.1h-3.3v4.8C72.2,627.9,72.1,628,71.8,628z"/>
								<path class="st26" d="M78.1,619.9c0-0.7,0.1-1.1,0.4-1.4s0.7-0.3,1.4-0.3h5.6c0.4,0,0.7,0,0.9,0.1c0.2,0,0.4,0.1,0.6,0.3
									c0.1,0.1,0.2,0.3,0.3,0.5s0.1,0.5,0.1,0.8v10.4c0,0.7-0.1,1.1-0.4,1.4c-0.3,0.2-0.7,0.3-1.4,0.3h-5.6c-0.4,0-0.7,0-0.9-0.1
									c-0.2,0-0.4-0.1-0.6-0.3c-0.1-0.1-0.2-0.3-0.3-0.5c0-0.2-0.1-0.5-0.1-0.8V619.9z M80.3,619.7c-0.2,0-0.4,0-0.5,0.1
									s-0.1,0.3-0.1,0.5v9.7c0,0.2,0,0.4,0.1,0.5s0.2,0.1,0.5,0.1h4.8c0.2,0,0.4,0,0.5-0.1s0.1-0.3,0.1-0.5v-9.7
									c0-0.2,0-0.4-0.1-0.5s-0.2-0.1-0.5-0.1H80.3z M91.7,625.4h3v-8.7c0-0.2,0.1-0.3,0.3-0.3H96c0.2,0,0.3,0.1,0.3,0.3v21.5
									c0,0.2-0.1,0.3-0.3,0.3h-0.9c-0.2,0-0.3-0.1-0.3-0.3v-11.3h-3v10.4c0,0.2-0.1,0.3-0.3,0.3h-0.9c-0.2,0-0.3-0.1-0.3-0.3
									v-20.1c0-0.2,0.1-0.3,0.3-0.3h0.9c0.2,0,0.3,0.1,0.3,0.3V625.4z"/>
								<path class="st26" d="M112.2,622.1c0,0.8-0.1,1.4-0.4,2.1c-0.3,0.6-0.7,1.2-1.2,1.6c-0.5,0.5-1.1,0.8-1.8,1.1
									c-0.7,0.3-1.4,0.4-2.2,0.4c-0.8,0-1.5-0.1-2.1-0.4c-0.7-0.3-1.2-0.6-1.8-1.1s-0.9-1-1.2-1.6c-0.3-0.6-0.4-1.3-0.4-2.1
									c0-0.8,0.1-1.5,0.4-2.2s0.7-1.2,1.2-1.6c0.5-0.4,1.1-0.8,1.8-1c0.7-0.2,1.4-0.4,2.1-0.4c0.7,0,1.4,0.1,2.1,0.4
									c0.7,0.2,1.3,0.6,1.8,1c0.5,0.4,1,1,1.3,1.6S112.2,621.3,112.2,622.1z M110.5,622c0-0.6-0.1-1.1-0.3-1.6
									c-0.2-0.5-0.5-0.8-0.9-1.2c-0.4-0.3-0.8-0.5-1.3-0.7c-0.5-0.2-1-0.2-1.5-0.2c-0.5,0-1,0.1-1.5,0.2c-0.5,0.2-0.9,0.4-1.2,0.7
									c-0.3,0.3-0.6,0.7-0.8,1.2c-0.2,0.5-0.3,1-0.3,1.6c0,0.6,0.1,1.1,0.3,1.5c0.2,0.5,0.5,0.8,0.8,1.2c0.3,0.3,0.7,0.6,1.2,0.7
									s1,0.3,1.5,0.3c0.5,0,1-0.1,1.5-0.3c0.5-0.2,0.9-0.4,1.3-0.7c0.4-0.3,0.7-0.7,0.9-1.2C110.4,623.1,110.5,622.6,110.5,622z
									 M118.6,638.2c0,0.1,0,0.1-0.1,0.2c-0.1,0.1-0.1,0.1-0.2,0.1h-12.1c-0.8,0-1.2-0.1-1.5-0.4c-0.2-0.3-0.3-0.8-0.3-1.4v-1.8
									c0-0.7,0.1-1.1,0.4-1.4c0.3-0.2,0.8-0.3,1.5-0.3h9.6c0.2,0,0.4,0,0.4-0.1c0.1-0.1,0.1-0.2,0.1-0.5v-1.4c0-0.2,0-0.4-0.1-0.5
									c-0.1-0.1-0.2-0.1-0.4-0.1h-11.3c-0.1,0-0.2,0-0.2-0.1c-0.1,0-0.1-0.1-0.1-0.2v-0.9c0-0.1,0-0.1,0.1-0.2s0.1-0.1,0.2-0.1
									h11.5c0.4,0,0.7,0,0.9,0.1c0.2,0.1,0.4,0.1,0.6,0.3c0.1,0.1,0.2,0.3,0.3,0.5c0.1,0.2,0.1,0.5,0.1,0.9v1.8
									c0,0.7-0.1,1.1-0.4,1.4c-0.3,0.2-0.8,0.3-1.5,0.3h-9.6c-0.2,0-0.4,0-0.4,0.1c-0.1,0.1-0.1,0.2-0.1,0.5v1.5
									c0,0.2,0,0.4,0.1,0.4c0.1,0.1,0.2,0.1,0.4,0.1h11.7c0.1,0,0.2,0,0.2,0.1c0.1,0,0.1,0.1,0.1,0.2V638.2z M117.8,627.9h-1
									c-0.2,0-0.3-0.1-0.3-0.3v-10.9c0-0.2,0.1-0.3,0.3-0.3h1c0.2,0,0.3,0.1,0.3,0.3v10.9C118.1,627.8,118,627.9,117.8,627.9z"/>
								<path class="st26" d="M65.9,657.8c-0.2,0.6-0.5,1.2-0.9,1.9s-0.8,1.2-1.4,1.8c0.6,0.6,1.3,1.1,2.1,1.7
									c0.8,0.5,1.7,1,2.7,1.4c0.1,0,0.1,0.1,0.1,0.2c0,0.1,0,0.2-0.1,0.2l-0.5,0.8c0,0.1-0.1,0.1-0.2,0.2c-0.1,0-0.2,0-0.3-0.1
									c-0.4-0.2-0.7-0.4-1.1-0.6c-0.4-0.2-0.8-0.5-1.3-0.8c-0.4-0.3-0.9-0.6-1.3-0.9c-0.4-0.3-0.8-0.7-1.2-1.1
									c-0.9,0.9-1.9,1.7-3.1,2.5c-1.1,0.8-2.2,1.4-3.4,1.9c-0.1,0-0.2,0.1-0.2,0.1c-0.1,0-0.1,0-0.2-0.1l-0.5-0.8
									c0-0.1-0.1-0.2,0-0.3c0-0.1,0.1-0.1,0.2-0.2c2.1-1,3.8-2.1,5.3-3.4c1.5-1.3,2.6-2.8,3.4-4.4c0.1-0.2,0.1-0.4,0-0.5
									c-0.1-0.1-0.2-0.1-0.5-0.1h-7c-0.2,0-0.3-0.1-0.3-0.3v-0.8c0-0.2,0.1-0.3,0.3-0.3h7.6c0.8,0,1.4,0.1,1.6,0.4
									C66.2,656.6,66.2,657.1,65.9,657.8z M72.5,672.6c0,0.7-0.2,1.3-0.6,1.8c-0.4,0.5-0.9,1-1.5,1.4s-1.4,0.7-2.2,0.9
									s-1.7,0.3-2.7,0.3c-1,0-2-0.1-2.8-0.3c-0.8-0.2-1.6-0.5-2.2-0.9c-0.6-0.4-1.1-0.8-1.4-1.4c-0.3-0.5-0.5-1.2-0.5-1.8
									c0-0.7,0.2-1.3,0.5-1.8c0.3-0.5,0.8-1,1.4-1.4c0.6-0.4,1.3-0.7,2.2-0.9c0.8-0.2,1.8-0.3,2.8-0.3c1,0,1.9,0.1,2.7,0.3
									c0.8,0.2,1.6,0.5,2.2,0.9s1.1,0.8,1.5,1.4S72.5,672,72.5,672.6z M70.8,672.7c0-0.5-0.1-0.9-0.4-1.3
									c-0.3-0.4-0.7-0.7-1.2-0.9c-0.5-0.2-1.1-0.4-1.7-0.6c-0.6-0.1-1.3-0.2-2-0.2c-0.8,0-1.5,0.1-2.1,0.2
									c-0.6,0.1-1.2,0.3-1.6,0.6c-0.5,0.2-0.8,0.6-1.1,0.9c-0.3,0.4-0.4,0.8-0.4,1.3c0,0.5,0.1,0.9,0.4,1.2s0.6,0.7,1.1,0.9
									c0.5,0.2,1,0.4,1.6,0.6c0.6,0.1,1.3,0.2,2.1,0.2c0.7,0,1.4-0.1,2-0.2c0.6-0.1,1.2-0.3,1.7-0.6c0.5-0.2,0.9-0.5,1.2-0.9
									S70.8,673.2,70.8,672.7z M71.8,668h-1c-0.2,0-0.3-0.1-0.3-0.3v-12.6c0-0.2,0.1-0.3,0.3-0.3h1c0.2,0,0.3,0.1,0.3,0.3v5.7h3.3
									c0.1,0,0.2,0,0.3,0.1s0.1,0.1,0.1,0.2v0.8c0,0.1,0,0.2-0.1,0.2c-0.1,0.1-0.2,0.1-0.3,0.1h-3.3v5.4
									C72.2,667.9,72.1,668,71.8,668z"/>
								<path class="st26" d="M98,671.8c0.1,0.1,0.1,0.1,0.1,0.2v0.8c0,0.1,0,0.2-0.1,0.2s-0.2,0.1-0.2,0.1H77.3
									c-0.1,0-0.2,0-0.3-0.1s-0.1-0.1-0.1-0.2V672c0-0.1,0-0.2,0.1-0.2c0.1-0.1,0.2-0.1,0.3-0.1h20.4
									C97.8,671.7,97.9,671.7,98,671.8z M95.4,667.2c0,0.1,0,0.1-0.1,0.2c-0.1,0.1-0.1,0.1-0.2,0.1H81.9c-0.8,0-1.2-0.1-1.5-0.4
									c-0.2-0.3-0.3-0.8-0.3-1.4v-3c0-0.7,0.1-1.1,0.4-1.4c0.3-0.2,0.8-0.3,1.5-0.3h10.8c0.2,0,0.4,0,0.4-0.1
									c0.1-0.1,0.1-0.2,0.1-0.5v-2.5c0-0.2,0-0.4-0.1-0.5c-0.1-0.1-0.2-0.1-0.4-0.1H80.4c-0.1,0-0.2,0-0.2-0.1s-0.1-0.1-0.1-0.2
									v-0.9c0-0.1,0-0.1,0.1-0.2c0.1,0,0.1-0.1,0.2-0.1H93c0.4,0,0.7,0,0.9,0.1c0.2,0.1,0.4,0.1,0.6,0.3c0.1,0.1,0.2,0.3,0.3,0.5
									c0.1,0.2,0.1,0.5,0.1,0.9v3c0,0.7-0.1,1.1-0.4,1.4c-0.3,0.2-0.8,0.3-1.5,0.3H82.2c-0.2,0-0.4,0-0.4,0.1s-0.1,0.2-0.1,0.5
									v2.6c0,0.2,0,0.4,0.1,0.4c0.1,0.1,0.2,0.1,0.4,0.1h12.9c0.1,0,0.2,0,0.2,0.1c0.1,0,0.1,0.1,0.1,0.2V667.2z"/>
								<path class="st26" d="M66.6,696.8c-0.1,1.4-0.4,2.7-0.8,4.1c-0.5,1.3-1.1,2.6-1.9,3.8s-1.8,2.3-3,3.4
									c-1.2,1-2.5,1.9-3.9,2.7c-0.2,0.1-0.4,0.1-0.5-0.1l-0.5-0.8c-0.1-0.2-0.1-0.3,0.1-0.4c1.4-0.7,2.6-1.5,3.6-2.4
									c1-0.9,1.9-1.9,2.7-2.9c0.7-1.1,1.3-2.2,1.8-3.3c0.4-1.2,0.7-2.4,0.8-3.6c0-0.2,0-0.4-0.1-0.5c-0.1-0.1-0.3-0.1-0.5-0.1
									h-7.6c-0.2,0-0.3-0.1-0.3-0.3v-0.8c0-0.2,0.1-0.3,0.3-0.3h8.1c0.8,0,1.2,0.1,1.5,0.4S66.6,696.2,66.6,696.8z M72.7,715.4h-1
									c-0.2,0-0.3-0.1-0.3-0.3v-21.5c0-0.2,0.1-0.3,0.3-0.3h1c0.2,0,0.3,0.1,0.3,0.3v21.5C73,715.3,72.9,715.4,72.7,715.4z"/>
								<path class="st26" d="M90.2,701.4c0,0.4-0.1,0.8-0.3,1.2s-0.5,0.7-0.9,0.9s-0.8,0.5-1.4,0.6s-1.1,0.3-1.7,0.3v1.6
									c1.1,0,2.2-0.1,3.2-0.2c1.1-0.1,2.1-0.2,3.2-0.3c0.1,0,0.2,0,0.3,0c0,0,0.1,0.1,0.1,0.2l0.1,0.8c0,0.1,0,0.2,0,0.2
									s-0.1,0.1-0.3,0.1c-1.4,0.2-3,0.3-4.6,0.4c-1.7,0.1-3.3,0.2-5,0.2h-5c-0.1,0-0.2,0-0.3-0.1c-0.1-0.1-0.1-0.1-0.1-0.2v-0.7
									c0-0.1,0-0.2,0.1-0.2c0.1,0,0.2-0.1,0.3-0.1h4.2c0.4,0,0.7,0,1.1,0c0.4,0,0.8,0,1.1,0v-1.6c-0.7,0-1.3-0.2-1.8-0.3
									c-0.5-0.2-1-0.4-1.4-0.6s-0.7-0.6-0.9-0.9s-0.3-0.7-0.3-1.2c0-0.5,0.1-0.9,0.4-1.3s0.6-0.7,1.1-1s1-0.5,1.6-0.6
									c0.6-0.1,1.3-0.2,2.1-0.2c0.7,0,1.4,0.1,2.1,0.2c0.6,0.2,1.2,0.4,1.7,0.6c0.5,0.3,0.8,0.6,1.1,1
									C90,700.6,90.2,701,90.2,701.4z M91.1,697.6H78.9c-0.1,0-0.2,0-0.2-0.1c-0.1-0.1-0.1-0.1-0.1-0.2v-0.7c0-0.1,0-0.2,0.1-0.2
									c0.1-0.1,0.1-0.1,0.2-0.1h12.3c0.2,0,0.4,0.1,0.4,0.3v0.7C91.5,697.5,91.4,697.6,91.1,697.6z M81.3,709.2
									c0.1,0,0.2-0.1,0.2-0.1h12.3c0.8,0,1.2,0.1,1.5,0.4c0.2,0.3,0.3,0.7,0.3,1.4v4.4c0,0.2-0.1,0.3-0.3,0.3h-1
									c-0.2,0-0.3-0.1-0.3-0.3V711c0-0.2,0-0.4-0.1-0.4c-0.1-0.1-0.2-0.1-0.4-0.1H81.5c-0.1,0-0.2,0-0.2-0.1
									c-0.1-0.1-0.1-0.1-0.1-0.2v-0.9C81.1,709.3,81.2,709.2,81.3,709.2z M88.5,701.4c0-0.6-0.3-1-1-1.3c-0.7-0.3-1.5-0.4-2.6-0.4
									c-0.5,0-1,0-1.4,0.1c-0.4,0.1-0.8,0.2-1.1,0.3c-0.3,0.1-0.6,0.3-0.8,0.5c-0.2,0.2-0.3,0.5-0.3,0.8c0,0.3,0.1,0.5,0.3,0.7
									c0.2,0.2,0.4,0.4,0.8,0.6c0.3,0.2,0.7,0.3,1.1,0.3s0.9,0.1,1.4,0.1c1,0,1.9-0.2,2.6-0.5S88.5,702,88.5,701.4z M87.7,695.1
									h-5.6c-0.1,0-0.2,0-0.2-0.1c-0.1-0.1-0.1-0.1-0.1-0.2V694c0-0.1,0-0.2,0.1-0.2c0.1-0.1,0.1-0.1,0.2-0.1h5.6
									c0.2,0,0.4,0.1,0.4,0.3v0.7C88.1,695,87.9,695.1,87.7,695.1z M95.2,707.7h-1c-0.2,0-0.3-0.1-0.3-0.3v-13.8
									c0-0.2,0.1-0.3,0.3-0.3h1c0.2,0,0.3,0.1,0.3,0.3v13.8C95.6,707.6,95.5,707.7,95.2,707.7z"/>
								<path class="st26" d="M107.4,694.9c0,1.1,0,2.1-0.1,3c-0.1,1-0.2,1.9-0.4,2.8c0.2,0.6,0.4,1.3,0.7,2
									c0.3,0.7,0.7,1.4,1.2,2.1c0.5,0.7,1,1.4,1.5,2.1c0.6,0.7,1.2,1.3,1.8,1.8c0.1,0.1,0.1,0.1,0.1,0.2s0,0.2-0.1,0.2l-0.6,0.7
									c-0.1,0.2-0.3,0.2-0.5,0c-0.4-0.4-0.9-0.8-1.4-1.4c-0.5-0.5-0.9-1.1-1.4-1.7c-0.4-0.6-0.9-1.2-1.2-1.8s-0.7-1.2-1-1.8
									c-0.5,1.5-1.2,2.8-2,4c-0.8,1.2-1.8,2.4-3,3.4c-0.2,0.1-0.3,0.1-0.4,0l-0.7-0.7c0,0-0.1-0.1-0.1-0.2c0-0.1,0.1-0.2,0.1-0.2
									c1-0.9,1.8-1.9,2.5-2.9c0.7-1,1.3-2.1,1.8-3.3c0.5-1.2,0.8-2.5,1-3.9c0.2-1.4,0.3-2.9,0.3-4.6c0-0.1,0-0.2,0.1-0.3
									c0.1-0.1,0.1-0.1,0.2-0.1l1.1,0C107.3,694.5,107.4,694.6,107.4,694.9z M117,715.4h-1c-0.2,0-0.3-0.1-0.3-0.3v-21.5
									c0-0.2,0.1-0.3,0.3-0.3h1c0.2,0,0.3,0.1,0.3,0.3v8.7h3.3c0.1,0,0.2,0,0.3,0.1s0.1,0.1,0.1,0.2v0.8c0,0.1,0,0.2-0.1,0.2
									c-0.1,0.1-0.2,0.1-0.3,0.1h-3.3v11.3C117.3,715.3,117.2,715.4,117,715.4z"/>
							</g>
						</g>
					</g>
					<g>
						<g>
							<g>
								<path class="st27" d="M179.9,633.7c0.2,0,0.4,0.1,0.5,0.2c0.1,0.1,0.2,0.3,0.2,0.5c0,0.2-0.1,0.4-0.2,0.5
									c-0.1,0.1-0.3,0.2-0.5,0.2h-9c-0.2,0-0.4-0.1-0.6-0.2c-0.2-0.1-0.2-0.3-0.2-0.5c0-0.2,0.1-0.3,0.2-0.5l5.5-6.1
									c0.9-1,1.6-1.8,2-2.7c0.4-0.8,0.7-1.5,0.7-2.2c0-1.1-0.3-1.9-1-2.5c-0.6-0.6-1.5-0.9-2.6-0.9c-0.5,0-1,0.1-1.5,0.3
									c-0.5,0.2-0.9,0.5-1.3,0.8c-0.4,0.3-0.7,0.7-0.9,1.1c-0.1,0.2-0.2,0.3-0.3,0.3c-0.1,0.1-0.2,0.1-0.3,0.1
									c-0.2,0-0.4-0.1-0.5-0.2c-0.1-0.1-0.2-0.3-0.2-0.4c0-0.1,0-0.2,0.1-0.3c0.1-0.1,0.1-0.2,0.3-0.4c0.3-0.5,0.7-1,1.2-1.4
									c0.5-0.4,1.1-0.7,1.7-1s1.3-0.4,1.9-0.4c1,0,1.9,0.2,2.7,0.6c0.7,0.4,1.3,0.9,1.7,1.7s0.6,1.6,0.6,2.5
									c0,0.8-0.3,1.7-0.8,2.7c-0.5,1-1.3,2-2.3,3.2l-4.7,5.3l-0.2-0.3H179.9z"/>
								<path class="st27" d="M189,635.3c-1.3,0-2.4-0.4-3.2-1.1c-0.9-0.8-1.5-1.8-1.9-3.1c-0.4-1.3-0.6-2.8-0.6-4.4
									c0-1.6,0.2-3.1,0.6-4.4c0.4-1.3,1.1-2.3,1.9-3.1c0.9-0.8,1.9-1.1,3.2-1.1c1.3,0,2.4,0.4,3.3,1.1c0.9,0.8,1.5,1.8,1.9,3.1
									c0.4,1.3,0.6,2.8,0.6,4.4c0,1.6-0.2,3.1-0.6,4.4c-0.4,1.3-1.1,2.3-1.9,3.1C191.4,634.9,190.3,635.3,189,635.3z M189,633.8
									c0.9,0,1.7-0.3,2.4-0.9c0.6-0.6,1.1-1.4,1.4-2.5s0.5-2.3,0.5-3.8c0-1.4-0.2-2.7-0.5-3.8c-0.3-1.1-0.8-1.9-1.4-2.5
									c-0.6-0.6-1.4-0.9-2.4-0.9c-0.9,0-1.7,0.3-2.3,0.9c-0.6,0.6-1.1,1.4-1.4,2.5c-0.3,1.1-0.5,2.3-0.5,3.8
									c0,1.4,0.2,2.7,0.5,3.8s0.8,1.9,1.4,2.5C187.3,633.5,188,633.8,189,633.8z"/>
								<path class="st27" d="M207.5,633.7c0.2,0,0.4,0.1,0.5,0.2c0.1,0.1,0.2,0.3,0.2,0.5c0,0.2-0.1,0.4-0.2,0.5
									c-0.1,0.1-0.3,0.2-0.5,0.2h-9c-0.2,0-0.4-0.1-0.6-0.2c-0.2-0.1-0.2-0.3-0.2-0.5c0-0.2,0.1-0.3,0.2-0.5l5.5-6.1
									c0.9-1,1.6-1.8,2-2.7c0.4-0.8,0.7-1.5,0.7-2.2c0-1.1-0.3-1.9-1-2.5c-0.6-0.6-1.5-0.9-2.6-0.9c-0.5,0-1,0.1-1.5,0.3
									c-0.5,0.2-0.9,0.5-1.3,0.8c-0.4,0.3-0.7,0.7-0.9,1.1c-0.1,0.2-0.2,0.3-0.3,0.3c-0.1,0.1-0.2,0.1-0.3,0.1
									c-0.2,0-0.4-0.1-0.5-0.2c-0.1-0.1-0.2-0.3-0.2-0.4c0-0.1,0-0.2,0.1-0.3c0.1-0.1,0.1-0.2,0.3-0.4c0.3-0.5,0.7-1,1.2-1.4
									c0.5-0.4,1.1-0.7,1.7-1s1.3-0.4,1.9-0.4c1,0,1.9,0.2,2.7,0.6c0.7,0.4,1.3,0.9,1.7,1.7s0.6,1.6,0.6,2.5
									c0,0.8-0.3,1.7-0.8,2.7c-0.5,1-1.3,2-2.3,3.2l-4.7,5.3l-0.2-0.3H207.5z"/>
								<path class="st27" d="M220.8,633.7c0.2,0,0.4,0.1,0.5,0.2c0.1,0.1,0.2,0.3,0.2,0.5c0,0.2-0.1,0.4-0.2,0.5
									c-0.1,0.1-0.3,0.2-0.5,0.2h-9c-0.2,0-0.4-0.1-0.6-0.2c-0.2-0.1-0.2-0.3-0.2-0.5c0-0.2,0.1-0.3,0.2-0.5l5.5-6.1
									c0.9-1,1.6-1.8,2-2.7c0.4-0.8,0.7-1.5,0.7-2.2c0-1.1-0.3-1.9-1-2.5c-0.6-0.6-1.5-0.9-2.6-0.9c-0.5,0-1,0.1-1.5,0.3
									c-0.5,0.2-0.9,0.5-1.3,0.8c-0.4,0.3-0.7,0.7-0.9,1.1c-0.1,0.2-0.2,0.3-0.3,0.3c-0.1,0.1-0.2,0.1-0.3,0.1
									c-0.2,0-0.4-0.1-0.5-0.2c-0.1-0.1-0.2-0.3-0.2-0.4c0-0.1,0-0.2,0.1-0.3c0.1-0.1,0.1-0.2,0.3-0.4c0.3-0.5,0.7-1,1.2-1.4
									c0.5-0.4,1.1-0.7,1.7-1s1.3-0.4,1.9-0.4c1,0,1.9,0.2,2.7,0.6c0.7,0.4,1.3,0.9,1.7,1.7s0.6,1.6,0.6,2.5
									c0,0.8-0.3,1.7-0.8,2.7c-0.5,1-1.3,2-2.3,3.2l-4.7,5.3l-0.2-0.3H220.8z"/>
								<path class="st27" d="M224.8,635.1c-0.3,0-0.5-0.1-0.6-0.3c-0.1-0.2-0.2-0.4-0.2-0.7v-0.5c0-0.3,0.1-0.5,0.2-0.7
									c0.1-0.2,0.4-0.2,0.6-0.2h0.2c0.3,0,0.5,0.1,0.6,0.2c0.1,0.2,0.2,0.4,0.2,0.7v0.5c0,0.3-0.1,0.5-0.2,0.7
									c-0.1,0.2-0.4,0.3-0.6,0.3H224.8z"/>
								<path class="st27" d="M239,635.1c-0.2,0-0.4-0.1-0.6-0.2c-0.1-0.1-0.2-0.3-0.2-0.5v-14.4l0.3,0.2l-3.2,2.2
									c-0.1,0.1-0.3,0.1-0.4,0.1c-0.2,0-0.4-0.1-0.5-0.2c-0.2-0.2-0.2-0.3-0.2-0.5c0-0.3,0.1-0.5,0.4-0.6l4-2.6
									c0.1-0.1,0.2-0.1,0.3-0.1c0.1,0,0.2,0,0.3,0c0.2,0,0.4,0.1,0.5,0.2c0.1,0.1,0.2,0.3,0.2,0.5v15.4c0,0.2-0.1,0.4-0.2,0.5
									C239.4,635,239.3,635.1,239,635.1z"/>
								<path class="st27" d="M249.6,635.3c-1.3,0-2.4-0.4-3.2-1.1c-0.9-0.8-1.5-1.8-1.9-3.1c-0.4-1.3-0.6-2.8-0.6-4.4
									c0-1.6,0.2-3.1,0.6-4.4c0.4-1.3,1.1-2.3,1.9-3.1c0.9-0.8,1.9-1.1,3.2-1.1c1.3,0,2.4,0.4,3.3,1.1c0.9,0.8,1.5,1.8,1.9,3.1
									c0.4,1.3,0.6,2.8,0.6,4.4c0,1.6-0.2,3.1-0.6,4.4c-0.4,1.3-1.1,2.3-1.9,3.1C252,634.9,250.9,635.3,249.6,635.3z M249.6,633.8
									c0.9,0,1.7-0.3,2.4-0.9c0.6-0.6,1.1-1.4,1.4-2.5s0.5-2.3,0.5-3.8c0-1.4-0.2-2.7-0.5-3.8c-0.3-1.1-0.8-1.9-1.4-2.5
									c-0.6-0.6-1.4-0.9-2.4-0.9c-0.9,0-1.7,0.3-2.3,0.9c-0.6,0.6-1.1,1.4-1.4,2.5c-0.3,1.1-0.5,2.3-0.5,3.8
									c0,1.4,0.2,2.7,0.5,3.8s0.8,1.9,1.4,2.5C247.9,633.5,248.7,633.8,249.6,633.8z"/>
								<path class="st27" d="M258.9,635.1c-0.3,0-0.5-0.1-0.6-0.3c-0.1-0.2-0.2-0.4-0.2-0.7v-0.5c0-0.3,0.1-0.5,0.2-0.7
									c0.1-0.2,0.4-0.2,0.6-0.2h0.2c0.3,0,0.5,0.1,0.6,0.2c0.1,0.2,0.2,0.4,0.2,0.7v0.5c0,0.3-0.1,0.5-0.2,0.7
									c-0.1,0.2-0.4,0.3-0.6,0.3H258.9z"/>
								<path class="st27" d="M269.8,632.6c0.1,0,0.2,0,0.3,0s0.2,0.1,0.3,0.2c0.3,0.4,0.7,0.6,1.2,0.8c0.5,0.2,1,0.3,1.6,0.3
									c0.8,0,1.5-0.2,2.1-0.5s1.2-0.8,1.5-1.5c0.4-0.6,0.6-1.4,0.6-2.2c0-0.9-0.2-1.7-0.6-2.2c-0.4-0.6-0.9-1-1.6-1.3
									c-0.6-0.3-1.3-0.4-1.9-0.4c-0.2,0-0.3,0-0.5,0c-0.2,0-0.3,0-0.5,0.1c-0.1,0-0.3,0-0.3,0c-0.2,0-0.4-0.1-0.5-0.2
									c-0.1-0.1-0.2-0.3-0.2-0.5c0-0.1,0-0.2,0.1-0.3c0-0.1,0.1-0.2,0.2-0.3l4.9-5.3l0.3,0.4h-7.2c-0.2,0-0.4-0.1-0.5-0.2
									c-0.1-0.1-0.2-0.3-0.2-0.5c0-0.2,0.1-0.4,0.2-0.5c0.1-0.1,0.3-0.2,0.5-0.2h8c0.3,0,0.5,0.1,0.6,0.3c0.1,0.2,0.2,0.3,0.2,0.5
									c0,0.1,0,0.2-0.1,0.3s-0.1,0.2-0.2,0.3l-4.9,5.3l-0.5-0.3c0-0.1,0.2-0.1,0.5-0.2c0.3-0.1,0.5-0.1,0.7-0.1
									c0.9,0,1.7,0.2,2.5,0.6s1.4,1,1.9,1.8c0.5,0.8,0.7,1.7,0.7,2.9c0,1.1-0.3,2.1-0.8,2.9c-0.5,0.8-1.2,1.5-2.1,2
									c-0.9,0.5-1.9,0.7-3,0.7c-0.7,0-1.3-0.1-1.9-0.3c-0.6-0.2-1.2-0.6-1.7-1c-0.1-0.1-0.2-0.2-0.3-0.3c-0.1-0.1-0.1-0.2-0.1-0.3
									c0-0.2,0.1-0.4,0.2-0.5C269.4,632.7,269.6,632.6,269.8,632.6z"/>
								<path class="st27" d="M287.4,635.3c-1.3,0-2.4-0.4-3.2-1.1c-0.9-0.8-1.5-1.8-1.9-3.1c-0.4-1.3-0.6-2.8-0.6-4.4
									c0-1.6,0.2-3.1,0.6-4.4c0.4-1.3,1.1-2.3,1.9-3.1c0.9-0.8,1.9-1.1,3.2-1.1c1.3,0,2.4,0.4,3.3,1.1c0.9,0.8,1.5,1.8,1.9,3.1
									c0.4,1.3,0.6,2.8,0.6,4.4c0,1.6-0.2,3.1-0.6,4.4c-0.4,1.3-1.1,2.3-1.9,3.1C289.8,634.9,288.7,635.3,287.4,635.3z
									 M287.4,633.8c0.9,0,1.7-0.3,2.4-0.9c0.6-0.6,1.1-1.4,1.4-2.5s0.5-2.3,0.5-3.8c0-1.4-0.2-2.7-0.5-3.8
									c-0.3-1.1-0.8-1.9-1.4-2.5c-0.6-0.6-1.4-0.9-2.4-0.9c-0.9,0-1.7,0.3-2.3,0.9c-0.6,0.6-1.1,1.4-1.4,2.5
									c-0.3,1.1-0.5,2.3-0.5,3.8c0,1.4,0.2,2.7,0.5,3.8s0.8,1.9,1.4,2.5C285.7,633.5,286.4,633.8,287.4,633.8z"/>
								<path class="st27" d="M180.7,658.3c-0.1,1.4-0.4,2.7-0.8,4.1c-0.5,1.3-1.1,2.6-1.9,3.8s-1.8,2.3-3,3.4
									c-1.2,1-2.5,1.9-3.9,2.7c-0.2,0.1-0.4,0.1-0.5-0.1l-0.5-0.8c-0.1-0.2-0.1-0.3,0.1-0.4c1.4-0.7,2.6-1.5,3.6-2.4
									s1.9-1.9,2.7-2.9c0.7-1.1,1.3-2.2,1.8-3.3c0.4-1.2,0.7-2.4,0.8-3.6c0-0.2,0-0.4-0.1-0.5c-0.1-0.1-0.3-0.1-0.5-0.1H171
									c-0.2,0-0.3-0.1-0.3-0.3v-0.8c0-0.2,0.1-0.3,0.3-0.3h7.9c0.8,0,1.2,0.1,1.5,0.4C180.6,657.3,180.7,657.7,180.7,658.3z
									 M186.7,676.9h-1c-0.2,0-0.3-0.1-0.3-0.3v-21.5c0-0.2,0.1-0.3,0.3-0.3h1c0.2,0,0.3,0.1,0.3,0.3v8.5h3.3c0.1,0,0.2,0,0.3,0.1
									c0.1,0.1,0.1,0.1,0.1,0.2v0.8c0,0.1,0,0.2-0.1,0.2s-0.2,0.1-0.3,0.1H187v11.5C187,676.8,186.9,676.9,186.7,676.9z"/>
								<path class="st27" d="M207.5,667.1c0.1,0.1,0.1,0.2,0.1,0.3v4.4h5c0.1,0,0.2,0,0.2,0.1c0.1,0.1,0.1,0.1,0.1,0.2v0.8
									c0,0.1,0,0.2-0.1,0.2s-0.2,0.1-0.2,0.1h-20.4c-0.1,0-0.2,0-0.3-0.1s-0.1-0.1-0.1-0.2V672c0-0.1,0-0.2,0.1-0.2
									c0.1-0.1,0.2-0.1,0.3-0.1h5v-4.4c0-0.1,0-0.2,0.1-0.3c0.1-0.1,0.1-0.1,0.2-0.1h1c0.1,0,0.2,0,0.2,0.1
									c0.1,0.1,0.1,0.2,0.1,0.3v4.4h7.1v-4.4c0-0.1,0-0.2,0.1-0.3c0.1-0.1,0.1-0.1,0.2-0.1h1C207.3,667,207.4,667,207.5,667.1z
									 M202.3,666.3c-0.8,0-1.7-0.1-2.6-0.3c-0.9-0.2-1.7-0.5-2.5-0.9c-0.8-0.4-1.4-0.9-1.9-1.6c-0.5-0.6-0.7-1.4-0.7-2.4
									c0-0.9,0.2-1.7,0.7-2.4c0.5-0.6,1.1-1.2,1.9-1.6c0.8-0.4,1.6-0.7,2.5-0.9c0.9-0.2,1.8-0.3,2.6-0.3c0.8,0,1.7,0.1,2.6,0.3
									c0.9,0.2,1.7,0.5,2.5,0.9c0.7,0.4,1.4,0.9,1.8,1.6s0.7,1.4,0.7,2.4c0,0.9-0.2,1.7-0.7,2.4s-1.1,1.2-1.8,1.6
									s-1.6,0.7-2.5,0.9S203.2,666.3,202.3,666.3z M202.3,657.6c-0.6,0-1.2,0-1.9,0.1c-0.7,0.1-1.3,0.3-1.9,0.5
									c-0.6,0.3-1.1,0.6-1.5,1.1c-0.4,0.5-0.6,1.1-0.6,1.8s0.2,1.3,0.6,1.8c0.4,0.5,0.9,0.8,1.5,1.1c0.6,0.3,1.2,0.4,1.9,0.5
									c0.7,0.1,1.3,0.1,1.9,0.1c0.5,0,1.1,0,1.8-0.1c0.7-0.1,1.3-0.3,1.9-0.5c0.6-0.3,1.1-0.6,1.5-1.1c0.4-0.5,0.6-1.1,0.6-1.8
									s-0.2-1.3-0.6-1.8s-0.9-0.8-1.5-1.1c-0.6-0.3-1.2-0.4-1.9-0.5C203.5,657.6,202.9,657.6,202.3,657.6z"/>
								<path class="st27" d="M214.5,676.7c-0.2,0-0.4-0.1-0.5-0.2c-0.1-0.1-0.2-0.3-0.2-0.5c0-0.1,0-0.2,0.1-0.4l10.4-20.7
									c0.1-0.2,0.2-0.4,0.3-0.5c0.1-0.1,0.3-0.1,0.4-0.1c0.1,0,0.3,0.1,0.4,0.2c0.1,0.1,0.2,0.3,0.2,0.5c0,0.1,0,0.3-0.1,0.4
									l-10.4,20.7c-0.1,0.2-0.2,0.3-0.3,0.4C214.8,676.7,214.7,676.7,214.5,676.7z"/>
								<path class="st27" d="M236.7,665.5c-0.4,0-0.7,0-0.9-0.1c-0.2,0-0.4-0.1-0.5-0.3c-0.1-0.1-0.2-0.3-0.3-0.5s-0.1-0.5-0.1-0.8
									v-8.4c0-0.1,0-0.1,0.1-0.2c0.1-0.1,0.1-0.1,0.2-0.1h1c0.1,0,0.1,0,0.2,0.1s0.1,0.1,0.1,0.2v3.7h7v-3.7c0-0.1,0-0.2,0.1-0.2
									c0.1-0.1,0.1-0.1,0.2-0.1h1c0.1,0,0.2,0,0.2,0.1c0.1,0.1,0.1,0.1,0.1,0.2v8.6c0,0.6-0.1,1-0.4,1.2c-0.3,0.2-0.7,0.3-1.4,0.3
									H236.7z M236.6,660.6v3c0,0.2,0,0.4,0.1,0.5c0.1,0.1,0.2,0.1,0.5,0.1h5.9c0.2,0,0.4,0,0.5-0.1c0.1-0.1,0.1-0.2,0.1-0.5v-3
									H236.6z M251.4,676.7c0,0.1,0,0.1-0.1,0.2c-0.1,0.1-0.1,0.1-0.2,0.1H239c-0.8,0-1.2-0.1-1.5-0.4c-0.2-0.3-0.3-0.8-0.3-1.4
									v-1.8c0-0.7,0.1-1.1,0.4-1.4c0.3-0.2,0.8-0.3,1.5-0.3h9.6c0.2,0,0.4,0,0.4-0.1c0.1-0.1,0.1-0.2,0.1-0.5v-1.4
									c0-0.2,0-0.4-0.1-0.5c-0.1-0.1-0.2-0.1-0.4-0.1h-11.3c-0.1,0-0.2,0-0.2-0.1c-0.1,0-0.1-0.1-0.1-0.2v-0.9
									c0-0.1,0-0.1,0.1-0.2s0.1-0.1,0.2-0.1H249c0.4,0,0.7,0,0.9,0.1c0.2,0.1,0.4,0.1,0.6,0.3c0.1,0.1,0.2,0.3,0.3,0.5
									c0.1,0.2,0.1,0.5,0.1,0.9v1.8c0,0.7-0.1,1.1-0.4,1.4c-0.3,0.2-0.8,0.3-1.5,0.3h-9.6c-0.2,0-0.4,0-0.4,0.1
									c-0.1,0.1-0.1,0.2-0.1,0.5v1.5c0,0.2,0,0.4,0.1,0.4c0.1,0.1,0.2,0.1,0.4,0.1H251c0.1,0,0.2,0,0.2,0.1c0.1,0,0.1,0.1,0.1,0.2
									V676.7z M250.5,666.5h-1c-0.2,0-0.3-0.1-0.3-0.3v-11c0-0.2,0.1-0.3,0.3-0.3h1c0.2,0,0.3,0.1,0.3,0.3v4.8h3.3
									c0.1,0,0.2,0,0.3,0.1s0.1,0.1,0.1,0.2v0.8c0,0.1,0,0.2-0.1,0.2s-0.2,0.1-0.3,0.1h-3.3v4.8
									C250.9,666.4,250.8,666.5,250.5,666.5z"/>
								<path class="st27" d="M259,671.4c-0.7,0-1.2-0.2-1.5-0.4s-0.4-0.7-0.4-1.4v-4.8c0-0.7,0.1-1.1,0.4-1.4s0.8-0.3,1.5-0.3h6
									c0.2,0,0.4,0,0.4-0.1c0.1-0.1,0.1-0.2,0.1-0.5v-4c0-0.2,0-0.4-0.1-0.5c-0.1-0.1-0.2-0.1-0.4-0.1h-7.6c-0.1,0-0.2,0-0.2-0.1
									c-0.1,0-0.1-0.1-0.1-0.2v-0.9c0-0.1,0-0.1,0.1-0.2s0.1-0.1,0.2-0.1h7.8c0.4,0,0.7,0,0.9,0.1s0.4,0.1,0.6,0.3
									c0.1,0.1,0.2,0.3,0.3,0.5c0.1,0.2,0.1,0.5,0.1,0.9v4.5c0,0.7-0.1,1.1-0.4,1.4c-0.3,0.2-0.8,0.3-1.5,0.3h-6.1
									c-0.2,0-0.4,0-0.4,0.1c-0.1,0.1-0.1,0.2-0.1,0.5v4.3c0,0.4,0.2,0.6,0.5,0.6c1.9,0,3.7,0,5.5-0.2c1.8-0.2,3.5-0.4,5.1-0.8
									c0.2,0,0.4,0,0.4,0.2l0.1,0.8c0,0.2-0.1,0.3-0.3,0.4c-0.8,0.2-1.7,0.4-2.7,0.5c-0.9,0.1-1.9,0.2-2.8,0.3s-1.9,0.1-2.9,0.2
									C260.9,671.5,259.9,671.5,259,671.4z M273.1,676.9h-1c-0.2,0-0.3-0.1-0.3-0.3v-21.5c0-0.2,0.1-0.3,0.3-0.3h1
									c0.2,0,0.3,0.1,0.3,0.3v8.7h3.3c0.1,0,0.2,0,0.3,0.1s0.1,0.1,0.1,0.2v0.8c0,0.1,0,0.2-0.1,0.2c-0.1,0.1-0.2,0.1-0.3,0.1
									h-3.3v11.3C273.4,676.8,273.3,676.9,273.1,676.9z"/>
								<path class="st27" d="M299.2,671.8c0.1,0.1,0.1,0.1,0.1,0.2v0.8c0,0.1,0,0.2-0.1,0.2s-0.2,0.1-0.2,0.1h-20.4
									c-0.1,0-0.2,0-0.3-0.1s-0.1-0.1-0.1-0.2V672c0-0.1,0-0.2,0.1-0.2c0.1-0.1,0.2-0.1,0.3-0.1H299
									C299.1,671.7,299.1,671.7,299.2,671.8z M296.4,666.4c0,0.2-0.1,0.3-0.3,0.3h-13c-0.7,0-1.2-0.1-1.4-0.3
									c-0.3-0.2-0.4-0.7-0.4-1.4v-6.9c0-0.7,0.1-1.1,0.4-1.4c0.3-0.2,0.7-0.3,1.4-0.3h12.8c0.2,0,0.3,0.1,0.3,0.3v0.8
									c0,0.2-0.1,0.3-0.3,0.3h-12.4c-0.2,0-0.4,0-0.5,0.1c-0.1,0.1-0.1,0.3-0.1,0.5v6.2c0,0.2,0,0.4,0.1,0.5
									c0.1,0.1,0.2,0.1,0.5,0.1h12.6c0.2,0,0.3,0.1,0.3,0.3V666.4z"/>
								<path class="st27" d="M175.4,712.3c-1.2,0-2.3-0.2-3.2-0.6c-0.9-0.4-1.8-1-2.6-1.8c-0.1-0.1-0.1-0.2-0.2-0.3
									c-0.1-0.1-0.1-0.2-0.1-0.3c0-0.2,0.1-0.4,0.2-0.5c0.2-0.2,0.3-0.2,0.5-0.2c0.2,0,0.4,0.1,0.5,0.2c0.6,0.7,1.3,1.2,2.1,1.5
									c0.8,0.4,1.6,0.5,2.6,0.5c0.8,0,1.5-0.1,2.1-0.4c0.6-0.2,1.1-0.6,1.4-1s0.5-1,0.5-1.6c0-0.7-0.2-1.3-0.6-1.8
									c-0.4-0.4-0.9-0.8-1.6-1.1c-0.7-0.3-1.4-0.6-2.2-0.8c-0.7-0.2-1.3-0.4-1.9-0.7c-0.6-0.2-1.1-0.6-1.6-0.9s-0.8-0.8-1.1-1.3
									s-0.4-1.2-0.4-1.9c0-0.8,0.2-1.6,0.7-2.3c0.4-0.7,1.1-1.2,1.9-1.6c0.8-0.4,1.8-0.6,2.9-0.6c0.9,0,1.9,0.2,2.7,0.5
									c0.9,0.3,1.6,0.8,2.1,1.4c0.2,0.3,0.4,0.5,0.4,0.7c0,0.2-0.1,0.3-0.2,0.5c-0.2,0.2-0.3,0.2-0.5,0.2c-0.2,0-0.3-0.1-0.4-0.2
									c-0.3-0.3-0.6-0.6-1-0.9c-0.4-0.3-0.9-0.5-1.4-0.6c-0.5-0.1-1-0.2-1.6-0.2c-0.8,0-1.4,0.1-2,0.3s-1.1,0.6-1.4,1
									c-0.3,0.4-0.5,1-0.5,1.6c0,0.7,0.2,1.2,0.6,1.6c0.4,0.4,0.9,0.8,1.5,1.1c0.6,0.3,1.3,0.5,2,0.8c0.7,0.2,1.3,0.4,2,0.7
									c0.6,0.2,1.2,0.6,1.7,0.9s0.9,0.8,1.2,1.4c0.3,0.6,0.4,1.3,0.4,2.1c0,0.8-0.2,1.6-0.7,2.2c-0.5,0.7-1.1,1.2-1.9,1.6
									C177.5,712.1,176.5,712.3,175.4,712.3z"/>
								<path class="st27" d="M183.6,696.6c-0.2,0-0.4-0.1-0.5-0.2c-0.1-0.1-0.2-0.3-0.2-0.5c0-0.2,0.1-0.4,0.2-0.5
									c0.1-0.1,0.3-0.2,0.5-0.2H195c0.2,0,0.4,0.1,0.5,0.2c0.1,0.1,0.2,0.3,0.2,0.5c0,0.2-0.1,0.4-0.2,0.5
									c-0.1,0.1-0.3,0.2-0.5,0.2H183.6z M189.3,712.1c-0.2,0-0.4-0.1-0.6-0.2c-0.1-0.1-0.2-0.3-0.2-0.5v-15.3h1.5v15.3
									c0,0.2-0.1,0.4-0.2,0.5C189.7,712,189.5,712.1,189.3,712.1z"/>
								<path class="st27" d="M213.8,703.7c0,1.3-0.2,2.4-0.6,3.5c-0.4,1-0.9,2-1.7,2.7c-0.7,0.8-1.6,1.4-2.6,1.8s-2.1,0.6-3.2,0.6
									c-1.2,0-2.3-0.2-3.2-0.6c-1-0.4-1.8-1-2.5-1.8s-1.3-1.7-1.7-2.7c-0.4-1-0.6-2.2-0.6-3.5c0-1.3,0.2-2.4,0.6-3.5
									c0.4-1,1-2,1.7-2.7c0.7-0.8,1.6-1.4,2.5-1.8c1-0.4,2.1-0.6,3.2-0.6c1.2,0,2.2,0.2,3.2,0.6s1.8,1,2.6,1.8
									c0.7,0.8,1.3,1.7,1.7,2.7C213.6,701.3,213.8,702.4,213.8,703.7z M212.2,703.7c0-1.4-0.3-2.7-0.8-3.8
									c-0.6-1.1-1.3-1.9-2.3-2.5c-1-0.6-2.1-0.9-3.4-0.9c-1.3,0-2.4,0.3-3.4,0.9c-1,0.6-1.8,1.5-2.3,2.5c-0.6,1.1-0.8,2.3-0.8,3.8
									c0,1.4,0.3,2.7,0.8,3.8c0.6,1.1,1.3,1.9,2.3,2.5c1,0.6,2.1,0.9,3.4,0.9c1.3,0,2.4-0.3,3.4-0.9c1-0.6,1.7-1.5,2.3-2.5
									C211.9,706.4,212.2,705.1,212.2,703.7z"/>
								<path class="st27" d="M229.5,695.3c0.2,0,0.4,0.1,0.5,0.2s0.2,0.3,0.2,0.5v15.4c0,0.2-0.1,0.4-0.2,0.6
									c-0.2,0.1-0.3,0.2-0.5,0.2c-0.1,0-0.2,0-0.3-0.1c-0.1,0-0.2-0.1-0.3-0.2l-10.7-14.4l0.4-0.2v14.2c0,0.2-0.1,0.3-0.2,0.5
									c-0.1,0.1-0.3,0.2-0.5,0.2c-0.2,0-0.4-0.1-0.5-0.2c-0.1-0.1-0.2-0.3-0.2-0.5V696c0-0.2,0.1-0.4,0.2-0.5s0.3-0.2,0.5-0.2
									c0.1,0,0.2,0,0.3,0.1c0.1,0,0.2,0.1,0.3,0.2l10.6,14.3l-0.2,0.4V696c0-0.2,0.1-0.4,0.2-0.5
									C229.1,695.3,229.3,695.3,229.5,695.3z"/>
								<path class="st27" d="M235.4,695.3h8.8c0.2,0,0.4,0.1,0.5,0.2c0.1,0.1,0.2,0.3,0.2,0.5c0,0.2-0.1,0.4-0.2,0.5
									c-0.1,0.1-0.3,0.2-0.5,0.2h-8.2l0.2-0.4v6.7l-0.3-0.3h7.2c0.2,0,0.4,0.1,0.5,0.2s0.2,0.3,0.2,0.5c0,0.2-0.1,0.4-0.2,0.5
									c-0.1,0.1-0.3,0.2-0.5,0.2h-7.1l0.2-0.2v6.9l-0.1-0.1h8.1c0.2,0,0.4,0.1,0.5,0.2c0.1,0.1,0.2,0.3,0.2,0.5
									c0,0.2-0.1,0.4-0.2,0.5c-0.1,0.1-0.3,0.2-0.5,0.2h-8.8c-0.2,0-0.4-0.1-0.5-0.2s-0.2-0.3-0.2-0.5V696c0-0.2,0.1-0.4,0.2-0.5
									S235.2,695.3,235.4,695.3z"/>
								<path class="st27" d="M255.5,695.3c0.1,0,0.2,0,0.3,0.1s0.2,0.1,0.3,0.2l6.6,9.9l-0.6,0l6.6-9.9c0.2-0.2,0.4-0.3,0.6-0.3
									c0.2,0,0.4,0.1,0.5,0.2c0.1,0.1,0.2,0.3,0.2,0.5v15.4c0,0.2-0.1,0.4-0.2,0.5c-0.2,0.1-0.3,0.2-0.5,0.2s-0.4-0.1-0.5-0.2
									c-0.1-0.1-0.2-0.3-0.2-0.5v-13.9l0.4,0l-6.1,9.2c0,0.1-0.1,0.2-0.2,0.2c-0.1,0.1-0.2,0.1-0.3,0.1s-0.2,0-0.3-0.1
									c-0.1-0.1-0.2-0.1-0.3-0.2l-6.1-9.3l0.5-0.3v14.3c0,0.2-0.1,0.4-0.2,0.5s-0.3,0.2-0.5,0.2s-0.4-0.1-0.5-0.2
									c-0.1-0.1-0.2-0.3-0.2-0.5V696c0-0.2,0.1-0.3,0.2-0.5S255.3,695.3,255.5,695.3z"/>
								<path class="st27" d="M286.6,695.3c0.2,0,0.4,0.1,0.5,0.2c0.1,0.1,0.2,0.3,0.2,0.5v9.9c0,1.2-0.3,2.3-0.8,3.2
									c-0.6,1-1.3,1.7-2.3,2.3c-0.9,0.6-2,0.9-3.2,0.9c-1.2,0-2.3-0.3-3.2-0.9c-1-0.6-1.7-1.3-2.3-2.3c-0.6-1-0.8-2-0.8-3.2V696
									c0-0.2,0.1-0.4,0.2-0.5s0.3-0.2,0.6-0.2c0.2,0,0.4,0.1,0.5,0.2c0.1,0.1,0.2,0.3,0.2,0.5v9.9c0,0.9,0.2,1.8,0.7,2.5
									c0.4,0.7,1,1.3,1.8,1.8c0.7,0.4,1.5,0.7,2.4,0.7c0.9,0,1.7-0.2,2.4-0.7c0.7-0.4,1.3-1,1.8-1.8c0.4-0.7,0.7-1.6,0.7-2.5V696
									c0-0.2,0.1-0.4,0.2-0.5S286.3,695.3,286.6,695.3z"/>
								<path class="st27" d="M296.4,712.3c-1.2,0-2.3-0.2-3.2-0.6c-0.9-0.4-1.8-1-2.6-1.8c-0.1-0.1-0.1-0.2-0.2-0.3
									c-0.1-0.1-0.1-0.2-0.1-0.3c0-0.2,0.1-0.4,0.2-0.5c0.2-0.2,0.3-0.2,0.5-0.2c0.2,0,0.4,0.1,0.5,0.2c0.6,0.7,1.3,1.2,2.1,1.5
									c0.8,0.4,1.6,0.5,2.6,0.5c0.8,0,1.5-0.1,2.1-0.4c0.6-0.2,1.1-0.6,1.4-1s0.5-1,0.5-1.6c0-0.7-0.2-1.3-0.6-1.8
									c-0.4-0.4-0.9-0.8-1.6-1.1c-0.7-0.3-1.4-0.6-2.2-0.8c-0.7-0.2-1.3-0.4-1.9-0.7c-0.6-0.2-1.1-0.6-1.6-0.9s-0.8-0.8-1.1-1.3
									s-0.4-1.2-0.4-1.9c0-0.8,0.2-1.6,0.7-2.3c0.4-0.7,1.1-1.2,1.9-1.6c0.8-0.4,1.8-0.6,2.9-0.6c0.9,0,1.9,0.2,2.7,0.5
									c0.9,0.3,1.6,0.8,2.1,1.4c0.2,0.3,0.4,0.5,0.4,0.7c0,0.2-0.1,0.3-0.2,0.5c-0.2,0.2-0.3,0.2-0.5,0.2c-0.2,0-0.3-0.1-0.4-0.2
									c-0.3-0.3-0.6-0.6-1-0.9c-0.4-0.3-0.9-0.5-1.4-0.6c-0.5-0.1-1-0.2-1.6-0.2c-0.8,0-1.4,0.1-2,0.3s-1.1,0.6-1.4,1
									c-0.3,0.4-0.5,1-0.5,1.6c0,0.7,0.2,1.2,0.6,1.6c0.4,0.4,0.9,0.8,1.5,1.1c0.6,0.3,1.3,0.5,2,0.8c0.7,0.2,1.3,0.4,2,0.7
									c0.6,0.2,1.2,0.6,1.7,0.9s0.9,0.8,1.2,1.4c0.3,0.6,0.4,1.3,0.4,2.1c0,0.8-0.2,1.6-0.7,2.2c-0.5,0.7-1.1,1.2-1.9,1.6
									C298.5,712.1,297.5,712.3,296.4,712.3z"/>
								<path class="st27" d="M306.8,711.3c0,0.2-0.1,0.4-0.3,0.5s-0.3,0.2-0.5,0.2c-0.2,0-0.4-0.1-0.6-0.2
									c-0.1-0.1-0.2-0.3-0.2-0.5V696c0-0.2,0.1-0.4,0.2-0.5c0.1-0.1,0.3-0.2,0.6-0.2c0.2,0,0.4,0.1,0.5,0.2
									c0.2,0.1,0.2,0.3,0.2,0.5V711.3z"/>
								<path class="st27" d="M323.5,696.5c0.2,0.1,0.3,0.3,0.3,0.5c0,0.2,0,0.4-0.2,0.6c-0.1,0.2-0.3,0.2-0.4,0.3
									c-0.2,0-0.3,0-0.5-0.1c-0.6-0.4-1.2-0.7-1.9-0.9c-0.7-0.2-1.4-0.3-2.2-0.3c-1,0-1.9,0.2-2.7,0.5c-0.8,0.4-1.6,0.8-2.2,1.5
									c-0.6,0.6-1.1,1.4-1.5,2.3c-0.3,0.9-0.5,1.8-0.5,2.9c0,1.1,0.2,2.1,0.5,3s0.8,1.7,1.5,2.3c0.6,0.6,1.4,1.1,2.2,1.5
									s1.7,0.5,2.7,0.5c0.8,0,1.5-0.1,2.2-0.3c0.7-0.2,1.3-0.5,2-0.9c0.2-0.1,0.3-0.1,0.5-0.1c0.2,0,0.3,0.1,0.5,0.3
									c0.1,0.2,0.2,0.4,0.1,0.6c0,0.2-0.1,0.4-0.3,0.5c-0.4,0.3-0.9,0.5-1.4,0.7c-0.5,0.2-1.1,0.4-1.7,0.5
									c-0.6,0.1-1.2,0.2-1.8,0.2c-1.2,0-2.2-0.2-3.3-0.6c-1-0.4-1.9-1-2.7-1.8c-0.8-0.8-1.4-1.7-1.8-2.7s-0.7-2.2-0.7-3.5
									c0-1.2,0.2-2.4,0.7-3.4c0.4-1,1-1.9,1.8-2.7c0.8-0.8,1.7-1.4,2.7-1.8c1-0.4,2.1-0.6,3.3-0.6c0.9,0,1.8,0.1,2.6,0.4
									S322.9,696.1,323.5,696.5z"/>
								<path class="st27" d="M334.2,695.3h8.8c0.2,0,0.4,0.1,0.5,0.2c0.1,0.1,0.2,0.3,0.2,0.5c0,0.2-0.1,0.4-0.2,0.5
									c-0.1,0.1-0.3,0.2-0.5,0.2h-8.2l0.2-0.4v6.7l-0.3-0.3h7.2c0.2,0,0.4,0.1,0.5,0.2s0.2,0.3,0.2,0.5c0,0.2-0.1,0.4-0.2,0.5
									c-0.1,0.1-0.3,0.2-0.5,0.2h-7.1l0.2-0.2v6.9l-0.1-0.1h8.1c0.2,0,0.4,0.1,0.5,0.2c0.1,0.1,0.2,0.3,0.2,0.5
									c0,0.2-0.1,0.4-0.2,0.5c-0.1,0.1-0.3,0.2-0.5,0.2h-8.8c-0.2,0-0.4-0.1-0.5-0.2s-0.2-0.3-0.2-0.5V696c0-0.2,0.1-0.4,0.2-0.5
									S334,695.3,334.2,695.3z"/>
								<path class="st27" d="M359.4,695.3c0.2,0,0.4,0.1,0.5,0.2s0.2,0.3,0.2,0.5v15.4c0,0.2-0.1,0.4-0.2,0.6
									c-0.2,0.1-0.3,0.2-0.5,0.2c-0.1,0-0.2,0-0.3-0.1c-0.1,0-0.2-0.1-0.3-0.2l-10.7-14.4l0.4-0.2v14.2c0,0.2-0.1,0.3-0.2,0.5
									c-0.1,0.1-0.3,0.2-0.5,0.2c-0.2,0-0.4-0.1-0.5-0.2c-0.1-0.1-0.2-0.3-0.2-0.5V696c0-0.2,0.1-0.4,0.2-0.5s0.3-0.2,0.5-0.2
									c0.1,0,0.2,0,0.3,0.1c0.1,0,0.2,0.1,0.3,0.2l10.6,14.3l-0.2,0.4V696c0-0.2,0.1-0.4,0.2-0.5
									C359.1,695.3,359.2,695.3,359.4,695.3z"/>
								<path class="st27" d="M363.9,696.6c-0.2,0-0.4-0.1-0.5-0.2c-0.1-0.1-0.2-0.3-0.2-0.5c0-0.2,0.1-0.4,0.2-0.5
									c0.1-0.1,0.3-0.2,0.5-0.2h11.4c0.2,0,0.4,0.1,0.5,0.2c0.1,0.1,0.2,0.3,0.2,0.5c0,0.2-0.1,0.4-0.2,0.5
									c-0.1,0.1-0.3,0.2-0.5,0.2H363.9z M369.6,712.1c-0.2,0-0.4-0.1-0.6-0.2c-0.1-0.1-0.2-0.3-0.2-0.5v-15.3h1.5v15.3
									c0,0.2-0.1,0.4-0.2,0.5C370,712,369.8,712.1,369.6,712.1z"/>
								<path class="st27" d="M379.8,695.3h8.8c0.2,0,0.4,0.1,0.5,0.2c0.1,0.1,0.2,0.3,0.2,0.5c0,0.2-0.1,0.4-0.2,0.5
									c-0.1,0.1-0.3,0.2-0.5,0.2h-8.2l0.2-0.4v6.7l-0.3-0.3h7.2c0.2,0,0.4,0.1,0.5,0.2s0.2,0.3,0.2,0.5c0,0.2-0.1,0.4-0.2,0.5
									c-0.1,0.1-0.3,0.2-0.5,0.2h-7.1l0.2-0.2v6.9l-0.1-0.1h8.1c0.2,0,0.4,0.1,0.5,0.2c0.1,0.1,0.2,0.3,0.2,0.5
									c0,0.2-0.1,0.4-0.2,0.5c-0.1,0.1-0.3,0.2-0.5,0.2h-8.8c-0.2,0-0.4-0.1-0.5-0.2s-0.2-0.3-0.2-0.5V696c0-0.2,0.1-0.4,0.2-0.5
									S379.6,695.3,379.8,695.3z"/>
								<path class="st27" d="M393.5,712.1c-0.2,0-0.4-0.1-0.6-0.2c-0.2-0.1-0.2-0.3-0.2-0.5V696c0-0.2,0.1-0.4,0.2-0.5
									s0.3-0.2,0.5-0.2h6.5c0.9,0,1.7,0.2,2.4,0.6c0.7,0.4,1.3,0.9,1.7,1.6c0.4,0.7,0.6,1.5,0.6,2.4c0,0.7-0.1,1.3-0.4,1.9
									c-0.3,0.6-0.6,1.1-1.1,1.5c-0.5,0.4-1,0.7-1.6,0.9l-0.8-0.3c0.6,0.1,1.1,0.3,1.7,0.6c0.5,0.3,0.9,0.8,1.2,1.3
									c0.3,0.6,0.5,1.2,0.5,2c0,0.7,0.1,1.2,0.1,1.6c0.1,0.4,0.1,0.7,0.3,0.9s0.3,0.3,0.4,0.5c0.2,0.1,0.3,0.2,0.3,0.4
									c0.1,0.2,0,0.3-0.1,0.5c-0.1,0.1-0.2,0.2-0.3,0.3s-0.3,0.1-0.4,0.1c-0.1,0-0.2,0-0.4-0.1c-0.2-0.1-0.5-0.3-0.7-0.6
									c-0.2-0.3-0.4-0.7-0.6-1.2c-0.2-0.5-0.2-1.3-0.2-2.2c0-0.6-0.1-1.1-0.3-1.5s-0.5-0.7-0.8-0.9c-0.3-0.2-0.7-0.4-1-0.5
									c-0.4-0.1-0.7-0.1-1.1-0.1H394l0.3-0.4v6.8c0,0.2-0.1,0.4-0.2,0.5C393.9,712,393.8,712.1,393.5,712.1z M394,703.6h6
									c0.5,0,1.1-0.2,1.5-0.5c0.5-0.3,0.9-0.7,1.2-1.3c0.3-0.6,0.5-1.2,0.5-1.9c0-0.9-0.3-1.7-0.9-2.3c-0.6-0.6-1.4-0.9-2.4-0.9
									h-5.7l0.2-0.3v7.5L394,703.6z"/>
								<path class="st27" d="M408.1,696.6c-0.2,0-0.4-0.1-0.5-0.2c-0.1-0.1-0.2-0.3-0.2-0.5c0-0.2,0.1-0.4,0.2-0.5
									c0.1-0.1,0.3-0.2,0.5-0.2h11.4c0.2,0,0.4,0.1,0.5,0.2c0.1,0.1,0.2,0.3,0.2,0.5c0,0.2-0.1,0.4-0.2,0.5
									c-0.1,0.1-0.3,0.2-0.5,0.2H408.1z M413.8,712.1c-0.2,0-0.4-0.1-0.6-0.2c-0.1-0.1-0.2-0.3-0.2-0.5v-15.3h1.5v15.3
									c0,0.2-0.1,0.4-0.2,0.5C414.2,712,414,712.1,413.8,712.1z"/>
								<path class="st27" d="M428.9,697.2l-5.8,14.5c-0.1,0.2-0.2,0.3-0.3,0.4c-0.1,0.1-0.2,0.1-0.4,0.1c-0.2,0-0.4-0.1-0.5-0.2
									c-0.1-0.1-0.2-0.3-0.2-0.4c0-0.1,0-0.2,0-0.3l6.3-15.5c0.1-0.2,0.2-0.3,0.3-0.4c0.1-0.1,0.3-0.1,0.4-0.1
									c0.2,0,0.3,0,0.4,0.1c0.1,0.1,0.2,0.2,0.3,0.3l6.3,15.4c0,0.1,0,0.2,0,0.3c0,0.2-0.1,0.4-0.2,0.5c-0.1,0.1-0.3,0.2-0.5,0.2
									c-0.2,0-0.3,0-0.4-0.1c-0.1-0.1-0.2-0.2-0.3-0.3l-6-14.6L428.9,697.2z M424.5,707.2l0.6-1.4h7.4l0.3,1.4H424.5z"/>
								<path class="st27" d="M440.3,711.3c0,0.2-0.1,0.4-0.3,0.5s-0.3,0.2-0.5,0.2c-0.2,0-0.4-0.1-0.6-0.2
									c-0.1-0.1-0.2-0.3-0.2-0.5V696c0-0.2,0.1-0.4,0.2-0.5c0.1-0.1,0.3-0.2,0.6-0.2c0.2,0,0.4,0.1,0.5,0.2
									c0.2,0.1,0.2,0.3,0.2,0.5V711.3z"/>
								<path class="st27" d="M457.1,695.3c0.2,0,0.4,0.1,0.5,0.2s0.2,0.3,0.2,0.5v15.4c0,0.2-0.1,0.4-0.2,0.6
									c-0.2,0.1-0.3,0.2-0.5,0.2c-0.1,0-0.2,0-0.3-0.1c-0.1,0-0.2-0.1-0.3-0.2l-10.7-14.4l0.4-0.2v14.2c0,0.2-0.1,0.3-0.2,0.5
									c-0.1,0.1-0.3,0.2-0.5,0.2c-0.2,0-0.4-0.1-0.5-0.2c-0.1-0.1-0.2-0.3-0.2-0.5V696c0-0.2,0.1-0.4,0.2-0.5s0.3-0.2,0.5-0.2
									c0.1,0,0.2,0,0.3,0.1c0.1,0,0.2,0.1,0.3,0.2l10.6,14.3l-0.2,0.4V696c0-0.2,0.1-0.4,0.2-0.5
									C456.8,695.3,456.9,695.3,457.1,695.3z"/>
								<path class="st27" d="M463,695.3c0.1,0,0.2,0,0.3,0.1s0.2,0.1,0.3,0.2l6.6,9.9l-0.6,0l6.6-9.9c0.2-0.2,0.4-0.3,0.6-0.3
									c0.2,0,0.4,0.1,0.5,0.2c0.1,0.1,0.2,0.3,0.2,0.5v15.4c0,0.2-0.1,0.4-0.2,0.5c-0.2,0.1-0.3,0.2-0.5,0.2s-0.4-0.1-0.5-0.2
									c-0.1-0.1-0.2-0.3-0.2-0.5v-13.9l0.4,0l-6.1,9.2c0,0.1-0.1,0.2-0.2,0.2c-0.1,0.1-0.2,0.1-0.3,0.1s-0.2,0-0.3-0.1
									c-0.1-0.1-0.2-0.1-0.3-0.2l-6.1-9.3l0.5-0.3v14.3c0,0.2-0.1,0.4-0.2,0.5s-0.3,0.2-0.5,0.2s-0.4-0.1-0.5-0.2
									c-0.1-0.1-0.2-0.3-0.2-0.5V696c0-0.2,0.1-0.3,0.2-0.5S462.8,695.3,463,695.3z"/>
								<path class="st27" d="M482.9,695.3h8.8c0.2,0,0.4,0.1,0.5,0.2c0.1,0.1,0.2,0.3,0.2,0.5c0,0.2-0.1,0.4-0.2,0.5
									c-0.1,0.1-0.3,0.2-0.5,0.2h-8.2l0.2-0.4v6.7l-0.3-0.3h7.2c0.2,0,0.4,0.1,0.5,0.2s0.2,0.3,0.2,0.5c0,0.2-0.1,0.4-0.2,0.5
									c-0.1,0.1-0.3,0.2-0.5,0.2h-7.1l0.2-0.2v6.9l-0.1-0.1h8.1c0.2,0,0.4,0.1,0.5,0.2c0.1,0.1,0.2,0.3,0.2,0.5
									c0,0.2-0.1,0.4-0.2,0.5c-0.1,0.1-0.3,0.2-0.5,0.2h-8.8c-0.2,0-0.4-0.1-0.5-0.2s-0.2-0.3-0.2-0.5V696c0-0.2,0.1-0.4,0.2-0.5
									S482.7,695.3,482.9,695.3z"/>
								<path class="st27" d="M508.1,695.3c0.2,0,0.4,0.1,0.5,0.2s0.2,0.3,0.2,0.5v15.4c0,0.2-0.1,0.4-0.2,0.6
									c-0.2,0.1-0.3,0.2-0.5,0.2c-0.1,0-0.2,0-0.3-0.1c-0.1,0-0.2-0.1-0.3-0.2l-10.7-14.4l0.4-0.2v14.2c0,0.2-0.1,0.3-0.2,0.5
									c-0.1,0.1-0.3,0.2-0.5,0.2c-0.2,0-0.4-0.1-0.5-0.2c-0.1-0.1-0.2-0.3-0.2-0.5V696c0-0.2,0.1-0.4,0.2-0.5s0.3-0.2,0.5-0.2
									c0.1,0,0.2,0,0.3,0.1c0.1,0,0.2,0.1,0.3,0.2l10.6,14.3l-0.2,0.4V696c0-0.2,0.1-0.4,0.2-0.5
									C507.7,695.3,507.9,695.3,508.1,695.3z"/>
								<path class="st27" d="M512.5,696.6c-0.2,0-0.4-0.1-0.5-0.2c-0.1-0.1-0.2-0.3-0.2-0.5c0-0.2,0.1-0.4,0.2-0.5
									c0.1-0.1,0.3-0.2,0.5-0.2h11.4c0.2,0,0.4,0.1,0.5,0.2c0.1,0.1,0.2,0.3,0.2,0.5c0,0.2-0.1,0.4-0.2,0.5
									c-0.1,0.1-0.3,0.2-0.5,0.2H512.5z M518.2,712.1c-0.2,0-0.4-0.1-0.6-0.2c-0.1-0.1-0.2-0.3-0.2-0.5v-15.3h1.5v15.3
									c0,0.2-0.1,0.4-0.2,0.5C518.6,712,518.5,712.1,518.2,712.1z"/>
							</g>
						</g>
					</g>
				</g>
			</g>
		</g>
	</g>
</g>
<g>
	<path class="st0" d="M633.7,19C662,19,685,42,685,70.3v1337.5c0,28.3-23,51.3-51.3,51.3H70.3c-28.3,0-51.3-23-51.3-51.3V70.3
		C19,42,42,19,70.3,19H633.7 M633.7,12H70.3C38.1,12,12,38.1,12,70.3v1337.5c0,32.1,26.1,58.3,58.3,58.3h563.5
		c32.1,0,58.3-26.1,58.3-58.3V70.3C692,38.1,665.9,12,633.7,12L633.7,12z"/>
</g>
<g>
	<path class="st0" d="M633.7,19C662,19,685,42,685,70.3v1337.5c0,28.3-23,51.3-51.3,51.3H70.3c-28.3,0-51.3-23-51.3-51.3V70.3
		C19,42,42,19,70.3,19H633.7 M633.7,12H70.3C38.1,12,12,38.1,12,70.3v1337.5c0,32.1,26.1,58.3,58.3,58.3h563.5
		c32.1,0,58.3-26.1,58.3-58.3V70.3C692,38.1,665.9,12,633.7,12L633.7,12z"/>
</g>
<g>
	<path class="st0" d="M633.7,19C662,19,685,42,685,70.3v1337.5c0,28.3-23,51.3-51.3,51.3H70.3c-28.3,0-51.3-23-51.3-51.3V70.3
		C19,42,42,19,70.3,19H633.7 M633.7,12H70.3C38.1,12,12,38.1,12,70.3v1337.5c0,32.1,26.1,58.3,58.3,58.3h563.5
		c32.1,0,58.3-26.1,58.3-58.3V70.3C692,38.1,665.9,12,633.7,12L633.7,12z"/>
</g>
<g>
	<path class="st0" d="M633.7,19C662,19,685,42,685,70.3v1337.5c0,28.3-23,51.3-51.3,51.3H70.3c-28.3,0-51.3-23-51.3-51.3V70.3
		C19,42,42,19,70.3,19H633.7 M633.7,12H70.3C38.1,12,12,38.1,12,70.3v1337.5c0,32.1,26.1,58.3,58.3,58.3h563.5
		c32.1,0,58.3-26.1,58.3-58.3V70.3C692,38.1,665.9,12,633.7,12L633.7,12z"/>
</g>
<g>
	<path class="st0" d="M633.7,19C662,19,685,42,685,70.3v1337.5c0,28.3-23,51.3-51.3,51.3H70.3c-28.3,0-51.3-23-51.3-51.3V70.3
		C19,42,42,19,70.3,19H633.7 M633.7,12H70.3C38.1,12,12,38.1,12,70.3v1337.5c0,32.1,26.1,58.3,58.3,58.3h563.5
		c32.1,0,58.3-26.1,58.3-58.3V70.3C692,38.1,665.9,12,633.7,12L633.7,12z"/>
</g>
<g>
	<path class="st0" d="M633.7,19C662,19,685,42,685,70.3v1337.5c0,28.3-23,51.3-51.3,51.3H70.3c-28.3,0-51.3-23-51.3-51.3V70.3
		C19,42,42,19,70.3,19H633.7 M633.7,12H70.3C38.1,12,12,38.1,12,70.3v1337.5c0,32.1,26.1,58.3,58.3,58.3h563.5
		c32.1,0,58.3-26.1,58.3-58.3V70.3C692,38.1,665.9,12,633.7,12L633.7,12z"/>
</g>
<g>
	<path class="st0" d="M633.7,19C662,19,685,42,685,70.3v1337.5c0,28.3-23,51.3-51.3,51.3H70.3c-28.3,0-51.3-23-51.3-51.3V70.3
		C19,42,42,19,70.3,19H633.7 M633.7,12H70.3C38.1,12,12,38.1,12,70.3v1337.5c0,32.1,26.1,58.3,58.3,58.3h563.5
		c32.1,0,58.3-26.1,58.3-58.3V70.3C692,38.1,665.9,12,633.7,12L633.7,12z"/>
</g>
<g id="Layer_4">
</g>
</svg>
