<?xml version="1.0" encoding="utf-8"?>
<!-- Generator: Adobe Illustrator 22.1.0, SVG Export Plug-In . SVG Version: 6.00 Build 0)  -->
<svg version="1.1" id="Layer_1" xmlns="http://www.w3.org/2000/svg" xmlns:xlink="http://www.w3.org/1999/xlink" x="0px" y="0px"
	 viewBox="0 0 1596 1485" style="enable-background:new 0 0 1596 1485;" xml:space="preserve">
<style type="text/css">
	.st0{fill:#ECF0F3;}
	.st1{clip-path:url(#SVGID_2_);fill:#F7F7F9;}
	.st2{clip-path:url(#SVGID_2_);}
	.st3{fill:#FEFEFE;}
	.st4{clip-path:url(#SVGID_2_);fill:#121212;stroke:#FCFCFA;stroke-miterlimit:10;}
	.st5{clip-path:url(#SVGID_2_);fill:none;stroke:#000000;stroke-miterlimit:10;}
	.st6{clip-path:url(#SVGID_2_);fill:#E58777;stroke:#000000;stroke-miterlimit:10;}
	.st7{fill:#FCFCFA;}
	.st8{font-family:'Pretendard-Medium-KSCpc-EUC-H';}
	.st9{font-size:20px;}
	.st10{fill:#FFFFFF;}
	.st11{font-family:'Pretendard-ExtraLight-KSCpc-EUC-H';}
	.st12{fill:#FCFCFA;stroke:#FCFCFA;stroke-width:2;stroke-miterlimit:10;}
	.st13{fill:none;stroke:#FCFCFA;stroke-width:2;stroke-miterlimit:10;}
	.st14{clip-path:url(#SVGID_2_);fill:#FCFCFA;stroke:#FCFCFA;stroke-miterlimit:10;}
	.st15{fill:#FCFCFA;stroke:#FCFCFA;stroke-miterlimit:10;}
	.st16{clip-path:url(#SVGID_2_);fill:none;}
	.st17{fill:none;stroke:#000000;stroke-miterlimit:10;}
	.st18{fill:#61F7A0;}
	.st19{font-family:'NanumGothic';}
	.st20{font-size:30px;}
	.st21{fill:#1EFFA3;stroke:#000000;stroke-miterlimit:10;}
	.st22{fill:#9C9C9D;}
	.st23{clip-path:url(#SVGID_2_);fill:#E6E6FA;stroke:#070707;stroke-miterlimit:10;}
	.st24{clip-path:url(#SVGID_2_);fill:#379CEF;stroke:#070707;stroke-miterlimit:10;}
	.st25{font-family:'MyriadPro-Regular';}
	.st26{font-size:12px;}
	.st27{fill:#379CEF;}
	.st28{fill:#1EFFA3;}
	.st29{fill:#E6E6FA;}
	.st30{fill:#6495ED;}
	.st31{fill:#F1EF58;}
	.st32{fill:#F85B46;}
	.st33{fill:none;stroke:#6495ED;stroke-width:3;stroke-linecap:round;stroke-miterlimit:10;}
	.st34{fill:none;}
	.st35{font-family:'NotoSansKR-Regular-KSCpc-EUC-H';}
	.st36{font-size:27px;}
	.st37{fill:none;stroke:#6495ED;stroke-width:3;stroke-linecap:round;stroke-miterlimit:10;stroke-dasharray:11.8966,11.8966;}
</style>
<path class="st0" d="M1063.7,19c28.3,0,51.3,23,51.3,51.3v1337.5c0,28.3-23,51.3-51.3,51.3H500.3c-28.3,0-51.3-23-51.3-51.3V70.3
	C449,42,472,19,500.3,19H1063.7 M1063.7,12H500.3C468.1,12,442,38.1,442,70.3v1337.5c0,32.1,26.1,58.3,58.3,58.3h563.5
	c32.1,0,58.3-26.1,58.3-58.3V70.3C1122,38.1,1095.9,12,1063.7,12L1063.7,12z"/>
<g>
	<defs>
		<path id="SVGID_1_" d="M1063.7,1459H500.3c-28.3,0-51.3-23-51.3-51.3V70.3C449,42,472,19,500.3,19h563.5c28.3,0,51.3,23,51.3,51.3
			v1337.5C1115,1436,1092,1459,1063.7,1459z"/>
	</defs>
	<clipPath id="SVGID_2_">
		<use xlink:href="#SVGID_1_"  style="overflow:visible;"/>
	</clipPath>
	<polygon class="st1" points="1216.2,1458.8 351.1,1458.8 349.8,18.8 1216.2,18.8 	"/>
	<g class="st2">
		<path class="st3" d="M472.9,219.7h618.6c13.1,0,23.7,10.6,23.7,23.7v1218.3h-666V243.4C449.2,230.3,459.8,219.7,472.9,219.7z"/>
	</g>
	<path class="st4" d="M915.8,1373.1"/>
	<path class="st4" d="M906.4,1373.1"/>
	<path class="st5" d="M1042.6,405.1l35.2-0.3c1.1,0,1.9,1.1,1.9,2.4v50.2c0,2.1-2,3.2-3.2,1.7l-15.4-19.2c-0.5-0.6-1.3-0.6-1.8,0
		l-15.4,19.2c-1.2,1.5-3.2,0.4-3.2-1.7v-50C1040.7,406.2,1041.5,405.1,1042.6,405.1z"/>
	<path class="st6" d="M1024.1,558"/>
	<g class="st2">
		<text transform="matrix(1 0 0 1 507.5459 1410.9672)" class="st7 st8 st9">옥션</text>
	</g>
	<g class="st2">
		<g>
			<text transform="matrix(1 0 0 1 743.2584 1411.3975)" class="st10 st11 st9">마이 뮤카</text>
		</g>
	</g>
	<g class="st2">
		<g>
			<text transform="matrix(1 0 0 1 888.9678 1411.3973)" class="st10 st11 st9">추천</text>
		</g>
	</g>
	<g class="st2">
		<text transform="matrix(1 0 0 1 1005.691 1411.3977)" class="st10 st11 st9">더보기</text>
	</g>
	<g class="st2">
		<ellipse class="st7" cx="1013.6" cy="1361.3" rx="2.5" ry="3"/>
		<ellipse class="st7" cx="1030.6" cy="1361.3" rx="2.5" ry="3"/>
		<ellipse class="st7" cx="1047.6" cy="1361.3" rx="2.5" ry="3"/>
	</g>
	<g class="st2">
		<text transform="matrix(1 0 0 1 627.9995 1411.3977)" class="st10 st11 st9">마켓</text>
	</g>
	<g class="st2">
		<circle class="st12" cx="639.5" cy="1373.4" r="6.1"/>
		<path class="st13" d="M645.6,1372.7v-31.4c0,0,20.2,13.8,7,24.5"/>
	</g>
	<g class="st2">
		<circle class="st7" cx="779.1" cy="1349.1" r="7.3"/>
		<g>
			<path class="st7" d="M779.1,1358.9c-6.5,0-11.8,7.3-11.8,16.2v5.5h23.6v-5.5C790.9,1366.2,785.6,1358.9,779.1,1358.9"/>
		</g>
	</g>
	<path class="st14" d="M907.9,1374.3h6.5c3.1,0,5.6-2.8,5.6-6.3v-19.5c0-3.5-2.5-6.3-5.6-6.3h-17.3c-3.1,0-5.6,2.8-5.6,6.3v19.5
		c0,3.5,2.5,6.3,5.6,6.3h6.5l2.1,6.7L907.9,1374.3z"/>
	<g class="st2">
		<path class="st15" d="M527.6,1366.1h8.3c3.9,0,7.1-2.1,7.1-4.8v-14.8c0-2.6-3.2-4.8-7.1-4.8h-22.1c-3.9,0-7.1,2.1-7.1,4.8v14.8
			c0,2.6,3.2,4.8,7.1,4.8h8.3H527.6z"/>
		<rect x="523.2" y="1366.1" class="st15" width="3.2" height="14.5"/>
	</g>
	<g class="st2">
		<path d="M489.4,440c-0.7,0-1.2-0.2-1.6-0.7s-0.7-1-0.7-1.7v-30.5c0-0.7,0.2-1.2,0.7-1.7s1-0.7,1.6-0.7c0.7,0,1.2,0.2,1.7,0.7
			s0.7,1,0.7,1.7v28.1h16.3c0.7,0,1.2,0.2,1.7,0.7s0.7,1,0.7,1.7s-0.2,1.2-0.7,1.7s-1,0.7-1.7,0.7L489.4,440L489.4,440z"/>
		<path d="M525.4,440.1c-2.4,0-4.6-0.5-6.4-1.6c-1.9-1.1-3.3-2.5-4.4-4.4c-1.1-1.9-1.6-4-1.6-6.5s0.5-4.6,1.6-6.5s2.5-3.3,4.4-4.4
			s4-1.6,6.4-1.6s4.5,0.5,6.4,1.6s3.3,2.5,4.4,4.4c1.1,1.9,1.6,4,1.6,6.5c0,2.4-0.5,4.6-1.6,6.5s-2.5,3.3-4.4,4.4
			S527.8,440.1,525.4,440.1z M525.4,436.1c1.6,0,2.9-0.4,4.1-1.1s2.1-1.7,2.8-3s1-2.7,1-4.4c0-1.6-0.3-3.1-1-4.4s-1.6-2.3-2.8-3
			s-2.6-1.1-4.1-1.1c-1.6,0-2.9,0.4-4.1,1.1c-1.2,0.7-2.1,1.7-2.8,3s-1,2.7-1,4.4c0,1.7,0.3,3.1,1,4.4s1.6,2.2,2.8,3
			C522.4,435.7,523.8,436.1,525.4,436.1z"/>
		<path d="M550.2,439.9c-0.9,0-1.7-0.5-2.2-1.5l-9.5-20.1c-0.2-0.5-0.3-1-0.1-1.5s0.6-0.9,1.1-1.1c0.5-0.3,1-0.3,1.6-0.1
			c0.5,0.2,0.9,0.5,1.2,1l8.9,19.2H549l8.8-19.2c0.3-0.5,0.7-0.9,1.2-1c0.6-0.2,1.1-0.1,1.7,0.1c0.5,0.2,0.9,0.6,1.1,1.1
			c0.2,0.5,0.1,1-0.1,1.5l-9.5,20.1C551.8,439.4,551.1,439.9,550.2,439.9z"/>
		<path d="M575.8,440.1c-2.5,0-4.7-0.5-6.6-1.6c-1.9-1.1-3.5-2.5-4.5-4.4c-1.1-1.9-1.6-4-1.6-6.5s0.5-4.6,1.6-6.5s2.5-3.3,4.3-4.4
			s3.9-1.6,6.3-1.6c2.3,0,4.3,0.5,6,1.6c1.7,1,3,2.5,3.8,4.3c0.9,1.8,1.3,3.9,1.3,6.3c0,0.6-0.2,1-0.6,1.4s-0.9,0.6-1.5,0.6h-18.1
			v-3.6h18l-1.8,1.3c0-1.5-0.3-2.8-0.9-4c-0.6-1.2-1.4-2.1-2.4-2.8s-2.3-1-3.8-1c-1.7,0-3.2,0.4-4.4,1.1s-2.1,1.8-2.8,3.1
			c-0.6,1.3-0.9,2.8-0.9,4.4c0,1.7,0.4,3.1,1.1,4.4c0.8,1.3,1.8,2.3,3.1,3.1c1.3,0.8,2.8,1.1,4.5,1.1c0.9,0,1.9-0.2,2.9-0.5
			s1.8-0.7,2.4-1.2c0.5-0.3,0.9-0.5,1.5-0.5c0.5,0,1,0.1,1.4,0.5c0.5,0.5,0.8,0.9,0.8,1.5c0,0.5-0.2,1-0.7,1.4c-1,0.8-2.3,1.5-3.8,2
			C578.7,439.9,577.2,440.1,575.8,440.1z"/>
		<path d="M605.5,440c-0.7,0-1.2-0.2-1.7-0.7s-0.7-1-0.7-1.7v-30.5c0-0.7,0.2-1.3,0.7-1.7s1-0.7,1.7-0.7h8.1c2.6,0,4.9,0.4,7,1.3
			s4,2.1,5.5,3.6c1.6,1.6,2.8,3.4,3.6,5.6c0.8,2.1,1.3,4.5,1.3,7.1s-0.4,4.9-1.3,7.1c-0.8,2.1-2,4-3.6,5.6s-3.4,2.8-5.5,3.6
			c-2.1,0.9-4.5,1.3-7,1.3h-8.1V440z M607.8,435.8h5.8c2.5,0,4.7-0.6,6.7-1.7c1.9-1.2,3.5-2.7,4.6-4.8c1.1-2,1.7-4.3,1.7-7
			c0-2.6-0.6-5-1.7-7c-1.1-2-2.6-3.6-4.6-4.7c-1.9-1.1-4.2-1.7-6.7-1.7h-5.8V435.8z"/>
		<path d="M639.3,411.3c-0.8,0-1.5-0.3-2.1-0.9s-0.9-1.3-0.9-2.1c0-0.8,0.3-1.5,0.9-2.1s1.3-0.9,2.1-0.9s1.5,0.3,2.1,0.9
			s0.9,1.3,0.9,2.1c0,0.8-0.3,1.5-0.9,2.1S640.2,411.3,639.3,411.3z M639.3,440c-0.7,0-1.2-0.2-1.6-0.7c-0.4-0.4-0.7-1-0.7-1.6v-20
			c0-0.7,0.2-1.2,0.7-1.7c0.4-0.4,1-0.6,1.6-0.6c0.7,0,1.2,0.2,1.7,0.6c0.4,0.4,0.6,1,0.6,1.7v20c0,0.7-0.2,1.2-0.6,1.6
			S640,440,639.3,440z"/>
		<path d="M657.2,439.9c-0.9,0-1.7-0.5-2.2-1.5l-9.5-20.1c-0.2-0.5-0.3-1-0.1-1.5s0.6-0.9,1.1-1.1c0.5-0.3,1-0.3,1.6-0.1
			c0.5,0.2,0.9,0.5,1.2,1l8.9,19.2H656l8.8-19.2c0.3-0.5,0.7-0.9,1.2-1c0.6-0.2,1.1-0.1,1.7,0.1c0.5,0.2,0.9,0.6,1.1,1.1
			c0.2,0.5,0.1,1-0.1,1.5l-9.5,20.1C658.8,439.4,658.1,439.9,657.2,439.9z"/>
		<path d="M682.8,440.1c-2.5,0-4.7-0.5-6.6-1.6c-1.9-1.1-3.5-2.5-4.5-4.4c-1.1-1.9-1.6-4-1.6-6.5s0.5-4.6,1.6-6.5s2.5-3.3,4.3-4.4
			s3.9-1.6,6.3-1.6c2.3,0,4.3,0.5,6,1.6c1.7,1,3,2.5,3.8,4.3c0.9,1.8,1.3,3.9,1.3,6.3c0,0.6-0.2,1-0.6,1.4s-0.9,0.6-1.5,0.6h-18.1
			v-3.6h18l-1.8,1.3c0-1.5-0.3-2.8-0.9-4c-0.6-1.2-1.4-2.1-2.4-2.8s-2.3-1-3.8-1c-1.7,0-3.2,0.4-4.4,1.1s-2.1,1.8-2.8,3.1
			c-0.6,1.3-0.9,2.8-0.9,4.4c0,1.7,0.4,3.1,1.1,4.4c0.8,1.3,1.8,2.3,3.1,3.1c1.3,0.8,2.8,1.1,4.5,1.1c0.9,0,1.9-0.2,2.9-0.5
			s1.8-0.7,2.4-1.2c0.5-0.3,0.9-0.5,1.5-0.5c0.5,0,1,0.1,1.4,0.5c0.5,0.5,0.8,0.9,0.8,1.5c0,0.5-0.2,1-0.7,1.4c-1,0.8-2.3,1.5-3.8,2
			C685.6,439.9,684.2,440.1,682.8,440.1z"/>
		<path d="M497.8,467.4c0,1-0.1,2.1-0.4,3.1c-0.2,1-0.6,2-1.2,2.8c-0.5,0.8-1.2,1.5-2,2.1c-0.8,0.5-1.8,0.8-3,0.8s-2.2-0.3-3.1-0.8
			c-0.8-0.5-1.5-1.2-2-2.1s-0.9-1.8-1.1-2.8s-0.3-2.1-0.3-3.1c0-1.1,0.1-2.1,0.3-3.2c0.2-1.1,0.6-2,1.1-2.8s1.2-1.5,2-2
			s1.9-0.8,3.1-0.8s2.2,0.3,3,0.8s1.5,1.2,2,2s0.9,1.8,1.2,2.8C497.7,465.3,497.8,466.3,497.8,467.4z M495.8,467.4
			c0-0.8-0.1-1.7-0.3-2.5c-0.2-0.8-0.4-1.6-0.8-2.3c-0.4-0.7-0.8-1.2-1.4-1.7c-0.6-0.4-1.3-0.6-2.1-0.6c-0.9,0-1.6,0.2-2.2,0.6
			s-1,1-1.4,1.7c-0.3,0.7-0.6,1.4-0.7,2.3c-0.1,0.8-0.2,1.7-0.2,2.5s0.1,1.6,0.2,2.4s0.4,1.6,0.7,2.3c0.3,0.7,0.8,1.3,1.4,1.7
			c0.6,0.4,1.3,0.7,2.2,0.7c0.8,0,1.6-0.2,2.1-0.7c0.6-0.4,1.1-1,1.4-1.7c0.4-0.7,0.6-1.5,0.8-2.3
			C495.8,469,495.8,468.2,495.8,467.4z M503.4,482.3h-1.1c-0.3,0-0.4-0.1-0.4-0.4v-24.6c0-0.3,0.1-0.4,0.4-0.4h1.1
			c0.3,0,0.4,0.1,0.4,0.4v10h3.8c0.1,0,0.2,0,0.3,0.1c0.1,0.1,0.1,0.2,0.1,0.3v0.9c0,0.1,0,0.2-0.1,0.2c-0.1,0.1-0.2,0.1-0.3,0.1
			h-3.8v12.9C503.8,482.2,503.7,482.3,503.4,482.3z"/>
		<path d="M524.2,467.4c0,1-0.1,2.1-0.4,3.1c-0.2,1-0.6,2-1.2,2.8c-0.5,0.8-1.2,1.5-2,2.1c-0.8,0.5-1.8,0.8-3,0.8s-2.2-0.3-3.1-0.8
			c-0.8-0.5-1.5-1.2-2-2.1s-0.9-1.8-1.1-2.8s-0.3-2.1-0.3-3.1c0-1.1,0.1-2.1,0.3-3.2c0.2-1.1,0.6-2,1.1-2.8s1.2-1.5,2-2
			s1.9-0.8,3.1-0.8c1.2,0,2.2,0.3,3,0.8s1.5,1.2,2,2s0.9,1.8,1.2,2.8C524,465.3,524.2,466.3,524.2,467.4z M522.2,467.4
			c0-0.8-0.1-1.7-0.3-2.6s-0.4-1.6-0.8-2.3c-0.4-0.7-0.8-1.2-1.4-1.7s-1.3-0.6-2.1-0.6c-0.9,0-1.6,0.2-2.2,0.6c-0.6,0.4-1,1-1.4,1.7
			s-0.6,1.5-0.7,2.3c-0.1,0.9-0.2,1.7-0.2,2.6c0,0.8,0.1,1.6,0.2,2.5s0.4,1.6,0.7,2.3c0.3,0.7,0.8,1.3,1.4,1.7s1.3,0.7,2.2,0.7
			c0.8,0,1.6-0.2,2.1-0.7s1.1-1,1.4-1.7c0.4-0.7,0.6-1.5,0.8-2.3C522.1,469,522.2,468.2,522.2,467.4z M530.2,482.3h-1.1
			c-0.3,0-0.4-0.1-0.4-0.4v-24.6c0-0.3,0.1-0.4,0.4-0.4h1.1c0.3,0,0.4,0.1,0.4,0.4v24.6C530.6,482.2,530.5,482.3,530.2,482.3z"/>
		<path d="M559.2,476.4c0.1,0.1,0.1,0.2,0.1,0.3v0.9c0,0.1,0,0.2-0.1,0.2c-0.1,0.1-0.2,0.1-0.3,0.1h-23.4c-0.1,0-0.2,0-0.3-0.1
			s-0.1-0.2-0.1-0.2v-0.9c0-0.1,0-0.2,0.1-0.3c0.1-0.1,0.2-0.1,0.3-0.1h23.4C559,476.3,559.1,476.3,559.2,476.4z M540.7,470.9
			c-0.4,0-0.8,0-1.1-0.1s-0.5-0.2-0.6-0.3c-0.1-0.2-0.2-0.4-0.3-0.6s-0.1-0.6-0.1-0.9v-10.6c0-0.1,0-0.2,0.1-0.2s0.2-0.1,0.2-0.1
			h1.2c0.1,0,0.2,0,0.2,0.1c0.1,0.1,0.1,0.1,0.1,0.2v4.5h13.2v-4.5c0-0.1,0-0.2,0.1-0.2c0.1-0.1,0.1-0.1,0.2-0.1h1.2
			c0.1,0,0.2,0,0.2,0.1c0.1,0.1,0.1,0.1,0.1,0.2v10.8c0,0.7-0.1,1.2-0.4,1.4c-0.3,0.2-0.8,0.4-1.7,0.4L540.7,470.9L540.7,470.9z
			 M540.6,464.5v4.1c0,0.3,0,0.5,0.1,0.5s0.3,0.1,0.5,0.1h11.9c0.3,0,0.4,0,0.5-0.1s0.1-0.3,0.1-0.5v-4.1H540.6z"/>
		<path d="M573.6,484.9c-0.3,0-0.5-0.1-0.8-0.2s-0.4-0.4-0.6-0.7c-1-2.2-1.8-4.4-2.3-6.5s-0.8-4.3-0.8-6.5s0.3-4.4,0.8-6.5
			c0.5-2.2,1.3-4.3,2.3-6.4c0.3-0.6,0.7-1,1.3-1c0.4,0,0.7,0.1,1,0.4s0.4,0.6,0.4,1c0,0.3-0.1,0.5-0.2,0.7
			c-1.9,3.9-2.9,7.8-2.9,11.8c0,1.9,0.3,3.9,0.8,5.9s1.2,4,2.2,5.9c0.1,0.2,0.2,0.4,0.2,0.7c0,0.4-0.1,0.7-0.4,1
			S574,484.9,573.6,484.9z"/>
		<path d="M579.9,478.5c-0.4,0-0.7-0.1-1-0.4s-0.4-0.6-0.4-1v-18.6c0-0.4,0.1-0.8,0.4-1c0.3-0.3,0.6-0.4,1-0.4s0.8,0.1,1,0.4
			c0.3,0.3,0.4,0.6,0.4,1v18.6c0,0.4-0.1,0.7-0.4,1C580.7,478.3,580.3,478.5,579.9,478.5z"/>
		<path d="M594.2,478.5c-0.6,0-1-0.3-1.3-0.9l-8.1-18.4c-0.3-0.6-0.3-1.1-0.1-1.5s0.6-0.6,1.2-0.6c0.6,0,1.1,0.3,1.3,0.9l7.1,17H594
			l7.2-17c0.1-0.3,0.3-0.6,0.5-0.7s0.5-0.2,0.8-0.2c0.5,0,0.9,0.2,1.1,0.6c0.2,0.4,0.2,0.8,0,1.3l-8.1,18.7
			c-0.1,0.3-0.3,0.5-0.5,0.7C594.8,478.4,594.5,478.5,594.2,478.5z"/>
		<path d="M608.5,478.5c-0.4,0-0.7-0.1-1-0.4s-0.4-0.6-0.4-1v-18.6c0-0.4,0.1-0.8,0.4-1c0.3-0.3,0.6-0.4,1-0.4h12.4
			c0.4,0,0.8,0.1,1,0.4c0.3,0.2,0.4,0.6,0.4,1s-0.1,0.7-0.4,0.9c-0.3,0.2-0.6,0.4-1,0.4h-11v6.7h7.9c0.4,0,0.8,0.1,1,0.4
			c0.3,0.2,0.4,0.6,0.4,0.9s-0.1,0.7-0.4,0.9c-0.3,0.2-0.6,0.4-1,0.4h-7.9v6.9h11c0.4,0,0.8,0.1,1,0.4c0.3,0.2,0.4,0.5,0.4,0.9
			s-0.1,0.7-0.4,1c-0.3,0.2-0.6,0.4-1,0.4h-12.4V478.5z"/>
		<path d="M625.7,484.9c-0.4,0-0.7-0.1-1-0.4s-0.4-0.6-0.4-1c0-0.2,0.1-0.5,0.2-0.7c0.9-1.9,1.7-3.9,2.2-5.9s0.8-4,0.8-5.9
			c0-3.9-1-7.9-2.9-11.8c-0.1-0.2-0.2-0.4-0.2-0.7c0-0.4,0.1-0.7,0.4-1s0.6-0.4,1-0.4c0.6,0,1,0.3,1.3,1c1,2.1,1.8,4.3,2.3,6.4
			c0.5,2.2,0.8,4.3,0.8,6.5s-0.3,4.4-0.8,6.5c-0.5,2.2-1.3,4.3-2.3,6.5c-0.2,0.3-0.4,0.6-0.6,0.7C626.3,484.8,626,484.9,625.7,484.9
			z"/>
	</g>
	<rect x="488.5" y="550.4" class="st16" width="583.4" height="433.6"/>
	<g class="st2">
		<g>
			<g>
				<g>
					<path class="st10" d="M715.8,1219.7H538.9c-29.5,0-53.4-23.9-53.4-53.4l0,0c0-29.5,23.9-53.4,53.4-53.4h176.9
						c29.5,0,53.4,23.9,53.4,53.4l0,0C769.2,1195.8,745.3,1219.7,715.8,1219.7z"/>
					<path class="st17" d="M715.8,1219.7H538.9c-29.5,0-53.4-23.9-53.4-53.4l0,0c0-29.5,23.9-53.4,53.4-53.4h176.9
						c29.5,0,53.4,23.9,53.4,53.4l0,0C769.2,1195.8,745.3,1219.7,715.8,1219.7z"/>
				</g>
			</g>
			<g>
				<path d="M610.3,1166.4c0.1,0.1,0.2,0.2,0.2,0.3v1.1c0,0.1-0.1,0.2-0.2,0.3c-0.1,0.1-0.2,0.1-0.3,0.1h-28.4c-0.1,0-0.2,0-0.3-0.1
					s-0.2-0.2-0.2-0.3v-1.1c0-0.1,0-0.2,0.2-0.3c0.1-0.1,0.2-0.1,0.3-0.1h13v-4c-1,0-2-0.2-3.1-0.4c-1.1-0.2-2.1-0.5-3-1
					c-0.9-0.4-1.6-1-2.2-1.7c-0.6-0.7-0.9-1.5-0.9-2.5c0-1.1,0.4-2,1.1-2.7c0.7-0.7,1.6-1.3,2.6-1.7s2.2-0.7,3.4-0.9
					c1.2-0.2,2.3-0.3,3.4-0.3c1,0,2.2,0.1,3.4,0.3c1.2,0.2,2.3,0.5,3.4,1c1,0.4,1.9,1,2.6,1.7c0.7,0.7,1,1.6,1,2.6
					c0,0.9-0.3,1.8-0.9,2.4c-0.6,0.7-1.3,1.2-2.2,1.7c-0.9,0.4-1.9,0.8-3,1s-2.1,0.4-3.2,0.4v4h13.1
					C610.1,1166.3,610.2,1166.3,610.3,1166.4z M585.2,1171.6c0.1-0.1,0.2-0.1,0.3-0.1h17.7c1,0,1.7,0.2,2.1,0.6
					c0.3,0.4,0.5,1,0.5,1.9v7.3c0,0.3-0.2,0.5-0.5,0.5h-1.4c-0.3,0-0.5-0.2-0.5-0.5v-7.1c0-0.3-0.1-0.5-0.2-0.6
					c-0.1-0.1-0.3-0.1-0.6-0.1h-17.2c-0.1,0-0.2,0-0.3-0.1s-0.2-0.2-0.2-0.3v-1.2C585,1171.7,585.1,1171.6,585.2,1171.6z
					 M595.8,1153.2c-0.7,0-1.5,0-2.4,0.1s-1.8,0.3-2.6,0.5s-1.5,0.6-2.1,1.1s-0.9,1.1-0.9,1.8c0,0.7,0.3,1.3,0.9,1.8
					c0.6,0.5,1.3,0.8,2.1,1.1c0.8,0.3,1.7,0.4,2.6,0.5c0.9,0.1,1.7,0.1,2.4,0.1s1.5,0,2.4-0.1s1.8-0.3,2.6-0.5
					c0.8-0.3,1.5-0.6,2.1-1.1s0.9-1.1,0.9-1.8c0-0.7-0.3-1.3-0.9-1.8c-0.6-0.5-1.3-0.8-2.1-1.1s-1.7-0.4-2.6-0.5
					C597.2,1153.3,596.4,1153.2,595.8,1153.2z"/>
				<path d="M623.9,1152.5c0,2.1-0.3,4.1-0.8,5.8c0.3,0.8,0.6,1.7,1.1,2.5s1,1.6,1.6,2.4s1.3,1.4,2,2s1.4,1.1,2.2,1.5
					c0.1,0.1,0.2,0.2,0.2,0.3s0,0.2-0.1,0.3l-0.7,1.1c-0.1,0.1-0.2,0.2-0.3,0.2s-0.2,0-0.4-0.1c-0.6-0.3-1.2-0.7-1.8-1.3
					c-0.6-0.5-1.2-1.1-1.8-1.8c-0.6-0.7-1.1-1.4-1.7-2.1c-0.5-0.7-1-1.4-1.4-2.1c-1.6,3.3-3.9,5.9-7,7.9c-0.1,0.1-0.2,0.1-0.4,0.1
					c-0.1,0-0.2,0-0.3-0.1l-0.8-1.1c-0.1-0.1-0.1-0.2,0-0.3s0.1-0.2,0.2-0.3c1.2-0.7,2.3-1.6,3.3-2.7s1.8-2.3,2.5-3.6
					c0.7-1.3,1.2-2.7,1.6-4.2c0.4-1.5,0.5-3,0.5-4.5c0-0.4,0.1-0.5,0.4-0.5l1.6,0.1C623.8,1152,623.9,1152.1,623.9,1152.5z
					 M639.2,1180.7c-0.1,0.1-0.2,0.1-0.3,0.1h-16.7c-1,0-1.7-0.2-2.1-0.6s-0.5-1-0.5-1.9v-6.5c0-0.3,0.2-0.5,0.5-0.5h1.4
					c0.3,0,0.5,0.2,0.5,0.5v6.3c0,0.3,0.1,0.5,0.2,0.6c0.1,0.1,0.3,0.1,0.6,0.1H639c0.1,0,0.2,0,0.3,0.1s0.2,0.2,0.2,0.3v1.2
					C639.3,1180.5,639.3,1180.6,639.2,1180.7z M636,1156.6v-5.2c0-0.3,0.2-0.5,0.5-0.5h1.4c0.3,0,0.5,0.2,0.5,0.5v21.1
					c0,0.3-0.2,0.5-0.5,0.5h-1.4c-0.3,0-0.5-0.2-0.5-0.5v-8.1h-6.8c-0.3,0-0.4-0.1-0.4-0.4v-1.2c0-0.3,0.1-0.4,0.4-0.4h6.8v-3.9
					h-6.8c-0.3,0-0.4-0.1-0.4-0.4v-1.2c0-0.3,0.1-0.4,0.4-0.4L636,1156.6L636,1156.6z"/>
				<path d="M659.8,1155.8c-0.1,1.9-0.5,3.8-1.1,5.6s-1.5,3.6-2.7,5.2c-1.1,1.7-2.5,3.2-4.1,4.6s-3.4,2.7-5.5,3.7
					c-0.3,0.2-0.5,0.1-0.6-0.1l-0.7-1.2c-0.2-0.3-0.1-0.5,0.1-0.6c1.9-1,3.6-2.1,5-3.3c1.5-1.2,2.7-2.6,3.7-4s1.9-3,2.5-4.6
					s1-3.3,1.1-5c0-0.3,0-0.6-0.1-0.7s-0.4-0.2-0.7-0.2h-10.4c-0.3,0-0.4-0.1-0.4-0.4v-1.2c0-0.3,0.1-0.4,0.4-0.4h11
					c1,0,1.7,0.2,2.1,0.6C659.7,1154.4,659.8,1155,659.8,1155.8z M668.1,1181.4h-1.4c-0.3,0-0.5-0.2-0.5-0.5v-29.5
					c0-0.3,0.2-0.5,0.5-0.5h1.4c0.3,0,0.5,0.2,0.5,0.5v11.7h4.6c0.1,0,0.2,0,0.4,0.1c0.1,0.1,0.1,0.2,0.1,0.3v1.1
					c0,0.1,0,0.2-0.1,0.3c-0.1,0.1-0.2,0.1-0.4,0.1h-4.6v15.8C668.6,1181.2,668.4,1181.4,668.1,1181.4z"/>
			</g>
		</g>
		<g>
			<g>
				<g>
					<path class="st10" d="M1025.5,1219.7H848.6c-29.5,0-53.4-23.9-53.4-53.4l0,0c0-29.5,23.9-53.4,53.4-53.4h176.9
						c29.5,0,53.4,23.9,53.4,53.4l0,0C1078.9,1195.8,1055,1219.7,1025.5,1219.7z"/>
					<path class="st17" d="M1025.5,1219.7H848.6c-29.5,0-53.4-23.9-53.4-53.4l0,0c0-29.5,23.9-53.4,53.4-53.4h176.9
						c29.5,0,53.4,23.9,53.4,53.4l0,0C1078.9,1195.8,1055,1219.7,1025.5,1219.7z"/>
				</g>
			</g>
			<g>
				<path d="M879.4,1172.4c-0.1,0.1-0.2,0.2-0.3,0.2s-0.2,0-0.4-0.2c-0.5-0.4-1.1-0.9-1.7-1.4c-0.6-0.5-1.2-1.1-1.8-1.6
					s-1.1-1.2-1.7-1.8s-1.1-1.2-1.5-1.9c-1.1,1.4-2.4,2.7-3.8,4c-1.4,1.3-3.1,2.5-4.9,3.8c-0.1,0.1-0.2,0.1-0.3,0.1s-0.2,0-0.3-0.1
					l-0.8-1c-0.1-0.1-0.1-0.2-0.1-0.3c0-0.1,0.1-0.2,0.2-0.3c3.6-2.5,6.3-5,8.3-7.6s3.4-5.2,4.2-8c0.1-0.3,0.1-0.5,0-0.7
					c-0.1-0.1-0.3-0.2-0.6-0.2h-10.1c-0.3,0-0.4-0.1-0.4-0.4v-1.2c0-0.3,0.2-0.4,0.5-0.4h11c1.2,0,1.9,0.2,2.2,0.6s0.3,1.1,0,2.1
					c-0.9,2.8-2.1,5.4-3.7,7.8c0.5,0.7,1.1,1.4,1.6,2.1c0.6,0.7,1.2,1.3,1.7,1.9c0.6,0.6,1.2,1.2,1.7,1.6c0.6,0.5,1.1,0.9,1.6,1.2
					c0.1,0.1,0.2,0.2,0.2,0.3s0,0.2-0.1,0.3L879.4,1172.4z M886.2,1181.5h-1.4c-0.3,0-0.5-0.2-0.5-0.5v-17.2H878
					c-0.3,0-0.4-0.1-0.4-0.4v-1.2c0-0.3,0.1-0.4,0.4-0.4h6.3v-10.3c0-0.3,0.2-0.5,0.5-0.5h1.4c0.3,0,0.5,0.2,0.5,0.5v29.5
					C886.6,1181.3,886.5,1181.5,886.2,1181.5z"/>
				<path d="M908.2,1155.4c-0.3,0.9-0.7,1.7-1.3,2.6c-0.5,0.9-1.2,1.7-1.9,2.5c0.8,0.8,1.7,1.6,2.9,2.3c1.1,0.7,2.4,1.4,3.7,1.9
					c0.1,0.1,0.2,0.2,0.2,0.3c0,0.1,0,0.2-0.1,0.3l-0.7,1.2c-0.1,0.1-0.1,0.2-0.2,0.2c-0.1,0-0.2,0-0.4-0.1c-0.5-0.2-1-0.5-1.6-0.8
					s-1.2-0.7-1.8-1.1s-1.2-0.8-1.8-1.3s-1.1-0.9-1.7-1.5c-1.3,1.3-2.7,2.4-4.3,3.4s-3.1,1.9-4.7,2.6c-0.1,0-0.2,0.1-0.3,0.1
					s-0.2,0-0.3-0.1l-0.7-1.2c-0.1-0.1-0.1-0.2,0-0.3s0.1-0.2,0.3-0.2c2.9-1.4,5.3-2.9,7.3-4.7c2-1.8,3.6-3.8,4.7-6.1
					c0.2-0.3,0.2-0.5,0.1-0.7c-0.1-0.1-0.3-0.2-0.6-0.2h-9.8c-0.3,0-0.4-0.1-0.4-0.4v-1.2c0-0.3,0.2-0.4,0.5-0.4h10.6
					c1.2,0,1.9,0.2,2.2,0.6S908.5,1154.4,908.2,1155.4z M897.6,1170.7c0.1-0.1,0.2-0.1,0.3-0.1h16.4c0.5,0,1,0,1.3,0.1
					s0.6,0.2,0.8,0.4c0.2,0.2,0.3,0.4,0.4,0.8c0.1,0.3,0.1,0.7,0.1,1.3v8.1c0,0.3-0.2,0.5-0.5,0.5H915c-0.3,0-0.5-0.2-0.5-0.5v-7.9
					c0-0.3,0-0.5-0.2-0.6c-0.1-0.1-0.3-0.1-0.6-0.1h-15.9c-0.1,0-0.2,0-0.3-0.1s-0.2-0.2-0.2-0.3v-1.2
					C897.4,1170.8,897.5,1170.7,897.6,1170.7z M916.4,1168.7H915c-0.3,0-0.5-0.2-0.5-0.5v-16.7c0-0.3,0.2-0.5,0.5-0.5h1.4
					c0.3,0,0.5,0.2,0.5,0.5v7.9h4.6c0.1,0,0.3,0,0.4,0.1c0.1,0.1,0.1,0.2,0.1,0.3v1.1c0,0.1,0,0.2-0.1,0.3c-0.1,0.1-0.2,0.1-0.4,0.1
					h-4.6v6.9C916.9,1168.5,916.7,1168.7,916.4,1168.7z"/>
				<path d="M926.8,1153.2c0.1-0.1,0.2-0.1,0.3-0.1h11.5c0.5,0,1,0.1,1.3,0.2s0.6,0.3,0.8,0.5s0.3,0.5,0.4,0.8s0.1,0.7,0.1,1.2
					c0,0.6,0,1.2,0,1.9c0,0.7-0.1,1.4-0.2,2.1s-0.2,1.4-0.3,2.1s-0.2,1.3-0.4,1.9c0.9-0.1,1.8-0.2,2.6-0.3c0.8-0.1,1.5-0.2,2.1-0.3
					c0.3-0.1,0.5,0,0.5,0.3l0.2,1.1c0,0.3-0.1,0.4-0.4,0.5c-1.4,0.2-3,0.5-4.8,0.7s-3.5,0.4-5.2,0.5v6.6c0,0.1,0,0.2-0.1,0.3
					c-0.1,0.1-0.2,0.1-0.3,0.1h-1.4c-0.1,0-0.2,0-0.3-0.1s-0.1-0.2-0.1-0.3v-6.5c-0.7,0-1.4,0.1-2.2,0.1s-1.5,0-2.3,0.1
					c-0.7,0-1.4,0-2.1,0c-0.7,0-1.2,0-1.7,0c-0.1,0-0.3,0-0.4-0.1c-0.1-0.1-0.2-0.2-0.2-0.3v-1.1c0-0.1,0.1-0.2,0.2-0.3
					c0.1-0.1,0.2-0.1,0.4-0.1c0.6,0,1.4,0,2.3,0c0.9,0,1.8,0,2.7,0s1.8,0,2.7-0.1s1.6-0.1,2.2-0.1c0.5,0,1.1-0.1,1.6-0.1
					c0.6,0,1.2-0.1,1.8-0.1c0.1-0.5,0.3-1.2,0.4-1.9c0.1-0.7,0.3-1.5,0.4-2.2c0.1-0.7,0.2-1.5,0.2-2.2s0.1-1.3,0-1.8
					c0-0.3-0.1-0.5-0.2-0.6c-0.1-0.1-0.3-0.1-0.6-0.1h-11c-0.1,0-0.2,0-0.3-0.1s-0.2-0.2-0.2-0.3v-1.2
					C926.7,1153.3,926.7,1153.2,926.8,1153.2z M950.1,1180.8c-0.1,0.1-0.2,0.1-0.3,0.1h-18.2c-1,0-1.7-0.2-2.1-0.6
					c-0.3-0.4-0.5-1-0.5-1.9v-4.8c0-0.3,0.2-0.5,0.5-0.5h1.4c0.3,0,0.5,0.2,0.5,0.5v4.7c0,0.3,0,0.5,0.2,0.6s0.3,0.1,0.6,0.1h17.6
					c0.1,0,0.2,0,0.3,0.1s0.2,0.2,0.2,0.3v1.2C950.2,1180.6,950.2,1180.7,950.1,1180.8z M947.1,1168.2v-16.7c0-0.3,0.2-0.5,0.5-0.5
					h1.4c0.3,0,0.5,0.2,0.5,0.5v22.8c0,0.3-0.2,0.5-0.5,0.5h-1.4c-0.3,0-0.5-0.2-0.5-0.5v-4.1h-6.7c-0.3,0-0.4-0.1-0.4-0.4v-1.2
					c0-0.3,0.1-0.4,0.4-0.4L947.1,1168.2L947.1,1168.2z"/>
				<path d="M968.9,1181.3c-0.1,0-0.2,0-0.3-0.1s-0.1-0.2-0.1-0.3v-10.8h-13c-0.1,0-0.2,0-0.4-0.1s-0.2-0.2-0.2-0.3v-1.1
					c0-0.1,0-0.2,0.2-0.3s0.2-0.1,0.4-0.1h28.4c0.1,0,0.2,0,0.3,0.1s0.2,0.2,0.2,0.3v1.1c0,0.1-0.1,0.2-0.2,0.3
					c-0.1,0.1-0.2,0.1-0.3,0.1h-13.1v10.8c0,0.1,0,0.2-0.1,0.3s-0.2,0.1-0.3,0.1H968.9z M970.8,1151.8c0,0.3-0.1,0.6-0.2,0.8
					c-0.1,0.3-0.1,0.5-0.2,0.8c0.1,0.2,0.1,0.5,0.2,0.7c0.1,0.2,0.2,0.4,0.3,0.6c0.4,0.7,0.9,1.5,1.7,2.2c0.7,0.7,1.6,1.4,2.5,2.1
					c1,0.6,2,1.2,3.1,1.7s2.3,0.9,3.4,1.2c0.1,0,0.2,0.1,0.3,0.3s0,0.3,0,0.4l-0.5,1.1c-0.1,0.1-0.1,0.2-0.2,0.2c-0.1,0-0.2,0-0.5,0
					c-1.2-0.3-2.3-0.7-3.5-1.3c-1.2-0.5-2.2-1.2-3.2-1.9c-1-0.7-1.9-1.5-2.7-2.3s-1.5-1.6-2-2.5c-1,1.7-2.3,3.3-4.1,4.6
					s-4,2.6-6.7,3.6c-0.4,0.1-0.6,0.1-0.7-0.1l-0.6-1.2c0-0.1,0-0.2,0-0.4s0.1-0.2,0.3-0.3c1.4-0.5,2.8-1.1,4.1-1.9s2.5-1.7,3.5-2.7
					s1.8-2,2.4-3c0.6-1.1,1-2.1,1-3.1c0-0.3,0.2-0.4,0.4-0.4l1.5,0.2c0.1,0,0.2,0.1,0.3,0.1C970.8,1151.5,970.9,1151.6,970.8,1151.8
					z"/>
				<path d="M1004.1,1159.8c0,1.1-0.2,2.1-0.6,3c-0.4,0.9-1,1.7-1.7,2.4s-1.6,1.2-2.5,1.6c-1,0.4-2,0.6-3.2,0.6
					c-1.1,0-2.1-0.2-3.1-0.5c-1-0.4-1.8-0.9-2.5-1.5s-1.3-1.5-1.7-2.4s-0.6-1.9-0.6-3c0-1.2,0.2-2.2,0.6-3.2c0.4-0.9,1-1.7,1.7-2.4
					c0.7-0.6,1.5-1.1,2.5-1.5c1-0.3,2-0.5,3.1-0.5c1,0,2,0.2,3,0.5s1.8,0.8,2.5,1.5c0.7,0.6,1.3,1.4,1.8,2.4
					C1003.8,1157.6,1004.1,1158.7,1004.1,1159.8z M1001.7,1159.8c0-0.9-0.2-1.7-0.5-2.3s-0.7-1.2-1.2-1.7s-1.1-0.8-1.8-1
					s-1.4-0.3-2.2-0.3s-1.5,0.1-2.2,0.3c-0.7,0.2-1.2,0.6-1.7,1s-0.9,1-1.2,1.7s-0.4,1.4-0.4,2.3c0,0.8,0.1,1.6,0.4,2.2
					s0.6,1.2,1.1,1.7s1.1,0.9,1.7,1.1c0.7,0.3,1.4,0.4,2.2,0.4s1.5-0.1,2.2-0.4s1.3-0.6,1.8-1.1s0.9-1.1,1.2-1.7
					S1001.7,1160.7,1001.7,1159.8z M992.9,1170.5c0.1-0.1,0.2-0.1,0.3-0.1h16.4c1,0,1.7,0.2,2.1,0.6s0.5,1,0.5,1.9v8.2
					c0,0.3-0.2,0.5-0.5,0.5h-1.4c-0.3,0-0.5-0.2-0.5-0.5v-8c0-0.3,0-0.5-0.2-0.6c-0.1-0.1-0.3-0.1-0.6-0.1h-15.9
					c-0.1,0-0.2,0-0.3-0.1s-0.2-0.2-0.2-0.3v-1.2C992.8,1170.7,992.8,1170.6,992.9,1170.5z M1011.8,1168.5h-1.4
					c-0.3,0-0.5-0.2-0.5-0.5v-16.6c0-0.3,0.2-0.5,0.5-0.5h1.4c0.3,0,0.5,0.2,0.5,0.5v16.6
					C1012.2,1168.4,1012.1,1168.5,1011.8,1168.5z"/>
			</g>
		</g>
		<g>
			<g>
				<g>
					<path class="st18" d="M1025.5,1353.6H538.9c-29.5,0-53.4-23.9-53.4-53.4l0,0c0-29.5,23.9-53.4,53.4-53.4h486.6
						c29.5,0,53.4,23.9,53.4,53.4l0,0C1078.9,1329.6,1055,1353.6,1025.5,1353.6z"/>
					<path class="st17" d="M1025.5,1353.6H538.9c-29.5,0-53.4-23.9-53.4-53.4l0,0c0-29.5,23.9-53.4,53.4-53.4h486.6
						c29.5,0,53.4,23.9,53.4,53.4l0,0C1078.9,1329.6,1055,1353.6,1025.5,1353.6z"/>
				</g>
			</g>
			<g>
				<path d="M736.1,1315.1c-0.1,0-0.2,0-0.3-0.1s-0.1-0.2-0.1-0.3V1304h-13c-0.1,0-0.2,0-0.4-0.1c-0.1-0.1-0.2-0.2-0.2-0.3v-1.1
					c0-0.1,0-0.2,0.2-0.3c0.1-0.1,0.2-0.1,0.4-0.1h28.4c0.1,0,0.2,0,0.3,0.1s0.2,0.2,0.2,0.3v1.1c0,0.1-0.1,0.2-0.2,0.3
					c-0.1,0.1-0.2,0.1-0.3,0.1H738v10.7c0,0.1,0,0.2-0.1,0.3s-0.2,0.1-0.3,0.1H736.1z M748.7,1297.6c-0.1,0.2-0.3,0.3-0.6,0.2
					c-1.7-0.4-3.5-0.9-5.4-1.6s-3.6-1.4-5.4-2.3c-1.6,0.8-3.3,1.6-5.2,2.3c-1.9,0.7-3.9,1.4-6,1.9c-0.3,0.1-0.5,0-0.6-0.3l-0.4-1.1
					c-0.1-0.3,0-0.5,0.3-0.6c1.6-0.4,3.2-0.9,4.8-1.5s3.1-1.2,4.5-1.9s2.8-1.4,4.1-2.1s2.4-1.5,3.4-2.2c0.3-0.2,0.4-0.4,0.4-0.5
					c0-0.2-0.2-0.2-0.6-0.2h-14.4c-0.3,0-0.4-0.1-0.4-0.4v-1.2c0-0.3,0.1-0.4,0.4-0.4h15.3c0.9,0,1.6,0.1,2.1,0.3s0.8,0.4,1,0.7
					c0.1,0.3,0.1,0.7-0.1,1.1c-0.2,0.4-0.5,0.8-1,1.3c-1.5,1.3-3.2,2.5-5.2,3.7c1.4,0.6,2.9,1.2,4.6,1.7c1.7,0.6,3.3,1,4.9,1.4
					c0.2,0,0.3,0.1,0.3,0.2s0,0.2-0.1,0.3L748.7,1297.6z"/>
				<path d="M767.8,1309.1c-0.1,0-0.2,0-0.3-0.1s-0.1-0.2-0.1-0.3v-6.7h-13.3c-0.1,0-0.2,0-0.4-0.1s-0.2-0.2-0.2-0.3v-1.1
					c0-0.1,0-0.2,0.2-0.3c0.1-0.1,0.2-0.1,0.4-0.1h28.4c0.1,0,0.2,0,0.3,0.1s0.2,0.2,0.2,0.3v1.1c0,0.1-0.1,0.2-0.2,0.3
					c-0.1,0.1-0.2,0.1-0.3,0.1h-12.8v6.7c0,0.1,0,0.2-0.1,0.3c-0.1,0.1-0.2,0.1-0.3,0.1H767.8z M779.2,1314.7
					c-0.1,0.1-0.2,0.1-0.3,0.1h-18.4c-1,0-1.7-0.2-2.1-0.6c-0.3-0.4-0.5-1.1-0.5-2v-6.6c0-0.3,0.2-0.5,0.5-0.5h1.4
					c0.3,0,0.5,0.2,0.5,0.5v6.5c0,0.3,0,0.5,0.2,0.6s0.3,0.1,0.6,0.1H779c0.1,0,0.2,0,0.3,0.1s0.2,0.2,0.2,0.3v1.2
					C779.3,1314.5,779.3,1314.6,779.2,1314.7z M758.3,1288.2c0-0.9,0.2-1.5,0.5-1.9c0.4-0.3,1-0.5,2-0.5h14.8c0.5,0,1,0,1.3,0.1
					s0.6,0.2,0.8,0.4s0.3,0.4,0.4,0.7c0.1,0.3,0.1,0.7,0.1,1.2v6.1c0,0.9-0.2,1.5-0.5,1.9c-0.4,0.3-1,0.5-2,0.5h-14.8
					c-0.5,0-1,0-1.3-0.1s-0.6-0.2-0.8-0.4c-0.2-0.2-0.3-0.4-0.4-0.7c-0.1-0.3-0.1-0.7-0.1-1.1V1288.2z M761.4,1287.9
					c-0.3,0-0.5,0.1-0.6,0.2s-0.2,0.3-0.2,0.7v5.1c0,0.3,0.1,0.6,0.2,0.7c0.1,0.1,0.3,0.2,0.6,0.2H775c0.3,0,0.5-0.1,0.6-0.2
					s0.2-0.3,0.2-0.7v-5.1c0-0.3-0.1-0.6-0.2-0.7s-0.3-0.2-0.6-0.2H761.4z"/>
				<path d="M804.5,1294h-18.4c-0.1,0-0.2,0-0.3-0.1s-0.2-0.2-0.2-0.3v-1.1c0-0.1,0-0.2,0.2-0.3c0.1-0.1,0.2-0.1,0.3-0.1h18.4
					c0.3,0,0.5,0.1,0.5,0.4v1.1C805,1293.9,804.8,1294,804.5,1294z M802.5,1302.8c0,0.9-0.2,1.7-0.6,2.5c-0.4,0.8-0.9,1.4-1.5,2
					s-1.4,1-2.3,1.4s-1.8,0.5-2.9,0.5c-1,0-2-0.2-2.9-0.5s-1.6-0.8-2.3-1.4c-0.6-0.6-1.2-1.2-1.5-2c-0.4-0.8-0.6-1.6-0.6-2.5
					s0.2-1.8,0.6-2.6c0.4-0.8,0.9-1.5,1.5-2s1.4-1,2.3-1.4c0.9-0.3,1.8-0.5,2.9-0.5c1,0,2,0.2,2.9,0.5s1.7,0.8,2.3,1.4
					s1.2,1.3,1.5,2C802.3,1301.1,802.5,1301.9,802.5,1302.8z M799.6,1288.4h-9.2c-0.1,0-0.2,0-0.3-0.1s-0.2-0.2-0.2-0.3v-1.1
					c0-0.1,0-0.2,0.1-0.3c0.1-0.1,0.2-0.1,0.3-0.1h9.2c0.3,0,0.5,0.2,0.5,0.5v1.1C800.1,1288.3,799.9,1288.4,799.6,1288.4z
					 M800.2,1302.8c0-0.6-0.1-1.2-0.4-1.8c-0.2-0.5-0.6-1-1-1.4s-1-0.7-1.6-1c-0.6-0.2-1.3-0.3-2-0.3s-1.4,0.1-2,0.3
					c-0.6,0.2-1.1,0.6-1.6,1c-0.4,0.4-0.8,0.9-1.1,1.4c-0.3,0.6-0.4,1.1-0.4,1.8c0,0.6,0.1,1.2,0.4,1.8c0.3,0.5,0.6,1,1.1,1.4
					s1,0.7,1.6,1s1.3,0.3,2,0.3s1.4-0.1,2-0.3s1.1-0.5,1.6-0.9c0.4-0.4,0.8-0.9,1-1.4C800.1,1304,800.2,1303.4,800.2,1302.8z
					 M809.2,1315.3h-1.4c-0.3,0-0.5-0.2-0.5-0.5v-29.5c0-0.3,0.2-0.5,0.5-0.5h1.4c0.3,0,0.5,0.2,0.5,0.5v12.2h4.6
					c0.1,0,0.3,0,0.4,0.1c0.1,0.1,0.1,0.2,0.1,0.3v1.1c0,0.1,0,0.2-0.1,0.3c-0.1,0.1-0.2,0.1-0.4,0.1h-4.6v15.3
					C809.7,1315.2,809.5,1315.3,809.2,1315.3z"/>
				<path d="M833.3,1289.8c-0.1,1.9-0.5,3.8-1.1,5.6s-1.5,3.6-2.7,5.2c-1.1,1.7-2.5,3.2-4.1,4.6s-3.4,2.7-5.5,3.7
					c-0.3,0.2-0.5,0.1-0.6-0.1l-0.7-1.2c-0.2-0.3-0.1-0.5,0.1-0.6c1.9-1,3.6-2.1,5-3.3c1.5-1.2,2.7-2.6,3.7-4c1-1.5,1.9-3,2.5-4.6
					s1-3.3,1.1-5c0-0.3,0-0.6-0.1-0.7s-0.4-0.2-0.7-0.2h-10.6c-0.3,0-0.4-0.1-0.4-0.4v-1.2c0-0.3,0.1-0.4,0.4-0.4h11.3
					c1,0,1.7,0.2,2.1,0.6C833.2,1288.4,833.3,1289,833.3,1289.8z M841.8,1315.3h-1.4c-0.3,0-0.5-0.2-0.5-0.5v-29.5
					c0-0.3,0.2-0.5,0.5-0.5h1.4c0.3,0,0.5,0.2,0.5,0.5v29.5C842.2,1315.2,842.1,1315.3,841.8,1315.3z"/>
			</g>
		</g>
	</g>
	<rect x="484.7" y="538.5" class="st2" width="595" height="1"/>
	<polyline class="st5" points="493.5,105.6 480.1,119 493.5,132.4 	"/>
	<line class="st5" x1="480.1" y1="119" x2="518.7" y2="119"/>
	<g class="st2">
		<text transform="matrix(1 0 0 1 698.3179 130.0554)" class="st19 st20">이번주 옥션  </text>
	</g>
	<g class="st2">
		<path class="st17" d="M1019.5,118.4c0,4.2-1.8,7.9-4.6,10.6c-2.6,2.4-6,3.8-9.8,3.8c-7.9,0-14.4-6.4-14.4-14.4s6.4-14.4,14.4-14.4
			S1019.5,110.4,1019.5,118.4z"/>
		<line class="st17" x1="1023.2" y1="137.3" x2="1014.9" y2="128.9"/>
	</g>
	<g class="st2">
		<path d="M1067.7,105L1067.7,105c0.2,0,0.5,0,0.8,0c5.2,0.4,9.3,4.9,9.3,10.1c0,3-1.9,4.7-4,6.5c-1.9,1.7-3.9,3.4-4.3,6.3h-3.5
			c0.3-3.8,2.4-5.4,4.5-7c1.9-1.4,3.8-2.9,3.8-5.8s-1.9-5.4-4.6-6.2c-0.6-0.2-1.3-0.3-2-0.3c-1.7,0-3.4,0.7-4.6,1.9
			c-1,1-1.6,2.2-1.8,3.6h-3.5C1058.2,109,1062.5,105,1067.7,105 M1069.5,133.6v3.5h-3.5v-3.5H1069.5 M1067.7,104
			c-6.1,0-11,4.9-11,11h5.5c0-3,2.5-5.5,5.5-5.5c0.5,0,1.1,0.1,1.7,0.2c2.3,0.7,3.8,2.9,3.9,5.3c0,5.5-8.3,4.8-8.3,13.8h5.5
			c0-6.2,8.2-6.9,8.3-13.7c0.1-5.7-4.5-10.7-10.2-11.1C1068.3,104,1068,104,1067.7,104L1067.7,104z M1070.5,132.6h-5.5v5.5h5.5
			V132.6L1070.5,132.6z"/>
	</g>
	<g class="st2">
		<g>
			<circle class="st21" cx="560.5" cy="290.6" r="18"/>
			<g>
				<path d="M599.6,298.2c-1.1,0-2.1-0.2-3-0.6s-1.7-0.9-2.4-1.6s-1.2-1.5-1.6-2.4s-0.6-1.9-0.6-3s0.2-2.1,0.6-3
					c0.4-0.9,0.9-1.7,1.6-2.4c0.7-0.7,1.5-1.2,2.4-1.6s1.9-0.6,3-0.6s2.1,0.2,3,0.6s1.7,0.9,2.4,1.6s1.2,1.5,1.6,2.4
					c0.4,0.9,0.6,1.9,0.6,3s-0.2,2.1-0.6,3s-0.9,1.7-1.6,2.4c-0.7,0.7-1.5,1.2-2.4,1.6C601.7,298,600.7,298.2,599.6,298.2z
					 M599.6,296.8c0.9,0,1.7-0.2,2.4-0.5s1.4-0.7,1.9-1.3s1-1.2,1.3-2s0.5-1.6,0.5-2.5s-0.2-1.7-0.5-2.4c-0.3-0.8-0.7-1.4-1.3-2
					s-1.2-1-1.9-1.3s-1.6-0.5-2.4-0.5c-0.9,0-1.7,0.2-2.5,0.5c-0.7,0.3-1.4,0.7-1.9,1.3s-1,1.2-1.3,2s-0.5,1.6-0.5,2.4
					c0,0.9,0.2,1.7,0.5,2.5s0.7,1.4,1.3,2s1.2,1,1.9,1.3C597.9,296.6,598.7,296.8,599.6,296.8z"/>
				<path d="M611,298c-0.2,0-0.4-0.1-0.5-0.2s-0.2-0.3-0.2-0.5v-13.4c0-0.2,0.1-0.4,0.2-0.5c0.1-0.1,0.3-0.2,0.5-0.2
					s0.4,0.1,0.6,0.3l9.1,11.9v-11.5c0-0.2,0.1-0.4,0.2-0.5s0.3-0.2,0.5-0.2s0.4,0.1,0.5,0.2s0.2,0.3,0.2,0.5v13.4
					c0,0.2-0.1,0.4-0.2,0.5s-0.3,0.2-0.5,0.2c-0.1,0-0.2,0-0.3-0.1c-0.1,0-0.2-0.1-0.2-0.2l-9.1-11.9v11.4c0,0.2-0.1,0.4-0.2,0.5
					S611.2,298,611,298z"/>
				<path d="M626.7,298c-0.2,0-0.4-0.1-0.5-0.2s-0.2-0.3-0.2-0.5v-13.4c0-0.2,0.1-0.4,0.2-0.5s0.3-0.2,0.5-0.2s0.4,0.1,0.5,0.2
					s0.2,0.3,0.2,0.5v12.7h7.4c0.2,0,0.4,0.1,0.5,0.2s0.2,0.3,0.2,0.5s-0.1,0.4-0.2,0.5c-0.1,0.1-0.3,0.2-0.5,0.2L626.7,298
					L626.7,298z"/>
				<path d="M639.8,298c-0.2,0-0.4-0.1-0.5-0.2s-0.2-0.3-0.2-0.5v-4.8l-5.2-8.2c-0.1-0.2-0.2-0.4-0.1-0.6c0-0.2,0.1-0.3,0.2-0.4
					s0.3-0.2,0.5-0.2s0.3,0,0.4,0.1s0.2,0.2,0.3,0.3l5.1,8.3h-0.8l5.1-8.2c0.1-0.1,0.2-0.2,0.3-0.3s0.2-0.1,0.4-0.1s0.3,0.1,0.4,0.2
					c0.1,0.1,0.2,0.3,0.2,0.4c0,0.2,0,0.4-0.1,0.5l-5.2,8.2v4.8c0,0.2-0.1,0.4-0.2,0.5C640.1,297.9,640,298,639.8,298z"/>
				<path d="M656,298c-0.2,0-0.4-0.1-0.5-0.2s-0.2-0.3-0.2-0.5V285l-1.9,0.7c-0.1,0.1-0.3,0.1-0.4,0.1c-0.2,0-0.4-0.1-0.5-0.2
					s-0.2-0.3-0.2-0.5s0-0.3,0.1-0.4s0.2-0.2,0.4-0.3l2.9-1c0.1,0,0.1,0,0.2-0.1c0.1,0,0.1,0,0.2,0c0.2,0,0.4,0.1,0.5,0.2
					s0.2,0.3,0.2,0.5v13.4c0,0.2-0.1,0.4-0.2,0.5C656.4,297.9,656.2,298,656,298z"/>
				<path d="M663.2,298c-0.2,0-0.4-0.1-0.5-0.2s-0.2-0.3-0.2-0.5V285l-1.9,0.7c-0.1,0.1-0.3,0.1-0.4,0.1c-0.2,0-0.4-0.1-0.5-0.2
					s-0.2-0.3-0.2-0.5s0-0.3,0.1-0.4s0.2-0.2,0.4-0.3l2.9-1c0.1,0,0.1,0,0.2-0.1c0.1,0,0.1,0,0.2,0c0.2,0,0.4,0.1,0.5,0.2
					s0.2,0.3,0.2,0.5v13.4c0,0.2-0.1,0.4-0.2,0.5C663.6,297.9,663.4,298,663.2,298z"/>
				<path d="M673.1,289.9c-0.3,0-0.6-0.1-0.8-0.3c-0.2-0.2-0.3-0.5-0.3-0.8s0.1-0.6,0.3-0.8c0.2-0.2,0.5-0.3,0.8-0.3
					s0.6,0.1,0.8,0.3s0.3,0.5,0.3,0.8s-0.1,0.6-0.3,0.8S673.4,289.9,673.1,289.9z M673.2,298.3c-0.3,0-0.6-0.1-0.8-0.3
					c-0.2-0.2-0.3-0.5-0.3-0.8s0.1-0.6,0.3-0.8c0.2-0.2,0.5-0.3,0.8-0.3s0.6,0.1,0.8,0.3c0.2,0.2,0.3,0.5,0.3,0.8s-0.1,0.5-0.3,0.8
					S673.5,298.3,673.2,298.3z"/>
				<path d="M682.8,298c-0.2,0-0.4-0.1-0.5-0.2s-0.2-0.3-0.2-0.5s0.1-0.4,0.2-0.5l5.8-6.8c0.3-0.3,0.6-0.7,0.8-1.1s0.3-0.8,0.3-1.2
					c0-0.6-0.1-1.1-0.4-1.6s-0.6-0.8-1-1.1c-0.4-0.3-0.9-0.4-1.5-0.4c-0.5,0-1,0.1-1.5,0.4c-0.4,0.3-0.8,0.6-1,1.1s-0.4,1-0.4,1.5
					c0,0.2-0.1,0.4-0.2,0.5s-0.3,0.2-0.5,0.2s-0.4-0.1-0.5-0.2s-0.2-0.3-0.2-0.5c0-0.8,0.2-1.6,0.6-2.3s0.9-1.2,1.5-1.6
					s1.4-0.6,2.2-0.6s1.6,0.2,2.2,0.6s1.1,0.9,1.5,1.6s0.5,1.4,0.5,2.3c0,0.4-0.1,0.8-0.2,1.2s-0.3,0.7-0.5,1.1
					c-0.2,0.3-0.5,0.7-0.7,1l-4.9,5.6h5.9c0.2,0,0.4,0.1,0.5,0.2c0.1,0.2,0.2,0.3,0.2,0.5s-0.1,0.4-0.2,0.5
					c-0.1,0.1-0.3,0.2-0.5,0.2L682.8,298L682.8,298z"/>
				<path d="M697.1,298c-0.9,0-1.7-0.3-2.4-0.9s-1.2-1.4-1.5-2.6c-0.3-1.1-0.5-2.4-0.5-4c0-1.5,0.2-2.9,0.5-4s0.9-2,1.5-2.6
					c0.7-0.6,1.5-0.9,2.4-0.9c1,0,1.8,0.3,2.4,0.9s1.2,1.5,1.5,2.6s0.5,2.4,0.5,4c0,1.5-0.2,2.9-0.5,4s-0.9,2-1.5,2.6
					S698.1,298,697.1,298z M697.1,296.5c0.7,0,1.2-0.3,1.7-0.8c0.4-0.5,0.8-1.2,1-2.1s0.3-1.9,0.3-3.1c0-1.1-0.1-2.2-0.3-3
					c-0.2-0.9-0.6-1.6-1-2.1s-1-0.8-1.7-0.8s-1.2,0.3-1.7,0.8c-0.4,0.5-0.8,1.2-1,2.1s-0.3,1.9-0.3,3.1s0.1,2.2,0.3,3.1
					s0.6,1.6,1,2.1C695.9,296.3,696.5,296.5,697.1,296.5z"/>
				<path d="M709.9,289.9c-0.3,0-0.6-0.1-0.8-0.3c-0.2-0.2-0.3-0.5-0.3-0.8s0.1-0.6,0.3-0.8c0.2-0.2,0.5-0.3,0.8-0.3
					s0.6,0.1,0.8,0.3s0.3,0.5,0.3,0.8s-0.1,0.6-0.3,0.8C710.4,289.8,710.2,289.9,709.9,289.9z M709.9,298.3c-0.3,0-0.6-0.1-0.8-0.3
					c-0.2-0.2-0.3-0.5-0.3-0.8s0.1-0.6,0.3-0.8c0.2-0.2,0.5-0.3,0.8-0.3s0.6,0.1,0.8,0.3c0.2,0.2,0.3,0.5,0.3,0.8s-0.1,0.5-0.3,0.8
					S710.2,298.3,709.9,298.3z"/>
				<path d="M725.9,298c-0.2,0-0.4-0.1-0.5-0.2s-0.2-0.3-0.2-0.5v-2.8h-6.8c-0.2,0-0.4-0.1-0.5-0.2s-0.2-0.3-0.2-0.5s0-0.3,0.1-0.5
					l7.5-9.8c0.1-0.1,0.1-0.2,0.2-0.2s0.2-0.1,0.4-0.1s0.4,0.1,0.5,0.2s0.2,0.3,0.2,0.5v9.2h1.5c0.2,0,0.4,0.1,0.5,0.2
					s0.2,0.3,0.2,0.5s-0.1,0.3-0.2,0.4c-0.1,0.1-0.3,0.2-0.5,0.2h-1.5v2.8c0,0.2-0.1,0.4-0.2,0.5S726.1,298,725.9,298z M719.2,293.7
					l-0.3-0.6h6.3v-8.2l0.4,0.4L719.2,293.7z"/>
				<path d="M734.8,298c-0.9,0-1.7-0.2-2.5-0.6c-0.7-0.4-1.3-1-1.7-1.7s-0.6-1.5-0.6-2.5c0-0.2,0.1-0.4,0.2-0.5
					c0.1-0.1,0.3-0.2,0.5-0.2s0.4,0.1,0.5,0.2s0.2,0.3,0.2,0.5c0,0.6,0.1,1.2,0.4,1.7c0.3,0.5,0.7,0.9,1.2,1.2
					c0.5,0.3,1.1,0.4,1.7,0.4c0.6,0,1.2-0.1,1.7-0.4s0.9-0.7,1.2-1.2s0.4-1.1,0.4-1.7s-0.1-1.2-0.4-1.7c-0.3-0.5-0.7-0.9-1.2-1.2
					c-0.5-0.3-1.1-0.4-1.7-0.4h-3.3c-0.2,0-0.4-0.1-0.5-0.2s-0.2-0.3-0.2-0.5V284c0-0.2,0.1-0.4,0.2-0.5c0.1-0.1,0.3-0.2,0.5-0.2
					h6.7c0.2,0,0.4,0.1,0.5,0.2s0.2,0.3,0.2,0.5s-0.1,0.4-0.2,0.5s-0.3,0.2-0.5,0.2h-5.9v3.7h2.6c0.9,0,1.7,0.2,2.5,0.6
					c0.7,0.4,1.3,1,1.7,1.7s0.6,1.5,0.6,2.5s-0.2,1.7-0.6,2.5c-0.4,0.7-1,1.3-1.7,1.7C736.6,297.8,735.7,298,734.8,298z"/>
			</g>
			<g>
				<g>
					<path class="st15" d="M562.4,280.3h-2.9v11.6l10.1,6.2l1.6-2.5l-8.7-5.2L562.4,280.3L562.4,280.3z"/>
				</g>
			</g>
		</g>
		<g>
			<path class="st18" d="M502.7,308.2c-9.7,0-17.5-7.9-17.5-17.6s7.9-17.6,17.5-17.6c4.7,0,9.1,1.8,12.4,5.2l0.4,0.4l4.8-4.8v14.1
				h-14.1l6.8-6.8l-0.4-0.4c-2.7-2.7-6.2-4.2-9.9-4.2c-7.7,0-14,6.3-14,14s6.3,14,14,14c5.8,0,11-3.6,13.1-9h3.7
				C517.3,303.1,510.5,308.2,502.7,308.2z"/>
			<path d="M502.7,273.6c4.5,0,8.8,1.8,12,5l0.7,0.7l0.7-0.7l3.6-3.6v12.4h-12.4l5.6-5.6l0.7-0.7l-0.7-0.7
				c-2.8-2.8-6.4-4.3-10.2-4.3c-8,0-14.5,6.5-14.5,14.5s6.5,14.5,14.5,14.5c5.9,0,11.2-3.6,13.4-9h2.7c-2.3,6.9-8.8,11.5-16.1,11.5
				c-9.4,0-17-7.7-17-17.1S493.3,273.6,502.7,273.6 M520.8,272.6l-5.3,5.3c-3.3-3.3-7.8-5.3-12.8-5.3c-10,0-18,8.1-18,18.1
				s8.1,18.1,18,18.1c8.4,0,15.4-5.8,17.5-13.5h-4.7c-1.9,5.3-6.9,9-12.8,9c-7.5,0-13.5-6.1-13.5-13.5s6.1-13.5,13.5-13.5
				c3.7,0,7.1,1.6,9.5,4l-7.3,7.3h15.8L520.8,272.6L520.8,272.6z"/>
		</g>
	</g>
	<g class="st2">
		<g>
			<path class="st22" d="M502.2,674.4c0.1,0,0.1,0.1,0.1,0.2v0.7c0,0.1,0,0.1-0.1,0.2c-0.1,0.1-0.1,0.1-0.2,0.1h-17
				c-0.1,0-0.2,0-0.2-0.1c-0.1-0.1-0.1-0.1-0.1-0.2v-0.7c0-0.1,0-0.1,0.1-0.2c0.1,0,0.1-0.1,0.2-0.1h7.8v-2.4
				c-0.6,0-1.2-0.1-1.9-0.2c-0.7-0.1-1.2-0.3-1.8-0.6c-0.5-0.3-1-0.6-1.3-1s-0.5-0.9-0.5-1.5c0-0.7,0.2-1.2,0.6-1.6
				c0.4-0.4,0.9-0.8,1.6-1s1.3-0.4,2-0.5s1.4-0.2,2-0.2s1.3,0.1,2,0.2c0.7,0.1,1.4,0.3,2,0.6s1.1,0.6,1.5,1.1c0.4,0.4,0.6,1,0.6,1.6
				s-0.2,1.1-0.5,1.5c-0.4,0.4-0.8,0.8-1.3,1c-0.5,0.3-1.1,0.5-1.8,0.6c-0.7,0.1-1.3,0.2-1.9,0.3v2.4h7.8
				C502.1,674.3,502.1,674.3,502.2,674.4z M487.2,677.5c0.1,0,0.1-0.1,0.2-0.1H498c0.6,0,1,0.1,1.2,0.4c0.2,0.2,0.3,0.6,0.3,1.2v4.4
				c0,0.2-0.1,0.3-0.3,0.3h-0.8c-0.2,0-0.3-0.1-0.3-0.3v-4.3c0-0.2,0-0.3-0.1-0.4c-0.1,0-0.2-0.1-0.4-0.1h-10.3
				c-0.1,0-0.1,0-0.2-0.1c-0.1,0-0.1-0.1-0.1-0.2v-0.7C487.1,677.6,487.1,677.6,487.2,677.5z M493.5,666.4c-0.4,0-0.9,0-1.5,0.1
				c-0.5,0.1-1.1,0.2-1.6,0.3c-0.5,0.2-0.9,0.4-1.2,0.7c-0.3,0.3-0.5,0.6-0.5,1.1s0.2,0.8,0.5,1.1s0.8,0.5,1.2,0.7
				c0.5,0.2,1,0.3,1.6,0.3c0.5,0.1,1,0.1,1.5,0.1c0.4,0,0.9,0,1.4-0.1s1.1-0.2,1.6-0.3c0.5-0.2,0.9-0.4,1.2-0.7
				c0.3-0.3,0.5-0.6,0.5-1.1s-0.2-0.8-0.5-1.1s-0.8-0.5-1.2-0.7c-0.5-0.2-1-0.3-1.6-0.3C494.4,666.4,493.9,666.4,493.5,666.4z"/>
			<path class="st22" d="M510.3,665.9c0,1.3-0.2,2.5-0.5,3.5c0.2,0.5,0.4,1,0.7,1.5c0.3,0.5,0.6,1,1,1.4c0.4,0.5,0.8,0.9,1.2,1.2
				c0.4,0.4,0.9,0.7,1.3,0.9c0.1,0,0.1,0.1,0.1,0.2c0,0.1,0,0.1,0,0.2l-0.4,0.6c-0.1,0.1-0.1,0.1-0.2,0.1c-0.1,0-0.1,0-0.3-0.1
				c-0.3-0.2-0.7-0.4-1.1-0.8c-0.4-0.3-0.7-0.7-1.1-1.1s-0.7-0.8-1-1.3s-0.6-0.9-0.8-1.3c-0.9,2-2.3,3.6-4.2,4.8
				c-0.1,0-0.1,0.1-0.2,0.1s-0.1,0-0.2-0.1l-0.5-0.7c0-0.1,0-0.1,0-0.2c0-0.1,0.1-0.1,0.1-0.2c0.7-0.4,1.4-1,2-1.6
				c0.6-0.7,1.1-1.4,1.5-2.2s0.7-1.6,1-2.5c0.2-0.9,0.3-1.8,0.3-2.8c0-0.2,0.1-0.3,0.2-0.3l0.9,0.1
				C510.3,665.7,510.3,665.8,510.3,665.9z M519.5,683c-0.1,0-0.1,0.1-0.2,0.1h-10c-0.6,0-1-0.1-1.2-0.4c-0.2-0.2-0.3-0.6-0.3-1.2
				v-3.9c0-0.2,0.1-0.3,0.3-0.3h0.8c0.2,0,0.3,0.1,0.3,0.3v3.8c0,0.2,0,0.3,0.1,0.4c0.1,0,0.2,0.1,0.4,0.1h9.7c0.1,0,0.1,0,0.2,0.1
				c0.1,0,0.1,0.1,0.1,0.2v0.7C519.6,682.9,519.6,683,519.5,683z M517.6,668.4v-3.1c0-0.2,0.1-0.3,0.3-0.3h0.8
				c0.2,0,0.3,0.1,0.3,0.3v12.8c0,0.2-0.1,0.3-0.3,0.3h-0.8c-0.2,0-0.3-0.1-0.3-0.3v-4.9h-4.1c-0.2,0-0.3-0.1-0.3-0.2v-0.7
				c0-0.2,0.1-0.2,0.3-0.2h4.1v-2.4h-4.1c-0.2,0-0.3-0.1-0.3-0.2v-0.7c0-0.2,0.1-0.2,0.3-0.2h4.1V668.4z"/>
			<path class="st22" d="M534.8,666.3c0,0.9,0,1.7-0.1,2.5s-0.2,1.6-0.4,2.3c0.1,0.5,0.3,1.1,0.6,1.7c0.3,0.6,0.6,1.2,1,1.8
				s0.8,1.2,1.3,1.7c0.5,0.6,1,1.1,1.5,1.5c0.1,0.1,0.1,0.1,0.1,0.2c0,0.1,0,0.1-0.1,0.2l-0.5,0.6c-0.1,0.1-0.3,0.1-0.4,0
				c-0.4-0.3-0.8-0.7-1.1-1.2c-0.4-0.4-0.8-0.9-1.1-1.4c-0.4-0.5-0.7-1-1-1.5s-0.6-1-0.8-1.5c-0.4,1.2-1,2.3-1.7,3.4
				c-0.7,1-1.5,2-2.5,2.8c-0.1,0.1-0.2,0.1-0.3,0l-0.6-0.6c0,0-0.1-0.1-0.1-0.2c0-0.1,0-0.1,0.1-0.2c0.8-0.8,1.5-1.6,2.1-2.4
				c0.6-0.9,1.1-1.8,1.5-2.8s0.7-2.1,0.8-3.2c0.2-1.2,0.3-2.4,0.3-3.8c0-0.1,0-0.2,0.1-0.2c0,0,0.1-0.1,0.2-0.1h0.9
				C534.7,666,534.8,666.1,534.8,666.3z M543.1,683.5h-0.8c-0.2,0-0.3-0.1-0.3-0.3v-17.9c0-0.2,0.1-0.3,0.3-0.3h0.8
				c0.2,0,0.3,0.1,0.3,0.3v17.9C543.4,683.4,543.3,683.5,543.1,683.5z"/>
			<path class="st22" d="M556.3,667.6c-0.2,0.5-0.4,1-0.8,1.6c-0.3,0.5-0.7,1-1.1,1.5c0.5,0.5,1,0.9,1.7,1.4
				c0.7,0.4,1.4,0.8,2.2,1.2c0.1,0,0.1,0.1,0.1,0.2c0,0.1,0,0.1,0,0.2l-0.4,0.7c0,0.1-0.1,0.1-0.1,0.1c-0.1,0-0.1,0-0.3-0.1
				c-0.3-0.1-0.6-0.3-1-0.5c-0.3-0.2-0.7-0.4-1-0.6c-0.4-0.2-0.7-0.5-1.1-0.8c-0.4-0.3-0.7-0.6-1-0.9c-0.8,0.8-1.6,1.5-2.6,2.1
				c-0.9,0.6-1.9,1.2-2.8,1.6c-0.1,0-0.1,0-0.2,0.1c-0.1,0-0.1,0-0.2-0.1l-0.4-0.7c0-0.1,0-0.1,0-0.2s0.1-0.1,0.2-0.1
				c1.7-0.8,3.2-1.8,4.4-2.8c1.2-1.1,2.2-2.3,2.8-3.7c0.1-0.2,0.1-0.3,0-0.4s-0.2-0.1-0.4-0.1h-5.9c-0.2,0-0.2-0.1-0.2-0.3v-0.7
				c0-0.2,0.1-0.2,0.3-0.2h6.4c0.7,0,1.1,0.1,1.3,0.4C556.5,666.6,556.5,667,556.3,667.6z M549.9,676.9c0.1,0,0.1-0.1,0.2-0.1h9.8
				c0.3,0,0.6,0,0.8,0.1c0.2,0,0.4,0.1,0.5,0.2c0.1,0.1,0.2,0.3,0.2,0.5s0.1,0.4,0.1,0.8v4.9c0,0.2-0.1,0.3-0.3,0.3h-0.8
				c-0.2,0-0.3-0.1-0.3-0.3v-4.8c0-0.2,0-0.3-0.1-0.3s-0.2-0.1-0.4-0.1h-9.5c-0.1,0-0.1,0-0.2-0.1s-0.1-0.1-0.1-0.2v-0.7
				C549.8,677,549.9,677,549.9,676.9z M561.2,675.7h-0.8c-0.2,0-0.3-0.1-0.3-0.3v-10.1c0-0.2,0.1-0.3,0.3-0.3h0.8
				c0.2,0,0.3,0.1,0.3,0.3v4.8h2.8c0.1,0,0.1,0,0.2,0.1c0.1,0,0.1,0.1,0.1,0.2v0.7c0,0.1,0,0.1-0.1,0.2c-0.1,0.1-0.1,0.1-0.2,0.1
				h-2.8v4.2C561.5,675.6,561.4,675.7,561.2,675.7z"/>
			<path class="st22" d="M575,668c-0.1,1.1-0.3,2.3-0.7,3.4s-0.9,2.2-1.6,3.2s-1.5,1.9-2.5,2.8s-2.1,1.6-3.3,2.3
				c-0.2,0.1-0.3,0.1-0.4-0.1l-0.3-0.8c-0.1-0.2-0.1-0.3,0.1-0.3c1.1-0.6,2.1-1.3,3-2s1.6-1.6,2.2-2.5c0.6-0.9,1.1-1.8,1.5-2.8
				s0.6-2,0.7-3c0-0.2,0-0.3-0.1-0.4c-0.1-0.1-0.2-0.1-0.4-0.1H567c-0.2,0-0.2-0.1-0.2-0.3v-0.6c0-0.2,0.1-0.2,0.2-0.2h6.6
				c0.6,0,1,0.1,1.2,0.4C575,667.1,575.1,667.5,575,668z M580,683.5h-0.8c-0.2,0-0.3-0.1-0.3-0.3v-17.9c0-0.2,0.1-0.3,0.3-0.3h0.8
				c0.2,0,0.3,0.1,0.3,0.3v7.1h2.8c0.1,0,0.1,0,0.2,0.1c0.1,0,0.1,0.1,0.1,0.2v0.7c0,0.1,0,0.1-0.1,0.2c-0.1,0.1-0.1,0.1-0.2,0.1
				h-2.8v9.6C580.3,683.4,580.2,683.5,580,683.5z"/>
		</g>
		<g>
			<path d="M491.3,650.1c-0.3,0-0.6-0.1-0.8-0.3c-0.2-0.2-0.3-0.5-0.3-0.8v-19.5l-3,1c-0.2,0.1-0.4,0.1-0.6,0.1
				c-0.3,0-0.6-0.1-0.8-0.3c-0.2-0.2-0.3-0.5-0.3-0.8c0-0.2,0.1-0.5,0.2-0.7s0.3-0.3,0.6-0.5l4.6-1.6c0.1,0,0.2-0.1,0.3-0.1
				c0.1,0,0.2,0,0.3,0c0.3,0,0.6,0.1,0.8,0.3c0.2,0.2,0.3,0.5,0.3,0.8v21.1c0,0.3-0.1,0.6-0.3,0.8
				C491.9,650,491.6,650.1,491.3,650.1z"/>
			<path d="M503.8,626.6c1.4,0,2.6,0.3,3.6,0.9c1.1,0.6,1.9,1.4,2.5,2.5s0.9,2.3,0.9,3.6s-0.3,2.5-0.9,3.6s-1.4,1.9-2.5,2.5
				s-2.3,0.9-3.6,0.9s-2.6-0.3-3.6-0.9c-1-0.6-1.9-1.4-2.5-2.5s-0.9-2.3-0.9-3.6c0-1.4,0.3-2.6,0.9-3.6c0.6-1.1,1.4-1.9,2.5-2.5
				C501.2,626.9,502.4,626.6,503.8,626.6z M503.8,628.8c-0.9,0-1.7,0.2-2.5,0.6c-0.7,0.4-1.3,1-1.7,1.7c-0.4,0.7-0.6,1.6-0.6,2.5
				s0.2,1.8,0.6,2.5s1,1.3,1.7,1.8c0.7,0.4,1.5,0.6,2.5,0.6s1.7-0.2,2.5-0.6s1.3-1,1.7-1.8c0.4-0.7,0.6-1.6,0.6-2.5
				s-0.2-1.8-0.6-2.5s-1-1.3-1.7-1.7S504.7,628.8,503.8,628.8z M510,637.3l-7.4,12.2c-0.3,0.4-0.6,0.6-1,0.6c-0.3,0-0.6-0.1-0.8-0.3
				c-0.2-0.2-0.3-0.4-0.4-0.7s0-0.6,0.2-0.8l4.9-8L510,637.3z"/>
			<path d="M511,655c-0.2,0-0.4-0.1-0.5-0.2c-0.1-0.1-0.2-0.3-0.2-0.4c0-0.3,0.1-0.6,0.3-0.8c0.2-0.3,0.4-0.5,0.6-0.8s0.3-0.6,0.3-1
				s-0.1-0.7-0.2-0.9s-0.3-0.5-0.5-0.6c-0.2-0.2-0.4-0.4-0.5-0.6c-0.1-0.2-0.2-0.5-0.2-0.9c0-0.5,0.2-0.9,0.5-1.2s0.7-0.5,1.2-0.5
				c0.6,0,1.1,0.2,1.5,0.7s0.6,1.1,0.6,2c0,0.6-0.1,1.1-0.2,1.8c-0.2,0.6-0.4,1.2-0.7,1.7s-0.6,1-0.9,1.3
				C511.8,654.9,511.4,655,511,655z"/>
			<path d="M524.3,650.2c-1.3,0-2.5-0.3-3.6-0.9c-1.1-0.6-1.9-1.5-2.5-2.6s-0.9-2.3-0.9-3.7c0-1.3,0.3-2.5,0.9-3.5
				c0.6-1,1.4-1.9,2.5-2.5s2.3-0.9,3.6-0.9s2.5,0.3,3.6,0.9c1.1,0.6,1.9,1.4,2.5,2.5s0.9,2.2,0.9,3.5c0,1.4-0.3,2.6-0.9,3.7
				c-0.6,1.1-1.4,1.9-2.5,2.6C526.8,649.9,525.6,650.2,524.3,650.2z M524.3,638c-1.1,0-2.1-0.2-3-0.8s-1.6-1.2-2.1-2
				s-0.8-1.8-0.8-2.9c0-1.1,0.2-2,0.8-2.9c0.5-0.9,1.2-1.5,2.1-2c0.9-0.5,1.9-0.8,3-0.8s2.1,0.2,3,0.7s1.6,1.2,2.1,2
				s0.7,1.8,0.7,2.9c0,1.1-0.3,2.1-0.8,2.9s-1.2,1.5-2.1,2C526.4,637.8,525.4,638,524.3,638z M524.3,648.1c0.9,0,1.7-0.2,2.4-0.7
				s1.3-1.1,1.7-1.8c0.4-0.8,0.6-1.6,0.6-2.6c0-0.9-0.2-1.7-0.6-2.5s-0.9-1.3-1.7-1.7c-0.7-0.4-1.5-0.6-2.4-0.6s-1.7,0.2-2.4,0.6
				c-0.7,0.4-1.3,1-1.7,1.7s-0.6,1.6-0.6,2.5c0,1,0.2,1.8,0.6,2.6c0.4,0.8,1,1.4,1.7,1.8C522.6,647.9,523.4,648.1,524.3,648.1z
				 M524.3,636c0.7,0,1.3-0.2,1.8-0.5s1-0.8,1.3-1.3c0.3-0.6,0.5-1.2,0.5-1.9s-0.1-1.3-0.4-1.8c-0.3-0.5-0.7-0.9-1.3-1.2
				c-0.5-0.3-1.2-0.4-1.8-0.4c-1,0-1.9,0.3-2.5,1c-0.7,0.7-1,1.5-1,2.5c0,1.1,0.3,2,1,2.7C522.4,635.6,523.3,636,524.3,636z"/>
			<path d="M541.7,650.1c-1.5,0-2.8-0.5-3.8-1.4c-1.1-0.9-1.9-2.3-2.4-4c-0.6-1.8-0.8-3.9-0.8-6.3c0-2.4,0.3-4.5,0.8-6.3
				s1.4-3.1,2.4-4.1c1.1-0.9,2.3-1.4,3.8-1.4s2.8,0.5,3.9,1.4c1,1,1.8,2.3,2.4,4.1c0.6,1.8,0.8,3.8,0.8,6.2s-0.3,4.5-0.8,6.3
				s-1.3,3.1-2.4,4.1C544.5,649.6,543.2,650.1,541.7,650.1z M541.7,647.8c1.1,0,2-0.4,2.7-1.2s1.2-1.9,1.6-3.3
				c0.3-1.4,0.5-3,0.5-4.9c0-1.8-0.2-3.4-0.5-4.8c-0.3-1.4-0.9-2.5-1.6-3.3c-0.7-0.8-1.6-1.2-2.6-1.2c-1.1,0-1.9,0.4-2.6,1.2
				s-1.2,1.9-1.6,3.3s-0.5,3-0.5,4.8s0.2,3.5,0.5,4.9s0.9,2.5,1.6,3.3S540.7,647.8,541.7,647.8z"/>
			<path d="M558.9,650.1c-1.5,0-2.8-0.5-3.8-1.4c-1.1-0.9-1.9-2.3-2.4-4s-0.8-3.9-0.8-6.3c0-2.4,0.3-4.5,0.8-6.3s1.4-3.1,2.4-4.1
				c1.1-0.9,2.3-1.4,3.8-1.4s2.8,0.5,3.9,1.4c1.1,1,1.8,2.3,2.4,4.1c0.5,1.8,0.8,3.8,0.8,6.2s-0.3,4.5-0.8,6.3
				c-0.6,1.8-1.3,3.1-2.4,4.1C561.7,649.6,560.4,650.1,558.9,650.1z M558.9,647.8c1.1,0,2-0.4,2.7-1.2s1.2-1.9,1.6-3.3
				c0.3-1.4,0.5-3,0.5-4.9c0-1.8-0.2-3.4-0.5-4.8c-0.3-1.4-0.9-2.5-1.6-3.3c-0.7-0.8-1.6-1.2-2.6-1.2s-1.9,0.4-2.6,1.2
				c-0.7,0.8-1.2,1.9-1.6,3.3c-0.4,1.4-0.5,3-0.5,4.8s0.2,3.5,0.5,4.9s0.9,2.5,1.6,3.3C556.9,647.4,557.8,647.8,558.9,647.8z"/>
			<path d="M577.1,647.4c-0.1,0-0.2,0-0.3-0.1s-0.1-0.2-0.1-0.3v-4.8c-0.6,0-1.3,0.1-2,0.1s-1.4,0-2.1,0.1s-1.3,0-1.9,0
				c-0.6,0-1.1,0-1.5,0c-0.1,0-0.2,0-0.3-0.1s-0.1-0.2-0.1-0.3v-1c0-0.1,0-0.2,0.1-0.3s0.2-0.1,0.3-0.1c0.6,0,1.3,0,2.1,0
				s1.6,0,2.5,0c0.8,0,1.6,0,2.4-0.1c0.8,0,1.4-0.1,2-0.1c0.7,0,1.5-0.1,2.3-0.2c0.9-0.1,1.7-0.2,2.6-0.3c0.9-0.1,1.7-0.2,2.4-0.3
				s1.4-0.2,1.9-0.3c0.1,0,0.2,0,0.3,0s0.1,0.1,0.2,0.2l0.2,1c0,0.2-0.1,0.4-0.4,0.4c-1.3,0.2-2.7,0.4-4.3,0.6
				c-1.6,0.2-3.2,0.4-4.7,0.5v4.9c0,0.1,0,0.2-0.1,0.3s-0.2,0.1-0.3,0.1L577.1,647.4L577.1,647.4z M584.5,632.8
				c0,0.8-0.2,1.5-0.5,2.1s-0.8,1.2-1.4,1.7c-0.6,0.5-1.3,0.9-2.2,1.2c-0.8,0.3-1.8,0.4-2.7,0.4c-1,0-1.8-0.1-2.7-0.4
				s-1.5-0.7-2.1-1.2s-1.1-1.1-1.4-1.7s-0.5-1.4-0.5-2.1c0-0.8,0.2-1.6,0.5-2.3s0.8-1.3,1.4-1.7c0.6-0.5,1.3-0.8,2.1-1.1
				c0.8-0.2,1.7-0.4,2.7-0.4c0.9,0,1.8,0.1,2.6,0.4c0.8,0.3,1.5,0.6,2.2,1.1c0.6,0.5,1.1,1,1.5,1.7
				C584.3,631.2,584.5,631.9,584.5,632.8z M582.5,632.7c0-0.6-0.1-1.1-0.4-1.6c-0.3-0.5-0.6-0.8-1.1-1.2c-0.4-0.3-1-0.5-1.5-0.7
				s-1.2-0.2-1.9-0.2s-1.3,0.1-1.9,0.2s-1.1,0.4-1.5,0.7s-0.8,0.7-1,1.2c-0.2,0.4-0.4,1-0.4,1.6c0,1.1,0.4,2.1,1.3,2.7
				c0.9,0.7,2,1,3.4,1c0.7,0,1.3-0.1,1.9-0.3s1.1-0.5,1.5-0.8s0.8-0.7,1.1-1.2C582.4,633.8,582.5,633.3,582.5,632.7z M592.2,653.7
				c-0.1,0.1-0.2,0.1-0.3,0.1h-16.3c-0.9,0-1.6-0.2-1.8-0.5c-0.3-0.4-0.4-0.9-0.4-1.8v-3.8c0-0.3,0.1-0.4,0.4-0.4h1.2
				c0.3,0,0.4,0.1,0.4,0.4v3.6c0,0.3,0,0.5,0.1,0.5c0.1,0.1,0.3,0.1,0.6,0.1h15.8c0.1,0,0.2,0,0.3,0.1s0.2,0.2,0.2,0.3v1.1
				C592.3,653.5,592.3,653.6,592.2,653.7z M589.5,643.4v-16.3c0-0.3,0.1-0.4,0.4-0.4h1.2c0.3,0,0.4,0.1,0.4,0.4v21.5
				c0,0.3-0.1,0.4-0.4,0.4h-1.2c-0.3,0-0.4-0.1-0.4-0.4v-3.3h-6c-0.3,0-0.4-0.1-0.4-0.4v-1.1c0-0.2,0.1-0.4,0.4-0.4H589.5z"/>
		</g>
	</g>
	<g class="st2">
		<g>
			<path d="M962.1,650.1c-0.3,0-0.6-0.1-0.8-0.3s-0.3-0.5-0.3-0.8s0.1-0.6,0.3-0.8l9.1-10.7c0.5-0.5,0.9-1.1,1.2-1.8
				s0.4-1.3,0.4-1.9c0-0.9-0.2-1.8-0.6-2.5c-0.4-0.7-0.9-1.3-1.6-1.7c-0.7-0.4-1.4-0.6-2.3-0.6c-0.8,0-1.6,0.2-2.3,0.6
				c-0.7,0.4-1.2,1-1.6,1.7c-0.4,0.7-0.6,1.5-0.6,2.4c0,0.3-0.1,0.6-0.3,0.8s-0.5,0.3-0.8,0.3s-0.6-0.1-0.8-0.3s-0.3-0.5-0.3-0.8
				c0-1.3,0.3-2.5,0.9-3.6s1.4-1.9,2.4-2.5s2.2-0.9,3.5-0.9s2.5,0.3,3.5,0.9s1.8,1.4,2.4,2.5s0.9,2.3,0.9,3.7c0,0.7-0.1,1.3-0.3,1.9
				c-0.2,0.6-0.5,1.2-0.9,1.7c-0.4,0.6-0.8,1.1-1.2,1.5l-7.8,8.9h9.4c0.3,0,0.6,0.1,0.8,0.4c0.2,0.2,0.3,0.5,0.3,0.8
				s-0.1,0.6-0.3,0.8s-0.5,0.3-0.8,0.3H962.1z"/>
			<path d="M985.8,650.1c-1.4,0-2.7-0.3-3.9-1c-1.1-0.7-2-1.6-2.7-2.7c-0.7-1.1-1-2.4-1-3.9c0-0.3,0.1-0.6,0.3-0.8s0.5-0.3,0.8-0.3
				s0.6,0.1,0.9,0.3c0.2,0.2,0.3,0.5,0.3,0.8c0,1,0.2,1.9,0.7,2.7s1.1,1.4,1.9,1.9c0.8,0.5,1.7,0.7,2.7,0.7s1.9-0.2,2.7-0.7
				s1.4-1.1,1.9-1.9c0.5-0.8,0.7-1.7,0.7-2.7s-0.2-1.9-0.7-2.7s-1.1-1.4-1.9-1.9c-0.8-0.5-1.7-0.7-2.7-0.7h-5.2
				c-0.3,0-0.6-0.1-0.8-0.3s-0.3-0.5-0.3-0.8v-8.3c0-0.3,0.1-0.6,0.3-0.8s0.5-0.3,0.8-0.3h10.5c0.3,0,0.6,0.1,0.8,0.3
				s0.3,0.5,0.3,0.8s-0.1,0.6-0.3,0.8s-0.5,0.3-0.8,0.3h-9.4v5.9h4.1c1.5,0,2.8,0.3,3.9,1c1.1,0.7,2,1.6,2.7,2.7
				c0.7,1.2,1,2.4,1,3.9s-0.3,2.7-1,3.9s-1.6,2.1-2.7,2.7C988.5,649.8,987.2,650.1,985.8,650.1z"/>
			<path d="M997.5,655c-0.2,0-0.4-0.1-0.5-0.2c-0.1-0.1-0.2-0.3-0.2-0.4c0-0.3,0.1-0.6,0.3-0.8c0.2-0.3,0.4-0.5,0.6-0.8
				c0.2-0.3,0.3-0.6,0.3-1s-0.1-0.7-0.2-0.9c-0.1-0.2-0.3-0.5-0.5-0.6c-0.2-0.2-0.4-0.4-0.5-0.6c-0.1-0.2-0.2-0.5-0.2-0.9
				c0-0.5,0.2-0.9,0.5-1.2s0.7-0.5,1.2-0.5c0.6,0,1.1,0.2,1.5,0.7s0.6,1.1,0.6,2c0,0.6-0.1,1.1-0.2,1.8c-0.2,0.6-0.4,1.2-0.7,1.7
				s-0.6,1-0.9,1.3S997.8,655,997.5,655z"/>
			<path d="M1010.7,650.2c-1.3,0-2.5-0.3-3.6-0.9c-1.1-0.6-1.9-1.5-2.5-2.6s-0.9-2.3-0.9-3.7c0-1.3,0.3-2.5,0.9-3.5
				c0.6-1,1.4-1.9,2.5-2.5s2.3-0.9,3.6-0.9s2.5,0.3,3.6,0.9c1.1,0.6,1.9,1.4,2.5,2.5s0.9,2.2,0.9,3.5c0,1.4-0.3,2.6-0.9,3.7
				c-0.6,1.1-1.4,1.9-2.5,2.6C1013.2,649.9,1012,650.2,1010.7,650.2z M1010.7,638c-1.1,0-2.1-0.2-3-0.8s-1.6-1.2-2.1-2
				s-0.8-1.8-0.8-2.9c0-1.1,0.2-2,0.8-2.9c0.5-0.9,1.2-1.5,2.1-2c0.9-0.5,1.9-0.8,3-0.8s2.1,0.2,3,0.7s1.6,1.2,2.1,2
				s0.7,1.8,0.7,2.9c0,1.1-0.3,2.1-0.8,2.9s-1.2,1.5-2.1,2C1012.8,637.8,1011.8,638,1010.7,638z M1010.7,648.1
				c0.9,0,1.7-0.2,2.4-0.7s1.3-1.1,1.7-1.8c0.4-0.8,0.6-1.6,0.6-2.6c0-0.9-0.2-1.7-0.6-2.5s-0.9-1.3-1.7-1.7
				c-0.7-0.4-1.5-0.6-2.4-0.6s-1.7,0.2-2.4,0.6c-0.7,0.4-1.3,1-1.7,1.7s-0.6,1.6-0.6,2.5c0,1,0.2,1.8,0.6,2.6c0.4,0.8,1,1.4,1.7,1.8
				C1009,647.9,1009.8,648.1,1010.7,648.1z M1010.7,636c0.7,0,1.3-0.2,1.8-0.5s1-0.8,1.3-1.3c0.3-0.6,0.5-1.2,0.5-1.9
				s-0.1-1.3-0.4-1.8c-0.3-0.5-0.7-0.9-1.3-1.2c-0.5-0.3-1.2-0.4-1.8-0.4c-1,0-1.9,0.3-2.5,1c-0.7,0.7-1,1.5-1,2.5
				c0,1.1,0.3,2,1,2.7C1008.8,635.6,1009.7,636,1010.7,636z"/>
			<path d="M1028.1,650.1c-1.5,0-2.8-0.5-3.8-1.4c-1.1-0.9-1.9-2.3-2.4-4c-0.6-1.8-0.8-3.9-0.8-6.3c0-2.4,0.3-4.5,0.8-6.3
				s1.4-3.1,2.4-4.1c1.1-0.9,2.3-1.4,3.8-1.4s2.8,0.5,3.9,1.4c1,1,1.8,2.3,2.4,4.1s0.8,3.8,0.8,6.2s-0.3,4.5-0.8,6.3
				s-1.3,3.1-2.4,4.1C1031,649.6,1029.7,650.1,1028.1,650.1z M1028.1,647.8c1.1,0,2-0.4,2.7-1.2s1.2-1.9,1.6-3.3
				c0.3-1.4,0.5-3,0.5-4.9c0-1.8-0.2-3.4-0.5-4.8c-0.3-1.4-0.9-2.5-1.6-3.3s-1.6-1.2-2.6-1.2c-1.1,0-1.9,0.4-2.6,1.2
				s-1.2,1.9-1.6,3.3c-0.4,1.4-0.5,3-0.5,4.8s0.2,3.5,0.5,4.9c0.3,1.4,0.9,2.5,1.6,3.3S1027.1,647.8,1028.1,647.8z"/>
			<path d="M1045.3,650.1c-1.5,0-2.8-0.5-3.8-1.4c-1.1-0.9-1.9-2.3-2.4-4s-0.8-3.9-0.8-6.3c0-2.4,0.3-4.5,0.8-6.3s1.4-3.1,2.4-4.1
				c1.1-0.9,2.3-1.4,3.8-1.4s2.8,0.5,3.9,1.4c1.1,1,1.8,2.3,2.4,4.1c0.5,1.8,0.8,3.8,0.8,6.2s-0.3,4.5-0.8,6.3
				c-0.6,1.8-1.3,3.1-2.4,4.1C1048.1,649.6,1046.8,650.1,1045.3,650.1z M1045.3,647.8c1.1,0,2-0.4,2.7-1.2s1.2-1.9,1.6-3.3
				c0.3-1.4,0.5-3,0.5-4.9c0-1.8-0.2-3.4-0.5-4.8c-0.3-1.4-0.9-2.5-1.6-3.3s-1.6-1.2-2.6-1.2s-1.9,0.4-2.6,1.2s-1.2,1.9-1.6,3.3
				c-0.4,1.4-0.5,3-0.5,4.8s0.2,3.5,0.5,4.9s0.9,2.5,1.6,3.3C1043.3,647.4,1044.2,647.8,1045.3,647.8z"/>
			<path d="M1063.5,647.4c-0.1,0-0.2,0-0.3-0.1c-0.1-0.1-0.1-0.2-0.1-0.3v-4.8c-0.6,0-1.3,0.1-2,0.1s-1.4,0-2.1,0.1s-1.3,0-1.9,0
				s-1.1,0-1.5,0c-0.1,0-0.2,0-0.3-0.1c-0.1-0.1-0.1-0.2-0.1-0.3v-1c0-0.1,0-0.2,0.1-0.3s0.2-0.1,0.3-0.1c0.6,0,1.3,0,2.1,0
				c0.8,0,1.6,0,2.5,0c0.8,0,1.6,0,2.4-0.1c0.8,0,1.4-0.1,2-0.1c0.7,0,1.5-0.1,2.3-0.2c0.9-0.1,1.7-0.2,2.6-0.3s1.7-0.2,2.4-0.3
				s1.4-0.2,1.9-0.3c0.1,0,0.2,0,0.3,0s0.1,0.1,0.2,0.2l0.2,1c0,0.2-0.1,0.4-0.4,0.4c-1.3,0.2-2.7,0.4-4.3,0.6
				c-1.6,0.2-3.2,0.4-4.7,0.5v4.9c0,0.1,0,0.2-0.1,0.3s-0.2,0.1-0.3,0.1L1063.5,647.4L1063.5,647.4z M1070.9,632.8
				c0,0.8-0.2,1.5-0.5,2.1s-0.8,1.2-1.4,1.7s-1.3,0.9-2.2,1.2c-0.8,0.3-1.8,0.4-2.7,0.4c-1,0-1.8-0.1-2.7-0.4s-1.5-0.7-2.1-1.2
				s-1.1-1.1-1.4-1.7s-0.5-1.4-0.5-2.1c0-0.8,0.2-1.6,0.5-2.3s0.8-1.3,1.4-1.7c0.6-0.5,1.3-0.8,2.1-1.1c0.8-0.2,1.7-0.4,2.7-0.4
				c0.9,0,1.8,0.1,2.6,0.4c0.8,0.3,1.5,0.6,2.2,1.1c0.6,0.5,1.1,1,1.5,1.7C1070.7,631.2,1070.9,631.9,1070.9,632.8z M1068.9,632.7
				c0-0.6-0.1-1.1-0.4-1.6s-0.6-0.8-1.1-1.2c-0.4-0.3-1-0.5-1.5-0.7s-1.2-0.2-1.9-0.2c-0.7,0-1.3,0.1-1.9,0.2s-1.1,0.4-1.5,0.7
				s-0.8,0.7-1,1.2c-0.2,0.4-0.4,1-0.4,1.6c0,1.1,0.4,2.1,1.3,2.7c0.9,0.7,2,1,3.4,1c0.7,0,1.3-0.1,1.9-0.3s1.1-0.5,1.5-0.8
				s0.8-0.7,1.1-1.2C1068.8,633.8,1068.9,633.3,1068.9,632.7z M1078.6,653.7c-0.1,0.1-0.2,0.1-0.3,0.1H1062c-0.9,0-1.6-0.2-1.8-0.5
				c-0.3-0.4-0.4-0.9-0.4-1.8v-3.8c0-0.3,0.1-0.4,0.4-0.4h1.2c0.3,0,0.4,0.1,0.4,0.4v3.6c0,0.3,0,0.5,0.1,0.5
				c0.1,0.1,0.3,0.1,0.6,0.1h15.8c0.1,0,0.2,0,0.3,0.1c0.1,0.1,0.2,0.2,0.2,0.3v1.1C1078.7,653.5,1078.7,653.6,1078.6,653.7z
				 M1075.9,643.4v-16.3c0-0.3,0.1-0.4,0.4-0.4h1.2c0.3,0,0.4,0.1,0.4,0.4v21.5c0,0.3-0.1,0.4-0.4,0.4h-1.2c-0.3,0-0.4-0.1-0.4-0.4
				v-3.3h-6c-0.3,0-0.4-0.1-0.4-0.4v-1.1c0-0.2,0.1-0.4,0.4-0.4H1075.9z"/>
		</g>
		<g>
			<path class="st22" d="M998.5,674.4c0.1,0,0.1,0.1,0.1,0.2v0.7c0,0.1,0,0.1-0.1,0.2c-0.1,0.1-0.1,0.1-0.2,0.1h-17
				c-0.1,0-0.2,0-0.2-0.1c-0.1-0.1-0.1-0.1-0.1-0.2v-0.7c0-0.1,0-0.1,0.1-0.2c0.1,0,0.1-0.1,0.2-0.1h7.8v-2.4
				c-0.6,0-1.2-0.1-1.9-0.2c-0.7-0.1-1.2-0.3-1.8-0.6c-0.5-0.3-1-0.6-1.3-1s-0.5-0.9-0.5-1.5c0-0.7,0.2-1.2,0.6-1.6
				c0.4-0.4,0.9-0.8,1.6-1s1.3-0.4,2-0.5s1.4-0.2,2-0.2s1.3,0.1,2,0.2c0.7,0.1,1.4,0.3,2,0.6s1.1,0.6,1.5,1.1c0.4,0.4,0.6,1,0.6,1.6
				s-0.2,1.1-0.5,1.5c-0.4,0.4-0.8,0.8-1.3,1c-0.5,0.3-1.1,0.5-1.8,0.6s-1.3,0.2-1.9,0.3v2.4h7.8
				C998.4,674.3,998.5,674.3,998.5,674.4z M983.5,677.5c0.1,0,0.1-0.1,0.2-0.1h10.6c0.6,0,1,0.1,1.2,0.4c0.2,0.2,0.3,0.6,0.3,1.2
				v4.4c0,0.2-0.1,0.3-0.3,0.3h-0.8c-0.2,0-0.3-0.1-0.3-0.3v-4.3c0-0.2,0-0.3-0.1-0.4c-0.1,0-0.2-0.1-0.4-0.1h-10.3
				c-0.1,0-0.1,0-0.2-0.1c-0.1,0-0.1-0.1-0.1-0.2v-0.7C983.4,677.6,983.4,677.6,983.5,677.5z M989.8,666.4c-0.4,0-0.9,0-1.5,0.1
				c-0.5,0.1-1.1,0.2-1.6,0.3c-0.5,0.2-0.9,0.4-1.2,0.7s-0.5,0.6-0.5,1.1s0.2,0.8,0.5,1.1s0.8,0.5,1.2,0.7c0.5,0.2,1,0.3,1.6,0.3
				c0.5,0.1,1,0.1,1.5,0.1c0.4,0,0.9,0,1.4-0.1s1.1-0.2,1.6-0.3c0.5-0.2,0.9-0.4,1.2-0.7s0.5-0.6,0.5-1.1s-0.2-0.8-0.5-1.1
				s-0.8-0.5-1.2-0.7c-0.5-0.2-1-0.3-1.6-0.3C990.7,666.4,990.3,666.4,989.8,666.4z"/>
			<path class="st22" d="M1006.7,665.9c0,1.3-0.2,2.5-0.5,3.5c0.2,0.5,0.4,1,0.7,1.5s0.6,1,1,1.4c0.4,0.5,0.8,0.9,1.2,1.2
				c0.4,0.4,0.9,0.7,1.3,0.9c0.1,0,0.1,0.1,0.1,0.2c0,0.1,0,0.1,0,0.2l-0.4,0.6c-0.1,0.1-0.1,0.1-0.2,0.1c-0.1,0-0.1,0-0.3-0.1
				c-0.3-0.2-0.7-0.4-1.1-0.8c-0.4-0.3-0.7-0.7-1.1-1.1s-0.7-0.8-1-1.3s-0.6-0.9-0.8-1.3c-0.9,2-2.3,3.6-4.2,4.8
				c-0.1,0-0.1,0.1-0.2,0.1c-0.1,0-0.1,0-0.2-0.1l-0.5-0.7c0-0.1,0-0.1,0-0.2c0-0.1,0.1-0.1,0.1-0.2c0.7-0.4,1.4-1,2-1.6
				c0.6-0.7,1.1-1.4,1.5-2.2s0.7-1.6,1-2.5c0.2-0.9,0.3-1.8,0.3-2.8c0-0.2,0.1-0.3,0.2-0.3l0.9,0.1
				C1006.6,665.7,1006.7,665.8,1006.7,665.9z M1015.8,683c-0.1,0-0.1,0.1-0.2,0.1h-10c-0.6,0-1-0.1-1.2-0.4
				c-0.2-0.2-0.3-0.6-0.3-1.2v-3.9c0-0.2,0.1-0.3,0.3-0.3h0.8c0.2,0,0.3,0.1,0.3,0.3v3.8c0,0.2,0,0.3,0.1,0.4c0.1,0,0.2,0.1,0.4,0.1
				h9.7c0.1,0,0.1,0,0.2,0.1c0.1,0,0.1,0.1,0.1,0.2v0.7C1015.9,682.9,1015.9,683,1015.8,683z M1014,668.4v-3.1
				c0-0.2,0.1-0.3,0.3-0.3h0.8c0.2,0,0.3,0.1,0.3,0.3v12.8c0,0.2-0.1,0.3-0.3,0.3h-0.8c-0.2,0-0.3-0.1-0.3-0.3v-4.9h-4.1
				c-0.2,0-0.3-0.1-0.3-0.2v-0.7c0-0.2,0.1-0.2,0.3-0.2h4.1v-2.4h-4.1c-0.2,0-0.3-0.1-0.3-0.2v-0.7c0-0.2,0.1-0.2,0.3-0.2h4.1V668.4
				z"/>
			<path class="st22" d="M1037,678.1c0.2,0,0.3,0,0.3,0.1l0.1,0.7c0,0.2-0.1,0.3-0.3,0.3c-0.5,0.1-1,0.2-1.5,0.2
				c-0.5,0.1-1.1,0.1-1.6,0.2c-0.5,0.1-1.1,0.1-1.7,0.2c-0.6,0.1-1.1,0.1-1.6,0.1c-0.4,0-0.8,0-1.4,0.1c-0.5,0-1.1,0-1.7,0
				s-1.1,0-1.7,0s-1,0-1.4,0c-0.1,0-0.2,0-0.2-0.1c-0.1-0.1-0.1-0.1-0.1-0.2V679c0-0.1,0-0.1,0.1-0.2c0.1,0,0.1-0.1,0.2-0.1
				c0.3,0,0.7,0,1.1,0s0.9,0,1.4,0s1,0,1.5,0s1,0,1.4,0v-2.9c0-0.1,0-0.1,0.1-0.2c0-0.1,0.1-0.1,0.2-0.1h0.9c0.1,0,0.1,0,0.2,0.1
				s0.1,0.1,0.1,0.2v2.8c0.5,0,1-0.1,1.5-0.1s1-0.1,1.5-0.2c0.5-0.1,0.9-0.1,1.4-0.2C1036.3,678.3,1036.7,678.2,1037,678.1z
				 M1034.6,670.2c-0.3,0.5-0.7,0.9-1,1.3s-0.8,0.8-1.3,1.2c0.6,0.3,1.2,0.7,1.9,0.9c0.7,0.3,1.3,0.5,2,0.6c0.2,0,0.2,0.2,0.2,0.4
				l-0.3,0.6c-0.1,0.2-0.2,0.2-0.4,0.1c-0.8-0.3-1.6-0.5-2.3-0.9c-0.7-0.3-1.4-0.7-2.1-1.1c-1.3,0.8-2.9,1.6-4.9,2.4
				c-0.1,0.1-0.2,0.1-0.2,0.1l-0.1-0.1l-0.3-0.7c-0.1-0.2,0-0.3,0.1-0.3c1.7-0.6,3.2-1.3,4.4-2c1.2-0.7,2.2-1.6,3-2.4
				c0.1-0.1,0.1-0.3,0.1-0.4c-0.1-0.1-0.2-0.2-0.4-0.2h-6.3c-0.2,0-0.2-0.1-0.2-0.3v-0.6c0-0.2,0.1-0.2,0.2-0.2h6.8
				c0.8,0,1.3,0.1,1.5,0.5C1035,669.3,1034.9,669.7,1034.6,670.2z M1033.1,666v0.6c0,0.2-0.1,0.3-0.3,0.3h-4.5
				c-0.2,0-0.3-0.1-0.3-0.3V666c0-0.2,0.1-0.3,0.3-0.3h4.5C1033,665.7,1033.1,665.8,1033.1,666z M1039.5,683.5h-0.8
				c-0.2,0-0.3-0.1-0.3-0.3v-17.9c0-0.2,0.1-0.3,0.3-0.3h0.8c0.2,0,0.3,0.1,0.3,0.3v17.9C1039.7,683.4,1039.6,683.5,1039.5,683.5z"
				/>
			<path class="st22" d="M1060.5,679.2c0.1,0,0.1,0.1,0.1,0.2v0.7c0,0.1,0,0.1-0.1,0.2c-0.1,0.1-0.1,0.1-0.2,0.1h-17
				c-0.1,0-0.2,0-0.2-0.1c-0.1-0.1-0.1-0.1-0.1-0.2v-0.7c0-0.1,0-0.1,0.1-0.2c0.1,0,0.1-0.1,0.2-0.1h7.1V673c0-0.1,0-0.1,0.1-0.2
				s0.1-0.1,0.2-0.1h0.9c0.1,0,0.1,0,0.2,0.1s0.1,0.1,0.1,0.2v6.1h8.5C1060.4,679.1,1060.5,679.1,1060.5,679.2z M1045.7,666.5
				c0.1,0,0.1-0.1,0.2-0.1h10.7c0.3,0,0.6,0,0.8,0.1c0.2,0.1,0.3,0.2,0.5,0.3c0.1,0.1,0.2,0.3,0.2,0.5s0.1,0.4,0.1,0.7
				c0,0.5,0,1.2,0,1.8c0,0.7,0,1.4-0.1,2.1c-0.1,0.7-0.1,1.5-0.2,2.2s-0.2,1.5-0.3,2.1c0,0.1,0,0.2-0.1,0.2
				c-0.1,0.1-0.1,0.1-0.2,0.1l-0.8-0.1c-0.2,0-0.3-0.1-0.2-0.4c0.1-0.5,0.2-1.2,0.3-1.9c0.1-0.8,0.2-1.5,0.2-2.3
				c0.1-0.8,0.1-1.5,0.1-2.2s0-1.3,0-1.7c0-0.2-0.1-0.3-0.1-0.4c0,0-0.2-0.1-0.3-0.1h-10.4c-0.1,0-0.1,0-0.2-0.1s-0.1-0.1-0.1-0.2
				v-0.7C1045.6,666.6,1045.6,666.5,1045.7,666.5z"/>
			<path class="st22" d="M1071.4,668c-0.1,1.1-0.3,2.3-0.7,3.4s-0.9,2.2-1.6,3.2s-1.5,1.9-2.5,2.8s-2.1,1.6-3.3,2.3
				c-0.2,0.1-0.3,0.1-0.4-0.1l-0.4-0.7c-0.1-0.2-0.1-0.3,0.1-0.3c1.1-0.6,2.1-1.3,3-2s1.6-1.6,2.2-2.5s1.1-1.8,1.5-2.8s0.6-2,0.7-3
				c0-0.2,0-0.3-0.1-0.4c-0.1-0.1-0.2-0.1-0.4-0.1h-6.2c-0.2,0-0.2-0.1-0.2-0.3v-0.7c0-0.2,0.1-0.2,0.2-0.2h6.6c0.6,0,1,0.1,1.2,0.4
				C1071.3,667.1,1071.4,667.5,1071.4,668z M1076.4,683.5h-0.8c-0.2,0-0.3-0.1-0.3-0.3v-17.9c0-0.2,0.1-0.3,0.3-0.3h0.8
				c0.2,0,0.3,0.1,0.3,0.3v7.1h2.8c0.1,0,0.1,0,0.2,0.1c0.1,0,0.1,0.1,0.1,0.2v0.7c0,0.1,0,0.1-0.1,0.2c-0.1,0.1-0.1,0.1-0.2,0.1
				h-2.8v9.6C1076.6,683.4,1076.5,683.5,1076.4,683.5z"/>
		</g>
	</g>
	<path class="st23" d="M487.2,705.6c-1.7,0-3-1.3-3-3s1.3-3,3-3h590c1.7,0,3,1.3,3,3s-1.3,3-3,3H487.2z"/>
	<path class="st23" d="M487.2,705.6c-1.7,0-3-1.3-3-3s1.3-3,3-3h590c1.7,0,3,1.3,3,3s-1.3,3-3,3H487.2z"/>
	<path class="st23" d="M487.2,705.6c-1.7,0-3-1.3-3-3s1.3-3,3-3h590c1.7,0,3,1.3,3,3s-1.3,3-3,3H487.2z"/>
	<path class="st24" d="M962.5,705.6H487.2c-1.7,0-3-1.3-3-3s1.3-3,3-3h475.6"/>
	<path class="st24" d="M1077.2,699.6c1.7,0,3,1.3,3,3s-1.3,3-3,3"/>
	<g class="st2">
		<text transform="matrix(1 0 0 1 600.2461 409.8359)" class="st25 st26">creen_m_3_d.png</text>
	</g>
	<g class="st2">
		<g>
			<path class="st27" d="M400.9,542.5h-200c-13.8,0-25-11.2-25-25l0,0c0-13.8,11.2-25,25-25h200c13.8,0,25,11.2,25,25l0,0
				C425.9,531.3,414.7,542.5,400.9,542.5z"/>
		</g>
		<g>
			<path class="st27" d="M400.9,543h-200c-14.1,0-25.5-11.4-25.5-25.5s11.4-25.5,25.5-25.5h200c14.1,0,25.5,11.4,25.5,25.5
				S415,543,400.9,543z M200.9,493c-13.5,0-24.5,11-24.5,24.5s11,24.5,24.5,24.5h200c13.5,0,24.5-11,24.5-24.5s-11-24.5-24.5-24.5
				H200.9z"/>
		</g>
	</g>
	<g class="st2">
		<g>
			<circle class="st28" cx="962.2" cy="702.6" r="8.2"/>
			<path d="M962.2,694.9c4.3,0,7.7,3.5,7.7,7.7c0,4.3-3.5,7.7-7.7,7.7s-7.7-3.5-7.7-7.7C954.5,698.3,957.9,694.9,962.2,694.9
				 M962.2,693.9c-4.8,0-8.7,3.9-8.7,8.7s3.9,8.7,8.7,8.7s8.7-3.9,8.7-8.7S967,693.9,962.2,693.9L962.2,693.9z"/>
		</g>
	</g>
	<g class="st2">
		<g>
			<g>
				<path class="st22" d="M502.2,788.7c0.1,0,0.1,0.1,0.1,0.2v0.7c0,0.1,0,0.1-0.1,0.2c-0.1,0.1-0.1,0.1-0.2,0.1h-17
					c-0.1,0-0.2,0-0.2-0.1c-0.1-0.1-0.1-0.1-0.1-0.2v-0.8c0-0.1,0-0.1,0.1-0.2c0.1,0,0.1-0.1,0.2-0.1h7.8v-2.4
					c-0.6,0-1.2-0.1-1.9-0.2c-0.7-0.1-1.2-0.3-1.8-0.6c-0.5-0.3-1-0.6-1.3-1s-0.5-0.9-0.5-1.5c0-0.7,0.2-1.2,0.6-1.6
					c0.4-0.4,0.9-0.8,1.6-1c0.6-0.3,1.3-0.4,2-0.5s1.4-0.2,2-0.2s1.3,0.1,2,0.2s1.4,0.3,2,0.6s1.1,0.6,1.5,1s0.6,1,0.6,1.6
					s-0.2,1.1-0.5,1.5c-0.4,0.4-0.8,0.8-1.3,1s-1.1,0.5-1.8,0.6c-0.7,0.1-1.3,0.2-1.9,0.3v2.4h7.8
					C502.1,788.6,502.1,788.6,502.2,788.7z M487.2,791.8c0.1,0,0.1-0.1,0.2-0.1H498c0.6,0,1,0.1,1.2,0.3s0.3,0.6,0.3,1.2v4.4
					c0,0.2-0.1,0.3-0.3,0.3h-0.8c-0.2,0-0.3-0.1-0.3-0.3v-4.3c0-0.2,0-0.3-0.1-0.4c-0.1,0-0.2-0.1-0.4-0.1h-10.3
					c-0.1,0-0.1,0-0.2-0.1c-0.1,0-0.1-0.1-0.1-0.2v-0.7C487.1,791.9,487.1,791.8,487.2,791.8z M493.5,780.7c-0.4,0-0.9,0-1.5,0.1
					c-0.5,0.1-1.1,0.2-1.6,0.3c-0.5,0.2-0.9,0.4-1.2,0.7c-0.3,0.3-0.5,0.6-0.5,1.1c0,0.4,0.2,0.8,0.5,1.1s0.8,0.5,1.2,0.7
					c0.5,0.2,1,0.3,1.6,0.3c0.5,0.1,1,0.1,1.5,0.1c0.4,0,0.9,0,1.4-0.1s1.1-0.2,1.6-0.3c0.5-0.2,0.9-0.4,1.2-0.7
					c0.3-0.3,0.5-0.6,0.5-1.1c0-0.4-0.2-0.8-0.5-1.1s-0.8-0.5-1.2-0.7c-0.5-0.2-1-0.3-1.6-0.3C494.4,780.7,493.9,780.7,493.5,780.7z
					"/>
				<path class="st22" d="M510.3,780.2c0,1.3-0.2,2.5-0.5,3.5c0.2,0.5,0.4,1,0.7,1.5c0.3,0.5,0.6,1,1,1.4c0.4,0.5,0.8,0.9,1.2,1.2
					c0.4,0.4,0.9,0.7,1.3,0.9c0.1,0,0.1,0.1,0.1,0.2s0,0.1,0,0.2l-0.4,0.6c-0.1,0.1-0.1,0.1-0.2,0.1c-0.1,0-0.1,0-0.3-0.1
					c-0.3-0.2-0.7-0.4-1.1-0.8c-0.4-0.3-0.7-0.7-1.1-1.1c-0.4-0.4-0.7-0.8-1-1.3c-0.3-0.4-0.6-0.9-0.8-1.3c-0.9,2-2.3,3.6-4.2,4.8
					c-0.1,0-0.1,0.1-0.2,0.1s-0.1,0-0.2-0.1l-0.5-0.7c0-0.1,0-0.1,0-0.2c0-0.1,0.1-0.1,0.1-0.2c0.7-0.4,1.4-1,2-1.6
					c0.6-0.7,1.1-1.4,1.5-2.2s0.7-1.6,1-2.5c0.2-0.9,0.3-1.8,0.3-2.8c0-0.2,0.1-0.3,0.2-0.3l0.9,0.1
					C510.3,779.9,510.3,780,510.3,780.2z M519.5,797.3c-0.1,0-0.1,0.1-0.2,0.1h-10c-0.6,0-1-0.1-1.2-0.3s-0.3-0.6-0.3-1.2V792
					c0-0.2,0.1-0.3,0.3-0.3h0.8c0.2,0,0.3,0.1,0.3,0.3v3.8c0,0.2,0,0.3,0.1,0.4c0.1,0,0.2,0.1,0.4,0.1h9.7c0.1,0,0.1,0,0.2,0.1
					c0.1,0,0.1,0.1,0.1,0.2v0.7C519.6,797.2,519.6,797.3,519.5,797.3z M517.6,782.7v-3.1c0-0.2,0.1-0.3,0.3-0.3h0.8
					c0.2,0,0.3,0.1,0.3,0.3v12.8c0,0.2-0.1,0.3-0.3,0.3h-0.8c-0.2,0-0.3-0.1-0.3-0.3v-4.9h-4.1c-0.2,0-0.3-0.1-0.3-0.2v-0.7
					c0-0.2,0.1-0.2,0.3-0.2h4.1V784h-4.1c-0.2,0-0.3-0.1-0.3-0.2v-0.7c0-0.2,0.1-0.2,0.3-0.2h4.1V782.7z"/>
				<path class="st22" d="M538.6,781.3h-1.7v6.3c0.4,0,0.8-0.1,1.3-0.1c0.4,0,0.8-0.1,1.2-0.2c0.1,0,0.2,0,0.2,0s0.1,0.1,0.1,0.2
					l0.1,0.7c0,0.1,0,0.1,0,0.2c0,0-0.1,0.1-0.2,0.1c-0.8,0.1-1.6,0.2-2.5,0.3s-1.9,0.1-2.9,0.2c-0.4,0-0.8,0-1.3,0s-1,0-1.5,0
					s-1,0-1.5,0s-0.9,0-1.3,0c-0.1,0-0.2,0-0.2-0.1c-0.1-0.1-0.1-0.1-0.1-0.2v-0.6c0-0.1,0-0.1,0.1-0.2c0.1,0,0.1-0.1,0.2-0.1h2.3
					v-6.5h-2.2c-0.1,0-0.1,0-0.2-0.1c-0.1-0.1-0.1-0.1-0.1-0.2v-0.6c0-0.1,0-0.1,0.1-0.2c0.1-0.1,0.1-0.1,0.2-0.1h9.8
					c0.2,0,0.3,0.1,0.3,0.3v0.7C538.9,781.3,538.8,781.3,538.6,781.3z M543.6,794.1c0,0.6-0.2,1.1-0.5,1.5s-0.7,0.8-1.2,1.2
					c-0.5,0.3-1.1,0.6-1.8,0.7c-0.7,0.2-1.5,0.2-2.2,0.2c-0.9,0-1.7-0.1-2.4-0.2c-0.7-0.2-1.3-0.4-1.8-0.7s-0.9-0.7-1.2-1.2
					s-0.4-1-0.4-1.5c0-0.6,0.1-1.1,0.4-1.5c0.3-0.4,0.7-0.8,1.2-1.1s1.1-0.6,1.8-0.7c0.7-0.2,1.5-0.2,2.4-0.2c0.8,0,1.5,0.1,2.2,0.2
					c0.7,0.2,1.3,0.4,1.8,0.7s0.9,0.7,1.2,1.1C543.4,793.1,543.6,793.6,543.6,794.1z M534.2,787.8c0.2,0,0.5,0,0.7,0s0.5,0,0.7,0
					v-6.4h-3.3v6.5c0.3,0,0.7,0,1,0C533.6,787.8,533.9,787.8,534.2,787.8z M542.1,794.2c0-0.4-0.1-0.8-0.4-1.1
					c-0.2-0.3-0.6-0.6-1-0.8s-0.9-0.4-1.4-0.5s-1.1-0.2-1.7-0.2c-0.6,0-1.2,0.1-1.8,0.2s-1,0.3-1.4,0.5s-0.7,0.5-0.9,0.8
					s-0.3,0.7-0.3,1.1c0,0.4,0.1,0.7,0.3,1s0.5,0.5,0.9,0.8c0.4,0.2,0.8,0.4,1.4,0.5s1.1,0.2,1.8,0.2c0.6,0,1.1-0.1,1.7-0.2
					s1-0.3,1.4-0.5s0.7-0.5,1-0.8C542,794.9,542.1,794.6,542.1,794.2z M542,782.1v-2.6c0-0.2,0.1-0.3,0.3-0.3h0.8
					c0.2,0,0.3,0.1,0.3,0.3V790c0,0.2-0.1,0.3-0.3,0.3h-0.8c-0.2,0-0.3-0.1-0.3-0.3v-3.5h-3.1c-0.2,0-0.3-0.1-0.3-0.2v-0.7
					c0-0.2,0.1-0.2,0.3-0.2h3.1v-2h-3.1c-0.2,0-0.3-0.1-0.3-0.2v-0.7c0-0.2,0.1-0.2,0.3-0.2h3.1V782.1z"/>
				<path class="st22" d="M560.2,781.7c0-0.2,0-0.3-0.1-0.4c-0.1-0.1-0.2-0.1-0.4-0.1h-10c-0.2,0-0.3-0.1-0.3-0.3v-0.7
					c0-0.2,0.1-0.3,0.3-0.3H560c0.6,0,1,0.1,1.2,0.3s0.3,0.6,0.3,1.2c0,0.3,0,0.8-0.1,1.3c0,0.5-0.1,1-0.2,1.6s-0.1,1.1-0.2,1.6
					c-0.1,0.5-0.2,1-0.3,1.3h3.2c0.1,0,0.1,0,0.2,0.1c0.1,0,0.1,0.1,0.1,0.2v0.7c0,0.1,0,0.1-0.1,0.2c-0.1,0.1-0.1,0.1-0.2,0.1h-4.7
					v4.7c0,0.1,0,0.2-0.1,0.2s-0.1,0.1-0.2,0.1H558c-0.1,0-0.1,0-0.2-0.1c-0.1-0.1-0.1-0.1-0.1-0.2v-4.7h-4v4.7c0,0.1,0,0.2-0.1,0.2
					s-0.1,0.1-0.2,0.1h-0.9c-0.1,0-0.1,0-0.2-0.1c-0.1-0.1-0.1-0.1-0.1-0.2v-4.7h-5.5c-0.1,0-0.2,0-0.2-0.1
					c-0.1-0.1-0.1-0.1-0.1-0.2v-0.7c0-0.1,0-0.1,0.1-0.2c0.1,0,0.1-0.1,0.2-0.1h12.5c0.1-0.3,0.2-0.7,0.2-1.2c0.1-0.5,0.1-1,0.2-1.5
					c0.1-0.5,0.1-1,0.1-1.5C560.2,782.5,560.2,782.1,560.2,781.7z M562.1,797.3c-0.1,0-0.1,0.1-0.2,0.1h-11.1c-0.6,0-1-0.1-1.2-0.4
					s-0.3-0.7-0.3-1.2v-4.1c0-0.2,0.1-0.3,0.3-0.3h0.8c0.2,0,0.3,0.1,0.3,0.3v4.1c0,0.2,0,0.3,0.1,0.4c0.1,0,0.2,0.1,0.4,0.1H562
					c0.1,0,0.1,0,0.2,0.1s0.1,0.1,0.1,0.2v0.7C562.2,797.2,562.1,797.3,562.1,797.3z"/>
				<path class="st22" d="M575,782.2c-0.1,1.1-0.3,2.3-0.7,3.4c-0.4,1.1-0.9,2.2-1.6,3.2s-1.5,1.9-2.5,2.8c-1,0.9-2.1,1.6-3.3,2.3
					c-0.2,0.1-0.3,0.1-0.4-0.1l-0.4-0.7c-0.1-0.2-0.1-0.3,0.1-0.3c1.1-0.6,2.1-1.3,3-2c0.9-0.8,1.6-1.6,2.2-2.5
					c0.6-0.9,1.1-1.8,1.5-2.8s0.6-2,0.7-3c0-0.2,0-0.3-0.1-0.4s-0.2-0.1-0.4-0.1h-6.2c-0.2,0-0.2-0.1-0.2-0.3V781
					c0-0.2,0.1-0.2,0.2-0.2h6.6c0.6,0,1,0.1,1.2,0.4S575.1,781.7,575,782.2z M580,797.7h-0.8c-0.2,0-0.3-0.1-0.3-0.3v-17.9
					c0-0.2,0.1-0.3,0.3-0.3h0.8c0.2,0,0.3,0.1,0.3,0.3v7.1h2.8c0.1,0,0.1,0,0.2,0.1c0.1,0,0.1,0.1,0.1,0.2v0.7c0,0.1,0,0.1-0.1,0.2
					c-0.1,0.1-0.1,0.1-0.2,0.1h-2.8v9.6C580.3,797.6,580.2,797.7,580,797.7z"/>
				<path class="st22" d="M599.9,791.5c0,0.2-0.1,0.3-0.3,0.3c-0.9,0.2-2,0.4-3.2,0.5s-2.5,0.1-3.7,0.1c-0.6,0-1-0.2-1.2-0.4
					c-0.2-0.3-0.3-0.7-0.3-1.2v-8.5c0-0.6,0.1-0.9,0.3-1.1c0.2-0.2,0.6-0.3,1.2-0.3h5.5c0.2,0,0.3,0.1,0.3,0.2v0.7
					c0,0.2-0.1,0.2-0.3,0.2H593c-0.2,0-0.3,0-0.3,0.1c0,0-0.1,0.2-0.1,0.4v8.1c0,0.2,0,0.3,0.1,0.4c0.1,0.1,0.2,0.1,0.4,0.1
					c1.2,0,2.3,0,3.3-0.1s2.1-0.2,3.1-0.5c0.2,0,0.3,0,0.4,0.2V791.5z M602.2,786.8h2.5v-7.3c0-0.2,0.1-0.3,0.3-0.3h0.8
					c0.2,0,0.3,0.1,0.3,0.3v17.9c0,0.2-0.1,0.3-0.3,0.3H605c-0.2,0-0.3-0.1-0.3-0.3V788h-2.5v8.6c0,0.2-0.1,0.3-0.3,0.3h-0.7
					c-0.2,0-0.3-0.1-0.3-0.3v-16.8c0-0.2,0.1-0.3,0.3-0.3h0.8c0.2,0,0.3,0.1,0.3,0.3L602.2,786.8L602.2,786.8z"/>
				<path class="st22" d="M611.8,792.5c-0.3,0-0.6,0-0.8-0.1s-0.3-0.1-0.5-0.2s-0.2-0.3-0.2-0.4c0-0.2-0.1-0.4-0.1-0.7v-10.5
					c0-0.1,0-0.1,0.1-0.2c0.1,0,0.1-0.1,0.2-0.1h0.9c0.1,0,0.1,0,0.2,0.1s0.1,0.1,0.1,0.2v4.6h6.2v-4.6c0-0.1,0-0.1,0.1-0.2
					s0.1-0.1,0.2-0.1h0.9c0.1,0,0.1,0,0.2,0.1c0.1,0,0.1,0.1,0.1,0.2v10.7c0,0.5-0.1,0.8-0.3,1s-0.6,0.3-1.2,0.3L611.8,792.5
					L611.8,792.5z M611.6,786.4v4.5c0,0.2,0,0.3,0.1,0.4c0.1,0.1,0.2,0.1,0.4,0.1h5.2c0.2,0,0.3,0,0.4-0.1c0.1-0.1,0.1-0.2,0.1-0.4
					v-4.5H611.6z M623.9,797.7h-0.8c-0.2,0-0.3-0.1-0.3-0.3v-17.9c0-0.2,0.1-0.3,0.3-0.3h0.8c0.2,0,0.3,0.1,0.3,0.3v17.9
					C624.2,797.6,624.1,797.7,623.9,797.7z"/>
				<path class="st22" d="M645.9,792.4c0.2,0,0.3,0,0.3,0.1l0.1,0.7c0,0.2-0.1,0.3-0.3,0.3c-0.5,0.1-1,0.2-1.5,0.2
					c-0.5,0.1-1.1,0.1-1.6,0.2c-0.5,0.1-1.1,0.1-1.7,0.2c-0.6,0.1-1.1,0.1-1.6,0.1c-0.4,0-0.8,0-1.4,0.1s-1.1,0-1.7,0s-1.1,0-1.7,0
					s-1,0-1.4,0c-0.1,0-0.2,0-0.2-0.1c-0.1-0.1-0.1-0.1-0.1-0.2v-0.7c0-0.1,0-0.1,0.1-0.2c0.1,0,0.1-0.1,0.2-0.1c0.3,0,0.7,0,1.1,0
					c0.4,0,0.9,0,1.4,0s1,0,1.5,0s1,0,1.4,0v-2.9c0-0.1,0-0.1,0.1-0.2c0-0.1,0.1-0.1,0.2-0.1h0.9c0.1,0,0.1,0,0.2,0.1
					c0.1,0.1,0.1,0.1,0.1,0.2v2.8c0.5,0,1-0.1,1.5-0.1s1-0.1,1.5-0.2c0.5-0.1,0.9-0.1,1.4-0.2C645.2,792.5,645.5,792.5,645.9,792.4z
					 M643.5,784.4c-0.3,0.5-0.7,0.9-1,1.3c-0.4,0.4-0.8,0.8-1.3,1.2c0.6,0.3,1.2,0.7,1.9,0.9c0.7,0.3,1.3,0.5,2,0.6
					c0.2,0,0.2,0.2,0.2,0.4l-0.3,0.6c-0.1,0.2-0.2,0.2-0.4,0.1c-0.8-0.3-1.6-0.5-2.3-0.9c-0.7-0.3-1.4-0.7-2.1-1.1
					c-1.3,0.8-2.9,1.6-4.9,2.4c-0.1,0.1-0.2,0.1-0.2,0.1l-0.1-0.1l-0.3-0.7c-0.1-0.2,0-0.3,0.1-0.3c1.7-0.6,3.2-1.3,4.4-2
					s2.2-1.6,3-2.4c0.1-0.1,0.1-0.3,0.1-0.4c-0.1-0.1-0.2-0.2-0.4-0.2h-6.3c-0.2,0-0.2-0.1-0.2-0.3v-0.7c0-0.2,0.1-0.2,0.2-0.2h6.8
					c0.8,0,1.3,0.2,1.5,0.5C643.9,783.5,643.8,783.9,643.5,784.4z M642,780.3v0.6c0,0.2-0.1,0.3-0.3,0.3h-4.5
					c-0.2,0-0.3-0.1-0.3-0.3v-0.6c0-0.2,0.1-0.3,0.3-0.3h4.5C641.9,780,642,780.1,642,780.3z M648.3,797.7h-0.8
					c-0.2,0-0.3-0.1-0.3-0.3v-17.9c0-0.2,0.1-0.3,0.3-0.3h0.8c0.2,0,0.3,0.1,0.3,0.3v17.9C648.6,797.6,648.5,797.7,648.3,797.7z"/>
				<path class="st22" d="M665.4,781.7c0-0.2,0-0.3-0.1-0.4c-0.1-0.1-0.2-0.1-0.4-0.1h-10c-0.2,0-0.3-0.1-0.3-0.3v-0.7
					c0-0.2,0.1-0.3,0.3-0.3h10.3c0.6,0,1,0.1,1.2,0.3s0.3,0.6,0.3,1.2c0,0.3,0,0.8-0.1,1.4c0,0.6-0.1,1.1-0.1,1.8s-0.1,1.2-0.2,1.8
					s-0.2,1.1-0.2,1.5h3.1c0.1,0,0.1,0,0.2,0.1c0.1,0,0.1,0.1,0.1,0.2v0.7c0,0.1,0,0.1-0.1,0.2c-0.1,0.1-0.1,0.1-0.2,0.1h-17
					c-0.1,0-0.2,0-0.2-0.1c-0.1-0.1-0.1-0.1-0.1-0.2v-0.7c0-0.1,0-0.1,0.1-0.2c0.1,0,0.1-0.1,0.2-0.1h12.6c0.1-0.5,0.2-1,0.2-1.5
					s0.1-1.1,0.2-1.7c0.1-0.6,0.1-1.1,0.1-1.7C665.4,782.5,665.4,782.1,665.4,781.7z M667.2,797.3c-0.1,0-0.1,0.1-0.2,0.1h-10.8
					c-0.6,0-1-0.1-1.2-0.4s-0.3-0.7-0.3-1.2v-4.3c0-0.2,0.1-0.3,0.3-0.3h0.8c0.2,0,0.3,0.1,0.3,0.3v4.3c0,0.2,0,0.3,0.1,0.4
					s0.2,0.1,0.4,0.1h10.5c0.1,0,0.1,0,0.2,0.1c0.1,0,0.1,0.1,0.1,0.2v0.7C667.3,797.2,667.2,797.3,667.2,797.3z"/>
				<path class="st22" d="M683.1,795.6c0,0.2-0.1,0.3-0.3,0.3H682c-0.2,0-0.3-0.1-0.3-0.3v-13c-0.4,0.3-0.8,0.7-1.2,1
					s-0.7,0.6-1.1,1c-0.1,0.1-0.3,0.1-0.4,0l-0.4-0.5c0-0.1-0.1-0.1-0.1-0.2s0-0.1,0.1-0.2l3.1-2.6c0.1-0.1,0.1-0.1,0.2-0.1h0.5
					c0.3,0,0.4,0,0.5,0.1s0.1,0.2,0.1,0.5v14H683.1z"/>
				<path class="st22" d="M691.7,788.4c0.1,0.1,0.2,0.1,0.4,0.1c0.6,0,1.2,0,1.8,0s1.2,0,1.9,0s1.2-0.1,1.8-0.1
					c0.6-0.1,1.2-0.1,1.7-0.2c0.1,0,0.2,0,0.3,0s0.1,0.1,0.1,0.2l0.1,0.5c0,0.2,0,0.3-0.1,0.3s-0.1,0.1-0.2,0.1
					c-0.5,0.1-1.1,0.2-1.8,0.2c-0.6,0.1-1.3,0.1-2,0.2s-1.4,0.1-2,0.1c-0.7,0-1.3,0-1.9,0c-0.6,0-1-0.2-1.2-0.4
					c-0.2-0.3-0.3-0.7-0.3-1.2v-7.6c0-0.2,0.1-0.3,0.3-0.3h0.8c0.2,0,0.3,0.1,0.3,0.3v7.5C691.6,788.2,691.7,788.3,691.7,788.4z
					 M704.4,797.3c-0.1,0-0.1,0.1-0.2,0.1h-10c-0.6,0-1-0.1-1.2-0.3s-0.3-0.6-0.3-1.2v-3.8c0-0.2,0.1-0.3,0.3-0.3h0.8
					c0.2,0,0.3,0.1,0.3,0.3v3.7c0,0.2,0,0.3,0.1,0.4c0.1,0,0.2,0.1,0.4,0.1h9.7c0.1,0,0.1,0,0.2,0.1c0.1,0,0.1,0.1,0.1,0.2v0.7
					C704.5,797.2,704.5,797.3,704.4,797.3z M702.5,781.8v-2.2c0-0.2,0.1-0.3,0.3-0.3h0.8c0.2,0,0.3,0.1,0.3,0.3v12.9
					c0,0.2-0.1,0.3-0.3,0.3h-0.8c-0.2,0-0.3-0.1-0.3-0.3v-6.1h-5c-0.2,0-0.3-0.1-0.3-0.2v-0.7c0-0.2,0.1-0.2,0.3-0.2h5V783h-5
					c-0.2,0-0.3-0.1-0.3-0.2v-0.7c0-0.2,0.1-0.2,0.3-0.2L702.5,781.8L702.5,781.8z"/>
				<path class="st22" d="M716.9,781.8c-0.3,1.9-1.2,3.7-2.5,5.2s-3.2,2.8-5.6,3.8c-0.1,0-0.2,0-0.2,0s-0.1-0.1-0.2-0.2l-0.3-0.7
					c-0.1-0.1-0.1-0.2,0-0.3c0-0.1,0.1-0.1,0.2-0.1c1-0.4,1.9-0.9,2.7-1.4s1.5-1.1,2.2-1.8c0.6-0.6,1.1-1.3,1.5-2s0.7-1.5,0.8-2.2
					c0.1-0.4-0.1-0.6-0.5-0.6h-6.2c-0.2,0-0.2-0.1-0.2-0.3v-0.7c0-0.2,0.1-0.2,0.2-0.2h6.6c0.6,0,1.1,0.1,1.3,0.3
					S717,781.3,716.9,781.8z M722.8,797.3c-0.1,0-0.1,0.1-0.2,0.1h-10.2c-0.6,0-1-0.1-1.2-0.3s-0.3-0.6-0.3-1.2v-3.8
					c0-0.2,0.1-0.3,0.3-0.3h0.8c0.2,0,0.3,0.1,0.3,0.3v3.7c0,0.2,0,0.3,0.1,0.4c0.1,0,0.2,0.1,0.4,0.1h9.9c0.1,0,0.1,0,0.2,0.1
					c0.1,0,0.1,0.1,0.1,0.2v0.7C722.9,797.2,722.9,797.3,722.8,797.3z M721.7,792.7h-0.8c-0.2,0-0.3-0.1-0.3-0.3v-12.8
					c0-0.2,0.1-0.3,0.3-0.3h0.8c0.2,0,0.3,0.1,0.3,0.3v5.8h2.8c0.1,0,0.1,0,0.2,0.1c0.1,0,0.1,0.1,0.1,0.2v0.7c0,0.1,0,0.1-0.1,0.2
					c-0.1,0.1-0.1,0.1-0.2,0.1H722v5.9C722,792.6,721.9,792.7,721.7,792.7z"/>
				<path class="st22" d="M739.9,797.6c-0.1,0-0.1,0-0.2-0.1c-0.1-0.1-0.1-0.1-0.1-0.2v-6.5h-7.8c-0.1,0-0.2,0-0.2-0.1
					c-0.1-0.1-0.1-0.1-0.1-0.2v-0.7c0-0.1,0-0.1,0.1-0.2c0.1,0,0.1-0.1,0.2-0.1h17c0.1,0,0.1,0,0.2,0.1c0.1,0,0.1,0.1,0.1,0.2v0.7
					c0,0.1,0,0.1-0.1,0.2c-0.1,0.1-0.1,0.1-0.2,0.1h-7.9v6.5c0,0.1,0,0.1-0.1,0.2c0,0.1-0.1,0.1-0.2,0.1H739.9z M741.1,779.7
					c0,0.2-0.1,0.3-0.1,0.5s-0.1,0.3-0.1,0.5c0,0.1,0.1,0.3,0.1,0.4c0.1,0.1,0.1,0.2,0.2,0.4c0.2,0.4,0.6,0.9,1,1.3
					c0.4,0.4,0.9,0.9,1.5,1.3s1.2,0.7,1.9,1s1.4,0.5,2.1,0.7c0.1,0,0.1,0.1,0.2,0.2s0,0.2,0,0.2l-0.3,0.7c0,0.1-0.1,0.1-0.1,0.1
					s-0.1,0-0.3,0c-0.7-0.2-1.4-0.4-2.1-0.8c-0.7-0.3-1.3-0.7-1.9-1.1s-1.1-0.9-1.6-1.4s-0.9-1-1.2-1.5c-0.6,1-1.4,2-2.5,2.8
					s-2.4,1.6-4,2.2c-0.2,0.1-0.3,0.1-0.4-0.1l-0.4-0.7c0-0.1,0-0.1,0-0.2c0-0.1,0.1-0.1,0.1-0.2c0.9-0.3,1.7-0.7,2.5-1.2
					s1.5-1,2.1-1.6s1.1-1.2,1.5-1.8s0.6-1.3,0.6-1.9c0-0.2,0.1-0.2,0.3-0.2l0.9,0.1c0.1,0,0.1,0,0.2,0.1
					C741.1,779.6,741.1,779.6,741.1,779.7z"/>
				<path class="st22" d="M761,784.6c0,0.7-0.1,1.3-0.4,1.8c-0.2,0.6-0.6,1-1,1.4s-0.9,0.7-1.5,0.9s-1.2,0.3-1.9,0.3
					s-1.3-0.1-1.8-0.3c-0.6-0.2-1.1-0.5-1.5-0.9s-0.8-0.9-1-1.4c-0.2-0.6-0.4-1.2-0.4-1.8c0-0.7,0.1-1.3,0.4-1.9s0.6-1,1-1.4
					s0.9-0.7,1.5-0.9s1.2-0.3,1.8-0.3s1.2,0.1,1.8,0.3s1.1,0.5,1.5,0.9s0.8,0.9,1.1,1.4C760.9,783.3,761,783.9,761,784.6z
					 M759.6,784.6c0-0.5-0.1-1-0.3-1.4s-0.4-0.7-0.7-1s-0.7-0.5-1.1-0.6c-0.4-0.1-0.8-0.2-1.3-0.2s-0.9,0.1-1.3,0.2
					c-0.4,0.1-0.7,0.3-1,0.6s-0.5,0.6-0.7,1s-0.2,0.9-0.2,1.4s0.1,1,0.2,1.4c0.2,0.4,0.4,0.7,0.7,1s0.6,0.5,1,0.7s0.8,0.2,1.3,0.2
					s0.9-0.1,1.3-0.2c0.4-0.2,0.8-0.4,1.1-0.7s0.5-0.6,0.7-1C759.5,785.6,759.6,785.1,759.6,784.6z M754.4,791.1
					c0.1,0,0.1-0.1,0.2-0.1h9.8c0.6,0,1,0.1,1.2,0.3s0.3,0.6,0.3,1.2v5c0,0.2-0.1,0.3-0.3,0.3h-0.8c-0.2,0-0.3-0.1-0.3-0.3v-4.9
					c0-0.2,0-0.3-0.1-0.4c-0.1,0-0.2-0.1-0.4-0.1h-9.5c-0.1,0-0.1,0-0.2-0.1c-0.1,0-0.1-0.1-0.1-0.2v-0.7
					C754.3,791.2,754.3,791.1,754.4,791.1z M765.6,789.9h-0.8c-0.2,0-0.3-0.1-0.3-0.3v-10c0-0.2,0.1-0.3,0.3-0.3h0.8
					c0.2,0,0.3,0.1,0.3,0.3v10C765.9,789.8,765.8,789.9,765.6,789.9z"/>
				<path class="st22" d="M784.4,797.4c0,0.1,0,0.1-0.1,0.2s-0.1,0.1-0.2,0.1h-10.6c-0.6,0-1-0.1-1.2-0.3s-0.3-0.6-0.3-1.2V795
					c0-0.6,0.1-0.9,0.4-1.1c0.2-0.2,0.6-0.3,1.2-0.3h8.6c0.2,0,0.3,0,0.4-0.1c0.1-0.1,0.1-0.2,0.1-0.4v-0.8c0-0.2,0-0.3-0.1-0.4
					c0-0.1-0.2-0.1-0.4-0.1h-10c-0.1,0-0.1,0-0.2-0.1c-0.1,0-0.1-0.1-0.1-0.2v-0.7c0-0.1,0-0.1,0.1-0.2c0.1,0,0.1-0.1,0.2-0.1h2
					v-1.7h-4.7c-0.1,0-0.2,0-0.2-0.1c-0.1-0.1-0.1-0.1-0.1-0.2v-0.7c0-0.1,0-0.1,0.1-0.2c0.1,0,0.1-0.1,0.2-0.1h17
					c0.1,0,0.1,0,0.2,0.1c0.1,0,0.1,0.1,0.1,0.2v0.7c0,0.1,0,0.1-0.1,0.2c-0.1,0.1-0.1,0.1-0.2,0.1h-4.8v1.8h0.7
					c0.3,0,0.6,0,0.8,0.1c0.2,0,0.4,0.1,0.5,0.2c0.1,0.1,0.2,0.3,0.2,0.5s0.1,0.4,0.1,0.7v1.1c0,0.6-0.1,0.9-0.3,1.1
					c-0.2,0.2-0.7,0.3-1.2,0.3h-8.6c-0.2,0-0.3,0-0.4,0.1c0,0.1-0.1,0.2-0.1,0.4v0.9c0,0.2,0,0.3,0.1,0.4c0.1,0.1,0.2,0.1,0.4,0.1
					h10.3c0.1,0,0.1,0,0.2,0.1s0.1,0.1,0.1,0.2v0.6H784.4z M784.3,785.7c0,0.1,0,0.1-0.1,0.2c-0.1,0-0.1,0.1-0.2,0.1h-10.4
					c-0.6,0-1-0.1-1.2-0.4c-0.2-0.2-0.3-0.6-0.3-1.2v-1c0-0.6,0.1-0.9,0.3-1.1s0.7-0.3,1.2-0.3h8.5c0.2,0,0.3,0,0.3-0.1
					s0.1-0.2,0.1-0.4v-0.7c0-0.2,0-0.3-0.1-0.4c0-0.1-0.2-0.1-0.3-0.1h-9.8c-0.1,0-0.1,0-0.2-0.1c-0.1,0-0.1-0.1-0.1-0.2v-0.7
					c0-0.1,0-0.1,0.1-0.2c0.1,0,0.1-0.1,0.2-0.1h10c0.3,0,0.6,0,0.8,0.1s0.4,0.1,0.5,0.2c0.1,0.1,0.2,0.3,0.2,0.5s0.1,0.4,0.1,0.7
					v1.1c0,0.6-0.1,0.9-0.3,1.1c-0.2,0.2-0.7,0.3-1.2,0.3h-8.5c-0.2,0-0.3,0-0.4,0.1c0,0-0.1,0.2-0.1,0.4v0.7c0,0.2,0,0.3,0.1,0.4
					c0.1,0.1,0.2,0.1,0.4,0.1H784c0.1,0,0.1,0,0.2,0.1c0.1,0,0.1,0.1,0.1,0.2L784.3,785.7L784.3,785.7z M775.6,790.6h4.8v-1.8h-4.8
					V790.6z"/>
			</g>
			<g>
				<path d="M491.7,841.4c-1.5,0-2.8-0.5-3.8-1.4c-1.1-0.9-1.9-2.3-2.4-4s-0.8-3.9-0.8-6.3c0-2.4,0.3-4.5,0.8-6.3s1.4-3.1,2.4-4
					c1.1-0.9,2.3-1.4,3.8-1.4s2.8,0.5,3.9,1.4c1.1,1,1.8,2.3,2.4,4.1c0.5,1.8,0.8,3.8,0.8,6.2s-0.3,4.5-0.8,6.3
					c-0.6,1.8-1.3,3.1-2.4,4.1C494.6,840.9,493.3,841.4,491.7,841.4z M491.7,839c1.1,0,2-0.4,2.7-1.2s1.2-1.9,1.6-3.3
					c0.3-1.4,0.5-3,0.5-4.9c0-1.8-0.2-3.4-0.5-4.8s-0.9-2.5-1.6-3.3s-1.6-1.2-2.6-1.2s-1.9,0.4-2.6,1.2s-1.2,1.9-1.6,3.3
					c-0.4,1.4-0.5,3-0.5,4.8s0.2,3.5,0.5,4.9s0.9,2.5,1.6,3.3C489.8,838.6,490.7,839,491.7,839z"/>
				<path d="M507.3,829.6c-1.1,0-2.1-0.3-3-0.8s-1.6-1.2-2.1-2.1c-0.5-0.9-0.8-1.9-0.8-2.9c0-1.1,0.3-2,0.8-2.9s1.2-1.6,2.1-2.1
					s1.9-0.8,3-0.8s2,0.3,2.9,0.8s1.6,1.3,2.1,2.1c0.5,0.9,0.8,1.9,0.8,2.9c0,1.1-0.3,2-0.8,2.9c-0.5,0.9-1.2,1.6-2.1,2.1
					C509.3,829.4,508.3,829.6,507.3,829.6z M507.3,827.4c0.6,0,1.2-0.2,1.8-0.5s1-0.8,1.3-1.3s0.5-1.1,0.5-1.8s-0.2-1.3-0.5-1.8
					s-0.8-1-1.3-1.3s-1.1-0.5-1.8-0.5c-0.6,0-1.2,0.2-1.8,0.5c-0.6,0.3-1,0.8-1.3,1.3s-0.5,1.1-0.5,1.8c0,0.6,0.2,1.2,0.5,1.8
					s0.8,1,1.3,1.3C506,827.2,506.6,827.4,507.3,827.4z M505.1,841.4c-0.3,0-0.6-0.1-0.8-0.3c-0.2-0.2-0.3-0.5-0.3-0.8
					s0.1-0.6,0.3-0.8l16.5-21c0.1-0.1,0.3-0.3,0.4-0.3c0.2-0.1,0.3-0.1,0.5-0.1c0.3,0,0.6,0.1,0.8,0.3s0.3,0.5,0.3,0.9
					c0,0.3-0.1,0.5-0.2,0.7L506,841.2C505.7,841.2,505.4,841.4,505.1,841.4z M519.4,841.4c-1.1,0-2-0.3-2.9-0.8s-1.6-1.2-2.1-2.1
					c-0.5-0.9-0.8-1.9-0.8-2.9c0-1.1,0.3-2,0.8-2.9s1.2-1.6,2.1-2.1c0.9-0.5,1.9-0.8,2.9-0.8s2.1,0.3,3,0.8s1.6,1.2,2.1,2.1
					c0.5,0.9,0.8,1.9,0.8,3s-0.3,2.1-0.8,2.9s-1.2,1.6-2.1,2.1C521.5,841.1,520.5,841.4,519.4,841.4z M519.4,839.1
					c0.7,0,1.3-0.2,1.8-0.5s1-0.8,1.3-1.3s0.5-1.1,0.5-1.8c0-0.6-0.2-1.2-0.5-1.8s-0.8-1-1.3-1.3s-1.1-0.5-1.8-0.5
					c-0.6,0-1.2,0.2-1.8,0.5s-1,0.8-1.3,1.3s-0.5,1.1-0.5,1.8s0.2,1.3,0.5,1.8s0.8,1,1.3,1.3C518.2,838.9,518.8,839.1,519.4,839.1z"
					/>
			</g>
		</g>
		<g>
			<path d="M1033.4,841.4c-0.3,0-0.6-0.1-0.8-0.3s-0.3-0.5-0.3-0.8v-19.5l-3,1c-0.2,0.1-0.4,0.1-0.6,0.1c-0.3,0-0.6-0.1-0.8-0.3
				c-0.2-0.2-0.3-0.5-0.3-0.8c0-0.2,0.1-0.5,0.2-0.7s0.3-0.3,0.6-0.5l4.6-1.6c0.1,0,0.2-0.1,0.3-0.1c0.1,0,0.2,0,0.3,0
				c0.3,0,0.6,0.1,0.8,0.3c0.2,0.2,0.3,0.5,0.3,0.8v21.1c0,0.3-0.1,0.6-0.3,0.8S1033.7,841.4,1033.4,841.4z"/>
			<path d="M1046.1,841.4c-1.5,0-2.8-0.5-3.8-1.4c-1.1-0.9-1.9-2.3-2.4-4c-0.6-1.8-0.8-3.9-0.8-6.3c0-2.4,0.3-4.5,0.8-6.3
				s1.4-3.1,2.4-4c1.1-0.9,2.3-1.4,3.8-1.4s2.8,0.5,3.9,1.4c1,1,1.8,2.3,2.4,4.1s0.8,3.8,0.8,6.2s-0.3,4.5-0.8,6.3s-1.3,3.1-2.4,4.1
				S1047.6,841.4,1046.1,841.4z M1046.1,839c1.1,0,2-0.4,2.7-1.2s1.2-1.9,1.6-3.3c0.3-1.4,0.5-3,0.5-4.9c0-1.8-0.2-3.4-0.5-4.8
				s-0.9-2.5-1.6-3.3s-1.6-1.2-2.6-1.2c-1.1,0-1.9,0.4-2.6,1.2s-1.2,1.9-1.6,3.3c-0.4,1.4-0.5,3-0.5,4.8s0.2,3.5,0.5,4.9
				s0.9,2.5,1.6,3.3C1044.2,838.6,1045.1,839,1046.1,839z"/>
			<path d="M1061.7,829.6c-1.1,0-2.1-0.3-3-0.8s-1.6-1.2-2.1-2.1c-0.5-0.9-0.8-1.9-0.8-2.9c0-1.1,0.3-2,0.8-2.9s1.2-1.6,2.1-2.1
				s1.9-0.8,3-0.8s2,0.3,2.9,0.8s1.6,1.3,2.1,2.1s0.8,1.9,0.8,2.9c0,1.1-0.3,2-0.8,2.9s-1.2,1.6-2.1,2.1
				C1063.7,829.4,1062.7,829.6,1061.7,829.6z M1061.7,827.4c0.6,0,1.2-0.2,1.8-0.5c0.5-0.3,1-0.8,1.3-1.3s0.5-1.1,0.5-1.8
				s-0.2-1.3-0.5-1.8s-0.8-1-1.3-1.3s-1.1-0.5-1.8-0.5c-0.6,0-1.2,0.2-1.8,0.5s-1,0.8-1.3,1.3s-0.5,1.1-0.5,1.8
				c0,0.6,0.2,1.2,0.5,1.8c0.3,0.5,0.8,1,1.3,1.3S1061,827.4,1061.7,827.4z M1059.5,841.4c-0.3,0-0.6-0.1-0.8-0.3
				c-0.2-0.2-0.3-0.5-0.3-0.8s0.1-0.6,0.3-0.8l16.5-21c0.1-0.1,0.3-0.3,0.4-0.3c0.2-0.1,0.3-0.1,0.5-0.1c0.3,0,0.6,0.1,0.8,0.3
				c0.2,0.2,0.3,0.5,0.3,0.9c0,0.3-0.1,0.5-0.2,0.7l-16.6,21.2C1060.1,841.2,1059.8,841.4,1059.5,841.4z M1073.8,841.4
				c-1.1,0-2-0.3-2.9-0.8s-1.6-1.2-2.1-2.1s-0.8-1.9-0.8-2.9c0-1.1,0.3-2,0.8-2.9s1.2-1.6,2.1-2.1s1.9-0.8,2.9-0.8s2.1,0.3,3,0.8
				s1.6,1.2,2.1,2.1c0.5,0.9,0.8,1.9,0.8,3s-0.3,2.1-0.8,2.9c-0.5,0.9-1.2,1.6-2.1,2.1C1075.9,841.1,1074.9,841.4,1073.8,841.4z
				 M1073.8,839.1c0.7,0,1.3-0.2,1.8-0.5s1-0.8,1.3-1.3s0.5-1.1,0.5-1.8c0-0.6-0.2-1.2-0.5-1.8s-0.8-1-1.3-1.3s-1.1-0.5-1.8-0.5
				c-0.6,0-1.2,0.2-1.8,0.5c-0.6,0.3-1,0.8-1.3,1.3s-0.5,1.1-0.5,1.8s0.2,1.3,0.5,1.8s0.8,1,1.3,1.3
				C1072.6,838.9,1073.2,839.1,1073.8,839.1z"/>
		</g>
		<g>
			<g>
				<path class="st27" d="M487.2,868.9c-1.7,0-3-1.3-3-3s1.3-3,3-3h590c1.7,0,3,1.3,3,3s-1.3,3-3,3H487.2z"/>
				<g>
					<path d="M1077.2,863.4c1.4,0,2.5,1.1,2.5,2.5s-1.1,2.5-2.5,2.5h-590c-1.4,0-2.5-1.1-2.5-2.5s1.1-2.5,2.5-2.5H1077.2
						 M1077.2,862.4h-590c-1.9,0-3.5,1.6-3.5,3.5s1.6,3.5,3.5,3.5h590c1.9,0,3.5-1.6,3.5-3.5S1079.1,862.4,1077.2,862.4
						L1077.2,862.4z"/>
				</g>
			</g>
			<g>
				<g>
					<path class="st28" d="M1072,874.1c-4.5,0-8.2-3.7-8.2-8.2s3.7-8.2,8.2-8.2s8.2,3.7,8.2,8.2S1076.5,874.1,1072,874.1z"/>
					<g>
						<path d="M1072,858.1c4.3,0,7.7,3.5,7.7,7.7s-3.5,7.7-7.7,7.7s-7.7-3.5-7.7-7.7S1067.7,858.1,1072,858.1 M1072,857.1
							c-4.8,0-8.7,3.9-8.7,8.7s3.9,8.7,8.7,8.7s8.7-3.9,8.7-8.7S1076.8,857.1,1072,857.1L1072,857.1z"/>
					</g>
				</g>
			</g>
		</g>
	</g>
	<g class="st2">
		<g>
			<path class="st22" d="M502.2,954.9c0.1,0,0.1,0.1,0.1,0.2v0.7c0,0.1,0,0.1-0.1,0.2c-0.1,0.1-0.1,0.1-0.2,0.1h-17
				c-0.1,0-0.2,0-0.2-0.1c-0.1-0.1-0.1-0.1-0.1-0.2v-0.7c0-0.1,0-0.1,0.1-0.2c0.1,0,0.1-0.1,0.2-0.1h7.8v-2.4
				c-0.6,0-1.2-0.1-1.9-0.2c-0.7-0.1-1.2-0.3-1.8-0.6c-0.5-0.3-1-0.6-1.3-1s-0.5-0.9-0.5-1.5c0-0.7,0.2-1.2,0.6-1.6
				c0.4-0.4,0.9-0.8,1.6-1c0.6-0.3,1.3-0.4,2-0.5s1.4-0.2,2-0.2s1.3,0.1,2,0.2s1.4,0.3,2,0.6s1.1,0.6,1.5,1s0.6,1,0.6,1.6
				s-0.2,1.1-0.5,1.5c-0.4,0.4-0.8,0.8-1.3,1s-1.1,0.5-1.8,0.6c-0.7,0.1-1.3,0.2-1.9,0.3v2.4h7.8
				C502.1,954.9,502.1,954.9,502.2,954.9z M487.2,958.1c0.1,0,0.1-0.1,0.2-0.1H498c0.6,0,1,0.1,1.2,0.3s0.3,0.6,0.3,1.2v4.4
				c0,0.2-0.1,0.3-0.3,0.3h-0.8c-0.2,0-0.3-0.1-0.3-0.3v-4.3c0-0.2,0-0.3-0.1-0.4c-0.1,0-0.2-0.1-0.4-0.1h-10.3
				c-0.1,0-0.1,0-0.2-0.1c-0.1,0-0.1-0.1-0.1-0.2v-0.7C487.1,958.2,487.1,958.1,487.2,958.1z M493.5,947c-0.4,0-0.9,0-1.5,0.1
				c-0.5,0.1-1.1,0.2-1.6,0.3c-0.5,0.2-0.9,0.4-1.2,0.7c-0.3,0.3-0.5,0.6-0.5,1.1c0,0.4,0.2,0.8,0.5,1.1s0.8,0.5,1.2,0.7
				c0.5,0.2,1,0.3,1.6,0.3c0.5,0.1,1,0.1,1.5,0.1c0.4,0,0.9,0,1.4-0.1s1.1-0.2,1.6-0.3c0.5-0.2,0.9-0.4,1.2-0.7
				c0.3-0.3,0.5-0.6,0.5-1.1c0-0.4-0.2-0.8-0.5-1.1s-0.8-0.5-1.2-0.7c-0.5-0.2-1-0.3-1.6-0.3C494.4,947,493.9,947,493.5,947z"/>
			<path class="st22" d="M510.3,946.5c0,1.3-0.2,2.5-0.5,3.5c0.2,0.5,0.4,1,0.7,1.5c0.3,0.5,0.6,1,1,1.4c0.4,0.5,0.8,0.9,1.2,1.2
				c0.4,0.4,0.9,0.7,1.3,0.9c0.1,0,0.1,0.1,0.1,0.2s0,0.1,0,0.2l-0.4,0.6c-0.1,0.1-0.1,0.1-0.2,0.1c-0.1,0-0.1,0-0.3-0.1
				c-0.3-0.2-0.7-0.4-1.1-0.8c-0.4-0.3-0.7-0.7-1.1-1.1c-0.4-0.4-0.7-0.8-1-1.3c-0.3-0.4-0.6-0.9-0.8-1.3c-0.9,2-2.3,3.6-4.2,4.8
				c-0.1,0-0.1,0.1-0.2,0.1s-0.1,0-0.2-0.1l-0.5-0.7c0-0.1,0-0.1,0-0.2c0-0.1,0.1-0.1,0.1-0.2c0.7-0.4,1.4-1,2-1.6
				c0.6-0.7,1.1-1.4,1.5-2.2s0.7-1.6,1-2.5c0.2-0.9,0.3-1.8,0.3-2.8c0-0.2,0.1-0.3,0.2-0.3l0.9,0.1
				C510.3,946.2,510.3,946.3,510.3,946.5z M519.5,963.6c-0.1,0-0.1,0.1-0.2,0.1h-10c-0.6,0-1-0.1-1.2-0.3s-0.3-0.6-0.3-1.2v-3.9
				c0-0.2,0.1-0.3,0.3-0.3h0.8c0.2,0,0.3,0.1,0.3,0.3v3.8c0,0.2,0,0.3,0.1,0.4c0.1,0,0.2,0.1,0.4,0.1h9.7c0.1,0,0.1,0,0.2,0.1
				c0.1,0,0.1,0.1,0.1,0.2v0.7C519.6,963.5,519.6,963.5,519.5,963.6z M517.6,949v-3.2c0-0.2,0.1-0.3,0.3-0.3h0.8
				c0.2,0,0.3,0.1,0.3,0.3v12.8c0,0.2-0.1,0.3-0.3,0.3h-0.8c-0.2,0-0.3-0.1-0.3-0.3v-4.9h-4.1c-0.2,0-0.3-0.1-0.3-0.2v-0.7
				c0-0.2,0.1-0.2,0.3-0.2h4.1v-2.4h-4.1c-0.2,0-0.3-0.1-0.3-0.2v-0.7c0-0.2,0.1-0.2,0.3-0.2L517.6,949L517.6,949z"/>
			<path class="st22" d="M531.2,953.5c0.1,0.1,0.2,0.1,0.4,0.1c1.3,0,2.6,0,4-0.1s2.7-0.3,4-0.5c0.2,0,0.3,0,0.4,0.2l0.1,0.6
				c0,0.2-0.1,0.3-0.3,0.3c-0.5,0.1-1.1,0.2-1.8,0.3s-1.4,0.2-2.2,0.2c-0.8,0.1-1.5,0.1-2.3,0.1s-1.5,0-2.1,0s-1-0.2-1.2-0.4
				s-0.3-0.7-0.3-1.2v-6.6c0-0.2,0.1-0.3,0.3-0.3h0.8c0.2,0,0.3,0.1,0.3,0.3v6.5C531.1,953.3,531.1,953.5,531.2,953.5z M531.1,957.4
				c0.1,0,0.1-0.1,0.2-0.1h9.8c0.6,0,1,0.1,1.2,0.3s0.3,0.6,0.3,1.2v5c0,0.2-0.1,0.3-0.3,0.3h-0.8c-0.2,0-0.3-0.1-0.3-0.3v-4.9
				c0-0.2,0-0.3-0.1-0.4c-0.1,0-0.2-0.1-0.4-0.1h-9.5c-0.1,0-0.1,0-0.2-0.1s-0.1-0.1-0.1-0.2v-0.7
				C531,957.5,531.1,957.4,531.1,957.4z M542.4,956.2h-0.8c-0.2,0-0.3-0.1-0.3-0.3v-10.1c0-0.2,0.1-0.3,0.3-0.3h0.8
				c0.2,0,0.3,0.1,0.3,0.3v4.8h2.8c0.1,0,0.1,0,0.2,0.1c0.1,0,0.1,0.1,0.1,0.2v0.7c0,0.1,0,0.1-0.1,0.2c-0.1,0.1-0.1,0.1-0.2,0.1
				h-2.8v4.1C542.7,956.1,542.6,956.2,542.4,956.2z"/>
			<path class="st22" d="M557.7,955.1c0,0.1-0.1,0.2-0.2,0.2c-0.1,0-0.1,0-0.3,0c-0.7-0.3-1.3-0.6-1.9-1c-0.6-0.4-1.3-0.8-1.9-1.3
				c-0.8,0.6-1.6,1.1-2.5,1.6s-1.9,0.9-3,1.3c-0.1,0-0.1,0-0.2,0s-0.1,0-0.1-0.1l-0.3-0.7c0-0.1,0-0.1,0-0.2c0-0.1,0.1-0.1,0.2-0.1
				c1.6-0.6,3-1.2,4.2-2s2.2-1.7,3-2.8c0.1-0.2,0.1-0.3,0.1-0.4c-0.1-0.1-0.2-0.1-0.4-0.1h-6.1c-0.2,0-0.2-0.1-0.2-0.3v-0.7
				c0-0.2,0.1-0.2,0.2-0.2h6.6c0.7,0,1.2,0.1,1.4,0.4c0.2,0.3,0.2,0.7-0.1,1.2c-0.5,0.8-1.1,1.6-1.8,2.3c0.5,0.4,1.1,0.8,1.7,1.2
				s1.2,0.6,1.7,0.8c0.2,0.1,0.2,0.2,0.2,0.4L557.7,955.1z M554.9,946v0.6c0,0.2-0.1,0.3-0.3,0.3h-4.5c-0.2,0-0.3-0.1-0.3-0.3V946
				c0-0.2,0.1-0.3,0.3-0.3h4.5C554.8,945.7,554.9,945.8,554.9,946z M561.9,963.8c0,0.1,0,0.1-0.1,0.2c-0.1,0-0.1,0.1-0.2,0.1h-10.1
				c-0.6,0-1-0.1-1.2-0.3s-0.3-0.6-0.3-1.2v-1.3c0-0.6,0.1-0.9,0.3-1.1s0.7-0.3,1.2-0.3h8c0.2,0,0.3,0,0.4-0.1
				c0.1-0.1,0.1-0.2,0.1-0.4v-0.9c0-0.2,0-0.3-0.1-0.4c0-0.1-0.2-0.1-0.4-0.1h-9.4c-0.1,0-0.1,0-0.2-0.1c-0.1,0-0.1-0.1-0.1-0.2V957
				c0-0.1,0-0.1,0.1-0.2c0.1,0,0.1-0.1,0.2-0.1h9.6c0.3,0,0.6,0,0.8,0.1c0.2,0,0.4,0.1,0.5,0.2s0.2,0.3,0.2,0.5s0.1,0.4,0.1,0.7v1.2
				c0,0.6-0.1,0.9-0.4,1.1s-0.6,0.3-1.2,0.3h-8c-0.2,0-0.3,0-0.4,0.1c0,0.1-0.1,0.2-0.1,0.4v1c0,0.2,0,0.3,0.1,0.4
				c0.1,0.1,0.2,0.1,0.4,0.1h9.7c0.1,0,0.1,0,0.2,0.1c0.1,0,0.1,0.1,0.1,0.2v0.7H561.9z M561.2,955.9h-0.8c-0.2,0-0.3-0.1-0.3-0.3
				v-9.8c0-0.2,0.1-0.3,0.3-0.3h0.8c0.2,0,0.3,0.1,0.3,0.3v4.7h2.8c0.1,0,0.1,0,0.2,0.1c0.1,0,0.1,0.1,0.1,0.2v0.7
				c0,0.1,0,0.1-0.1,0.2c-0.1,0.1-0.1,0.1-0.2,0.1h-2.8v3.8C561.5,955.8,561.4,955.9,561.2,955.9z"/>
			<path class="st22" d="M580.7,963.6c0,0.1,0,0.1-0.1,0.2s-0.1,0.1-0.2,0.1h-10.6c-0.6,0-1-0.1-1.2-0.3s-0.3-0.6-0.3-1.2v-1.2
				c0-0.6,0.1-0.9,0.4-1.1c0.2-0.2,0.6-0.3,1.2-0.3h8.6c0.2,0,0.3,0,0.4-0.1c0.1-0.1,0.1-0.2,0.1-0.4v-0.8c0-0.2,0-0.3-0.1-0.4
				c0-0.1-0.2-0.1-0.4-0.1h-10c-0.1,0-0.1,0-0.2-0.1c-0.1,0-0.1-0.1-0.1-0.2V957c0-0.1,0-0.1,0.1-0.2c0.1,0,0.1-0.1,0.2-0.1h2v-1.8
				h-4.7c-0.1,0-0.2,0-0.2-0.1c-0.1-0.1-0.1-0.1-0.1-0.2v-0.7c0-0.1,0-0.1,0.1-0.2c0.1,0,0.1-0.1,0.2-0.1h17c0.1,0,0.1,0,0.2,0.1
				c0.1,0,0.1,0.1,0.1,0.2v0.7c0,0.1,0,0.1-0.1,0.2c-0.1,0.1-0.1,0.1-0.2,0.1H578v1.8h0.7c0.3,0,0.6,0,0.8,0.1
				c0.2,0,0.4,0.1,0.5,0.2c0.1,0.1,0.2,0.3,0.2,0.5s0.1,0.4,0.1,0.7v1.1c0,0.6-0.1,0.9-0.3,1.1c-0.2,0.2-0.7,0.3-1.2,0.3h-8.6
				c-0.2,0-0.3,0-0.4,0.1c0,0.1-0.1,0.2-0.1,0.4v0.9c0,0.2,0,0.3,0.1,0.4c0.1,0.1,0.2,0.1,0.4,0.1h10.3c0.1,0,0.1,0,0.2,0.1
				s0.1,0.1,0.1,0.2v0.7H580.7z M580.6,952c0,0.1,0,0.1-0.1,0.2c-0.1,0-0.1,0.1-0.2,0.1h-10.4c-0.6,0-1-0.1-1.2-0.4
				c-0.2-0.2-0.3-0.6-0.3-1.2v-1c0-0.6,0.1-0.9,0.3-1.1s0.7-0.3,1.2-0.3h8.5c0.2,0,0.3,0,0.3-0.1s0.1-0.2,0.1-0.4v-0.7
				c0-0.2,0-0.3-0.1-0.4c0-0.1-0.2-0.1-0.3-0.1h-9.8c-0.1,0-0.1,0-0.2-0.1c-0.1,0-0.1-0.1-0.1-0.2v-0.7c0-0.1,0-0.1,0.1-0.2
				c0.1,0,0.1-0.1,0.2-0.1h10c0.3,0,0.6,0,0.8,0.1s0.4,0.1,0.5,0.2c0.1,0.1,0.2,0.3,0.2,0.5s0.1,0.4,0.1,0.7v1.1
				c0,0.6-0.1,0.9-0.3,1.1c-0.2,0.2-0.7,0.3-1.2,0.3h-8.5c-0.2,0-0.3,0-0.4,0.1c0,0-0.1,0.2-0.1,0.4v0.7c0,0.2,0,0.3,0.1,0.4
				c0.1,0.1,0.2,0.1,0.4,0.1h10.1c0.1,0,0.1,0,0.2,0.1c0.1,0,0.1,0.1,0.1,0.2L580.6,952L580.6,952z M571.9,956.9h4.8v-1.8h-4.8
				V956.9z"/>
		</g>
		<g>
			<path d="M491.7,1004.9c-1.5,0-2.8-0.5-3.8-1.4c-1.1-0.9-1.9-2.3-2.4-4s-0.8-3.9-0.8-6.3c0-2.4,0.3-4.5,0.8-6.3s1.4-3.1,2.4-4
				c1.1-0.9,2.3-1.4,3.8-1.4s2.8,0.5,3.9,1.4c1.1,1,1.8,2.3,2.4,4.1c0.5,1.8,0.8,3.8,0.8,6.2s-0.3,4.5-0.8,6.3
				c-0.6,1.8-1.3,3.1-2.4,4.1C494.6,1004.4,493.3,1004.9,491.7,1004.9z M491.7,1002.5c1.1,0,2-0.4,2.7-1.2s1.2-1.9,1.6-3.3
				c0.3-1.4,0.5-3,0.5-4.9c0-1.8-0.2-3.4-0.5-4.8s-0.9-2.5-1.6-3.3s-1.6-1.2-2.6-1.2s-1.9,0.4-2.6,1.2s-1.2,1.9-1.6,3.3
				c-0.4,1.4-0.5,3-0.5,4.8s0.2,3.5,0.5,4.9s0.9,2.5,1.6,3.3C489.8,1002.1,490.7,1002.5,491.7,1002.5z"/>
			<path d="M513.7,1008.9c-0.1,0-0.2,0-0.3-0.1s-0.1-0.2-0.1-0.3v-9.7h-11.6c-0.1,0-0.2,0-0.3-0.1c-0.1-0.1-0.1-0.2-0.1-0.3v-1
				c0-0.1,0-0.2,0.1-0.3s0.2-0.1,0.3-0.1h25.5c0.1,0,0.2,0,0.3,0.1s0.2,0.2,0.2,0.3v1c0,0.1-0.1,0.2-0.2,0.3
				c-0.1,0.1-0.2,0.1-0.3,0.1h-11.8v9.7c0,0.1,0,0.2-0.1,0.3s-0.2,0.1-0.3,0.1H513.7z M525.1,992.9c-0.1,0.2-0.3,0.3-0.6,0.2
				c-1.6-0.4-3.2-0.8-4.8-1.5s-3.3-1.3-4.8-2.1c-1.4,0.7-3,1.4-4.7,2.1c-1.7,0.6-3.5,1.2-5.4,1.8c-0.3,0.1-0.5,0-0.6-0.2l-0.4-1
				c-0.1-0.3,0-0.5,0.2-0.5c1.4-0.4,2.9-0.8,4.3-1.4c1.4-0.5,2.8-1.1,4.1-1.7c1.3-0.6,2.5-1.2,3.6-1.9s2.2-1.3,3-2
				c0.2-0.2,0.3-0.3,0.3-0.5s-0.2-0.2-0.5-0.2h-12.9c-0.3,0-0.4-0.1-0.4-0.4v-1.1c0-0.2,0.1-0.4,0.4-0.4h13.7c0.8,0,1.4,0.1,1.8,0.3
				c0.5,0.2,0.7,0.4,0.9,0.7c0.1,0.3,0.1,0.6-0.1,1c-0.2,0.4-0.5,0.8-0.9,1.2c-1.3,1.2-2.9,2.3-4.7,3.3c1.3,0.6,2.6,1.1,4.1,1.6
				s2.9,0.9,4.4,1.3c0.2,0,0.3,0.1,0.3,0.2c0,0.1,0,0.2-0.1,0.3L525.1,992.9z"/>
		</g>
		<g>
			<path d="M996.8,1004.9c-0.3,0-0.6-0.1-0.8-0.3s-0.3-0.5-0.3-0.8v-19.5l-3,1c-0.2,0.1-0.4,0.1-0.6,0.1c-0.3,0-0.6-0.1-0.8-0.3
				s-0.3-0.5-0.3-0.8c0-0.2,0.1-0.5,0.2-0.7c0.1-0.2,0.3-0.3,0.6-0.5l4.6-1.6c0.1,0,0.2-0.1,0.3-0.1s0.2,0,0.3,0
				c0.3,0,0.6,0.1,0.8,0.3s0.3,0.5,0.3,0.8v21.1c0,0.3-0.1,0.6-0.3,0.8C997.5,1004.8,997.2,1004.9,996.8,1004.9z"/>
			<path d="M1009.6,1004.9c-1.5,0-2.8-0.5-3.8-1.4c-1.1-0.9-1.9-2.3-2.4-4s-0.8-3.9-0.8-6.3c0-2.4,0.3-4.5,0.8-6.3s1.4-3.1,2.4-4
				c1.1-0.9,2.3-1.4,3.8-1.4s2.8,0.5,3.9,1.4c1.1,1,1.8,2.3,2.4,4.1c0.5,1.8,0.8,3.8,0.8,6.2s-0.3,4.5-0.8,6.3
				c-0.6,1.8-1.3,3.1-2.4,4.1C1012.4,1004.4,1011.1,1004.9,1009.6,1004.9z M1009.6,1002.5c1.1,0,2-0.4,2.7-1.2s1.2-1.9,1.6-3.3
				c0.3-1.4,0.5-3,0.5-4.9c0-1.8-0.2-3.4-0.5-4.8s-0.9-2.5-1.6-3.3c-0.7-0.8-1.6-1.2-2.6-1.2s-1.9,0.4-2.6,1.2
				c-0.7,0.8-1.2,1.9-1.6,3.3c-0.4,1.4-0.5,3-0.5,4.8s0.2,3.5,0.5,4.9s0.9,2.5,1.6,3.3C1007.6,1002.1,1008.5,1002.5,1009.6,1002.5z"
				/>
			<path d="M1026.7,1004.9c-1.5,0-2.8-0.5-3.8-1.4c-1.1-0.9-1.9-2.3-2.4-4c-0.6-1.8-0.8-3.9-0.8-6.3c0-2.4,0.3-4.5,0.8-6.3
				s1.4-3.1,2.4-4s2.3-1.4,3.8-1.4s2.8,0.5,3.9,1.4c1,1,1.8,2.3,2.4,4.1s0.8,3.8,0.8,6.2s-0.3,4.5-0.8,6.3s-1.3,3.1-2.4,4.1
				C1029.5,1004.4,1028.2,1004.9,1026.7,1004.9z M1026.7,1002.5c1.1,0,2-0.4,2.7-1.2s1.2-1.9,1.6-3.3c0.3-1.4,0.5-3,0.5-4.9
				c0-1.8-0.2-3.4-0.5-4.8s-0.9-2.5-1.6-3.3s-1.6-1.2-2.6-1.2c-1.1,0-1.9,0.4-2.6,1.2s-1.2,1.9-1.6,3.3s-0.5,3-0.5,4.8
				s0.2,3.5,0.5,4.9s0.9,2.5,1.6,3.3C1024.8,1002.1,1025.6,1002.5,1026.7,1002.5z"/>
			<path d="M1043.8,1004.9c-1.5,0-2.8-0.5-3.8-1.4c-1.1-0.9-1.9-2.3-2.4-4s-0.8-3.9-0.8-6.3c0-2.4,0.3-4.5,0.8-6.3s1.4-3.1,2.4-4
				c1.1-0.9,2.3-1.4,3.8-1.4s2.8,0.5,3.9,1.4c1.1,1,1.8,2.3,2.4,4.1c0.5,1.8,0.8,3.8,0.8,6.2s-0.3,4.5-0.8,6.3
				c-0.6,1.8-1.3,3.1-2.4,4.1C1046.6,1004.4,1045.3,1004.9,1043.8,1004.9z M1043.8,1002.5c1.1,0,2-0.4,2.7-1.2s1.2-1.9,1.6-3.3
				c0.3-1.4,0.5-3,0.5-4.9c0-1.8-0.2-3.4-0.5-4.8s-0.9-2.5-1.6-3.3s-1.6-1.2-2.6-1.2s-1.9,0.4-2.6,1.2s-1.2,1.9-1.6,3.3
				c-0.4,1.4-0.5,3-0.5,4.8s0.2,3.5,0.5,4.9s0.9,2.5,1.6,3.3C1041.9,1002.1,1042.8,1002.5,1043.8,1002.5z"/>
			<path d="M1065.8,1008.9c-0.1,0-0.2,0-0.3-0.1c-0.1-0.1-0.1-0.2-0.1-0.3v-9.7h-11.6c-0.1,0-0.2,0-0.3-0.1
				c-0.1-0.1-0.1-0.2-0.1-0.3v-1c0-0.1,0-0.2,0.1-0.3s0.2-0.1,0.3-0.1h25.5c0.1,0,0.2,0,0.3,0.1c0.1,0.1,0.2,0.2,0.2,0.3v1
				c0,0.1-0.1,0.2-0.2,0.3s-0.2,0.1-0.3,0.1h-11.8v9.7c0,0.1,0,0.2-0.1,0.3s-0.2,0.1-0.3,0.1H1065.8z M1077.1,992.9
				c-0.1,0.2-0.3,0.3-0.6,0.2c-1.6-0.4-3.2-0.8-4.8-1.5s-3.3-1.3-4.8-2.1c-1.4,0.7-3,1.4-4.7,2.1c-1.7,0.6-3.5,1.2-5.4,1.8
				c-0.3,0.1-0.5,0-0.6-0.2l-0.4-1c-0.1-0.3,0-0.5,0.2-0.5c1.4-0.4,2.9-0.8,4.3-1.4c1.4-0.5,2.8-1.1,4.1-1.7
				c1.3-0.6,2.5-1.2,3.6-1.9s2.2-1.3,3-2c0.2-0.2,0.3-0.3,0.3-0.5s-0.2-0.2-0.5-0.2h-12.9c-0.3,0-0.4-0.1-0.4-0.4v-1.1
				c0-0.2,0.1-0.4,0.4-0.4h13.7c0.8,0,1.4,0.1,1.8,0.3c0.5,0.2,0.7,0.4,0.9,0.7c0.1,0.3,0.1,0.6-0.1,1s-0.5,0.8-0.9,1.2
				c-1.3,1.2-2.9,2.3-4.7,3.3c1.3,0.6,2.6,1.1,4.1,1.6s2.9,0.9,4.4,1.3c0.2,0,0.3,0.1,0.3,0.2c0,0.1,0,0.2-0.1,0.3L1077.1,992.9z"/>
		</g>
		<g>
			<g>
				<path class="st29" d="M487.2,1032.1c-1.7,0-3-1.3-3-3s1.3-3,3-3h590c1.7,0,3,1.3,3,3s-1.3,3-3,3H487.2z"/>
				<path class="st27" d="M888.7,1032.1H487.2c-1.7,0-3-1.3-3-3s1.3-3,3-3H889"/>
				<path class="st27" d="M1077.2,1026.1c1.7,0,3,1.3,3,3s-1.3,3-3,3"/>
				<g>
					<path d="M1077.2,1026.6c1.4,0,2.5,1.1,2.5,2.5l0,0c0,1.4-1.1,2.5-2.5,2.5h-590c-1.4,0-2.5-1.1-2.5-2.5l0,0
						c0-1.4,1.1-2.5,2.5-2.5H1077.2 M1077.2,1025.6h-590c-1.9,0-3.5,1.6-3.5,3.5s1.6,3.5,3.5,3.5h590c1.9,0,3.5-1.6,3.5-3.5
						S1079.1,1025.6,1077.2,1025.6L1077.2,1025.6z"/>
				</g>
			</g>
			<g>
				<g>
					<path class="st28" d="M889.3,1037.3c-4.5,0-8.2-3.7-8.2-8.2s3.7-8.2,8.2-8.2s8.2,3.7,8.2,8.2
						C897.5,1033.7,893.8,1037.3,889.3,1037.3z"/>
					<g>
						<path d="M889.3,1021.4c4.3,0,7.7,3.5,7.7,7.7s-3.5,7.7-7.7,7.7c-4.3,0-7.7-3.5-7.7-7.7S885,1021.4,889.3,1021.4 M889.3,1020.4
							c-4.8,0-8.7,3.9-8.7,8.7s3.9,8.7,8.7,8.7s8.7-3.9,8.7-8.7S894.1,1020.4,889.3,1020.4L889.3,1020.4z"/>
					</g>
				</g>
			</g>
		</g>
	</g>
</g>
<rect x="-158.4" y="-612.8" class="st30" width="383.3" height="294.7"/>
<rect x="264.9" y="-612.8" class="st18" width="383.3" height="294.7"/>
<rect x="700.3" y="-612.8" class="st31" width="383.3" height="294.7"/>
<rect x="1123.5" y="-612.8" class="st32" width="383.3" height="294.7"/>
<g id="Layer_2_1_">
	<g>
		<path class="st33" d="M1091.5,123.5c1,0,183-75,162,74"/>
		<polyline class="st33" points="1096.5,106.5 1089.5,124.5 1107.5,130.5 		"/>
	</g>
	<rect x="1182.2" y="221.2" class="st34" width="413.8" height="247.3"/>
	<text transform="matrix(1 0 0 1 1182.175 242.6585)" class="st30 st35 st36">상단 오른쪽에 고정시킨</text>
	<text transform="matrix(1 0 0 1 1182.175 282.6585)" class="st30 st35 st36">검색과 질문은 낯선 용어를 쉽게 찾아 </text>
	<text transform="matrix(1 0 0 1 1182.175 322.6585)" class="st30 st35 st36">볼 수 있습니다. </text>
	<text transform="matrix(1 0 0 1 1182.175 362.6585)" class="st30 st35 st36">   </text>
	<rect x="207.2" y="659.2" class="st34" width="354.8" height="247.3"/>
	<text transform="matrix(1 0 0 1 207.175 680.6585)" class="st30 st35 st36">컨텐츠는 넓고 </text>
	<text transform="matrix(1 0 0 1 207.175 720.6585)" class="st30 st35 st36">큼직하게 보입니다.</text>
	<text transform="matrix(1 0 0 1 207.175 760.6585)" class="st30 st35 st36">   </text>
	<g>
		<path class="st33" d="M1046.5,1156.5c1,0,160-74,166,33"/>
		<polyline class="st33" points="1051.5,1138.5 1045.5,1157.5 1063.5,1163.5 		"/>
	</g>
	<rect x="1182.2" y="1212.2" class="st34" width="354.8" height="247.3"/>
	<text transform="matrix(1 0 0 1 1182.175 1233.6584)" class="st30 st35 st36">행동 유도 버튼을 하단에 크게 </text>
	<text transform="matrix(1 0 0 1 1182.175 1273.6584)" class="st30 st35 st36">고정합니다.  </text>
	<text transform="matrix(1 0 0 1 1182.175 1313.6584)" class="st30 st35 st36">   </text>
	<g>
		<g>
			<line class="st33" x1="564" y1="221" x2="558" y2="221"/>
			<line class="st37" x1="546.1" y1="221" x2="218.9" y2="221"/>
			<line class="st33" x1="213" y1="221" x2="207" y2="221"/>
		</g>
	</g>
	<g>
		<g>
			<line class="st33" x1="564" y1="1113.5" x2="558" y2="1113.5"/>
			<line class="st37" x1="546.1" y1="1113.5" x2="218.9" y2="1113.5"/>
			<line class="st33" x1="213" y1="1113.5" x2="207" y2="1113.5"/>
		</g>
	</g>
	<g>
		<path class="st33" d="M245,251c0,0-158,483,38,837"/>
		<polyline class="st33" points="265.5,1083.5 285.5,1090.5 285.5,1070.5 		"/>
		<path class="st33" d="M226.5,263.5c1-1,19-14,19-14l4,22"/>
	</g>
</g>
</svg>
