<?xml version="1.0" encoding="utf-8"?>
<!-- Generator: Adobe Illustrator 22.1.0, SVG Export Plug-In . SVG Version: 6.00 Build 0)  -->
<svg version="1.1" xmlns="http://www.w3.org/2000/svg" xmlns:xlink="http://www.w3.org/1999/xlink" x="0px" y="0px"
	 viewBox="0 0 706 1485" style="enable-background:new 0 0 706 1485;" xml:space="preserve">
<style type="text/css">
	.st0{fill:#ECF0F3;}
	.st1{fill:#E58777;stroke:#000000;stroke-miterlimit:10;}
	.st2{clip-path:url(#SVGID_2_);fill:none;}
	.st3{clip-path:url(#SVGID_2_);}
	.st4{fill:#121212;stroke:#FCFCFA;stroke-miterlimit:10;}
	.st5{fill:#FCFCFA;}
	.st6{font-family:'Pretendard-Medium-KSCpc-EUC-H';}
	.st7{font-size:20px;}
	.st8{fill:#FFFFFF;}
	.st9{font-family:'Pretendard-ExtraLight-KSCpc-EUC-H';}
	.st10{fill:#FCFCFA;stroke:#FCFCFA;stroke-width:2;stroke-miterlimit:10;}
	.st11{fill:none;stroke:#FCFCFA;stroke-width:2;stroke-miterlimit:10;}
	.st12{fill:#FCFCFA;stroke:#FCFCFA;stroke-miterlimit:10;}
	.st13{fill:#E2DDC5;}
	.st14{fill:#F7F7F9;}
	.st15{fill:none;stroke:#000000;stroke-miterlimit:10;}
	.st16{font-family:'NanumGothic';}
	.st17{font-size:30px;}
	.st18{fill:#FEFEFE;}
	.st19{fill:#ECF0F3;stroke:#000000;stroke-miterlimit:10;}
	.st20{fill:#66E298;}
	.st21{fill:#61F7A0;}
	.st22{fill:#1EFFA3;stroke:#000000;stroke-miterlimit:10;}
	.st23{fill:none;}
	.st24{font-family:'NanumGothicBold';}
	.st25{font-size:24px;}
	.st26{fill:#605D60;}
	.st27{fill:#61F7A0;stroke:#000000;stroke-miterlimit:10;}
	.st28{fill:none;stroke:#000000;stroke-linecap:round;stroke-miterlimit:10;}
	.st29{fill:#1B1B1E;stroke:#000000;stroke-miterlimit:10;}
	.st30{stroke:#000000;stroke-miterlimit:10;}
	.st31{fill:#F85B46;stroke:#000000;stroke-miterlimit:10;}
	.st32{fill:#F946F9;stroke:#000000;stroke-miterlimit:10;}
	.st33{fill:#F2F2F2;}
	.st34{fill:#F1EF58;stroke:#000000;stroke-miterlimit:10;}
	.st35{fill:#6495ED;}
	.st36{fill:#F1EF58;}
	.st37{fill:#F85B46;}
</style>
<g id="Layer_2">
	<g>
		<path class="st0" d="M633.7,19C662,19,685,42,685,70.3v1337.5c0,28.3-23,51.3-51.3,51.3H70.3c-28.3,0-51.3-23-51.3-51.3V70.3
			C19,42,42,19,70.3,19H633.7 M633.7,12H70.3C38.1,12,12,38.1,12,70.3v1337.5c0,32.1,26.1,58.3,58.3,58.3h563.5
			c32.1,0,58.3-26.1,58.3-58.3V70.3C692,38.1,665.9,12,633.7,12L633.7,12z"/>
	</g>
	<g>
		<path class="st0" d="M633.7,19C662,19,685,42,685,70.3v1337.5c0,28.3-23,51.3-51.3,51.3H70.3c-28.3,0-51.3-23-51.3-51.3V70.3
			C19,42,42,19,70.3,19H633.7 M633.7,12H70.3C38.1,12,12,38.1,12,70.3v1337.5c0,32.1,26.1,58.3,58.3,58.3h563.5
			c32.1,0,58.3-26.1,58.3-58.3V70.3C692,38.1,665.9,12,633.7,12L633.7,12z"/>
	</g>
	<g>
		<path class="st0" d="M633.7,19C662,19,685,42,685,70.3v1337.5c0,28.3-23,51.3-51.3,51.3H70.3c-28.3,0-51.3-23-51.3-51.3V70.3
			C19,42,42,19,70.3,19H633.7 M633.7,12H70.3C38.1,12,12,38.1,12,70.3v1337.5c0,32.1,26.1,58.3,58.3,58.3h563.5
			c32.1,0,58.3-26.1,58.3-58.3V70.3C692,38.1,665.9,12,633.7,12L633.7,12z"/>
	</g>
</g>
<g id="Layer_3">
	<path class="st1" d="M1460.3,572.7"/>
	<g>
		<path class="st0" d="M3167.9,35.4h-563.4c-32.2,0-58.3,26.1-58.3,58.3v1337.5c0,32.1,26.1,58.3,58.3,58.3H3168
			c32.1,0,58.3-26.1,58.3-58.3V93.7C3226.2,61.5,3200.1,35.4,3167.9,35.4L3167.9,35.4z"/>
	</g>
	<g>
		<defs>
			<path id="SVGID_1_" d="M632.9,1459.5H69.5c-28.3,0-51.3-23-51.3-51.3V70.8c0-28.3,23-51.3,51.3-51.3H633
				c28.2,0,51.2,23,51.2,51.3v1337.5C684.2,1436.5,661.2,1459.5,632.9,1459.5z"/>
		</defs>
		<clipPath id="SVGID_2_">
			<use xlink:href="#SVGID_1_"  style="overflow:visible;"/>
		</clipPath>
		<path class="st2" d="M630.9,1455H67.5c-28.3,0-51.3-23-51.3-51.3V66.3C16.2,38,39.2,15,67.5,15H631c28.2,0,51.2,23,51.2,51.3
			v1337.5C682.2,1432,659.2,1455,630.9,1455z"/>
		<g class="st3">
			<path class="st4" d="M485.6,1373.4"/>
			<path class="st4" d="M476.2,1373.4"/>
			<g>
				<text transform="matrix(1 0 0 1 77.3498 1411.1813)" class="st5 st6 st7">옥션</text>
			</g>
			<g>
				<g>
					<text transform="matrix(1 0 0 1 313.0622 1411.6116)" class="st8 st9 st7">마이 뮤카</text>
				</g>
			</g>
			<g>
				<g>
					<text transform="matrix(1 0 0 1 458.7717 1411.6115)" class="st8 st9 st7">추천</text>
				</g>
			</g>
			<g>
				<text transform="matrix(1 0 0 1 575.4948 1411.6118)" class="st8 st9 st7">더보기</text>
			</g>
			<g>
				<ellipse class="st5" cx="583.5" cy="1361.6" rx="2.5" ry="3"/>
				<ellipse class="st5" cx="600.5" cy="1361.6" rx="2.5" ry="3"/>
				<ellipse class="st5" cx="617.5" cy="1361.6" rx="2.5" ry="3"/>
			</g>
			<g>
				<text transform="matrix(1 0 0 1 197.8034 1411.6118)" class="st8 st9 st7">마켓</text>
			</g>
			<g>
				<circle class="st10" cx="209.3" cy="1373.7" r="6.1"/>
				<path class="st11" d="M215.4,1373v-31.4c0,0,20.2,13.8,7,24.5"/>
			</g>
			<g>
				<circle class="st5" cx="348.9" cy="1349.4" r="7.3"/>
				<g>
					<path class="st5" d="M348.9,1359.2c-6.5,0-11.8,7.3-11.8,16.2v5.5h23.6v-5.5C360.8,1366.5,355.4,1359.2,348.9,1359.2"/>
				</g>
			</g>
			<path class="st12" d="M477.8,1374.6h6.5c3.1,0,5.6-2.8,5.6-6.3v-19.5c0-3.5-2.5-6.3-5.6-6.3H467c-3.1,0-5.6,2.8-5.6,6.3v19.5
				c0,3.5,2.5,6.3,5.6,6.3h6.5l2.1,6.7L477.8,1374.6z"/>
			<g>
				<path class="st12" d="M97.4,1366.4h8.3c3.9,0,7.1-2.1,7.1-4.8v-14.8c0-2.6-3.2-4.8-7.1-4.8H83.5c-3.9,0-7.1,2.1-7.1,4.8v14.8
					c0,2.6,3.2,4.8,7.1,4.8h8.3H97.4z"/>
				<rect x="93" y="1366.4" class="st12" width="3.2" height="14.5"/>
			</g>
			<path class="st13" d="M632.9,1459.5H69.5c-28.3,0-51.3-23-51.3-51.3V70.8c0-28.3,23-51.3,51.3-51.3H633c28.2,0,51.2,23,51.2,51.3
				v1337.5C684.2,1436.5,661.2,1459.5,632.9,1459.5z"/>
			<polygon class="st14" points="785.2,1459.5 -79.9,1459.5 -81.2,19.5 785.2,19.5 			"/>
			<polyline class="st15" points="62.5,106.3 49.1,119.7 62.5,133.1 			"/>
			<line class="st15" x1="49.1" y1="119.7" x2="87.7" y2="119.7"/>
			<g>
				<text transform="matrix(1 0 0 1 267.3217 130.7195)" class="st16 st17">이번주 옥션  </text>
			</g>
			<g>
				<path class="st15" d="M588.5,119.1c0,4.2-1.8,7.9-4.6,10.6c-2.6,2.4-6,3.8-9.8,3.8c-7.9,0-14.4-6.4-14.4-14.4
					s6.4-14.4,14.4-14.4S588.5,111.1,588.5,119.1z"/>
				<line class="st15" x1="592.2" y1="138" x2="583.9" y2="129.6"/>
			</g>
			<g>
				<path d="M636.7,105.7L636.7,105.7c0.2,0,0.5,0,0.8,0c5.2,0.4,9.3,4.9,9.3,10.1c0,3-1.9,4.7-4,6.5c-1.9,1.7-3.9,3.4-4.3,6.3H635
					c0.3-3.8,2.4-5.4,4.5-7c1.9-1.4,3.8-2.9,3.8-5.8s-1.9-5.4-4.6-6.2c-0.6-0.2-1.3-0.3-2-0.3c-1.7,0-3.4,0.7-4.6,1.9
					c-1,1-1.6,2.2-1.8,3.6h-3.5C627.2,109.7,631.5,105.7,636.7,105.7 M638.5,134.3v3.5H635v-3.5H638.5 M636.7,104.7
					c-6.1,0-11,4.9-11,11h5.5c0-3,2.5-5.5,5.5-5.5c0.5,0,1.1,0.1,1.7,0.2c2.3,0.7,3.8,2.9,3.9,5.3c0,5.5-8.3,4.8-8.3,13.8h5.5
					c0-6.2,8.2-6.9,8.3-13.7c0.1-5.7-4.5-10.7-10.2-11.1C637.3,104.7,637,104.7,636.7,104.7L636.7,104.7z M639.5,133.3H634v5.5h5.5
					V133.3L639.5,133.3z"/>
			</g>
			<g>
				<path class="st18" d="M41.9,220.4h618.6c13.1,0,23.7,10.6,23.7,23.7v1218.3h-666V244.1C18.2,231,28.8,220.4,41.9,220.4z"/>
			</g>
			<path class="st15" d="M611.6,405.8l35.2-0.3c1.1,0,1.9,1.1,1.9,2.4v50.2c0,2.1-2,3.2-3.2,1.7l-15.4-19.2c-0.5-0.6-1.3-0.6-1.8,0
				l-15.4,19.2c-1.2,1.5-3.2,0.4-3.2-1.7v-50C609.7,406.9,610.5,405.8,611.6,405.8z"/>
			<g>
				<path d="M58.4,440.7c-0.7,0-1.2-0.2-1.6-0.7c-0.4-0.5-0.7-1-0.7-1.7v-30.5c0-0.7,0.2-1.2,0.7-1.7s1-0.7,1.6-0.7
					c0.7,0,1.2,0.2,1.7,0.7s0.7,1,0.7,1.7v28.1h16.3c0.7,0,1.2,0.2,1.7,0.7s0.7,1,0.7,1.7s-0.2,1.2-0.7,1.7s-1,0.7-1.7,0.7
					L58.4,440.7L58.4,440.7z"/>
				<path d="M94.4,440.8c-2.4,0-4.6-0.5-6.4-1.6c-1.9-1.1-3.3-2.5-4.4-4.4c-1.1-1.9-1.6-4-1.6-6.5s0.5-4.6,1.6-6.5
					c1.1-1.9,2.5-3.3,4.4-4.4c1.9-1.1,4-1.6,6.4-1.6c2.4,0,4.5,0.5,6.4,1.6c1.9,1.1,3.3,2.5,4.4,4.4c1.1,1.9,1.6,4,1.6,6.5
					c0,2.4-0.5,4.6-1.6,6.5c-1.1,1.9-2.5,3.3-4.4,4.4C98.9,440.3,96.8,440.8,94.4,440.8z M94.4,436.8c1.6,0,2.9-0.4,4.1-1.1
					s2.1-1.7,2.8-3s1-2.7,1-4.4c0-1.6-0.3-3.1-1-4.4s-1.6-2.3-2.8-3c-1.2-0.7-2.6-1.1-4.1-1.1c-1.6,0-2.9,0.4-4.1,1.1
					s-2.1,1.7-2.8,3c-0.7,1.3-1,2.7-1,4.4c0,1.7,0.3,3.1,1,4.4s1.6,2.2,2.8,3C91.4,436.4,92.8,436.8,94.4,436.8z"/>
				<path d="M119.2,440.6c-0.9,0-1.7-0.5-2.2-1.5l-9.5-20.1c-0.2-0.5-0.3-1-0.1-1.5c0.2-0.5,0.6-0.9,1.1-1.1c0.5-0.3,1-0.3,1.6-0.1
					c0.5,0.2,0.9,0.5,1.2,1l8.9,19.2H118l8.8-19.2c0.3-0.5,0.7-0.9,1.2-1c0.6-0.2,1.1-0.1,1.7,0.1c0.5,0.2,0.9,0.6,1.1,1.1
					c0.2,0.5,0.1,1-0.1,1.5l-9.5,20.1C120.8,440.1,120.1,440.6,119.2,440.6z"/>
				<path d="M144.8,440.8c-2.5,0-4.7-0.5-6.6-1.6c-1.9-1.1-3.5-2.5-4.5-4.4c-1.1-1.9-1.6-4-1.6-6.5s0.5-4.6,1.6-6.5s2.5-3.3,4.3-4.4
					s3.9-1.6,6.3-1.6c2.3,0,4.3,0.5,6,1.6c1.7,1,3,2.5,3.8,4.3c0.9,1.8,1.3,3.9,1.3,6.3c0,0.6-0.2,1-0.6,1.4s-0.9,0.6-1.5,0.6h-18.1
					v-3.6h18l-1.8,1.3c0-1.5-0.3-2.8-0.9-4c-0.6-1.2-1.4-2.1-2.4-2.8s-2.3-1-3.8-1c-1.7,0-3.2,0.4-4.4,1.1s-2.1,1.8-2.8,3.1
					c-0.6,1.3-0.9,2.8-0.9,4.4c0,1.7,0.4,3.1,1.1,4.4c0.8,1.3,1.8,2.3,3.1,3.1c1.3,0.8,2.8,1.1,4.5,1.1c0.9,0,1.9-0.2,2.9-0.5
					s1.8-0.7,2.4-1.2c0.5-0.3,0.9-0.5,1.5-0.5c0.5,0,1,0.1,1.4,0.5c0.5,0.5,0.8,0.9,0.8,1.5c0,0.5-0.2,1-0.7,1.4
					c-1,0.8-2.3,1.5-3.8,2C147.7,440.6,146.2,440.8,144.8,440.8z"/>
				<path d="M174.5,440.7c-0.7,0-1.2-0.2-1.7-0.7s-0.7-1-0.7-1.7v-30.5c0-0.7,0.2-1.3,0.7-1.7s1-0.7,1.7-0.7h8.1
					c2.6,0,4.9,0.4,7,1.3s4,2.1,5.5,3.6c1.6,1.6,2.8,3.4,3.6,5.6c0.8,2.1,1.3,4.5,1.3,7.1s-0.4,4.9-1.3,7.1c-0.8,2.1-2,4-3.6,5.6
					s-3.4,2.8-5.5,3.6c-2.1,0.9-4.5,1.3-7,1.3h-8.1V440.7z M176.8,436.5h5.8c2.5,0,4.7-0.6,6.7-1.7c1.9-1.2,3.5-2.7,4.6-4.8
					c1.1-2,1.7-4.3,1.7-7c0-2.6-0.6-5-1.7-7c-1.1-2-2.6-3.6-4.6-4.7c-1.9-1.1-4.2-1.7-6.7-1.7h-5.8V436.5z"/>
				<path d="M208.3,412c-0.8,0-1.5-0.3-2.1-0.9s-0.9-1.3-0.9-2.1c0-0.8,0.3-1.5,0.9-2.1s1.3-0.9,2.1-0.9s1.5,0.3,2.1,0.9
					s0.9,1.3,0.9,2.1c0,0.8-0.3,1.5-0.9,2.1S209.2,412,208.3,412z M208.3,440.7c-0.7,0-1.2-0.2-1.6-0.7c-0.4-0.4-0.7-1-0.7-1.6v-20
					c0-0.7,0.2-1.2,0.7-1.7c0.4-0.4,1-0.6,1.6-0.6c0.7,0,1.2,0.2,1.7,0.6c0.4,0.4,0.6,1,0.6,1.7v20c0,0.7-0.2,1.2-0.6,1.6
					S209,440.7,208.3,440.7z"/>
				<path d="M226.2,440.6c-0.9,0-1.7-0.5-2.2-1.5l-9.5-20.1c-0.2-0.5-0.3-1-0.1-1.5s0.6-0.9,1.1-1.1c0.5-0.3,1-0.3,1.6-0.1
					c0.5,0.2,0.9,0.5,1.2,1l8.9,19.2H225l8.8-19.2c0.3-0.5,0.7-0.9,1.2-1c0.6-0.2,1.1-0.1,1.7,0.1c0.5,0.2,0.9,0.6,1.1,1.1
					c0.2,0.5,0.1,1-0.1,1.5l-9.5,20.1C227.8,440.1,227.1,440.6,226.2,440.6z"/>
				<path d="M251.8,440.8c-2.5,0-4.7-0.5-6.6-1.6c-1.9-1.1-3.5-2.5-4.5-4.4c-1.1-1.9-1.6-4-1.6-6.5s0.5-4.6,1.6-6.5s2.5-3.3,4.3-4.4
					s3.9-1.6,6.3-1.6c2.3,0,4.3,0.5,6,1.6c1.7,1,3,2.5,3.8,4.3c0.9,1.8,1.3,3.9,1.3,6.3c0,0.6-0.2,1-0.6,1.4s-0.9,0.6-1.5,0.6h-18.1
					v-3.6h18l-1.8,1.3c0-1.5-0.3-2.8-0.9-4s-1.4-2.1-2.4-2.8s-2.3-1-3.8-1c-1.7,0-3.2,0.4-4.4,1.1s-2.1,1.8-2.8,3.1
					c-0.6,1.3-0.9,2.8-0.9,4.4c0,1.7,0.4,3.1,1.1,4.4c0.8,1.3,1.8,2.3,3.1,3.1c1.3,0.8,2.8,1.1,4.5,1.1c0.9,0,1.9-0.2,2.9-0.5
					s1.8-0.7,2.4-1.2c0.5-0.3,0.9-0.5,1.5-0.5c0.5,0,1,0.1,1.4,0.5c0.5,0.5,0.8,0.9,0.8,1.5c0,0.5-0.2,1-0.7,1.4
					c-1,0.8-2.3,1.5-3.8,2C254.6,440.6,253.2,440.8,251.8,440.8z"/>
				<path d="M66.8,468.1c0,1-0.1,2.1-0.4,3.1c-0.2,1-0.6,2-1.2,2.8c-0.5,0.8-1.2,1.5-2,2.1c-0.8,0.5-1.8,0.8-3,0.8s-2.2-0.3-3.1-0.8
					c-0.8-0.5-1.5-1.2-2-2.1s-0.9-1.8-1.1-2.8s-0.3-2.1-0.3-3.1c0-1.1,0.1-2.1,0.3-3.2s0.6-2,1.1-2.8s1.2-1.5,2-2s1.9-0.8,3.1-0.8
					c1.2,0,2.2,0.3,3,0.8c0.8,0.5,1.5,1.2,2,2s0.9,1.8,1.2,2.8C66.7,466,66.8,467,66.8,468.1z M64.8,468.1c0-0.8-0.1-1.7-0.3-2.5
					c-0.2-0.8-0.4-1.6-0.8-2.3c-0.4-0.7-0.8-1.2-1.4-1.7c-0.6-0.4-1.3-0.6-2.1-0.6c-0.9,0-1.6,0.2-2.2,0.6c-0.6,0.4-1,1-1.4,1.7
					c-0.3,0.7-0.6,1.4-0.7,2.3c-0.1,0.8-0.2,1.7-0.2,2.5s0.1,1.6,0.2,2.4c0.1,0.8,0.4,1.6,0.7,2.3c0.3,0.7,0.8,1.3,1.4,1.7
					c0.6,0.4,1.3,0.7,2.2,0.7c0.8,0,1.6-0.2,2.1-0.7c0.6-0.4,1.1-1,1.4-1.7c0.4-0.7,0.6-1.5,0.8-2.3
					C64.8,469.7,64.8,468.9,64.8,468.1z M72.4,483h-1.1c-0.3,0-0.4-0.1-0.4-0.4V458c0-0.3,0.1-0.4,0.4-0.4h1.1
					c0.3,0,0.4,0.1,0.4,0.4v10h3.8c0.1,0,0.2,0,0.3,0.1s0.1,0.2,0.1,0.3v0.9c0,0.1,0,0.2-0.1,0.2c-0.1,0.1-0.2,0.1-0.3,0.1h-3.8
					v12.9C72.8,482.9,72.7,483,72.4,483z"/>
				<path d="M93.2,468.1c0,1-0.1,2.1-0.4,3.1c-0.2,1-0.6,2-1.2,2.8c-0.5,0.8-1.2,1.5-2,2.1c-0.8,0.5-1.8,0.8-3,0.8s-2.2-0.3-3.1-0.8
					c-0.8-0.5-1.5-1.2-2-2.1s-0.9-1.8-1.1-2.8s-0.3-2.1-0.3-3.1c0-1.1,0.1-2.1,0.3-3.2s0.6-2,1.1-2.8s1.2-1.5,2-2s1.9-0.8,3.1-0.8
					s2.2,0.3,3,0.8s1.5,1.2,2,2s0.9,1.8,1.2,2.8C93,466,93.2,467,93.2,468.1z M91.2,468.1c0-0.8-0.1-1.7-0.3-2.6s-0.4-1.6-0.8-2.3
					c-0.4-0.7-0.8-1.2-1.4-1.7c-0.6-0.5-1.3-0.6-2.1-0.6c-0.9,0-1.6,0.2-2.2,0.6c-0.6,0.4-1,1-1.4,1.7c-0.4,0.7-0.6,1.5-0.7,2.3
					c-0.1,0.9-0.2,1.7-0.2,2.6c0,0.8,0.1,1.6,0.2,2.5c0.1,0.9,0.4,1.6,0.7,2.3c0.3,0.7,0.8,1.3,1.4,1.7c0.6,0.4,1.3,0.7,2.2,0.7
					c0.8,0,1.6-0.2,2.1-0.7s1.1-1,1.4-1.7c0.4-0.7,0.6-1.5,0.8-2.3C91.1,469.7,91.2,468.9,91.2,468.1z M99.2,483h-1.1
					c-0.3,0-0.4-0.1-0.4-0.4V458c0-0.3,0.1-0.4,0.4-0.4h1.1c0.3,0,0.4,0.1,0.4,0.4v24.6C99.6,482.9,99.5,483,99.2,483z"/>
				<path d="M128.2,477.1c0.1,0.1,0.1,0.2,0.1,0.3v0.9c0,0.1,0,0.2-0.1,0.2c-0.1,0.1-0.2,0.1-0.3,0.1h-23.4c-0.1,0-0.2,0-0.3-0.1
					c-0.1-0.1-0.1-0.2-0.1-0.2v-0.9c0-0.1,0-0.2,0.1-0.3c0.1-0.1,0.2-0.1,0.3-0.1h23.4C128,477,128.1,477,128.2,477.1z M109.7,471.6
					c-0.4,0-0.8,0-1.1-0.1s-0.5-0.2-0.6-0.3c-0.1-0.2-0.2-0.4-0.3-0.6s-0.1-0.6-0.1-0.9v-10.6c0-0.1,0-0.2,0.1-0.2
					c0.1,0,0.2-0.1,0.2-0.1h1.2c0.1,0,0.2,0,0.2,0.1c0.1,0.1,0.1,0.1,0.1,0.2v4.5h13.2v-4.5c0-0.1,0-0.2,0.1-0.2
					c0.1-0.1,0.1-0.1,0.2-0.1h1.2c0.1,0,0.2,0,0.2,0.1c0.1,0.1,0.1,0.1,0.1,0.2v10.8c0,0.7-0.1,1.2-0.4,1.4
					c-0.3,0.2-0.8,0.4-1.7,0.4L109.7,471.6L109.7,471.6z M109.6,465.2v4.1c0,0.3,0,0.5,0.1,0.5c0.1,0,0.3,0.1,0.5,0.1h11.9
					c0.3,0,0.4,0,0.5-0.1c0.1-0.1,0.1-0.3,0.1-0.5v-4.1H109.6z"/>
				<path d="M142.6,485.6c-0.3,0-0.5-0.1-0.8-0.2s-0.4-0.4-0.6-0.7c-1-2.2-1.8-4.4-2.3-6.5s-0.8-4.3-0.8-6.5s0.3-4.4,0.8-6.5
					c0.5-2.2,1.3-4.3,2.3-6.4c0.3-0.6,0.7-1,1.3-1c0.4,0,0.7,0.1,1,0.4s0.4,0.6,0.4,1c0,0.3-0.1,0.5-0.2,0.7
					c-1.9,3.9-2.9,7.8-2.9,11.8c0,1.9,0.3,3.9,0.8,5.9s1.2,4,2.2,5.9c0.1,0.2,0.2,0.4,0.2,0.7c0,0.4-0.1,0.7-0.4,1
					S143,485.6,142.6,485.6z"/>
				<path d="M148.9,479.2c-0.4,0-0.7-0.1-1-0.4s-0.4-0.6-0.4-1v-18.6c0-0.4,0.1-0.8,0.4-1c0.3-0.3,0.6-0.4,1-0.4s0.8,0.1,1,0.4
					c0.3,0.3,0.4,0.6,0.4,1v18.6c0,0.4-0.1,0.7-0.4,1C149.7,479,149.3,479.2,148.9,479.2z"/>
				<path d="M163.2,479.2c-0.6,0-1-0.3-1.3-0.9l-8.1-18.4c-0.3-0.6-0.3-1.1-0.1-1.5s0.6-0.6,1.2-0.6c0.6,0,1.1,0.3,1.3,0.9l7.1,17
					H163l7.2-17c0.1-0.3,0.3-0.6,0.5-0.7s0.5-0.2,0.8-0.2c0.5,0,0.9,0.2,1.1,0.6c0.2,0.4,0.2,0.8,0,1.3l-8.1,18.7
					c-0.1,0.3-0.3,0.5-0.5,0.7C163.8,479.1,163.5,479.2,163.2,479.2z"/>
				<path d="M177.5,479.2c-0.4,0-0.7-0.1-1-0.4s-0.4-0.6-0.4-1v-18.6c0-0.4,0.1-0.8,0.4-1c0.3-0.3,0.6-0.4,1-0.4h12.4
					c0.4,0,0.8,0.1,1,0.4c0.3,0.2,0.4,0.6,0.4,1s-0.1,0.7-0.4,0.9c-0.3,0.2-0.6,0.4-1,0.4h-11v6.7h7.9c0.4,0,0.8,0.1,1,0.4
					c0.3,0.2,0.4,0.6,0.4,0.9s-0.1,0.7-0.4,0.9c-0.3,0.2-0.6,0.4-1,0.4h-7.9v6.9h11c0.4,0,0.8,0.1,1,0.4c0.3,0.2,0.4,0.5,0.4,0.9
					s-0.1,0.7-0.4,1c-0.3,0.2-0.6,0.4-1,0.4h-12.4V479.2z"/>
				<path d="M194.7,485.6c-0.4,0-0.7-0.1-1-0.4s-0.4-0.6-0.4-1c0-0.2,0.1-0.5,0.2-0.7c0.9-1.9,1.7-3.9,2.2-5.9s0.8-4,0.8-5.9
					c0-3.9-1-7.9-2.9-11.8c-0.1-0.2-0.2-0.4-0.2-0.7c0-0.4,0.1-0.7,0.4-1s0.6-0.4,1-0.4c0.6,0,1,0.3,1.3,1c1,2.1,1.8,4.3,2.3,6.4
					c0.5,2.2,0.8,4.3,0.8,6.5s-0.3,4.4-0.8,6.5c-0.5,2.2-1.3,4.3-2.3,6.5c-0.2,0.3-0.4,0.6-0.6,0.7
					C195.3,485.5,195,485.6,194.7,485.6z"/>
			</g>
			<g>
				<g>
					<g>
						
							<image style="overflow:visible;opacity:0.1;enable-background:new    ;" width="316" height="139" xlink:href="19CA7DB437D85202.png"  transform="matrix(1 0 0 1 41.25 1100.5)">
						</image>
						<g>
							<path class="st0" d="M284.8,1220.4H107.9c-29.5,0-53.4-23.9-53.4-53.4l0,0c0-29.5,23.9-53.4,53.4-53.4h176.9
								c29.5,0,53.4,23.9,53.4,53.4l0,0C338.2,1196.5,314.3,1220.4,284.8,1220.4z"/>
							<path class="st19" d="M284.8,1220.4H107.9c-29.5,0-53.4-23.9-53.4-53.4l0,0c0-29.5,23.9-53.4,53.4-53.4h176.9
								c29.5,0,53.4,23.9,53.4,53.4l0,0C338.2,1196.5,314.3,1220.4,284.8,1220.4z"/>
						</g>
					</g>
					<g>
						<path class="st20" d="M179.3,1167.1c0.1,0.1,0.2,0.2,0.2,0.3v1.1c0,0.1-0.1,0.2-0.2,0.3c-0.1,0.1-0.2,0.1-0.3,0.1h-28.4
							c-0.1,0-0.2,0-0.3-0.1s-0.2-0.2-0.2-0.3v-1.1c0-0.1,0-0.2,0.2-0.3c0.1-0.1,0.2-0.1,0.3-0.1h13v-4c-1,0-2-0.2-3.1-0.4
							c-1.1-0.2-2.1-0.5-3-1c-0.9-0.4-1.6-1-2.2-1.7c-0.6-0.7-0.9-1.5-0.9-2.5c0-1.1,0.4-2,1.1-2.7c0.7-0.7,1.6-1.3,2.6-1.7
							s2.2-0.7,3.4-0.9c1.2-0.2,2.3-0.3,3.4-0.3c1,0,2.2,0.1,3.4,0.3c1.2,0.2,2.3,0.5,3.4,1c1,0.4,1.9,1,2.6,1.7
							c0.7,0.7,1,1.6,1,2.6c0,0.9-0.3,1.8-0.9,2.4c-0.6,0.7-1.3,1.2-2.2,1.7c-0.9,0.4-1.9,0.8-3,1s-2.1,0.4-3.2,0.4v4h13.1
							C179.1,1167,179.2,1167,179.3,1167.1z M154.2,1172.3c0.1-0.1,0.2-0.1,0.3-0.1h17.7c1,0,1.7,0.2,2.1,0.6c0.3,0.4,0.5,1,0.5,1.9
							v7.3c0,0.3-0.2,0.5-0.5,0.5h-1.4c-0.3,0-0.5-0.2-0.5-0.5v-7.1c0-0.3-0.1-0.5-0.2-0.6c-0.1-0.1-0.3-0.1-0.6-0.1h-17.2
							c-0.1,0-0.2,0-0.3-0.1s-0.2-0.2-0.2-0.3v-1.2C154,1172.4,154.1,1172.3,154.2,1172.3z M164.8,1153.9c-0.7,0-1.5,0-2.4,0.1
							s-1.8,0.3-2.6,0.5s-1.5,0.6-2.1,1.1s-0.9,1.1-0.9,1.8c0,0.7,0.3,1.3,0.9,1.8c0.6,0.5,1.3,0.8,2.1,1.1c0.8,0.3,1.7,0.4,2.6,0.5
							c0.9,0.1,1.7,0.1,2.4,0.1s1.5,0,2.4-0.1s1.8-0.3,2.6-0.5c0.8-0.3,1.5-0.6,2.1-1.1s0.9-1.1,0.9-1.8c0-0.7-0.3-1.3-0.9-1.8
							c-0.6-0.5-1.3-0.8-2.1-1.1s-1.7-0.4-2.6-0.5C166.2,1154,165.4,1153.9,164.8,1153.9z"/>
						<path class="st20" d="M192.9,1153.2c0,2.1-0.3,4.1-0.8,5.8c0.3,0.8,0.6,1.7,1.1,2.5s1,1.6,1.6,2.4s1.3,1.4,2,2
							s1.4,1.1,2.2,1.5c0.1,0.1,0.2,0.2,0.2,0.3s0,0.2-0.1,0.3l-0.7,1.1c-0.1,0.1-0.2,0.2-0.3,0.2s-0.2,0-0.4-0.1
							c-0.6-0.3-1.2-0.7-1.8-1.3c-0.6-0.5-1.2-1.1-1.8-1.8c-0.6-0.7-1.1-1.4-1.7-2.1c-0.5-0.7-1-1.4-1.4-2.1c-1.6,3.3-3.9,5.9-7,7.9
							c-0.1,0.1-0.2,0.1-0.4,0.1c-0.1,0-0.2,0-0.3-0.1l-0.8-1.1c-0.1-0.1-0.1-0.2,0-0.3s0.1-0.2,0.2-0.3c1.2-0.7,2.3-1.6,3.3-2.7
							s1.8-2.3,2.5-3.6c0.7-1.3,1.2-2.7,1.6-4.2c0.4-1.5,0.5-3,0.5-4.5c0-0.4,0.1-0.5,0.4-0.5l1.6,0.1
							C192.8,1152.7,192.9,1152.8,192.9,1153.2z M208.2,1181.4c-0.1,0.1-0.2,0.1-0.3,0.1h-16.7c-1,0-1.7-0.2-2.1-0.6s-0.5-1-0.5-1.9
							v-6.5c0-0.3,0.2-0.5,0.5-0.5h1.4c0.3,0,0.5,0.2,0.5,0.5v6.3c0,0.3,0.1,0.5,0.2,0.6c0.1,0.1,0.3,0.1,0.6,0.1H208
							c0.1,0,0.2,0,0.3,0.1s0.2,0.2,0.2,0.3v1.2C208.3,1181.2,208.3,1181.3,208.2,1181.4z M205,1157.3v-5.2c0-0.3,0.2-0.5,0.5-0.5
							h1.4c0.3,0,0.5,0.2,0.5,0.5v21.1c0,0.3-0.2,0.5-0.5,0.5h-1.4c-0.3,0-0.5-0.2-0.5-0.5v-8.1h-6.8c-0.3,0-0.4-0.1-0.4-0.4v-1.2
							c0-0.3,0.1-0.4,0.4-0.4h6.8v-3.9h-6.8c-0.3,0-0.4-0.1-0.4-0.4v-1.2c0-0.3,0.1-0.4,0.4-0.4L205,1157.3L205,1157.3z"/>
						<path class="st20" d="M228.8,1156.5c-0.1,1.9-0.5,3.8-1.1,5.6s-1.5,3.6-2.7,5.2c-1.1,1.7-2.5,3.2-4.1,4.6s-3.4,2.7-5.5,3.7
							c-0.3,0.2-0.5,0.1-0.6-0.1l-0.7-1.2c-0.2-0.3-0.1-0.5,0.1-0.6c1.9-1,3.6-2.1,5-3.3c1.5-1.2,2.7-2.6,3.7-4s1.9-3,2.5-4.6
							s1-3.3,1.1-5c0-0.3,0-0.6-0.1-0.7s-0.4-0.2-0.7-0.2h-10.4c-0.3,0-0.4-0.1-0.4-0.4v-1.2c0-0.3,0.1-0.4,0.4-0.4h11
							c1,0,1.7,0.2,2.1,0.6C228.7,1155.1,228.8,1155.7,228.8,1156.5z M237.1,1182.1h-1.4c-0.3,0-0.5-0.2-0.5-0.5v-29.5
							c0-0.3,0.2-0.5,0.5-0.5h1.4c0.3,0,0.5,0.2,0.5,0.5v11.7h4.6c0.1,0,0.2,0,0.4,0.1c0.1,0.1,0.1,0.2,0.1,0.3v1.1
							c0,0.1,0,0.2-0.1,0.3c-0.1,0.1-0.2,0.1-0.4,0.1h-4.6v15.8C237.6,1181.9,237.4,1182.1,237.1,1182.1z"/>
					</g>
				</g>
				<g>
					<g>
						
							<image style="overflow:visible;opacity:0.1;enable-background:new    ;" width="316" height="139" xlink:href="19CA7DB437D85203.png"  transform="matrix(1 0 0 1 351.25 1100.5)">
						</image>
						<g>
							<path class="st8" d="M594.5,1220.4H417.6c-29.5,0-53.4-23.9-53.4-53.4l0,0c0-29.5,23.9-53.4,53.4-53.4h176.9
								c29.5,0,53.4,23.9,53.4,53.4l0,0C647.9,1196.5,624,1220.4,594.5,1220.4z"/>
							<path class="st15" d="M594.5,1220.4H417.6c-29.5,0-53.4-23.9-53.4-53.4l0,0c0-29.5,23.9-53.4,53.4-53.4h176.9
								c29.5,0,53.4,23.9,53.4,53.4l0,0C647.9,1196.5,624,1220.4,594.5,1220.4z"/>
						</g>
					</g>
					<g>
						<path d="M448.4,1173.1c-0.1,0.1-0.2,0.2-0.3,0.2c-0.1,0-0.2,0-0.4-0.2c-0.5-0.4-1.1-0.9-1.7-1.4s-1.2-1.1-1.8-1.6
							s-1.1-1.2-1.7-1.8s-1.1-1.2-1.5-1.9c-1.1,1.4-2.4,2.7-3.8,4s-3.1,2.5-4.9,3.8c-0.1,0.1-0.2,0.1-0.3,0.1s-0.2,0-0.3-0.1l-0.8-1
							c-0.1-0.1-0.1-0.2-0.1-0.3c0-0.1,0.1-0.2,0.2-0.3c3.6-2.5,6.3-5,8.3-7.6s3.4-5.2,4.2-8c0.1-0.3,0.1-0.5,0-0.7
							c-0.1-0.1-0.3-0.2-0.6-0.2h-10.1c-0.3,0-0.4-0.1-0.4-0.4v-1.2c0-0.3,0.2-0.4,0.5-0.4h11c1.2,0,1.9,0.2,2.2,0.6
							c0.3,0.4,0.3,1.1,0,2.1c-0.9,2.8-2.1,5.4-3.7,7.8c0.5,0.7,1.1,1.4,1.6,2.1c0.6,0.7,1.2,1.3,1.7,1.9c0.6,0.6,1.2,1.2,1.7,1.6
							c0.6,0.5,1.1,0.9,1.6,1.2c0.1,0.1,0.2,0.2,0.2,0.3s0,0.2-0.1,0.3L448.4,1173.1z M455.2,1182.2h-1.4c-0.3,0-0.5-0.2-0.5-0.5
							v-17.2H447c-0.3,0-0.4-0.1-0.4-0.4v-1.2c0-0.3,0.1-0.4,0.4-0.4h6.3v-10.3c0-0.3,0.2-0.5,0.5-0.5h1.4c0.3,0,0.5,0.2,0.5,0.5
							v29.5C455.6,1182,455.5,1182.2,455.2,1182.2z"/>
						<path d="M477.2,1156.1c-0.3,0.9-0.7,1.7-1.3,2.6c-0.5,0.9-1.2,1.7-1.9,2.5c0.8,0.8,1.7,1.6,2.9,2.3c1.1,0.7,2.4,1.4,3.7,1.9
							c0.1,0.1,0.2,0.2,0.2,0.3c0,0.1,0,0.2-0.1,0.3l-0.7,1.2c-0.1,0.1-0.1,0.2-0.2,0.2s-0.2,0-0.4-0.1c-0.5-0.2-1-0.5-1.6-0.8
							s-1.2-0.7-1.8-1.1c-0.6-0.4-1.2-0.8-1.8-1.3c-0.6-0.5-1.1-0.9-1.7-1.5c-1.3,1.3-2.7,2.4-4.3,3.4s-3.1,1.9-4.7,2.6
							c-0.1,0-0.2,0.1-0.3,0.1s-0.2,0-0.3-0.1l-0.7-1.2c-0.1-0.1-0.1-0.2,0-0.3s0.1-0.2,0.3-0.2c2.9-1.4,5.3-2.9,7.3-4.7
							c2-1.8,3.6-3.8,4.7-6.1c0.2-0.3,0.2-0.5,0.1-0.7c-0.1-0.1-0.3-0.2-0.6-0.2h-9.8c-0.3,0-0.4-0.1-0.4-0.4v-1.2
							c0-0.3,0.2-0.4,0.5-0.4H475c1.2,0,1.9,0.2,2.2,0.6S477.5,1155.1,477.2,1156.1z M466.6,1171.4c0.1-0.1,0.2-0.1,0.3-0.1h16.4
							c0.5,0,1,0,1.3,0.1s0.6,0.2,0.8,0.4c0.2,0.2,0.3,0.4,0.4,0.8c0.1,0.3,0.1,0.7,0.1,1.3v8.1c0,0.3-0.2,0.5-0.5,0.5H484
							c-0.3,0-0.5-0.2-0.5-0.5v-7.9c0-0.3,0-0.5-0.2-0.6c-0.1-0.1-0.3-0.1-0.6-0.1h-15.9c-0.1,0-0.2,0-0.3-0.1s-0.2-0.2-0.2-0.3
							v-1.2C466.4,1171.5,466.5,1171.4,466.6,1171.4z M485.4,1169.4H484c-0.3,0-0.5-0.2-0.5-0.5v-16.7c0-0.3,0.2-0.5,0.5-0.5h1.4
							c0.3,0,0.5,0.2,0.5,0.5v7.9h4.6c0.1,0,0.3,0,0.4,0.1s0.1,0.2,0.1,0.3v1.1c0,0.1,0,0.2-0.1,0.3c-0.1,0.1-0.2,0.1-0.4,0.1h-4.6
							v6.9C485.9,1169.2,485.7,1169.4,485.4,1169.4z"/>
						<path d="M495.8,1153.9c0.1-0.1,0.2-0.1,0.3-0.1h11.5c0.5,0,1,0.1,1.3,0.2s0.6,0.3,0.8,0.5c0.2,0.2,0.3,0.5,0.4,0.8
							s0.1,0.7,0.1,1.2c0,0.6,0,1.2,0,1.9c0,0.7-0.1,1.4-0.2,2.1s-0.2,1.4-0.3,2.1c-0.1,0.7-0.2,1.3-0.4,1.9
							c0.9-0.1,1.8-0.2,2.6-0.3c0.8-0.1,1.5-0.2,2.1-0.3c0.3-0.1,0.5,0,0.5,0.3l0.2,1.1c0,0.3-0.1,0.4-0.4,0.5
							c-1.4,0.2-3,0.5-4.8,0.7s-3.5,0.4-5.2,0.5v6.6c0,0.1,0,0.2-0.1,0.3c-0.1,0.1-0.2,0.1-0.3,0.1h-1.4c-0.1,0-0.2,0-0.3-0.1
							s-0.1-0.2-0.1-0.3v-6.5c-0.7,0-1.4,0.1-2.2,0.1c-0.8,0-1.5,0-2.3,0.1c-0.7,0-1.4,0-2.1,0s-1.2,0-1.7,0c-0.1,0-0.3,0-0.4-0.1
							s-0.2-0.2-0.2-0.3v-1.1c0-0.1,0.1-0.2,0.2-0.3c0.1-0.1,0.2-0.1,0.4-0.1c0.6,0,1.4,0,2.3,0s1.8,0,2.7,0c0.9,0,1.8,0,2.7-0.1
							s1.6-0.1,2.2-0.1c0.5,0,1.1-0.1,1.6-0.1c0.6,0,1.2-0.1,1.8-0.1c0.1-0.5,0.3-1.2,0.4-1.9c0.1-0.7,0.3-1.5,0.4-2.2
							s0.2-1.5,0.2-2.2s0.1-1.3,0-1.8c0-0.3-0.1-0.5-0.2-0.6s-0.3-0.1-0.6-0.1h-11c-0.1,0-0.2,0-0.3-0.1s-0.2-0.2-0.2-0.3v-1.2
							C495.7,1154,495.7,1153.9,495.8,1153.9z M519.1,1181.5c-0.1,0.1-0.2,0.1-0.3,0.1h-18.2c-1,0-1.7-0.2-2.1-0.6
							c-0.3-0.4-0.5-1-0.5-1.9v-4.8c0-0.3,0.2-0.5,0.5-0.5h1.4c0.3,0,0.5,0.2,0.5,0.5v4.7c0,0.3,0,0.5,0.2,0.6s0.3,0.1,0.6,0.1h17.6
							c0.1,0,0.2,0,0.3,0.1s0.2,0.2,0.2,0.3v1.2C519.2,1181.3,519.2,1181.4,519.1,1181.5z M516.1,1168.9v-16.7
							c0-0.3,0.2-0.5,0.5-0.5h1.4c0.3,0,0.5,0.2,0.5,0.5v22.8c0,0.3-0.2,0.5-0.5,0.5h-1.4c-0.3,0-0.5-0.2-0.5-0.5v-4.1h-6.7
							c-0.3,0-0.4-0.1-0.4-0.4v-1.2c0-0.3,0.1-0.4,0.4-0.4L516.1,1168.9L516.1,1168.9z"/>
						<path d="M537.9,1182c-0.1,0-0.2,0-0.3-0.1s-0.1-0.2-0.1-0.3v-10.8h-13c-0.1,0-0.2,0-0.4-0.1s-0.2-0.2-0.2-0.3v-1.1
							c0-0.1,0-0.2,0.2-0.3s0.2-0.1,0.4-0.1H553c0.1,0,0.2,0,0.3,0.1s0.2,0.2,0.2,0.3v1.1c0,0.1-0.1,0.2-0.2,0.3
							c-0.1,0.1-0.2,0.1-0.3,0.1h-13.1v10.8c0,0.1,0,0.2-0.1,0.3s-0.2,0.1-0.3,0.1H537.9z M539.8,1152.5c0,0.3-0.1,0.6-0.2,0.8
							c-0.1,0.3-0.1,0.5-0.2,0.8c0.1,0.2,0.1,0.5,0.2,0.7c0.1,0.2,0.2,0.4,0.3,0.6c0.4,0.7,0.9,1.5,1.7,2.2c0.7,0.7,1.6,1.4,2.5,2.1
							c1,0.6,2,1.2,3.1,1.7s2.3,0.9,3.4,1.2c0.1,0,0.2,0.1,0.3,0.3s0,0.3,0,0.4l-0.5,1.1c-0.1,0.1-0.1,0.2-0.2,0.2
							c-0.1,0-0.2,0-0.5,0c-1.2-0.3-2.3-0.7-3.5-1.3c-1.2-0.5-2.2-1.2-3.2-1.9c-1-0.7-1.9-1.5-2.7-2.3s-1.5-1.6-2-2.5
							c-1,1.7-2.3,3.3-4.1,4.6s-4,2.6-6.7,3.6c-0.4,0.1-0.6,0.1-0.7-0.1l-0.6-1.2c0-0.1,0-0.2,0-0.4s0.1-0.2,0.3-0.3
							c1.4-0.5,2.8-1.1,4.1-1.9s2.5-1.7,3.5-2.7s1.8-2,2.4-3c0.6-1.1,1-2.1,1-3.1c0-0.3,0.2-0.4,0.4-0.4l1.5,0.2
							c0.1,0,0.2,0.1,0.3,0.1C539.8,1152.2,539.9,1152.3,539.8,1152.5z"/>
						<path d="M573.1,1160.5c0,1.1-0.2,2.1-0.6,3c-0.4,0.9-1,1.7-1.7,2.4s-1.6,1.2-2.5,1.6c-1,0.4-2,0.6-3.2,0.6
							c-1.1,0-2.1-0.2-3.1-0.5c-1-0.4-1.8-0.9-2.5-1.5s-1.3-1.5-1.7-2.4s-0.6-1.9-0.6-3c0-1.2,0.2-2.2,0.6-3.2
							c0.4-0.9,1-1.7,1.7-2.4c0.7-0.6,1.5-1.1,2.5-1.5c1-0.3,2-0.5,3.1-0.5c1,0,2,0.2,3,0.5s1.8,0.8,2.5,1.5
							c0.7,0.6,1.3,1.4,1.8,2.4C572.8,1158.3,573.1,1159.4,573.1,1160.5z M570.7,1160.5c0-0.9-0.2-1.7-0.5-2.3s-0.7-1.2-1.2-1.7
							s-1.1-0.8-1.8-1s-1.4-0.3-2.2-0.3s-1.5,0.1-2.2,0.3c-0.7,0.2-1.2,0.6-1.7,1s-0.9,1-1.2,1.7s-0.4,1.4-0.4,2.3
							c0,0.8,0.1,1.6,0.4,2.2s0.6,1.2,1.1,1.7s1.1,0.9,1.7,1.1c0.7,0.3,1.4,0.4,2.2,0.4s1.5-0.1,2.2-0.4s1.3-0.6,1.8-1.1
							s0.9-1.1,1.2-1.7S570.7,1161.4,570.7,1160.5z M561.9,1171.2c0.1-0.1,0.2-0.1,0.3-0.1h16.4c1,0,1.7,0.2,2.1,0.6s0.5,1,0.5,1.9
							v8.2c0,0.3-0.2,0.5-0.5,0.5h-1.4c-0.3,0-0.5-0.2-0.5-0.5v-8c0-0.3,0-0.5-0.2-0.6c-0.1-0.1-0.3-0.1-0.6-0.1h-15.9
							c-0.1,0-0.2,0-0.3-0.1s-0.2-0.2-0.2-0.3v-1.2C561.8,1171.4,561.8,1171.3,561.9,1171.2z M580.8,1169.2h-1.4
							c-0.3,0-0.5-0.2-0.5-0.5v-16.6c0-0.3,0.2-0.5,0.5-0.5h1.4c0.3,0,0.5,0.2,0.5,0.5v16.6C581.2,1169.1,581.1,1169.2,580.8,1169.2
							z"/>
					</g>
				</g>
				<g>
					<g>
						
							<image style="overflow:visible;opacity:0.1;enable-background:new    ;" width="626" height="139" xlink:href="19CA7DB437D85204.png"  transform="matrix(1 0 0 1 41.25 1234.5)">
						</image>
						<g>
							<path class="st21" d="M594.5,1354.3H107.9c-29.5,0-53.4-23.9-53.4-53.4l0,0c0-29.5,23.9-53.4,53.4-53.4h486.6
								c29.5,0,53.4,23.9,53.4,53.4l0,0C647.9,1330.3,624,1354.3,594.5,1354.3z"/>
							<path class="st15" d="M594.5,1354.3H107.9c-29.5,0-53.4-23.9-53.4-53.4l0,0c0-29.5,23.9-53.4,53.4-53.4h486.6
								c29.5,0,53.4,23.9,53.4,53.4l0,0C647.9,1330.3,624,1354.3,594.5,1354.3z"/>
						</g>
					</g>
					<g>
						<path d="M305.1,1315.8c-0.1,0-0.2,0-0.3-0.1c-0.1-0.1-0.1-0.2-0.1-0.3v-10.7h-13c-0.1,0-0.2,0-0.4-0.1
							c-0.1-0.1-0.2-0.2-0.2-0.3v-1.1c0-0.1,0-0.2,0.2-0.3c0.1-0.1,0.2-0.1,0.4-0.1h28.4c0.1,0,0.2,0,0.3,0.1
							c0.1,0.1,0.2,0.2,0.2,0.3v1.1c0,0.1-0.1,0.2-0.2,0.3c-0.1,0.1-0.2,0.1-0.3,0.1H307v10.7c0,0.1,0,0.2-0.1,0.3s-0.2,0.1-0.3,0.1
							H305.1z M317.7,1298.3c-0.1,0.2-0.3,0.3-0.6,0.2c-1.7-0.4-3.5-0.9-5.4-1.6s-3.6-1.4-5.4-2.3c-1.6,0.8-3.3,1.6-5.2,2.3
							c-1.9,0.7-3.9,1.4-6,1.9c-0.3,0.1-0.5,0-0.6-0.3l-0.4-1.1c-0.1-0.3,0-0.5,0.3-0.6c1.6-0.4,3.2-0.9,4.8-1.5s3.1-1.2,4.5-1.9
							s2.8-1.4,4.1-2.1c1.3-0.7,2.4-1.5,3.4-2.2c0.3-0.2,0.4-0.4,0.4-0.5c0-0.2-0.2-0.2-0.6-0.2h-14.4c-0.3,0-0.4-0.1-0.4-0.4v-1.2
							c0-0.3,0.1-0.4,0.4-0.4h15.3c0.9,0,1.6,0.1,2.1,0.3s0.8,0.4,1,0.7c0.1,0.3,0.1,0.7-0.1,1.1s-0.5,0.8-1,1.3
							c-1.5,1.3-3.2,2.5-5.2,3.7c1.4,0.6,2.9,1.2,4.6,1.7c1.7,0.6,3.3,1,4.9,1.4c0.2,0,0.3,0.1,0.3,0.2s0,0.2-0.1,0.3L317.7,1298.3z
							"/>
						<path d="M336.8,1309.8c-0.1,0-0.2,0-0.3-0.1c-0.1-0.1-0.1-0.2-0.1-0.3v-6.7h-13.3c-0.1,0-0.2,0-0.4-0.1s-0.2-0.2-0.2-0.3v-1.1
							c0-0.1,0-0.2,0.2-0.3c0.1-0.1,0.2-0.1,0.4-0.1h28.4c0.1,0,0.2,0,0.3,0.1c0.1,0.1,0.2,0.2,0.2,0.3v1.1c0,0.1-0.1,0.2-0.2,0.3
							c-0.1,0.1-0.2,0.1-0.3,0.1h-12.8v6.7c0,0.1,0,0.2-0.1,0.3c-0.1,0.1-0.2,0.1-0.3,0.1H336.8z M348.2,1315.4
							c-0.1,0.1-0.2,0.1-0.3,0.1h-18.4c-1,0-1.7-0.2-2.1-0.6c-0.3-0.4-0.5-1.1-0.5-2v-6.6c0-0.3,0.2-0.5,0.5-0.5h1.4
							c0.3,0,0.5,0.2,0.5,0.5v6.5c0,0.3,0,0.5,0.2,0.6s0.3,0.1,0.6,0.1H348c0.1,0,0.2,0,0.3,0.1c0.1,0.1,0.2,0.2,0.2,0.3v1.2
							C348.3,1315.2,348.3,1315.3,348.2,1315.4z M327.3,1288.9c0-0.9,0.2-1.5,0.5-1.9c0.4-0.3,1-0.5,2-0.5h14.8c0.5,0,1,0,1.3,0.1
							s0.6,0.2,0.8,0.4s0.3,0.4,0.4,0.7c0.1,0.3,0.1,0.7,0.1,1.2v6.1c0,0.9-0.2,1.5-0.5,1.9c-0.4,0.3-1,0.5-2,0.5h-14.8
							c-0.5,0-1,0-1.3-0.1s-0.6-0.2-0.8-0.4c-0.2-0.2-0.3-0.4-0.4-0.7c-0.1-0.3-0.1-0.7-0.1-1.1V1288.9z M330.4,1288.6
							c-0.3,0-0.5,0.1-0.6,0.2s-0.2,0.3-0.2,0.7v5.1c0,0.3,0.1,0.6,0.2,0.7s0.3,0.2,0.6,0.2H344c0.3,0,0.5-0.1,0.6-0.2
							s0.2-0.3,0.2-0.7v-5.1c0-0.3-0.1-0.6-0.2-0.7s-0.3-0.2-0.6-0.2H330.4z"/>
						<path d="M373.5,1294.7h-18.4c-0.1,0-0.2,0-0.3-0.1c-0.1-0.1-0.2-0.2-0.2-0.3v-1.1c0-0.1,0-0.2,0.2-0.3
							c0.1-0.1,0.2-0.1,0.3-0.1h18.4c0.3,0,0.5,0.1,0.5,0.4v1.1C374,1294.6,373.8,1294.7,373.5,1294.7z M371.5,1303.5
							c0,0.9-0.2,1.7-0.6,2.5s-0.9,1.4-1.5,2s-1.4,1-2.3,1.4s-1.8,0.5-2.9,0.5c-1,0-2-0.2-2.9-0.5s-1.6-0.8-2.3-1.4
							c-0.6-0.6-1.2-1.2-1.5-2c-0.4-0.8-0.6-1.6-0.6-2.5s0.2-1.8,0.6-2.6c0.4-0.8,0.9-1.5,1.5-2s1.4-1,2.3-1.4
							c0.9-0.3,1.8-0.5,2.9-0.5c1,0,2,0.2,2.9,0.5s1.7,0.8,2.3,1.4c0.6,0.6,1.2,1.3,1.5,2C371.3,1301.8,371.5,1302.6,371.5,1303.5z
							 M368.6,1289.1h-9.2c-0.1,0-0.2,0-0.3-0.1c-0.1-0.1-0.2-0.2-0.2-0.3v-1.1c0-0.1,0-0.2,0.1-0.3c0.1-0.1,0.2-0.1,0.3-0.1h9.2
							c0.3,0,0.5,0.2,0.5,0.5v1.1C369.1,1289,368.9,1289.1,368.6,1289.1z M369.2,1303.5c0-0.6-0.1-1.2-0.4-1.8c-0.2-0.5-0.6-1-1-1.4
							s-1-0.7-1.6-1c-0.6-0.2-1.3-0.3-2-0.3s-1.4,0.1-2,0.3c-0.6,0.2-1.1,0.6-1.6,1c-0.4,0.4-0.8,0.9-1.1,1.4
							c-0.3,0.6-0.4,1.1-0.4,1.8c0,0.6,0.1,1.2,0.4,1.8c0.3,0.5,0.6,1,1.1,1.4s1,0.7,1.6,1s1.3,0.3,2,0.3s1.4-0.1,2-0.3
							s1.1-0.5,1.6-0.9c0.4-0.4,0.8-0.9,1-1.4C369.1,1304.7,369.2,1304.1,369.2,1303.5z M378.2,1316h-1.4c-0.3,0-0.5-0.2-0.5-0.5
							V1286c0-0.3,0.2-0.5,0.5-0.5h1.4c0.3,0,0.5,0.2,0.5,0.5v12.2h4.6c0.1,0,0.3,0,0.4,0.1s0.1,0.2,0.1,0.3v1.1
							c0,0.1,0,0.2-0.1,0.3c-0.1,0.1-0.2,0.1-0.4,0.1h-4.6v15.3C378.7,1315.9,378.5,1316,378.2,1316z"/>
						<path d="M402.3,1290.5c-0.1,1.9-0.5,3.8-1.1,5.6s-1.5,3.6-2.7,5.2c-1.1,1.7-2.5,3.2-4.1,4.6s-3.4,2.7-5.5,3.7
							c-0.3,0.2-0.5,0.1-0.6-0.1l-0.7-1.2c-0.2-0.3-0.1-0.5,0.1-0.6c1.9-1,3.6-2.1,5-3.3c1.5-1.2,2.7-2.6,3.7-4c1-1.5,1.9-3,2.5-4.6
							s1-3.3,1.1-5c0-0.3,0-0.6-0.1-0.7s-0.4-0.2-0.7-0.2h-10.6c-0.3,0-0.4-0.1-0.4-0.4v-1.2c0-0.3,0.1-0.4,0.4-0.4h11.3
							c1,0,1.7,0.2,2.1,0.6C402.2,1289.1,402.3,1289.7,402.3,1290.5z M410.8,1316h-1.4c-0.3,0-0.5-0.2-0.5-0.5V1286
							c0-0.3,0.2-0.5,0.5-0.5h1.4c0.3,0,0.5,0.2,0.5,0.5v29.5C411.2,1315.9,411.1,1316,410.8,1316z"/>
					</g>
				</g>
			</g>
			<rect x="53.7" y="539.2" width="595" height="1"/>
			<g>
				<g>
					<circle class="st22" cx="129.5" cy="291.3" r="18"/>
					<g>
						<path d="M168.6,298.9c-1.1,0-2.1-0.2-3-0.6s-1.7-0.9-2.4-1.6s-1.2-1.5-1.6-2.4s-0.6-1.9-0.6-3s0.2-2.1,0.6-3
							c0.4-0.9,0.9-1.7,1.6-2.4c0.7-0.7,1.5-1.2,2.4-1.6s1.9-0.6,3-0.6s2.1,0.2,3,0.6s1.7,0.9,2.4,1.6s1.2,1.5,1.6,2.4
							c0.4,0.9,0.6,1.9,0.6,3s-0.2,2.1-0.6,3s-0.9,1.7-1.6,2.4c-0.7,0.7-1.5,1.2-2.4,1.6C170.7,298.7,169.7,298.9,168.6,298.9z
							 M168.6,297.5c0.9,0,1.7-0.2,2.4-0.5s1.4-0.7,1.9-1.3s1-1.2,1.3-2s0.5-1.6,0.5-2.5s-0.2-1.7-0.5-2.4c-0.3-0.8-0.7-1.4-1.3-2
							s-1.2-1-1.9-1.3s-1.6-0.5-2.4-0.5c-0.9,0-1.7,0.2-2.5,0.5c-0.7,0.3-1.4,0.7-1.9,1.3s-1,1.2-1.3,2s-0.5,1.6-0.5,2.4
							c0,0.9,0.2,1.7,0.5,2.5s0.7,1.4,1.3,2s1.2,1,1.9,1.3C166.9,297.3,167.7,297.5,168.6,297.5z"/>
						<path d="M180,298.7c-0.2,0-0.4-0.1-0.5-0.2s-0.2-0.3-0.2-0.5v-13.4c0-0.2,0.1-0.4,0.2-0.5c0.1-0.1,0.3-0.2,0.5-0.2
							s0.4,0.1,0.6,0.3l9.1,11.9v-11.5c0-0.2,0.1-0.4,0.2-0.5s0.3-0.2,0.5-0.2s0.4,0.1,0.5,0.2s0.2,0.3,0.2,0.5V298
							c0,0.2-0.1,0.4-0.2,0.5s-0.3,0.2-0.5,0.2c-0.1,0-0.2,0-0.3-0.1c-0.1,0-0.2-0.1-0.2-0.2l-9.1-11.9v11.4c0,0.2-0.1,0.4-0.2,0.5
							S180.2,298.7,180,298.7z"/>
						<path d="M195.7,298.7c-0.2,0-0.4-0.1-0.5-0.2s-0.2-0.3-0.2-0.5v-13.4c0-0.2,0.1-0.4,0.2-0.5s0.3-0.2,0.5-0.2s0.4,0.1,0.5,0.2
							s0.2,0.3,0.2,0.5v12.7h7.4c0.2,0,0.4,0.1,0.5,0.2s0.2,0.3,0.2,0.5s-0.1,0.4-0.2,0.5c-0.1,0.1-0.3,0.2-0.5,0.2L195.7,298.7
							L195.7,298.7z"/>
						<path d="M208.8,298.7c-0.2,0-0.4-0.1-0.5-0.2s-0.2-0.3-0.2-0.5v-4.8l-5.2-8.2c-0.1-0.2-0.2-0.4-0.1-0.6c0-0.2,0.1-0.3,0.2-0.4
							s0.3-0.2,0.5-0.2s0.3,0,0.4,0.1s0.2,0.2,0.3,0.3l5.1,8.3h-0.8l5.1-8.2c0.1-0.1,0.2-0.2,0.3-0.3s0.2-0.1,0.4-0.1
							s0.3,0.1,0.4,0.2c0.1,0.1,0.2,0.3,0.2,0.4c0,0.2,0,0.4-0.1,0.5l-5.2,8.2v4.8c0,0.2-0.1,0.4-0.2,0.5
							C209.1,298.6,209,298.7,208.8,298.7z"/>
						<path d="M225,298.7c-0.2,0-0.4-0.1-0.5-0.2s-0.2-0.3-0.2-0.5v-12.3l-1.9,0.7c-0.1,0.1-0.3,0.1-0.4,0.1c-0.2,0-0.4-0.1-0.5-0.2
							s-0.2-0.3-0.2-0.5s0-0.3,0.1-0.4s0.2-0.2,0.4-0.3l2.9-1c0.1,0,0.1,0,0.2-0.1c0.1,0,0.1,0,0.2,0c0.2,0,0.4,0.1,0.5,0.2
							s0.2,0.3,0.2,0.5v13.4c0,0.2-0.1,0.4-0.2,0.5C225.4,298.6,225.2,298.7,225,298.7z"/>
						<path d="M232.2,298.7c-0.2,0-0.4-0.1-0.5-0.2s-0.2-0.3-0.2-0.5v-12.3l-1.9,0.7c-0.1,0.1-0.3,0.1-0.4,0.1
							c-0.2,0-0.4-0.1-0.5-0.2s-0.2-0.3-0.2-0.5s0-0.3,0.1-0.4s0.2-0.2,0.4-0.3l2.9-1c0.1,0,0.1,0,0.2-0.1c0.1,0,0.1,0,0.2,0
							c0.2,0,0.4,0.1,0.5,0.2s0.2,0.3,0.2,0.5v13.4c0,0.2-0.1,0.4-0.2,0.5C232.6,298.6,232.4,298.7,232.2,298.7z"/>
						<path d="M242.1,290.6c-0.3,0-0.6-0.1-0.8-0.3c-0.2-0.2-0.3-0.5-0.3-0.8s0.1-0.6,0.3-0.8c0.2-0.2,0.5-0.3,0.8-0.3
							s0.6,0.1,0.8,0.3s0.3,0.5,0.3,0.8s-0.1,0.6-0.3,0.8S242.4,290.6,242.1,290.6z M242.2,299c-0.3,0-0.6-0.1-0.8-0.3
							c-0.2-0.2-0.3-0.5-0.3-0.8s0.1-0.6,0.3-0.8c0.2-0.2,0.5-0.3,0.8-0.3s0.6,0.1,0.8,0.3c0.2,0.2,0.3,0.5,0.3,0.8
							s-0.1,0.5-0.3,0.8S242.5,299,242.2,299z"/>
						<path d="M251.8,298.7c-0.2,0-0.4-0.1-0.5-0.2s-0.2-0.3-0.2-0.5s0.1-0.4,0.2-0.5l5.8-6.8c0.3-0.3,0.6-0.7,0.8-1.1
							c0.2-0.4,0.3-0.8,0.3-1.2c0-0.6-0.1-1.1-0.4-1.6s-0.6-0.8-1-1.1c-0.4-0.3-0.9-0.4-1.5-0.4c-0.5,0-1,0.1-1.5,0.4
							c-0.4,0.3-0.8,0.6-1,1.1s-0.4,1-0.4,1.5c0,0.2-0.1,0.4-0.2,0.5s-0.3,0.2-0.5,0.2s-0.4-0.1-0.5-0.2s-0.2-0.3-0.2-0.5
							c0-0.8,0.2-1.6,0.6-2.3s0.9-1.2,1.5-1.6s1.4-0.6,2.2-0.6c0.8,0,1.6,0.2,2.2,0.6s1.1,0.9,1.5,1.6s0.5,1.4,0.5,2.3
							c0,0.4-0.1,0.8-0.2,1.2s-0.3,0.7-0.5,1.1c-0.2,0.3-0.5,0.7-0.7,1l-4.9,5.6h5.9c0.2,0,0.4,0.1,0.5,0.2c0.1,0.2,0.2,0.3,0.2,0.5
							s-0.1,0.4-0.2,0.5s-0.3,0.2-0.5,0.2L251.8,298.7L251.8,298.7z"/>
						<path d="M266.1,298.7c-0.9,0-1.7-0.3-2.4-0.9c-0.7-0.6-1.2-1.4-1.5-2.6c-0.3-1.1-0.5-2.4-0.5-4c0-1.5,0.2-2.9,0.5-4
							s0.9-2,1.5-2.6c0.7-0.6,1.5-0.9,2.4-0.9c1,0,1.8,0.3,2.4,0.9s1.2,1.5,1.5,2.6s0.5,2.4,0.5,4c0,1.5-0.2,2.9-0.5,4
							s-0.9,2-1.5,2.6S267.1,298.7,266.1,298.7z M266.1,297.2c0.7,0,1.2-0.3,1.7-0.8c0.4-0.5,0.8-1.2,1-2.1s0.3-1.9,0.3-3.1
							c0-1.1-0.1-2.2-0.3-3c-0.2-0.9-0.6-1.6-1-2.1s-1-0.8-1.7-0.8s-1.2,0.3-1.7,0.8c-0.4,0.5-0.8,1.2-1,2.1s-0.3,1.9-0.3,3.1
							s0.1,2.2,0.3,3.1c0.2,0.9,0.6,1.6,1,2.1C264.9,297,265.5,297.2,266.1,297.2z"/>
						<path d="M278.9,290.6c-0.3,0-0.6-0.1-0.8-0.3c-0.2-0.2-0.3-0.5-0.3-0.8s0.1-0.6,0.3-0.8c0.2-0.2,0.5-0.3,0.8-0.3
							s0.6,0.1,0.8,0.3s0.3,0.5,0.3,0.8s-0.1,0.6-0.3,0.8C279.4,290.5,279.2,290.6,278.9,290.6z M278.9,299c-0.3,0-0.6-0.1-0.8-0.3
							c-0.2-0.2-0.3-0.5-0.3-0.8s0.1-0.6,0.3-0.8c0.2-0.2,0.5-0.3,0.8-0.3s0.6,0.1,0.8,0.3c0.2,0.2,0.3,0.5,0.3,0.8
							s-0.1,0.5-0.3,0.8S279.2,299,278.9,299z"/>
						<path d="M294.9,298.7c-0.2,0-0.4-0.1-0.5-0.2s-0.2-0.3-0.2-0.5v-2.8h-6.8c-0.2,0-0.4-0.1-0.5-0.2s-0.2-0.3-0.2-0.5
							s0-0.3,0.1-0.5l7.5-9.8c0.1-0.1,0.1-0.2,0.2-0.2s0.2-0.1,0.4-0.1c0.2,0,0.4,0.1,0.5,0.2s0.2,0.3,0.2,0.5v9.2h1.5
							c0.2,0,0.4,0.1,0.5,0.2s0.2,0.3,0.2,0.5s-0.1,0.3-0.2,0.4s-0.3,0.2-0.5,0.2h-1.5v2.8c0,0.2-0.1,0.4-0.2,0.5
							S295.1,298.7,294.9,298.7z M288.2,294.4l-0.3-0.6h6.3v-8.2l0.4,0.4L288.2,294.4z"/>
						<path d="M303.8,298.7c-0.9,0-1.7-0.2-2.5-0.6c-0.7-0.4-1.3-1-1.7-1.7c-0.4-0.7-0.6-1.5-0.6-2.5c0-0.2,0.1-0.4,0.2-0.5
							s0.3-0.2,0.5-0.2s0.4,0.1,0.5,0.2s0.2,0.3,0.2,0.5c0,0.6,0.1,1.2,0.4,1.7s0.7,0.9,1.2,1.2c0.5,0.3,1.1,0.4,1.7,0.4
							s1.2-0.1,1.7-0.4s0.9-0.7,1.2-1.2c0.3-0.5,0.4-1.1,0.4-1.7s-0.1-1.2-0.4-1.7s-0.7-0.9-1.2-1.2c-0.5-0.3-1.1-0.4-1.7-0.4h-3.3
							c-0.2,0-0.4-0.1-0.5-0.2s-0.2-0.3-0.2-0.5v-5.2c0-0.2,0.1-0.4,0.2-0.5s0.3-0.2,0.5-0.2h6.7c0.2,0,0.4,0.1,0.5,0.2
							s0.2,0.3,0.2,0.5s-0.1,0.4-0.2,0.5s-0.3,0.2-0.5,0.2h-5.9v3.7h2.6c0.9,0,1.7,0.2,2.5,0.6c0.7,0.4,1.3,1,1.7,1.7
							c0.4,0.7,0.6,1.5,0.6,2.5s-0.2,1.7-0.6,2.5c-0.4,0.7-1,1.3-1.7,1.7C305.6,298.5,304.7,298.7,303.8,298.7z"/>
					</g>
					<g>
						<g>
							<path class="st12" d="M131.4,281h-2.9v11.6l10.1,6.2l1.6-2.5l-8.7-5.2V281H131.4z"/>
						</g>
					</g>
				</g>
				<g>
					<path class="st21" d="M71.7,308.9c-9.7,0-17.5-7.9-17.5-17.6s7.9-17.6,17.5-17.6c4.7,0,9.1,1.8,12.4,5.2l0.4,0.4l4.8-4.8v14.1
						H75.2l6.8-6.8l-0.4-0.4c-2.7-2.7-6.2-4.2-9.9-4.2c-7.7,0-14,6.3-14,14s6.3,14,14,14c5.8,0,11-3.6,13.1-9h3.7
						C86.3,303.8,79.5,308.9,71.7,308.9z"/>
					<path d="M71.7,274.3c4.5,0,8.8,1.8,12,5l0.7,0.7l0.7-0.7l3.6-3.6v12.4H76.4l5.6-5.6l0.7-0.7l-0.7-0.7
						c-2.8-2.8-6.4-4.3-10.2-4.3c-8,0-14.5,6.5-14.5,14.5s6.5,14.5,14.5,14.5c5.9,0,11.2-3.6,13.4-9h2.7
						c-2.3,6.9-8.8,11.5-16.1,11.5c-9.4,0-17-7.7-17-17.1S62.3,274.3,71.7,274.3 M89.8,273.3l-5.3,5.3c-3.3-3.3-7.8-5.3-12.8-5.3
						c-10,0-18,8.1-18,18.1s8.1,18.1,18,18.1c8.4,0,15.4-5.8,17.5-13.5h-4.7c-1.9,5.3-6.9,9-12.8,9c-7.5,0-13.5-6.1-13.5-13.5
						S64.3,278,71.7,278c3.7,0,7.1,1.6,9.5,4l-7.3,7.3h15.8v-16H89.8z"/>
				</g>
			</g>
			<rect x="58.4" y="495.7" class="st23" width="580.5" height="433.6"/>
			<g>
				<text transform="matrix(0.995 0 0 1 53.75 604.8828)" class="st24 st25">입찰가격</text>
			</g>
			<g>
				<text transform="matrix(0.995 0 0 1 556.3867 604.8828)" class="st24 st25">예상결과</text>
			</g>
			<g>
				<text transform="matrix(0.995 0 0 1 312.6592 606.8828)"><tspan x="0" y="0" class="st24 st25">입찰수량</tspan><tspan x="-8" y="31" class="st26 st16 st7">(총 1000주)</tspan></text>
			</g>
			<g>
				<g>
					<g>
						<path d="M60.4,705.4c-0.3,0-0.5-0.1-0.7-0.3c-0.2-0.2-0.3-0.4-0.3-0.7c0-0.2,0.1-0.5,0.3-0.6l7.2-8.6c0.4-0.4,0.7-0.9,1-1.5
							c0.2-0.5,0.4-1,0.4-1.5c0-0.8-0.1-1.4-0.4-2c-0.3-0.6-0.7-1-1.2-1.4c-0.5-0.3-1.1-0.5-1.8-0.5c-0.7,0-1.3,0.2-1.8,0.5
							c-0.5,0.3-1,0.8-1.3,1.4c-0.3,0.6-0.5,1.2-0.5,1.9c0,0.3-0.1,0.5-0.3,0.6c-0.2,0.2-0.4,0.3-0.7,0.3c-0.3,0-0.5-0.1-0.7-0.3
							c-0.2-0.2-0.3-0.4-0.3-0.6c0-1.1,0.2-2,0.7-2.9s1.1-1.5,1.9-2c0.8-0.5,1.7-0.7,2.8-0.7c1,0,2,0.2,2.8,0.7s1.4,1.1,1.9,2
							c0.5,0.8,0.7,1.8,0.7,2.9c0,0.5-0.1,1-0.3,1.5s-0.4,0.9-0.7,1.4s-0.6,0.9-0.9,1.2l-6.1,7.1h7.5c0.3,0,0.5,0.1,0.7,0.3
							c0.2,0.2,0.3,0.4,0.3,0.6c0,0.3-0.1,0.5-0.3,0.7c-0.2,0.2-0.4,0.3-0.7,0.3H60.4z"/>
						<path d="M79.2,705.4c-1.1,0-2.2-0.3-3.1-0.8c-0.9-0.5-1.6-1.3-2.2-2.2c-0.5-0.9-0.8-2-0.8-3.1c0-0.3,0.1-0.5,0.3-0.7
							c0.2-0.2,0.4-0.3,0.6-0.3c0.3,0,0.5,0.1,0.7,0.3c0.2,0.2,0.3,0.4,0.3,0.7c0,0.8,0.2,1.5,0.5,2.2c0.4,0.6,0.9,1.1,1.5,1.5
							s1.3,0.6,2.1,0.6s1.5-0.2,2.1-0.6s1.1-0.9,1.5-1.5c0.4-0.6,0.5-1.4,0.5-2.2c0-0.8-0.2-1.5-0.5-2.2c-0.4-0.6-0.9-1.1-1.5-1.5
							c-0.6-0.4-1.4-0.6-2.1-0.6H75c-0.3,0-0.5-0.1-0.7-0.3c-0.2-0.2-0.3-0.4-0.3-0.7v-6.6c0-0.3,0.1-0.5,0.3-0.7
							c0.2-0.2,0.4-0.3,0.7-0.3h8.4c0.3,0,0.5,0.1,0.7,0.3c0.2,0.2,0.3,0.4,0.3,0.7c0,0.3-0.1,0.5-0.3,0.7c-0.2,0.2-0.4,0.3-0.7,0.3
							h-7.5v4.7h3.3c1.2,0,2.2,0.3,3.1,0.8c0.9,0.5,1.6,1.3,2.2,2.2c0.5,0.9,0.8,2,0.8,3.1c0,1.2-0.3,2.2-0.8,3.1
							c-0.5,0.9-1.3,1.6-2.2,2.2S80.4,705.4,79.2,705.4z"/>
						<path d="M88.5,709.3c-0.2,0-0.3,0-0.4-0.1c-0.1-0.1-0.1-0.2-0.1-0.3c0-0.2,0.1-0.5,0.2-0.7c0.1-0.2,0.3-0.4,0.4-0.6
							c0.2-0.2,0.2-0.5,0.2-0.8c0-0.3-0.1-0.5-0.2-0.7c-0.1-0.2-0.2-0.4-0.4-0.5c-0.2-0.2-0.3-0.3-0.4-0.5c-0.1-0.2-0.2-0.4-0.2-0.7
							c0-0.4,0.1-0.7,0.4-1s0.6-0.4,1-0.4c0.5,0,0.9,0.2,1.2,0.6s0.5,0.9,0.5,1.6c0,0.4-0.1,0.9-0.2,1.4c-0.1,0.5-0.3,1-0.5,1.4
							c-0.2,0.4-0.5,0.8-0.7,1S88.8,709.3,88.5,709.3z"/>
						<path d="M99.1,705.5c-1.1,0-2-0.3-2.9-0.8s-1.5-1.2-2-2.1s-0.7-1.8-0.7-2.9c0-1.1,0.2-2,0.7-2.8c0.5-0.8,1.2-1.5,2-2
							s1.8-0.7,2.9-0.7s2,0.2,2.9,0.7s1.5,1.1,2,2c0.5,0.8,0.7,1.8,0.7,2.8c0,1.1-0.3,2.1-0.8,2.9c-0.5,0.9-1.1,1.5-2,2.1
							S100.1,705.5,99.1,705.5z M99.1,695.8c-0.9,0-1.7-0.2-2.4-0.6c-0.7-0.4-1.2-0.9-1.6-1.6c-0.4-0.7-0.6-1.5-0.6-2.4
							c0-0.8,0.2-1.6,0.6-2.3c0.4-0.7,0.9-1.2,1.6-1.6c0.7-0.4,1.5-0.6,2.4-0.6c0.9,0,1.7,0.2,2.4,0.6s1.2,0.9,1.6,1.6
							c0.4,0.7,0.6,1.5,0.6,2.3c0,0.9-0.2,1.7-0.6,2.4s-1,1.2-1.6,1.6C100.7,695.6,99.9,695.8,99.1,695.8z M99.1,703.9
							c0.7,0,1.3-0.2,1.9-0.5s1-0.8,1.3-1.5c0.3-0.6,0.5-1.3,0.5-2.1c0-0.7-0.2-1.4-0.5-2c-0.3-0.6-0.8-1-1.3-1.4
							c-0.6-0.3-1.2-0.5-1.9-0.5c-0.7,0-1.4,0.2-1.9,0.5s-1,0.8-1.3,1.4c-0.3,0.6-0.5,1.2-0.5,2c0,0.8,0.2,1.5,0.5,2.1
							c0.3,0.6,0.8,1.1,1.3,1.5C97.7,703.7,98.3,703.9,99.1,703.9z M99.1,694.2c0.5,0,1-0.1,1.4-0.4c0.4-0.3,0.8-0.6,1-1.1
							c0.3-0.5,0.4-1,0.4-1.5c0-0.5-0.1-1-0.3-1.5s-0.6-0.8-1-1c-0.4-0.2-0.9-0.4-1.5-0.4c-0.8,0-1.5,0.3-2,0.8
							c-0.5,0.5-0.8,1.2-0.8,2c0,0.8,0.2,1.6,0.8,2.1C97.6,693.9,98.2,694.2,99.1,694.2z"/>
						<path d="M112.9,705.4c-1.2,0-2.2-0.4-3-1.1c-0.8-0.8-1.5-1.8-1.9-3.2c-0.4-1.4-0.7-3.1-0.7-5.1c0-1.9,0.2-3.6,0.7-5
							s1.1-2.5,1.9-3.2c0.8-0.8,1.9-1.1,3-1.1c1.2,0,2.2,0.4,3.1,1.1s1.5,1.8,1.9,3.3c0.4,1.4,0.7,3.1,0.7,5c0,2-0.2,3.6-0.7,5
							c-0.4,1.4-1.1,2.5-1.9,3.2S114.1,705.4,112.9,705.4z M112.9,703.6c0.9,0,1.6-0.3,2.1-1c0.6-0.6,1-1.5,1.2-2.7
							c0.3-1.1,0.4-2.4,0.4-3.9c0-1.4-0.1-2.7-0.4-3.9c-0.3-1.1-0.7-2-1.3-2.7c-0.6-0.7-1.3-1-2.1-1s-1.5,0.3-2.1,1
							c-0.5,0.6-1,1.5-1.2,2.7c-0.3,1.1-0.4,2.4-0.4,3.9c0,1.5,0.1,2.8,0.4,3.9c0.3,1.1,0.7,2,1.2,2.7
							C111.4,703.2,112.1,703.6,112.9,703.6z"/>
						<path d="M126.6,705.4c-1.2,0-2.2-0.4-3-1.1c-0.8-0.8-1.5-1.8-1.9-3.2c-0.4-1.4-0.7-3.1-0.7-5.1c0-1.9,0.2-3.6,0.7-5
							s1.1-2.5,1.9-3.2c0.8-0.8,1.9-1.1,3-1.1c1.2,0,2.2,0.4,3.1,1.1s1.5,1.8,1.9,3.3c0.4,1.4,0.7,3.1,0.7,5c0,2-0.2,3.6-0.7,5
							c-0.4,1.4-1.1,2.5-1.9,3.2S127.8,705.4,126.6,705.4z M126.6,703.6c0.9,0,1.6-0.3,2.1-1c0.6-0.6,1-1.5,1.2-2.7
							c0.3-1.1,0.4-2.4,0.4-3.9c0-1.4-0.1-2.7-0.4-3.9c-0.3-1.1-0.7-2-1.3-2.7c-0.6-0.7-1.3-1-2.1-1s-1.5,0.3-2.1,1
							c-0.5,0.6-1,1.5-1.2,2.7c-0.3,1.1-0.4,2.4-0.4,3.9c0,1.5,0.1,2.8,0.4,3.9c0.3,1.1,0.7,2,1.2,2.7
							C125,703.2,125.7,703.6,126.6,703.6z"/>
					</g>
				</g>
			</g>
			<g>
				<g>
					<g>
						<path d="M350.8,705.4c-1.1,0-2.2-0.3-3.1-0.8c-0.9-0.5-1.6-1.3-2.2-2.2c-0.5-0.9-0.8-2-0.8-3.1c0-0.3,0.1-0.5,0.3-0.7
							c0.2-0.2,0.4-0.3,0.6-0.3c0.3,0,0.5,0.1,0.7,0.3c0.2,0.2,0.3,0.4,0.3,0.7c0,0.8,0.2,1.5,0.5,2.2c0.4,0.6,0.9,1.1,1.5,1.5
							s1.3,0.6,2.1,0.6s1.5-0.2,2.1-0.6s1.1-0.9,1.5-1.5c0.4-0.6,0.6-1.4,0.6-2.2c0-0.8-0.2-1.5-0.6-2.2c-0.4-0.6-0.9-1.1-1.5-1.5
							c-0.6-0.4-1.4-0.6-2.1-0.6h-4.2c-0.3,0-0.5-0.1-0.7-0.3c-0.2-0.2-0.3-0.4-0.3-0.7v-6.6c0-0.3,0.1-0.5,0.3-0.7
							c0.2-0.2,0.4-0.3,0.7-0.3h8.4c0.3,0,0.5,0.1,0.7,0.3c0.2,0.2,0.3,0.4,0.3,0.7c0,0.3-0.1,0.5-0.3,0.7s-0.4,0.3-0.7,0.3h-7.5
							v4.7h3.3c1.2,0,2.2,0.3,3.1,0.8c0.9,0.5,1.6,1.3,2.2,2.2c0.5,0.9,0.8,2,0.8,3.1c0,1.2-0.3,2.2-0.8,3.1
							c-0.5,0.9-1.3,1.6-2.2,2.2C353,705.2,352,705.4,350.8,705.4z"/>
						<path d="M365,705.4c-1.2,0-2.2-0.4-3-1.1c-0.8-0.8-1.5-1.8-1.9-3.2c-0.4-1.4-0.7-3.1-0.7-5.1c0-1.9,0.2-3.6,0.7-5
							s1.1-2.5,1.9-3.2c0.8-0.8,1.9-1.1,3-1.1c1.2,0,2.2,0.4,3.1,1.1s1.5,1.8,1.9,3.3c0.4,1.4,0.7,3.1,0.7,5c0,2-0.2,3.6-0.7,5
							c-0.4,1.4-1.1,2.5-1.9,3.2S366.2,705.4,365,705.4z M365,703.6c0.9,0,1.6-0.3,2.1-1c0.6-0.6,1-1.5,1.2-2.7
							c0.3-1.1,0.4-2.4,0.4-3.9c0-1.4-0.1-2.7-0.4-3.9c-0.3-1.1-0.7-2-1.3-2.7c-0.6-0.7-1.3-1-2.1-1s-1.5,0.3-2.1,1
							c-0.5,0.6-1,1.5-1.2,2.7c-0.3,1.1-0.4,2.4-0.4,3.9c0,1.5,0.1,2.8,0.4,3.9c0.3,1.1,0.7,2,1.2,2.7
							C363.5,703.2,364.2,703.6,365,703.6z"/>
					</g>
				</g>
			</g>
			<g>
				<g>
					<g>
						<path d="M60.4,772c-0.3,0-0.5-0.1-0.7-0.3c-0.2-0.2-0.3-0.4-0.3-0.7c0-0.2,0.1-0.5,0.3-0.6l7.2-8.6c0.4-0.4,0.7-0.9,1-1.5
							c0.2-0.5,0.4-1,0.4-1.5c0-0.8-0.1-1.4-0.4-2c-0.3-0.6-0.7-1-1.2-1.4s-1.1-0.5-1.8-0.5c-0.7,0-1.3,0.2-1.8,0.5
							c-0.5,0.3-1,0.8-1.3,1.4c-0.3,0.6-0.5,1.2-0.5,1.9c0,0.3-0.1,0.5-0.3,0.6c-0.2,0.2-0.4,0.3-0.7,0.3c-0.3,0-0.5-0.1-0.7-0.3
							c-0.2-0.2-0.3-0.4-0.3-0.6c0-1.1,0.2-2,0.7-2.9s1.1-1.5,1.9-2c0.8-0.5,1.7-0.7,2.8-0.7c1,0,2,0.2,2.8,0.7
							c0.8,0.5,1.4,1.1,1.9,2c0.5,0.8,0.7,1.8,0.7,2.9c0,0.5-0.1,1-0.3,1.5c-0.2,0.5-0.4,0.9-0.7,1.4c-0.3,0.4-0.6,0.9-0.9,1.2
							l-6.1,7.1h7.5c0.3,0,0.5,0.1,0.7,0.3c0.2,0.2,0.3,0.4,0.3,0.6c0,0.3-0.1,0.5-0.3,0.7c-0.2,0.2-0.4,0.3-0.7,0.3H60.4z"/>
						<path d="M82.3,772c-0.2,0-0.4-0.1-0.6-0.3c-0.2-0.2-0.3-0.4-0.3-0.7v-3.6h-8.5c-0.3,0-0.5-0.1-0.6-0.3s-0.3-0.4-0.3-0.6
							c0-0.2,0-0.4,0.2-0.6l9.5-12.4c0.1-0.1,0.2-0.2,0.3-0.3s0.3-0.1,0.5-0.1c0.3,0,0.5,0.1,0.6,0.3c0.2,0.2,0.2,0.4,0.2,0.7v11.6
							h1.9c0.3,0,0.5,0.1,0.6,0.2c0.2,0.1,0.3,0.4,0.3,0.7c0,0.2-0.1,0.4-0.3,0.6c-0.2,0.2-0.4,0.3-0.6,0.3h-1.9v3.6
							c0,0.3-0.1,0.5-0.3,0.7C82.8,771.9,82.6,772,82.3,772z M73.9,766.5l-0.3-0.7h7.9v-10.3l0.5,0.5L73.9,766.5z"/>
						<path d="M89,775.8c-0.2,0-0.3,0-0.4-0.1c-0.1-0.1-0.1-0.2-0.1-0.3c0-0.2,0.1-0.5,0.2-0.7c0.1-0.2,0.3-0.4,0.4-0.6
							c0.2-0.2,0.2-0.5,0.2-0.8c0-0.3-0.1-0.5-0.2-0.7c-0.1-0.2-0.2-0.4-0.4-0.5c-0.2-0.2-0.3-0.3-0.4-0.5c-0.1-0.2-0.2-0.4-0.2-0.7
							c0-0.4,0.1-0.7,0.4-1s0.6-0.4,1-0.4c0.5,0,0.9,0.2,1.2,0.6s0.5,0.9,0.5,1.6c0,0.4-0.1,0.9-0.2,1.4c-0.1,0.5-0.3,1-0.5,1.4
							c-0.2,0.4-0.5,0.8-0.7,1S89.3,775.8,89,775.8z"/>
						<path d="M99.5,772.1c-1.1,0-2-0.3-2.9-0.8s-1.5-1.2-2-2.1s-0.7-1.8-0.7-2.9c0-1.1,0.2-2,0.7-2.8s1.2-1.5,2-2
							c0.8-0.5,1.8-0.7,2.9-0.7s2,0.2,2.9,0.7c0.8,0.5,1.5,1.1,2,2s0.7,1.8,0.7,2.8c0,1.1-0.3,2.1-0.8,2.9c-0.5,0.9-1.1,1.5-2,2.1
							S100.6,772.1,99.5,772.1z M99.5,762.3c-0.9,0-1.7-0.2-2.4-0.6c-0.7-0.4-1.2-0.9-1.6-1.6c-0.4-0.7-0.6-1.5-0.6-2.4
							c0-0.8,0.2-1.6,0.6-2.3c0.4-0.7,0.9-1.2,1.6-1.6c0.7-0.4,1.5-0.6,2.4-0.6c0.9,0,1.7,0.2,2.4,0.6c0.7,0.4,1.2,0.9,1.6,1.6
							c0.4,0.7,0.6,1.5,0.6,2.3c0,0.9-0.2,1.7-0.6,2.4c-0.4,0.7-1,1.2-1.6,1.6C101.2,762.1,100.4,762.3,99.5,762.3z M99.5,770.4
							c0.7,0,1.3-0.2,1.9-0.5s1-0.8,1.3-1.5c0.3-0.6,0.5-1.3,0.5-2.1c0-0.7-0.2-1.4-0.5-2c-0.3-0.6-0.8-1-1.3-1.4
							c-0.6-0.3-1.2-0.5-1.9-0.5c-0.7,0-1.4,0.2-1.9,0.5s-1,0.8-1.3,1.4s-0.5,1.2-0.5,2c0,0.8,0.2,1.5,0.5,2.1
							c0.3,0.6,0.8,1.1,1.3,1.5C98.2,770.2,98.8,770.4,99.5,770.4z M99.5,760.7c0.5,0,1-0.1,1.4-0.4c0.4-0.3,0.8-0.6,1-1.1
							c0.3-0.5,0.4-1,0.4-1.5c0-0.5-0.1-1-0.3-1.5c-0.2-0.4-0.6-0.8-1-1c-0.4-0.2-0.9-0.4-1.5-0.4c-0.8,0-1.5,0.3-2,0.8
							s-0.8,1.2-0.8,2c0,0.8,0.2,1.6,0.8,2.1C98,760.4,98.7,760.7,99.5,760.7z"/>
						<path d="M113.4,772c-1.2,0-2.2-0.4-3-1.1c-0.8-0.8-1.5-1.8-1.9-3.2c-0.4-1.4-0.7-3.1-0.7-5.1c0-1.9,0.2-3.6,0.7-5
							s1.1-2.5,1.9-3.2c0.8-0.8,1.9-1.1,3-1.1c1.2,0,2.2,0.4,3.1,1.1c0.8,0.8,1.5,1.8,1.9,3.3c0.4,1.4,0.7,3.1,0.7,5
							c0,2-0.2,3.6-0.7,5c-0.4,1.4-1.1,2.5-1.9,3.2S114.6,772,113.4,772z M113.4,770.1c0.9,0,1.6-0.3,2.1-1c0.6-0.6,1-1.5,1.2-2.7
							c0.3-1.1,0.4-2.4,0.4-3.9c0-1.4-0.1-2.7-0.4-3.9c-0.3-1.1-0.7-2-1.3-2.7c-0.6-0.7-1.3-1-2.1-1s-1.5,0.3-2.1,1
							c-0.5,0.6-1,1.5-1.2,2.7c-0.3,1.1-0.4,2.4-0.4,3.9c0,1.5,0.1,2.8,0.4,3.9c0.3,1.1,0.7,2,1.2,2.7
							C111.9,769.8,112.6,770.1,113.4,770.1z"/>
						<path d="M127.1,772c-1.2,0-2.2-0.4-3-1.1c-0.8-0.8-1.5-1.8-1.9-3.2c-0.4-1.4-0.7-3.1-0.7-5.1c0-1.9,0.2-3.6,0.7-5
							s1.1-2.5,1.9-3.2c0.8-0.8,1.9-1.1,3-1.1c1.2,0,2.2,0.4,3.1,1.1c0.8,0.8,1.5,1.8,1.9,3.3c0.4,1.4,0.7,3.1,0.7,5
							c0,2-0.2,3.6-0.7,5c-0.4,1.4-1.1,2.5-1.9,3.2S128.3,772,127.1,772z M127.1,770.1c0.9,0,1.6-0.3,2.1-1c0.6-0.6,1-1.5,1.2-2.7
							c0.3-1.1,0.4-2.4,0.4-3.9c0-1.4-0.1-2.7-0.4-3.9c-0.3-1.1-0.7-2-1.3-2.7c-0.6-0.7-1.3-1-2.1-1s-1.5,0.3-2.1,1
							c-0.5,0.6-1,1.5-1.2,2.7c-0.3,1.1-0.4,2.4-0.4,3.9c0,1.5,0.1,2.8,0.4,3.9c0.3,1.1,0.7,2,1.2,2.7
							C125.5,769.8,126.2,770.1,127.1,770.1z"/>
					</g>
				</g>
			</g>
			<g>
				<g>
					<g>
						<path d="M353.7,772c-0.2,0-0.4-0.1-0.6-0.3c-0.2-0.2-0.3-0.4-0.3-0.7v-3.6h-8.5c-0.3,0-0.5-0.1-0.6-0.3s-0.3-0.4-0.3-0.6
							c0-0.2,0-0.4,0.2-0.6l9.5-12.4c0.1-0.1,0.2-0.2,0.3-0.3s0.3-0.1,0.5-0.1c0.3,0,0.5,0.1,0.6,0.3c0.2,0.2,0.2,0.4,0.2,0.7v11.6
							h1.9c0.3,0,0.5,0.1,0.6,0.2c0.2,0.1,0.3,0.4,0.3,0.7c0,0.2-0.1,0.4-0.3,0.6c-0.2,0.2-0.4,0.3-0.6,0.3h-1.9v3.6
							c0,0.3-0.1,0.5-0.3,0.7C354.2,771.9,354,772,353.7,772z M345.3,766.5l-0.3-0.7h7.9v-10.3l0.5,0.5L345.3,766.5z"/>
						<path d="M365.3,772c-1.2,0-2.2-0.4-3-1.1c-0.8-0.8-1.5-1.8-1.9-3.2c-0.4-1.4-0.7-3.1-0.7-5.1c0-1.9,0.2-3.6,0.7-5
							s1.1-2.5,1.9-3.2c0.8-0.8,1.9-1.1,3-1.1c1.2,0,2.2,0.4,3.1,1.1c0.8,0.8,1.5,1.8,1.9,3.3c0.4,1.4,0.7,3.1,0.7,5
							c0,2-0.2,3.6-0.7,5c-0.4,1.4-1.1,2.5-1.9,3.2S366.5,772,365.3,772z M365.3,770.1c0.9,0,1.6-0.3,2.1-1c0.6-0.6,1-1.5,1.2-2.7
							c0.3-1.1,0.4-2.4,0.4-3.9c0-1.4-0.1-2.7-0.4-3.9c-0.3-1.1-0.7-2-1.3-2.7c-0.6-0.7-1.3-1-2.1-1s-1.5,0.3-2.1,1
							c-0.5,0.6-1,1.5-1.2,2.7c-0.3,1.1-0.4,2.4-0.4,3.9c0,1.5,0.1,2.8,0.4,3.9c0.3,1.1,0.7,2,1.2,2.7
							C363.7,769.8,364.4,770.1,365.3,770.1z"/>
					</g>
				</g>
			</g>
			<g>
				<ellipse class="st27" cx="605.3" cy="764.7" rx="15.7" ry="15.8"/>
				<g>
					<path class="st28" d="M613.3,766.5c0,4.5-3.6,8.1-8.1,8.1c-4.5,0-8.1-3.6-8.1-8.1"/>
					<g>
						<path class="st29" d="M599.2,762.5L599.2,762.5c-0.7,0-1.3-0.6-1.3-1.3v0c0-0.7,0.6-1.3,1.3-1.3l0,0c0.7,0,1.3,0.6,1.3,1.3v0
							C600.5,762,599.9,762.5,599.2,762.5z"/>
						<path class="st29" d="M611.3,762.5L611.3,762.5c-0.7,0-1.3-0.6-1.3-1.3v0c0-0.7,0.6-1.3,1.3-1.3l0,0c0.7,0,1.3,0.6,1.3,1.3v0
							C612.6,762,612,762.6,611.3,762.5z"/>
					</g>
				</g>
			</g>
			<g>
				<ellipse class="st27" cx="605.3" cy="696" rx="15.7" ry="15.8"/>
				<g>
					<path class="st28" d="M613.3,697.7c0,4.5-3.6,8.1-8.1,8.1c-4.5,0-8.1-3.6-8.1-8.1"/>
					<g>
						<path class="st29" d="M599.2,693.8L599.2,693.8c-0.7,0-1.3-0.6-1.3-1.3v0c0-0.7,0.6-1.3,1.3-1.3l0,0c0.7,0,1.3,0.6,1.3,1.3v0
							C600.5,693.2,599.9,693.8,599.2,693.8z"/>
						<path class="st29" d="M611.3,693.8L611.3,693.8c-0.7,0-1.3-0.6-1.3-1.3v0c0-0.7,0.6-1.3,1.3-1.3l0,0c0.7,0,1.3,0.6,1.3,1.3v0
							C612.6,693.2,612,693.8,611.3,693.8z"/>
					</g>
				</g>
			</g>
			<g>
				<g>
					<g>
						<path d="M60.4,838.5c-0.3,0-0.5-0.1-0.7-0.3c-0.2-0.2-0.3-0.4-0.3-0.7c0-0.2,0.1-0.5,0.3-0.6l7.2-8.6c0.4-0.4,0.7-0.9,1-1.5
							c0.2-0.5,0.4-1,0.4-1.5c0-0.8-0.1-1.4-0.4-2c-0.3-0.6-0.7-1-1.2-1.4s-1.1-0.5-1.8-0.5c-0.7,0-1.3,0.2-1.8,0.5
							c-0.5,0.3-1,0.8-1.3,1.4c-0.3,0.6-0.5,1.2-0.5,1.9c0,0.3-0.1,0.5-0.3,0.6c-0.2,0.2-0.4,0.3-0.7,0.3c-0.3,0-0.5-0.1-0.7-0.3
							c-0.2-0.2-0.3-0.4-0.3-0.6c0-1.1,0.2-2,0.7-2.9s1.1-1.5,1.9-2c0.8-0.5,1.7-0.7,2.8-0.7c1,0,2,0.2,2.8,0.7
							c0.8,0.5,1.4,1.1,1.9,2c0.5,0.8,0.7,1.8,0.7,2.9c0,0.5-0.1,1-0.3,1.5c-0.2,0.5-0.4,0.9-0.7,1.4c-0.3,0.4-0.6,0.9-0.9,1.2
							l-6.1,7.1h7.5c0.3,0,0.5,0.1,0.7,0.3c0.2,0.2,0.3,0.4,0.3,0.6c0,0.3-0.1,0.5-0.3,0.7c-0.2,0.2-0.4,0.3-0.7,0.3H60.4z"/>
						<path d="M82.3,838.5c-0.2,0-0.4-0.1-0.6-0.3c-0.2-0.2-0.3-0.4-0.3-0.7V834h-8.5c-0.3,0-0.5-0.1-0.6-0.3s-0.3-0.4-0.3-0.6
							c0-0.2,0-0.4,0.2-0.6l9.5-12.4c0.1-0.1,0.2-0.2,0.3-0.3s0.3-0.1,0.5-0.1c0.3,0,0.5,0.1,0.6,0.3c0.2,0.2,0.2,0.4,0.2,0.7v11.6
							h1.9c0.3,0,0.5,0.1,0.6,0.2c0.2,0.1,0.3,0.4,0.3,0.7c0,0.2-0.1,0.4-0.3,0.6c-0.2,0.2-0.4,0.3-0.6,0.3h-1.9v3.6
							c0,0.3-0.1,0.5-0.3,0.7C82.8,838.4,82.6,838.5,82.3,838.5z M73.9,833l-0.3-0.7h7.9V822l0.5,0.5L73.9,833z"/>
						<path d="M89,842.4c-0.2,0-0.3,0-0.4-0.1c-0.1-0.1-0.1-0.2-0.1-0.3c0-0.2,0.1-0.5,0.2-0.7c0.1-0.2,0.3-0.4,0.4-0.6
							c0.2-0.2,0.2-0.5,0.2-0.8c0-0.3-0.1-0.5-0.2-0.7c-0.1-0.2-0.2-0.4-0.4-0.5c-0.2-0.2-0.3-0.3-0.4-0.5c-0.1-0.2-0.2-0.4-0.2-0.7
							c0-0.4,0.1-0.7,0.4-1s0.6-0.4,1-0.4c0.5,0,0.9,0.2,1.2,0.6s0.5,0.9,0.5,1.6c0,0.4-0.1,0.9-0.2,1.4c-0.1,0.5-0.3,1-0.5,1.4
							c-0.2,0.4-0.5,0.8-0.7,1S89.3,842.4,89,842.4z"/>
						<path d="M100,838.5c-1.1,0-2.2-0.3-3.1-0.8c-0.9-0.5-1.6-1.3-2.2-2.2c-0.5-0.9-0.8-2-0.8-3.1c0-0.3,0.1-0.5,0.3-0.7
							c0.2-0.2,0.4-0.3,0.6-0.3c0.3,0,0.5,0.1,0.7,0.3c0.2,0.2,0.3,0.4,0.3,0.7c0,0.8,0.2,1.5,0.5,2.2c0.4,0.6,0.9,1.1,1.5,1.5
							s1.3,0.6,2.1,0.6s1.5-0.2,2.1-0.6s1.1-0.9,1.5-1.5c0.4-0.6,0.5-1.4,0.5-2.2s-0.2-1.5-0.5-2.2s-0.9-1.1-1.5-1.5
							s-1.4-0.6-2.1-0.6h-4.2c-0.3,0-0.5-0.1-0.7-0.3c-0.2-0.2-0.3-0.4-0.3-0.7v-6.6c0-0.3,0.1-0.5,0.3-0.7c0.2-0.2,0.4-0.3,0.7-0.3
							h8.4c0.3,0,0.5,0.1,0.7,0.3c0.2,0.2,0.3,0.4,0.3,0.7s-0.1,0.5-0.3,0.7c-0.2,0.2-0.4,0.3-0.7,0.3h-7.5v4.7h3.3
							c1.2,0,2.2,0.3,3.1,0.8s1.6,1.3,2.2,2.2c0.5,0.9,0.8,2,0.8,3.1c0,1.2-0.3,2.2-0.8,3.1c-0.5,0.9-1.3,1.6-2.2,2.2
							S101.2,838.5,100,838.5z"/>
						<path d="M114.2,838.5c-1.2,0-2.2-0.4-3-1.1c-0.8-0.8-1.5-1.8-1.9-3.2c-0.4-1.4-0.7-3.1-0.7-5.1c0-1.9,0.2-3.6,0.7-5
							s1.1-2.5,1.9-3.2c0.8-0.8,1.9-1.1,3-1.1c1.2,0,2.2,0.4,3.1,1.1c0.8,0.8,1.5,1.8,1.9,3.3c0.4,1.4,0.7,3.1,0.7,5
							c0,2-0.2,3.6-0.7,5c-0.4,1.4-1.1,2.5-1.9,3.2S115.4,838.5,114.2,838.5z M114.2,836.6c0.9,0,1.6-0.3,2.1-1
							c0.6-0.6,1-1.5,1.2-2.7c0.3-1.1,0.4-2.4,0.4-3.9c0-1.4-0.1-2.7-0.4-3.9c-0.3-1.1-0.7-2-1.3-2.7c-0.6-0.7-1.3-1-2.1-1
							s-1.5,0.3-2.1,1c-0.5,0.6-1,1.5-1.2,2.7c-0.3,1.1-0.4,2.4-0.4,3.9c0,1.5,0.1,2.8,0.4,3.9c0.3,1.1,0.7,2,1.2,2.7
							C112.7,836.3,113.4,836.6,114.2,836.6z"/>
						<path d="M127.9,838.5c-1.2,0-2.2-0.4-3-1.1c-0.8-0.8-1.5-1.8-1.9-3.2c-0.4-1.4-0.7-3.1-0.7-5.1c0-1.9,0.2-3.6,0.7-5
							s1.1-2.5,1.9-3.2c0.8-0.8,1.9-1.1,3-1.1c1.2,0,2.2,0.4,3.1,1.1c0.8,0.8,1.5,1.8,1.9,3.3c0.4,1.4,0.7,3.1,0.7,5
							c0,2-0.2,3.6-0.7,5c-0.4,1.4-1.1,2.5-1.9,3.2S129.1,838.5,127.9,838.5z M127.9,836.6c0.9,0,1.6-0.3,2.1-1
							c0.6-0.6,1-1.5,1.2-2.7c0.3-1.1,0.4-2.4,0.4-3.9c0-1.4-0.1-2.7-0.4-3.9c-0.3-1.1-0.7-2-1.3-2.7c-0.6-0.7-1.3-1-2.1-1
							s-1.5,0.3-2.1,1c-0.5,0.6-1,1.5-1.2,2.7c-0.3,1.1-0.4,2.4-0.4,3.9c0,1.5,0.1,2.8,0.4,3.9c0.3,1.1,0.7,2,1.2,2.7
							C126.3,836.3,127,836.6,127.9,836.6z"/>
					</g>
				</g>
			</g>
			<g>
				<g>
					<g>
						<path d="M345.1,838.5c-0.3,0-0.5-0.1-0.7-0.3c-0.2-0.2-0.3-0.4-0.3-0.7v-15.6l-2.4,0.8c-0.2,0.1-0.3,0.1-0.5,0.1
							c-0.3,0-0.5-0.1-0.7-0.3c-0.2-0.2-0.3-0.4-0.3-0.6c0-0.2,0-0.4,0.1-0.5c0.1-0.2,0.2-0.3,0.5-0.4l3.7-1.3
							c0.1,0,0.2-0.1,0.2-0.1c0.1,0,0.2,0,0.2,0c0.3,0,0.5,0.1,0.7,0.3c0.2,0.2,0.3,0.4,0.3,0.7v16.9c0,0.3-0.1,0.5-0.3,0.7
							C345.6,838.4,345.4,838.5,345.1,838.5z"/>
						<path d="M355.2,838.5c-1.2,0-2.2-0.4-3-1.1c-0.8-0.8-1.5-1.8-1.9-3.2c-0.4-1.4-0.7-3.1-0.7-5.1c0-1.9,0.2-3.6,0.7-5
							s1.1-2.5,1.9-3.2c0.8-0.8,1.9-1.1,3-1.1c1.2,0,2.2,0.4,3.1,1.1c0.8,0.8,1.5,1.8,1.9,3.3c0.4,1.4,0.7,3.1,0.7,5
							c0,2-0.2,3.6-0.7,5c-0.4,1.4-1.1,2.5-1.9,3.2S356.4,838.5,355.2,838.5z M355.2,836.6c0.9,0,1.6-0.3,2.1-1
							c0.6-0.6,1-1.5,1.2-2.7c0.3-1.1,0.4-2.4,0.4-3.9c0-1.4-0.1-2.7-0.4-3.9s-0.7-2-1.3-2.7s-1.3-1-2.1-1s-1.5,0.3-2.1,1
							c-0.5,0.6-1,1.5-1.2,2.7c-0.3,1.1-0.4,2.4-0.4,3.9c0,1.5,0.1,2.8,0.4,3.9c0.3,1.1,0.7,2,1.2,2.7
							C353.7,836.3,354.4,836.6,355.2,836.6z"/>
						<path d="M368.9,838.5c-1.2,0-2.2-0.4-3-1.1c-0.8-0.8-1.5-1.8-1.9-3.2c-0.4-1.4-0.7-3.1-0.7-5.1c0-1.9,0.2-3.6,0.7-5
							s1.1-2.5,1.9-3.2c0.8-0.8,1.9-1.1,3-1.1c1.2,0,2.2,0.4,3.1,1.1c0.8,0.8,1.5,1.8,1.9,3.3c0.4,1.4,0.7,3.1,0.7,5
							c0,2-0.2,3.6-0.7,5c-0.4,1.4-1.1,2.5-1.9,3.2S370.1,838.5,368.9,838.5z M368.9,836.6c0.9,0,1.6-0.3,2.1-1
							c0.6-0.6,1-1.5,1.2-2.7c0.3-1.1,0.4-2.4,0.4-3.9c0-1.4-0.1-2.7-0.4-3.9s-0.7-2-1.3-2.7s-1.3-1-2.1-1s-1.5,0.3-2.1,1
							c-0.5,0.6-1,1.5-1.2,2.7c-0.3,1.1-0.4,2.4-0.4,3.9c0,1.5,0.1,2.8,0.4,3.9c0.3,1.1,0.7,2,1.2,2.7
							C367.3,836.3,368,836.6,368.9,836.6z"/>
					</g>
				</g>
			</g>
			<g>
				<ellipse class="st27" cx="605.3" cy="831.3" rx="15.7" ry="15.8"/>
				<g>
					<path class="st28" d="M613.3,833c0,4.5-3.6,8.1-8.1,8.1c-4.5,0-8.1-3.6-8.1-8.1"/>
					<g>
						<path class="st30" d="M599.2,829.1L599.2,829.1c-0.7,0-1.3-0.6-1.3-1.3v0c0-0.7,0.6-1.3,1.3-1.3l0,0c0.7,0,1.3,0.6,1.3,1.3v0
							C600.5,828.5,599.9,829.1,599.2,829.1z"/>
						<path class="st30" d="M611.3,829.1L611.3,829.1c-0.7,0-1.3-0.6-1.3-1.3v0c0-0.7,0.6-1.3,1.3-1.3l0,0c0.7,0,1.3,0.6,1.3,1.3v0
							C612.6,828.5,612,829.1,611.3,829.1z"/>
					</g>
				</g>
			</g>
			<g>
				<g>
					<g>
						<path d="M60.4,905c-0.3,0-0.5-0.1-0.7-0.3c-0.2-0.2-0.3-0.4-0.3-0.7c0-0.2,0.1-0.5,0.3-0.6l7.2-8.6c0.4-0.4,0.7-0.9,1-1.5
							c0.2-0.5,0.4-1,0.4-1.5c0-0.8-0.1-1.4-0.4-2c-0.3-0.6-0.7-1-1.2-1.4s-1.1-0.5-1.8-0.5c-0.7,0-1.3,0.2-1.8,0.5
							c-0.5,0.3-1,0.8-1.3,1.4c-0.3,0.6-0.5,1.2-0.5,1.9c0,0.3-0.1,0.5-0.3,0.6c-0.2,0.2-0.4,0.3-0.7,0.3c-0.3,0-0.5-0.1-0.7-0.3
							c-0.2-0.2-0.3-0.4-0.3-0.6c0-1.1,0.2-2,0.7-2.9s1.1-1.5,1.9-2c0.8-0.5,1.7-0.7,2.8-0.7c1,0,2,0.2,2.8,0.7
							c0.8,0.5,1.4,1.1,1.9,2c0.5,0.8,0.7,1.8,0.7,2.9c0,0.5-0.1,1-0.3,1.5c-0.2,0.5-0.4,0.9-0.7,1.4c-0.3,0.4-0.6,0.9-0.9,1.2
							l-6.1,7.1h7.5c0.3,0,0.5,0.1,0.7,0.3c0.2,0.2,0.3,0.4,0.3,0.6c0,0.3-0.1,0.5-0.3,0.7c-0.2,0.2-0.4,0.3-0.7,0.3H60.4z"/>
						<path d="M78.4,905c-1.2,0-2.2-0.4-3-1.1c-0.8-0.8-1.5-1.8-1.9-3.2c-0.4-1.4-0.7-3.1-0.7-5.1c0-1.9,0.2-3.6,0.7-5
							s1.1-2.5,1.9-3.2c0.8-0.8,1.9-1.1,3-1.1c1.2,0,2.2,0.4,3.1,1.1c0.8,0.8,1.5,1.8,1.9,3.3c0.4,1.4,0.7,3.1,0.7,5
							c0,2-0.2,3.6-0.7,5c-0.4,1.4-1.1,2.5-1.9,3.2S79.6,905,78.4,905z M78.4,903.1c0.9,0,1.6-0.3,2.1-1c0.6-0.6,1-1.5,1.2-2.7
							c0.3-1.1,0.4-2.4,0.4-3.9c0-1.4-0.1-2.7-0.4-3.9c-0.3-1.1-0.7-2-1.3-2.7c-0.6-0.7-1.3-1-2.1-1s-1.5,0.3-2.1,1
							c-0.5,0.6-1,1.5-1.2,2.7c-0.3,1.1-0.4,2.4-0.4,3.9c0,1.5,0.1,2.8,0.4,3.9c0.3,1.1,0.7,2,1.2,2.7
							C76.9,902.8,77.6,903.1,78.4,903.1z"/>
						<path d="M87.2,908.9c-0.2,0-0.3,0-0.4-0.1c-0.1-0.1-0.1-0.2-0.1-0.3c0-0.2,0.1-0.5,0.2-0.7c0.1-0.2,0.3-0.4,0.4-0.6
							c0.2-0.2,0.2-0.5,0.2-0.8c0-0.3-0.1-0.5-0.2-0.7c-0.1-0.2-0.2-0.4-0.4-0.5c-0.2-0.2-0.3-0.3-0.4-0.5c-0.1-0.2-0.2-0.4-0.2-0.7
							c0-0.4,0.1-0.7,0.4-1s0.6-0.4,1-0.4c0.5,0,0.9,0.2,1.2,0.6s0.5,0.9,0.5,1.6c0,0.4-0.1,0.9-0.2,1.4c-0.1,0.5-0.3,1-0.5,1.4
							c-0.2,0.4-0.5,0.8-0.7,1S87.4,908.9,87.2,908.9z"/>
						<path d="M97.7,905.1c-1.1,0-2-0.3-2.9-0.8s-1.5-1.2-2-2.1s-0.7-1.8-0.7-2.9c0-1.1,0.2-2,0.7-2.8s1.2-1.5,2-2
							c0.8-0.5,1.8-0.7,2.9-0.7s2,0.2,2.9,0.7c0.8,0.5,1.5,1.1,2,2s0.7,1.8,0.7,2.8c0,1.1-0.3,2.1-0.8,2.9c-0.5,0.9-1.1,1.5-2,2.1
							S98.8,905.1,97.7,905.1z M97.7,895.3c-0.9,0-1.7-0.2-2.4-0.6c-0.7-0.4-1.2-0.9-1.6-1.6c-0.4-0.7-0.6-1.5-0.6-2.4
							c0-0.8,0.2-1.6,0.6-2.3c0.4-0.7,0.9-1.2,1.6-1.6c0.7-0.4,1.5-0.6,2.4-0.6c0.9,0,1.7,0.2,2.4,0.6c0.7,0.4,1.2,0.9,1.6,1.6
							c0.4,0.7,0.6,1.5,0.6,2.3c0,0.9-0.2,1.7-0.6,2.4c-0.4,0.7-1,1.2-1.6,1.6C99.4,895.1,98.6,895.3,97.7,895.3z M97.7,903.4
							c0.7,0,1.3-0.2,1.9-0.5s1-0.8,1.3-1.5c0.3-0.6,0.5-1.3,0.5-2.1c0-0.7-0.2-1.4-0.5-2c-0.3-0.6-0.8-1-1.3-1.4
							c-0.6-0.3-1.2-0.5-1.9-0.5c-0.7,0-1.4,0.2-1.9,0.5s-1,0.8-1.3,1.4s-0.5,1.2-0.5,2c0,0.8,0.2,1.5,0.5,2.1
							c0.3,0.6,0.8,1.1,1.3,1.5C96.4,903.2,97,903.4,97.7,903.4z M97.7,893.7c0.5,0,1-0.1,1.4-0.4c0.4-0.3,0.8-0.6,1-1.1
							c0.3-0.5,0.4-1,0.4-1.5c0-0.5-0.1-1-0.3-1.5c-0.2-0.4-0.6-0.8-1-1c-0.4-0.2-0.9-0.4-1.5-0.4c-0.8,0-1.5,0.3-2,0.8
							s-0.8,1.2-0.8,2c0,0.8,0.2,1.6,0.8,2.1C96.2,893.4,96.9,893.7,97.7,893.7z"/>
						<path d="M111.6,905c-1.2,0-2.2-0.4-3-1.1c-0.8-0.8-1.5-1.8-1.9-3.2c-0.4-1.4-0.7-3.1-0.7-5.1c0-1.9,0.2-3.6,0.7-5
							s1.1-2.5,1.9-3.2c0.8-0.8,1.9-1.1,3-1.1c1.2,0,2.2,0.4,3.1,1.1c0.8,0.8,1.5,1.8,1.9,3.3c0.4,1.4,0.7,3.1,0.7,5
							c0,2-0.2,3.6-0.7,5c-0.4,1.4-1.1,2.5-1.9,3.2S112.8,905,111.6,905z M111.6,903.1c0.9,0,1.6-0.3,2.1-1c0.6-0.6,1-1.5,1.2-2.7
							c0.3-1.1,0.4-2.4,0.4-3.9c0-1.4-0.1-2.7-0.4-3.9c-0.3-1.1-0.7-2-1.3-2.7c-0.6-0.7-1.3-1-2.1-1s-1.5,0.3-2.1,1
							c-0.5,0.6-1,1.5-1.2,2.7c-0.3,1.1-0.4,2.4-0.4,3.9c0,1.5,0.1,2.8,0.4,3.9c0.3,1.1,0.7,2,1.2,2.7
							C110.1,902.8,110.8,903.1,111.6,903.1z"/>
						<path d="M125.2,905c-1.2,0-2.2-0.4-3-1.1c-0.8-0.8-1.5-1.8-1.9-3.2c-0.4-1.4-0.7-3.1-0.7-5.1c0-1.9,0.2-3.6,0.7-5
							s1.1-2.5,1.9-3.2c0.8-0.8,1.9-1.1,3-1.1c1.2,0,2.2,0.4,3.1,1.1c0.8,0.8,1.5,1.8,1.9,3.3c0.4,1.4,0.7,3.1,0.7,5
							c0,2-0.2,3.6-0.7,5c-0.4,1.4-1.1,2.5-1.9,3.2S126.4,905,125.2,905z M125.2,903.1c0.9,0,1.6-0.3,2.1-1c0.6-0.6,1-1.5,1.2-2.7
							c0.3-1.1,0.4-2.4,0.4-3.9c0-1.4-0.1-2.7-0.4-3.9c-0.3-1.1-0.7-2-1.3-2.7c-0.6-0.7-1.3-1-2.1-1s-1.5,0.3-2.1,1
							c-0.5,0.6-1,1.5-1.2,2.7c-0.3,1.1-0.4,2.4-0.4,3.9c0,1.5,0.1,2.8,0.4,3.9c0.3,1.1,0.7,2,1.2,2.7
							C123.7,902.8,124.4,903.1,125.2,903.1z"/>
					</g>
				</g>
			</g>
			<g>
				<g>
					<g>
						<path d="M357.7,905.1c-1.1,0-2.1-0.2-3-0.7c-0.9-0.5-1.6-1.2-2.1-2c-0.5-0.8-0.8-1.8-0.8-2.9c0-0.3,0.1-0.5,0.2-0.7
							c0.2-0.2,0.4-0.3,0.6-0.3c0.3,0,0.5,0.1,0.6,0.3c0.2,0.2,0.2,0.4,0.2,0.7c0,0.7,0.2,1.4,0.5,2c0.4,0.6,0.8,1,1.4,1.4
							c0.6,0.3,1.3,0.5,2,0.5c1.2,0,2.2-0.3,2.9-1c0.7-0.7,1.1-1.6,1.1-2.7c0-0.8-0.2-1.5-0.5-2.1c-0.3-0.6-0.8-1-1.4-1.4
							c-0.6-0.3-1.2-0.5-1.9-0.5c-0.3,0-0.5-0.1-0.6-0.3c-0.2-0.2-0.3-0.4-0.3-0.7c0-0.3,0.1-0.5,0.3-0.6c0.2-0.2,0.4-0.3,0.6-0.3
							c0.6,0,1.1-0.1,1.5-0.4c0.5-0.3,0.8-0.7,1.1-1.1c0.3-0.5,0.4-1,0.4-1.5c0-0.8-0.3-1.6-0.9-2.1c-0.6-0.6-1.3-0.9-2.3-0.9
							c-0.7,0-1.3,0.1-1.8,0.4c-0.5,0.3-0.9,0.6-1.2,1.1c-0.3,0.4-0.4,0.9-0.4,1.5c0,0.3-0.1,0.5-0.3,0.7c-0.2,0.2-0.4,0.3-0.6,0.3
							c-0.3,0-0.5-0.1-0.6-0.3c-0.2-0.2-0.2-0.4-0.2-0.7c0-0.9,0.2-1.7,0.7-2.4c0.5-0.7,1.1-1.3,1.9-1.7c0.8-0.4,1.7-0.6,2.7-0.6
							c0.9,0,1.8,0.2,2.5,0.6s1.3,1,1.8,1.7c0.4,0.7,0.7,1.5,0.7,2.4c0,0.5-0.1,1.1-0.4,1.6c-0.3,0.5-0.6,1-1,1.4s-0.9,0.7-1.4,0.9
							c0.8,0.2,1.5,0.6,2,1.1c0.5,0.5,0.9,1.1,1.2,1.7s0.4,1.4,0.4,2.1c0,1.1-0.2,2-0.8,2.8c-0.5,0.8-1.2,1.5-2.1,1.9
							C359.8,904.9,358.8,905.1,357.7,905.1z"/>
					</g>
				</g>
			</g>
			<g>
				<g>
					<g>
						<path d="M63.4,971.5c-0.3,0-0.5-0.1-0.7-0.3c-0.2-0.2-0.3-0.4-0.3-0.7V955l-2.4,0.8c-0.2,0.1-0.3,0.1-0.5,0.1
							c-0.3,0-0.5-0.1-0.7-0.3c-0.2-0.2-0.3-0.4-0.3-0.6c0-0.2,0-0.4,0.1-0.5c0.1-0.2,0.2-0.3,0.5-0.4l3.7-1.3
							c0.1,0,0.2-0.1,0.2-0.1c0.1,0,0.2,0,0.2,0c0.3,0,0.5,0.1,0.7,0.3c0.2,0.2,0.3,0.4,0.3,0.7v16.9c0,0.3-0.1,0.5-0.3,0.7
							C63.9,971.4,63.7,971.5,63.4,971.5z"/>
						<path d="M73.4,952.7c1.1,0,2,0.2,2.9,0.7c0.8,0.5,1.5,1.2,2,2c0.5,0.8,0.7,1.8,0.7,2.9c0,1.1-0.2,2-0.7,2.9
							c-0.5,0.9-1.2,1.5-2,2s-1.8,0.7-2.9,0.7c-1.1,0-2-0.2-2.9-0.7s-1.5-1.2-2-2c-0.5-0.9-0.7-1.8-0.7-2.9c0-1.1,0.2-2.1,0.7-2.9
							c0.5-0.8,1.1-1.5,2-2C71.4,953,72.3,952.7,73.4,952.7z M73.4,954.5c-0.7,0-1.4,0.2-2,0.5s-1,0.8-1.4,1.4
							c-0.3,0.6-0.5,1.3-0.5,2s0.2,1.4,0.5,2c0.3,0.6,0.8,1.1,1.4,1.4c0.6,0.3,1.2,0.5,2,0.5s1.4-0.2,2-0.5c0.6-0.3,1-0.8,1.4-1.4
							c0.3-0.6,0.5-1.3,0.5-2s-0.2-1.4-0.5-2c-0.3-0.6-0.8-1.1-1.4-1.4C74.8,954.6,74.2,954.5,73.4,954.5z M78.3,961.2l-5.9,9.7
							c-0.2,0.3-0.5,0.5-0.8,0.5c-0.3,0-0.5-0.1-0.6-0.2c-0.2-0.1-0.3-0.3-0.3-0.6c0-0.2,0-0.4,0.1-0.7l3.9-6.4L78.3,961.2z"/>
						<path d="M82.5,975.4c-0.2,0-0.3,0-0.4-0.1c-0.1-0.1-0.1-0.2-0.1-0.3c0-0.2,0.1-0.5,0.2-0.7c0.1-0.2,0.3-0.4,0.4-0.6
							c0.2-0.2,0.2-0.5,0.2-0.8c0-0.3-0.1-0.5-0.2-0.7c-0.1-0.2-0.2-0.4-0.4-0.5c-0.2-0.2-0.3-0.3-0.4-0.5c-0.1-0.2-0.2-0.4-0.2-0.7
							c0-0.4,0.1-0.7,0.4-1s0.6-0.4,1-0.4c0.5,0,0.9,0.2,1.2,0.6s0.5,0.9,0.5,1.6c0,0.4-0.1,0.9-0.2,1.4c-0.1,0.5-0.3,1-0.5,1.4
							c-0.2,0.4-0.5,0.8-0.7,1S82.8,975.4,82.5,975.4z"/>
						<path d="M93.1,971.6c-1.1,0-2-0.3-2.9-0.8s-1.5-1.2-2-2.1s-0.7-1.8-0.7-2.9c0-1.1,0.2-2,0.7-2.8s1.2-1.5,2-2
							c0.8-0.5,1.8-0.7,2.9-0.7s2,0.2,2.9,0.7c0.8,0.5,1.5,1.1,2,2s0.7,1.8,0.7,2.8c0,1.1-0.3,2.1-0.8,2.9c-0.5,0.9-1.1,1.5-2,2.1
							S94.1,971.6,93.1,971.6z M93.1,961.8c-0.9,0-1.7-0.2-2.4-0.6c-0.7-0.4-1.2-0.9-1.6-1.6c-0.4-0.7-0.6-1.5-0.6-2.4
							c0-0.8,0.2-1.6,0.6-2.3c0.4-0.7,0.9-1.2,1.6-1.6c0.7-0.4,1.5-0.6,2.4-0.6c0.9,0,1.7,0.2,2.4,0.6c0.7,0.4,1.2,0.9,1.6,1.6
							c0.4,0.7,0.6,1.5,0.6,2.3c0,0.9-0.2,1.7-0.6,2.4c-0.4,0.7-1,1.2-1.6,1.6C94.7,961.6,93.9,961.8,93.1,961.8z M93.1,969.9
							c0.7,0,1.3-0.2,1.9-0.5s1-0.8,1.3-1.5c0.3-0.6,0.5-1.3,0.5-2.1c0-0.7-0.2-1.4-0.5-2c-0.3-0.6-0.8-1-1.3-1.4
							c-0.6-0.3-1.2-0.5-1.9-0.5c-0.7,0-1.4,0.2-1.9,0.5s-1,0.8-1.3,1.4s-0.5,1.2-0.5,2c0,0.8,0.2,1.5,0.5,2.1
							c0.3,0.6,0.8,1.1,1.3,1.5C91.7,969.7,92.4,969.9,93.1,969.9z M93.1,960.2c0.5,0,1-0.1,1.4-0.4c0.4-0.3,0.8-0.6,1-1.1
							c0.3-0.5,0.4-1,0.4-1.5c0-0.5-0.1-1-0.3-1.5c-0.2-0.4-0.6-0.8-1-1c-0.4-0.2-0.9-0.4-1.5-0.4c-0.8,0-1.5,0.3-2,0.8
							s-0.8,1.2-0.8,2c0,0.8,0.2,1.6,0.8,2.1C91.6,959.9,92.2,960.2,93.1,960.2z"/>
						<path d="M106.9,971.5c-1.2,0-2.2-0.4-3-1.1c-0.8-0.8-1.5-1.8-1.9-3.2c-0.4-1.4-0.7-3.1-0.7-5.1c0-1.9,0.2-3.6,0.7-5
							s1.1-2.5,1.9-3.2c0.8-0.8,1.9-1.1,3-1.1c1.2,0,2.2,0.4,3.1,1.1c0.8,0.8,1.5,1.8,1.9,3.3c0.4,1.4,0.7,3.1,0.7,5
							c0,2-0.2,3.6-0.7,5c-0.4,1.4-1.1,2.5-1.9,3.2S108.2,971.5,106.9,971.5z M106.9,969.6c0.9,0,1.6-0.3,2.1-1
							c0.6-0.6,1-1.5,1.2-2.7c0.3-1.1,0.4-2.4,0.4-3.9c0-1.4-0.1-2.7-0.4-3.9c-0.3-1.1-0.7-2-1.3-2.7c-0.6-0.7-1.3-1-2.1-1
							s-1.5,0.3-2.1,1c-0.5,0.6-1,1.5-1.2,2.7c-0.3,1.1-0.4,2.4-0.4,3.9c0,1.5,0.1,2.8,0.4,3.9c0.3,1.1,0.7,2,1.2,2.7
							C105.4,969.3,106.1,969.6,106.9,969.6z"/>
						<path d="M120.6,971.5c-1.2,0-2.2-0.4-3-1.1c-0.8-0.8-1.5-1.8-1.9-3.2c-0.4-1.4-0.7-3.1-0.7-5.1c0-1.9,0.2-3.6,0.7-5
							s1.1-2.5,1.9-3.2c0.8-0.8,1.9-1.1,3-1.1c1.2,0,2.2,0.4,3.1,1.1c0.8,0.8,1.5,1.8,1.9,3.3c0.4,1.4,0.7,3.1,0.7,5
							c0,2-0.2,3.6-0.7,5c-0.4,1.4-1.1,2.5-1.9,3.2S121.8,971.5,120.6,971.5z M120.6,969.6c0.9,0,1.6-0.3,2.1-1
							c0.6-0.6,1-1.5,1.2-2.7c0.3-1.1,0.4-2.4,0.4-3.9c0-1.4-0.1-2.7-0.4-3.9c-0.3-1.1-0.7-2-1.3-2.7c-0.6-0.7-1.3-1-2.1-1
							s-1.5,0.3-2.1,1c-0.5,0.6-1,1.5-1.2,2.7c-0.3,1.1-0.4,2.4-0.4,3.9c0,1.5,0.1,2.8,0.4,3.9c0.3,1.1,0.7,2,1.2,2.7
							C119,969.3,119.7,969.6,120.6,969.6z"/>
					</g>
				</g>
			</g>
			<g>
				<g>
					<g>
						<path d="M357.7,971.5c-1.1,0-2.2-0.3-3.1-0.8c-0.9-0.5-1.6-1.3-2.2-2.2c-0.5-0.9-0.8-2-0.8-3.1c0-0.3,0.1-0.5,0.3-0.7
							c0.2-0.2,0.4-0.3,0.6-0.3c0.3,0,0.5,0.1,0.7,0.3c0.2,0.2,0.3,0.4,0.3,0.7c0,0.8,0.2,1.5,0.5,2.2c0.4,0.6,0.9,1.1,1.5,1.5
							s1.3,0.6,2.1,0.6c0.8,0,1.5-0.2,2.2-0.6s1.1-0.9,1.5-1.5c0.4-0.6,0.5-1.4,0.5-2.2s-0.2-1.5-0.5-2.2c-0.4-0.6-0.9-1.1-1.5-1.5
							s-1.4-0.6-2.2-0.6h-4.2c-0.3,0-0.5-0.1-0.7-0.3c-0.2-0.2-0.3-0.4-0.3-0.7v-6.6c0-0.3,0.1-0.5,0.3-0.7c0.2-0.2,0.4-0.3,0.7-0.3
							h8.4c0.3,0,0.5,0.1,0.7,0.3c0.2,0.2,0.3,0.4,0.3,0.7s-0.1,0.5-0.3,0.7c-0.2,0.2-0.4,0.3-0.7,0.3h-7.5v4.7h3.3
							c1.2,0,2.2,0.3,3.1,0.8c0.9,0.5,1.6,1.3,2.2,2.2s0.8,2,0.8,3.1c0,1.2-0.3,2.2-0.8,3.1c-0.5,0.9-1.3,1.6-2.2,2.2
							C359.9,971.2,358.8,971.5,357.7,971.5z"/>
					</g>
				</g>
			</g>
			<g>
				<g>
					<ellipse class="st31" cx="605.3" cy="964.3" rx="15.7" ry="15.8"/>
				</g>
				<line class="st32" x1="597.9" y1="970.9" x2="612.6" y2="970.9"/>
				<g>
					<g>
						<line class="st32" x1="601.9" y1="957.5" x2="597.9" y2="965.7"/>
						<line class="st32" x1="597.8" y1="957.5" x2="601.9" y2="965.7"/>
					</g>
					<g>
						<line class="st32" x1="608.7" y1="957.5" x2="612.6" y2="965.7"/>
						<line class="st32" x1="612.7" y1="957.5" x2="608.7" y2="965.7"/>
					</g>
				</g>
			</g>
			<rect x="55.8" y="662.4" class="st33" width="592.4" height="1"/>
			<rect x="55.8" y="728.9" class="st33" width="592.4" height="1"/>
			<rect x="55.8" y="795.4" class="st33" width="592.4" height="1"/>
			<rect x="55.8" y="861.9" class="st33" width="592.4" height="1"/>
			<rect x="55.8" y="928.4" class="st33" width="592.4" height="1"/>
			<g>
				<g>
					<g>
						<path d="M58.4,1041c-0.3,0-0.5-0.1-0.7-0.3c-0.2-0.2-0.3-0.4-0.3-0.7c0-0.2,0.1-0.5,0.3-0.6l7.2-8.6c0.4-0.4,0.7-0.9,1-1.5
							c0.2-0.5,0.4-1,0.4-1.5c0-0.8-0.1-1.4-0.4-2c-0.3-0.6-0.7-1-1.2-1.4s-1.1-0.5-1.8-0.5c-0.7,0-1.3,0.2-1.8,0.5
							c-0.5,0.3-1,0.8-1.3,1.4c-0.3,0.6-0.5,1.2-0.5,1.9c0,0.3-0.1,0.5-0.3,0.6c-0.2,0.2-0.4,0.3-0.7,0.3c-0.3,0-0.5-0.1-0.7-0.3
							c-0.2-0.2-0.3-0.4-0.3-0.6c0-1.1,0.2-2,0.7-2.9s1.1-1.5,1.9-2c0.8-0.5,1.7-0.7,2.8-0.7c1,0,2,0.2,2.8,0.7
							c0.8,0.5,1.4,1.1,1.9,2c0.5,0.8,0.7,1.8,0.7,2.9c0,0.5-0.1,1-0.3,1.5c-0.2,0.5-0.4,0.9-0.7,1.4c-0.3,0.4-0.6,0.9-0.9,1.2
							l-6.1,7.1h7.5c0.3,0,0.5,0.1,0.7,0.3c0.2,0.2,0.3,0.4,0.3,0.6c0,0.3-0.1,0.5-0.3,0.7c-0.2,0.2-0.4,0.3-0.7,0.3H58.4z"/>
						<path d="M76.4,1041c-1.2,0-2.2-0.4-3-1.1c-0.8-0.8-1.5-1.8-1.9-3.2c-0.4-1.4-0.7-3.1-0.7-5.1c0-1.9,0.2-3.6,0.7-5
							s1.1-2.5,1.9-3.2c0.8-0.8,1.9-1.1,3-1.1c1.2,0,2.2,0.4,3.1,1.1c0.8,0.8,1.5,1.8,1.9,3.3c0.4,1.4,0.7,3.1,0.7,5
							c0,2-0.2,3.6-0.7,5c-0.4,1.4-1.1,2.5-1.9,3.2S77.6,1041,76.4,1041z M76.4,1039.1c0.9,0,1.6-0.3,2.1-1c0.6-0.6,1-1.5,1.2-2.7
							c0.3-1.1,0.4-2.4,0.4-3.9c0-1.4-0.1-2.7-0.4-3.9c-0.3-1.1-0.7-2-1.3-2.7c-0.6-0.7-1.3-1-2.1-1s-1.5,0.3-2.1,1
							c-0.5,0.6-1,1.5-1.2,2.7c-0.3,1.1-0.4,2.4-0.4,3.9c0,1.5,0.1,2.8,0.4,3.9c0.3,1.1,0.7,2,1.2,2.7
							C74.9,1038.8,75.6,1039.1,76.4,1039.1z"/>
						<path d="M85.2,1044.9c-0.2,0-0.3,0-0.4-0.1c-0.1-0.1-0.1-0.2-0.1-0.3c0-0.2,0.1-0.5,0.2-0.7c0.1-0.2,0.3-0.4,0.4-0.6
							c0.2-0.2,0.2-0.5,0.2-0.8c0-0.3-0.1-0.5-0.2-0.7c-0.1-0.2-0.2-0.4-0.4-0.5c-0.2-0.2-0.3-0.3-0.4-0.5c-0.1-0.2-0.2-0.4-0.2-0.7
							c0-0.4,0.1-0.7,0.4-1s0.6-0.4,1-0.4c0.5,0,0.9,0.2,1.2,0.6s0.5,0.9,0.5,1.6c0,0.4-0.1,0.9-0.2,1.4c-0.1,0.5-0.3,1-0.5,1.4
							c-0.2,0.4-0.5,0.8-0.7,1S85.5,1044.9,85.2,1044.9z"/>
						<path d="M95.7,1041.1c-1.1,0-2-0.3-2.9-0.8s-1.5-1.2-2-2.1s-0.7-1.8-0.7-2.9c0-1.1,0.2-2,0.7-2.8s1.2-1.5,2-2
							c0.8-0.5,1.8-0.7,2.9-0.7s2,0.2,2.9,0.7c0.8,0.5,1.5,1.1,2,2s0.7,1.8,0.7,2.8c0,1.1-0.3,2.1-0.8,2.9c-0.5,0.9-1.1,1.5-2,2.1
							S96.8,1041.1,95.7,1041.1z M95.7,1031.3c-0.9,0-1.7-0.2-2.4-0.6c-0.7-0.4-1.2-0.9-1.6-1.6c-0.4-0.7-0.6-1.5-0.6-2.4
							c0-0.8,0.2-1.6,0.6-2.3c0.4-0.7,0.9-1.2,1.6-1.6c0.7-0.4,1.5-0.6,2.4-0.6c0.9,0,1.7,0.2,2.4,0.6c0.7,0.4,1.2,0.9,1.6,1.6
							c0.4,0.7,0.6,1.5,0.6,2.3c0,0.9-0.2,1.7-0.6,2.4c-0.4,0.7-1,1.2-1.6,1.6C97.4,1031.1,96.6,1031.3,95.7,1031.3z M95.7,1039.4
							c0.7,0,1.3-0.2,1.9-0.5s1-0.8,1.3-1.5c0.3-0.6,0.5-1.3,0.5-2.1c0-0.7-0.2-1.4-0.5-2c-0.3-0.6-0.8-1-1.3-1.4
							c-0.6-0.3-1.2-0.5-1.9-0.5c-0.7,0-1.4,0.2-1.9,0.5s-1,0.8-1.3,1.4s-0.5,1.2-0.5,2c0,0.8,0.2,1.5,0.5,2.1
							c0.3,0.6,0.8,1.1,1.3,1.5C94.4,1039.2,95,1039.4,95.7,1039.4z M95.7,1029.7c0.5,0,1-0.1,1.4-0.4c0.4-0.3,0.8-0.6,1-1.1
							c0.3-0.5,0.4-1,0.4-1.5c0-0.5-0.1-1-0.3-1.5c-0.2-0.4-0.6-0.8-1-1c-0.4-0.2-0.9-0.4-1.5-0.4c-0.8,0-1.5,0.3-2,0.8
							s-0.8,1.2-0.8,2c0,0.8,0.2,1.6,0.8,2.1C94.2,1029.4,94.9,1029.7,95.7,1029.7z"/>
						<path d="M109.6,1041c-1.2,0-2.2-0.4-3-1.1c-0.8-0.8-1.5-1.8-1.9-3.2c-0.4-1.4-0.7-3.1-0.7-5.1c0-1.9,0.2-3.6,0.7-5
							s1.1-2.5,1.9-3.2c0.8-0.8,1.9-1.1,3-1.1c1.2,0,2.2,0.4,3.1,1.1c0.8,0.8,1.5,1.8,1.9,3.3c0.4,1.4,0.7,3.1,0.7,5
							c0,2-0.2,3.6-0.7,5c-0.4,1.4-1.1,2.5-1.9,3.2S110.8,1041,109.6,1041z M109.6,1039.1c0.9,0,1.6-0.3,2.1-1
							c0.6-0.6,1-1.5,1.2-2.7c0.3-1.1,0.4-2.4,0.4-3.9c0-1.4-0.1-2.7-0.4-3.9c-0.3-1.1-0.7-2-1.3-2.7c-0.6-0.7-1.3-1-2.1-1
							s-1.5,0.3-2.1,1c-0.5,0.6-1,1.5-1.2,2.7c-0.3,1.1-0.4,2.4-0.4,3.9c0,1.5,0.1,2.8,0.4,3.9c0.3,1.1,0.7,2,1.2,2.7
							C108.1,1038.8,108.8,1039.1,109.6,1039.1z"/>
						<path d="M123.2,1041c-1.2,0-2.2-0.4-3-1.1c-0.8-0.8-1.5-1.8-1.9-3.2c-0.4-1.4-0.7-3.1-0.7-5.1c0-1.9,0.2-3.6,0.7-5
							s1.1-2.5,1.9-3.2c0.8-0.8,1.9-1.1,3-1.1c1.2,0,2.2,0.4,3.1,1.1c0.8,0.8,1.5,1.8,1.9,3.3c0.4,1.4,0.7,3.1,0.7,5
							c0,2-0.2,3.6-0.7,5c-0.4,1.4-1.1,2.5-1.9,3.2S124.5,1041,123.2,1041z M123.2,1039.1c0.9,0,1.6-0.3,2.1-1
							c0.6-0.6,1-1.5,1.2-2.7c0.3-1.1,0.4-2.4,0.4-3.9c0-1.4-0.1-2.7-0.4-3.9c-0.3-1.1-0.7-2-1.3-2.7c-0.6-0.7-1.3-1-2.1-1
							s-1.5,0.3-2.1,1c-0.5,0.6-1,1.5-1.2,2.7c-0.3,1.1-0.4,2.4-0.4,3.9c0,1.5,0.1,2.8,0.4,3.9c0.3,1.1,0.7,2,1.2,2.7
							C121.7,1038.8,122.4,1039.1,123.2,1039.1z"/>
					</g>
				</g>
			</g>
			<g>
				<g>
					<g>
						<path d="M357.7,1041.1c-1.1,0-2.1-0.2-3-0.7c-0.9-0.5-1.6-1.2-2.1-2c-0.5-0.8-0.8-1.8-0.8-2.9c0-0.3,0.1-0.5,0.2-0.7
							c0.2-0.2,0.4-0.3,0.6-0.3c0.3,0,0.5,0.1,0.6,0.3c0.2,0.2,0.2,0.4,0.2,0.7c0,0.7,0.2,1.4,0.5,2c0.4,0.6,0.8,1,1.4,1.4
							c0.6,0.3,1.3,0.5,2,0.5c1.2,0,2.2-0.3,2.9-1c0.7-0.7,1.1-1.6,1.1-2.7c0-0.8-0.2-1.5-0.5-2.1c-0.3-0.6-0.8-1-1.4-1.4
							c-0.6-0.3-1.2-0.5-1.9-0.5c-0.3,0-0.5-0.1-0.6-0.3c-0.2-0.2-0.3-0.4-0.3-0.7c0-0.3,0.1-0.5,0.3-0.6c0.2-0.2,0.4-0.3,0.6-0.3
							c0.6,0,1.1-0.1,1.5-0.4c0.5-0.3,0.8-0.7,1.1-1.1c0.3-0.5,0.4-1,0.4-1.5c0-0.8-0.3-1.6-0.9-2.1c-0.6-0.6-1.3-0.9-2.3-0.9
							c-0.7,0-1.3,0.1-1.8,0.4c-0.5,0.3-0.9,0.6-1.2,1.1c-0.3,0.4-0.4,0.9-0.4,1.5c0,0.3-0.1,0.5-0.3,0.7c-0.2,0.2-0.4,0.3-0.6,0.3
							c-0.3,0-0.5-0.1-0.6-0.3c-0.2-0.2-0.2-0.4-0.2-0.7c0-0.9,0.2-1.7,0.7-2.4c0.5-0.7,1.1-1.3,1.9-1.7c0.8-0.4,1.7-0.6,2.7-0.6
							c0.9,0,1.8,0.2,2.5,0.6s1.3,1,1.8,1.7c0.4,0.7,0.7,1.5,0.7,2.4c0,0.5-0.1,1.1-0.4,1.6c-0.3,0.5-0.6,1-1,1.4s-0.9,0.7-1.4,0.9
							c0.8,0.2,1.5,0.6,2,1.1c0.5,0.5,0.9,1.1,1.2,1.7s0.4,1.4,0.4,2.1c0,1.1-0.2,2-0.8,2.8c-0.5,0.8-1.2,1.5-2.1,1.9
							C359.8,1040.9,358.8,1041.1,357.7,1041.1z"/>
					</g>
				</g>
			</g>
			<g>
				<g>
					<ellipse class="st31" cx="605.3" cy="1033.8" rx="15.7" ry="15.8"/>
				</g>
				<line class="st32" x1="597.9" y1="1040.4" x2="612.6" y2="1040.4"/>
				<g>
					<g>
						<line class="st32" x1="601.9" y1="1027" x2="597.9" y2="1035.2"/>
						<line class="st32" x1="597.8" y1="1027" x2="601.9" y2="1035.2"/>
					</g>
					<g>
						<line class="st32" x1="608.7" y1="1027" x2="612.6" y2="1035.2"/>
						<line class="st32" x1="612.7" y1="1027" x2="608.7" y2="1035.2"/>
					</g>
				</g>
			</g>
			<rect x="53.8" y="997.9" class="st33" width="592.4" height="1"/>
			<rect x="53.8" y="1064.4" class="st33" width="592.4" height="1"/>
			<g>
				<g>
					<ellipse class="st34" cx="605.3" cy="895.2" rx="15.7" ry="15.8"/>
					<g>
						<g>
							<path class="st30" d="M599.2,893L599.2,893c-0.7,0-1.3-0.6-1.3-1.3v0c0-0.7,0.6-1.3,1.3-1.3l0,0c0.7,0,1.3,0.6,1.3,1.3v0
								C600.5,892.4,599.9,893,599.2,893z"/>
							<path class="st30" d="M611.3,893L611.3,893c-0.7,0-1.3-0.6-1.3-1.3v0c0-0.7,0.6-1.3,1.3-1.3l0,0c0.7,0,1.3,0.6,1.3,1.3v0
								C612.6,892.4,612,893,611.3,893z"/>
						</g>
					</g>
				</g>
				<line class="st28" x1="597.9" y1="900.4" x2="612.6" y2="900.4"/>
			</g>
			<path class="st23" d="M632.9,1459.5H69.5c-28.3,0-51.3-23-51.3-51.3V70.8c0-28.3,23-51.3,51.3-51.3H633c28.2,0,51.2,23,51.2,51.3
				v1337.5C684.2,1436.5,661.2,1459.5,632.9,1459.5z"/>
		</g>
	</g>
	<rect x="-230.4" y="-965.8" class="st35" width="383.3" height="294.7"/>
	<rect x="192.9" y="-965.8" class="st21" width="383.3" height="294.7"/>
	<rect x="628.3" y="-965.8" class="st36" width="383.3" height="294.7"/>
	<rect x="1051.5" y="-965.8" class="st37" width="383.3" height="294.7"/>
</g>
<g id="Layer_1">
	<g>
		<path class="st0" d="M633.7,19C662,19,685,42,685,70.3v1337.5c0,28.3-23,51.3-51.3,51.3H70.3c-28.3,0-51.3-23-51.3-51.3V70.3
			C19,42,42,19,70.3,19H633.7 M633.7,12H70.3C38.1,12,12,38.1,12,70.3v1337.5c0,32.1,26.1,58.3,58.3,58.3h563.5
			c32.1,0,58.3-26.1,58.3-58.3V70.3C692,38.1,665.9,12,633.7,12L633.7,12z"/>
	</g>
	<g>
		<path class="st0" d="M633.7,19C662,19,685,42,685,70.3v1337.5c0,28.3-23,51.3-51.3,51.3H70.3c-28.3,0-51.3-23-51.3-51.3V70.3
			C19,42,42,19,70.3,19H633.7 M633.7,12H70.3C38.1,12,12,38.1,12,70.3v1337.5c0,32.1,26.1,58.3,58.3,58.3h563.5
			c32.1,0,58.3-26.1,58.3-58.3V70.3C692,38.1,665.9,12,633.7,12L633.7,12z"/>
	</g>
	<g>
		<path class="st0" d="M633.7,19C662,19,685,42,685,70.3v1337.5c0,28.3-23,51.3-51.3,51.3H70.3c-28.3,0-51.3-23-51.3-51.3V70.3
			C19,42,42,19,70.3,19H633.7 M633.7,12H70.3C38.1,12,12,38.1,12,70.3v1337.5c0,32.1,26.1,58.3,58.3,58.3h563.5
			c32.1,0,58.3-26.1,58.3-58.3V70.3C692,38.1,665.9,12,633.7,12L633.7,12z"/>
	</g>
	<g>
		<path class="st0" d="M633.7,19C662,19,685,42,685,70.3v1337.5c0,28.3-23,51.3-51.3,51.3H70.3c-28.3,0-51.3-23-51.3-51.3V70.3
			C19,42,42,19,70.3,19H633.7 M633.7,12H70.3C38.1,12,12,38.1,12,70.3v1337.5c0,32.1,26.1,58.3,58.3,58.3h563.5
			c32.1,0,58.3-26.1,58.3-58.3V70.3C692,38.1,665.9,12,633.7,12L633.7,12z"/>
	</g>
	<g>
		<path class="st0" d="M633.7,19C662,19,685,42,685,70.3v1337.5c0,28.3-23,51.3-51.3,51.3H70.3c-28.3,0-51.3-23-51.3-51.3V70.3
			C19,42,42,19,70.3,19H633.7 M633.7,12H70.3C38.1,12,12,38.1,12,70.3v1337.5c0,32.1,26.1,58.3,58.3,58.3h563.5
			c32.1,0,58.3-26.1,58.3-58.3V70.3C692,38.1,665.9,12,633.7,12L633.7,12z"/>
	</g>
	<g>
		<path class="st0" d="M633.7,19C662,19,685,42,685,70.3v1337.5c0,28.3-23,51.3-51.3,51.3H70.3c-28.3,0-51.3-23-51.3-51.3V70.3
			C19,42,42,19,70.3,19H633.7 M633.7,12H70.3C38.1,12,12,38.1,12,70.3v1337.5c0,32.1,26.1,58.3,58.3,58.3h563.5
			c32.1,0,58.3-26.1,58.3-58.3V70.3C692,38.1,665.9,12,633.7,12L633.7,12z"/>
	</g>
	<g>
		<path class="st0" d="M633.7,19C662,19,685,42,685,70.3v1337.5c0,28.3-23,51.3-51.3,51.3H70.3c-28.3,0-51.3-23-51.3-51.3V70.3
			C19,42,42,19,70.3,19H633.7 M633.7,12H70.3C38.1,12,12,38.1,12,70.3v1337.5c0,32.1,26.1,58.3,58.3,58.3h563.5
			c32.1,0,58.3-26.1,58.3-58.3V70.3C692,38.1,665.9,12,633.7,12L633.7,12z"/>
	</g>
</g>
<g id="Layer_4">
</g>
</svg>
