<?xml version="1.0" encoding="utf-8"?>
<!-- Generator: Adobe Illustrator 22.1.0, SVG Export Plug-In . SVG Version: 6.00 Build 0)  -->
<svg version="1.1" id="Layer_1" xmlns="http://www.w3.org/2000/svg" xmlns:xlink="http://www.w3.org/1999/xlink" x="0px" y="0px"
	 viewBox="0 0 200 200" style="enable-background:new 0 0 200 200;" xml:space="preserve">
<style type="text/css">
	.st0{fill:#FFFFFF;}
</style>
<g>
	<path class="st0" d="M114.2,98.4L90.9,83.5c-1-0.6-1.9,0.2-1.9,1.5v29c0,1.3,0.9,2.1,1.9,1.5l23.2-14.1
		C115.1,100.7,115.2,99,114.2,98.4z"/>
	<path class="st0" d="M99.3,13.2C51.7,13.2,13,51.9,13,99.5s38.7,86.3,86.3,86.3s86.3-38.7,86.3-86.3S146.9,13.2,99.3,13.2z
		 M146.1,111.7c0,11.1-9.1,20.1-20.4,20.1H72.9c-11.2,0-20.4-9-20.4-20.1V87.2c0-11.1,9.1-20.1,20.4-20.1h52.8
		c11.2,0,20.4,9,20.4,20.1L146.1,111.7L146.1,111.7z"/>
</g>
</svg>
