<?xml version="1.0" encoding="utf-8"?>
<!-- Generator: Adobe Illustrator 22.1.0, SVG Export Plug-In . SVG Version: 6.00 Build 0)  -->
<svg version="1.1" id="Layer_1" xmlns="http://www.w3.org/2000/svg" xmlns:xlink="http://www.w3.org/1999/xlink" x="0px" y="0px"
	 viewBox="0 0 258 24.5" style="enable-background:new 0 0 258 24.5;" xml:space="preserve">
<style type="text/css">
	.st0{enable-background:new    ;}
	.st1{fill:#120D14;}
</style>
<g class="st0">
	<path class="st1" d="M4.9,3.7v6.5H17v3.1H4.9v10H1.3V0.5h16.8v3.2H4.9z"/>
	<path class="st1" d="M43.3,23.3h-3.8l-0.7-5.1c-0.2-1.5-0.7-2.7-1.4-3.4c-0.7-0.7-1.7-1.1-3.1-1.1H27v9.5h-3.6V0.5h11.4
		c2.6,0,4.6,0.6,6,1.7C42.3,3.3,43,4.9,43,6.9c0,1.4-0.4,2.6-1.1,3.5c-0.7,0.9-1.7,1.6-2.9,2c0.9,0.4,1.6,0.9,2.1,1.7
		c0.5,0.8,0.9,1.8,1.1,3.1L43.3,23.3z M34.6,10.8c3.1,0,4.6-1.2,4.6-3.6c0-2.4-1.5-3.6-4.6-3.6H27v7.2H34.6z"/>
	<path class="st1" d="M48.4,0.5H52v22.8h-3.6V0.5z"/>
	<path class="st1" d="M76.7,3.7h-8.5v19.5h-3.6V3.7h-8.5V0.5h20.6V3.7z"/>
	<path class="st1" d="M97.4,20.1v3.2H79.3v-2.5L92.4,3.6H79.6V0.5h17.5v2.5L84,20.1H97.4z"/>
</g>
<g class="st0">
	<path class="st1" d="M129.8,0.5v22.8h-3.6V13.2H113v10.1h-3.6V0.5h3.6v9.4h13.2V0.5H129.8z"/>
	<path class="st1" d="M150.1,15.9h-9.6l-2.8,7.4h-3.6l9-22.8h4.7l9,22.8h-3.8L150.1,15.9z M148.9,12.7l-3.6-9.5l-3.6,9.5H148.9z"/>
	<path class="st1" d="M181.6,0.5v22.8h-5.8L164.7,3.8h-0.3l0.1,19.5H161V0.5h5.8l11.1,19.5h0.3l-0.1-19.5H181.6z"/>
	<path class="st1" d="M190.3,21.9c-1.8-1.3-2.9-3-3.3-5l3.6-1.3c0.4,1.6,1.1,2.9,2.2,3.8c1.1,0.9,2.9,1.4,5.1,1.4c2,0,3.6-0.3,4.6-1
		c1-0.7,1.6-1.5,1.6-2.6c0-0.9-0.3-1.5-0.9-2s-1.3-0.8-2.2-1.1c-0.9-0.2-2.1-0.4-3.7-0.6c-2-0.3-3.7-0.6-4.9-1
		c-1.3-0.4-2.3-1-3.2-1.9c-0.9-0.9-1.3-2.2-1.3-3.9c0-1.3,0.4-2.5,1.2-3.6c0.8-1,1.9-1.8,3.3-2.4c1.4-0.6,3.1-0.9,4.9-0.9
		c2,0,3.7,0.3,5.1,0.9c1.4,0.6,2.6,1.5,3.4,2.5c0.8,1,1.4,2.2,1.6,3.5l-3.6,1.3c-0.4-1.6-1-2.9-2-3.8c-1-0.9-2.5-1.4-4.5-1.4
		c-1.8,0-3.3,0.3-4.2,1c-1,0.7-1.5,1.5-1.5,2.6c0,0.9,0.3,1.5,0.9,2c0.6,0.5,1.3,0.8,2.2,1.1c0.9,0.2,2.1,0.4,3.7,0.6
		c2,0.3,3.7,0.6,4.9,1c1.3,0.4,2.3,1,3.2,1.9c0.9,0.9,1.3,2.2,1.3,3.9c0,1.4-0.4,2.6-1.2,3.6s-2,1.8-3.5,2.4
		c-1.5,0.6-3.2,0.8-5.2,0.8C194.6,23.9,192.1,23.2,190.3,21.9z"/>
	<path class="st1" d="M230.1,20.1v3.2h-16.9V0.5H230v3.2h-13.2V10h12.1v3h-12.1v7H230.1z"/>
	<path class="st1" d="M256.3,0.5v22.8h-5.8L239.4,3.8h-0.3l0.1,19.5h-3.5V0.5h5.8l11.1,19.5h0.3l-0.1-19.5H256.3z"/>
</g>
</svg>
