<?xml version="1.0" encoding="utf-8"?>
<!-- Generator: Adobe Illustrator 22.1.0, SVG Export Plug-In . SVG Version: 6.00 Build 0)  -->
<svg version="1.1" id="Layer_1" xmlns="http://www.w3.org/2000/svg" xmlns:xlink="http://www.w3.org/1999/xlink" x="0px" y="0px"
	 viewBox="0 0 200 200" style="enable-background:new 0 0 200 200;" xml:space="preserve">
<style type="text/css">
	.st0{fill:#FFFFFF;}
</style>
<path class="st0" d="M99.7,14c47.6,0,86.3,38.7,86.3,86.3s-38.7,86.3-86.3,86.3s-86.3-38.7-86.3-86.3S52.1,14,99.7,14 M121.3,49.9
	H78.1c-15.9,0-28.8,12.9-28.8,28.8v43.2c0,15.9,12.9,28.8,28.8,28.8h43.2c15.9,0,28.8-12.9,28.8-28.8V78.7
	C150,62.8,137.2,49.9,121.3,49.9 M119.6,58.8c11.9,0,21.6,9.7,21.6,21.6v39.8v1.3c-0.7,11.3-10,20.3-21.5,20.3H79.8h-1.3
	c-11.3-0.7-20.3-10-20.3-21.5V80.4v-1.3c0.7-11.3,10-20.3,21.5-20.3H119.6z M98.2,76.6C84.3,76.6,73,87.9,73,101.8
	S84.3,127,98.2,127s25.2-11.3,25.2-25.2C123.4,87.9,112.1,76.6,98.2,76.6 M98.2,85.5c9,0,16.3,7.3,16.3,16.3s-7.3,16.3-16.3,16.3
	s-16.3-7.3-16.3-16.3C81.9,92.8,89.2,85.5,98.2,85.5 M126.3,67.7c-3.3,0-5.9,2.7-5.9,5.9s2.7,5.9,5.9,5.9c3.3,0,5.9-2.7,5.9-5.9
	S129.6,67.7,126.3,67.7"/>
</svg>
