<?xml version="1.0" encoding="utf-8"?>
<!-- Generator: Adobe Illustrator 22.1.0, SVG Export Plug-In . SVG Version: 6.00 Build 0)  -->
<svg version="1.1" id="Layer_1" xmlns="http://www.w3.org/2000/svg" xmlns:xlink="http://www.w3.org/1999/xlink" x="0px" y="0px"
	 viewBox="0 0 200 200" style="enable-background:new 0 0 200 200;" xml:space="preserve">
<style type="text/css">
	.st0{fill:#FFFFFF;}
</style>
<path class="st0" d="M99.5,14c47.6,0,86.3,38.7,86.3,86.3s-38.7,86.3-86.3,86.3s-86.3-38.7-86.3-86.3C13.2,52.7,51.9,14,99.5,14
	 M113.4,57.2c-2.8,0.2-5.5,1-7.9,2.3c-2.5,1.3-4.6,3.1-6.4,5.4s-3.1,5-3.8,7.8c-0.7,2.8-0.6,5.5-0.2,8.3c0.1,0.5,0,0.5-0.4,0.5
	c-15.4-2.4-28.2-8-38.6-20.2c-0.5-0.5-0.7-0.5-1.1,0c-4.5,7-2.3,18.2,3.3,23.7c0.8,0.7,1.5,1.5,2.4,2.1c-0.3,0.1-4.1-0.4-7.4-2.1
	c-0.5-0.3-0.7-0.1-0.7,0.4c0,0.8,0,1.4,0.1,2.3c0.9,7.1,5.6,13.6,12.2,16.2c0.8,0.3,1.6,0.6,2.5,0.8c-1.5,0.3-3,0.6-7.3,0.2
	c-0.5-0.1-0.7,0.2-0.5,0.7c3.2,9,10.1,11.7,15.3,13.2c0.7,0.1,1.4,0.1,2.1,0.3c0,0.1-0.1,0.1-0.1,0.1c-1.7,2.7-7.7,4.7-10.5,5.7
	c-5.1,1.8-10.6,2.6-15.9,2.1c-0.9-0.1-1-0.1-1.3,0c-0.2,0.1,0,0.4,0.2,0.6c1.1,0.7,2.2,1.4,3.3,2c3.4,1.8,6.9,3.3,10.6,4.4
	c19.1,5.4,40.6,1.4,55-13.2c11.3-11.5,15.2-27.3,15.2-43.2c0-0.6,0.7-1,1.1-1.3c2.9-2.3,5.3-5,7.4-8c0.4-0.5,0.5-1,0.5-1.3v-0.3
	c0-0.3,0-0.2-0.4,0c-3,1.4-6.2,2.2-9.4,2.8c1.5-0.3,3.8-3.1,4.7-4.2c1.4-1.7,2.5-3.7,3.1-5.9c0.1-0.2,0.1-0.4,0-0.5
	c-0.2-0.1-0.3,0-0.5,0c-3.6,2-7.3,3.4-11.2,4.4c-0.3,0.1-0.6,0-0.8-0.2c-0.3-0.4-0.6-0.7-1-1c-1.7-1.4-3.4-2.6-5.4-3.4
	C119.1,57.5,116.3,57,113.4,57.2"/>
</svg>
