<?xml version="1.0" encoding="utf-8"?>
<!-- Generator: Adobe Illustrator 22.1.0, SVG Export Plug-In . SVG Version: 6.00 Build 0)  -->
<svg version="1.1" id="Layer_1" xmlns="http://www.w3.org/2000/svg" xmlns:xlink="http://www.w3.org/1999/xlink" x="0px" y="0px"
	 viewBox="0 0 16 16" style="enable-background:new 0 0 16 16;" xml:space="preserve">
<style type="text/css">
	.st0{fill:none;}
</style>
<path class="st0" d="M-2.3-2.3h20.6v20.6H-2.3V-2.3z"/>
<path d="M11,9.7h-0.7l-0.2-0.2c0.8-1,1.4-2.3,1.4-3.6c0-3.1-2.5-5.6-5.6-5.6S0.3,2.8,0.3,5.8s2.5,5.6,5.6,5.6c1.4,0,2.7-0.5,3.6-1.4
	l0.2,0.2V11l4.3,4.3l1.3-1.3L11,9.7z M5.8,9.7C3.7,9.7,2,8,2,5.8S3.7,2,5.8,2s3.9,1.7,3.9,3.9S8,9.7,5.8,9.7z"/>
</svg>
