<?xml version="1.0" encoding="utf-8"?>
<!-- Generator: Adobe Illustrator 27.0.0, SVG Export Plug-In . SVG Version: 6.00 Build 0)  -->
<svg version="1.1" id="레이어_1" xmlns="http://www.w3.org/2000/svg" xmlns:xlink="http://www.w3.org/1999/xlink" x="0px"
	 y="0px" viewBox="0 0 253 130" style="enable-background:new 0 0 253 130;" xml:space="preserve">
<style type="text/css">
	.st0{fill:#FFFFFF;}
</style>
<g>
	<path class="st0" d="M33.07,22.71c0,0.34-0.1,0.6-0.31,0.78c-0.21,0.18-0.45,0.27-0.74,0.27H3.03c-0.29,0-0.54-0.09-0.74-0.27
		c-0.21-0.18-0.31-0.44-0.31-0.78c0-0.34,0.1-0.6,0.31-0.78c0.21-0.18,0.45-0.27,0.74-0.27h13.33v-2.57c0-0.36,0.11-0.63,0.33-0.82
		c0.22-0.18,0.49-0.27,0.83-0.27c0.34,0,0.62,0.09,0.85,0.27c0.23,0.18,0.34,0.45,0.34,0.82v2.57h13.3c0.29,0,0.54,0.09,0.74,0.27
		C32.97,22.12,33.07,22.38,33.07,22.71z M27.96,29.89c0-0.29-0.05-0.48-0.16-0.58c-0.11-0.1-0.26-0.15-0.45-0.15H5.46
		c-0.29,0-0.54-0.09-0.74-0.27s-0.31-0.44-0.31-0.78c0-0.34,0.1-0.6,0.31-0.78s0.45-0.27,0.74-0.27h22.25c0.58,0,1.04,0.08,1.4,0.25
		c0.35,0.17,0.62,0.39,0.8,0.65c0.18,0.27,0.3,0.57,0.34,0.91s0.07,0.68,0.07,1.01v4.02c0,0.36-0.11,0.63-0.33,0.81
		S29.49,35,29.16,35s-0.62-0.09-0.85-0.27c-0.23-0.18-0.34-0.45-0.34-0.81V29.89z M30.32,13.73c0,0.34-0.02,0.68-0.07,1.01
		c-0.05,0.34-0.16,0.64-0.34,0.91c-0.18,0.27-0.45,0.48-0.8,0.65c-0.35,0.17-0.82,0.25-1.4,0.25H7.42c-0.58,0-1.05-0.08-1.4-0.25
		c-0.35-0.17-0.62-0.39-0.8-0.65c-0.18-0.27-0.3-0.57-0.34-0.91c-0.05-0.34-0.07-0.68-0.07-1.01V5.76c0-0.36,0.11-0.63,0.33-0.82
		s0.49-0.27,0.83-0.27s0.62,0.09,0.85,0.27S7.16,5.4,7.16,5.76v2.93h20.8V5.76c0-0.36,0.11-0.63,0.33-0.82
		c0.22-0.18,0.5-0.27,0.83-0.27c0.34,0,0.62,0.09,0.85,0.27c0.23,0.18,0.34,0.45,0.34,0.82V13.73z M27.34,14.45
		c0.19,0,0.34-0.05,0.45-0.15c0.11-0.1,0.16-0.29,0.16-0.58v-2.94H7.16v2.94c0,0.29,0.05,0.48,0.16,0.58
		c0.11,0.1,0.26,0.15,0.45,0.15H27.34z"/>
	<path class="st0" d="M53.29,5.79c0,0.34-0.1,0.6-0.31,0.78c-0.21,0.18-0.45,0.27-0.74,0.27h-6.12v1.49c0,1.26,0.15,2.37,0.45,3.33
		c0.3,0.97,0.75,1.82,1.34,2.57c0.59,0.75,1.33,1.41,2.23,1.99c0.89,0.58,1.92,1.11,3.08,1.59c0.75,0.31,1.03,0.82,0.83,1.52
		c-0.1,0.34-0.29,0.58-0.58,0.72c-0.29,0.15-0.65,0.15-1.09,0c-0.8-0.24-1.58-0.6-2.34-1.07c-0.76-0.47-1.46-0.99-2.1-1.56
		c-0.64-0.57-1.21-1.17-1.7-1.79c-0.5-0.63-0.88-1.22-1.14-1.78c-0.29,0.63-0.69,1.27-1.2,1.92c-0.51,0.65-1.09,1.27-1.74,1.87
		c-0.65,0.59-1.37,1.13-2.16,1.61c-0.79,0.48-1.61,0.87-2.48,1.16c-0.43,0.15-0.8,0.15-1.09,0c-0.29-0.15-0.48-0.39-0.58-0.72
		c-0.1-0.34-0.07-0.65,0.09-0.92c0.16-0.28,0.4-0.48,0.74-0.6c1.13-0.44,2.14-0.94,3.03-1.52c0.88-0.58,1.62-1.25,2.21-2.01
		c0.59-0.76,1.04-1.63,1.36-2.61c0.31-0.98,0.47-2.1,0.47-3.35V6.84h-6.12c-0.29,0-0.54-0.09-0.74-0.27
		c-0.21-0.18-0.31-0.44-0.31-0.78c0-0.34,0.1-0.6,0.31-0.78c0.21-0.18,0.45-0.27,0.74-0.27h14.6c0.29,0,0.54,0.09,0.74,0.27
		C53.18,5.2,53.29,5.46,53.29,5.79z M61.08,27.32c0-0.29-0.05-0.48-0.16-0.58c-0.11-0.1-0.26-0.15-0.45-0.15H38.47
		c-0.29,0-0.54-0.09-0.74-0.27c-0.21-0.18-0.31-0.44-0.31-0.78c0-0.34,0.1-0.6,0.31-0.78c0.2-0.18,0.45-0.27,0.74-0.27h22.35
		c0.58,0,1.04,0.08,1.4,0.25c0.35,0.17,0.62,0.39,0.8,0.65c0.18,0.27,0.3,0.57,0.34,0.91c0.05,0.34,0.07,0.68,0.07,1.01v6.59
		c0,0.36-0.11,0.63-0.33,0.81S62.61,35,62.27,35c-0.34,0-0.62-0.09-0.85-0.27s-0.34-0.45-0.34-0.81V27.32z M69.3,12.61
		c0,0.34-0.1,0.6-0.31,0.78c-0.21,0.18-0.45,0.27-0.74,0.27h-4.82v7.28c0,0.36-0.12,0.63-0.34,0.82c-0.23,0.18-0.51,0.27-0.85,0.27
		c-0.34,0-0.62-0.09-0.83-0.27s-0.33-0.45-0.33-0.82V5.4c0-0.36,0.11-0.63,0.33-0.82s0.5-0.27,0.83-0.27c0.34,0,0.62,0.09,0.85,0.27
		c0.23,0.18,0.34,0.45,0.34,0.82v6.16h4.82c0.29,0,0.54,0.09,0.74,0.27C69.2,12.01,69.3,12.27,69.3,12.61z"/>
	<path class="st0" d="M101.91,22.71c0,0.34-0.1,0.6-0.31,0.78c-0.21,0.18-0.45,0.27-0.74,0.27H71.87c-0.29,0-0.54-0.09-0.74-0.27
		c-0.21-0.18-0.31-0.44-0.31-0.78c0-0.34,0.1-0.6,0.31-0.78c0.21-0.18,0.45-0.27,0.74-0.27h13.33v-2.57c0-0.36,0.11-0.63,0.33-0.82
		c0.22-0.18,0.49-0.27,0.83-0.27c0.34,0,0.62,0.09,0.85,0.27c0.23,0.18,0.34,0.45,0.34,0.82v2.57h13.3c0.29,0,0.54,0.09,0.74,0.27
		C101.81,22.12,101.91,22.38,101.91,22.71z M96.8,29.89c0-0.29-0.05-0.48-0.16-0.58c-0.11-0.1-0.26-0.15-0.45-0.15H74.3
		c-0.29,0-0.54-0.09-0.74-0.27s-0.31-0.44-0.31-0.78c0-0.34,0.1-0.6,0.31-0.78s0.45-0.27,0.74-0.27h22.25c0.58,0,1.04,0.08,1.4,0.25
		c0.35,0.17,0.62,0.39,0.8,0.65c0.18,0.27,0.3,0.57,0.34,0.91s0.07,0.68,0.07,1.01v4.02c0,0.36-0.11,0.63-0.33,0.81S98.33,35,98,35
		s-0.62-0.09-0.85-0.27c-0.23-0.18-0.34-0.45-0.34-0.81V29.89z M99.16,13.73c0,0.34-0.02,0.68-0.07,1.01
		c-0.05,0.34-0.16,0.64-0.34,0.91c-0.18,0.27-0.45,0.48-0.8,0.65c-0.35,0.17-0.82,0.25-1.4,0.25H76.26c-0.58,0-1.05-0.08-1.4-0.25
		c-0.35-0.17-0.62-0.39-0.8-0.65c-0.18-0.27-0.3-0.57-0.34-0.91c-0.05-0.34-0.07-0.68-0.07-1.01V5.76c0-0.36,0.11-0.63,0.33-0.82
		s0.49-0.27,0.83-0.27s0.62,0.09,0.85,0.27S76,5.4,76,5.76v2.93h20.8V5.76c0-0.36,0.11-0.63,0.33-0.82c0.22-0.18,0.5-0.27,0.83-0.27
		c0.34,0,0.62,0.09,0.85,0.27c0.23,0.18,0.34,0.45,0.34,0.82V13.73z M96.19,14.45c0.19,0,0.34-0.05,0.45-0.15
		c0.11-0.1,0.16-0.29,0.16-0.58v-2.94H76v2.94c0,0.29,0.05,0.48,0.16,0.58c0.11,0.1,0.26,0.15,0.45,0.15H96.19z"/>
	<path class="st0" d="M122.13,5.79c0,0.34-0.1,0.6-0.31,0.78c-0.21,0.18-0.45,0.27-0.74,0.27h-6.12v1.49c0,1.26,0.15,2.37,0.45,3.33
		c0.3,0.97,0.75,1.82,1.34,2.57c0.59,0.75,1.33,1.41,2.23,1.99c0.89,0.58,1.92,1.11,3.08,1.59c0.75,0.31,1.03,0.82,0.83,1.52
		c-0.1,0.34-0.29,0.58-0.58,0.72c-0.29,0.15-0.65,0.15-1.09,0c-0.8-0.24-1.58-0.6-2.34-1.07c-0.76-0.47-1.46-0.99-2.1-1.56
		c-0.64-0.57-1.21-1.17-1.7-1.79c-0.5-0.63-0.88-1.22-1.14-1.78c-0.29,0.63-0.69,1.27-1.2,1.92c-0.51,0.65-1.09,1.27-1.74,1.87
		c-0.65,0.59-1.37,1.13-2.16,1.61c-0.79,0.48-1.61,0.87-2.48,1.16c-0.43,0.15-0.8,0.15-1.09,0c-0.29-0.15-0.48-0.39-0.58-0.72
		c-0.1-0.34-0.07-0.65,0.09-0.92c0.16-0.28,0.4-0.48,0.74-0.6c1.13-0.44,2.14-0.94,3.03-1.52c0.88-0.58,1.62-1.25,2.21-2.01
		c0.59-0.76,1.04-1.63,1.36-2.61c0.31-0.98,0.47-2.1,0.47-3.35V6.84h-6.12c-0.29,0-0.54-0.09-0.74-0.27
		c-0.21-0.18-0.31-0.44-0.31-0.78c0-0.34,0.1-0.6,0.31-0.78c0.21-0.18,0.45-0.27,0.74-0.27h14.6c0.29,0,0.54,0.09,0.74,0.27
		C122.02,5.2,122.13,5.46,122.13,5.79z M129.92,27.32c0-0.29-0.05-0.48-0.16-0.58c-0.11-0.1-0.26-0.15-0.45-0.15h-21.99
		c-0.29,0-0.54-0.09-0.74-0.27c-0.21-0.18-0.31-0.44-0.31-0.78c0-0.34,0.1-0.6,0.31-0.78c0.2-0.18,0.45-0.27,0.74-0.27h22.36
		c0.58,0,1.04,0.08,1.39,0.25c0.35,0.17,0.62,0.39,0.8,0.65c0.18,0.27,0.29,0.57,0.34,0.91c0.05,0.34,0.07,0.68,0.07,1.01v6.59
		c0,0.36-0.11,0.63-0.33,0.81s-0.5,0.27-0.83,0.27c-0.34,0-0.62-0.09-0.85-0.27c-0.23-0.18-0.34-0.45-0.34-0.81V27.32z
		 M138.14,12.61c0,0.34-0.1,0.6-0.31,0.78s-0.45,0.27-0.74,0.27h-4.82v7.28c0,0.36-0.12,0.63-0.34,0.82s-0.51,0.27-0.85,0.27
		s-0.62-0.09-0.83-0.27s-0.33-0.45-0.33-0.82V5.4c0-0.36,0.11-0.63,0.33-0.82s0.5-0.27,0.83-0.27s0.62,0.09,0.85,0.27
		s0.34,0.45,0.34,0.82v6.16h4.82c0.29,0,0.54,0.09,0.74,0.27S138.14,12.27,138.14,12.61z"/>
	<path class="st0" d="M1.84,62.69c0-0.34,0.1-0.6,0.31-0.78c0.21-0.18,0.45-0.27,0.74-0.27h8.88V60.3v-8.73
		c0-0.29-0.05-0.48-0.16-0.58c-0.11-0.1-0.26-0.15-0.45-0.15H3.32c-0.29,0-0.54-0.09-0.74-0.27s-0.31-0.44-0.31-0.78
		c0-0.34,0.1-0.6,0.31-0.78s0.45-0.27,0.74-0.27h8.19c0.58,0,1.04,0.08,1.39,0.25s0.62,0.39,0.8,0.65c0.18,0.27,0.3,0.57,0.34,0.91
		c0.05,0.34,0.07,0.68,0.07,1.01v9.2c0,1.04-0.01,2.26-0.04,3.68c-0.02,1.41-0.11,2.91-0.25,4.49c-0.15,1.58-0.39,3.18-0.73,4.78
		c-0.34,1.61-0.82,3.11-1.45,4.51c-0.19,0.41-0.47,0.67-0.81,0.78c-0.35,0.11-0.67,0.08-0.96-0.09c-0.29-0.17-0.48-0.4-0.56-0.71
		c-0.08-0.3-0.04-0.62,0.13-0.96c0.43-0.97,0.8-2,1.09-3.1c0.29-1.1,0.52-2.23,0.69-3.41c0.17-1.17,0.29-2.35,0.36-3.53
		c0.07-1.18,0.12-2.34,0.15-3.48H2.89c-0.29,0-0.54-0.09-0.74-0.27C1.94,63.29,1.84,63.03,1.84,62.69z M20.64,49.4
		c0-0.36,0.11-0.63,0.33-0.82c0.22-0.18,0.5-0.27,0.83-0.27c0.34,0,0.62,0.09,0.85,0.27C22.88,48.76,23,49.03,23,49.4v12.03h5.15
		V49.4c0-0.36,0.11-0.63,0.33-0.82c0.22-0.18,0.49-0.27,0.83-0.27c0.34,0,0.62,0.09,0.85,0.27c0.23,0.18,0.34,0.45,0.34,0.82v28.95
		c0,0.36-0.11,0.63-0.34,0.82c-0.23,0.18-0.51,0.27-0.85,0.27c-0.34,0-0.62-0.09-0.83-0.27c-0.22-0.18-0.33-0.45-0.33-0.82V63.53H23
		v14.82c0,0.36-0.11,0.63-0.34,0.82c-0.23,0.18-0.51,0.27-0.85,0.27c-0.34,0-0.62-0.09-0.83-0.27c-0.22-0.18-0.33-0.45-0.33-0.82
		V49.4z"/>
	<path class="st0" d="M40.06,62.19c0,0.29,0.05,0.48,0.16,0.58c0.11,0.1,0.26,0.15,0.45,0.15h9.93c0.29,0,0.54,0.09,0.74,0.27
		c0.21,0.18,0.31,0.44,0.31,0.78s-0.1,0.6-0.31,0.78c-0.21,0.18-0.45,0.27-0.74,0.27H40.32c-0.58,0-1.04-0.08-1.4-0.25
		c-0.35-0.17-0.62-0.39-0.8-0.65c-0.18-0.27-0.3-0.57-0.34-0.91c-0.05-0.34-0.07-0.68-0.07-1.01v-3.66c0-0.34,0.02-0.68,0.07-1.01
		c0.05-0.34,0.16-0.64,0.34-0.91c0.18-0.27,0.45-0.48,0.8-0.65s0.82-0.25,1.4-0.25h7.65c0.19,0,0.34-0.05,0.45-0.15
		c0.11-0.1,0.16-0.29,0.16-0.58v-3.41c0-0.29-0.05-0.48-0.16-0.58c-0.11-0.1-0.26-0.15-0.45-0.15h-9.2c-0.29,0-0.54-0.09-0.74-0.27
		c-0.21-0.18-0.31-0.44-0.31-0.78c0-0.34,0.1-0.6,0.31-0.78c0.21-0.18,0.45-0.27,0.74-0.27h9.57c0.58,0,1.04,0.08,1.4,0.25
		c0.35,0.17,0.62,0.39,0.8,0.65c0.18,0.27,0.3,0.57,0.34,0.91c0.05,0.34,0.07,0.68,0.07,1.01v3.41c0,0.34-0.02,0.68-0.07,1.01
		c-0.05,0.34-0.16,0.64-0.34,0.91c-0.18,0.27-0.45,0.48-0.8,0.65c-0.35,0.17-0.82,0.25-1.4,0.25h-7.65c-0.19,0-0.34,0.05-0.45,0.15
		c-0.11,0.1-0.16,0.29-0.16,0.58V62.19z M62.16,71.68c0-0.29-0.05-0.48-0.16-0.58c-0.11-0.1-0.26-0.15-0.45-0.15H39.34
		c-0.29,0-0.54-0.09-0.74-0.27s-0.31-0.44-0.31-0.78c0-0.34,0.1-0.6,0.31-0.78c0.21-0.18,0.45-0.27,0.74-0.27h22.57
		c0.58,0,1.04,0.08,1.4,0.25c0.35,0.17,0.62,0.39,0.8,0.65c0.18,0.27,0.3,0.57,0.34,0.91c0.05,0.34,0.07,0.68,0.07,1.01v6.23
		c0,0.36-0.11,0.63-0.33,0.81C63.98,78.91,63.7,79,63.36,79c-0.34,0-0.62-0.09-0.85-0.27c-0.23-0.18-0.34-0.45-0.34-0.81V71.68z
		 M62.16,49.4c0-0.36,0.11-0.63,0.33-0.82s0.5-0.27,0.83-0.27c0.34,0,0.62,0.09,0.85,0.27c0.23,0.18,0.34,0.45,0.34,0.82V64.9
		c0,0.36-0.12,0.63-0.34,0.81c-0.23,0.18-0.51,0.27-0.85,0.27c-0.34,0-0.62-0.09-0.83-0.27s-0.33-0.45-0.33-0.81V49.4z"/>
	<path class="st0" d="M74.55,75.48c0,0.29,0.05,0.48,0.16,0.58c0.11,0.1,0.26,0.14,0.45,0.14h9.53c0.29,0,0.54,0.09,0.74,0.27
		c0.21,0.18,0.31,0.44,0.31,0.78s-0.1,0.6-0.31,0.78c-0.21,0.18-0.45,0.27-0.74,0.27h-9.89c-0.58,0-1.04-0.08-1.39-0.25
		c-0.35-0.17-0.62-0.39-0.8-0.65s-0.3-0.57-0.34-0.91c-0.05-0.34-0.07-0.68-0.07-1.01V51.57c0-0.34,0.02-0.68,0.07-1.01
		c0.05-0.34,0.16-0.64,0.34-0.91c0.18-0.27,0.45-0.48,0.8-0.65c0.35-0.17,0.81-0.25,1.39-0.25h9.17c0.29,0,0.54,0.09,0.74,0.27
		c0.21,0.18,0.31,0.44,0.31,0.78c0,0.34-0.1,0.6-0.31,0.78c-0.21,0.18-0.45,0.27-0.74,0.27h-8.8c-0.19,0-0.34,0.05-0.45,0.15
		c-0.11,0.1-0.16,0.29-0.16,0.58v10.76h9.2c0.29,0,0.54,0.09,0.74,0.27c0.2,0.18,0.31,0.44,0.31,0.78c0,0.34-0.1,0.6-0.31,0.78
		c-0.21,0.18-0.45,0.27-0.74,0.27h-9.2V75.48z M88.94,63.2c0-0.34,0.1-0.6,0.31-0.78c0.21-0.18,0.45-0.27,0.74-0.27h6.81V49.4
		c0-0.36,0.11-0.63,0.33-0.82c0.22-0.18,0.5-0.27,0.83-0.27c0.34,0,0.62,0.09,0.85,0.27c0.23,0.18,0.34,0.45,0.34,0.82v28.95
		c0,0.36-0.12,0.63-0.34,0.82c-0.23,0.18-0.51,0.27-0.85,0.27c-0.34,0-0.62-0.09-0.83-0.27c-0.22-0.18-0.33-0.45-0.33-0.82V64.25
		h-6.81c-0.29,0-0.54-0.09-0.74-0.27C89.04,63.8,88.94,63.54,88.94,63.2z"/>
	<path class="st0" d="M136.33,62.04c0,0.34-0.1,0.6-0.31,0.78c-0.21,0.18-0.45,0.27-0.74,0.27h-28.99c-0.29,0-0.54-0.09-0.74-0.27
		c-0.21-0.18-0.31-0.44-0.31-0.78c0-0.34,0.1-0.6,0.31-0.78c0.21-0.18,0.45-0.27,0.74-0.27h28.99c0.29,0,0.54,0.09,0.74,0.27
		C136.23,61.44,136.33,61.7,136.33,62.04z M110.42,76.17c0,0.29,0.05,0.48,0.16,0.58c0.11,0.1,0.26,0.15,0.45,0.15h22.21
		c0.29,0,0.54,0.09,0.74,0.27c0.21,0.18,0.31,0.44,0.31,0.78c0,0.34-0.1,0.6-0.31,0.78c-0.21,0.18-0.45,0.27-0.74,0.27h-22.57
		c-0.58,0-1.05-0.05-1.4-0.16c-0.35-0.11-0.62-0.26-0.8-0.45s-0.3-0.43-0.34-0.71c-0.05-0.28-0.07-0.59-0.07-0.92v-2.46
		c0-0.34,0.02-0.66,0.07-0.96c0.05-0.3,0.16-0.56,0.34-0.78c0.18-0.22,0.45-0.39,0.8-0.53c0.35-0.13,0.81-0.2,1.4-0.2h19.93
		c0.19,0,0.34-0.05,0.45-0.15c0.11-0.1,0.16-0.29,0.16-0.58v-1.45c0-0.29-0.05-0.48-0.16-0.58c-0.11-0.1-0.26-0.15-0.45-0.15h-21.52
		c-0.29,0-0.54-0.09-0.74-0.27s-0.31-0.44-0.31-0.78c0-0.34,0.1-0.6,0.31-0.78s0.45-0.27,0.74-0.27h21.88c0.58,0,1.04,0.05,1.4,0.16
		c0.35,0.11,0.62,0.27,0.8,0.47c0.18,0.21,0.29,0.45,0.34,0.72c0.05,0.28,0.07,0.59,0.07,0.92v2.57c0,0.34-0.02,0.65-0.07,0.92
		c-0.05,0.28-0.16,0.51-0.34,0.71s-0.45,0.34-0.8,0.45c-0.35,0.11-0.82,0.16-1.4,0.16h-19.93c-0.19,0-0.34,0.05-0.45,0.15
		s-0.16,0.29-0.16,0.58V76.17z M132.16,48.74c0.29,0,0.54,0.09,0.74,0.27s0.31,0.44,0.31,0.78c0,0.34-0.1,0.6-0.31,0.78
		s-0.45,0.27-0.74,0.27h-21.12c-0.19,0-0.34,0.05-0.45,0.15c-0.11,0.1-0.16,0.29-0.16,0.58v2.86c0,0.29,0.05,0.48,0.16,0.58
		c0.11,0.1,0.26,0.15,0.45,0.15h21.52c0.29,0,0.54,0.09,0.74,0.27s0.31,0.44,0.31,0.78c0,0.34-0.1,0.6-0.31,0.78
		c-0.21,0.18-0.45,0.27-0.74,0.27h-21.88c-0.58,0-1.05-0.08-1.4-0.25c-0.35-0.17-0.62-0.39-0.8-0.65c-0.18-0.27-0.3-0.57-0.34-0.91
		c-0.05-0.34-0.07-0.68-0.07-1.01v-2.86c0-0.34,0.02-0.68,0.07-1.01c0.05-0.34,0.16-0.64,0.34-0.91c0.18-0.27,0.45-0.48,0.8-0.65
		c0.35-0.17,0.81-0.25,1.4-0.25H132.16z"/>
	<path class="st0" d="M5.93,119.48c0,0.29,0.05,0.48,0.16,0.58c0.11,0.1,0.26,0.14,0.45,0.14h6.88c0.29,0,0.54,0.09,0.74,0.27
		c0.21,0.18,0.31,0.44,0.31,0.78s-0.1,0.6-0.31,0.78c-0.21,0.18-0.45,0.27-0.74,0.27H6.19c-0.58,0-1.05-0.08-1.4-0.25
		c-0.35-0.17-0.62-0.39-0.8-0.65s-0.3-0.57-0.34-0.91c-0.05-0.34-0.07-0.68-0.07-1.01V95.57c0-0.34,0.02-0.68,0.07-1.01
		c0.05-0.34,0.16-0.64,0.34-0.91c0.18-0.26,0.45-0.48,0.8-0.65c0.35-0.17,0.81-0.25,1.4-0.25h6.52c0.29,0,0.54,0.09,0.74,0.27
		c0.21,0.18,0.31,0.44,0.31,0.78c0,0.34-0.1,0.6-0.31,0.78s-0.45,0.27-0.74,0.27H6.55c-0.19,0-0.34,0.05-0.45,0.15
		c-0.11,0.1-0.16,0.29-0.16,0.58v10.76h6.74c0.29,0,0.54,0.09,0.74,0.27c0.21,0.18,0.31,0.44,0.31,0.78c0,0.34-0.1,0.6-0.31,0.78
		c-0.21,0.18-0.45,0.27-0.74,0.27H5.93V119.48z M20.64,93.4c0-0.36,0.11-0.63,0.33-0.82c0.22-0.18,0.5-0.27,0.83-0.27
		c0.34,0,0.62,0.09,0.85,0.27C22.88,92.76,23,93.03,23,93.4v12.39h5.51V93.4c0-0.36,0.11-0.63,0.33-0.82
		c0.22-0.18,0.49-0.27,0.83-0.27c0.34,0,0.62,0.09,0.85,0.27c0.23,0.18,0.34,0.45,0.34,0.82v28.95c0,0.36-0.11,0.63-0.34,0.82
		c-0.23,0.18-0.51,0.27-0.85,0.27c-0.34,0-0.62-0.09-0.83-0.27c-0.22-0.18-0.33-0.45-0.33-0.82v-14.46H23v14.46
		c0,0.36-0.11,0.63-0.34,0.82c-0.23,0.18-0.51,0.27-0.85,0.27c-0.34,0-0.62-0.09-0.83-0.27c-0.22-0.18-0.33-0.45-0.33-0.82V93.4z"/>
	<path class="st0" d="M37.49,99.05c0-0.87,0.16-1.69,0.47-2.46c0.31-0.77,0.78-1.45,1.4-2.03c0.62-0.58,1.36-1.04,2.25-1.38
		c0.88-0.34,1.9-0.51,3.06-0.51c1.16,0,2.19,0.17,3.08,0.51c0.89,0.34,1.65,0.8,2.26,1.38c0.62,0.58,1.09,1.26,1.41,2.03
		s0.49,1.59,0.49,2.46v17.32c0,0.87-0.16,1.69-0.49,2.46s-0.8,1.45-1.41,2.03c-0.62,0.58-1.37,1.04-2.26,1.38
		c-0.89,0.34-1.92,0.51-3.08,0.51c-1.16,0-2.18-0.17-3.06-0.51c-0.88-0.34-1.63-0.8-2.25-1.38c-0.62-0.58-1.08-1.26-1.4-2.03
		c-0.31-0.77-0.47-1.59-0.47-2.46V99.05z M39.84,115.35c0,1.88,0.42,3.24,1.27,4.06c0.85,0.82,2.03,1.23,3.55,1.23
		c1.55,0,2.75-0.41,3.61-1.23c0.86-0.82,1.29-2.17,1.29-4.06v-15.29c0-1.88-0.43-3.24-1.29-4.06c-0.86-0.82-2.06-1.23-3.61-1.23
		c-1.52,0-2.71,0.41-3.55,1.23c-0.85,0.82-1.27,2.17-1.27,4.06V115.35z M55.06,106.47c0-0.34,0.1-0.6,0.31-0.78s0.45-0.27,0.74-0.27
		h6.27V93.4c0-0.36,0.11-0.63,0.33-0.82c0.22-0.18,0.5-0.27,0.83-0.27c0.34,0,0.62,0.09,0.85,0.27c0.23,0.18,0.34,0.45,0.34,0.82
		v28.95c0,0.36-0.12,0.63-0.34,0.82c-0.23,0.18-0.51,0.27-0.85,0.27c-0.34,0-0.62-0.09-0.83-0.27c-0.22-0.18-0.33-0.45-0.33-0.82
		v-14.82h-6.27c-0.29,0-0.54-0.09-0.74-0.27C55.17,107.07,55.06,106.81,55.06,106.47z"/>
	<path class="st0" d="M86.73,121.26c0,0.34-0.1,0.6-0.31,0.78c-0.21,0.18-0.45,0.27-0.74,0.27h-9.89c-0.58,0-1.04-0.08-1.4-0.25
		c-0.35-0.17-0.62-0.39-0.8-0.65s-0.3-0.57-0.34-0.91c-0.05-0.34-0.07-0.68-0.07-1.01V93.72c0-0.36,0.11-0.63,0.33-0.82
		s0.49-0.27,0.83-0.27c0.34,0,0.62,0.09,0.85,0.27c0.23,0.18,0.34,0.45,0.34,0.82v25.76c0,0.29,0.05,0.48,0.16,0.58
		c0.11,0.1,0.26,0.14,0.45,0.14h9.53c0.29,0,0.54,0.09,0.74,0.27C86.63,120.66,86.73,120.92,86.73,121.26z M103.65,106.84
		c0,0.34-0.1,0.6-0.31,0.78c-0.21,0.18-0.45,0.27-0.74,0.27h-5.18v14.46c0,0.36-0.11,0.63-0.34,0.82c-0.23,0.18-0.51,0.27-0.85,0.27
		s-0.62-0.09-0.83-0.27s-0.33-0.45-0.33-0.82V93.4c0-0.36,0.11-0.63,0.33-0.82s0.49-0.27,0.83-0.27s0.62,0.09,0.85,0.27
		c0.23,0.18,0.34,0.45,0.34,0.82v12.39h5.18c0.29,0,0.54,0.09,0.74,0.27C103.55,106.24,103.65,106.5,103.65,106.84z"/>
	<path class="st0" d="M136.33,108.97c0,0.34-0.1,0.6-0.31,0.78c-0.21,0.18-0.45,0.27-0.74,0.27h-28.99c-0.29,0-0.54-0.09-0.74-0.27
		c-0.21-0.18-0.31-0.44-0.31-0.78c0-0.34,0.1-0.6,0.31-0.78c0.21-0.18,0.45-0.27,0.74-0.27h28.99c0.29,0,0.54,0.09,0.74,0.27
		C136.23,108.38,136.33,108.64,136.33,108.97z M110.39,100.21c0,0.29,0.05,0.48,0.16,0.58c0.11,0.1,0.26,0.14,0.45,0.14h21.92
		c0.29,0,0.54,0.09,0.74,0.27c0.21,0.18,0.31,0.44,0.31,0.78s-0.1,0.6-0.31,0.78c-0.21,0.18-0.45,0.27-0.74,0.27h-22.28
		c-0.58,0-1.04-0.08-1.39-0.25c-0.35-0.17-0.62-0.39-0.8-0.65c-0.18-0.27-0.3-0.57-0.34-0.91c-0.05-0.34-0.07-0.68-0.07-1.01v-6.49
		c0-0.36,0.11-0.63,0.33-0.82c0.22-0.18,0.49-0.27,0.83-0.27c0.34,0,0.62,0.09,0.85,0.27c0.23,0.18,0.34,0.45,0.34,0.82V100.21z
		 M110.39,119.99c0,0.29,0.05,0.48,0.16,0.58c0.11,0.1,0.26,0.15,0.45,0.15h22.39c0.29,0,0.54,0.09,0.74,0.27
		c0.21,0.18,0.31,0.44,0.31,0.78c0,0.34-0.1,0.6-0.31,0.78c-0.21,0.18-0.45,0.27-0.74,0.27h-22.75c-0.58,0-1.04-0.09-1.39-0.25
		c-0.35-0.17-0.62-0.39-0.8-0.65s-0.3-0.57-0.34-0.91c-0.05-0.34-0.07-0.68-0.07-1.01v-5.07c0-0.36,0.11-0.63,0.33-0.82
		c0.22-0.18,0.49-0.27,0.83-0.27c0.34,0,0.62,0.09,0.85,0.27c0.23,0.18,0.34,0.45,0.34,0.82V119.99z"/>
	<path class="st0" d="M181.4,107.02c0,0.34-0.1,0.6-0.31,0.78s-0.45,0.27-0.74,0.27h-13.3V111c0,0.36-0.12,0.63-0.34,0.82
		s-0.51,0.27-0.85,0.27c-0.34,0-0.62-0.09-0.83-0.27c-0.22-0.18-0.33-0.45-0.33-0.82v-2.93h-13.33c-0.29,0-0.54-0.09-0.74-0.27
		s-0.31-0.44-0.31-0.78c0-0.34,0.1-0.6,0.31-0.78c0.21-0.18,0.45-0.27,0.74-0.27h28.99c0.29,0,0.54,0.09,0.74,0.27
		C181.3,106.42,181.4,106.68,181.4,107.02z M178.5,100.61c0.72,0.22,1.04,0.64,0.94,1.27c-0.02,0.34-0.16,0.61-0.4,0.8
		c-0.24,0.19-0.58,0.27-1.01,0.22c-1.59-0.22-3-0.45-4.22-0.71s-2.31-0.56-3.26-0.92c-0.96-0.36-1.81-0.82-2.55-1.36
		c-0.75-0.54-1.46-1.24-2.14-2.08c-0.65,0.85-1.35,1.55-2.1,2.12c-0.75,0.57-1.61,1.04-2.57,1.43s-2.06,0.7-3.28,0.94
		c-1.22,0.24-2.63,0.43-4.22,0.58c-0.43,0.05-0.77-0.03-1-0.24c-0.23-0.21-0.36-0.46-0.38-0.78c-0.07-0.68,0.25-1.09,0.98-1.23
		c1.45-0.12,2.82-0.31,4.11-0.56c1.29-0.25,2.44-0.61,3.44-1.07s1.83-1.03,2.48-1.7s1.07-1.5,1.27-2.46h-9.96
		c-0.29,0-0.54-0.09-0.74-0.27c-0.21-0.18-0.31-0.44-0.31-0.78c0-0.34,0.1-0.6,0.31-0.78c0.21-0.18,0.45-0.27,0.74-0.27h22.46
		c0.29,0,0.54,0.09,0.74,0.27c0.21,0.18,0.31,0.44,0.31,0.78c0,0.34-0.1,0.6-0.31,0.78c-0.21,0.18-0.45,0.27-0.74,0.27h-9.93
		c0.17,0.97,0.58,1.78,1.25,2.43c0.66,0.65,1.5,1.2,2.52,1.63c1.01,0.44,2.17,0.79,3.46,1.05
		C175.68,100.22,177.05,100.44,178.5,100.61z M179.19,118.14c0,1.81-0.57,3.04-1.72,3.7c-1.15,0.65-2.9,0.98-5.27,0.98h-12.61
		c-2.37,0-4.12-0.33-5.27-0.98s-1.72-1.88-1.72-3.7c0-1.81,0.57-3.04,1.72-3.7s2.9-0.98,5.27-0.98h12.61c2.37,0,4.12,0.33,5.27,0.98
		C178.62,115.1,179.19,116.33,179.19,118.14z M176.84,118.14c0-0.58-0.09-1.04-0.27-1.38c-0.18-0.34-0.47-0.6-0.87-0.78
		s-0.93-0.3-1.59-0.34c-0.67-0.05-1.47-0.07-2.41-0.07H160.1c-0.94,0-1.75,0.02-2.41,0.07c-0.66,0.05-1.2,0.16-1.59,0.34
		s-0.69,0.44-0.87,0.78s-0.27,0.8-0.27,1.38c0,0.58,0.09,1.04,0.27,1.38c0.18,0.34,0.47,0.6,0.87,0.78s0.93,0.3,1.59,0.34
		c0.66,0.05,1.47,0.07,2.41,0.07h11.59c0.94,0,1.75-0.03,2.41-0.07c0.66-0.05,1.2-0.16,1.59-0.34s0.69-0.44,0.87-0.78
		C176.75,119.18,176.84,118.72,176.84,118.14z"/>
	<path class="st0" d="M196.29,118.54c0-0.7,0.24-1.29,0.71-1.76s1.06-0.71,1.76-0.71s1.29,0.24,1.78,0.71s0.72,1.06,0.72,1.76
		c0,0.7-0.24,1.28-0.72,1.74s-1.08,0.69-1.78,0.69s-1.29-0.23-1.76-0.69S196.29,119.24,196.29,118.54z"/>
	<path class="st0" d="M217.09,118.54c0-0.7,0.24-1.29,0.71-1.76s1.06-0.71,1.76-0.71s1.29,0.24,1.78,0.71s0.72,1.06,0.72,1.76
		c0,0.7-0.24,1.28-0.72,1.74s-1.08,0.69-1.78,0.69s-1.29-0.23-1.76-0.69S217.09,119.24,217.09,118.54z"/>
	<path class="st0" d="M237.89,118.54c0-0.7,0.24-1.29,0.71-1.76c0.47-0.47,1.06-0.71,1.76-0.71c0.7,0,1.29,0.24,1.78,0.71
		c0.48,0.47,0.72,1.06,0.72,1.76c0,0.7-0.24,1.28-0.72,1.74c-0.48,0.46-1.07,0.69-1.78,0.69c-0.7,0-1.29-0.23-1.76-0.69
		C238.12,119.82,237.89,119.24,237.89,118.54z"/>
</g>
</svg>
