<?xml version="1.0" encoding="utf-8"?>
<!-- Generator: Adobe Illustrator 27.0.0, SVG Export Plug-In . SVG Version: 6.00 Build 0)  -->
<svg version="1.1" id="레이어_1" xmlns="http://www.w3.org/2000/svg" xmlns:xlink="http://www.w3.org/1999/xlink" x="0px"
	 y="0px" viewBox="0 0 1400 325.35" style="enable-background:new 0 0 1400 325.35;" xml:space="preserve">
<style type="text/css">
	.st0{fill:#FFFFFF;}
</style>
<g>
	<g>
		<path class="st0" d="M39.13,101.32c-7.41,0-14.07-1.69-19.98-5.07s-10.58-7.99-14-13.86C1.71,76.54,0,69.9,0,62.48V1.4h16.18
			v60.94c0,4.79,1.01,8.93,3.02,12.46c2.02,3.51,4.76,6.24,8.23,8.16c3.47,1.92,7.36,2.88,11.68,2.88c4.41,0,8.3-0.97,11.68-2.88
			s6.05-4.65,8.02-8.16s2.95-7.62,2.95-12.31V1.4h16.18v61.22c0,7.41-1.69,14.03-5.07,19.84c-3.37,5.82-7.98,10.42-13.79,13.79
			C53.28,99.64,46.63,101.32,39.13,101.32z"/>
		<path class="st0" d="M96.11,99.92V32.37h15.48v67.55H96.11z M142.42,99.92V60.94c0-4.51-1.43-8.2-4.3-11.12
			c-2.86-2.91-6.54-4.37-11.05-4.37c-3.01,0-5.68,0.66-8.02,1.97c-2.35,1.32-4.17,3.15-5.49,5.49c-1.32,2.35-1.97,5.03-1.97,8.02
			l-6.05-3.37c0-5.15,1.12-9.73,3.37-13.72c2.25-3.99,5.36-7.13,9.35-9.42c3.99-2.3,8.47-3.44,13.44-3.44
			c5.07,0,9.56,1.29,13.51,3.86s7.04,5.91,9.28,10c2.24,4.09,3.37,8.33,3.37,12.74v42.36h-15.46V99.92z"/>
		<path class="st0" d="M181.54,19.98c-2.63,0-4.8-0.9-6.54-2.67c-1.74-1.78-2.6-3.99-2.6-6.61c0-2.63,0.87-4.83,2.6-6.61
			c1.74-1.78,3.92-2.67,6.54-2.67c2.72,0,4.93,0.9,6.61,2.67c1.69,1.78,2.53,3.99,2.53,6.61c0,2.63-0.84,4.83-2.53,6.61
			C186.47,19.1,184.25,19.98,181.54,19.98z M173.8,99.92V32.37h15.48v67.55H173.8z"/>
		<path class="st0" d="M229.39,99.92l-30.81-67.55h17.16l23.51,55.02h-10.14l23.65-55.02h16.46l-30.81,67.55
			C238.41,99.92,229.39,99.92,229.39,99.92z"/>
		<path class="st0" d="M309.74,101.32c-6.76,0-12.84-1.53-18.23-4.58c-5.39-3.05-9.66-7.25-12.81-12.6
			c-3.15-5.35-4.72-11.35-4.72-18.02s1.55-12.64,4.65-17.95c3.09-5.31,7.29-9.51,12.6-12.6c5.31-3.09,11.19-4.65,17.67-4.65
			c6.29,0,11.84,1.46,16.67,4.37c4.83,2.91,8.64,6.9,11.4,11.96c2.77,5.07,4.16,10.84,4.16,17.3c0,1.12-0.07,2.27-0.21,3.44
			c-0.14,1.18-0.35,2.46-0.63,3.86h-55.44V59.19h47.43l-5.77,5.07c-0.18-4.13-0.98-7.6-2.39-10.42c-1.41-2.81-3.4-4.97-5.98-6.47
			c-2.58-1.5-5.75-2.25-9.51-2.25c-3.93,0-7.36,0.84-10.28,2.53c-2.91,1.69-5.17,4.06-6.75,7.11c-1.6,3.05-2.39,6.68-2.39,10.91
			c0,4.23,0.84,7.92,2.53,11.12c1.69,3.19,4.09,5.66,7.18,7.39c3.09,1.74,6.66,2.6,10.7,2.6c3.47,0,6.68-0.6,9.65-1.83
			c2.95-1.22,5.46-3,7.53-5.35l9.86,10c-3.29,3.85-7.27,6.76-11.96,8.72C319.97,100.34,314.99,101.32,309.74,101.32z"/>
		<path class="st0" d="M353.5,99.92V32.37h15.48v67.55H353.5z M368.98,62.34l-5.35-2.67c0-8.54,1.9-15.46,5.7-20.76
			s9.55-7.95,17.23-7.95c3.37,0,6.43,0.62,9.14,1.83s5.25,3.19,7.6,5.91l-10.14,10.42c-1.22-1.32-2.58-2.25-4.09-2.81
			c-1.5-0.56-3.23-0.84-5.21-0.84c-4.31,0-7.88,1.36-10.7,4.09C370.4,52.26,368.98,56.53,368.98,62.34z"/>
		<path class="st0" d="M435.41,101.32c-3.75,0-7.36-0.49-10.84-1.47c-3.47-0.98-6.66-2.39-9.58-4.23c-2.91-1.83-5.45-4.06-7.6-6.69
			l9.86-9.86c2.34,2.72,5.04,4.76,8.09,6.12c3.05,1.36,6.5,2.04,10.35,2.04c3.47,0,6.1-0.52,7.88-1.55
			c1.78-1.04,2.67-2.53,2.67-4.51c0-2.06-0.84-3.65-2.53-4.79c-1.69-1.12-3.86-2.09-6.54-2.88c-2.67-0.8-5.49-1.62-8.44-2.46
			c-2.95-0.84-5.77-1.99-8.44-3.44s-4.86-3.44-6.54-5.98c-1.68-2.53-2.53-5.81-2.53-9.86c0-4.31,1.01-8.02,3.02-11.12
			s4.87-5.49,8.58-7.18c3.71-1.69,8.13-2.53,13.3-2.53c5.45,0,10.25,0.97,14.42,2.88s7.67,4.8,10.49,8.65l-9.86,9.86
			c-1.97-2.44-4.23-4.27-6.76-5.49c-2.53-1.22-5.45-1.83-8.72-1.83c-3.09,0-5.49,0.48-7.18,1.41c-1.69,0.94-2.53,2.3-2.53,4.09
			c0,1.88,0.84,3.33,2.53,4.37c1.69,1.04,3.86,1.92,6.54,2.67s5.49,1.57,8.44,2.46c2.95,0.9,5.77,2.11,8.44,3.65
			c2.67,1.54,4.86,3.61,6.54,6.19c1.69,2.58,2.53,5.94,2.53,10.07c0,6.57-2.3,11.77-6.9,15.62
			C449.53,99.4,443.3,101.32,435.41,101.32z"/>
		<path class="st0" d="M505.2,101.32c-6.76,0-12.84-1.53-18.23-4.58c-5.39-3.05-9.66-7.25-12.81-12.6
			c-3.15-5.35-4.72-11.35-4.72-18.02s1.55-12.64,4.65-17.95c3.09-5.31,7.29-9.51,12.6-12.6c5.31-3.09,11.19-4.65,17.67-4.65
			c6.29,0,11.84,1.46,16.67,4.37s8.64,6.9,11.4,11.96c2.77,5.07,4.16,10.84,4.16,17.3c0,1.12-0.07,2.27-0.21,3.44
			c-0.14,1.18-0.35,2.46-0.63,3.86h-55.44V59.19h47.43l-5.77,5.07c-0.18-4.13-0.98-7.6-2.39-10.42c-1.41-2.81-3.4-4.97-5.98-6.47
			s-5.75-2.25-9.51-2.25c-3.93,0-7.36,0.84-10.28,2.53s-5.17,4.06-6.75,7.11c-1.6,3.05-2.39,6.68-2.39,10.91
			c0,4.23,0.84,7.92,2.53,11.12c1.69,3.19,4.09,5.66,7.18,7.39s6.66,2.6,10.7,2.6c3.47,0,6.68-0.6,9.65-1.83
			c2.95-1.22,5.46-3,7.53-5.35l9.86,10c-3.29,3.85-7.27,6.76-11.96,8.72C515.44,100.34,510.47,101.32,505.2,101.32z"/>
		<path class="st0" d="M606.68,101.32c-7.78,0-14.41-1.4-19.84-4.23c-5.45-2.81-10.32-6.94-14.63-12.39l10.98-10.98
			c2.72,3.93,5.95,7.01,9.72,9.21c3.75,2.21,8.54,3.3,14.35,3.3c5.45,0,9.79-1.12,13.02-3.37c3.23-2.25,4.86-5.35,4.86-9.28
			c0-3.29-0.84-5.95-2.53-8.02c-1.69-2.06-3.92-3.78-6.68-5.14c-2.77-1.36-5.82-2.58-9.14-3.65c-3.33-1.08-6.66-2.3-10-3.65
			c-3.33-1.36-6.38-3.07-9.14-5.14c-2.77-2.06-5-4.73-6.68-8.02c-1.68-3.29-2.53-7.46-2.53-12.53c0-5.81,1.43-10.77,4.3-14.85
			c2.86-4.09,6.73-7.2,11.61-9.35C599.17,1.08,604.6,0,610.61,0c6.47,0,12.26,1.26,17.37,3.79s9.27,5.77,12.46,9.72l-10.98,10.98
			c-2.81-3.19-5.75-5.56-8.79-7.11c-3.05-1.55-6.54-2.32-10.49-2.32c-4.89,0-8.71,0.98-11.47,2.95c-2.77,1.97-4.14,4.73-4.14,8.3
			c0,3.01,0.84,5.42,2.53,7.25s3.92,3.37,6.69,4.65c2.77,1.26,5.81,2.46,9.14,3.58c3.33,1.12,6.66,2.39,10,3.79
			c3.33,1.4,6.38,3.22,9.14,5.42c2.77,2.21,5,5.04,6.68,8.51c1.69,3.47,2.53,7.84,2.53,13.09c0,8.82-3.12,15.81-9.35,20.97
			C625.69,98.74,617.27,101.32,606.68,101.32z"/>
		<path class="st0" d="M649.46,46.44V32.37h47.85v14.07C697.31,46.44,649.46,46.44,649.46,46.44z M665.64,99.92V4.23h15.48v95.69
			C681.13,99.92,665.64,99.92,665.64,99.92z"/>
		<path class="st0" d="M736.85,101.32c-6.1,0-11.61-1.55-16.53-4.65c-4.93-3.09-8.82-7.29-11.68-12.6
			c-2.86-5.31-4.3-11.23-4.3-17.81c0-6.66,1.43-12.64,4.3-17.95c2.86-5.31,6.76-9.52,11.68-12.67c4.93-3.14,10.43-4.72,16.53-4.72
			c5.17,0,9.73,1.11,13.72,3.3c3.99,2.21,7.15,5.24,9.51,9.07c2.34,3.85,3.51,8.22,3.51,13.09v19.42c0,4.89-1.15,9.24-3.44,13.09
			c-2.3,3.85-5.47,6.87-9.51,9.07C746.61,100.23,742,101.32,736.85,101.32z M739.38,86.69c5.73,0,10.35-1.92,13.86-5.77
			c3.51-3.85,5.28-8.78,5.28-14.77c0-4.03-0.8-7.6-2.39-10.7c-1.6-3.09-3.82-5.52-6.68-7.25c-2.86-1.74-6.22-2.6-10.07-2.6
			c-3.75,0-7.06,0.87-9.93,2.6c-2.86,1.74-5.11,4.16-6.75,7.25c-1.64,3.09-2.46,6.66-2.46,10.7s0.83,7.6,2.46,10.7
			c1.64,3.09,3.89,5.52,6.75,7.25C732.31,85.82,735.63,86.69,739.38,86.69z M757.54,99.92V81.76l2.66-16.46l-2.67-16.32v-16.6h15.48
			v67.55H757.54z"/>
		<path class="st0" d="M784.27,46.44V32.37h47.85v14.07C832.12,46.44,784.27,46.44,784.27,46.44z M800.45,99.92V4.23h15.48v95.69
			C815.93,99.92,800.45,99.92,800.45,99.92z"/>
		<path class="st0" d="M851.26,19.98c-2.63,0-4.8-0.9-6.54-2.67c-1.74-1.78-2.6-3.99-2.6-6.61c0-2.63,0.87-4.83,2.6-6.61
			c1.74-1.78,3.92-2.67,6.54-2.67c2.72,0,4.93,0.9,6.61,2.67c1.69,1.78,2.53,3.99,2.53,6.61c0,2.63-0.84,4.83-2.53,6.61
			C856.18,19.1,853.97,19.98,851.26,19.98z M843.51,99.92V32.37H859v67.55H843.51z"/>
		<path class="st0" d="M907.27,101.32c-6.57,0-12.53-1.57-17.88-4.72c-5.35-3.14-9.59-7.39-12.74-12.74
			c-3.15-5.35-4.72-11.31-4.72-17.88s1.57-12.47,4.72-17.74c3.15-5.25,7.39-9.45,12.74-12.6c5.35-3.14,11.3-4.72,17.88-4.72
			c6.66,0,12.67,1.55,18.02,4.65c5.35,3.09,9.59,7.29,12.74,12.6c3.14,5.31,4.72,11.24,4.72,17.81c0,6.57-1.57,12.53-4.72,17.88
			c-3.15,5.35-7.39,9.59-12.74,12.74C919.93,99.75,913.92,101.32,907.27,101.32z M907.27,86.41c3.85,0,7.25-0.87,10.21-2.6
			s5.25-4.14,6.89-7.25c1.64-3.09,2.46-6.61,2.46-10.56s-0.84-7.41-2.53-10.42c-1.69-3-3.99-5.36-6.9-7.11
			c-2.91-1.74-6.29-2.6-10.14-2.6c-3.75,0-7.11,0.87-10.07,2.6c-2.95,1.74-5.25,4.1-6.89,7.11c-1.64,3.01-2.46,6.47-2.46,10.42
			s0.83,7.46,2.46,10.56c1.64,3.09,3.93,5.52,6.89,7.25C900.16,85.54,903.5,86.41,907.27,86.41z"/>
		<path class="st0" d="M955.53,99.92V32.37h15.48v67.55H955.53z M1001.83,99.92V60.94c0-4.51-1.43-8.2-4.3-11.12
			c-2.86-2.91-6.54-4.37-11.05-4.37c-3.01,0-5.68,0.66-8.02,1.97c-2.35,1.32-4.17,3.15-5.49,5.49c-1.32,2.35-1.97,5.03-1.97,8.02
			l-6.05-3.37c0-5.15,1.12-9.73,3.37-13.72s5.36-7.13,9.35-9.42c3.99-2.3,8.47-3.44,13.44-3.44c5.07,0,9.56,1.29,13.51,3.86
			s7.04,5.91,9.28,10c2.24,4.09,3.37,8.33,3.37,12.74v42.36h-15.46V99.92z"/>
		<path class="st0" d="M1064.45,101.32c-6.76,0-12.84-1.53-18.23-4.58c-5.39-3.05-9.66-7.25-12.81-12.6
			c-3.15-5.35-4.72-11.35-4.72-18.02s1.55-12.64,4.65-17.95s7.29-9.51,12.6-12.6c5.31-3.09,11.19-4.65,17.67-4.65
			c6.29,0,11.84,1.46,16.67,4.37s8.64,6.9,11.4,11.96c2.77,5.07,4.16,10.84,4.16,17.3c0,1.12-0.07,2.27-0.21,3.44
			s-0.35,2.46-0.63,3.86h-55.44V59.19h47.43l-5.77,5.07c-0.18-4.13-0.98-7.6-2.39-10.42c-1.41-2.81-3.4-4.97-5.98-6.47
			c-2.58-1.5-5.75-2.25-9.51-2.25c-3.93,0-7.36,0.84-10.28,2.53c-2.91,1.69-5.17,4.06-6.75,7.11c-1.6,3.05-2.39,6.68-2.39,10.91
			c0,4.23,0.84,7.92,2.53,11.12c1.69,3.19,4.09,5.66,7.18,7.39c3.09,1.74,6.66,2.6,10.7,2.6c3.47,0,6.68-0.6,9.65-1.83
			c2.95-1.22,5.46-3,7.53-5.35l9.86,10c-3.29,3.85-7.27,6.76-11.96,8.72C1074.68,100.34,1069.71,101.32,1064.45,101.32z"/>
		<path class="st0" d="M1108.23,99.92V32.37h15.48v67.55H1108.23z M1123.7,62.34l-5.35-2.67c0-8.54,1.9-15.46,5.7-20.76
			s9.55-7.95,17.23-7.95c3.37,0,6.43,0.62,9.14,1.83c2.72,1.22,5.25,3.19,7.6,5.91l-10.14,10.42c-1.22-1.32-2.58-2.25-4.09-2.81
			c-1.5-0.56-3.23-0.84-5.21-0.84c-4.31,0-7.88,1.36-10.7,4.09C1125.11,52.26,1123.7,56.53,1123.7,62.34z"/>
		<path class="st0" d="M1189.85,100.62l-28.85-68.25h17.02l19.7,50.11h-4.91l20.83-50.11h17.16l-31.39,68.25H1189.85z
			 M1169.71,128.06l20.97-43.2l8.72,15.76l-12.53,27.44H1169.71z"/>
	</g>
	<g>
		<path class="st0" d="M101.19,194.21l-8.01,7.83l26.98,27.59h-84c-13.76,0-24.95-11.19-24.95-24.95c0-13.76,11.2-24.95,24.95-24.95
			h19.75v-11.2H36.15C16.21,168.52,0,184.74,0,204.67s16.21,36.15,36.15,36.15h85.06l-27.17,31.46l8.47,7.32l38.53-44.6
			L101.19,194.21z"/>
	</g>
	<g>
		<path class="st0" d="M195.02,255.93c-3.85,0-7.17-0.71-9.93-2.14c-2.76-1.43-5.17-3.47-7.21-6.15l3.64-3.57
			c1.67,2.34,3.61,4.07,5.82,5.21c2.21,1.15,4.84,1.71,7.88,1.71c3.14,0,5.67-0.71,7.6-2.14c1.93-1.43,2.9-3.4,2.9-5.92
			c0-1.95-0.43-3.56-1.32-4.82c-0.88-1.26-2.06-2.28-3.53-3.07s-3.08-1.48-4.82-2.1s-3.49-1.27-5.25-1.96s-3.36-1.55-4.82-2.58
			c-1.46-1.02-2.63-2.35-3.53-4c-0.91-1.64-1.36-3.72-1.36-6.24c0-2.66,0.64-4.96,1.93-6.86c1.29-1.9,3.05-3.36,5.32-4.4
			c2.25-1.02,4.82-1.54,7.67-1.54c3.19,0,6.03,0.62,8.53,1.86c2.51,1.23,4.58,2.9,6.24,5l-3.64,3.64c-1.53-1.85-3.19-3.25-5-4.17
			c-1.81-0.92-3.91-1.39-6.29-1.39c-2.86,0-5.14,0.67-6.86,2c-1.72,1.33-2.56,3.19-2.56,5.57c0,1.81,0.43,3.29,1.32,4.42
			c0.88,1.13,2.06,2.1,3.53,2.86s3.08,1.44,4.82,2.03c1.74,0.6,3.49,1.25,5.25,1.96s3.36,1.62,4.82,2.72
			c1.46,1.09,2.63,2.49,3.53,4.17c0.91,1.69,1.36,3.85,1.36,6.47c0,4.24-1.44,7.53-4.31,9.88
			C203.88,254.76,199.98,255.93,195.02,255.93z"/>
		<path class="st0" d="M215.08,226.24v-4.56h21.91v4.56H215.08z M223.51,255.23v-47.68h5.07v47.68H223.51z"/>
		<path class="st0" d="M257.63,255.93c-3.28,0-6.23-0.78-8.85-2.35c-2.62-1.57-4.7-3.68-6.24-6.36s-2.32-5.64-2.32-8.92
			c0-3.23,0.77-6.16,2.32-8.78s3.63-4.7,6.24-6.24c2.62-1.54,5.57-2.32,8.85-2.32c3.23,0,6.17,0.76,8.82,2.28
			c2.65,1.53,4.73,3.61,6.29,6.24c1.54,2.65,2.32,5.59,2.32,8.82c0,3.33-0.77,6.31-2.32,8.96c-1.55,2.65-3.64,4.75-6.29,6.31
			S260.86,255.93,257.63,255.93z M257.63,251.09c2.34,0,4.42-0.55,6.29-1.64s3.3-2.62,4.35-4.56c1.05-1.95,1.57-4.14,1.57-6.57
			c0-2.38-0.53-4.51-1.61-6.38c-1.06-1.88-2.52-3.36-4.35-4.47c-1.83-1.09-3.92-1.64-6.24-1.64c-2.34,0-4.42,0.55-6.29,1.64
			s-3.3,2.59-4.35,4.47c-1.05,1.88-1.57,4.02-1.57,6.38c0,2.48,0.52,4.68,1.57,6.59c1.05,1.93,2.49,3.44,4.35,4.54
			C253.2,250.54,255.29,251.09,257.63,251.09z"/>
		<path class="st0" d="M281.47,255.23v-33.54h5.07v33.54H281.47z M286.54,235.66l-2.07-0.85c0-4.28,1.04-7.66,3.11-10.14
			c2.07-2.48,4.91-3.71,8.53-3.71c1.67,0,3.19,0.29,4.56,0.9c1.39,0.6,2.66,1.54,3.85,2.81l-3.36,3.5c-0.76-0.85-1.62-1.47-2.6-1.86
			c-0.98-0.38-2.09-0.57-3.32-0.57c-2.58,0-4.66,0.84-6.29,2.51C287.35,229.91,286.54,232.39,286.54,235.66z"/>
		<path class="st0" d="M320.87,255.44l-14.77-33.77h5.57l11.84,28.13h-2.07l12.42-28.13h5.64l-15.78,33.77H320.87z M311.67,269.36
			l9.28-19.07l2.79,5.14l-6.5,13.92h-5.57V269.36z"/>
		<path class="st0" d="M344.57,255.23v-33.54h5.07v33.54H344.57z M369.05,255.23v-19.7c0-2.9-0.88-5.26-2.65-7.1
			c-1.76-1.83-4.07-2.74-6.93-2.74c-1.9,0-3.6,0.42-5.07,1.25c-1.47,0.83-2.65,1.99-3.5,3.46s-1.29,3.16-1.29,5.07l-2.28-1.29
			c0-2.52,0.59-4.79,1.78-6.78c1.19-1.99,2.81-3.57,4.86-4.72c2.04-1.13,4.35-1.71,6.93-1.71c2.58,0,4.86,0.62,6.86,1.86
			c2,1.23,3.56,2.9,4.68,5c1.12,2.1,1.68,4.38,1.68,6.85v20.57h-5.07V255.23z"/>
		<path class="st0" d="M396.54,255.93c-3.14,0-5.98-0.77-8.5-2.32c-2.52-1.54-4.52-3.63-5.99-6.24c-1.47-2.62-2.21-5.57-2.21-8.85
			c0-3.33,0.74-6.31,2.21-8.96c1.47-2.65,3.46-4.73,5.96-6.29c2.49-1.54,5.32-2.32,8.46-2.32c2.58,0,4.87,0.52,6.89,1.54
			c2.03,1.02,3.68,2.45,4.96,4.28c1.29,1.83,2.04,3.96,2.28,6.38v10.5c-0.28,2.42-1.06,4.56-2.32,6.43
			c-1.26,1.86-2.9,3.29-4.89,4.33C401.39,255.43,399.11,255.93,396.54,255.93z M397.32,251.16c3.53,0,6.33-1.16,8.43-3.5
			c2.1-2.32,3.14-5.4,3.14-9.21c0-2.52-0.48-4.73-1.43-6.64s-2.31-3.39-4.07-4.47c-1.76-1.06-3.81-1.61-6.15-1.61
			c-2.34,0-4.41,0.55-6.24,1.64c-1.83,1.09-3.29,2.59-4.35,4.49c-1.06,1.9-1.61,4.09-1.61,6.57c0,2.48,0.53,4.66,1.61,6.57
			c1.08,1.9,2.53,3.4,4.4,4.49C392.9,250.61,395,251.16,397.32,251.16z M408.6,255.23v-9l0.99-8.27l-0.99-8.06v-8.2h5.07v33.54
			H408.6z"/>
		<path class="st0" d="M419.02,226.24v-4.56h21.91v4.56H419.02z M427.45,255.23v-47.68h5.07v47.68H427.45z"/>
		<path class="st0" d="M448.87,214.47c-0.95,0-1.76-0.35-2.42-1.06c-0.67-0.71-0.99-1.55-0.99-2.51c0-0.99,0.34-1.83,0.99-2.49
			c0.67-0.67,1.47-0.99,2.42-0.99c1.05,0,1.89,0.34,2.53,0.99c0.64,0.67,0.97,1.5,0.97,2.49c0,0.95-0.32,1.78-0.97,2.51
			C450.76,214.12,449.9,214.47,448.87,214.47z M446.36,255.23v-33.54h5.07v33.54H446.36z"/>
		<path class="st0" d="M475.34,255.93c-3.28,0-6.23-0.78-8.85-2.35s-4.7-3.68-6.24-6.36s-2.32-5.64-2.32-8.92
			c0-3.23,0.77-6.16,2.32-8.78s3.63-4.7,6.24-6.24s5.57-2.32,8.85-2.32c3.23,0,6.17,0.76,8.82,2.28c2.65,1.53,4.73,3.61,6.29,6.24
			c1.54,2.65,2.32,5.59,2.32,8.82c0,3.33-0.77,6.31-2.32,8.96c-1.55,2.65-3.64,4.75-6.29,6.31
			C481.52,255.15,478.58,255.93,475.34,255.93z M475.34,251.09c2.34,0,4.42-0.55,6.29-1.64c1.86-1.09,3.3-2.62,4.35-4.56
			s1.57-4.14,1.57-6.57c0-2.38-0.53-4.51-1.61-6.38c-1.06-1.88-2.52-3.36-4.35-4.47c-1.83-1.09-3.92-1.64-6.24-1.64
			c-2.34,0-4.42,0.55-6.29,1.64c-1.86,1.09-3.3,2.59-4.35,4.47c-1.05,1.88-1.57,4.02-1.57,6.38c0,2.48,0.52,4.68,1.57,6.59
			c1.05,1.93,2.49,3.44,4.35,4.54C470.92,250.54,473.02,251.09,475.34,251.09z"/>
		<path class="st0" d="M499.18,255.23v-33.54h5.07v33.54H499.18z M523.67,255.23v-19.7c0-2.9-0.88-5.26-2.65-7.1
			c-1.76-1.83-4.07-2.74-6.93-2.74c-1.9,0-3.6,0.42-5.07,1.25c-1.47,0.83-2.65,1.99-3.5,3.46c-0.85,1.47-1.29,3.16-1.29,5.07
			l-2.28-1.29c0-2.52,0.59-4.79,1.78-6.78c1.19-1.99,2.81-3.57,4.86-4.72c2.04-1.13,4.35-1.71,6.93-1.71s4.86,0.62,6.86,1.86
			c2,1.23,3.56,2.9,4.68,5c1.12,2.1,1.68,4.38,1.68,6.85v20.57h-5.07V255.23z"/>
		<path class="st0" d="M569.72,255.93c-3.57,0-6.75-0.8-9.53-2.39c-2.79-1.6-4.98-3.78-6.61-6.57c-1.62-2.79-2.42-5.91-2.42-9.38
			v-31.49h5.28v31.19c0,2.76,0.59,5.17,1.75,7.21c1.16,2.04,2.74,3.61,4.75,4.72c2,1.11,4.26,1.64,6.78,1.64
			c2.52,0,4.77-0.55,6.75-1.64s3.53-2.66,4.68-4.72c1.15-2.06,1.71-4.42,1.71-7.14v-31.26h5.28v31.56c0,3.47-0.8,6.59-2.39,9.35
			c-1.6,2.76-3.78,4.94-6.57,6.52C576.39,255.15,573.23,255.93,569.72,255.93z"/>
		<path class="st0" d="M594.92,255.23l19.35-25.91l3.5,3.14l-16.84,22.78L594.92,255.23L594.92,255.23z M632.39,255.23l-16.27-23.06
			h-0.99l-19.35-26.05h6.29l15.99,21.63h0.92l19.63,27.48H632.39z M619.4,231.31l-3.43-3.21l15.92-21.98h5.92L619.4,231.31z"/>
		<path class="st0" d="M641.17,258.08l19.63-54.6h4.72l-19.56,54.61h-4.79V258.08z"/>
		<path class="st0" d="M689.71,255.93c-3.57,0-6.75-0.8-9.53-2.39c-2.79-1.6-4.98-3.78-6.61-6.57s-2.42-5.91-2.42-9.38v-31.49h5.28
			v31.19c0,2.76,0.59,5.17,1.75,7.21c1.16,2.04,2.74,3.61,4.75,4.72s4.26,1.64,6.78,1.64s4.77-0.55,6.75-1.64s3.53-2.66,4.68-4.72
			c1.15-2.06,1.71-4.42,1.71-7.14v-31.26h5.28v31.56c0,3.47-0.8,6.59-2.39,9.35c-1.6,2.76-3.78,4.94-6.57,6.52
			C696.39,255.15,693.22,255.93,689.71,255.93z"/>
		<path class="st0" d="M718.55,255.23v-49.11h5.28v49.11H718.55z"/>
		<path class="st0" d="M748.82,255.23v-49.11h5.28v49.11H748.82z M752.09,255.23v-4.86h14.42c3.85,0,7.25-0.84,10.21-2.53
			s5.25-4.02,6.89-7c1.64-2.97,2.46-6.38,2.46-10.25c0-3.81-0.83-7.2-2.49-10.18c-1.67-2.97-3.98-5.29-6.93-6.96
			s-6.33-2.51-10.14-2.51h-14.28v-4.86h14.42c3.57,0,6.86,0.6,9.88,1.82c3.02,1.22,5.66,2.93,7.92,5.14c2.25,2.21,4,4.8,5.25,7.78
			s1.86,6.24,1.86,9.81c0,3.47-0.62,6.71-1.86,9.72c-1.23,3-2.97,5.6-5.21,7.81c-2.24,2.21-4.87,3.93-7.88,5.18
			c-3.02,1.23-6.3,1.86-9.81,1.86h-14.71V255.23z"/>
		<path class="st0" d="M814.42,255.93c-3.33,0-6.33-0.76-8.99-2.28c-2.66-1.53-4.77-3.61-6.31-6.29c-1.54-2.66-2.32-5.66-2.32-8.99
			c0-3.29,0.76-6.24,2.25-8.89c1.5-2.63,3.56-4.72,6.17-6.24c2.62-1.53,5.54-2.28,8.78-2.28c3.09,0,5.82,0.69,8.18,2.07
			c2.35,1.39,4.21,3.29,5.57,5.74c1.36,2.45,2.03,5.28,2.03,8.46c0,0.38-0.03,0.83-0.07,1.32c-0.04,0.49-0.14,1.08-0.28,1.75h-29.05
			v-4.28h26.26l-1.78,1.57c0.04-2.42-0.36-4.54-1.25-6.31s-2.14-3.18-3.78-4.17c-1.64-0.99-3.61-1.5-5.89-1.5
			c-2.42,0-4.55,0.53-6.36,1.61c-1.81,1.08-3.22,2.55-4.24,4.42c-1.02,1.88-1.54,4.07-1.54,6.59c0,2.58,0.53,4.83,1.61,6.79
			c1.06,1.95,2.58,3.47,4.49,4.56c1.93,1.09,4.14,1.64,6.68,1.64c2,0,3.85-0.36,5.57-1.11c1.71-0.74,3.16-1.85,4.35-3.32l3.29,3.29
			c-1.57,1.9-3.53,3.36-5.85,4.35C819.57,255.44,817.08,255.93,814.42,255.93z"/>
		<path class="st0" d="M846.26,255.93c-1.81,0-3.54-0.25-5.21-0.76c-1.67-0.5-3.18-1.2-4.54-2.1c-1.36-0.91-2.56-1.97-3.61-3.21
			l3.29-3.29c1.33,1.62,2.84,2.81,4.54,3.6c1.69,0.78,3.58,1.18,5.67,1.18c2.18,0,3.92-0.43,5.18-1.29
			c1.26-0.85,1.89-2.04,1.89-3.57c0-1.43-0.43-2.53-1.32-3.32s-2.03-1.43-3.46-1.93c-1.43-0.5-2.93-0.98-4.49-1.43
			s-3.05-1.02-4.47-1.71c-1.4-0.69-2.56-1.64-3.46-2.86c-0.91-1.22-1.36-2.84-1.36-4.89c0-1.9,0.48-3.56,1.43-4.96
			c0.95-1.4,2.28-2.49,4-3.28c1.71-0.78,3.78-1.18,6.22-1.18c2.52,0,4.8,0.45,6.86,1.36c2.04,0.91,3.68,2.24,4.93,4l-3.29,3.29
			c-0.95-1.29-2.18-2.28-3.68-3c-1.5-0.71-3.18-1.06-5.03-1.06c-2.14,0-3.77,0.42-4.89,1.25c-1.12,0.84-1.68,1.92-1.68,3.25
			c0,1.29,0.45,2.3,1.36,3.04c0.91,0.74,2.06,1.33,3.46,1.78c1.4,0.45,2.88,0.91,4.47,1.36c1.57,0.45,3.07,1.05,4.49,1.79
			c1.43,0.74,2.58,1.74,3.46,3s1.32,2.97,1.32,5.1c0,3-1.08,5.39-3.25,7.17C852.91,255.05,849.97,255.93,846.26,255.93z"/>
		<path class="st0" d="M867.31,214.47c-0.95,0-1.76-0.35-2.42-1.06c-0.67-0.71-0.99-1.55-0.99-2.51c0-0.99,0.34-1.83,0.99-2.49
			c0.67-0.67,1.47-0.99,2.42-0.99c1.05,0,1.89,0.34,2.53,0.99c0.64,0.67,0.97,1.5,0.97,2.49c0,0.95-0.32,1.78-0.97,2.51
			C869.2,214.12,868.36,214.47,867.31,214.47z M864.81,255.23v-33.54h5.07v33.54H864.81z"/>
		<path class="st0" d="M892.79,254.87c-3.14,0-5.95-0.74-8.43-2.21s-4.42-3.5-5.85-6.06c-1.43-2.56-2.14-5.47-2.14-8.71
			s0.71-6.13,2.14-8.68c1.43-2.55,3.37-4.55,5.85-6.03c2.48-1.47,5.26-2.21,8.36-2.21c2.62,0,4.96,0.5,7,1.5
			c2.04,0.99,3.71,2.42,5,4.24c1.29,1.83,2.04,3.99,2.28,6.47v9.49c-0.28,2.42-1.08,4.56-2.35,6.38c-1.29,1.83-2.94,3.26-4.96,4.28
			C897.67,254.35,895.37,254.87,892.79,254.87z M892.44,270.07c-3.37,0-6.38-0.63-9.03-1.89c-2.65-1.26-4.77-3.04-6.38-5.32
			l3.29-3.29c1.33,1.81,3.02,3.21,5.07,4.21c2.04,0.99,4.42,1.5,7.14,1.5c3.85,0,6.9-1.02,9.14-3.07c2.24-2.04,3.36-4.83,3.36-8.34
			v-8.36l0.99-7.64l-0.99-7.56v-8.64h5.07v32.2c0,3.23-0.74,6.06-2.21,8.5c-1.47,2.42-3.54,4.33-6.22,5.67
			C898.98,269.4,895.92,270.07,892.44,270.07z M893.72,250.08c2.28,0,4.31-0.5,6.06-1.5c1.76-0.99,3.12-2.41,4.07-4.24
			c0.95-1.83,1.43-3.99,1.43-6.47c0-2.38-0.49-4.48-1.46-6.31c-0.98-1.83-2.34-3.26-4.07-4.28s-3.77-1.54-6.1-1.54
			c-2.34,0-4.41,0.52-6.24,1.54c-1.83,1.02-3.26,2.45-4.28,4.28s-1.54,3.93-1.54,6.31c0,2.38,0.52,4.49,1.57,6.36
			c1.05,1.86,2.48,3.3,4.28,4.33C889.24,249.58,891.34,250.08,893.72,250.08z"/>
		<path class="st0" d="M918.64,255.23v-33.54h5.07v33.54H918.64z M943.12,255.23v-19.7c0-2.9-0.88-5.26-2.65-7.1
			c-1.76-1.83-4.07-2.74-6.93-2.74c-1.9,0-3.6,0.42-5.07,1.25c-1.47,0.83-2.65,1.99-3.5,3.46c-0.85,1.47-1.29,3.16-1.29,5.07
			l-2.28-1.29c0-2.52,0.59-4.79,1.78-6.78c1.19-1.99,2.81-3.57,4.86-4.72c2.04-1.13,4.35-1.71,6.93-1.71s4.86,0.62,6.86,1.86
			c2,1.23,3.56,2.9,4.68,5c1.12,2.1,1.68,4.38,1.68,6.85v20.57h-5.07V255.23z"/>
	</g>
</g>
</svg>
