<?xml version="1.0" encoding="utf-8"?>
<!-- Generator: Adobe Illustrator 27.0.0, SVG Export Plug-In . SVG Version: 6.00 Build 0)  -->
<svg version="1.1" id="레이어_1" xmlns="http://www.w3.org/2000/svg" xmlns:xlink="http://www.w3.org/1999/xlink" x="0px"
	 y="0px" viewBox="0 0 1200 388" style="enable-background:new 0 0 1200 388;" xml:space="preserve">
<style type="text/css">
	.st0{fill:none;}
	.st1{font-family:'ArialMT';}
	.st2{font-size:7.2012px;}
	.st3{fill:url(#SVGID_1_);}
	.st4{fill:#FFFFFF;stroke:#0067F9;stroke-width:3;stroke-linecap:round;stroke-linejoin:round;stroke-miterlimit:10;}
	.st5{fill:url(#SVGID_00000011721311674668213060000002786739376767394188_);}
	.st6{fill:url(#SVGID_00000086653057557772736940000012324111507651623049_);}
	.st7{fill:none;stroke:#C5F800;stroke-miterlimit:10;}
	.st8{fill:none;stroke:#CFFA8D;stroke-miterlimit:10;}
	.st9{opacity:0.2;fill:#020346;enable-background:new    ;}
	.st10{fill:url(#SVGID_00000042731741042885372850000001281527575746637203_);}
	.st11{fill:#D69BFB;}
	.st12{fill:url(#SVGID_00000002383364121842046090000007497384147114778544_);}
	.st13{fill:#8CF59A;}
	.st14{fill:#BDC3C7;}
	.st15{fill:#DAE0E4;}
	.st16{fill:url(#SVGID_00000153679443051527089010000018222703432551491976_);}
	.st17{fill:none;stroke:#4C19FA;stroke-width:2;stroke-miterlimit:10;}
	.st18{fill:none;stroke:#050505;stroke-miterlimit:10;}
	.st19{fill:url(#SVGID_00000025439971861598298240000004572380790680444552_);}
	.st20{fill:#EDD6E9;}
	.st21{clip-path:url(#SVGID_00000136395292844296739200000018064023575687376797_);}
	.st22{clip-path:url(#SVGID_00000137849517207276983350000010788136668281023638_);}
	.st23{fill:none;stroke:#4C19FA;stroke-width:1.5;stroke-miterlimit:10;}
	.st24{clip-path:url(#SVGID_00000183959013591582955820000000344124327074989444_);}
	.st25{fill:#F7AF3A;}
	.st26{fill:#FDDB83;}
	
		.st27{clip-path:url(#SVGID_00000076565543325961184060000014948325161772394120_);fill:url(#SVGID_00000130625148258188114270000006708557850759571338_);}
	
		.st28{clip-path:url(#SVGID_00000096028471365647832800000012722437121158227890_);fill:none;stroke:#4C19FA;stroke-width:2;stroke-miterlimit:10;}
</style>
<path class="st0" d="M1280,420H-80c-11.1,0-20-9-20-20V-12c0-11,8.9-20,20-20h1360c11.1,0,20,9,20,20v412
	C1300,411,1291.1,420,1280,420z"/>
<g>
	<text transform="matrix(1.0051 0 0 1 589.2852 195.9062)" class="st1 st2">2000</text>
	<g>
		
			<linearGradient id="SVGID_1_" gradientUnits="userSpaceOnUse" x1="60.044" y1="180.7126" x2="1140.3955" y2="-443.0286" gradientTransform="matrix(1 0 0 -1 0 62)">
			<stop  offset="0" style="stop-color:#E6FFA5"/>
			<stop  offset="0.5394" style="stop-color:#53B3F6"/>
			<stop  offset="1" style="stop-color:#AA7AEC"/>
		</linearGradient>
		<rect x="-7.3" y="-2" class="st3" width="1215.1" height="390.3"/>
		<ellipse class="st4" cx="881.8" cy="70.9" rx="4.7" ry="4.7"/>
		<g>
			<g>
				
					<image style="overflow:visible;enable-background:new    ;" width="372" height="507" xlink:href="F020A9658EF86A09.png"  transform="matrix(0.1321 0 0 0.1314 117.9849 286.2339)">
				</image>
			</g>
		</g>
		<path class="st4" d="M138,322.1c0,0,10.4,12.9,0,22.4c0,0,14.3-1.9,22.8,9.5c0,0-6.3-14.2-1.1-24.5
			C159.7,329.5,148.4,336.8,138,322.1z"/>
		<path class="st4" d="M194,252.4c0,0,10.4,12.9,0,22.4c0,0,14.3-1.9,22.8,9.5c0,0-6.3-14.2-1.1-24.5
			C215.7,259.7,204.4,267.1,194,252.4z"/>
		<path class="st4" d="M373.5,329.4c0,0,10.4,12.9,0,22.4c0,0,14.3-1.9,22.8,9.5c0,0-6.3-14.2-1.1-24.5
			C395.1,336.7,383.8,344,373.5,329.4z"/>
		<ellipse class="st4" cx="260.6" cy="129.8" rx="6.1" ry="6.1"/>
		<ellipse class="st4" cx="975.5" cy="153.5" rx="8.4" ry="8.4"/>
		<g>
			
				<radialGradient id="SVGID_00000076585521862017292800000008055598530276187037_" cx="796.8175" cy="-365.8414" r="96.2205" gradientTransform="matrix(1.0474 0 0 -1.0569 -234.4488 -175.9633)" gradientUnits="userSpaceOnUse">
				<stop  offset="0" style="stop-color:#9F6EE3"/>
				<stop  offset="0" style="stop-color:#A77BDE"/>
				<stop  offset="0.2592" style="stop-color:#A87DDD"/>
				<stop  offset="0.3541" style="stop-color:#AC84DA"/>
				<stop  offset="0.422" style="stop-color:#B490D5"/>
				<stop  offset="0.477" style="stop-color:#BEA1CE"/>
				<stop  offset="0.5242" style="stop-color:#CBB7C4"/>
				<stop  offset="0.5659" style="stop-color:#DCD2B9"/>
				<stop  offset="0.6028" style="stop-color:#EFF1AB"/>
				<stop  offset="0.6076" style="stop-color:#F2F6A9"/>
				<stop  offset="0.7858" style="stop-color:#C9E3BC;stop-opacity:0.781"/>
				<stop  offset="0.9115" style="stop-color:#88C5D5;stop-opacity:0.627"/>
				<stop  offset="0.9962" style="stop-color:#45A8ED;stop-opacity:0.6"/>
				<stop  offset="1" style="stop-color:#54AEE8;stop-opacity:0"/>
			</radialGradient>
			
				<ellipse style="fill:url(#SVGID_00000076585521862017292800000008055598530276187037_);" cx="600.1" cy="210.7" rx="100.3" ry="102.2"/>
			
				<linearGradient id="SVGID_00000173850676154471436490000014763007698867041671_" gradientUnits="userSpaceOnUse" x1="600.1379" y1="-339.5183" x2="600.1379" y2="-138.2178" gradientTransform="matrix(1 0 0 -1 0 62)">
				<stop  offset="0" style="stop-color:#00E3DC"/>
				<stop  offset="1" style="stop-color:#0091E2"/>
			</linearGradient>
			<polygon style="fill:url(#SVGID_00000173850676154471436490000014763007698867041671_);" points="1204.8,401.5 -4.5,401.5 
				-4.5,284 -4.5,200.2 1204.8,200.2 			"/>
		</g>
		<line class="st7" x1="28.4" y1="396.1" x2="260.6" y2="200"/>
		<line class="st7" x1="235.9" y1="393.9" x2="387" y2="198.9"/>
		<line class="st8" x1="386.2" y1="428" x2="515.6" y2="199.1"/>
		<line class="st7" x1="1190.9" y1="404.1" x2="950.7" y2="199.2"/>
		<line class="st7" x1="984.2" y1="405" x2="822.7" y2="198.9"/>
		<line class="st7" x1="825.1" y1="428" x2="694.8" y2="199.1"/>
		<line class="st7" x1="603.6" y1="405.5" x2="603" y2="199"/>
		<line class="st7" x1="28.4" y1="199.6" x2="1215" y2="199.6"/>
		<line class="st7" x1="1215" y1="268.3" x2="-4.5" y2="268.3"/>
		<line class="st7" x1="1211.7" y1="335.1" x2="-15" y2="335.1"/>
		
			<ellipse transform="matrix(0.2637 -0.9646 0.9646 0.2637 -48.6786 594.985)" class="st9" cx="365.4" cy="329.4" rx="11.2" ry="22.5"/>
		
			<ellipse transform="matrix(0.991 -0.1341 0.1341 0.991 -45.3832 31.9521)" class="st9" cx="214.4" cy="352.8" rx="15.7" ry="8.7"/>
		<ellipse transform="matrix(0.991 -0.1341 0.1341 0.991 -43.3957 92.6719)" class="st9" cx="666" cy="368.4" rx="15.7" ry="8.7"/>
		<ellipse class="st9" cx="950.7" cy="300.9" rx="12.6" ry="6.9"/>
		<ellipse transform="matrix(0.9839 -0.1787 0.1787 0.9839 -33.7518 142.8059)" class="st9" cx="776" cy="258.8" rx="18" ry="8.9"/>
		<path class="st4" d="M585.8,277.9c0,0,10.4,12.9,0,22.4c0,0,14.3-1.9,22.8,9.5c0,0-10.2-13.3-1.1-24.5
			C607.5,285.3,596.2,292.6,585.8,277.9z"/>
		<path class="st4" d="M157,248.5c0,0,7.5,14.8-4.7,21.9c0,0,14.4,1.1,20.3,14c0,0-7.2-15.2,4.1-24.2
			C176.7,260.2,164.1,265,157,248.5z"/>
		<g>
			<g>
				
					<image style="overflow:visible;opacity:0.5;enable-background:new    ;" width="190" height="179" xlink:href="F020A9658EF86A1C.png"  transform="matrix(0.6 0 0 0.5969 706.7565 150.3438)">
				</image>
				<g>
					
						<linearGradient id="SVGID_00000087403598828384724420000005344908863771801478_" gradientUnits="userSpaceOnUse" x1="-1010.2499" y1="-1038.4491" x2="-1058.9811" y2="-1090.7068" gradientTransform="matrix(0.9764 -0.2161 -0.2161 -0.9764 1538.0104 -1073.366)">
						<stop  offset="1.209481e-03" style="stop-color:#F29FF1"/>
						<stop  offset="0.7467" style="stop-color:#867AF9"/>
						<stop  offset="1" style="stop-color:#4AA79F"/>
					</linearGradient>
					<path style="fill:url(#SVGID_00000087403598828384724420000005344908863771801478_);" d="M767.2,232.9
						c-6.6,0-18.5-7.1-22.7-9.7c-4.3-2.7-13.7-9.1-20-17.6c-7.7-11.5-5.2-19-4.3-21.7c0.9-2.7,3.1-9.9,12.1-12.4
						c9-2.5,15.2,0.6,19.1,2.1c2.2,0.9,3.1,1.1,3.4,1.1l0.2,0c0.2,0,0.8-0.2,2.9-2.5c2.8-3,7.1-8.3,16.4-9.8
						c9.2-1.5,14.4,4.2,16.3,6.2c1.9,2,7.4,7.8,5.3,21.4c-2.1,10.3-7.9,20.1-10.6,24.3c-2.7,4.2-10.5,15.5-16.5,18.3l-0.6,0.3
						L767.2,232.9z"/>
				</g>
			</g>
			<path class="st11" d="M779.3,205.4c-4.8,9.1-9.3,15.3-8.2,16.3s7.2-4.1,12-13.2c4.8-9.1,6.5-18.8,5.3-19.9
				C787.4,187.6,784.1,196.2,779.3,205.4z"/>
			<path class="st11" d="M744.4,179.6c5.5,1.2,9.3,2.8,9.7,1.9c0.5-0.9-2.9-3.8-8.3-4.9c-5.5-1.2-11-0.2-11.5,0.7
				C733.8,178.1,738.9,178.4,744.4,179.6z"/>
		</g>
		<path class="st4" d="M792.5,136.4c0,0-4.3,16-18.1,13.3c0,0,10,10.4,5.8,23.8c0,0,6.1-18.6,19.2-15.4
			C799.4,158.1,786.7,153.4,792.5,136.4z"/>
		<g>
			<g>
				
					<image style="overflow:visible;opacity:0.5;enable-background:new    ;" width="249" height="238" xlink:href="F020A9658EF86A1D.png"  transform="matrix(0.5932 0 0 0.5902 339.4695 177.039)">
				</image>
				<g>
					
						<linearGradient id="SVGID_00000047019661086586138220000007083145284749772183_" gradientUnits="userSpaceOnUse" x1="-3749.4441" y1="-3566.1719" x2="-3821.0984" y2="-3643.0112" gradientTransform="matrix(0.9425 0.3341 0.3341 -0.9425 5177.4136 -1900.5447)">
						<stop  offset="8.073434e-08" style="stop-color:#67F781"/>
						<stop  offset="0.7411" style="stop-color:#84B473"/>
						<stop  offset="1" style="stop-color:#CB7FE5"/>
					</linearGradient>
					<path style="fill:url(#SVGID_00000047019661086586138220000007083145284749772183_);" d="M383.2,293.2
						c-8.2-5.1-17.3-23-20.5-29.6c-3.2-6.6-9.8-21.9-10.9-37.3c-0.5-20.2,8.4-27.7,11.6-30.3c3.2-2.6,11.6-10,24.7-6.2
						s18.4,12.4,21.9,17.2c2,2.8,2.9,3.7,3.4,3.9l0.2,0.1c0.2,0.1,1.1,0.3,5.4-0.9c5.8-1.6,15.4-4.9,27.9,0.3
						c12.5,5.2,14.5,16.2,15.3,20.2c0.8,4,3,15.5-10.2,30.8c-10.7,11.3-25.4,19-32.1,22.2c-6.7,3.1-25.1,11.3-34.6,10.2l-1-0.1
						L383.2,293.2z"/>
				</g>
			</g>
			<path class="st13" d="M417.6,270c-13.1,7.6-23.6,11.7-23,13.8c0.6,2.2,12.1,0.6,25.3-7c13.1-7.6,22.9-18.3,22.3-20.5
				C441.5,254.2,430.7,262.4,417.6,270z"/>
			<path class="st13" d="M395.2,210.8c5.8,5.7,9.2,10.7,10.5,9.9c1.3-0.8-0.5-6.9-6.3-12.6c-5.8-5.7-13.3-8.9-14.6-8.1
				C383.4,200.7,389.4,205.1,395.2,210.8z"/>
		</g>
		<path class="st4" d="M345.6,153.4c0,0,6.6,27.4-16.3,34.6c0,0,23.5,7.4,28.3,31.1c0,0-3.8-30,16.2-38.6
			C373.7,180.4,350.9,183.5,345.6,153.4z"/>
	</g>
	<g>
		<g>
			<ellipse class="st14" cx="651.8" cy="322.1" rx="25.3" ry="25.2"/>
			<g>
				<path class="st15" d="M651.8,296.9c-0.2,0-0.4,0-0.6,0l-24.7,24.5c0,0.2,0,0.5,0,0.7c0,1.6,0.1,3.1,0.4,4.6l29.6-29.3
					C655,297.1,653.4,296.9,651.8,296.9z"/>
				
					<linearGradient id="SVGID_00000104682302605548153280000017968636001636972462_" gradientUnits="userSpaceOnUse" x1="644.5959" y1="-252.9544" x2="669.6016" y2="-277.9598" gradientTransform="matrix(1 0 0 -1 0 62)">
					<stop  offset="0" style="stop-color:#ECEEF0"/>
					<stop  offset="0.4132" style="stop-color:#BDC3C7"/>
				</linearGradient>
				<path style="fill:url(#SVGID_00000104682302605548153280000017968636001636972462_);" d="M677,322.1c0,13.9-11.3,25.2-25.3,25.2
					c-10.7,0-19.8-6.6-23.5-16l0,0l32.9-32.6C670.4,302.4,677,311.5,677,322.1z"/>
			</g>
		</g>
		<ellipse class="st17" cx="651.8" cy="322.1" rx="20.4" ry="20.3"/>
	</g>
	<g>
		<g>
			<path class="st18" d="M947.1,243.8"/>
			
				<linearGradient id="SVGID_00000044168991299510205580000007532511829768263332_" gradientUnits="userSpaceOnUse" x1="924.068" y1="-192.4202" x2="964.3432" y2="-188.8964" gradientTransform="matrix(1 0 0 -1 0 62)">
				<stop  offset="8.073434e-08" style="stop-color:#DE95D7"/>
				<stop  offset="0.5773" style="stop-color:#DE95D7"/>
				<stop  offset="1" style="stop-color:#2E00BD"/>
			</linearGradient>
			
				<ellipse style="fill:url(#SVGID_00000044168991299510205580000007532511829768263332_);" cx="944.2" cy="252.7" rx="20.2" ry="20.1"/>
			<path class="st20" d="M944.2,232.5c-0.1,0-0.3,0-0.5,0L924,252.1c0,0.2,0,0.4,0,0.5c0,1.3,0.1,2.5,0.3,3.7l23.7-23.5
				C946.8,232.6,945.5,232.5,944.2,232.5z"/>
			<g>
				<g>
					<g>
						<g>
							<g>
								<defs>
									<path id="SVGID_00000147927097374834841260000017402354055602790580_" d="M964.4,252.7c0,11.1-9,20.1-20.2,20.1
										c-8.6,0-15.9-5.3-18.8-12.8l0,0l26.3-26.1C959.1,236.9,964.4,244.2,964.4,252.7z"/>
								</defs>
								<clipPath id="SVGID_00000163041445512646392500000001429107833183773340_">
									<use xlink:href="#SVGID_00000147927097374834841260000017402354055602790580_"  style="overflow:visible;"/>
								</clipPath>
								<g style="clip-path:url(#SVGID_00000163041445512646392500000001429107833183773340_);">
									<g>
										<g>
											<g>
												<g>
													<defs>
														
															<rect id="SVGID_00000030476539313598591920000009683375139075654537_" x="922.4" y="230.9" width="45.1" height="44.9"/>
													</defs>
													<clipPath id="SVGID_00000028313929567762897850000002822473934692740491_">
														<use xlink:href="#SVGID_00000030476539313598591920000009683375139075654537_"  style="overflow:visible;"/>
													</clipPath>
													<g style="clip-path:url(#SVGID_00000028313929567762897850000002822473934692740491_);">
														
															<image style="overflow:visible;enable-background:new    ;" width="157" height="156" xlink:href="F020A9658EF86A1B.jpg"  transform="matrix(0.2877 0 0 0.2862 922.2727 231.0271)">
														</image>
													</g>
												</g>
											</g>
										</g>
									</g>
								</g>
							</g>
						</g>
					</g>
				</g>
			</g>
		</g>
		<ellipse class="st23" cx="944.2" cy="252.7" rx="16.1" ry="16.1"/>
	</g>
</g>
<g>
	<defs>
		<path id="SVGID_00000168085780977135710610000011064750330390367161_" d="M1280,420H-80c-11.1,0-20-9-20-20V-12c0-11,8.9-20,20-20
			h1360c11.1,0,20,9,20,20v412C1300,411,1291.1,420,1280,420z"/>
	</defs>
	<clipPath id="SVGID_00000075146230089606146270000007865108037309480084_">
		<use xlink:href="#SVGID_00000168085780977135710610000011064750330390367161_"  style="overflow:visible;"/>
	</clipPath>
	<g style="clip-path:url(#SVGID_00000075146230089606146270000007865108037309480084_);">
		
			<ellipse transform="matrix(0.1414 -0.9899 0.9899 0.1414 -201.5368 407.8442)" class="st25" cx="134.4" cy="320.1" rx="28.1" ry="28.1"/>
		<path class="st26" d="M139.3,292.5c-1.8-0.3-3.6-0.5-5.5-0.4l-27.5,27.5c0,1.9,0.1,3.7,0.4,5.5L139.3,292.5z"/>
		<g>
			<g>
				<g>
					<g>
						<g>
							<defs>
								
									<ellipse id="SVGID_00000120557948323346405610000011553661697284742276_" transform="matrix(0.1414 -0.9899 0.9899 0.1414 -201.5368 407.8442)" cx="134.4" cy="320.1" rx="28.1" ry="28.1"/>
							</defs>
							<clipPath id="SVGID_00000090972894595976007070000015990926488815100040_">
								<use xlink:href="#SVGID_00000120557948323346405610000011553661697284742276_"  style="overflow:visible;"/>
							</clipPath>
							
								<linearGradient id="SVGID_00000031169146820753923490000006700205329749674926_" gradientUnits="userSpaceOnUse" x1="77.6511" y1="808.2873" x2="67.9225" y2="798.3265" gradientTransform="matrix(0.9217 7.830000e-02 7.830000e-02 0.9217 3.1728 -427.1728)">
								<stop  offset="0" style="stop-color:#FFFFFF;stop-opacity:0"/>
								<stop  offset="1" style="stop-color:#FDDB83"/>
							</linearGradient>
							
								<polygon style="clip-path:url(#SVGID_00000090972894595976007070000015990926488815100040_);fill:url(#SVGID_00000031169146820753923490000006700205329749674926_);" points="
								118.9,344.5 106.6,332.2 146.5,292.4 158.7,304.6 							"/>
						</g>
					</g>
				</g>
			</g>
		</g>
	</g>
</g>
<g>
	<defs>
		<path id="SVGID_00000160164580723486909570000005319551353493409699_" d="M1280,420H-80c-11.1,0-20-9-20-20V-12c0-11,8.9-20,20-20
			h1360c11.1,0,20,9,20,20v412C1300,411,1291.1,420,1280,420z"/>
	</defs>
	<clipPath id="SVGID_00000170277887426593332130000001089770415491811252_">
		<use xlink:href="#SVGID_00000160164580723486909570000005319551353493409699_"  style="overflow:visible;"/>
	</clipPath>
	
		<circle style="clip-path:url(#SVGID_00000170277887426593332130000001089770415491811252_);fill:none;stroke:#4C19FA;stroke-width:2;stroke-miterlimit:10;" cx="134.4" cy="320.1" r="22"/>
</g>
</svg>
