<?xml version="1.0" encoding="utf-8"?>
<!-- Generator: Adobe Illustrator 26.5.0, SVG Export Plug-In . SVG Version: 6.00 Build 0)  -->
<svg version="1.1" id="레이어_1" xmlns="http://www.w3.org/2000/svg" xmlns:xlink="http://www.w3.org/1999/xlink" x="0px"
	 y="0px" viewBox="0 0 16.88 24.61" style="enable-background:new 0 0 16.88 24.61;" xml:space="preserve">
<style type="text/css">
	.st0{fill:#FFFFFF;}
	.st1{fill:#0067F9;}
</style>
<g>
	<path class="st0" d="M2.28,0.66c0,0,5.87,9.53-1.78,15.05c0,0,9.68-0.08,14.37,8.23c0,0-5.15-10.83,1.24-16.55
		C16.11,7.39,8.01,11.37,2.28,0.66z"/>
	<path class="st1" d="M14.97,24.39c-0.19,0.04-0.4-0.04-0.5-0.22c-4.5-7.97-13.87-8-13.97-8c-0.2,0-0.38-0.13-0.44-0.32
		c-0.06-0.19,0.01-0.4,0.17-0.52c3.01-2.17,4.22-5.23,3.58-9.11c-0.35-2.1-1.17-3.89-1.61-4.76C2.08,1.27,1.98,1.08,1.87,0.88
		c-0.12-0.22-0.04-0.5,0.17-0.62C2.26,0.13,2.54,0.2,2.67,0.42c0.01,0.01,0.12,0.2,0.3,0.54c2.26,3.98,5.09,6.21,8.43,6.62
		c2.57,0.32,4.49-0.6,4.51-0.61c0.21-0.1,0.46-0.03,0.59,0.16c0.13,0.19,0.1,0.45-0.08,0.61c-6.05,5.42-1.18,15.9-1.13,16.01
		c0.11,0.23,0.02,0.5-0.2,0.61C15.04,24.37,15.01,24.38,14.97,24.39z M1.72,15.32c2.38,0.25,7.71,1.3,11.58,5.63
		c-0.26-0.9-0.5-1.95-0.66-3.08c-0.55-3.88,0.12-7.14,1.96-9.53C12.31,8.81,8.14,8.87,4.37,4.55C5.21,7.7,5.39,12.04,1.72,15.32z"/>
</g>
</svg>
