<?xml version="1.0" encoding="utf-8"?>
<!-- Generator: Adobe Illustrator 27.0.0, SVG Export Plug-In . SVG Version: 6.00 Build 0)  -->
<svg version="1.1" id="레이어_1" xmlns="http://www.w3.org/2000/svg" xmlns:xlink="http://www.w3.org/1999/xlink" x="0px"
	 y="0px" viewBox="0 0 253 130" style="enable-background:new 0 0 253 130;" xml:space="preserve">
<style type="text/css">
	.st0{fill:#FFFFFF;}
</style>
<g>
	<path class="st0" d="M7.82,5.4c0-0.36,0.11-0.63,0.33-0.82C8.36,4.4,8.64,4.31,8.98,4.31c0.34,0,0.62,0.09,0.85,0.27
		c0.23,0.18,0.34,0.45,0.34,0.82v15.07c0.02,1.21,0.2,2.34,0.53,3.39s0.77,2.06,1.32,3.03c0.56,0.97,1.23,1.9,2.01,2.81
		s1.66,1.81,2.63,2.7c0.27,0.27,0.4,0.56,0.42,0.87c0.01,0.31-0.09,0.6-0.31,0.87s-0.51,0.39-0.87,0.38s-0.71-0.18-1.05-0.49
		c-1.33-1.26-2.48-2.58-3.46-3.97s-1.75-2.78-2.3-4.18c-0.56,1.43-1.3,2.86-2.23,4.29C5.93,31.6,4.81,33,3.5,34.38
		c-0.31,0.34-0.66,0.51-1.03,0.51c-0.38,0-0.67-0.13-0.89-0.4s-0.32-0.56-0.31-0.87c0.01-0.31,0.15-0.6,0.42-0.87
		c0.87-0.92,1.67-1.86,2.41-2.83s1.38-1.97,1.94-3.01s0.99-2.13,1.3-3.26c0.31-1.13,0.47-2.33,0.47-3.59V5.4H7.82z M14.7,18.48
		c0-0.34,0.1-0.6,0.31-0.78s0.45-0.27,0.74-0.27h5.76V5.4c0-0.36,0.11-0.63,0.33-0.82c0.22-0.18,0.5-0.27,0.83-0.27
		c0.34,0,0.62,0.09,0.85,0.27s0.34,0.45,0.34,0.82v28.95c0,0.36-0.12,0.63-0.34,0.82c-0.23,0.18-0.51,0.27-0.85,0.27
		s-0.62-0.09-0.83-0.27c-0.22-0.18-0.33-0.45-0.33-0.82V19.53h-5.76c-0.29,0-0.54-0.09-0.74-0.27C14.8,19.07,14.7,18.81,14.7,18.48z
		 M28.14,5.4c0-0.36,0.11-0.63,0.33-0.82c0.22-0.18,0.49-0.27,0.83-0.27s0.62,0.09,0.85,0.27s0.34,0.45,0.34,0.82v28.95
		c0,0.36-0.11,0.63-0.34,0.82c-0.23,0.18-0.51,0.27-0.85,0.27s-0.62-0.09-0.83-0.27c-0.22-0.18-0.33-0.45-0.33-0.82V5.4z"/>
	<path class="st0" d="M36.69,5.79c0-0.34,0.1-0.6,0.31-0.78s0.45-0.27,0.74-0.27h8.04c0.58,0,1.04,0.08,1.4,0.25
		c0.35,0.17,0.62,0.39,0.8,0.65c0.18,0.27,0.3,0.57,0.34,0.91c0.05,0.34,0.07,0.68,0.07,1.01v9.2c0,1.04-0.01,2.26-0.04,3.68
		c-0.02,1.41-0.11,2.91-0.25,4.49c-0.15,1.58-0.39,3.18-0.72,4.78c-0.34,1.61-0.82,3.11-1.45,4.51c-0.19,0.41-0.47,0.67-0.82,0.78
		s-0.67,0.08-0.96-0.09c-0.29-0.17-0.48-0.4-0.56-0.71c-0.08-0.3-0.04-0.62,0.13-0.96c0.56-1.23,0.99-2.57,1.3-4
		c0.31-1.44,0.54-2.91,0.69-4.42c0.15-1.51,0.24-2.99,0.27-4.46c0.04-1.46,0.05-2.82,0.05-4.08V7.57c0-0.29-0.05-0.48-0.16-0.58
		s-0.26-0.15-0.45-0.15h-7.68c-0.29,0-0.54-0.09-0.74-0.27S36.69,6.13,36.69,5.79z M50.57,12.21c0-0.34,0.1-0.6,0.31-0.78
		c0.21-0.18,0.45-0.27,0.74-0.27h4.31V5.4c0-0.36,0.11-0.63,0.33-0.82c0.22-0.18,0.5-0.27,0.83-0.27c0.34,0,0.62,0.09,0.85,0.27
		s0.34,0.45,0.34,0.82v28.95c0,0.36-0.12,0.63-0.34,0.82c-0.23,0.18-0.51,0.27-0.85,0.27s-0.62-0.09-0.83-0.27
		c-0.22-0.18-0.33-0.45-0.33-0.82v-9.06h-4.49c-0.29,0-0.54-0.09-0.74-0.27c-0.21-0.18-0.31-0.44-0.31-0.78s0.1-0.6,0.31-0.78
		c0.21-0.18,0.45-0.27,0.74-0.27h4.49v-9.93h-4.31c-0.29,0-0.54-0.09-0.74-0.27C50.67,12.8,50.57,12.55,50.57,12.21z M62.56,5.4
		c0-0.36,0.11-0.63,0.33-0.82c0.22-0.18,0.49-0.27,0.83-0.27s0.62,0.09,0.85,0.27s0.34,0.45,0.34,0.82v28.95
		c0,0.36-0.11,0.63-0.34,0.82c-0.23,0.18-0.51,0.27-0.85,0.27c-0.34,0-0.62-0.09-0.83-0.27c-0.22-0.18-0.33-0.45-0.33-0.82
		C62.56,34.35,62.56,5.4,62.56,5.4z"/>
	<path class="st0" d="M90.24,21.74c0,0.34-0.1,0.6-0.31,0.78s-0.45,0.27-0.74,0.27H71.87c-0.29,0-0.54-0.09-0.74-0.27
		c-0.21-0.18-0.31-0.44-0.31-0.78s0.1-0.6,0.31-0.78s0.45-0.27,0.74-0.27h5.25V14.1c0-0.36,0.11-0.63,0.33-0.82S77.95,13,78.29,13
		c0.34,0,0.62,0.09,0.85,0.27c0.23,0.18,0.34,0.45,0.34,0.82v6.59h9.71c0.29,0,0.54,0.09,0.74,0.27
		C90.14,21.14,90.24,21.4,90.24,21.74z M72.09,6.08c0-0.34,0.1-0.6,0.31-0.78s0.45-0.27,0.74-0.27h12.57c0.58,0,1.04,0.08,1.39,0.25
		s0.62,0.39,0.8,0.65c0.18,0.27,0.3,0.57,0.34,0.91c0.05,0.34,0.07,0.68,0.07,1.01V11c0,0.22-0.01,0.5-0.02,0.83
		c-0.01,0.34-0.02,0.69-0.04,1.07c-0.01,0.38-0.04,0.74-0.07,1.1c-0.04,0.36-0.09,0.66-0.16,0.91c-0.12,0.46-0.29,0.76-0.51,0.91
		s-0.52,0.19-0.91,0.15c-0.75-0.15-1.05-0.63-0.91-1.45c0.1-0.48,0.16-1.01,0.2-1.58c0.04-0.57,0.05-1.13,0.05-1.68v-3.4
		c0-0.29-0.05-0.48-0.16-0.58s-0.26-0.15-0.45-0.15H73.14c-0.29,0-0.54-0.09-0.74-0.27C72.19,6.68,72.09,6.42,72.09,6.08z
		 M75.35,31.99c0,0.29,0.05,0.48,0.16,0.58s0.26,0.15,0.45,0.15h21.56c0.29,0,0.54,0.09,0.74,0.27c0.21,0.18,0.31,0.44,0.31,0.78
		s-0.1,0.6-0.31,0.78s-0.45,0.27-0.74,0.27H75.61c-0.58,0-1.04-0.08-1.4-0.25c-0.35-0.17-0.62-0.39-0.8-0.65
		c-0.18-0.27-0.3-0.57-0.34-0.91C73.02,32.67,73,32.33,73,31.99v-5.07c0-0.36,0.11-0.63,0.33-0.82s0.49-0.27,0.83-0.27
		c0.34,0,0.62,0.09,0.85,0.27c0.23,0.18,0.34,0.45,0.34,0.82V31.99z M103.72,15.83c0,0.34-0.1,0.6-0.31,0.78s-0.45,0.27-0.74,0.27
		h-5.18v7.61c0,0.36-0.12,0.63-0.34,0.82c-0.23,0.18-0.51,0.27-0.85,0.27s-0.62-0.09-0.83-0.27c-0.22-0.18-0.33-0.45-0.33-0.82V5.4
		c0-0.36,0.11-0.63,0.33-0.82s0.49-0.27,0.83-0.27c0.34,0,0.62,0.09,0.85,0.27c0.23,0.18,0.34,0.45,0.34,0.82v9.38h5.18
		c0.29,0,0.54,0.09,0.74,0.27C103.62,15.23,103.72,15.49,103.72,15.83z"/>
	<path class="st0" d="M121.08,9.67c0,0.34-0.1,0.6-0.31,0.78c-0.21,0.18-0.45,0.27-0.74,0.27H105.5c-0.29,0-0.54-0.09-0.74-0.27
		s-0.31-0.44-0.31-0.78s0.1-0.6,0.31-0.78s0.45-0.27,0.74-0.27h14.53c0.29,0,0.54,0.09,0.74,0.27
		C120.97,9.07,121.08,9.33,121.08,9.67z M119.59,17.42c0,0.92-0.14,1.67-0.42,2.26s-0.65,1.07-1.12,1.43s-1.03,0.62-1.67,0.76
		c-0.64,0.15-1.32,0.22-2.05,0.22h-3.04c-0.72,0-1.41-0.07-2.05-0.22c-0.64-0.14-1.2-0.4-1.67-0.76s-0.85-0.84-1.12-1.43
		c-0.28-0.59-0.42-1.35-0.42-2.26c0-0.89,0.14-1.65,0.42-2.26c0.28-0.62,0.65-1.11,1.12-1.47c0.47-0.36,1.03-0.62,1.67-0.78
		s1.32-0.24,2.05-0.24h3.04c0.72,0,1.41,0.08,2.05,0.24s1.2,0.42,1.67,0.78s0.85,0.85,1.12,1.47
		C119.45,15.78,119.59,16.53,119.59,17.42z M134.84,29.74c0,1.81-0.57,3.11-1.72,3.9c-1.15,0.78-2.9,1.18-5.27,1.18h-13.73
		c-2.37,0-4.12-0.39-5.27-1.18c-1.15-0.79-1.72-2.08-1.72-3.9c0-1.81,0.57-3.11,1.72-3.89c1.15-0.78,2.9-1.18,5.27-1.18h13.73
		c2.37,0,4.12,0.39,5.27,1.18C134.27,26.63,134.84,27.93,134.84,29.74z M117.82,5.03c0,0.34-0.1,0.6-0.31,0.78
		c-0.21,0.18-0.45,0.27-0.74,0.27h-8.01c-0.29,0-0.54-0.09-0.74-0.27c-0.21-0.18-0.31-0.44-0.31-0.78c0-0.34,0.1-0.6,0.31-0.78
		c0.2-0.18,0.45-0.27,0.74-0.27h8.01c0.29,0,0.54,0.09,0.74,0.27C117.71,4.44,117.82,4.7,117.82,5.03z M117.24,17.42
		c0-0.29-0.03-0.59-0.09-0.91c-0.06-0.31-0.21-0.6-0.45-0.85s-0.59-0.46-1.03-0.63c-0.45-0.17-1.06-0.25-1.83-0.25h-2.03
		c-0.77,0-1.38,0.08-1.83,0.25c-0.45,0.17-0.79,0.38-1.03,0.63s-0.39,0.54-0.45,0.85s-0.09,0.62-0.09,0.91
		c0,0.29,0.03,0.59,0.09,0.91c0.06,0.31,0.21,0.59,0.45,0.83s0.59,0.44,1.03,0.6c0.45,0.16,1.06,0.24,1.83,0.24h2.03
		c0.77,0,1.38-0.08,1.83-0.24c0.45-0.16,0.79-0.36,1.03-0.6s0.39-0.52,0.45-0.83S117.24,17.71,117.24,17.42z M132.49,29.74
		c0-0.58-0.09-1.06-0.27-1.43c-0.18-0.37-0.47-0.68-0.87-0.91s-0.93-0.39-1.59-0.49s-1.47-0.15-2.41-0.15h-12.72
		c-0.94,0-1.75,0.05-2.41,0.15s-1.2,0.26-1.59,0.49c-0.4,0.23-0.69,0.53-0.87,0.91s-0.27,0.85-0.27,1.43s0.09,1.06,0.27,1.43
		s0.47,0.68,0.87,0.91c0.4,0.23,0.93,0.39,1.59,0.49c0.66,0.1,1.47,0.15,2.41,0.15h12.72c0.94,0,1.75-0.05,2.41-0.15
		c0.66-0.1,1.2-0.26,1.59-0.49c0.4-0.23,0.69-0.53,0.87-0.91S132.49,30.32,132.49,29.74z M123.9,5.4c0-0.36,0.11-0.63,0.33-0.82
		c0.22-0.18,0.5-0.27,0.83-0.27c0.34,0,0.62,0.09,0.85,0.27c0.23,0.18,0.34,0.45,0.34,0.82v6.96h5.51V5.4
		c0-0.36,0.11-0.63,0.33-0.82c0.22-0.18,0.49-0.27,0.83-0.27s0.62,0.09,0.85,0.27c0.23,0.18,0.34,0.45,0.34,0.82v15.72
		c0,0.36-0.11,0.63-0.34,0.82c-0.23,0.18-0.51,0.27-0.85,0.27s-0.62-0.09-0.83-0.27c-0.22-0.18-0.33-0.45-0.33-0.82v-6.67h-5.51
		v6.59c0,0.36-0.12,0.63-0.34,0.81c-0.23,0.18-0.51,0.27-0.85,0.27s-0.62-0.09-0.83-0.27c-0.22-0.18-0.33-0.45-0.33-0.81
		C123.9,21.04,123.9,5.4,123.9,5.4z"/>
	<path class="st0" d="M33.07,68.45c0,0.34-0.1,0.6-0.31,0.78c-0.21,0.18-0.45,0.27-0.74,0.27h-13.3v8.84c0,0.36-0.11,0.63-0.34,0.82
		c-0.23,0.18-0.51,0.27-0.85,0.27s-0.62-0.09-0.83-0.27c-0.22-0.18-0.33-0.45-0.33-0.82V69.5H3.03c-0.29,0-0.54-0.09-0.74-0.27
		c-0.21-0.18-0.31-0.44-0.31-0.78s0.1-0.6,0.31-0.78s0.45-0.27,0.74-0.27h28.99c0.29,0,0.54,0.09,0.74,0.27
		C32.97,67.86,33.07,68.12,33.07,68.45z M30.64,55.3c0,2.2-0.63,3.85-1.9,4.95s-3.09,1.65-5.45,1.65H11.73
		c-2.37,0-4.19-0.55-5.45-1.65s-1.9-2.75-1.9-4.95s0.63-3.85,1.9-4.96s3.09-1.67,5.45-1.67h11.56c2.37,0,4.19,0.56,5.45,1.67
		C30.01,51.45,30.64,53.1,30.64,55.3z M28.29,55.3c0-1.69-0.47-2.87-1.41-3.53s-2.31-1-4.09-1H12.24c-1.79,0-3.15,0.33-4.09,1
		c-0.94,0.66-1.41,1.84-1.41,3.53s0.47,2.86,1.41,3.51c0.94,0.65,2.31,0.98,4.09,0.98h10.54c1.79,0,3.15-0.33,4.09-0.98
		C27.82,58.16,28.29,56.99,28.29,55.3z"/>
	<path class="st0" d="M67.49,68.45c0,0.34-0.1,0.6-0.31,0.78s-0.45,0.27-0.74,0.27h-13.3v8.84c0,0.36-0.11,0.63-0.34,0.82
		c-0.23,0.18-0.51,0.27-0.85,0.27s-0.62-0.09-0.83-0.27c-0.22-0.18-0.33-0.45-0.33-0.82V69.5H37.45c-0.29,0-0.54-0.09-0.74-0.27
		c-0.21-0.18-0.31-0.44-0.31-0.78s0.1-0.6,0.31-0.78c0.21-0.18,0.45-0.27,0.74-0.27h28.99c0.29,0,0.54,0.09,0.74,0.27
		C67.39,67.86,67.49,68.12,67.49,68.45z M64.59,49.79c0,0.34-0.1,0.6-0.31,0.78s-0.45,0.27-0.74,0.27h-10.4v0.76
		c0,1.26,0.34,2.39,1.01,3.38c0.68,0.99,1.57,1.86,2.68,2.6c1.11,0.74,2.39,1.36,3.84,1.85s2.95,0.89,4.49,1.18
		c0.72,0.21,1.01,0.65,0.87,1.32c-0.05,0.31-0.2,0.55-0.45,0.73s-0.6,0.22-1.03,0.12c-3.19-0.63-5.84-1.53-7.95-2.72
		c-2.11-1.18-3.67-2.61-4.66-4.28c-0.97,1.67-2.51,3.09-4.64,4.28c-2.13,1.18-4.77,2.09-7.93,2.72c-0.44,0.1-0.78,0.06-1.03-0.12
		s-0.4-0.42-0.45-0.73c-0.14-0.66,0.15-1.1,0.87-1.32c1.55-0.29,3.04-0.69,4.49-1.18c1.45-0.5,2.73-1.12,3.84-1.85
		c1.11-0.74,2-1.61,2.68-2.6c0.68-0.99,1.01-2.12,1.01-3.38v-0.76H40.35c-0.29,0-0.54-0.09-0.74-0.27
		c-0.21-0.18-0.31-0.44-0.31-0.78s0.1-0.6,0.31-0.78c0.21-0.18,0.45-0.27,0.74-0.27h23.19c0.29,0,0.54,0.09,0.74,0.27
		C64.49,49.2,64.59,49.46,64.59,49.79z"/>
	<path class="st0" d="M80.53,53.31c0,1.26,0.15,2.37,0.45,3.33c0.3,0.97,0.75,1.82,1.34,2.57s1.33,1.41,2.23,1.97
		c0.89,0.57,1.92,1.09,3.08,1.58c0.75,0.31,1.03,0.82,0.83,1.52c-0.1,0.34-0.29,0.58-0.58,0.72c-0.29,0.15-0.65,0.15-1.09,0
		c-0.8-0.24-1.58-0.6-2.34-1.07c-0.76-0.47-1.46-0.99-2.1-1.56s-1.21-1.16-1.7-1.78c-0.5-0.62-0.88-1.2-1.14-1.76
		c-0.29,0.63-0.69,1.27-1.2,1.92c-0.51,0.65-1.09,1.27-1.74,1.85c-0.65,0.58-1.37,1.11-2.16,1.59c-0.79,0.48-1.61,0.87-2.48,1.16
		c-0.43,0.15-0.8,0.15-1.09,0c-0.29-0.14-0.48-0.39-0.58-0.72c-0.1-0.34-0.07-0.65,0.09-0.92c0.16-0.28,0.4-0.48,0.74-0.6
		c1.13-0.44,2.14-0.94,3.03-1.5c0.88-0.57,1.62-1.23,2.21-1.99c0.59-0.76,1.04-1.63,1.36-2.61c0.31-0.98,0.47-2.1,0.47-3.35v-4.09
		c0-0.36,0.11-0.63,0.33-0.82s0.5-0.27,0.83-0.27c0.34,0,0.62,0.09,0.85,0.27c0.23,0.18,0.34,0.45,0.34,0.82v3.74H80.53z
		 M75.28,75.99c0,0.29,0.05,0.48,0.16,0.58s0.26,0.15,0.45,0.15h23.08c0.29,0,0.54,0.09,0.74,0.27c0.21,0.18,0.31,0.44,0.31,0.78
		s-0.1,0.6-0.31,0.78s-0.45,0.27-0.74,0.27H75.53c-0.58,0-1.05-0.09-1.4-0.25c-0.35-0.17-0.62-0.39-0.8-0.65S73.04,77.34,73,77
		s-0.07-0.68-0.07-1.01v-5.51c0-0.36,0.11-0.63,0.33-0.81s0.49-0.27,0.83-0.27s0.62,0.09,0.85,0.27c0.23,0.18,0.34,0.45,0.34,0.81
		V75.99z M88.9,56.5c0-0.34,0.1-0.6,0.31-0.78s0.45-0.27,0.74-0.27h6.63V49.4c0-0.36,0.11-0.63,0.33-0.82s0.5-0.27,0.83-0.27
		c0.34,0,0.62,0.09,0.85,0.27c0.23,0.18,0.34,0.45,0.34,0.82v18.12c0,0.36-0.12,0.63-0.34,0.82c-0.23,0.18-0.51,0.27-0.85,0.27
		s-0.62-0.09-0.83-0.27s-0.33-0.45-0.33-0.82v-9.96h-6.63c-0.29,0-0.54-0.09-0.74-0.27C89,57.09,88.9,56.84,88.9,56.5z"/>
	<path class="st0" d="M106.33,55.05c0-0.87,0.12-1.69,0.36-2.46s0.62-1.45,1.14-2.03c0.52-0.58,1.18-1.04,1.99-1.38
		s1.79-0.51,2.95-0.51c1.16,0,2.15,0.17,2.97,0.51s1.5,0.8,2.03,1.38s0.92,1.26,1.16,2.03c0.24,0.77,0.36,1.59,0.36,2.46v17.32
		c0,0.87-0.12,1.69-0.36,2.46s-0.63,1.45-1.16,2.03s-1.21,1.04-2.03,1.38s-1.81,0.51-2.97,0.51s-2.14-0.17-2.95-0.51
		c-0.81-0.34-1.47-0.8-1.99-1.38c-0.52-0.58-0.9-1.26-1.14-2.03s-0.36-1.59-0.36-2.46V55.05z M108.69,71.35
		c0,1.88,0.3,3.24,0.91,4.06c0.6,0.82,1.67,1.23,3.19,1.23c1.55,0,2.63-0.41,3.24-1.23c0.62-0.82,0.92-2.17,0.92-4.06V56.06
		c0-1.88-0.31-3.24-0.92-4.06c-0.62-0.82-1.7-1.23-3.24-1.23c-1.52,0-2.58,0.41-3.19,1.23c-0.6,0.82-0.91,2.17-0.91,4.06V71.35z
		 M120.64,62.48c0-0.34,0.1-0.6,0.31-0.78s0.45-0.27,0.74-0.27h3.73V49.4c0-0.36,0.11-0.63,0.33-0.82c0.22-0.18,0.5-0.27,0.83-0.27
		c0.34,0,0.62,0.09,0.85,0.27c0.23,0.18,0.34,0.45,0.34,0.82v28.95c0,0.36-0.12,0.63-0.34,0.82c-0.23,0.18-0.51,0.27-0.85,0.27
		s-0.62-0.09-0.83-0.27c-0.22-0.18-0.33-0.45-0.33-0.82V63.53h-3.73c-0.29,0-0.54-0.09-0.74-0.27
		C120.74,63.07,120.64,62.81,120.64,62.48z M132.05,49.4c0-0.36,0.11-0.63,0.33-0.82s0.49-0.27,0.83-0.27s0.62,0.09,0.85,0.27
		c0.23,0.18,0.34,0.45,0.34,0.82v28.95c0,0.36-0.12,0.63-0.34,0.82c-0.23,0.18-0.51,0.27-0.85,0.27c-0.34,0-0.62-0.09-0.83-0.27
		s-0.33-0.45-0.33-0.82V49.4z"/>
	<path class="st0" d="M67.49,107.78c0,0.34-0.1,0.6-0.31,0.78s-0.45,0.27-0.74,0.27H37.45c-0.29,0-0.54-0.09-0.74-0.27
		c-0.21-0.18-0.31-0.44-0.31-0.78s0.1-0.6,0.31-0.78c0.21-0.18,0.45-0.27,0.74-0.27h28.99c0.29,0,0.54,0.09,0.74,0.27
		C67.39,107.18,67.49,107.44,67.49,107.78z M64.59,100.61c0.72,0.22,1.04,0.64,0.94,1.27c-0.02,0.34-0.16,0.61-0.4,0.82
		s-0.58,0.27-1.01,0.2c-1.59-0.24-3-0.5-4.22-0.78s-2.31-0.6-3.26-0.98c-0.95-0.37-1.81-0.84-2.55-1.39
		c-0.75-0.56-1.46-1.26-2.14-2.1c-0.65,0.85-1.35,1.56-2.1,2.14s-1.61,1.07-2.57,1.47c-0.97,0.4-2.06,0.73-3.28,1
		c-1.22,0.27-2.63,0.48-4.22,0.65c-0.43,0.05-0.77-0.03-1-0.24s-0.36-0.46-0.38-0.78c-0.07-0.68,0.25-1.09,0.98-1.23
		c1.57-0.15,3.05-0.37,4.44-0.67c1.39-0.3,2.6-0.73,3.62-1.29c1.03-0.56,1.84-1.25,2.45-2.08c0.6-0.83,0.91-1.83,0.91-2.99v-0.18
		c0-0.36,0.11-0.63,0.33-0.81s0.49-0.27,0.83-0.27s0.62,0.09,0.85,0.27s0.34,0.45,0.34,0.81v0.18c0,1.16,0.3,2.14,0.91,2.95
		c0.6,0.81,1.42,1.48,2.46,2.01s2.25,0.96,3.64,1.27C61.54,100.16,63.02,100.41,64.59,100.61z M65.28,117.92
		c0,1.81-0.57,3.08-1.72,3.8s-2.9,1.09-5.27,1.09H45.68c-2.37,0-4.12-0.36-5.27-1.09c-1.15-0.72-1.72-1.99-1.72-3.8
		c0-1.81,0.57-3.08,1.72-3.8s2.9-1.09,5.27-1.09h12.61c2.37,0,4.12,0.36,5.27,1.09C64.71,114.84,65.28,116.11,65.28,117.92z
		 M62.92,117.92c0-0.58-0.09-1.05-0.27-1.41s-0.47-0.65-0.87-0.85c-0.4-0.21-0.93-0.34-1.59-0.42c-0.66-0.07-1.47-0.11-2.41-0.11
		H46.19c-0.94,0-1.75,0.04-2.41,0.11s-1.2,0.21-1.59,0.42c-0.4,0.21-0.69,0.49-0.87,0.85s-0.27,0.83-0.27,1.41s0.09,1.05,0.27,1.41
		s0.47,0.65,0.87,0.85c0.4,0.21,0.93,0.34,1.59,0.42c0.66,0.07,1.47,0.11,2.41,0.11h11.59c0.94,0,1.74-0.04,2.41-0.11
		c0.66-0.07,1.2-0.21,1.59-0.42c0.4-0.21,0.69-0.49,0.87-0.85C62.83,118.97,62.92,118.5,62.92,117.92z"/>
	<path class="st0" d="M112.56,107.02c0,0.34-0.1,0.6-0.31,0.78s-0.45,0.27-0.74,0.27h-13.3V111c0,0.36-0.11,0.63-0.34,0.82
		c-0.23,0.18-0.51,0.27-0.85,0.27s-0.62-0.09-0.83-0.27c-0.22-0.18-0.33-0.45-0.33-0.82v-2.93H82.53c-0.29,0-0.54-0.09-0.74-0.27
		c-0.21-0.18-0.31-0.44-0.31-0.78s0.1-0.6,0.31-0.78s0.45-0.27,0.74-0.27h28.99c0.29,0,0.54,0.09,0.74,0.27
		C112.46,106.42,112.56,106.68,112.56,107.02z M109.66,100.61c0.72,0.22,1.04,0.64,0.94,1.27c-0.02,0.34-0.16,0.61-0.4,0.8
		s-0.58,0.27-1.01,0.22c-1.59-0.22-3-0.45-4.22-0.71c-1.22-0.25-2.31-0.56-3.26-0.92c-0.95-0.36-1.81-0.82-2.55-1.36
		c-0.75-0.54-1.46-1.24-2.14-2.08c-0.65,0.85-1.35,1.55-2.1,2.12s-1.61,1.04-2.57,1.43c-0.97,0.39-2.06,0.7-3.28,0.94
		c-1.22,0.24-2.63,0.43-4.22,0.58c-0.43,0.05-0.77-0.03-1-0.24s-0.36-0.46-0.38-0.78c-0.07-0.68,0.25-1.09,0.98-1.23
		c1.45-0.12,2.82-0.31,4.11-0.56S91,99.48,92,99.02s1.83-1.03,2.48-1.7s1.07-1.5,1.27-2.46h-9.96c-0.29,0-0.54-0.09-0.74-0.27
		c-0.21-0.18-0.31-0.44-0.31-0.78s0.1-0.6,0.31-0.78s0.45-0.27,0.74-0.27h22.46c0.29,0,0.54,0.09,0.74,0.27
		c0.21,0.18,0.31,0.44,0.31,0.78s-0.1,0.6-0.31,0.78s-0.45,0.27-0.74,0.27h-9.93c0.17,0.97,0.58,1.78,1.25,2.43
		c0.66,0.65,1.5,1.2,2.52,1.63c1.01,0.44,2.17,0.79,3.46,1.05C106.84,100.22,108.21,100.44,109.66,100.61z M110.35,118.14
		c0,1.81-0.57,3.04-1.72,3.7c-1.15,0.65-2.9,0.98-5.27,0.98H90.75c-2.37,0-4.12-0.33-5.27-0.98c-1.15-0.65-1.72-1.88-1.72-3.7
		c0-1.81,0.57-3.04,1.72-3.7c1.15-0.65,2.9-0.98,5.27-0.98h12.61c2.37,0,4.12,0.33,5.27,0.98
		C109.78,115.1,110.35,116.33,110.35,118.14z M108,118.14c0-0.58-0.09-1.04-0.27-1.38s-0.47-0.6-0.87-0.78s-0.93-0.3-1.59-0.34
		c-0.66-0.05-1.47-0.07-2.41-0.07h-11.6c-0.94,0-1.75,0.02-2.41,0.07s-1.2,0.16-1.59,0.34c-0.4,0.18-0.69,0.44-0.87,0.78
		s-0.27,0.8-0.27,1.38c0,0.58,0.09,1.04,0.27,1.38s0.47,0.6,0.87,0.78s0.93,0.3,1.59,0.34c0.66,0.05,1.47,0.07,2.41,0.07h11.59
		c0.94,0,1.74-0.03,2.41-0.07c0.66-0.05,1.2-0.16,1.59-0.34c0.4-0.18,0.69-0.44,0.87-0.78C107.91,119.18,108,118.72,108,118.14z"/>
	<path class="st0" d="M127.45,118.54c0-0.7,0.24-1.29,0.71-1.76c0.47-0.47,1.06-0.71,1.76-0.71s1.29,0.24,1.78,0.71
		c0.48,0.47,0.72,1.06,0.72,1.76c0,0.7-0.24,1.28-0.72,1.74s-1.07,0.69-1.78,0.69c-0.7,0-1.29-0.23-1.76-0.69
		S127.45,119.24,127.45,118.54z"/>
	<path class="st0" d="M148.25,118.54c0-0.7,0.24-1.29,0.71-1.76s1.06-0.71,1.76-0.71s1.29,0.24,1.78,0.71
		c0.48,0.47,0.72,1.06,0.72,1.76c0,0.7-0.24,1.28-0.72,1.74s-1.08,0.69-1.78,0.69s-1.29-0.23-1.76-0.69
		C148.48,119.82,148.25,119.24,148.25,118.54z"/>
	<path class="st0" d="M169.05,118.54c0-0.7,0.24-1.29,0.71-1.76s1.06-0.71,1.76-0.71s1.29,0.24,1.78,0.71
		c0.48,0.47,0.72,1.06,0.72,1.76c0,0.7-0.24,1.28-0.72,1.74s-1.08,0.69-1.78,0.69s-1.29-0.23-1.76-0.69
		C169.28,119.82,169.05,119.24,169.05,118.54z"/>
</g>
<g>
	<path class="st0" d="M5.6,105.71c0,0.29,0.05,0.48,0.16,0.58s0.26,0.14,0.45,0.14h10.62c0.29,0,0.54,0.09,0.74,0.27
		c0.21,0.18,0.31,0.44,0.31,0.78c0,0.34-0.1,0.6-0.31,0.78c-0.21,0.18-0.45,0.27-0.74,0.27H5.85c-0.58,0-1.04-0.08-1.39-0.25
		c-0.35-0.17-0.62-0.39-0.8-0.65s-0.3-0.57-0.34-0.91c-0.05-0.34-0.07-0.68-0.07-1.01V95.68c0-0.34,0.02-0.68,0.07-1.01
		c0.05-0.34,0.16-0.64,0.34-0.91s0.45-0.48,0.8-0.65c0.35-0.17,0.81-0.25,1.39-0.25h9.96c0.29,0,0.54,0.09,0.74,0.27
		c0.21,0.18,0.31,0.44,0.31,0.78c0,0.34-0.1,0.6-0.31,0.78c-0.21,0.18-0.45,0.27-0.74,0.27h-9.6c-0.19,0-0.34,0.05-0.45,0.14
		c-0.11,0.1-0.16,0.29-0.16,0.58v3.91h10.15c0.29,0,0.54,0.09,0.74,0.27c0.21,0.18,0.31,0.44,0.31,0.78c0,0.34-0.1,0.6-0.31,0.78
		c-0.21,0.18-0.45,0.27-0.74,0.27H5.6V105.71z M29.26,120.1c0,0.34-0.02,0.68-0.07,1.01c-0.05,0.34-0.16,0.64-0.34,0.91
		c-0.18,0.27-0.45,0.48-0.8,0.65c-0.35,0.17-0.82,0.25-1.4,0.25H6.18c-0.58,0-1.04-0.08-1.4-0.25c-0.35-0.17-0.62-0.39-0.8-0.65
		c-0.18-0.27-0.3-0.57-0.34-0.91c-0.05-0.34-0.07-0.68-0.07-1.01v-7.39c0-0.36,0.11-0.63,0.33-0.82c0.22-0.18,0.5-0.27,0.83-0.27
		c0.34,0,0.62,0.09,0.85,0.27c0.23,0.18,0.34,0.45,0.34,0.82v2.61H26.9v-2.61c0-0.36,0.11-0.63,0.33-0.82s0.49-0.27,0.83-0.27
		c0.34,0,0.62,0.09,0.85,0.27c0.23,0.18,0.34,0.45,0.34,0.82V120.1z M26.29,120.82c0.19,0,0.34-0.05,0.45-0.15
		c0.11-0.1,0.16-0.29,0.16-0.58v-2.68H5.92v2.68c0,0.29,0.05,0.48,0.16,0.58c0.11,0.1,0.26,0.15,0.45,0.15H26.29z M34.76,100.82
		c0,0.34-0.1,0.6-0.31,0.78c-0.21,0.18-0.45,0.27-0.74,0.27H28.9v6.3c0,0.36-0.11,0.63-0.34,0.82c-0.23,0.18-0.51,0.27-0.85,0.27
		c-0.34,0-0.62-0.09-0.83-0.27c-0.22-0.18-0.33-0.45-0.33-0.82V93.5c0-0.36,0.11-0.63,0.33-0.82c0.22-0.18,0.49-0.27,0.83-0.27
		c0.34,0,0.62,0.09,0.85,0.27c0.23,0.18,0.34,0.45,0.34,0.82v6.27h4.82c0.29,0,0.54,0.09,0.74,0.27
		C34.66,100.22,34.76,100.48,34.76,100.82z"/>
</g>
</svg>
