<?xml version="1.0" encoding="utf-8"?>
<!-- Generator: Adobe Illustrator 22.1.0, SVG Export Plug-In . SVG Version: 6.00 Build 0)  -->
<svg version="1.1" id="Layer_1" xmlns="http://www.w3.org/2000/svg" xmlns:xlink="http://www.w3.org/1999/xlink" x="0px" y="0px"
	 viewBox="0 0 24 24" style="enable-background:new 0 0 24 24;" xml:space="preserve">
<style type="text/css">
	.st0{fill:#5DF405;}
</style>
<g>
	<g>
		<g>
			<g>
				<path class="st0" d="M12,22C6.5,22,2,17.5,2,12S6.5,2,12,2s10,4,10,9c0,3.3-2.7,6-6,6h-1.8c-0.3,0-0.5,0.2-0.5,0.5
					c0,0.1,0.1,0.2,0.1,0.3c0.4,0.5,0.6,1.1,0.6,1.7C14.5,20.9,13.4,22,12,22z M12,4c-4.4,0-8,3.6-8,8s3.6,8,8,8
					c0.3,0,0.5-0.2,0.5-0.5c0-0.2-0.1-0.3-0.1-0.4c-0.4-0.5-0.6-1-0.6-1.6c0-1.4,1.1-2.5,2.5-2.5H16c2.2,0,4-1.8,4-4
					C20,7.1,16.4,4,12,4z"/>
				<circle class="st0" cx="6.5" cy="11.5" r="1.5"/>
				<circle class="st0" cx="9.5" cy="7.5" r="1.5"/>
				<circle class="st0" cx="14.5" cy="7.5" r="1.5"/>
				<circle class="st0" cx="17.5" cy="11.5" r="1.5"/>
			</g>
		</g>
	</g>
</g>
</svg>
