<?xml version="1.0" encoding="utf-8"?>
<!-- Generator: Adobe Illustrator 22.1.0, SVG Export Plug-In . SVG Version: 6.00 Build 0)  -->
<svg version="1.1" id="Layer_1" xmlns="http://www.w3.org/2000/svg" xmlns:xlink="http://www.w3.org/1999/xlink" x="0px" y="0px"
	 viewBox="0 0 200 200" style="enable-background:new 0 0 200 200;" xml:space="preserve">
<style type="text/css">
	.st0{fill:#FFFFFF;}
</style>
<path class="st0" d="M99.3,14c47.6,0,86.3,38.7,86.3,86.3s-38.7,86.3-86.3,86.3S13,147.9,13,100.3S51.7,14,99.3,14 M123.8,48.5
	h-18.9c-11.1,0-20.1,8.4-20.1,18.7V82h-10c-0.8,0-1.4,0.6-1.4,1.3v15.3c0,0.7,0.6,1.3,1.4,1.3h10v50.9c0,0.7,0.6,1.3,1.4,1.3h20
	c0.8,0,1.4-0.6,1.4-1.3V99.9h14.5c0.7,0,1.3-0.5,1.4-1.2l1.4-15.3c0.1-0.8-0.6-1.4-1.4-1.4h-15.9V71.1c0-2.5,2.2-4.6,5-4.6h11.2
	c0.8,0,1.4-0.6,1.4-1.3V49.8C125.2,49.1,124.6,48.5,123.8,48.5"/>
</svg>
