<?xml version="1.0" encoding="utf-8"?>
<!-- Generator: Adobe Illustrator 22.1.0, SVG Export Plug-In . SVG Version: 6.00 Build 0)  -->
<svg version="1.1" id="Layer_1" xmlns="http://www.w3.org/2000/svg" xmlns:xlink="http://www.w3.org/1999/xlink" x="0px" y="0px"
	 viewBox="0 0 248 24" style="enable-background:new 0 0 248 24;" xml:space="preserve">
<style type="text/css">
	.st0{fill:#FFFFFF;}
</style>
<g id="Layer_1_1_">
	<path class="st0" d="M266.7,61.5"/>
	<polygon class="st0" points="0,22.8 13.7,22.8 13.7,17.4 30,17.4 30,10.8 13.7,10.8 13.7,8.6 30,8.6 30,1.2 0,1.2 	"/>
	<path class="st0" d="M48.6,7.1H53c2.4,0,3.6,0.5,3.6,1.9c0,1.6-0.7,2.4-3.8,2.4h-4.2V7.1L48.6,7.1z M35,22.8h13.6v-7h0.1l6.4,7
		h16.1l-9.4-8.9c4.2-0.3,8.4-2,8.4-6.3c0-4.1-3.6-6.3-9.7-6.3H35V22.8L35,22.8z"/>
	<polygon class="st0" points="75.3,22.8 105.8,22.8 105.8,17.1 89,17.1 89,15.1 105.8,15.1 105.8,10.1 89,10.1 89,8 105.8,8 
		105.8,1.2 75.3,1.2 	"/>
	<polygon class="st0" points="110.9,22.8 124.5,22.8 124.5,1.2 110.9,1.2 	"/>
	<polygon class="st0" points="137.1,22.8 150.8,22.8 150.8,9.7 158.8,9.7 158.8,1.2 129.1,1.2 129.1,9.7 137.1,9.7 	"/>
	<path class="st0" d="M181.5,14.1h-5.9l2.8-7.9h0.1L181.5,14.1L181.5,14.1z M159.2,22.8h13.9l1-2.8h9l0.9,2.8h14.1l-8.7-21.6h-21.6
		L159.2,22.8L159.2,22.8z"/>
	<path class="st0" d="M233.2,11.8h-12.5v6h-2c-3.4,0-5.9-1.3-5.9-4.7c0-4.1,4.8-4.4,8.7-4.4c3.4,0,7.8,0.2,11.1,0.6V1.7
		c-5.7-0.7-9.1-1.1-15.3-1.1c-9.9,0-18.2,2.7-18.2,11.5c0,8,7,11.3,17.6,11.3c6.9,0,11.3-0.6,16.3-1.9v-9.7
		C233,11.8,233.2,11.8,233.2,11.8z"/>
	<path class="st0" d="M242.2,0c-2.7,0-4.8,2.2-4.8,4.9s2,4.9,4.8,4.9c2.7,0,4.8-2.2,4.8-4.9S244.9,0,242.2,0z M242.2,9
		c-2.3,0-3.9-1.7-3.9-4c0-2.4,1.5-4.1,3.9-4.1c2.3,0,3.9,1.7,3.9,4S244.5,9,242.2,9z"/>
	<path class="st0" d="M243.3,5.3c0.6-0.2,0.9-0.8,0.8-1.5c0-1-0.8-1.6-1.8-1.6h-1.9v5.1h0.9V5.4h1l0.9,1.9h1L243.3,5.3z M242.4,4.7
		h-1V3.1h1c0.5,0,0.9,0.3,0.9,0.8C243.3,4.5,242.9,4.7,242.4,4.7z"/>
</g>
</svg>
