<svg width="1040" height="330" viewBox="0 0 1040 330" fill="none" xmlns="http://www.w3.org/2000/svg">
<mask id="path-1-inside-1_1_1533" fill="white">
<path d="M0 0H380V330H0V0Z"/>
</mask>
<path d="M0 0H380V330H0V0Z" fill="#83AFEF"/>
<path d="M380 330V330.5H380.5V330H380ZM0 330H-0.5V330.5H0V330ZM379.5 0V330H380.5V0H379.5ZM380 329.5H0V330.5H380V329.5ZM0.5 330V0H-0.5V330H0.5Z" fill="black" fill-opacity="0.06" mask="url(#path-1-inside-1_1_1533)"/>
<path d="M32.7181 270.041V268.314H35.9056C36.6748 268.314 37.2724 268.118 37.6985 267.725C38.1246 267.326 38.3377 266.767 38.3377 266.048V266.031C38.3377 265.306 38.1246 264.747 37.6985 264.354C37.2724 263.962 36.6748 263.765 35.9056 263.765H32.7181V262.022H36.4285C37.242 262.022 37.9531 262.188 38.5618 262.52C39.1705 262.852 39.6465 263.32 39.9896 263.923C40.3327 264.521 40.5042 265.221 40.5042 266.023V266.04C40.5042 266.836 40.3327 267.536 39.9896 268.14C39.6465 268.737 39.1705 269.205 38.5618 269.542C37.9531 269.875 37.242 270.041 36.4285 270.041H32.7181ZM31.6473 274V262.022H33.7889V274H31.6473ZM42.4699 274V262.022H47.3093C48.167 262.022 48.903 262.174 49.5173 262.479C50.1315 262.783 50.6019 263.212 50.9284 263.765C51.2549 264.319 51.4182 264.977 51.4182 265.741V265.757C51.4182 266.549 51.2189 267.251 50.8205 267.866C50.4276 268.474 49.877 268.906 49.1687 269.161L51.7834 274H49.343L46.9855 269.493C46.9745 269.493 46.9579 269.493 46.9357 269.493C46.9136 269.493 46.8942 269.493 46.8776 269.493H44.6115V274H42.4699ZM44.6115 267.849H47.0852C47.7658 267.849 48.2943 267.669 48.6706 267.31C49.0469 266.95 49.2351 266.449 49.2351 265.807V265.791C49.2351 265.165 49.0386 264.67 48.6457 264.305C48.2583 263.934 47.7243 263.749 47.0437 263.749H44.6115V267.849ZM53.6246 274V262.022H55.7662V274H53.6246ZM58.3213 274V262.022H60.7783L64.3809 271.244H64.522L68.1162 262.022H70.5732V274H68.6475V265.483H67.6016L69.7266 262.354L65.1777 274H63.7168L59.1763 262.354L61.3013 265.483H60.2471V274H58.3213ZM72.2401 274L76.4901 262.022H78.2665V264.247H77.6273L74.4813 274H72.2401ZM74.3817 270.904L74.9379 269.252H80.433L80.9892 270.904H74.3817ZM80.9145 274L77.7685 264.247V262.022H78.8974L83.1557 274H80.9145ZM84.8143 274V262.022H89.6536C90.5114 262.022 91.2474 262.174 91.8616 262.479C92.4759 262.783 92.9463 263.212 93.2728 263.765C93.5993 264.319 93.7625 264.977 93.7625 265.741V265.757C93.7625 266.549 93.5633 267.251 93.1648 267.866C92.7719 268.474 92.2213 268.906 91.513 269.161L94.1277 274H91.6873L89.3299 269.493C89.3188 269.493 89.3022 269.493 89.2801 269.493C89.2579 269.493 89.2386 269.493 89.222 269.493H86.9559V274H84.8143ZM86.9559 267.849H89.4295C90.1102 267.849 90.6386 267.669 91.0149 267.31C91.3912 266.95 91.5794 266.449 91.5794 265.807V265.791C91.5794 265.165 91.3829 264.67 90.99 264.305C90.6027 263.934 90.0687 263.749 89.388 263.749H86.9559V267.849ZM98.9157 274V269.277L94.7155 262.022H97.0564L99.9118 267.16H100.053L102.908 262.022H105.249L101.049 269.277V274H98.9157Z" fill="#F9F9FD"/>
<path d="M32.2825 296H31.3812L33.2537 286.84H34.1551L33.5711 289.684L33.5521 289.786L32.9109 292.921L32.8919 293.023L32.2825 296ZM35.2723 296H34.3646L34.9803 293.023L34.9993 292.921L35.6404 289.786L35.6595 289.684L36.2435 286.84H37.1512L35.2723 296ZM37.4559 293.442H30.41L30.5877 292.528H32.4222H32.5555H35.4056H35.5389H37.6336L37.4559 293.442ZM38.0462 290.217H36.0213H35.8816H33.0379H32.8982H30.9876L31.1717 289.31H38.2239L38.0462 290.217ZM42.1594 296.152C41.5119 296.152 40.9385 296.04 40.4392 295.816C39.9398 295.592 39.5463 295.283 39.2585 294.889C38.975 294.491 38.8332 294.036 38.8332 293.524V293.512C38.8332 293.135 38.9157 292.786 39.0808 292.464C39.2458 292.143 39.4764 291.87 39.7727 291.646C40.0689 291.417 40.4117 291.258 40.801 291.169V291.144C40.3016 290.987 39.9038 290.729 39.6076 290.37C39.3114 290.01 39.1633 289.589 39.1633 289.106V289.094C39.1633 288.632 39.2924 288.222 39.5505 287.862C39.8086 287.498 40.1641 287.213 40.6169 287.005C41.0697 286.794 41.5839 286.688 42.1594 286.688C42.7391 286.688 43.2533 286.794 43.7019 287.005C44.1547 287.213 44.5101 287.498 44.7683 287.862C45.0264 288.222 45.1555 288.632 45.1555 289.094V289.106C45.1555 289.589 45.0074 290.01 44.7111 290.37C44.4191 290.729 44.0214 290.987 43.5178 291.144V291.169C43.9113 291.258 44.2541 291.417 44.5461 291.646C44.8423 291.87 45.073 292.143 45.238 292.464C45.403 292.786 45.4855 293.135 45.4855 293.512V293.524C45.4855 294.036 45.3438 294.491 45.0603 294.889C44.7767 295.283 44.3832 295.592 43.8796 295.816C43.3802 296.04 42.8068 296.152 42.1594 296.152ZM42.1594 295.156C42.5826 295.156 42.9549 295.084 43.2766 294.94C43.6024 294.792 43.8584 294.591 44.0446 294.337C44.2308 294.079 44.3239 293.785 44.3239 293.455V293.442C44.3239 293.108 44.2308 292.811 44.0446 292.553C43.8627 292.295 43.6088 292.092 43.2829 291.944C42.9571 291.796 42.5826 291.722 42.1594 291.722C41.7362 291.722 41.3617 291.796 41.0358 291.944C40.71 292.092 40.454 292.295 40.2678 292.553C40.0858 292.811 39.9948 293.108 39.9948 293.442V293.455C39.9948 293.785 40.0879 294.079 40.2741 294.337C40.4603 294.591 40.7163 294.792 41.0422 294.94C41.368 295.084 41.7404 295.156 42.1594 295.156ZM42.1594 290.719C42.5275 290.719 42.8513 290.655 43.1306 290.528C43.4099 290.397 43.6278 290.217 43.7844 289.989C43.941 289.76 44.0192 289.498 44.0192 289.202V289.189C44.0192 288.893 43.941 288.63 43.7844 288.402C43.6278 288.173 43.4099 287.996 43.1306 287.869C42.8513 287.737 42.5275 287.672 42.1594 287.672C41.7912 287.672 41.4675 287.737 41.1882 287.869C40.9089 287.996 40.691 288.173 40.5344 288.402C40.3778 288.63 40.2995 288.893 40.2995 289.189V289.202C40.2995 289.498 40.3778 289.76 40.5344 289.989C40.691 290.217 40.9089 290.397 41.1882 290.528C41.4675 290.655 41.7912 290.719 42.1594 290.719ZM50.0494 296.152C49.4189 296.152 48.8688 296.044 48.399 295.829C47.9293 295.613 47.5569 295.317 47.2818 294.94C47.011 294.563 46.8544 294.134 46.8121 293.651L46.8058 293.575H47.9039L47.9103 293.639C47.9399 293.939 48.0457 294.204 48.2276 294.432C48.4138 294.661 48.6614 294.84 48.9703 294.972C49.2835 295.099 49.6432 295.162 50.0494 295.162C50.4514 295.162 50.8027 295.092 51.1031 294.953C51.4078 294.813 51.6448 294.62 51.8141 294.375C51.9833 294.125 52.068 293.84 52.068 293.518V293.505C52.068 292.943 51.8797 292.511 51.503 292.21C51.1306 291.906 50.6228 291.753 49.9796 291.753H48.8307V290.789H49.9288C50.2927 290.789 50.6144 290.721 50.8937 290.585C51.1729 290.446 51.3909 290.257 51.5475 290.021C51.704 289.779 51.7823 289.506 51.7823 289.202V289.189C51.7823 288.867 51.7146 288.594 51.5792 288.37C51.4438 288.146 51.2449 287.974 50.9825 287.856C50.7244 287.737 50.4091 287.678 50.0367 287.678C49.677 287.678 49.3554 287.74 49.0719 287.862C48.7926 287.981 48.5683 288.152 48.399 288.376C48.2298 288.601 48.1282 288.867 48.0943 289.176L48.088 289.24H46.9898L46.9962 289.176C47.047 288.677 47.2035 288.241 47.4659 287.869C47.7325 287.496 48.0838 287.206 48.5196 286.999C48.9597 286.792 49.4654 286.688 50.0367 286.688C50.6207 286.688 51.1285 286.79 51.5602 286.993C51.996 287.192 52.3325 287.469 52.5694 287.824C52.8106 288.175 52.9313 288.584 52.9313 289.049V289.062C52.9313 289.439 52.8487 289.773 52.6837 290.065C52.5187 290.357 52.2901 290.6 51.9981 290.795C51.7062 290.99 51.3697 291.127 50.9889 291.208V291.233C51.6575 291.288 52.197 291.514 52.6075 291.912C53.0222 292.306 53.2296 292.828 53.2296 293.48V293.493C53.2296 294 53.0921 294.455 52.817 294.857C52.5419 295.259 52.1653 295.577 51.6871 295.81C51.2089 296.038 50.663 296.152 50.0494 296.152ZM54.0356 296L57.4126 286.84H58.2886V288.319H57.9268L55.2354 296H54.0356ZM55.5654 293.378L55.9209 292.407H60.0596L60.415 293.378H55.5654ZM60.7197 296L58.0283 288.319V286.84H58.5425L61.9194 296H60.7197ZM63.1254 296V286.84H68.6859V287.869H64.268V291.017H68.3241V292.033H64.268V296H63.1254ZM70.1648 296V286.84H75.8396V287.869H71.3074V290.808H75.6048V291.823H71.3074V294.972H75.8396V296H70.1648ZM77.509 296V286.84H83.0695V287.869H78.6516V291.017H82.7077V292.033H78.6516V296H77.509Z" fill="#F9F9FD"/>
<mask id="path-5-inside-2_1_1533" fill="white">
<path d="M380 0H545V165H380V0Z"/>
</mask>
<path d="M380 0H545V165H380V0Z" fill="black"/>
<path d="M545 165V165.5H545.5V165H545ZM380 165H379.5V165.5H380V165ZM544.5 0V165H545.5V0H544.5ZM545 164.5H380V165.5H545V164.5ZM380.5 165V0H379.5V165H380.5Z" fill="black" fill-opacity="0.06" mask="url(#path-5-inside-2_1_1533)"/>
<path d="M401.615 124.299C400.746 124.299 399.966 124.155 399.274 123.867C398.583 123.574 397.991 123.153 397.498 122.605C397.011 122.058 396.638 121.399 396.377 120.63C396.117 119.855 395.987 118.984 395.987 118.015V117.999C395.987 116.72 396.217 115.613 396.676 114.678C397.136 113.737 397.783 113.01 398.619 112.495C399.46 111.98 400.448 111.723 401.582 111.723C402.506 111.723 403.331 111.889 404.056 112.221C404.786 112.548 405.384 113.007 405.849 113.599C406.313 114.186 406.61 114.869 406.737 115.649L406.753 115.732H404.628L404.604 115.649C404.41 114.991 404.05 114.482 403.524 114.122C402.999 113.757 402.351 113.574 401.582 113.574C400.885 113.574 400.279 113.754 399.764 114.114C399.255 114.473 398.862 114.983 398.585 115.641C398.309 116.3 398.17 117.08 398.17 117.982V117.999C398.17 118.685 398.251 119.302 398.411 119.85C398.572 120.397 398.801 120.865 399.1 121.252C399.404 121.64 399.77 121.936 400.196 122.141C400.627 122.345 401.112 122.448 401.648 122.448C402.257 122.448 402.791 122.329 403.25 122.091C403.715 121.853 404.078 121.521 404.338 121.095C404.604 120.669 404.742 120.173 404.753 119.609V119.36H401.881V117.725H406.845V119.219C406.845 119.993 406.723 120.694 406.479 121.319C406.236 121.944 405.885 122.478 405.425 122.921C404.972 123.364 404.421 123.704 403.773 123.942C403.132 124.18 402.412 124.299 401.615 124.299ZM408.727 124V114.927H410.794V116.322H410.935C411.09 115.835 411.367 115.456 411.766 115.185C412.169 114.913 412.67 114.778 413.268 114.778C413.423 114.778 413.575 114.789 413.725 114.811C413.879 114.828 414.007 114.85 414.106 114.877V116.729C413.94 116.69 413.772 116.662 413.6 116.646C413.434 116.623 413.26 116.612 413.077 116.612C412.618 116.612 412.217 116.698 411.873 116.87C411.53 117.041 411.265 117.287 411.077 117.608C410.888 117.924 410.794 118.297 410.794 118.729V124H408.727ZM417.757 124.149C417.187 124.149 416.675 124.039 416.221 123.817C415.773 123.596 415.419 123.283 415.159 122.879C414.904 122.47 414.777 121.988 414.777 121.435V121.418C414.777 120.882 414.91 120.42 415.176 120.032C415.441 119.639 415.831 119.332 416.346 119.111C416.861 118.889 417.486 118.759 418.222 118.721L421.575 118.513V119.875L418.513 120.074C417.931 120.107 417.503 120.229 417.226 120.439C416.949 120.649 416.811 120.943 416.811 121.319V121.335C416.811 121.723 416.957 122.024 417.251 122.24C417.55 122.456 417.929 122.564 418.388 122.564C418.803 122.564 419.174 122.481 419.5 122.315C419.827 122.149 420.084 121.925 420.272 121.643C420.46 121.355 420.554 121.031 420.554 120.671V117.799C420.554 117.346 420.411 117 420.123 116.762C419.835 116.518 419.409 116.396 418.845 116.396C418.374 116.396 417.99 116.479 417.691 116.646C417.392 116.806 417.19 117.036 417.085 117.334L417.076 117.368H415.126L415.134 117.293C415.2 116.784 415.4 116.338 415.732 115.957C416.064 115.575 416.504 115.279 417.052 115.068C417.599 114.858 418.23 114.753 418.944 114.753C419.73 114.753 420.394 114.875 420.936 115.118C421.479 115.356 421.891 115.705 422.173 116.164C422.455 116.618 422.596 117.163 422.596 117.799V124H420.554V122.755H420.413C420.247 123.043 420.032 123.292 419.766 123.502C419.506 123.712 419.207 123.873 418.869 123.983C418.532 124.094 418.161 124.149 417.757 124.149ZM425.367 127.188C425.24 127.188 425.107 127.185 424.969 127.179C424.836 127.174 424.706 127.165 424.579 127.154V125.569C424.662 125.58 424.759 125.585 424.869 125.585C424.98 125.591 425.088 125.594 425.193 125.594C425.619 125.594 425.96 125.5 426.214 125.312C426.474 125.129 426.66 124.833 426.77 124.423L426.878 124.008L423.633 114.927H425.89L428.281 122.962L427.717 122.016H428.43L427.883 122.962L430.273 114.927H432.448L429.194 124.199C428.928 124.952 428.627 125.547 428.289 125.984C427.957 126.421 427.553 126.731 427.077 126.914C426.607 127.096 426.037 127.188 425.367 127.188ZM442.323 124.299C441.371 124.299 440.555 124.044 439.874 123.535C439.199 123.026 438.679 122.301 438.313 121.36C437.948 120.42 437.766 119.305 437.766 118.015V117.999C437.766 116.709 437.948 115.597 438.313 114.662C438.679 113.721 439.199 112.996 439.874 112.487C440.555 111.978 441.371 111.723 442.323 111.723C443.275 111.723 444.091 111.978 444.771 112.487C445.452 112.996 445.975 113.721 446.34 114.662C446.706 115.597 446.888 116.709 446.888 117.999V118.015C446.888 119.305 446.706 120.42 446.34 121.36C445.975 122.301 445.452 123.026 444.771 123.535C444.091 124.044 443.275 124.299 442.323 124.299ZM442.323 122.564C442.832 122.564 443.266 122.381 443.626 122.016C443.986 121.651 444.26 121.131 444.448 120.456C444.641 119.775 444.738 118.961 444.738 118.015V117.999C444.738 117.052 444.641 116.242 444.448 115.566C444.26 114.886 443.986 114.366 443.626 114.006C443.266 113.641 442.832 113.458 442.323 113.458C441.814 113.458 441.379 113.641 441.02 114.006C440.665 114.366 440.391 114.886 440.198 115.566C440.01 116.242 439.916 117.052 439.916 117.999V118.015C439.916 118.961 440.01 119.775 440.198 120.456C440.391 121.131 440.665 121.651 441.02 122.016C441.379 122.381 441.814 122.564 442.323 122.564Z" fill="#F9F9FD"/>
<path d="M397.103 146H396.202L398.075 136.84H398.976L398.392 139.684L398.373 139.786L397.732 142.921L397.713 143.023L397.103 146ZM400.093 146H399.185L399.801 143.023L399.82 142.921L400.461 139.786L400.48 139.684L401.064 136.84H401.972L400.093 146ZM402.277 143.442H395.231L395.408 142.528H397.243H397.376H400.226H400.36H402.454L402.277 143.442ZM402.867 140.217H400.842H400.702H397.859H397.719H395.808L395.992 139.31H403.045L402.867 140.217ZM406.917 146.216C406.24 146.216 405.66 146.021 405.177 145.632C404.699 145.243 404.331 144.69 404.073 143.975C403.815 143.256 403.686 142.405 403.686 141.423V141.411C403.686 140.429 403.815 139.58 404.073 138.865C404.331 138.15 404.699 137.598 405.177 137.208C405.66 136.819 406.24 136.625 406.917 136.625C407.594 136.625 408.174 136.819 408.656 137.208C409.138 137.598 409.509 138.15 409.767 138.865C410.029 139.58 410.16 140.429 410.16 141.411V141.423C410.16 142.405 410.029 143.256 409.767 143.975C409.509 144.69 409.138 145.243 408.656 145.632C408.174 146.021 407.594 146.216 406.917 146.216ZM406.917 145.219C407.357 145.219 407.731 145.065 408.04 144.756C408.353 144.447 408.592 144.009 408.758 143.442C408.927 142.875 409.011 142.202 409.011 141.423V141.411C409.011 140.632 408.927 139.961 408.758 139.398C408.592 138.831 408.353 138.396 408.04 138.091C407.731 137.782 407.357 137.627 406.917 137.627C406.481 137.627 406.106 137.782 405.793 138.091C405.484 138.396 405.247 138.831 405.082 139.398C404.917 139.961 404.835 140.632 404.835 141.411V141.423C404.835 142.202 404.917 142.875 405.082 143.442C405.247 144.009 405.484 144.447 405.793 144.756C406.106 145.065 406.481 145.219 406.917 145.219ZM414.705 146.216C414.028 146.216 413.448 146.021 412.966 145.632C412.488 145.243 412.12 144.69 411.861 143.975C411.603 143.256 411.474 142.405 411.474 141.423V141.411C411.474 140.429 411.603 139.58 411.861 138.865C412.12 138.15 412.488 137.598 412.966 137.208C413.448 136.819 414.028 136.625 414.705 136.625C415.382 136.625 415.962 136.819 416.444 137.208C416.927 137.598 417.297 138.15 417.555 138.865C417.818 139.58 417.949 140.429 417.949 141.411V141.423C417.949 142.405 417.818 143.256 417.555 143.975C417.297 144.69 416.927 145.243 416.444 145.632C415.962 146.021 415.382 146.216 414.705 146.216ZM414.705 145.219C415.145 145.219 415.52 145.065 415.829 144.756C416.142 144.447 416.381 144.009 416.546 143.442C416.715 142.875 416.8 142.202 416.8 141.423V141.411C416.8 140.632 416.715 139.961 416.546 139.398C416.381 138.831 416.142 138.396 415.829 138.091C415.52 137.782 415.145 137.627 414.705 137.627C414.269 137.627 413.895 137.782 413.582 138.091C413.273 138.396 413.036 138.831 412.871 139.398C412.706 139.961 412.623 140.632 412.623 141.411V141.423C412.623 142.202 412.706 142.875 412.871 143.442C413.036 144.009 413.273 144.447 413.582 144.756C413.895 145.065 414.269 145.219 414.705 145.219ZM422.494 146.216C421.817 146.216 421.237 146.021 420.754 145.632C420.276 145.243 419.908 144.69 419.65 143.975C419.392 143.256 419.263 142.405 419.263 141.423V141.411C419.263 140.429 419.392 139.58 419.65 138.865C419.908 138.15 420.276 137.598 420.754 137.208C421.237 136.819 421.817 136.625 422.494 136.625C423.171 136.625 423.75 136.819 424.233 137.208C424.715 137.598 425.086 138.15 425.344 138.865C425.606 139.58 425.737 140.429 425.737 141.411V141.423C425.737 142.405 425.606 143.256 425.344 143.975C425.086 144.69 424.715 145.243 424.233 145.632C423.75 146.021 423.171 146.216 422.494 146.216ZM422.494 145.219C422.934 145.219 423.308 145.065 423.617 144.756C423.93 144.447 424.169 144.009 424.334 143.442C424.504 142.875 424.588 142.202 424.588 141.423V141.411C424.588 140.632 424.504 139.961 424.334 139.398C424.169 138.831 423.93 138.396 423.617 138.091C423.308 137.782 422.934 137.627 422.494 137.627C422.058 137.627 421.683 137.782 421.37 138.091C421.061 138.396 420.824 138.831 420.659 139.398C420.494 139.961 420.412 140.632 420.412 141.411V141.423C420.412 142.202 420.494 142.875 420.659 143.442C420.824 144.009 421.061 144.447 421.37 144.756C421.683 145.065 422.058 145.219 422.494 145.219ZM430.282 146.216C429.605 146.216 429.025 146.021 428.543 145.632C428.065 145.243 427.697 144.69 427.438 143.975C427.18 143.256 427.051 142.405 427.051 141.423V141.411C427.051 140.429 427.18 139.58 427.438 138.865C427.697 138.15 428.065 137.598 428.543 137.208C429.025 136.819 429.605 136.625 430.282 136.625C430.959 136.625 431.539 136.819 432.021 137.208C432.504 137.598 432.874 138.15 433.132 138.865C433.395 139.58 433.526 140.429 433.526 141.411V141.423C433.526 142.405 433.395 143.256 433.132 143.975C432.874 144.69 432.504 145.243 432.021 145.632C431.539 146.021 430.959 146.216 430.282 146.216ZM430.282 145.219C430.722 145.219 431.097 145.065 431.406 144.756C431.719 144.447 431.958 144.009 432.123 143.442C432.292 142.875 432.377 142.202 432.377 141.423V141.411C432.377 140.632 432.292 139.961 432.123 139.398C431.958 138.831 431.719 138.396 431.406 138.091C431.097 137.782 430.722 137.627 430.282 137.627C429.846 137.627 429.472 137.782 429.159 138.091C428.85 138.396 428.613 138.831 428.448 139.398C428.283 139.961 428.2 140.632 428.2 141.411V141.423C428.2 142.202 428.283 142.875 428.448 143.442C428.613 144.009 428.85 144.447 429.159 144.756C429.472 145.065 429.846 145.219 430.282 145.219ZM438.071 146.216C437.394 146.216 436.814 146.021 436.331 145.632C435.853 145.243 435.485 144.69 435.227 143.975C434.969 143.256 434.84 142.405 434.84 141.423V141.411C434.84 140.429 434.969 139.58 435.227 138.865C435.485 138.15 435.853 137.598 436.331 137.208C436.814 136.819 437.394 136.625 438.071 136.625C438.748 136.625 439.327 136.819 439.81 137.208C440.292 137.598 440.663 138.15 440.921 138.865C441.183 139.58 441.314 140.429 441.314 141.411V141.423C441.314 142.405 441.183 143.256 440.921 143.975C440.663 144.69 440.292 145.243 439.81 145.632C439.327 146.021 438.748 146.216 438.071 146.216ZM438.071 145.219C438.511 145.219 438.885 145.065 439.194 144.756C439.507 144.447 439.746 144.009 439.911 143.442C440.081 142.875 440.165 142.202 440.165 141.423V141.411C440.165 140.632 440.081 139.961 439.911 139.398C439.746 138.831 439.507 138.396 439.194 138.091C438.885 137.782 438.511 137.627 438.071 137.627C437.635 137.627 437.26 137.782 436.947 138.091C436.638 138.396 436.401 138.831 436.236 139.398C436.071 139.961 435.989 140.632 435.989 141.411V141.423C435.989 142.202 436.071 142.875 436.236 143.442C436.401 144.009 436.638 144.447 436.947 144.756C437.26 145.065 437.635 145.219 438.071 145.219ZM445.859 146.216C445.182 146.216 444.602 146.021 444.12 145.632C443.642 145.243 443.273 144.69 443.015 143.975C442.757 143.256 442.628 142.405 442.628 141.423V141.411C442.628 140.429 442.757 139.58 443.015 138.865C443.273 138.15 443.642 137.598 444.12 137.208C444.602 136.819 445.182 136.625 445.859 136.625C446.536 136.625 447.116 136.819 447.598 137.208C448.081 137.598 448.451 138.15 448.709 138.865C448.972 139.58 449.103 140.429 449.103 141.411V141.423C449.103 142.405 448.972 143.256 448.709 143.975C448.451 144.69 448.081 145.243 447.598 145.632C447.116 146.021 446.536 146.216 445.859 146.216ZM445.859 145.219C446.299 145.219 446.674 145.065 446.983 144.756C447.296 144.447 447.535 144.009 447.7 143.442C447.869 142.875 447.954 142.202 447.954 141.423V141.411C447.954 140.632 447.869 139.961 447.7 139.398C447.535 138.831 447.296 138.396 446.983 138.091C446.674 137.782 446.299 137.627 445.859 137.627C445.423 137.627 445.049 137.782 444.736 138.091C444.427 138.396 444.19 138.831 444.025 139.398C443.86 139.961 443.777 140.632 443.777 141.411V141.423C443.777 142.202 443.86 142.875 444.025 143.442C444.19 144.009 444.427 144.447 444.736 144.756C445.049 145.065 445.423 145.219 445.859 145.219Z" fill="#F9F9FD"/>
<mask id="path-9-inside-3_1_1533" fill="white">
<path d="M545 0H710V165H545V0Z"/>
</mask>
<path d="M545 0H710V165H545V0Z" fill="#18191D"/>
<path d="M710 165V165.5H710.5V165H710ZM545 165H544.5V165.5H545V165ZM709.5 0V165H710.5V0H709.5ZM710 164.5H545V165.5H710V164.5ZM545.5 165V0H544.5V165H545.5Z" fill="black" fill-opacity="0.06" mask="url(#path-9-inside-3_1_1533)"/>
<path d="M566.615 124.299C565.746 124.299 564.966 124.155 564.274 123.867C563.582 123.574 562.99 123.153 562.498 122.605C562.011 122.058 561.637 121.399 561.377 120.63C561.117 119.855 560.987 118.984 560.987 118.015V117.999C560.987 116.72 561.217 115.613 561.676 114.678C562.135 113.737 562.783 113.01 563.618 112.495C564.46 111.98 565.447 111.723 566.582 111.723C567.506 111.723 568.331 111.889 569.055 112.221C569.786 112.548 570.384 113.007 570.848 113.599C571.313 114.186 571.609 114.869 571.737 115.649L571.753 115.732H569.628L569.603 115.649C569.41 114.991 569.05 114.482 568.524 114.122C567.999 113.757 567.351 113.574 566.582 113.574C565.885 113.574 565.279 113.754 564.764 114.114C564.255 114.473 563.862 114.983 563.585 115.641C563.309 116.3 563.17 117.08 563.17 117.982V117.999C563.17 118.685 563.25 119.302 563.411 119.85C563.571 120.397 563.801 120.865 564.1 121.252C564.404 121.64 564.769 121.936 565.196 122.141C565.627 122.345 566.111 122.448 566.648 122.448C567.257 122.448 567.791 122.329 568.25 122.091C568.715 121.853 569.078 121.521 569.338 121.095C569.603 120.669 569.742 120.173 569.753 119.609V119.36H566.881V117.725H571.845V119.219C571.845 119.993 571.723 120.694 571.479 121.319C571.236 121.944 570.884 122.478 570.425 122.921C569.971 123.364 569.421 123.704 568.773 123.942C568.131 124.18 567.412 124.299 566.615 124.299ZM573.727 124V114.927H575.794V116.322H575.935C576.09 115.835 576.367 115.456 576.765 115.185C577.169 114.913 577.67 114.778 578.268 114.778C578.423 114.778 578.575 114.789 578.724 114.811C578.879 114.828 579.007 114.85 579.106 114.877V116.729C578.94 116.69 578.771 116.662 578.6 116.646C578.434 116.623 578.259 116.612 578.077 116.612C577.618 116.612 577.216 116.698 576.873 116.87C576.53 117.041 576.265 117.287 576.076 117.608C575.888 117.924 575.794 118.297 575.794 118.729V124H573.727ZM582.757 124.149C582.187 124.149 581.675 124.039 581.221 123.817C580.773 123.596 580.419 123.283 580.159 122.879C579.904 122.47 579.777 121.988 579.777 121.435V121.418C579.777 120.882 579.91 120.42 580.175 120.032C580.441 119.639 580.831 119.332 581.346 119.111C581.86 118.889 582.486 118.759 583.222 118.721L586.575 118.513V119.875L583.512 120.074C582.931 120.107 582.502 120.229 582.226 120.439C581.949 120.649 581.811 120.943 581.811 121.319V121.335C581.811 121.723 581.957 122.024 582.251 122.24C582.549 122.456 582.928 122.564 583.388 122.564C583.803 122.564 584.174 122.481 584.5 122.315C584.827 122.149 585.084 121.925 585.272 121.643C585.46 121.355 585.554 121.031 585.554 120.671V117.799C585.554 117.346 585.41 117 585.123 116.762C584.835 116.518 584.409 116.396 583.844 116.396C583.374 116.396 582.989 116.479 582.691 116.646C582.392 116.806 582.19 117.036 582.085 117.334L582.076 117.368H580.126L580.134 117.293C580.2 116.784 580.4 116.338 580.732 115.957C581.064 115.575 581.504 115.279 582.051 115.068C582.599 114.858 583.23 114.753 583.944 114.753C584.73 114.753 585.394 114.875 585.936 115.118C586.478 115.356 586.891 115.705 587.173 116.164C587.455 116.618 587.596 117.163 587.596 117.799V124H585.554V122.755H585.413C585.247 123.043 585.031 123.292 584.766 123.502C584.506 123.712 584.207 123.873 583.869 123.983C583.532 124.094 583.161 124.149 582.757 124.149ZM590.367 127.188C590.24 127.188 590.107 127.185 589.969 127.179C589.836 127.174 589.706 127.165 589.579 127.154V125.569C589.662 125.58 589.758 125.585 589.869 125.585C589.98 125.591 590.088 125.594 590.193 125.594C590.619 125.594 590.959 125.5 591.214 125.312C591.474 125.129 591.659 124.833 591.77 124.423L591.878 124.008L588.632 114.927H590.89L593.281 122.962L592.716 122.016H593.43L592.882 122.962L595.273 114.927H597.448L594.194 124.199C593.928 124.952 593.627 125.547 593.289 125.984C592.957 126.421 592.553 126.731 592.077 126.914C591.607 127.096 591.037 127.188 590.367 127.188ZM605.87 124V114.13H605.721L602.741 116.23V114.222L605.87 112.022H608.003V124H605.87ZM615.323 124.299C614.371 124.299 613.555 124.044 612.874 123.535C612.199 123.026 611.679 122.301 611.314 121.36C610.948 120.42 610.766 119.305 610.766 118.015V117.999C610.766 116.709 610.948 115.597 611.314 114.662C611.679 113.721 612.199 112.996 612.874 112.487C613.555 111.978 614.371 111.723 615.323 111.723C616.275 111.723 617.091 111.978 617.772 112.487C618.452 112.996 618.975 113.721 619.341 114.662C619.706 115.597 619.888 116.709 619.888 117.999V118.015C619.888 119.305 619.706 120.42 619.341 121.36C618.975 122.301 618.452 123.026 617.772 123.535C617.091 124.044 616.275 124.299 615.323 124.299ZM615.323 122.564C615.832 122.564 616.266 122.381 616.626 122.016C616.986 121.651 617.26 121.131 617.448 120.456C617.642 119.775 617.738 118.961 617.738 118.015V117.999C617.738 117.052 617.642 116.242 617.448 115.566C617.26 114.886 616.986 114.366 616.626 114.006C616.266 113.641 615.832 113.458 615.323 113.458C614.814 113.458 614.379 113.641 614.02 114.006C613.666 114.366 613.392 114.886 613.198 115.566C613.01 116.242 612.916 117.052 612.916 117.999V118.015C612.916 118.961 613.01 119.775 613.198 120.456C613.392 121.131 613.666 121.651 614.02 122.016C614.379 122.381 614.814 122.564 615.323 122.564Z" fill="#F9F9FD"/>
<path d="M562.111 146H561.209L563.082 136.84H563.983L563.399 139.684L563.38 139.786L562.739 142.921L562.72 143.023L562.111 146ZM565.1 146H564.193L564.808 143.023L564.827 142.921L565.469 139.786L565.488 139.684L566.072 136.84H566.979L565.1 146ZM567.284 143.442H560.238L560.416 142.528H562.25H562.384H565.234H565.367H567.462L567.284 143.442ZM567.874 140.217H565.849H565.71H562.866H562.726H560.816L561 139.31H568.052L567.874 140.217ZM571.099 146V138.11H570.997L568.668 139.798V138.592L571.105 136.84H572.241V146H571.099ZM577.618 146.152C576.97 146.152 576.397 146.04 575.898 145.816C575.398 145.592 575.005 145.283 574.717 144.889C574.433 144.491 574.292 144.036 574.292 143.524V143.512C574.292 143.135 574.374 142.786 574.539 142.464C574.704 142.143 574.935 141.87 575.231 141.646C575.527 141.417 575.87 141.258 576.259 141.169V141.144C575.76 140.987 575.362 140.729 575.066 140.37C574.77 140.01 574.622 139.589 574.622 139.106V139.094C574.622 138.632 574.751 138.222 575.009 137.862C575.267 137.498 575.622 137.213 576.075 137.005C576.528 136.794 577.042 136.688 577.618 136.688C578.198 136.688 578.712 136.794 579.16 137.005C579.613 137.213 579.969 137.498 580.227 137.862C580.485 138.222 580.614 138.632 580.614 139.094V139.106C580.614 139.589 580.466 140.01 580.17 140.37C579.878 140.729 579.48 140.987 578.976 141.144V141.169C579.37 141.258 579.713 141.417 580.004 141.646C580.301 141.87 580.531 142.143 580.696 142.464C580.861 142.786 580.944 143.135 580.944 143.512V143.524C580.944 144.036 580.802 144.491 580.519 144.889C580.235 145.283 579.842 145.592 579.338 145.816C578.839 146.04 578.265 146.152 577.618 146.152ZM577.618 145.156C578.041 145.156 578.413 145.084 578.735 144.94C579.061 144.792 579.317 144.591 579.503 144.337C579.689 144.079 579.782 143.785 579.782 143.455V143.442C579.782 143.108 579.689 142.811 579.503 142.553C579.321 142.295 579.067 142.092 578.741 141.944C578.415 141.796 578.041 141.722 577.618 141.722C577.195 141.722 576.82 141.796 576.494 141.944C576.168 142.092 575.912 142.295 575.726 142.553C575.544 142.811 575.453 143.108 575.453 143.442V143.455C575.453 143.785 575.546 144.079 575.733 144.337C575.919 144.591 576.175 144.792 576.501 144.94C576.826 145.084 577.199 145.156 577.618 145.156ZM577.618 140.719C577.986 140.719 578.31 140.655 578.589 140.528C578.868 140.397 579.086 140.217 579.243 139.989C579.399 139.76 579.478 139.498 579.478 139.202V139.189C579.478 138.893 579.399 138.63 579.243 138.402C579.086 138.173 578.868 137.996 578.589 137.869C578.31 137.737 577.986 137.672 577.618 137.672C577.25 137.672 576.926 137.737 576.647 137.869C576.367 137.996 576.149 138.173 575.993 138.402C575.836 138.63 575.758 138.893 575.758 139.189V139.202C575.758 139.498 575.836 139.76 575.993 139.989C576.149 140.217 576.367 140.397 576.647 140.528C576.926 140.655 577.25 140.719 577.618 140.719ZM584.632 146V138.11H584.53L582.201 139.798V138.592L584.638 136.84H585.774V146H584.632ZM591.017 136.625C591.436 136.625 591.849 136.705 592.255 136.866C592.666 137.027 593.036 137.287 593.366 137.646C593.7 138.006 593.967 138.482 594.166 139.075C594.365 139.663 594.464 140.389 594.464 141.252V141.265C594.464 142.306 594.325 143.196 594.045 143.937C593.766 144.673 593.364 145.238 592.839 145.632C592.315 146.021 591.682 146.216 590.941 146.216C590.429 146.216 589.966 146.123 589.551 145.937C589.141 145.746 588.798 145.482 588.523 145.143C588.248 144.805 588.057 144.411 587.952 143.962L587.933 143.88H589.081L589.107 143.95C589.2 144.204 589.331 144.424 589.5 144.61C589.674 144.796 589.881 144.94 590.122 145.042C590.368 145.143 590.645 145.194 590.954 145.194C591.508 145.194 591.959 145.033 592.306 144.711C592.653 144.386 592.911 143.954 593.08 143.417C593.25 142.879 593.345 142.293 593.366 141.658C593.37 141.599 593.372 141.542 593.372 141.487C593.372 141.428 593.372 141.37 593.372 141.315L593.1 139.792C593.1 139.39 593.006 139.026 592.82 138.7C592.638 138.374 592.391 138.116 592.078 137.926C591.769 137.731 591.419 137.634 591.03 137.634C590.649 137.634 590.302 137.729 589.989 137.919C589.676 138.106 589.426 138.36 589.24 138.681C589.054 138.999 588.961 139.356 588.961 139.754V139.767C588.961 140.173 589.05 140.535 589.227 140.852C589.405 141.165 589.649 141.413 589.957 141.595C590.266 141.772 590.618 141.861 591.011 141.861C591.409 141.861 591.764 141.772 592.078 141.595C592.391 141.417 592.638 141.174 592.82 140.865C593.006 140.552 593.1 140.196 593.1 139.798V139.792H593.474V141.442H593.252C593.142 141.692 592.973 141.925 592.744 142.141C592.52 142.356 592.245 142.53 591.919 142.661C591.597 142.792 591.229 142.858 590.814 142.858C590.243 142.858 589.731 142.725 589.278 142.458C588.825 142.191 588.468 141.827 588.205 141.366C587.943 140.901 587.812 140.376 587.812 139.792V139.779C587.812 139.17 587.949 138.628 588.225 138.154C588.504 137.676 588.885 137.302 589.367 137.031C589.854 136.76 590.404 136.625 591.017 136.625ZM598.139 146V138.11H598.038L595.708 139.798V138.592L598.146 136.84H599.282V146H598.139ZM601.675 146V136.84H604.817C605.723 136.84 606.497 137.022 607.14 137.386C607.788 137.746 608.283 138.266 608.626 138.948C608.968 139.629 609.14 140.45 609.14 141.411V141.423C609.14 142.384 608.968 143.207 608.626 143.893C608.283 144.574 607.79 145.097 607.147 145.46C606.503 145.82 605.727 146 604.817 146H601.675ZM602.818 144.972H604.741C605.422 144.972 606.004 144.832 606.487 144.553C606.969 144.273 607.337 143.869 607.591 143.34C607.845 142.811 607.972 142.177 607.972 141.436V141.423C607.972 140.679 607.843 140.042 607.585 139.513C607.331 138.979 606.963 138.573 606.48 138.294C605.998 138.01 605.418 137.869 604.741 137.869H602.818V144.972Z" fill="#F9F9FD"/>
<mask id="path-13-inside-4_1_1533" fill="white">
<path d="M710 0H875V165H710V0Z"/>
</mask>
<path d="M710 0H875V165H710V0Z" fill="#303641"/>
<path d="M875 165V165.5H875.5V165H875ZM710 165H709.5V165.5H710V165ZM874.5 0V165H875.5V0H874.5ZM875 164.5H710V165.5H875V164.5ZM710.5 165V0H709.5V165H710.5Z" fill="black" fill-opacity="0.06" mask="url(#path-13-inside-4_1_1533)"/>
<path d="M731.97 122.299C731.101 122.299 730.32 122.155 729.629 121.867C728.937 121.574 728.345 121.153 727.852 120.605C727.365 120.058 726.992 119.399 726.732 118.63C726.472 117.855 726.342 116.984 726.342 116.015V115.999C726.342 114.72 726.571 113.613 727.031 112.678C727.49 111.737 728.137 111.01 728.973 110.495C729.814 109.98 730.802 109.723 731.936 109.723C732.86 109.723 733.685 109.889 734.41 110.221C735.14 110.548 735.738 111.007 736.203 111.599C736.668 112.186 736.964 112.869 737.091 113.649L737.108 113.732H734.983L734.958 113.649C734.764 112.991 734.404 112.482 733.879 112.122C733.353 111.757 732.706 111.574 731.936 111.574C731.239 111.574 730.633 111.754 730.118 112.114C729.609 112.473 729.216 112.983 728.94 113.641C728.663 114.3 728.525 115.08 728.525 115.982V115.999C728.525 116.685 728.605 117.302 728.765 117.85C728.926 118.397 729.156 118.865 729.454 119.252C729.759 119.64 730.124 119.936 730.55 120.141C730.982 120.345 731.466 120.448 732.003 120.448C732.611 120.448 733.145 120.329 733.605 120.091C734.07 119.853 734.432 119.521 734.692 119.095C734.958 118.669 735.096 118.173 735.107 117.609V117.36H732.235V115.725H737.199V117.219C737.199 117.993 737.077 118.694 736.834 119.319C736.59 119.944 736.239 120.478 735.78 120.921C735.326 121.364 734.775 121.704 734.128 121.942C733.486 122.18 732.766 122.299 731.97 122.299ZM739.082 122V112.927H741.149V114.322H741.29C741.445 113.835 741.721 113.456 742.12 113.185C742.524 112.913 743.025 112.778 743.622 112.778C743.777 112.778 743.929 112.789 744.079 112.811C744.234 112.828 744.361 112.85 744.461 112.877V114.729C744.295 114.69 744.126 114.662 743.954 114.646C743.788 114.623 743.614 114.612 743.431 114.612C742.972 114.612 742.571 114.698 742.228 114.87C741.885 115.041 741.619 115.287 741.431 115.608C741.243 115.924 741.149 116.297 741.149 116.729V122H739.082ZM748.111 122.149C747.541 122.149 747.03 122.039 746.576 121.817C746.128 121.596 745.773 121.283 745.513 120.879C745.259 120.47 745.131 119.988 745.131 119.435V119.418C745.131 118.882 745.264 118.42 745.53 118.032C745.796 117.639 746.186 117.332 746.7 117.111C747.215 116.889 747.84 116.759 748.576 116.721L751.93 116.513V117.875L748.867 118.074C748.286 118.107 747.857 118.229 747.58 118.439C747.303 118.649 747.165 118.943 747.165 119.319V119.335C747.165 119.723 747.312 120.024 747.605 120.24C747.904 120.456 748.283 120.564 748.742 120.564C749.157 120.564 749.528 120.481 749.855 120.315C750.181 120.149 750.438 119.925 750.627 119.643C750.815 119.355 750.909 119.031 750.909 118.671V115.799C750.909 115.346 750.765 115 750.477 114.762C750.189 114.518 749.763 114.396 749.199 114.396C748.728 114.396 748.344 114.479 748.045 114.646C747.746 114.806 747.544 115.036 747.439 115.334L747.431 115.368H745.48L745.488 115.293C745.555 114.784 745.754 114.338 746.086 113.957C746.418 113.575 746.858 113.279 747.406 113.068C747.954 112.858 748.585 112.753 749.298 112.753C750.084 112.753 750.748 112.875 751.291 113.118C751.833 113.356 752.245 113.705 752.527 114.164C752.81 114.618 752.951 115.163 752.951 115.799V122H750.909V120.755H750.768C750.602 121.043 750.386 121.292 750.12 121.502C749.86 121.712 749.561 121.873 749.224 121.983C748.886 122.094 748.515 122.149 748.111 122.149ZM755.722 125.188C755.594 125.188 755.462 125.185 755.323 125.179C755.19 125.174 755.06 125.165 754.933 125.154V123.569C755.016 123.58 755.113 123.585 755.224 123.585C755.334 123.591 755.442 123.594 755.547 123.594C755.973 123.594 756.314 123.5 756.568 123.312C756.828 123.129 757.014 122.833 757.125 122.423L757.232 122.008L753.987 112.927H756.245L758.635 120.962L758.071 120.016H758.785L758.237 120.962L760.627 112.927H762.802L759.548 122.199C759.283 122.952 758.981 123.547 758.644 123.984C758.312 124.421 757.908 124.731 757.432 124.914C756.961 125.096 756.391 125.188 755.722 125.188ZM768.294 122V120.556L772.221 116.538C772.763 115.99 773.183 115.539 773.482 115.185C773.787 114.825 774 114.51 774.121 114.239C774.243 113.962 774.304 113.672 774.304 113.367V113.342C774.304 112.977 774.224 112.651 774.063 112.363C773.903 112.075 773.673 111.851 773.374 111.69C773.075 111.524 772.719 111.441 772.304 111.441C771.883 111.441 771.512 111.53 771.191 111.707C770.87 111.879 770.621 112.119 770.444 112.429C770.267 112.739 770.179 113.102 770.179 113.517L770.17 113.55L768.178 113.542L768.17 113.517C768.17 112.77 768.35 112.111 768.709 111.541C769.069 110.971 769.567 110.526 770.203 110.205C770.84 109.884 771.576 109.723 772.411 109.723C773.186 109.723 773.875 109.87 774.478 110.163C775.087 110.456 775.563 110.86 775.906 111.375C776.249 111.89 776.421 112.485 776.421 113.16V113.185C776.421 113.633 776.335 114.073 776.163 114.504C775.992 114.931 775.699 115.398 775.283 115.907C774.874 116.416 774.307 117.022 773.582 117.725L770.618 120.605L771.183 119.659V120.605L770.618 120.232H776.603V122H768.294ZM782.968 122.299C782.017 122.299 781.2 122.044 780.52 121.535C779.845 121.026 779.324 120.301 778.959 119.36C778.594 118.42 778.411 117.305 778.411 116.015V115.999C778.411 114.709 778.594 113.597 778.959 112.662C779.324 111.721 779.845 110.996 780.52 110.487C781.2 109.978 782.017 109.723 782.968 109.723C783.92 109.723 784.737 109.978 785.417 110.487C786.098 110.996 786.621 111.721 786.986 112.662C787.351 113.597 787.534 114.709 787.534 115.999V116.015C787.534 117.305 787.351 118.42 786.986 119.36C786.621 120.301 786.098 121.026 785.417 121.535C784.737 122.044 783.92 122.299 782.968 122.299ZM782.968 120.564C783.478 120.564 783.912 120.381 784.272 120.016C784.631 119.651 784.905 119.131 785.093 118.456C785.287 117.775 785.384 116.961 785.384 116.015V115.999C785.384 115.052 785.287 114.242 785.093 113.566C784.905 112.886 784.631 112.366 784.272 112.006C783.912 111.641 783.478 111.458 782.968 111.458C782.459 111.458 782.025 111.641 781.665 112.006C781.311 112.366 781.037 112.886 780.843 113.566C780.655 114.242 780.561 115.052 780.561 115.999V116.015C780.561 116.961 780.655 117.775 780.843 118.456C781.037 119.131 781.311 119.651 781.665 120.016C782.025 120.381 782.459 120.564 782.968 120.564Z" fill="#F9F9FD"/>
<path d="M727.151 146H726.249L728.122 136.84H729.023L728.439 139.684L728.42 139.786L727.779 142.921L727.76 143.023L727.151 146ZM730.14 146H729.233L729.848 143.023L729.867 142.921L730.509 139.786L730.528 139.684L731.112 136.84H732.019L730.14 146ZM732.324 143.442H725.278L725.456 142.528H727.29H727.424H730.274H730.407H732.502L732.324 143.442ZM732.914 140.217H730.889H730.75H727.906H727.766H725.856L726.04 139.31H733.092L732.914 140.217ZM737.015 146.152C736.384 146.152 735.834 146.044 735.364 145.829C734.895 145.613 734.522 145.317 734.247 144.94C733.976 144.563 733.82 144.134 733.778 143.651L733.771 143.575H734.869L734.876 143.639C734.905 143.939 735.011 144.204 735.193 144.432C735.379 144.661 735.627 144.84 735.936 144.972C736.249 145.099 736.609 145.162 737.015 145.162C737.417 145.162 737.768 145.092 738.069 144.953C738.373 144.813 738.61 144.62 738.779 144.375C738.949 144.125 739.033 143.84 739.033 143.518V143.505C739.033 142.943 738.845 142.511 738.468 142.21C738.096 141.906 737.588 141.753 736.945 141.753H735.796V140.789H736.894C737.258 140.789 737.58 140.721 737.859 140.585C738.138 140.446 738.356 140.257 738.513 140.021C738.669 139.779 738.748 139.506 738.748 139.202V139.189C738.748 138.867 738.68 138.594 738.545 138.37C738.409 138.146 738.21 137.974 737.948 137.856C737.69 137.737 737.375 137.678 737.002 137.678C736.642 137.678 736.321 137.74 736.037 137.862C735.758 137.981 735.534 138.152 735.364 138.376C735.195 138.601 735.094 138.867 735.06 139.176L735.053 139.24H733.955L733.962 139.176C734.012 138.677 734.169 138.241 734.431 137.869C734.698 137.496 735.049 137.206 735.485 136.999C735.925 136.792 736.431 136.688 737.002 136.688C737.586 136.688 738.094 136.79 738.526 136.993C738.961 137.192 739.298 137.469 739.535 137.824C739.776 138.175 739.897 138.584 739.897 139.049V139.062C739.897 139.439 739.814 139.773 739.649 140.065C739.484 140.357 739.256 140.6 738.964 140.795C738.672 140.99 738.335 141.127 737.954 141.208V141.233C738.623 141.288 739.162 141.514 739.573 141.912C739.988 142.306 740.195 142.828 740.195 143.48V143.493C740.195 144 740.057 144.455 739.782 144.857C739.507 145.259 739.131 145.577 738.653 145.81C738.174 146.038 737.628 146.152 737.015 146.152ZM744.714 146.216C744.037 146.216 743.458 146.021 742.975 145.632C742.497 145.243 742.129 144.69 741.871 143.975C741.613 143.256 741.483 142.405 741.483 141.423V141.411C741.483 140.429 741.613 139.58 741.871 138.865C742.129 138.15 742.497 137.598 742.975 137.208C743.458 136.819 744.037 136.625 744.714 136.625C745.392 136.625 745.971 136.819 746.454 137.208C746.936 137.598 747.306 138.15 747.565 138.865C747.827 139.58 747.958 140.429 747.958 141.411V141.423C747.958 142.405 747.827 143.256 747.565 143.975C747.306 144.69 746.936 145.243 746.454 145.632C745.971 146.021 745.392 146.216 744.714 146.216ZM744.714 145.219C745.155 145.219 745.529 145.065 745.838 144.756C746.151 144.447 746.39 144.009 746.555 143.442C746.725 142.875 746.809 142.202 746.809 141.423V141.411C746.809 140.632 746.725 139.961 746.555 139.398C746.39 138.831 746.151 138.396 745.838 138.091C745.529 137.782 745.155 137.627 744.714 137.627C744.279 137.627 743.904 137.782 743.591 138.091C743.282 138.396 743.045 138.831 742.88 139.398C742.715 139.961 742.632 140.632 742.632 141.411V141.423C742.632 142.202 742.715 142.875 742.88 143.442C743.045 144.009 743.282 144.447 743.591 144.756C743.904 145.065 744.279 145.219 744.714 145.219ZM752.554 146.152C751.923 146.152 751.373 146.044 750.903 145.829C750.434 145.613 750.061 145.317 749.786 144.94C749.515 144.563 749.359 144.134 749.316 143.651L749.31 143.575H750.408L750.415 143.639C750.444 143.939 750.55 144.204 750.732 144.432C750.918 144.661 751.166 144.84 751.475 144.972C751.788 145.099 752.147 145.162 752.554 145.162C752.956 145.162 753.307 145.092 753.607 144.953C753.912 144.813 754.149 144.62 754.318 144.375C754.488 144.125 754.572 143.84 754.572 143.518V143.505C754.572 142.943 754.384 142.511 754.007 142.21C753.635 141.906 753.127 141.753 752.484 141.753H751.335V140.789H752.433C752.797 140.789 753.119 140.721 753.398 140.585C753.677 140.446 753.895 140.257 754.052 140.021C754.208 139.779 754.287 139.506 754.287 139.202V139.189C754.287 138.867 754.219 138.594 754.083 138.37C753.948 138.146 753.749 137.974 753.487 137.856C753.229 137.737 752.913 137.678 752.541 137.678C752.181 137.678 751.86 137.74 751.576 137.862C751.297 137.981 751.073 138.152 750.903 138.376C750.734 138.601 750.632 138.867 750.599 139.176L750.592 139.24H749.494L749.5 139.176C749.551 138.677 749.708 138.241 749.97 137.869C750.237 137.496 750.588 137.206 751.024 136.999C751.464 136.792 751.97 136.688 752.541 136.688C753.125 136.688 753.633 136.79 754.064 136.993C754.5 137.192 754.837 137.469 755.074 137.824C755.315 138.175 755.436 138.584 755.436 139.049V139.062C755.436 139.439 755.353 139.773 755.188 140.065C755.023 140.357 754.794 140.6 754.502 140.795C754.21 140.99 753.874 141.127 753.493 141.208V141.233C754.162 141.288 754.701 141.514 755.112 141.912C755.527 142.306 755.734 142.828 755.734 143.48V143.493C755.734 144 755.596 144.455 755.321 144.857C755.046 145.259 754.67 145.577 754.191 145.81C753.713 146.038 753.167 146.152 752.554 146.152ZM760.425 146.216C760.006 146.216 759.591 146.135 759.181 145.975C758.774 145.814 758.404 145.554 758.07 145.194C757.74 144.834 757.475 144.36 757.276 143.772C757.077 143.18 756.978 142.452 756.978 141.588V141.576C756.978 140.535 757.118 139.646 757.397 138.91C757.676 138.169 758.078 137.604 758.603 137.215C759.128 136.821 759.76 136.625 760.501 136.625C761.013 136.625 761.474 136.72 761.885 136.91C762.299 137.096 762.644 137.359 762.919 137.697C763.199 138.032 763.389 138.425 763.491 138.878L763.51 138.96H762.361L762.335 138.891C762.242 138.632 762.109 138.412 761.935 138.23C761.766 138.044 761.559 137.9 761.313 137.799C761.072 137.697 760.797 137.646 760.488 137.646C759.934 137.646 759.483 137.809 759.136 138.135C758.789 138.457 758.531 138.886 758.362 139.424C758.197 139.957 758.101 140.543 758.076 141.182C758.072 141.237 758.07 141.294 758.07 141.354C758.07 141.409 758.07 141.466 758.07 141.525L758.343 143.048C758.343 143.45 758.434 143.814 758.616 144.14C758.802 144.466 759.051 144.726 759.365 144.921C759.678 145.111 760.027 145.207 760.412 145.207C760.797 145.207 761.146 145.113 761.459 144.927C761.773 144.737 762.02 144.481 762.202 144.159C762.388 143.838 762.481 143.48 762.481 143.086V143.074C762.481 142.667 762.392 142.308 762.215 141.995C762.041 141.677 761.8 141.43 761.491 141.252C761.182 141.07 760.829 140.979 760.431 140.979C760.038 140.979 759.682 141.068 759.365 141.246C759.051 141.423 758.802 141.669 758.616 141.982C758.434 142.291 758.343 142.644 758.343 143.042V143.048H757.968V141.398H758.19C758.305 141.148 758.474 140.916 758.698 140.7C758.922 140.484 759.197 140.31 759.523 140.179C759.849 140.048 760.217 139.982 760.628 139.982C761.203 139.982 761.718 140.116 762.17 140.382C762.623 140.649 762.979 141.013 763.237 141.474C763.499 141.935 763.63 142.46 763.63 143.048V143.061C763.63 143.67 763.491 144.212 763.211 144.686C762.936 145.16 762.558 145.535 762.075 145.81C761.593 146.08 761.043 146.216 760.425 146.216ZM769.248 146V144.102H764.785V143.061C765.035 142.646 765.289 142.227 765.547 141.804C765.805 141.377 766.066 140.951 766.328 140.528C766.595 140.101 766.861 139.678 767.128 139.259C767.394 138.84 767.659 138.427 767.921 138.021C768.188 137.615 768.45 137.221 768.708 136.84H770.365V143.08H771.666V144.102H770.365V146H769.248ZM765.953 143.086H769.254V137.9H769.178C768.971 138.209 768.759 138.531 768.543 138.865C768.327 139.195 768.107 139.534 767.883 139.881C767.663 140.228 767.443 140.577 767.223 140.928C767.003 141.279 766.785 141.631 766.569 141.982C766.358 142.329 766.152 142.672 765.953 143.01V143.086ZM775.145 146V138.11H775.043L772.714 139.798V138.592L775.151 136.84H776.287V146H775.145Z" fill="#F9F9FD"/>
<mask id="path-17-inside-5_1_1533" fill="white">
<path d="M875 0H1040V165H875V0Z"/>
</mask>
<path d="M875 0H1040V165H875V0Z" fill="#90A1B8"/>
<path d="M1040 165V165.5H1040.5V165H1040ZM875 165H874.5V165.5H875V165ZM1039.5 0V165H1040.5V0H1039.5ZM1040 164.5H875V165.5H1040V164.5ZM875.5 165V0H874.5V165H875.5Z" fill="black" fill-opacity="0.06" mask="url(#path-17-inside-5_1_1533)"/>
<path d="M896.787 122.299C895.918 122.299 895.138 122.155 894.446 121.867C893.754 121.574 893.162 121.153 892.67 120.605C892.183 120.058 891.809 119.399 891.549 118.63C891.289 117.855 891.159 116.984 891.159 116.015V115.999C891.159 114.72 891.389 113.613 891.848 112.678C892.307 111.737 892.955 111.01 893.79 110.495C894.631 109.98 895.619 109.723 896.754 109.723C897.678 109.723 898.502 109.889 899.227 110.221C899.958 110.548 900.555 111.007 901.02 111.599C901.485 112.186 901.781 112.869 901.908 113.649L901.925 113.732H899.8L899.775 113.649C899.582 112.991 899.222 112.482 898.696 112.122C898.17 111.757 897.523 111.574 896.754 111.574C896.056 111.574 895.45 111.754 894.936 112.114C894.427 112.473 894.034 112.983 893.757 113.641C893.48 114.3 893.342 115.08 893.342 115.982V115.999C893.342 116.685 893.422 117.302 893.583 117.85C893.743 118.397 893.973 118.865 894.272 119.252C894.576 119.64 894.941 119.936 895.367 120.141C895.799 120.345 896.283 120.448 896.82 120.448C897.429 120.448 897.963 120.329 898.422 120.091C898.887 119.853 899.249 119.521 899.51 119.095C899.775 118.669 899.914 118.173 899.925 117.609V117.36H897.053V115.725H902.016V117.219C902.016 117.993 901.895 118.694 901.651 119.319C901.408 119.944 901.056 120.478 900.597 120.921C900.143 121.364 899.593 121.704 898.945 121.942C898.303 122.18 897.584 122.299 896.787 122.299ZM903.899 122V112.927H905.966V114.322H906.107C906.262 113.835 906.539 113.456 906.937 113.185C907.341 112.913 907.842 112.778 908.44 112.778C908.595 112.778 908.747 112.789 908.896 112.811C909.051 112.828 909.178 112.85 909.278 112.877V114.729C909.112 114.69 908.943 114.662 908.772 114.646C908.606 114.623 908.431 114.612 908.249 114.612C907.789 114.612 907.388 114.698 907.045 114.87C906.702 115.041 906.436 115.287 906.248 115.608C906.06 115.924 905.966 116.297 905.966 116.729V122H903.899ZM912.929 122.149C912.359 122.149 911.847 122.039 911.393 121.817C910.945 121.596 910.591 121.283 910.331 120.879C910.076 120.47 909.949 119.988 909.949 119.435V119.418C909.949 118.882 910.082 118.42 910.347 118.032C910.613 117.639 911.003 117.332 911.518 117.111C912.032 116.889 912.658 116.759 913.394 116.721L916.747 116.513V117.875L913.684 118.074C913.103 118.107 912.674 118.229 912.398 118.439C912.121 118.649 911.983 118.943 911.983 119.319V119.335C911.983 119.723 912.129 120.024 912.422 120.24C912.721 120.456 913.1 120.564 913.56 120.564C913.975 120.564 914.345 120.481 914.672 120.315C914.998 120.149 915.256 119.925 915.444 119.643C915.632 119.355 915.726 119.031 915.726 118.671V115.799C915.726 115.346 915.582 115 915.295 114.762C915.007 114.518 914.581 114.396 914.016 114.396C913.546 114.396 913.161 114.479 912.862 114.646C912.564 114.806 912.362 115.036 912.256 115.334L912.248 115.368H910.297L910.306 115.293C910.372 114.784 910.571 114.338 910.903 113.957C911.235 113.575 911.675 113.279 912.223 113.068C912.771 112.858 913.402 112.753 914.116 112.753C914.902 112.753 915.566 112.875 916.108 113.118C916.65 113.356 917.063 113.705 917.345 114.164C917.627 114.618 917.768 115.163 917.768 115.799V122H915.726V120.755H915.585C915.419 121.043 915.203 121.292 914.938 121.502C914.678 121.712 914.379 121.873 914.041 121.983C913.704 122.094 913.333 122.149 912.929 122.149ZM920.539 125.188C920.412 125.188 920.279 125.185 920.141 125.179C920.008 125.174 919.878 125.165 919.75 125.154V123.569C919.833 123.58 919.93 123.585 920.041 123.585C920.152 123.591 920.26 123.594 920.365 123.594C920.791 123.594 921.131 123.5 921.386 123.312C921.646 123.129 921.831 122.833 921.942 122.423L922.05 122.008L918.804 112.927H921.062L923.453 120.962L922.888 120.016H923.602L923.054 120.962L925.445 112.927H927.62L924.366 122.199C924.1 122.952 923.799 123.547 923.461 123.984C923.129 124.421 922.725 124.731 922.249 124.914C921.779 125.096 921.209 125.188 920.539 125.188ZM937.436 122.241C936.562 122.241 935.796 122.094 935.137 121.801C934.484 121.507 933.967 121.101 933.585 120.581C933.208 120.055 932.993 119.449 932.937 118.763L932.929 118.663H934.971L934.979 118.754C935.018 119.092 935.143 119.394 935.353 119.659C935.563 119.919 935.845 120.124 936.2 120.273C936.554 120.417 936.966 120.489 937.436 120.489C937.896 120.489 938.297 120.409 938.64 120.249C938.989 120.088 939.26 119.867 939.453 119.584C939.647 119.302 939.744 118.976 939.744 118.605V118.588C939.744 117.958 939.525 117.473 939.088 117.136C938.651 116.798 938.048 116.629 937.279 116.629H935.859V115.036H937.237C937.674 115.036 938.059 114.958 938.391 114.803C938.723 114.648 938.98 114.438 939.163 114.172C939.346 113.901 939.437 113.591 939.437 113.243V113.226C939.437 112.855 939.357 112.54 939.196 112.28C939.041 112.02 938.811 111.82 938.507 111.682C938.208 111.544 937.846 111.475 937.42 111.475C936.999 111.475 936.626 111.547 936.299 111.69C935.978 111.834 935.721 112.039 935.527 112.305C935.333 112.565 935.217 112.872 935.179 113.226L935.17 113.309H933.186L933.195 113.209C933.256 112.518 933.466 111.917 933.825 111.408C934.191 110.894 934.678 110.495 935.286 110.213C935.901 109.925 936.612 109.781 937.42 109.781C938.244 109.781 938.961 109.917 939.57 110.188C940.178 110.454 940.649 110.822 940.981 111.292C941.318 111.762 941.487 112.313 941.487 112.944V112.96C941.487 113.453 941.376 113.89 941.155 114.272C940.939 114.648 940.64 114.961 940.259 115.21C939.882 115.459 939.453 115.633 938.972 115.733V115.774C939.857 115.857 940.568 116.151 941.105 116.654C941.642 117.152 941.91 117.816 941.91 118.646V118.663C941.91 119.36 941.722 119.98 941.346 120.522C940.97 121.059 940.444 121.48 939.769 121.784C939.099 122.089 938.322 122.241 937.436 122.241ZM948.151 122.299C947.199 122.299 946.383 122.044 945.702 121.535C945.027 121.026 944.507 120.301 944.142 119.36C943.777 118.42 943.594 117.305 943.594 116.015V115.999C943.594 114.709 943.777 113.597 944.142 112.662C944.507 111.721 945.027 110.996 945.702 110.487C946.383 109.978 947.199 109.723 948.151 109.723C949.103 109.723 949.919 109.978 950.6 110.487C951.28 110.996 951.803 111.721 952.169 112.662C952.534 113.597 952.717 114.709 952.717 115.999V116.015C952.717 117.305 952.534 118.42 952.169 119.36C951.803 120.301 951.28 121.026 950.6 121.535C949.919 122.044 949.103 122.299 948.151 122.299ZM948.151 120.564C948.66 120.564 949.095 120.381 949.454 120.016C949.814 119.651 950.088 119.131 950.276 118.456C950.47 117.775 950.567 116.961 950.567 116.015V115.999C950.567 115.052 950.47 114.242 950.276 113.566C950.088 112.886 949.814 112.366 949.454 112.006C949.095 111.641 948.66 111.458 948.151 111.458C947.642 111.458 947.208 111.641 946.848 112.006C946.494 112.366 946.22 112.886 946.026 113.566C945.838 114.242 945.744 115.052 945.744 115.999V116.015C945.744 116.961 945.838 117.775 946.026 118.456C946.22 119.131 946.494 119.651 946.848 120.016C947.208 120.381 947.642 120.564 948.151 120.564Z" fill="#F9F9FD"/>
<path d="M892.403 146H891.502L893.374 136.84H894.276L893.692 139.684L893.673 139.786L893.032 142.921L893.013 143.023L892.403 146ZM895.393 146H894.485L895.101 143.023L895.12 142.921L895.761 139.786L895.78 139.684L896.364 136.84H897.272L895.393 146ZM897.576 143.442H890.531L890.708 142.528H892.543H892.676H895.526H895.659H897.754L897.576 143.442ZM898.167 140.217H896.142H896.002H893.158H893.019H891.108L891.292 139.31H898.345L898.167 140.217ZM902.147 136.625C902.566 136.625 902.978 136.705 903.384 136.866C903.795 137.027 904.165 137.287 904.495 137.646C904.83 138.006 905.096 138.482 905.295 139.075C905.494 139.663 905.593 140.389 905.593 141.252V141.265C905.593 142.306 905.454 143.196 905.175 143.937C904.895 144.673 904.493 145.238 903.968 145.632C903.444 146.021 902.811 146.216 902.071 146.216C901.558 146.216 901.095 146.123 900.68 145.937C900.27 145.746 899.927 145.482 899.652 145.143C899.377 144.805 899.187 144.411 899.081 143.962L899.062 143.88H900.211L900.236 143.95C900.329 144.204 900.46 144.424 900.63 144.61C900.803 144.796 901.01 144.94 901.252 145.042C901.497 145.143 901.774 145.194 902.083 145.194C902.638 145.194 903.088 145.033 903.435 144.711C903.782 144.386 904.04 143.954 904.21 143.417C904.379 142.879 904.474 142.293 904.495 141.658C904.5 141.599 904.502 141.542 904.502 141.487C904.502 141.428 904.502 141.37 904.502 141.315L904.229 139.792C904.229 139.39 904.136 139.026 903.949 138.7C903.767 138.374 903.52 138.116 903.207 137.926C902.898 137.731 902.549 137.634 902.159 137.634C901.779 137.634 901.432 137.729 901.118 137.919C900.805 138.106 900.556 138.36 900.369 138.681C900.183 138.999 900.09 139.356 900.09 139.754V139.767C900.09 140.173 900.179 140.535 900.357 140.852C900.534 141.165 900.778 141.413 901.087 141.595C901.396 141.772 901.747 141.861 902.14 141.861C902.538 141.861 902.894 141.772 903.207 141.595C903.52 141.417 903.767 141.174 903.949 140.865C904.136 140.552 904.229 140.196 904.229 139.798V139.792H904.603V141.442H904.381C904.271 141.692 904.102 141.925 903.873 142.141C903.649 142.356 903.374 142.53 903.048 142.661C902.726 142.792 902.358 142.858 901.944 142.858C901.372 142.858 900.86 142.725 900.407 142.458C899.955 142.191 899.597 141.827 899.335 141.366C899.072 140.901 898.941 140.376 898.941 139.792V139.779C898.941 139.17 899.079 138.628 899.354 138.154C899.633 137.676 900.014 137.302 900.496 137.031C900.983 136.76 901.533 136.625 902.147 136.625ZM910.094 146.216C909.417 146.216 908.837 146.021 908.355 145.632C907.876 145.243 907.508 144.69 907.25 143.975C906.992 143.256 906.863 142.405 906.863 141.423V141.411C906.863 140.429 906.992 139.58 907.25 138.865C907.508 138.15 907.876 137.598 908.355 137.208C908.837 136.819 909.417 136.625 910.094 136.625C910.771 136.625 911.351 136.819 911.833 137.208C912.316 137.598 912.686 138.15 912.944 138.865C913.206 139.58 913.338 140.429 913.338 141.411V141.423C913.338 142.405 913.206 143.256 912.944 143.975C912.686 144.69 912.316 145.243 911.833 145.632C911.351 146.021 910.771 146.216 910.094 146.216ZM910.094 145.219C910.534 145.219 910.908 145.065 911.217 144.756C911.531 144.447 911.77 144.009 911.935 143.442C912.104 142.875 912.189 142.202 912.189 141.423V141.411C912.189 140.632 912.104 139.961 911.935 139.398C911.77 138.831 911.531 138.396 911.217 138.091C910.908 137.782 910.534 137.627 910.094 137.627C909.658 137.627 909.283 137.782 908.97 138.091C908.661 138.396 908.424 138.831 908.259 139.398C908.094 139.961 908.012 140.632 908.012 141.411V141.423C908.012 142.202 908.094 142.875 908.259 143.442C908.424 144.009 908.661 144.447 908.97 144.756C909.283 145.065 909.658 145.219 910.094 145.219ZM914.105 146L917.482 136.84H918.358V138.319H917.997L915.305 146H914.105ZM915.635 143.378L915.991 142.407H920.129L920.485 143.378H915.635ZM920.79 146L918.098 138.319V136.84H918.612L921.989 146H920.79ZM924.846 146V138.11H924.744L922.414 139.798V138.592L924.852 136.84H925.988V146H924.846ZM928.952 146V144.991H931.783C932.473 144.991 932.996 144.853 933.351 144.578C933.707 144.303 933.885 143.903 933.885 143.378V143.366C933.885 143.014 933.802 142.72 933.637 142.483C933.472 142.246 933.224 142.069 932.894 141.95C932.568 141.832 932.162 141.772 931.676 141.772H928.952V140.789H931.352C932.046 140.789 932.566 140.666 932.913 140.42C933.265 140.175 933.44 139.811 933.44 139.329V139.316C933.44 138.85 933.282 138.491 932.964 138.237C932.651 137.979 932.211 137.85 931.644 137.85H928.952V136.84H931.885C932.448 136.84 932.93 136.933 933.332 137.12C933.739 137.306 934.05 137.57 934.265 137.913C934.485 138.252 934.596 138.654 934.596 139.119V139.132C934.596 139.449 934.524 139.748 934.38 140.027C934.24 140.306 934.052 140.541 933.815 140.731C933.578 140.922 933.311 141.045 933.015 141.1V141.201C933.434 141.252 933.796 141.377 934.1 141.576C934.405 141.775 934.64 142.033 934.805 142.35C934.974 142.663 935.059 143.021 935.059 143.423V143.436C935.059 143.969 934.934 144.428 934.684 144.813C934.439 145.194 934.086 145.488 933.624 145.695C933.163 145.898 932.607 146 931.955 146H928.952ZM928.381 146V136.84H929.524V146H928.381ZM939.508 146.152C938.861 146.152 938.288 146.04 937.788 145.816C937.289 145.592 936.895 145.283 936.608 144.889C936.324 144.491 936.182 144.036 936.182 143.524V143.512C936.182 143.135 936.265 142.786 936.43 142.464C936.595 142.143 936.826 141.87 937.122 141.646C937.418 141.417 937.761 141.258 938.15 141.169V141.144C937.651 140.987 937.253 140.729 936.957 140.37C936.661 140.01 936.512 139.589 936.512 139.106V139.094C936.512 138.632 936.641 138.222 936.9 137.862C937.158 137.498 937.513 137.213 937.966 137.005C938.419 136.794 938.933 136.688 939.508 136.688C940.088 136.688 940.602 136.794 941.051 137.005C941.504 137.213 941.859 137.498 942.117 137.862C942.376 138.222 942.505 138.632 942.505 139.094V139.106C942.505 139.589 942.356 140.01 942.06 140.37C941.768 140.729 941.37 140.987 940.867 141.144V141.169C941.26 141.258 941.603 141.417 941.895 141.646C942.191 141.87 942.422 142.143 942.587 142.464C942.752 142.786 942.835 143.135 942.835 143.512V143.524C942.835 144.036 942.693 144.491 942.409 144.889C942.126 145.283 941.732 145.592 941.229 145.816C940.729 146.04 940.156 146.152 939.508 146.152ZM939.508 145.156C939.932 145.156 940.304 145.084 940.626 144.94C940.952 144.792 941.208 144.591 941.394 144.337C941.58 144.079 941.673 143.785 941.673 143.455V143.442C941.673 143.108 941.58 142.811 941.394 142.553C941.212 142.295 940.958 142.092 940.632 141.944C940.306 141.796 939.932 141.722 939.508 141.722C939.085 141.722 938.711 141.796 938.385 141.944C938.059 142.092 937.803 142.295 937.617 142.553C937.435 142.811 937.344 143.108 937.344 143.442V143.455C937.344 143.785 937.437 144.079 937.623 144.337C937.809 144.591 938.065 144.792 938.391 144.94C938.717 145.084 939.09 145.156 939.508 145.156ZM939.508 140.719C939.877 140.719 940.2 140.655 940.48 140.528C940.759 140.397 940.977 140.217 941.133 139.989C941.29 139.76 941.368 139.498 941.368 139.202V139.189C941.368 138.893 941.29 138.63 941.133 138.402C940.977 138.173 940.759 137.996 940.48 137.869C940.2 137.737 939.877 137.672 939.508 137.672C939.14 137.672 938.817 137.737 938.537 137.869C938.258 137.996 938.04 138.173 937.883 138.402C937.727 138.63 937.649 138.893 937.649 139.189V139.202C937.649 139.498 937.727 139.76 937.883 139.989C938.04 140.217 938.258 140.397 938.537 140.528C938.817 140.655 939.14 140.719 939.508 140.719Z" fill="#F9F9FD"/>
<mask id="path-21-inside-6_1_1533" fill="white">
<path d="M380 165H545V330H380V165Z"/>
</mask>
<path d="M380 165H545V330H380V165Z" fill="#626CFF"/>
<path d="M545 330V330.5H545.5V330H545ZM380 330H379.5V330.5H380V330ZM544.5 165V330H545.5V165H544.5ZM545 329.5H380V330.5H545V329.5ZM380.5 330V165H379.5V330H380.5Z" fill="black" fill-opacity="0.06" mask="url(#path-21-inside-6_1_1533)"/>
<path d="M397.935 289V287.34H401.496C402.288 287.34 402.888 287.179 403.298 286.858C403.707 286.532 403.912 286.064 403.912 285.456V285.439C403.912 285.035 403.818 284.695 403.63 284.418C403.442 284.141 403.159 283.934 402.783 283.795C402.412 283.657 401.953 283.588 401.405 283.588H397.935V282.069H401.073C401.831 282.069 402.407 281.925 402.8 281.637C403.198 281.349 403.397 280.934 403.397 280.392V280.375C403.397 279.844 403.218 279.429 402.858 279.13C402.498 278.832 401.995 278.682 401.347 278.682H397.935V277.022H401.862C402.625 277.022 403.278 277.144 403.821 277.387C404.363 277.625 404.781 277.968 405.074 278.417C405.367 278.859 405.514 279.388 405.514 280.002V280.019C405.514 280.439 405.417 280.832 405.224 281.197C405.035 281.562 404.781 281.867 404.46 282.11C404.144 282.354 403.785 282.509 403.381 282.575V282.725C403.918 282.774 404.388 282.929 404.792 283.189C405.201 283.444 405.52 283.779 405.746 284.194C405.979 284.609 406.095 285.074 406.095 285.588V285.605C406.095 286.302 405.929 286.905 405.597 287.415C405.271 287.924 404.8 288.317 404.186 288.593C403.572 288.864 402.838 289 401.986 289H397.935ZM396.865 289V277.022H399.006V289H396.865ZM408.036 289V277.022H410.178V287.199H415.664V289H408.036ZM422.212 289.299C421.205 289.299 420.333 289.113 419.597 288.743C418.861 288.372 418.291 287.854 417.887 287.19C417.489 286.526 417.29 285.754 417.29 284.875V277.022H419.423V284.7C419.423 285.248 419.531 285.729 419.747 286.145C419.968 286.554 420.286 286.875 420.701 287.107C421.116 287.334 421.623 287.448 422.22 287.448C422.813 287.448 423.316 287.334 423.731 287.107C424.146 286.875 424.462 286.554 424.677 286.145C424.893 285.729 425.001 285.248 425.001 284.7V277.022H427.134V284.875C427.134 285.754 426.935 286.526 426.537 287.19C426.138 287.854 425.571 288.372 424.835 288.743C424.105 289.113 423.23 289.299 422.212 289.299ZM429.681 289V277.022H437.434V278.823H431.823V282.069H437.127V283.771H431.823V287.199H437.434V289H429.681Z" fill="#F9F9FD"/>
<path d="M397.283 311H396.381L398.254 301.84H399.155L398.571 304.684L398.552 304.786L397.911 307.921L397.892 308.023L397.283 311ZM400.272 311H399.365L399.98 308.023L399.999 307.921L400.64 304.786L400.659 304.684L401.243 301.84H402.151L400.272 311ZM402.456 308.442H395.41L395.588 307.528H397.422H397.555H400.406H400.539H402.634L402.456 308.442ZM403.046 305.217H401.021H400.882H398.038H397.898H395.988L396.172 304.31H403.224L403.046 305.217ZM407.159 311.152C406.512 311.152 405.939 311.04 405.439 310.816C404.94 310.592 404.546 310.283 404.258 309.889C403.975 309.491 403.833 309.036 403.833 308.524V308.512C403.833 308.135 403.916 307.786 404.081 307.464C404.246 307.143 404.476 306.87 404.773 306.646C405.069 306.417 405.412 306.258 405.801 306.169V306.144C405.302 305.987 404.904 305.729 404.608 305.37C404.311 305.01 404.163 304.589 404.163 304.106V304.094C404.163 303.632 404.292 303.222 404.55 302.862C404.809 302.498 405.164 302.213 405.617 302.005C406.07 301.794 406.584 301.688 407.159 301.688C407.739 301.688 408.253 301.794 408.702 302.005C409.155 302.213 409.51 302.498 409.768 302.862C410.026 303.222 410.155 303.632 410.155 304.094V304.106C410.155 304.589 410.007 305.01 409.711 305.37C409.419 305.729 409.021 305.987 408.518 306.144V306.169C408.911 306.258 409.254 306.417 409.546 306.646C409.842 306.87 410.073 307.143 410.238 307.464C410.403 307.786 410.486 308.135 410.486 308.512V308.524C410.486 309.036 410.344 309.491 410.06 309.889C409.777 310.283 409.383 310.592 408.88 310.816C408.38 311.04 407.807 311.152 407.159 311.152ZM407.159 310.156C407.583 310.156 407.955 310.084 408.277 309.94C408.602 309.792 408.858 309.591 409.045 309.337C409.231 309.079 409.324 308.785 409.324 308.455V308.442C409.324 308.108 409.231 307.811 409.045 307.553C408.863 307.295 408.609 307.092 408.283 306.944C407.957 306.796 407.583 306.722 407.159 306.722C406.736 306.722 406.362 306.796 406.036 306.944C405.71 307.092 405.454 307.295 405.268 307.553C405.086 307.811 404.995 308.108 404.995 308.442V308.455C404.995 308.785 405.088 309.079 405.274 309.337C405.46 309.591 405.716 309.792 406.042 309.94C406.368 310.084 406.74 310.156 407.159 310.156ZM407.159 305.719C407.528 305.719 407.851 305.655 408.131 305.528C408.41 305.397 408.628 305.217 408.784 304.989C408.941 304.76 409.019 304.498 409.019 304.202V304.189C409.019 303.893 408.941 303.63 408.784 303.402C408.628 303.173 408.41 302.996 408.131 302.869C407.851 302.737 407.528 302.672 407.159 302.672C406.791 302.672 406.467 302.737 406.188 302.869C405.909 302.996 405.691 303.173 405.534 303.402C405.378 303.63 405.3 303.893 405.3 304.189V304.202C405.3 304.498 405.378 304.76 405.534 304.989C405.691 305.217 405.909 305.397 406.188 305.528C406.467 305.655 406.791 305.719 407.159 305.719ZM415.049 311.152C414.419 311.152 413.869 311.044 413.399 310.829C412.929 310.613 412.557 310.317 412.282 309.94C412.011 309.563 411.854 309.134 411.812 308.651L411.806 308.575H412.904L412.91 308.639C412.94 308.939 413.046 309.204 413.228 309.432C413.414 309.661 413.661 309.84 413.97 309.972C414.283 310.099 414.643 310.162 415.049 310.162C415.451 310.162 415.803 310.092 416.103 309.953C416.408 309.813 416.645 309.62 416.814 309.375C416.983 309.125 417.068 308.84 417.068 308.518V308.505C417.068 307.943 416.88 307.511 416.503 307.21C416.131 306.906 415.623 306.753 414.98 306.753H413.831V305.789H414.929C415.293 305.789 415.614 305.721 415.894 305.585C416.173 305.446 416.391 305.257 416.547 305.021C416.704 304.779 416.782 304.506 416.782 304.202V304.189C416.782 303.867 416.715 303.594 416.579 303.37C416.444 303.146 416.245 302.974 415.983 302.856C415.724 302.737 415.409 302.678 415.037 302.678C414.677 302.678 414.355 302.74 414.072 302.862C413.793 302.981 413.568 303.152 413.399 303.376C413.23 303.601 413.128 303.867 413.094 304.176L413.088 304.24H411.99L411.996 304.176C412.047 303.677 412.204 303.241 412.466 302.869C412.733 302.496 413.084 302.206 413.52 301.999C413.96 301.792 414.465 301.688 415.037 301.688C415.621 301.688 416.129 301.79 416.56 301.993C416.996 302.192 417.332 302.469 417.569 302.824C417.811 303.175 417.931 303.584 417.931 304.049V304.062C417.931 304.439 417.849 304.773 417.684 305.065C417.519 305.357 417.29 305.6 416.998 305.795C416.706 305.99 416.37 306.127 415.989 306.208V306.233C416.657 306.288 417.197 306.514 417.608 306.912C418.022 307.306 418.23 307.828 418.23 308.48V308.493C418.23 309 418.092 309.455 417.817 309.857C417.542 310.259 417.165 310.577 416.687 310.81C416.209 311.038 415.663 311.152 415.049 311.152ZM419.036 311L422.413 301.84H423.289V303.319H422.927L420.235 311H419.036ZM420.565 308.378L420.921 307.407H425.06L425.415 308.378H420.565ZM425.72 311L423.028 303.319V301.84H423.542L426.919 311H425.72ZM428.125 311V301.84H433.686V302.869H429.268V306.017H433.324V307.033H429.268V311H428.125ZM435.165 311V301.84H440.84V302.869H436.307V305.808H440.605V306.823H436.307V309.972H440.84V311H435.165ZM442.509 311V301.84H448.07V302.869H443.652V306.017H447.708V307.033H443.652V311H442.509Z" fill="#F9F9FD"/>
<mask id="path-25-inside-7_1_1533" fill="white">
<path d="M545 165H710V330H545V165Z"/>
</mask>
<path d="M545 165H710V330H545V165Z" fill="#60CC98"/>
<path d="M710 330V330.5H710.5V330H710ZM545 330H544.5V330.5H545V330ZM709.5 165V330H710.5V165H709.5ZM710 329.5H545V330.5H710V329.5ZM545.5 330V165H544.5V330H545.5Z" fill="black" fill-opacity="0.06" mask="url(#path-25-inside-7_1_1533)"/>
<path d="M566.838 289.299C565.969 289.299 565.189 289.155 564.497 288.867C563.806 288.574 563.213 288.153 562.721 287.605C562.234 287.058 561.86 286.399 561.6 285.63C561.34 284.855 561.21 283.984 561.21 283.015V282.999C561.21 281.72 561.44 280.613 561.899 279.678C562.358 278.737 563.006 278.01 563.842 277.495C564.683 276.98 565.67 276.723 566.805 276.723C567.729 276.723 568.554 276.889 569.279 277.221C570.009 277.548 570.607 278.007 571.071 278.599C571.536 279.186 571.832 279.869 571.96 280.649L571.976 280.732H569.851L569.826 280.649C569.633 279.991 569.273 279.482 568.747 279.122C568.222 278.757 567.574 278.574 566.805 278.574C566.108 278.574 565.502 278.754 564.987 279.114C564.478 279.473 564.085 279.983 563.808 280.641C563.532 281.3 563.393 282.08 563.393 282.982V282.999C563.393 283.685 563.474 284.302 563.634 284.85C563.794 285.397 564.024 285.865 564.323 286.252C564.627 286.64 564.993 286.936 565.419 287.141C565.85 287.345 566.335 287.448 566.871 287.448C567.48 287.448 568.014 287.329 568.473 287.091C568.938 286.853 569.301 286.521 569.561 286.095C569.826 285.669 569.965 285.173 569.976 284.609V284.36H567.104V282.725H572.068V284.219C572.068 284.993 571.946 285.694 571.702 286.319C571.459 286.944 571.107 287.478 570.648 287.921C570.194 288.364 569.644 288.704 568.996 288.942C568.354 289.18 567.635 289.299 566.838 289.299ZM574.166 289V277.022H579.005C579.863 277.022 580.599 277.174 581.213 277.479C581.828 277.783 582.298 278.212 582.625 278.765C582.951 279.319 583.114 279.977 583.114 280.741V280.757C583.114 281.549 582.915 282.251 582.517 282.866C582.124 283.474 581.573 283.906 580.865 284.161L583.48 289H581.039L578.682 284.493C578.671 284.493 578.654 284.493 578.632 284.493C578.61 284.493 578.59 284.493 578.574 284.493H576.308V289H574.166ZM576.308 282.849H578.781C579.462 282.849 579.99 282.669 580.367 282.31C580.743 281.95 580.931 281.449 580.931 280.807V280.791C580.931 280.165 580.735 279.67 580.342 279.305C579.955 278.934 579.421 278.749 578.74 278.749H576.308V282.849ZM585.321 289V277.022H593.074V278.823H587.462V282.069H592.767V283.771H587.462V287.199H593.074V289H585.321ZM595.33 289V277.022H603.083V278.823H597.472V282.069H602.776V283.771H597.472V287.199H603.083V289H595.33ZM605.339 289V277.022H607.199L613.623 286.028L612.146 285.273H613.217V277.022H615.275V289H613.424L606.999 279.985L608.477 280.741H607.406V289H605.339Z" fill="#F9F9FD"/>
<path d="M562.249 311H561.348L563.221 301.84H564.122L563.538 304.684L563.519 304.786L562.878 307.921L562.859 308.023L562.249 311ZM565.239 311H564.331L564.947 308.023L564.966 307.921L565.607 304.786L565.626 304.684L566.21 301.84H567.118L565.239 311ZM567.423 308.442H560.377L560.554 307.528H562.389H562.522H565.372H565.506H567.6L567.423 308.442ZM568.013 305.217H565.988H565.848H563.005H562.865H560.954L561.138 304.31H568.191L568.013 305.217ZM568.997 311V310.213L572.094 306.861C572.484 306.438 572.788 306.089 573.008 305.814C573.229 305.535 573.383 305.283 573.472 305.059C573.561 304.834 573.605 304.589 573.605 304.322V304.31C573.605 303.988 573.535 303.7 573.396 303.446C573.256 303.192 573.057 302.991 572.799 302.843C572.541 302.695 572.232 302.621 571.872 302.621C571.508 302.621 571.189 302.697 570.914 302.85C570.639 302.998 570.425 303.207 570.273 303.478C570.12 303.745 570.044 304.058 570.044 304.417L570.038 304.43L568.946 304.424L568.933 304.417C568.938 303.876 569.069 303.396 569.327 302.977C569.585 302.553 569.94 302.223 570.393 301.986C570.846 301.745 571.364 301.625 571.948 301.625C572.482 301.625 572.962 301.737 573.389 301.961C573.817 302.181 574.153 302.484 574.399 302.869C574.648 303.254 574.773 303.694 574.773 304.189V304.202C574.773 304.549 574.712 304.883 574.589 305.205C574.471 305.526 574.259 305.884 573.954 306.277C573.65 306.667 573.22 307.147 572.666 307.718L570.298 310.162L570.584 309.635V310.162L570.304 309.972H574.925V311H568.997ZM579.572 311.152C578.924 311.152 578.351 311.04 577.852 310.816C577.352 310.592 576.959 310.283 576.671 309.889C576.387 309.491 576.246 309.036 576.246 308.524V308.512C576.246 308.135 576.328 307.786 576.493 307.464C576.658 307.143 576.889 306.87 577.185 306.646C577.481 306.417 577.824 306.258 578.213 306.169V306.144C577.714 305.987 577.316 305.729 577.02 305.37C576.724 305.01 576.576 304.589 576.576 304.106V304.094C576.576 303.632 576.705 303.222 576.963 302.862C577.221 302.498 577.577 302.213 578.029 302.005C578.482 301.794 578.996 301.688 579.572 301.688C580.152 301.688 580.666 301.794 581.114 302.005C581.567 302.213 581.923 302.498 582.181 302.862C582.439 303.222 582.568 303.632 582.568 304.094V304.106C582.568 304.589 582.42 305.01 582.124 305.37C581.832 305.729 581.434 305.987 580.93 306.144V306.169C581.324 306.258 581.667 306.417 581.959 306.646C582.255 306.87 582.485 307.143 582.65 307.464C582.816 307.786 582.898 308.135 582.898 308.512V308.524C582.898 309.036 582.756 309.491 582.473 309.889C582.189 310.283 581.796 310.592 581.292 310.816C580.793 311.04 580.219 311.152 579.572 311.152ZM579.572 310.156C579.995 310.156 580.367 310.084 580.689 309.94C581.015 309.792 581.271 309.591 581.457 309.337C581.643 309.079 581.736 308.785 581.736 308.455V308.442C581.736 308.108 581.643 307.811 581.457 307.553C581.275 307.295 581.021 307.092 580.695 306.944C580.37 306.796 579.995 306.722 579.572 306.722C579.149 306.722 578.774 306.796 578.448 306.944C578.122 307.092 577.866 307.295 577.68 307.553C577.498 307.811 577.407 308.108 577.407 308.442V308.455C577.407 308.785 577.5 309.079 577.687 309.337C577.873 309.591 578.129 309.792 578.455 309.94C578.781 310.084 579.153 310.156 579.572 310.156ZM579.572 305.719C579.94 305.719 580.264 305.655 580.543 305.528C580.822 305.397 581.04 305.217 581.197 304.989C581.353 304.76 581.432 304.498 581.432 304.202V304.189C581.432 303.893 581.353 303.63 581.197 303.402C581.04 303.173 580.822 302.996 580.543 302.869C580.264 302.737 579.94 302.672 579.572 302.672C579.204 302.672 578.88 302.737 578.601 302.869C578.321 302.996 578.103 303.173 577.947 303.402C577.79 303.63 577.712 303.893 577.712 304.189V304.202C577.712 304.498 577.79 304.76 577.947 304.989C578.103 305.217 578.321 305.397 578.601 305.528C578.88 305.655 579.204 305.719 579.572 305.719ZM584.345 311V310.213L587.443 306.861C587.832 306.438 588.137 306.089 588.357 305.814C588.577 305.535 588.731 305.283 588.82 305.059C588.909 304.834 588.954 304.589 588.954 304.322V304.31C588.954 303.988 588.884 303.7 588.744 303.446C588.604 303.192 588.406 302.991 588.147 302.843C587.889 302.695 587.58 302.621 587.221 302.621C586.857 302.621 586.537 302.697 586.262 302.85C585.987 302.998 585.773 303.207 585.621 303.478C585.469 303.745 585.393 304.058 585.393 304.417L585.386 304.43L584.294 304.424L584.282 304.417C584.286 303.876 584.417 303.396 584.675 302.977C584.933 302.553 585.289 302.223 585.742 301.986C586.194 301.745 586.713 301.625 587.297 301.625C587.83 301.625 588.31 301.737 588.738 301.961C589.165 302.181 589.502 302.484 589.747 302.869C589.997 303.254 590.122 303.694 590.122 304.189V304.202C590.122 304.549 590.06 304.883 589.938 305.205C589.819 305.526 589.607 305.884 589.303 306.277C588.998 306.667 588.569 307.147 588.014 307.718L585.646 310.162L585.932 309.635V310.162L585.653 309.972H590.274V311H584.345ZM592.508 311V309.991H595.339C596.029 309.991 596.552 309.853 596.907 309.578C597.263 309.303 597.44 308.903 597.44 308.378V308.366C597.44 308.014 597.358 307.72 597.193 307.483C597.028 307.246 596.78 307.069 596.45 306.95C596.124 306.832 595.718 306.772 595.231 306.772H592.508V305.789H594.908C595.602 305.789 596.122 305.666 596.469 305.42C596.82 305.175 596.996 304.811 596.996 304.329V304.316C596.996 303.85 596.837 303.491 596.52 303.237C596.207 302.979 595.767 302.85 595.2 302.85H592.508V301.84H595.441C596.004 301.84 596.486 301.933 596.888 302.12C597.294 302.306 597.605 302.57 597.821 302.913C598.041 303.252 598.151 303.654 598.151 304.119V304.132C598.151 304.449 598.079 304.748 597.935 305.027C597.796 305.306 597.607 305.541 597.371 305.731C597.134 305.922 596.867 306.045 596.571 306.1V306.201C596.99 306.252 597.351 306.377 597.656 306.576C597.961 306.775 598.196 307.033 598.361 307.35C598.53 307.663 598.615 308.021 598.615 308.423V308.436C598.615 308.969 598.49 309.428 598.24 309.813C597.995 310.194 597.641 310.488 597.18 310.695C596.719 310.898 596.162 311 595.511 311H592.508ZM591.937 311V301.84H593.079V311H591.937ZM603.052 311.152C602.421 311.152 601.871 311.044 601.401 310.829C600.931 310.613 600.559 310.317 600.284 309.94C600.013 309.563 599.857 309.134 599.814 308.651L599.808 308.575H600.906L600.912 308.639C600.942 308.939 601.048 309.204 601.23 309.432C601.416 309.661 601.664 309.84 601.972 309.972C602.286 310.099 602.645 310.162 603.052 310.162C603.454 310.162 603.805 310.092 604.105 309.953C604.41 309.813 604.647 309.62 604.816 309.375C604.985 309.125 605.07 308.84 605.07 308.518V308.505C605.07 307.943 604.882 307.511 604.505 307.21C604.133 306.906 603.625 306.753 602.982 306.753H601.833V305.789H602.931C603.295 305.789 603.617 305.721 603.896 305.585C604.175 305.446 604.393 305.257 604.55 305.021C604.706 304.779 604.784 304.506 604.784 304.202V304.189C604.784 303.867 604.717 303.594 604.581 303.37C604.446 303.146 604.247 302.974 603.985 302.856C603.727 302.737 603.411 302.678 603.039 302.678C602.679 302.678 602.358 302.74 602.074 302.862C601.795 302.981 601.57 303.152 601.401 303.376C601.232 303.601 601.13 303.867 601.096 304.176L601.09 304.24H599.992L599.998 304.176C600.049 303.677 600.206 303.241 600.468 302.869C600.735 302.496 601.086 302.206 601.522 301.999C601.962 301.792 602.468 301.688 603.039 301.688C603.623 301.688 604.131 301.79 604.562 301.993C604.998 302.192 605.335 302.469 605.572 302.824C605.813 303.175 605.933 303.584 605.933 304.049V304.062C605.933 304.439 605.851 304.773 605.686 305.065C605.521 305.357 605.292 305.6 605 305.795C604.708 305.99 604.372 306.127 603.991 306.208V306.233C604.66 306.288 605.199 306.514 605.61 306.912C606.024 307.306 606.232 307.828 606.232 308.48V308.493C606.232 309 606.094 309.455 605.819 309.857C605.544 310.259 605.167 310.577 604.689 310.81C604.211 311.038 603.665 311.152 603.052 311.152ZM610.802 311.152C610.171 311.152 609.621 311.044 609.152 310.829C608.682 310.613 608.309 310.317 608.034 309.94C607.764 309.563 607.607 309.134 607.565 308.651L607.558 308.575H608.656L608.663 308.639C608.692 308.939 608.798 309.204 608.98 309.432C609.166 309.661 609.414 309.84 609.723 309.972C610.036 310.099 610.396 310.162 610.802 310.162C611.204 310.162 611.555 310.092 611.856 309.953C612.16 309.813 612.397 309.62 612.567 309.375C612.736 309.125 612.821 308.84 612.821 308.518V308.505C612.821 307.943 612.632 307.511 612.256 307.21C611.883 306.906 611.375 306.753 610.732 306.753H609.583V305.789H610.681C611.045 305.789 611.367 305.721 611.646 305.585C611.925 305.446 612.143 305.257 612.3 305.021C612.457 304.779 612.535 304.506 612.535 304.202V304.189C612.535 303.867 612.467 303.594 612.332 303.37C612.196 303.146 611.997 302.974 611.735 302.856C611.477 302.737 611.162 302.678 610.789 302.678C610.43 302.678 610.108 302.74 609.824 302.862C609.545 302.981 609.321 303.152 609.152 303.376C608.982 303.601 608.881 303.867 608.847 304.176L608.841 304.24H607.742L607.749 304.176C607.8 303.677 607.956 303.241 608.218 302.869C608.485 302.496 608.836 302.206 609.272 301.999C609.712 301.792 610.218 301.688 610.789 301.688C611.373 301.688 611.881 301.79 612.313 301.993C612.749 302.192 613.085 302.469 613.322 302.824C613.563 303.175 613.684 303.584 613.684 304.049V304.062C613.684 304.439 613.601 304.773 613.436 305.065C613.271 305.357 613.043 305.6 612.751 305.795C612.459 305.99 612.122 306.127 611.741 306.208V306.233C612.41 306.288 612.95 306.514 613.36 306.912C613.775 307.306 613.982 307.828 613.982 308.48V308.493C613.982 309 613.845 309.455 613.57 309.857C613.294 310.259 612.918 310.577 612.44 310.81C611.961 311.038 611.416 311.152 610.802 311.152Z" fill="#F9F9FD"/>
<mask id="path-29-inside-8_1_1533" fill="white">
<path d="M710 165H875V330H710V165Z"/>
</mask>
<path d="M710 165H875V330H710V165Z" fill="#FDC094"/>
<path d="M875 330V330.5H875.5V330H875ZM710 330H709.5V330.5H710V330ZM874.5 165V330H875.5V165H874.5ZM875 329.5H710V330.5H875V329.5ZM710.5 330V165H709.5V330H710.5Z" fill="black" fill-opacity="0.06" mask="url(#path-29-inside-8_1_1533)"/>
<path d="M732.101 287.299C730.927 287.299 729.917 287.044 729.071 286.535C728.23 286.021 727.579 285.293 727.12 284.352C726.661 283.411 726.431 282.299 726.431 281.015V280.999C726.431 279.709 726.661 278.597 727.12 277.662C727.585 276.721 728.241 275.996 729.087 275.487C729.94 274.978 730.944 274.723 732.101 274.723C733.263 274.723 734.267 274.978 735.114 275.487C735.96 275.996 736.613 276.721 737.073 277.662C737.532 278.602 737.762 279.715 737.762 280.999V281.015C737.762 282.299 737.532 283.411 737.073 284.352C736.619 285.293 735.969 286.021 735.122 286.535C734.275 287.044 733.268 287.299 732.101 287.299ZM732.101 285.448C732.814 285.448 733.431 285.265 733.952 284.9C734.472 284.535 734.873 284.02 735.155 283.356C735.443 282.692 735.587 281.912 735.587 281.015V280.999C735.587 280.097 735.443 279.316 735.155 278.658C734.873 277.994 734.472 277.482 733.952 277.122C733.431 276.757 732.814 276.574 732.101 276.574C731.392 276.574 730.775 276.757 730.25 277.122C729.729 277.482 729.325 277.994 729.038 278.658C728.755 279.316 728.614 280.097 728.614 280.999V281.015C728.614 281.912 728.753 282.692 729.029 283.356C729.312 284.02 729.713 284.535 730.233 284.9C730.759 285.265 731.381 285.448 732.101 285.448ZM739.819 287V275.022H744.658C745.516 275.022 746.252 275.174 746.866 275.479C747.48 275.783 747.951 276.212 748.277 276.765C748.604 277.319 748.767 277.977 748.767 278.741V278.757C748.767 279.549 748.568 280.251 748.169 280.866C747.776 281.474 747.226 281.906 746.517 282.161L749.132 287H746.692L744.334 282.493C744.323 282.493 744.307 282.493 744.285 282.493C744.262 282.493 744.243 282.493 744.226 282.493H741.96V287H739.819ZM741.96 280.849H744.434C745.115 280.849 745.643 280.669 746.019 280.31C746.396 279.95 746.584 279.449 746.584 278.807V278.791C746.584 278.165 746.387 277.67 745.995 277.305C745.607 276.934 745.073 276.749 744.392 276.749H741.96V280.849ZM750.085 287L754.335 275.022H756.112V277.247H755.472L752.326 287H750.085ZM752.227 283.904L752.783 282.252H758.278L758.834 283.904H752.227ZM758.76 287L755.614 277.247V275.022H756.742L761.001 287H758.76ZM762.659 287V275.022H764.519L770.944 284.028L769.466 283.273H770.537V275.022H772.595V287H770.744L764.32 277.985L765.797 278.741H764.726V287H762.659ZM780.28 287.299C779.412 287.299 778.631 287.155 777.94 286.867C777.248 286.574 776.656 286.153 776.163 285.605C775.676 285.058 775.303 284.399 775.043 283.63C774.782 282.855 774.652 281.984 774.652 281.015V280.999C774.652 279.72 774.882 278.613 775.341 277.678C775.801 276.737 776.448 276.01 777.284 275.495C778.125 274.98 779.113 274.723 780.247 274.723C781.171 274.723 781.996 274.889 782.721 275.221C783.451 275.548 784.049 276.007 784.514 276.599C784.979 277.186 785.275 277.869 785.402 278.649L785.419 278.732H783.294L783.269 278.649C783.075 277.991 782.715 277.482 782.19 277.122C781.664 276.757 781.016 276.574 780.247 276.574C779.55 276.574 778.944 276.754 778.429 277.114C777.92 277.473 777.527 277.983 777.251 278.641C776.974 279.3 776.836 280.08 776.836 280.982V280.999C776.836 281.685 776.916 282.302 777.076 282.85C777.237 283.397 777.466 283.865 777.765 284.252C778.07 284.64 778.435 284.936 778.861 285.141C779.293 285.345 779.777 285.448 780.314 285.448C780.922 285.448 781.456 285.329 781.916 285.091C782.38 284.853 782.743 284.521 783.003 284.095C783.269 283.669 783.407 283.173 783.418 282.609V282.36H780.546V280.725H785.51V282.219C785.51 282.993 785.388 283.694 785.145 284.319C784.901 284.944 784.55 285.478 784.09 285.921C783.637 286.364 783.086 286.704 782.439 286.942C781.797 287.18 781.077 287.299 780.28 287.299ZM787.608 287V275.022H795.361V276.823H789.75V280.069H795.054V281.771H789.75V285.199H795.361V287H787.608Z" fill="#F9F9FD"/>
<path d="M727.158 311H726.256L728.129 301.84H729.03L728.446 304.684L728.427 304.786L727.786 307.921L727.767 308.023L727.158 311ZM730.147 311H729.24L729.855 308.023L729.874 307.921L730.515 304.786L730.534 304.684L731.118 301.84H732.026L730.147 311ZM732.331 308.442H725.285L725.463 307.528H727.297H727.43H730.281H730.414H732.509L732.331 308.442ZM732.921 305.217H730.896H730.757H727.913H727.773H725.863L726.047 304.31H733.099L732.921 305.217ZM734.051 311V301.84H739.612V302.869H735.194V306.017H739.25V307.033H735.194V311H734.051ZM741.09 311V301.84H744.233C745.138 301.84 745.913 302.022 746.556 302.386C747.203 302.746 747.698 303.266 748.041 303.948C748.384 304.629 748.555 305.45 748.555 306.411V306.423C748.555 307.384 748.384 308.207 748.041 308.893C747.698 309.574 747.205 310.097 746.562 310.46C745.919 310.82 745.142 311 744.233 311H741.09ZM742.233 309.972H744.156C744.838 309.972 745.42 309.832 745.902 309.553C746.384 309.273 746.753 308.869 747.006 308.34C747.26 307.811 747.387 307.177 747.387 306.436V306.423C747.387 305.679 747.258 305.042 747 304.513C746.746 303.979 746.378 303.573 745.896 303.294C745.413 303.01 744.833 302.869 744.156 302.869H742.233V309.972ZM753.824 311.216C752.994 311.216 752.277 311.021 751.672 310.632C751.067 310.243 750.599 309.69 750.269 308.975C749.943 308.26 749.78 307.411 749.78 306.43V306.417C749.78 305.431 749.943 304.58 750.269 303.865C750.599 303.15 751.065 302.598 751.666 302.208C752.271 301.819 752.988 301.625 753.817 301.625C754.461 301.625 755.045 301.751 755.569 302.005C756.098 302.255 756.534 302.604 756.877 303.053C757.22 303.497 757.436 304.011 757.524 304.595L757.518 304.608H756.369L756.363 304.595C756.261 304.202 756.09 303.863 755.849 303.58C755.607 303.292 755.313 303.07 754.966 302.913C754.624 302.757 754.241 302.678 753.817 302.678C753.233 302.678 752.726 302.831 752.294 303.135C751.867 303.44 751.536 303.872 751.304 304.43C751.071 304.989 750.955 305.651 750.955 306.417V306.43C750.955 307.191 751.071 307.852 751.304 308.41C751.536 308.969 751.867 309.4 752.294 309.705C752.726 310.01 753.236 310.162 753.824 310.162C754.251 310.162 754.638 310.094 754.985 309.959C755.332 309.819 755.624 309.623 755.861 309.369C756.098 309.111 756.263 308.806 756.356 308.455L756.369 308.442H757.524V308.455C757.423 309.013 757.203 309.5 756.864 309.915C756.526 310.325 756.096 310.645 755.576 310.873C755.059 311.102 754.475 311.216 753.824 311.216ZM761.961 311.216C761.284 311.216 760.704 311.021 760.222 310.632C759.744 310.243 759.376 309.69 759.118 308.975C758.859 308.256 758.73 307.405 758.73 306.423V306.411C758.73 305.429 758.859 304.58 759.118 303.865C759.376 303.15 759.744 302.598 760.222 302.208C760.704 301.819 761.284 301.625 761.961 301.625C762.638 301.625 763.218 301.819 763.701 302.208C764.183 302.598 764.553 303.15 764.811 303.865C765.074 304.58 765.205 305.429 765.205 306.411V306.423C765.205 307.405 765.074 308.256 764.811 308.975C764.553 309.69 764.183 310.243 763.701 310.632C763.218 311.021 762.638 311.216 761.961 311.216ZM761.961 310.219C762.401 310.219 762.776 310.065 763.085 309.756C763.398 309.447 763.637 309.009 763.802 308.442C763.971 307.875 764.056 307.202 764.056 306.423V306.411C764.056 305.632 763.971 304.961 763.802 304.398C763.637 303.831 763.398 303.396 763.085 303.091C762.776 302.782 762.401 302.627 761.961 302.627C761.525 302.627 761.151 302.782 760.838 303.091C760.529 303.396 760.292 303.831 760.127 304.398C759.962 304.961 759.879 305.632 759.879 306.411V306.423C759.879 307.202 759.962 307.875 760.127 308.442C760.292 309.009 760.529 309.447 760.838 309.756C761.151 310.065 761.525 310.219 761.961 310.219ZM769.68 301.625C770.099 301.625 770.512 301.705 770.918 301.866C771.328 302.027 771.699 302.287 772.029 302.646C772.363 303.006 772.63 303.482 772.828 304.075C773.027 304.663 773.127 305.389 773.127 306.252V306.265C773.127 307.306 772.987 308.196 772.708 308.937C772.429 309.673 772.026 310.238 771.502 310.632C770.977 311.021 770.344 311.216 769.604 311.216C769.092 311.216 768.628 311.123 768.214 310.937C767.803 310.746 767.46 310.482 767.185 310.143C766.91 309.805 766.72 309.411 766.614 308.962L766.595 308.88H767.744L767.769 308.95C767.862 309.204 767.994 309.424 768.163 309.61C768.336 309.796 768.544 309.94 768.785 310.042C769.03 310.143 769.308 310.194 769.617 310.194C770.171 310.194 770.622 310.033 770.969 309.711C771.316 309.386 771.574 308.954 771.743 308.417C771.912 307.879 772.007 307.293 772.029 306.658C772.033 306.599 772.035 306.542 772.035 306.487C772.035 306.428 772.035 306.37 772.035 306.315L771.762 304.792C771.762 304.39 771.669 304.026 771.483 303.7C771.301 303.374 771.053 303.116 770.74 302.926C770.431 302.731 770.082 302.634 769.693 302.634C769.312 302.634 768.965 302.729 768.652 302.919C768.339 303.106 768.089 303.36 767.903 303.681C767.716 303.999 767.623 304.356 767.623 304.754V304.767C767.623 305.173 767.712 305.535 767.89 305.852C768.068 306.165 768.311 306.413 768.62 306.595C768.929 306.772 769.28 306.861 769.674 306.861C770.071 306.861 770.427 306.772 770.74 306.595C771.053 306.417 771.301 306.174 771.483 305.865C771.669 305.552 771.762 305.196 771.762 304.798V304.792H772.137V306.442H771.914C771.804 306.692 771.635 306.925 771.407 307.141C771.182 307.356 770.907 307.53 770.581 307.661C770.26 307.792 769.892 307.858 769.477 307.858C768.906 307.858 768.394 307.725 767.941 307.458C767.488 307.191 767.13 306.827 766.868 306.366C766.606 305.901 766.474 305.376 766.474 304.792V304.779C766.474 304.17 766.612 303.628 766.887 303.154C767.166 302.676 767.547 302.302 768.03 302.031C768.516 301.76 769.066 301.625 769.68 301.625ZM778.744 311V309.102H774.282V308.061C774.532 307.646 774.786 307.227 775.044 306.804C775.302 306.377 775.562 305.951 775.824 305.528C776.091 305.101 776.358 304.678 776.624 304.259C776.891 303.84 777.155 303.427 777.418 303.021C777.684 302.615 777.947 302.221 778.205 301.84H779.862V308.08H781.163V309.102H779.862V311H778.744ZM775.45 308.086H778.751V302.9H778.675C778.467 303.209 778.256 303.531 778.04 303.865C777.824 304.195 777.604 304.534 777.38 304.881C777.16 305.228 776.939 305.577 776.719 305.928C776.499 306.279 776.281 306.631 776.066 306.982C775.854 307.329 775.649 307.672 775.45 308.01V308.086Z" fill="#F9F9FD"/>
<mask id="path-33-inside-9_1_1533" fill="white">
<path d="M875 165H1040V330H875V165Z"/>
</mask>
<path d="M875 165H1040V330H875V165Z" fill="#F37A79"/>
<path d="M1040 330V330.5H1040.5V330H1040ZM875 330H874.5V330.5H875V330ZM1039.5 165V330H1040.5V165H1039.5ZM1040 329.5H875V330.5H1040V329.5ZM875.5 330V165H874.5V330H875.5Z" fill="black" fill-opacity="0.06" mask="url(#path-33-inside-9_1_1533)"/>
<path d="M891.604 287V275.022H896.443C897.301 275.022 898.037 275.174 898.651 275.479C899.265 275.783 899.736 276.212 900.062 276.765C900.389 277.319 900.552 277.977 900.552 278.741V278.757C900.552 279.549 900.353 280.251 899.954 280.866C899.561 281.474 899.011 281.906 898.302 282.161L900.917 287H898.477L896.119 282.493C896.108 282.493 896.092 282.493 896.069 282.493C896.047 282.493 896.028 282.493 896.011 282.493H893.745V287H891.604ZM893.745 280.849H896.219C896.9 280.849 897.428 280.669 897.804 280.31C898.181 279.95 898.369 279.449 898.369 278.807V278.791C898.369 278.165 898.172 277.67 897.779 277.305C897.392 276.934 896.858 276.749 896.177 276.749H893.745V280.849ZM902.758 287V275.022H910.511V276.823H904.9V280.069H910.204V281.771H904.9V285.199H910.511V287H902.758ZM912.767 287V275.022H917.258C918.448 275.022 919.461 275.254 920.296 275.719C921.137 276.184 921.779 276.859 922.222 277.745C922.67 278.63 922.894 279.698 922.894 280.949V280.965C922.894 282.244 922.673 283.334 922.23 284.236C921.788 285.132 921.146 285.819 920.305 286.294C919.469 286.765 918.454 287 917.258 287H912.767ZM914.909 285.199H916.976C917.767 285.199 918.442 285.035 919.001 284.709C919.56 284.382 919.984 283.907 920.271 283.281C920.565 282.656 920.711 281.895 920.711 280.999V280.982C920.711 280.108 920.562 279.361 920.263 278.741C919.97 278.115 919.544 277.639 918.985 277.313C918.426 276.986 917.756 276.823 916.976 276.823H914.909V285.199Z" fill="#F9F9FD"/>
<path d="M892.455 311H891.554L893.427 301.84H894.328L893.744 304.684L893.725 304.786L893.084 307.921L893.065 308.023L892.455 311ZM895.445 311H894.537L895.153 308.023L895.172 307.921L895.813 304.786L895.832 304.684L896.416 301.84H897.324L895.445 311ZM897.629 308.442H890.583L890.761 307.528H892.595H892.728H895.578H895.712H897.806L897.629 308.442ZM898.219 305.217H896.194H896.054H893.211H893.071H891.16L891.345 304.31H898.397L898.219 305.217ZM899.349 311V301.84H904.909V302.869H900.491V306.017H904.548V307.033H900.491V311H899.349ZM910.235 311V309.102H905.773V308.061C906.022 307.646 906.276 307.227 906.534 306.804C906.792 306.377 907.053 305.951 907.315 305.528C907.582 305.101 907.848 304.678 908.115 304.259C908.381 303.84 908.646 303.427 908.908 303.021C909.175 302.615 909.437 302.221 909.695 301.84H911.352V308.08H912.653V309.102H911.352V311H910.235ZM906.941 308.086H910.241V302.9H910.165C909.958 303.209 909.746 303.531 909.53 303.865C909.315 304.195 909.094 304.534 908.87 304.881C908.65 305.228 908.43 305.577 908.21 305.928C907.99 306.279 907.772 306.631 907.556 306.982C907.345 307.329 907.139 307.672 906.941 308.01V308.086ZM914.399 311L918.512 302.951V302.862H913.612V301.84H919.674V302.9L915.599 311H914.399ZM923.889 301.625C924.308 301.625 924.72 301.705 925.126 301.866C925.537 302.027 925.907 302.287 926.237 302.646C926.572 303.006 926.838 303.482 927.037 304.075C927.236 304.663 927.335 305.389 927.335 306.252V306.265C927.335 307.306 927.196 308.196 926.916 308.937C926.637 309.673 926.235 310.238 925.71 310.632C925.186 311.021 924.553 311.216 923.812 311.216C923.3 311.216 922.837 311.123 922.422 310.937C922.012 310.746 921.669 310.482 921.394 310.143C921.119 309.805 920.928 309.411 920.823 308.962L920.804 308.88H921.953L921.978 308.95C922.071 309.204 922.202 309.424 922.371 309.61C922.545 309.796 922.752 309.94 922.994 310.042C923.239 310.143 923.516 310.194 923.825 310.194C924.379 310.194 924.83 310.033 925.177 309.711C925.524 309.386 925.782 308.954 925.952 308.417C926.121 307.879 926.216 307.293 926.237 306.658C926.241 306.599 926.244 306.542 926.244 306.487C926.244 306.428 926.244 306.37 926.244 306.315L925.971 304.792C925.971 304.39 925.878 304.026 925.691 303.7C925.509 303.374 925.262 303.116 924.949 302.926C924.64 302.731 924.291 302.634 923.901 302.634C923.52 302.634 923.173 302.729 922.86 302.919C922.547 303.106 922.297 303.36 922.111 303.681C921.925 303.999 921.832 304.356 921.832 304.754V304.767C921.832 305.173 921.921 305.535 922.099 305.852C922.276 306.165 922.52 306.413 922.829 306.595C923.137 306.772 923.489 306.861 923.882 306.861C924.28 306.861 924.635 306.772 924.949 306.595C925.262 306.417 925.509 306.174 925.691 305.865C925.878 305.552 925.971 305.196 925.971 304.798V304.792H926.345V306.442H926.123C926.013 306.692 925.844 306.925 925.615 307.141C925.391 307.356 925.116 307.53 924.79 307.661C924.468 307.792 924.1 307.858 923.685 307.858C923.114 307.858 922.602 307.725 922.149 307.458C921.697 307.191 921.339 306.827 921.077 306.366C920.814 305.901 920.683 305.376 920.683 304.792V304.779C920.683 304.17 920.821 303.628 921.096 303.154C921.375 302.676 921.756 302.302 922.238 302.031C922.725 301.76 923.275 301.625 923.889 301.625ZM928.897 311L933.01 302.951V302.862H928.11V301.84H934.172V302.9L930.096 311H928.897ZM938.456 311.152C937.809 311.152 937.235 311.04 936.736 310.816C936.237 310.592 935.843 310.283 935.555 309.889C935.272 309.491 935.13 309.036 935.13 308.524V308.512C935.13 308.135 935.213 307.786 935.378 307.464C935.543 307.143 935.773 306.87 936.07 306.646C936.366 306.417 936.709 306.258 937.098 306.169V306.144C936.599 305.987 936.201 305.729 935.904 305.37C935.608 305.01 935.46 304.589 935.46 304.106V304.094C935.46 303.632 935.589 303.222 935.847 302.862C936.106 302.498 936.461 302.213 936.914 302.005C937.367 301.794 937.881 301.688 938.456 301.688C939.036 301.688 939.55 301.794 939.999 302.005C940.452 302.213 940.807 302.498 941.065 302.862C941.323 303.222 941.452 303.632 941.452 304.094V304.106C941.452 304.589 941.304 305.01 941.008 305.37C940.716 305.729 940.318 305.987 939.815 306.144V306.169C940.208 306.258 940.551 306.417 940.843 306.646C941.139 306.87 941.37 307.143 941.535 307.464C941.7 307.786 941.782 308.135 941.782 308.512V308.524C941.782 309.036 941.641 309.491 941.357 309.889C941.074 310.283 940.68 310.592 940.176 310.816C939.677 311.04 939.104 311.152 938.456 311.152ZM938.456 310.156C938.879 310.156 939.252 310.084 939.573 309.94C939.899 309.792 940.155 309.591 940.342 309.337C940.528 309.079 940.621 308.785 940.621 308.455V308.442C940.621 308.108 940.528 307.811 940.342 307.553C940.16 307.295 939.906 307.092 939.58 306.944C939.254 306.796 938.879 306.722 938.456 306.722C938.033 306.722 937.659 306.796 937.333 306.944C937.007 307.092 936.751 307.295 936.565 307.553C936.383 307.811 936.292 308.108 936.292 308.442V308.455C936.292 308.785 936.385 309.079 936.571 309.337C936.757 309.591 937.013 309.792 937.339 309.94C937.665 310.084 938.037 310.156 938.456 310.156ZM938.456 305.719C938.824 305.719 939.148 305.655 939.427 305.528C939.707 305.397 939.925 305.217 940.081 304.989C940.238 304.76 940.316 304.498 940.316 304.202V304.189C940.316 303.893 940.238 303.63 940.081 303.402C939.925 303.173 939.707 302.996 939.427 302.869C939.148 302.737 938.824 302.672 938.456 302.672C938.088 302.672 937.764 302.737 937.485 302.869C937.206 302.996 936.988 303.173 936.831 303.402C936.675 303.63 936.596 303.893 936.596 304.189V304.202C936.596 304.498 936.675 304.76 936.831 304.989C936.988 305.217 937.206 305.397 937.485 305.528C937.764 305.655 938.088 305.719 938.456 305.719Z" fill="#F9F9FD"/>
</svg>
