<svg width="17" height="14" viewBox="0 0 17 14" fill="none" xmlns="http://www.w3.org/2000/svg">
<g clip-path="url(#clip0_116_13)">
<path d="M1.99817 11.2503C1.53352 11.2503 1.16658 11.1178 0.897341 10.8529C0.632447 10.5837 0.5 10.2146 0.5 9.74559V1.93555C0.5 1.46655 0.632447 1.09961 0.897341 0.834719C1.16658 0.569825 1.53352 0.437378 1.99817 0.437378H14.5242C14.9932 0.437378 15.3601 0.569825 15.625 0.834719C15.8943 1.09961 16.0289 1.46655 16.0289 1.93555V9.74559C16.0289 10.2146 15.8943 10.5837 15.625 10.8529C15.3601 11.1178 14.9932 11.2503 14.5242 11.2503H1.99817ZM2.01771 10.2015H14.5112C14.6545 10.2015 14.7674 10.1603 14.8499 10.0778C14.9367 9.99094 14.9802 9.87586 14.9802 9.73256V1.95509C14.9802 1.80744 14.9367 1.69237 14.8499 1.60986C14.7674 1.52735 14.6545 1.4861 14.5112 1.4861H2.01771C1.87441 1.4861 1.75933 1.52735 1.67248 1.60986C1.58997 1.69237 1.54872 1.80744 1.54872 1.95509V9.73256C1.54872 9.87586 1.58997 9.99094 1.67248 10.0778C1.75933 10.1603 1.87441 10.2015 2.01771 10.2015ZM6.20608 12.8005V11.1656H10.3228V12.8005H6.20608ZM6.167 13.5626C6.0237 13.5626 5.89993 13.5105 5.79571 13.4063C5.69149 13.3064 5.63938 13.1827 5.63938 13.035C5.63938 12.8874 5.69149 12.7615 5.79571 12.6572C5.89993 12.5574 6.0237 12.5074 6.167 12.5074H10.3619C10.5052 12.5074 10.6268 12.5574 10.7267 12.6572C10.8309 12.7615 10.883 12.8874 10.883 13.035C10.883 13.1827 10.8309 13.3064 10.7267 13.4063C10.6268 13.5105 10.5052 13.5626 10.3619 13.5626H6.167Z" fill="#00AE42"/>
</g>
<defs>
<clipPath id="clip0_116_13">
<rect width="16" height="14" fill="white" transform="translate(0.5)"/>
</clipPath>
</defs>
</svg>
