<svg width="16" height="14" viewBox="0 0 16 14" fill="none" xmlns="http://www.w3.org/2000/svg">
<g clip-path="url(#clip0_116_3)">
<path d="M0.5 12.0156V6.36816C0.5 5.98168 0.615077 5.68204 0.845231 5.46926C1.07973 5.25213 1.40325 5.14357 1.81579 5.14357H3.37258V2.03649C3.37258 1.3634 3.54194 0.859662 3.88066 0.525288C4.22372 0.18657 4.73614 0.0172119 5.41791 0.0172119H13.267C13.9488 0.0172119 14.4591 0.18657 14.7978 0.525288C15.1408 0.859662 15.3124 1.3634 15.3124 2.03649V11.97C15.3124 12.6388 15.1408 13.1403 14.7978 13.4747C14.4591 13.8134 13.9488 13.9828 13.267 13.9828H2.46717C1.8071 13.9828 1.31422 13.8178 0.988535 13.4877C0.662845 13.1577 0.5 12.667 0.5 12.0156ZM1.54872 12.0156C1.54872 12.2762 1.63557 12.4933 1.80927 12.667C1.98732 12.845 2.20661 12.9341 2.46717 12.9341C2.71903 12.9341 2.93182 12.8472 3.10552 12.6735C3.28356 12.5042 3.37258 12.2849 3.37258 12.0156V6.19229H1.93303C1.81144 6.19229 1.71591 6.22703 1.64643 6.29651C1.58129 6.36165 1.54872 6.45284 1.54872 6.57009V12.0156ZM4.19983 12.9341H13.2475C13.5732 12.9341 13.8229 12.8472 13.9966 12.6735C14.1746 12.5042 14.2636 12.2501 14.2636 11.9114V2.09511C14.2636 1.75639 14.1746 1.50019 13.9966 1.32648C13.8229 1.15278 13.5732 1.06593 13.2475 1.06593H5.43746C5.11177 1.06593 4.8599 1.15278 4.68186 1.32648C4.50815 1.50019 4.4213 1.75639 4.4213 2.09511V11.9505C4.4213 12.3196 4.34748 12.6475 4.19983 12.9341ZM6.11489 3.89943C5.99764 3.89943 5.89993 3.86035 5.82177 3.78218C5.7436 3.69968 5.70452 3.60197 5.70452 3.48906C5.70452 3.3805 5.7436 3.28931 5.82177 3.21548C5.89993 3.13732 5.99764 3.09824 6.11489 3.09824H12.5831C12.696 3.09824 12.7915 3.13732 12.8697 3.21548C12.9479 3.28931 12.9869 3.3805 12.9869 3.48906C12.9869 3.60197 12.9479 3.69968 12.8697 3.78218C12.7915 3.86035 12.696 3.89943 12.5831 3.89943H6.11489ZM6.11489 6.19229C5.99764 6.19229 5.89993 6.15538 5.82177 6.08155C5.7436 6.00339 5.70452 5.90785 5.70452 5.79495C5.70452 5.68204 5.7436 5.58651 5.82177 5.50834C5.89993 5.43017 5.99764 5.39109 6.11489 5.39109H12.5831C12.696 5.39109 12.7915 5.43017 12.8697 5.50834C12.9479 5.58651 12.9869 5.68204 12.9869 5.79495C12.9869 5.90785 12.9479 6.00339 12.8697 6.08155C12.7915 6.15538 12.696 6.19229 12.5831 6.19229H6.11489ZM6.4992 10.8366C6.24734 10.8366 6.04975 10.7671 5.90645 10.6282C5.76749 10.4849 5.69801 10.2895 5.69801 10.0419V8.49166C5.69801 8.23979 5.76749 8.04438 5.90645 7.90542C6.04975 7.76211 6.24734 7.69046 6.4992 7.69046H8.18628C8.4338 7.69046 8.62704 7.76211 8.766 7.90542C8.90931 8.04438 8.98096 8.23979 8.98096 8.49166V10.0419C8.98096 10.2895 8.90931 10.4849 8.766 10.6282C8.62704 10.7671 8.4338 10.8366 8.18628 10.8366H6.4992ZM10.1534 8.49166C10.0362 8.49166 9.93849 8.45475 9.86032 8.38092C9.7865 8.30276 9.74959 8.20939 9.74959 8.10083C9.74959 7.98358 9.7865 7.88587 9.86032 7.80771C9.93849 7.72954 10.0362 7.69046 10.1534 7.69046H12.5766C12.6938 7.69046 12.7894 7.72954 12.8632 7.80771C12.9413 7.88587 12.9804 7.98358 12.9804 8.10083C12.9804 8.20939 12.9413 8.30276 12.8632 8.38092C12.7894 8.45475 12.6938 8.49166 12.5766 8.49166H10.1534ZM10.1534 10.8366C10.0362 10.8366 9.93849 10.7997 9.86032 10.7259C9.7865 10.6477 9.74959 10.5544 9.74959 10.4458C9.74959 10.3285 9.7865 10.2308 9.86032 10.1527C9.93849 10.0745 10.0362 10.0354 10.1534 10.0354H12.5766C12.6938 10.0354 12.7894 10.0745 12.8632 10.1527C12.9413 10.2308 12.9804 10.3285 12.9804 10.4458C12.9804 10.5544 12.9413 10.6477 12.8632 10.7259C12.7894 10.7997 12.6938 10.8366 12.5766 10.8366H10.1534Z" fill="#00AE42"/>
</g>
<defs>
<clipPath id="clip0_116_3">
<rect width="15" height="14" fill="white" transform="translate(0.5)"/>
</clipPath>
</defs>
</svg>
