<svg width="15" height="12" viewBox="0 0 15 12" fill="none" xmlns="http://www.w3.org/2000/svg">
<g clip-path="url(#clip0_116_5)">
<path d="M0.997796 7.86358C0.90226 7.7637 0.854492 7.64862 0.854492 7.51835C0.854492 7.38373 0.90226 7.26648 0.997796 7.1666L2.15074 6.02018C3.28848 4.88243 4.26989 3.92056 5.09497 3.13457C5.92005 2.34423 6.62354 1.71239 7.20544 1.23905C7.79168 0.765716 8.2889 0.431341 8.6971 0.235928C9.10964 0.0405138 9.46573 -0.0311378 9.76536 0.0209725C10.065 0.0730829 10.3451 0.229414 10.6056 0.489965C10.8705 0.75486 11.0095 1.05232 11.0225 1.38236C11.0399 1.71239 10.94 2.09453 10.7229 2.52878C10.5058 2.95869 10.1801 3.45808 9.74582 4.02696C9.31157 4.59148 8.77744 5.23852 8.14343 5.96807C7.38783 6.83657 6.80159 7.55309 6.3847 8.11762C5.97216 8.68215 5.71378 9.1316 5.60956 9.46597C5.50534 9.79601 5.54008 10.0435 5.71378 10.2085C5.85274 10.3475 6.05467 10.3779 6.31956 10.2997C6.58446 10.2172 6.9362 10.0066 7.3748 9.6679C7.81339 9.32484 8.36924 8.83631 9.04233 8.2023C9.72411 7.55092 10.3212 7.0385 10.8336 6.66504C11.346 6.29158 11.789 6.07229 12.1624 6.00715C12.5359 5.94201 12.8594 6.0484 13.133 6.32632C13.3328 6.52608 13.4348 6.76058 13.4391 7.02981C13.4478 7.29471 13.3718 7.60737 13.2112 7.9678C13.0548 8.32389 12.829 8.74294 12.5337 9.22496C12.3036 9.6071 12.119 9.91325 11.9801 10.1434C11.8454 10.3736 11.7586 10.5494 11.7195 10.671C11.6848 10.7926 11.6978 10.8838 11.7586 10.9446C11.8107 10.9967 11.8932 11.0011 12.0061 10.9576C12.1234 10.9142 12.2819 10.8143 12.4816 10.658C12.6857 10.4973 12.9463 10.2715 13.2633 9.98056C13.3631 9.88068 13.4782 9.83075 13.6085 9.83075C13.7431 9.83075 13.8604 9.87851 13.9602 9.97405C14.0601 10.0739 14.1079 10.1933 14.1035 10.3323C14.0992 10.4669 14.0341 10.595 13.9081 10.7166C13.3002 11.3419 12.7574 11.7371 12.2797 11.9021C11.8064 12.0715 11.4242 12.0107 11.1333 11.7197C10.9465 11.533 10.8445 11.3224 10.8271 11.0879C10.8141 10.8534 10.8553 10.6059 10.9509 10.3453C11.0464 10.0848 11.1723 9.81772 11.3287 9.54414C11.485 9.26622 11.6413 8.99264 11.7977 8.7234C12.0452 8.29783 12.2471 7.94174 12.4034 7.65514C12.5598 7.36419 12.5641 7.14489 12.4165 6.99724C12.3296 6.91474 12.2037 6.90822 12.0387 6.9777C11.8737 7.04284 11.6739 7.16878 11.4394 7.3555C11.2093 7.53789 10.9509 7.7637 10.6643 8.03294C10.382 8.30217 10.0759 8.5953 9.74582 8.9123C9.40276 9.24667 9.05536 9.56585 8.70361 9.86983C8.35187 10.1738 8.00447 10.4409 7.66141 10.671C7.32269 10.8968 6.99483 11.0684 6.67782 11.1856C6.36082 11.3029 6.06118 11.3419 5.77892 11.3029C5.501 11.2681 5.24696 11.1357 5.01681 10.9055C4.75191 10.6406 4.60644 10.3453 4.58038 10.0196C4.55867 9.68961 4.62381 9.34004 4.7758 8.97092C4.93213 8.59747 5.14708 8.21098 5.42066 7.81147C5.69858 7.40761 6.00907 6.99725 6.35213 6.58036C6.69954 6.16348 7.05128 5.7466 7.40737 5.32971C7.82859 4.83032 8.22159 4.36133 8.58637 3.92273C8.95114 3.4798 9.25729 3.07811 9.50481 2.71768C9.75233 2.35725 9.91735 2.04676 9.99986 1.78621C10.0824 1.52566 10.0541 1.3259 9.91518 1.18694C9.75451 1.02627 9.53304 0.987185 9.25077 1.06969C8.97285 1.1522 8.63196 1.3411 8.22811 1.63639C7.82425 1.93169 7.35743 2.32468 6.82764 2.81539C6.29785 3.30175 5.70075 3.87497 5.03635 4.53503C4.37194 5.19075 3.64022 5.91813 2.8412 6.71715L1.69477 7.86358C1.59489 7.96346 1.47765 8.0134 1.34303 8.0134C1.21275 8.0134 1.09767 7.96346 0.997796 7.86358Z" fill="#00AE42"/>
</g>
<defs>
<clipPath id="clip0_116_5">
<rect width="14" height="12" fill="white" transform="translate(0.5)"/>
</clipPath>
</defs>
</svg>
