<svg width="18" height="12" viewBox="0 0 18 12" fill="none" xmlns="http://www.w3.org/2000/svg">
<g clip-path="url(#clip0_116_7)">
<path d="M2.26034 11.8558C1.91294 11.8558 1.63936 11.7777 1.43961 11.6213C1.24419 11.4694 1.14648 11.2587 1.14648 10.9895C1.14648 10.5726 1.27242 10.1319 1.52428 9.66721C1.77615 9.20256 2.14092 8.76831 2.6186 8.36445C3.09628 7.95625 3.67167 7.62622 4.34476 7.37435C5.02219 7.11814 5.78213 6.99004 6.62458 6.99004C7.47138 6.99004 8.23132 7.11814 8.90441 7.37435C9.58185 7.62622 10.1572 7.95625 10.6306 8.36445C11.1082 8.76831 11.473 9.20256 11.7249 9.66721C11.9811 10.1319 12.1092 10.5726 12.1092 10.9895C12.1092 11.2587 12.0093 11.4694 11.8096 11.6213C11.6142 11.7777 11.3427 11.8558 10.9953 11.8558H2.26034ZM6.6311 5.82407C6.16645 5.82407 5.73654 5.69814 5.34137 5.44627C4.9462 5.19006 4.62702 4.847 4.38384 4.41709C4.145 3.98284 4.02558 3.49648 4.02558 2.958C4.02558 2.42821 4.145 1.95054 4.38384 1.52497C4.62702 1.0994 4.9462 0.762853 5.34137 0.515329C5.73654 0.267805 6.16645 0.144043 6.6311 0.144043C7.09575 0.144043 7.52566 0.265634 7.92083 0.508815C8.316 0.751997 8.633 1.08637 8.87184 1.51194C9.11502 1.93316 9.23662 2.41084 9.23662 2.94497C9.23662 3.48779 9.11502 3.97632 8.87184 4.41058C8.633 4.84483 8.316 5.19006 7.92083 5.44627C7.52566 5.69814 7.09575 5.82407 6.6311 5.82407ZM13.438 6.20838C13.3294 6.20838 13.2296 6.1845 13.1384 6.13673C13.0515 6.08897 12.9668 6.01297 12.8843 5.90875L11.295 3.95461C11.1951 3.81999 11.1452 3.68538 11.1452 3.55076C11.1452 3.40745 11.1929 3.28586 11.2885 3.18598C11.3883 3.08176 11.5078 3.02965 11.6467 3.02965C11.7379 3.02965 11.8204 3.04919 11.8942 3.08828C11.9724 3.12302 12.0506 3.1925 12.1287 3.29672L13.412 4.95774L16.1152 0.61955C16.2368 0.424136 16.3888 0.326429 16.5711 0.326429C16.7058 0.326429 16.8274 0.369854 16.9359 0.456705C17.0445 0.543555 17.0988 0.658632 17.0988 0.801936C17.0988 0.875759 17.0814 0.949582 17.0467 1.02341C17.0163 1.09289 16.9815 1.15802 16.9424 1.21882L13.9656 5.90875C13.8354 6.10851 13.6595 6.20838 13.438 6.20838Z" fill="#00AE42"/>
</g>
<defs>
<clipPath id="clip0_116_7">
<rect width="17" height="12" fill="white" transform="translate(0.5)"/>
</clipPath>
</defs>
</svg>
