<svg width="14" height="16" viewBox="0 0 14 16" fill="none" xmlns="http://www.w3.org/2000/svg">
<g clip-path="url(#clip0_116_15)">
<path d="M7.75326 15.13C7.67076 15.13 7.5991 15.1018 7.53831 15.0453C7.48186 14.9932 7.44712 14.9216 7.43409 14.8304C7.33421 14.1182 7.22565 13.5189 7.1084 13.0326C6.99549 12.5505 6.8435 12.1532 6.65243 11.8405C6.46136 11.5279 6.2095 11.2782 5.89683 11.0915C5.58851 10.9047 5.19334 10.7549 4.71132 10.642C4.23364 10.5248 3.64306 10.4205 2.93957 10.3293C2.84403 10.3207 2.76804 10.2859 2.71159 10.2251C2.65513 10.1643 2.62691 10.0905 2.62691 10.0037C2.62691 9.9212 2.65513 9.84955 2.71159 9.78875C2.76804 9.72796 2.84403 9.69322 2.93957 9.68453C3.64306 9.60637 4.23582 9.513 4.71784 9.40444C5.19986 9.29587 5.5972 9.14606 5.90986 8.95499C6.22252 8.76391 6.47439 8.50988 6.66546 8.19287C6.85653 7.87587 7.00852 7.47418 7.12143 6.98782C7.23867 6.49711 7.3429 5.8935 7.43409 5.17699C7.44712 5.09014 7.48186 5.02065 7.53831 4.96854C7.5991 4.91209 7.67076 4.88386 7.75326 4.88386C7.84011 4.88386 7.91177 4.91209 7.96822 4.96854C8.02467 5.02065 8.06158 5.09014 8.07895 5.17699C8.17015 5.8935 8.2722 6.49711 8.3851 6.98782C8.50235 7.47418 8.65434 7.87587 8.84107 8.19287C9.03214 8.50988 9.28401 8.76391 9.59667 8.95499C9.90933 9.14606 10.3067 9.29587 10.7887 9.40444C11.2707 9.513 11.8656 9.60637 12.5735 9.68453C12.6647 9.69322 12.7385 9.72796 12.7949 9.78875C12.8514 9.84955 12.8796 9.9212 12.8796 10.0037C12.8796 10.0905 12.8514 10.1643 12.7949 10.2251C12.7385 10.2859 12.6647 10.3207 12.5735 10.3293C11.8656 10.4075 11.2707 10.5009 10.7887 10.6094C10.3067 10.718 9.90933 10.8678 9.59667 11.0589C9.28401 11.2456 9.03214 11.4975 8.84107 11.8145C8.65434 12.1315 8.50235 12.5354 8.3851 13.0261C8.2722 13.5168 8.17015 14.1182 8.07895 14.8304C8.06158 14.9216 8.02467 14.9932 7.96822 15.0453C7.91177 15.1018 7.84011 15.13 7.75326 15.13ZM3.33691 7.92581C3.20664 7.92581 3.13281 7.85415 3.11544 7.71085C3.06333 7.2766 3.00688 6.93571 2.94608 6.68819C2.88963 6.44066 2.79627 6.2561 2.66599 6.13451C2.54006 6.00858 2.34899 5.91304 2.09278 5.84791C1.84091 5.78277 1.49351 5.71329 1.05057 5.63946C0.902925 5.61775 0.829102 5.54393 0.829102 5.418C0.829102 5.29641 0.894239 5.22475 1.02451 5.20304C1.4718 5.11619 1.82354 5.0402 2.07975 4.97506C2.33596 4.90558 2.5292 4.81004 2.65948 4.68845C2.78975 4.56686 2.88529 4.38665 2.94608 4.14781C3.00688 3.90462 3.06333 3.56591 3.11544 3.13165C3.13281 2.98835 3.20664 2.9167 3.33691 2.9167C3.46719 2.9167 3.54101 2.98618 3.55838 3.12514C3.61483 3.56374 3.67129 3.90897 3.72774 4.16083C3.78853 4.4127 3.8819 4.60377 4.00783 4.73405C4.13811 4.85998 4.33135 4.95335 4.58756 5.01414C4.84377 5.07494 5.19769 5.1379 5.64931 5.20304C5.70576 5.20738 5.75136 5.2291 5.7861 5.26818C5.82518 5.30726 5.84472 5.3572 5.84472 5.418C5.84472 5.53959 5.77958 5.61341 5.64931 5.63946C5.19769 5.72632 4.84377 5.80448 4.58756 5.87396C4.33569 5.9391 4.14462 6.03463 4.01435 6.16057C3.88841 6.28216 3.79505 6.46455 3.73425 6.70773C3.67346 6.95091 3.61483 7.28963 3.55838 7.72388C3.5497 7.78033 3.52581 7.8281 3.48673 7.86718C3.44765 7.90626 3.39771 7.92581 3.33691 7.92581ZM6.48959 3.44432C6.40708 3.44432 6.35931 3.40089 6.34628 3.31404C6.29417 3.04915 6.24858 2.8407 6.20949 2.68872C6.17475 2.53673 6.1183 2.42165 6.04014 2.34349C5.96631 2.26098 5.85124 2.19584 5.69491 2.14807C5.53857 2.1003 5.31928 2.05254 5.03701 2.00477C4.95016 1.9874 4.90674 1.93746 4.90674 1.85495C4.90674 1.77679 4.95016 1.72902 5.03701 1.71165C5.31928 1.65954 5.53857 1.61177 5.69491 1.56834C5.85124 1.52058 5.96631 1.45761 6.04014 1.37944C6.1183 1.29694 6.17475 1.17969 6.20949 1.0277C6.24858 0.875707 6.29417 0.667265 6.34628 0.402371C6.35931 0.31552 6.40708 0.272095 6.48959 0.272095C6.56775 0.272095 6.61552 0.31552 6.63289 0.402371C6.68066 0.667265 6.72408 0.875707 6.76317 1.0277C6.80225 1.17969 6.8587 1.29694 6.93253 1.37944C7.01069 1.45761 7.12794 1.52058 7.28427 1.56834C7.4406 1.61177 7.6599 1.65954 7.94216 1.71165C8.02901 1.72902 8.07244 1.77679 8.07244 1.85495C8.07244 1.93746 8.02901 1.9874 7.94216 2.00477C7.6599 2.05254 7.4406 2.1003 7.28427 2.14807C7.12794 2.19584 7.01069 2.26098 6.93253 2.34349C6.8587 2.42165 6.80225 2.53673 6.76317 2.68872C6.72408 2.8407 6.68066 3.04915 6.63289 3.31404C6.61552 3.40089 6.56775 3.44432 6.48959 3.44432Z" fill="#00AE42"/>
</g>
<defs>
<clipPath id="clip0_116_15">
<rect width="13" height="16" fill="white" transform="translate(0.5)"/>
</clipPath>
</defs>
</svg>
