<svg width="18" height="17" viewBox="0 0 18 17" fill="none" xmlns="http://www.w3.org/2000/svg">
<g clip-path="url(#clip0_116_27)">
<path d="M8.73438 16.1953C7.66146 16.1953 6.65104 15.9896 5.70312 15.5781C4.76042 15.1719 3.92708 14.6094 3.20312 13.8906C2.48438 13.1667 1.91927 12.3333 1.50781 11.3906C1.10156 10.4427 0.898438 9.43229 0.898438 8.35938C0.898438 7.28646 1.10156 6.27865 1.50781 5.33594C1.91927 4.38802 2.48438 3.55469 3.20312 2.83594C3.92188 2.11198 4.7526 1.54688 5.69531 1.14062C6.64323 0.729167 7.65365 0.523438 8.72656 0.523438C9.79948 0.523438 10.8099 0.729167 11.7578 1.14062C12.7057 1.54688 13.5391 2.11198 14.2578 2.83594C14.9766 3.55469 15.5417 4.38802 15.9531 5.33594C16.3646 6.27865 16.5703 7.28646 16.5703 8.35938C16.5703 9.43229 16.3646 10.4427 15.9531 11.3906C15.5417 12.3333 14.9766 13.1667 14.2578 13.8906C13.5391 14.6094 12.7057 15.1719 11.7578 15.5781C10.8151 15.9896 9.80729 16.1953 8.73438 16.1953ZM8.73438 15.1875C9.67708 15.1875 10.5599 15.0104 11.3828 14.6562C12.2109 14.3021 12.9375 13.8125 13.5625 13.1875C14.1927 12.5625 14.6823 11.8385 15.0312 11.0156C15.3854 10.1875 15.5625 9.30208 15.5625 8.35938C15.5625 7.41667 15.3854 6.53385 15.0312 5.71094C14.6771 4.88281 14.1875 4.15625 13.5625 3.53125C12.9375 2.90104 12.2109 2.41146 11.3828 2.0625C10.5599 1.70833 9.67448 1.53125 8.72656 1.53125C7.78385 1.53125 6.89844 1.70833 6.07031 2.0625C5.2474 2.41146 4.52344 2.90104 3.89844 3.53125C3.27865 4.15625 2.79167 4.88281 2.4375 5.71094C2.08854 6.53385 1.91406 7.41667 1.91406 8.35938C1.91406 9.30208 2.08854 10.1875 2.4375 11.0156C2.79167 11.8385 3.28125 12.5625 3.90625 13.1875C4.53125 13.8125 5.25521 14.3021 6.07812 14.6562C6.90104 15.0104 7.78646 15.1875 8.73438 15.1875ZM8.69531 12.0156C8.09115 12.0156 7.58073 11.8932 7.16406 11.6484C6.7526 11.4036 6.47917 11.0781 6.34375 10.6719C6.30208 10.5677 6.28125 10.4714 6.28125 10.3828C6.28125 10.263 6.31771 10.1667 6.39062 10.0938C6.46875 10.0156 6.56771 9.97656 6.6875 9.97656C6.78125 9.97656 6.86458 10.0026 6.9375 10.0547C7.01562 10.1068 7.07812 10.1849 7.125 10.2891C7.23958 10.5755 7.4401 10.8073 7.72656 10.9844C8.01302 11.1562 8.33594 11.2422 8.69531 11.2422C9.16406 11.2422 9.55469 11.0859 9.86719 10.7734C10.1797 10.4609 10.3359 10.0729 10.3359 9.60938C10.3359 9.13542 10.1927 8.75521 9.90625 8.46875C9.625 8.18229 9.25521 8.03906 8.79688 8.03906C8.55729 8.03906 8.33854 8.08073 8.14062 8.16406C7.94792 8.2474 7.74479 8.39583 7.53125 8.60938C7.41146 8.69792 7.3099 8.76042 7.22656 8.79688C7.14844 8.82812 7.05208 8.84375 6.9375 8.84375C6.77083 8.84375 6.64062 8.79167 6.54688 8.6875C6.45312 8.57812 6.41406 8.4375 6.42969 8.26562L6.65625 5.4375C6.67188 5.25521 6.73698 5.11198 6.85156 5.00781C6.97135 4.90365 7.13021 4.85156 7.32812 4.85156H10.6172C10.7266 4.85156 10.8151 4.88802 10.8828 4.96094C10.9505 5.03385 10.9844 5.125 10.9844 5.23438C10.9844 5.34375 10.9479 5.4375 10.875 5.51562C10.8073 5.58854 10.7214 5.625 10.6172 5.625H7.44531L7.24219 8.01562H7.28906C7.44531 7.80208 7.67448 7.6276 7.97656 7.49219C8.27865 7.35677 8.58854 7.28906 8.90625 7.28906C9.59896 7.28906 10.1641 7.5026 10.6016 7.92969C11.0391 8.35677 11.2578 8.90885 11.2578 9.58594C11.2578 10.3203 11.0182 10.9089 10.5391 11.3516C10.0651 11.7943 9.45052 12.0156 8.69531 12.0156Z" fill="#00AE42"/>
</g>
<defs>
<clipPath id="clip0_116_27">
<rect width="17" height="17" fill="white" transform="translate(0.5)"/>
</clipPath>
</defs>
</svg>
