<svg width="16" height="15" viewBox="0 0 16 15" fill="none" xmlns="http://www.w3.org/2000/svg">
<g clip-path="url(#clip0_116_23)">
<path d="M7.84619 14.6924C6.84033 14.6924 5.89307 14.4995 5.00439 14.1138C4.12061 13.7329 3.33936 13.2056 2.66064 12.5317C1.98682 11.853 1.45703 11.0718 1.07129 10.188C0.69043 9.29932 0.5 8.35205 0.5 7.34619C0.5 6.34033 0.69043 5.39551 1.07129 4.51172C1.45703 3.62305 1.98682 2.8418 2.66064 2.16797C3.33447 1.48926 4.11328 0.959473 4.99707 0.578613C5.88574 0.192871 6.83301 0 7.83887 0C8.84473 0 9.79199 0.192871 10.6807 0.578613C11.5693 0.959473 12.3506 1.48926 13.0244 2.16797C13.6982 2.8418 14.228 3.62305 14.6138 4.51172C14.9995 5.39551 15.1924 6.34033 15.1924 7.34619C15.1924 8.35205 14.9995 9.29932 14.6138 10.188C14.228 11.0718 13.6982 11.853 13.0244 12.5317C12.3506 13.2056 11.5693 13.7329 10.6807 14.1138C9.79688 14.4995 8.85205 14.6924 7.84619 14.6924ZM7.84619 13.7476C8.72998 13.7476 9.55762 13.5815 10.3291 13.2495C11.1055 12.9175 11.7866 12.4585 12.3726 11.8726C12.9634 11.2866 13.4224 10.6079 13.7495 9.83643C14.0815 9.06006 14.2476 8.22998 14.2476 7.34619C14.2476 6.4624 14.0815 5.63477 13.7495 4.86328C13.4175 4.08691 12.9585 3.40576 12.3726 2.81982C11.7866 2.229 11.1055 1.77002 10.3291 1.44287C9.55762 1.11084 8.72754 0.944824 7.83887 0.944824C6.95508 0.944824 6.125 1.11084 5.34863 1.44287C4.57715 1.77002 3.89844 2.229 3.3125 2.81982C2.73145 3.40576 2.2749 4.08691 1.94287 4.86328C1.61572 5.63477 1.45215 6.4624 1.45215 7.34619C1.45215 8.22998 1.61572 9.06006 1.94287 9.83643C2.2749 10.6079 2.73389 11.2866 3.31982 11.8726C3.90576 12.4585 4.58447 12.9175 5.35596 13.2495C6.12744 13.5815 6.95752 13.7476 7.84619 13.7476ZM7.81689 10.7739C7.25537 10.7739 6.76709 10.647 6.35205 10.3931C5.93701 10.1392 5.67578 9.80713 5.56836 9.39697C5.54395 9.30908 5.53174 9.22607 5.53174 9.14795C5.53174 9.03076 5.56836 8.93555 5.6416 8.8623C5.71973 8.78906 5.81738 8.75244 5.93457 8.75244C6.125 8.75244 6.25684 8.85498 6.33008 9.06006C6.41309 9.34326 6.58398 9.57764 6.84277 9.76318C7.10156 9.94873 7.43115 10.0415 7.83154 10.0415C8.29541 10.0415 8.66895 9.9292 8.95215 9.70459C9.23535 9.47998 9.37695 9.18457 9.37695 8.81836C9.37695 8.46191 9.23779 8.16895 8.95947 7.93945C8.68115 7.70996 8.32471 7.59521 7.89014 7.59521H7.31885C7.21143 7.59521 7.12354 7.56348 7.05518 7.5C6.9917 7.43164 6.95996 7.34375 6.95996 7.23633C6.95996 7.12891 6.9917 7.04346 7.05518 6.97998C7.12354 6.91162 7.21143 6.87744 7.31885 6.87744H7.83887C8.21484 6.87744 8.5249 6.76758 8.76904 6.54785C9.01807 6.32812 9.14258 6.05225 9.14258 5.72021C9.14258 5.39307 9.02539 5.13184 8.79102 4.93652C8.55664 4.74121 8.2417 4.64355 7.84619 4.64355C7.47998 4.64355 7.1748 4.73389 6.93066 4.91455C6.69141 5.09521 6.5376 5.33203 6.46924 5.625C6.41064 5.83496 6.27881 5.93994 6.07373 5.93994C5.95654 5.93994 5.86133 5.90332 5.78809 5.83008C5.71484 5.75684 5.67822 5.66406 5.67822 5.55176C5.67822 5.50293 5.68066 5.46143 5.68555 5.42725C5.69043 5.38818 5.69775 5.34424 5.70752 5.29541C5.78564 4.88037 6.02246 4.54834 6.41797 4.29932C6.81836 4.04541 7.29688 3.91846 7.85352 3.91846C8.47852 3.91846 8.99121 4.07959 9.3916 4.40186C9.79688 4.71924 9.99951 5.12451 9.99951 5.61768C9.99951 6.00342 9.875 6.34521 9.62598 6.64307C9.37695 6.93604 9.06689 7.11426 8.6958 7.17773V7.229C9.13525 7.26807 9.50146 7.44141 9.79443 7.74902C10.0874 8.05664 10.2339 8.42041 10.2339 8.84033C10.2339 9.40186 10.0142 9.86572 9.57471 10.2319C9.13525 10.5933 8.54932 10.7739 7.81689 10.7739Z" fill="#00AE42"/>
</g>
<defs>
<clipPath id="clip0_116_23">
<rect width="15" height="15" fill="white" transform="translate(0.5)"/>
</clipPath>
</defs>
</svg>
