<svg width="18" height="17" viewBox="0 0 18 17" fill="none" xmlns="http://www.w3.org/2000/svg">
<g clip-path="url(#clip0_116_29)">
<path d="M8.73438 16.1953C7.66146 16.1953 6.65104 15.9896 5.70312 15.5781C4.76042 15.1719 3.92708 14.6094 3.20312 13.8906C2.48438 13.1667 1.91927 12.3333 1.50781 11.3906C1.10156 10.4427 0.898438 9.43229 0.898438 8.35938C0.898438 7.28646 1.10156 6.27865 1.50781 5.33594C1.91927 4.38802 2.48438 3.55469 3.20312 2.83594C3.92188 2.11198 4.7526 1.54688 5.69531 1.14062C6.64323 0.729167 7.65365 0.523438 8.72656 0.523438C9.79948 0.523438 10.8099 0.729167 11.7578 1.14062C12.7057 1.54688 13.5391 2.11198 14.2578 2.83594C14.9766 3.55469 15.5417 4.38802 15.9531 5.33594C16.3646 6.27865 16.5703 7.28646 16.5703 8.35938C16.5703 9.43229 16.3646 10.4427 15.9531 11.3906C15.5417 12.3333 14.9766 13.1667 14.2578 13.8906C13.5391 14.6094 12.7057 15.1719 11.7578 15.5781C10.8151 15.9896 9.80729 16.1953 8.73438 16.1953ZM8.73438 15.1875C9.67708 15.1875 10.5599 15.0104 11.3828 14.6562C12.2109 14.3021 12.9375 13.8125 13.5625 13.1875C14.1927 12.5625 14.6823 11.8385 15.0312 11.0156C15.3854 10.1875 15.5625 9.30208 15.5625 8.35938C15.5625 7.41667 15.3854 6.53385 15.0312 5.71094C14.6771 4.88281 14.1875 4.15625 13.5625 3.53125C12.9375 2.90104 12.2109 2.41146 11.3828 2.0625C10.5599 1.70833 9.67448 1.53125 8.72656 1.53125C7.78385 1.53125 6.89844 1.70833 6.07031 2.0625C5.2474 2.41146 4.52344 2.90104 3.89844 3.53125C3.27865 4.15625 2.79167 4.88281 2.4375 5.71094C2.08854 6.53385 1.91406 7.41667 1.91406 8.35938C1.91406 9.30208 2.08854 10.1875 2.4375 11.0156C2.79167 11.8385 3.28125 12.5625 3.90625 13.1875C4.53125 13.8125 5.25521 14.3021 6.07812 14.6562C6.90104 15.0104 7.78646 15.1875 8.73438 15.1875ZM8.78125 12.0156C8.32292 12.0156 7.89844 11.9219 7.50781 11.7344C7.1224 11.5469 6.8125 11.25 6.57812 10.8438C6.43229 10.599 6.31771 10.2839 6.23438 9.89844C6.15104 9.50781 6.10938 9.0599 6.10938 8.55469C6.10938 7.29427 6.36198 6.33854 6.86719 5.6875C7.3724 5.03125 8.0651 4.70312 8.94531 4.70312C9.29948 4.70312 9.61719 4.76042 9.89844 4.875C10.1797 4.98438 10.4167 5.125 10.6094 5.29688C10.8021 5.46354 10.9323 5.63802 11 5.82031C11.0208 5.86198 11.0339 5.90365 11.0391 5.94531C11.0495 5.98698 11.0547 6.03385 11.0547 6.08594C11.0547 6.19531 11.0182 6.28385 10.9453 6.35156C10.8776 6.41927 10.7891 6.45312 10.6797 6.45312C10.5755 6.45312 10.487 6.42708 10.4141 6.375C10.3411 6.32292 10.2604 6.24479 10.1719 6.14062C10.0573 5.95833 9.89323 5.80469 9.67969 5.67969C9.46615 5.55469 9.21094 5.49219 8.91406 5.49219C8.33594 5.49219 7.8724 5.7526 7.52344 6.27344C7.17448 6.78906 7 7.49479 7 8.39062C7 8.40625 7 8.42188 7 8.4375C7 8.44792 7 8.46094 7 8.47656C7.01042 8.47656 7.01823 8.47656 7.02344 8.47656C7.03385 8.47656 7.04167 8.47656 7.04688 8.47656C7.19792 8.15885 7.4349 7.88542 7.75781 7.65625C8.08073 7.42708 8.50521 7.3125 9.03125 7.3125C9.44792 7.3125 9.83073 7.40365 10.1797 7.58594C10.5339 7.76823 10.8151 8.02865 11.0234 8.36719C11.2318 8.70573 11.3359 9.10938 11.3359 9.57812C11.3359 10.3385 11.099 10.9349 10.625 11.3672C10.151 11.7995 9.53646 12.0156 8.78125 12.0156ZM8.74219 11.2734C9.2474 11.2734 9.64844 11.125 9.94531 10.8281C10.2422 10.526 10.3906 10.1276 10.3906 9.63281C10.3906 9.15365 10.2396 8.76823 9.9375 8.47656C9.63542 8.17969 9.24219 8.03125 8.75781 8.03125C8.27344 8.03125 7.8776 8.18229 7.57031 8.48438C7.26302 8.78125 7.10938 9.16146 7.10938 9.625C7.10938 10.099 7.26302 10.4922 7.57031 10.8047C7.8776 11.1172 8.26823 11.2734 8.74219 11.2734Z" fill="#00AE42"/>
</g>
<defs>
<clipPath id="clip0_116_29">
<rect width="17" height="17" fill="white" transform="translate(0.5)"/>
</clipPath>
</defs>
</svg>
