<svg width="16" height="15" viewBox="0 0 16 15" fill="none" xmlns="http://www.w3.org/2000/svg">
<g clip-path="url(#clip0_116_21)">
<path d="M7.84619 14.6924C6.84033 14.6924 5.89307 14.4995 5.00439 14.1138C4.12061 13.7329 3.33936 13.2056 2.66064 12.5317C1.98682 11.853 1.45703 11.0718 1.07129 10.188C0.69043 9.29932 0.5 8.35205 0.5 7.34619C0.5 6.34033 0.69043 5.39551 1.07129 4.51172C1.45703 3.62305 1.98682 2.8418 2.66064 2.16797C3.33447 1.48926 4.11328 0.959473 4.99707 0.578613C5.88574 0.192871 6.83301 0 7.83887 0C8.84473 0 9.79199 0.192871 10.6807 0.578613C11.5693 0.959473 12.3506 1.48926 13.0244 2.16797C13.6982 2.8418 14.228 3.62305 14.6138 4.51172C14.9995 5.39551 15.1924 6.34033 15.1924 7.34619C15.1924 8.35205 14.9995 9.29932 14.6138 10.188C14.228 11.0718 13.6982 11.853 13.0244 12.5317C12.3506 13.2056 11.5693 13.7329 10.6807 14.1138C9.79688 14.4995 8.85205 14.6924 7.84619 14.6924ZM7.84619 13.7476C8.72998 13.7476 9.55762 13.5815 10.3291 13.2495C11.1055 12.9175 11.7866 12.4585 12.3726 11.8726C12.9634 11.2866 13.4224 10.6079 13.7495 9.83643C14.0815 9.06006 14.2476 8.22998 14.2476 7.34619C14.2476 6.4624 14.0815 5.63477 13.7495 4.86328C13.4175 4.08691 12.9585 3.40576 12.3726 2.81982C11.7866 2.229 11.1055 1.77002 10.3291 1.44287C9.55762 1.11084 8.72754 0.944824 7.83887 0.944824C6.95508 0.944824 6.125 1.11084 5.34863 1.44287C4.57715 1.77002 3.89844 2.229 3.3125 2.81982C2.73145 3.40576 2.2749 4.08691 1.94287 4.86328C1.61572 5.63477 1.45215 6.4624 1.45215 7.34619C1.45215 8.22998 1.61572 9.06006 1.94287 9.83643C2.2749 10.6079 2.73389 11.2866 3.31982 11.8726C3.90576 12.4585 4.58447 12.9175 5.35596 13.2495C6.12744 13.5815 6.95752 13.7476 7.84619 13.7476ZM6.19824 10.6348C6.06641 10.6348 5.96387 10.6006 5.89062 10.5322C5.81738 10.459 5.78076 10.3638 5.78076 10.2466C5.78076 10.1831 5.79297 10.1245 5.81738 10.0708C5.8418 10.0122 5.88086 9.95361 5.93457 9.89502L8.34424 7.26562C8.5835 7.01172 8.78613 6.76514 8.95215 6.52588C9.11816 6.28662 9.20117 6.03516 9.20117 5.77148C9.20117 5.43457 9.08398 5.16602 8.84961 4.96582C8.62012 4.76074 8.31006 4.6582 7.91943 4.6582C7.52881 4.6582 7.21631 4.76318 6.98193 4.97314C6.74756 5.18311 6.59375 5.42969 6.52051 5.71289C6.47656 5.80078 6.42285 5.87402 6.35938 5.93262C6.30078 5.98633 6.21777 6.01318 6.11035 6.01318C5.99316 6.01318 5.90039 5.979 5.83203 5.91064C5.76367 5.84229 5.72949 5.74951 5.72949 5.63232C5.72949 5.59326 5.73193 5.5542 5.73682 5.51514C5.7417 5.47119 5.75146 5.4248 5.76611 5.37598C5.86377 4.95605 6.11279 4.60938 6.51318 4.33594C6.91357 4.05762 7.37012 3.91846 7.88281 3.91846C8.52734 3.91846 9.04248 4.08447 9.42822 4.4165C9.81885 4.74365 10.0142 5.17822 10.0142 5.72021C10.0142 6.08643 9.91895 6.42578 9.72852 6.73828C9.54297 7.05078 9.2793 7.39258 8.9375 7.76367L7.02588 9.8291V9.87305H9.94824C10.0557 9.87305 10.1436 9.90723 10.2119 9.97559C10.2852 10.0439 10.3218 10.1367 10.3218 10.2539C10.3218 10.3711 10.2852 10.4639 10.2119 10.5322C10.1436 10.6006 10.0557 10.6348 9.94824 10.6348H6.19824Z" fill="#00AE42"/>
</g>
<defs>
<clipPath id="clip0_116_21">
<rect width="15" height="15" fill="white" transform="translate(0.5)"/>
</clipPath>
</defs>
</svg>
