<svg width="17" height="16" viewBox="0 0 17 16" fill="none" xmlns="http://www.w3.org/2000/svg">
<g clip-path="url(#clip0_116_19)">
<path d="M8.21143 15.3462C7.20557 15.3462 6.2583 15.1533 5.36963 14.7676C4.48584 14.3867 3.70459 13.8594 3.02588 13.1855C2.35205 12.5068 1.82227 11.7256 1.43652 10.8418C1.05566 9.95312 0.865234 9.00586 0.865234 8C0.865234 6.99414 1.05566 6.04932 1.43652 5.16553C1.82227 4.27686 2.35205 3.49561 3.02588 2.82178C3.69971 2.14307 4.47852 1.61328 5.3623 1.23242C6.25098 0.84668 7.19824 0.653809 8.2041 0.653809C9.20996 0.653809 10.1572 0.84668 11.0459 1.23242C11.9346 1.61328 12.7158 2.14307 13.3896 2.82178C14.0635 3.49561 14.5933 4.27686 14.979 5.16553C15.3647 6.04932 15.5576 6.99414 15.5576 8C15.5576 9.00586 15.3647 9.95312 14.979 10.8418C14.5933 11.7256 14.0635 12.5068 13.3896 13.1855C12.7158 13.8594 11.9346 14.3867 11.0459 14.7676C10.1621 15.1533 9.21729 15.3462 8.21143 15.3462ZM8.21143 14.4014C9.09521 14.4014 9.92285 14.2354 10.6943 13.9033C11.4707 13.5713 12.1519 13.1123 12.7378 12.5264C13.3286 11.9404 13.7876 11.2617 14.1147 10.4902C14.4468 9.71387 14.6128 8.88379 14.6128 8C14.6128 7.11621 14.4468 6.28857 14.1147 5.51709C13.7827 4.74072 13.3237 4.05957 12.7378 3.47363C12.1519 2.88281 11.4707 2.42383 10.6943 2.09668C9.92285 1.76465 9.09277 1.59863 8.2041 1.59863C7.32031 1.59863 6.49023 1.76465 5.71387 2.09668C4.94238 2.42383 4.26367 2.88281 3.67773 3.47363C3.09668 4.05957 2.64014 4.74072 2.30811 5.51709C1.98096 6.28857 1.81738 7.11621 1.81738 8C1.81738 8.88379 1.98096 9.71387 2.30811 10.4902C2.64014 11.2617 3.09912 11.9404 3.68506 12.5264C4.271 13.1123 4.94971 13.5713 5.72119 13.9033C6.49268 14.2354 7.32275 14.4014 8.21143 14.4014ZM8.54834 11.3105C8.41162 11.3105 8.3042 11.2666 8.22607 11.1787C8.14795 11.0908 8.10889 10.9688 8.10889 10.8125V5.67822H8.06494L6.92236 6.41797C6.86377 6.45703 6.81494 6.48389 6.77588 6.49854C6.7417 6.5083 6.70264 6.51318 6.65869 6.51318C6.56104 6.51318 6.48047 6.479 6.41699 6.41064C6.35352 6.3374 6.32178 6.25439 6.32178 6.16162C6.32178 6.0249 6.38281 5.91504 6.50488 5.83203L7.91846 4.89453C8.1333 4.74316 8.3335 4.66748 8.51904 4.66748C8.67041 4.66748 8.79004 4.71143 8.87793 4.79932C8.96582 4.88721 9.00977 5.01172 9.00977 5.17285V10.8125C9.00977 10.9688 8.96826 11.0908 8.88525 11.1787C8.80713 11.2666 8.69482 11.3105 8.54834 11.3105Z" fill="#00AE42"/>
</g>
<defs>
<clipPath id="clip0_116_19">
<rect width="16" height="16" fill="white" transform="translate(0.5)"/>
</clipPath>
</defs>
</svg>
