<?xml version="1.0" encoding="utf-8"?>
<!-- Generator: Adobe Illustrator 22.1.0, SVG Export Plug-In . SVG Version: 6.00 Build 0)  -->
<svg version="1.1" id="Layer_1" xmlns="http://www.w3.org/2000/svg" xmlns:xlink="http://www.w3.org/1999/xlink" x="0px" y="0px"
	 viewBox="0 0 200 200" style="enable-background:new 0 0 200 200;" xml:space="preserve">
<style type="text/css">
	.st0{fill:#FFFFFF;}
</style>
<path class="st0" d="M99.6,13.3c47.6,0,86.3,38.7,86.3,86.3s-38.7,86.3-86.3,86.3s-86.3-38.7-86.3-86.3C13.3,52,52,13.3,99.6,13.3
	 M133.7,83.8c-2.4-19.4-19.9-29.3-38.6-27c-14.7,1.8-29.4,15-30,33.9c-0.3,9.9,1.8,17.6,8.6,21.2c2.4,1.2,5.1-0.4,5.4-3.3
	c0.5-4.7-3.1-6.8-3.8-11.6c-3.6-24.9,25.9-41.9,41.4-24.5c10.7,12,3.7,49.1-13.6,45.2c-16.5-3.7,8.1-33.2-5.1-38.9
	c-10.7-4.7-16.4,14.4-11.3,23.9c-2.7,14.6-8.1,28.5-7.3,46c0.1,2.7,3.2,3.8,4.8,1.7c5.3-7.2,7.5-17.8,9.4-28.8
	c4.2,2.8,6.5,5.8,11.9,6.3C125.3,129.5,136.4,105.7,133.7,83.8"/>
</svg>
